<?xml version="1.0" encoding="utf-8"?>
<!-- Generator: Adobe Illustrator 19.0.0, SVG Export Plug-In . SVG Version: 6.00 Build 0)  -->
<svg version="1.1" id="Layer_1" xmlns="http://www.w3.org/2000/svg" xmlns:xlink="http://www.w3.org/1999/xlink" x="0px" y="0px"
	 viewBox="0 0 1210 1230" style="enable-background:new 0 0 1210 1230;" xml:space="preserve">
<style type="text/css">
	.st0{fill:none;stroke:#FFFFFF;stroke-width:0.25;}
	.st1{fill:none;}
</style>
<path id="XMLID_20_" class="st0" d="M1202.6,587.6c-17-27.8-21.4-62.2-36-91.3c-0.9-2.3-1.8-4.5-2.8-6.8
	c-124.1-228.9-281-367.3-512.3-412.8c-17.7-3.5-64.9-21.2-166.3-20.2C375,57.6,364.8,66.9,351.4,69.3
	c-24.8,11.5-48.7,24.7-71.6,39.3L368,88.2c0,0,66.9-6.9,67.1-6.9c43.6-6.8,201-8.4,391.4,71.5c12.8,5.4,98.7,65.2,153.3,116.9
	c37.5,35.6,59.3,63.7,59.3,63.7h-0.1c16.4,19.1,31.3,39,44.7,59.6c0,0.1,0.1,0.1,0.1,0.2C1207.3,589.7,1191,755.9,1191,755.9"/>
<path id="XMLID_19_" class="st0" d="M1175.7,713.5c4.3-21.2-12.4-83.7-20.6-115.1c-5.3-20.5-38.4-147.5-135.4-265
	c-0.5-0.5-95.6-102.5-164.7-150.3c-0.1-0.1-0.2-0.2-0.3-0.2c-13-9-29.5-17.3-48.2-24.8c-5.8-2.4-11.9-4.6-18.1-6.8
	c-17.1-6.1-35.6-11.7-55-16.8c-28-7.4-57.7-13.9-87.2-19.5c-4.9-0.9-9.8-1.8-14.6-2.7c-41.3-7.5-81.6-13.5-115.8-18.2h0
	c-22.7-3.1-48.7-2.8-75.4-0.3c-1.9,0-3.7,0-5.6,0c-0.3,0.2-0.5,0.4-0.8,0.6c-6.9,0.7-26,2.7-26.7,3.4c-14.8,2.2-29.4,4.8-43.7,7.7
	c-0.8-0.1-32.1,7.1-44.6,10.2c-2-0.2-9.9,1.8-12,3.1c-41.9,11-71.2,21.1-71.2,21.1c-23.3,18-45.2,37.7-65.5,58.9
	c25.7-14.6,73.5-38.8,138.4-58.2c90.6-27.1,210.3-50.1,373-2.3c150.7,44.2,294.8,144.8,374.3,289.4
	c69.9,127.3,102.8,284.6,93.8,445.9c9.8-20.8,18.5-42.1,25.9-64.1"/>
<path id="XMLID_18_" class="st0" d="M912,122.2c32.9,19.2,97.7,74.3,97.8,74.4c6.5,6.2,10,9.7,10,9.7l62.4,58.3
	c0,0,30.2,38.9,45.7,52.3c-22.9-40-50.3-77.1-81.4-110.6c-58.3-62.7-129.8-113-210-146.5c0,0-0.1-0.1-0.1-0.1
	c-8.1-7-42.4-15.8-42.4-15.8h-0.1c-53.3-17.6-110-28-168.7-30l0,0l0,0c-6.8-0.2-13.6-0.3-20.3-0.3c-15.9,0-31.6,0.7-47.1,1.9
	c30,1.6,62.3,5.4,96.2,9.1C825.6,56.4,879,103,912,122.2z"/>
<path id="XMLID_17_" class="st0" d="M1198.9,515.6c-54.5-185.2-109.8-208.1-129.6-236c-10.8-12.9-35.3-45.5-43.5-52.2
	c-19.8-16.3-136.8-99.7-181.5-125.7c-44.4-25.9-116.2-49.7-159-57.8c-0.2,0-122.5-21.8-198.7-18.7c-16.7,3.3-33.2,7.4-49.4,12
	c59.7-1.4,133.3,2.5,211.7,19.7c12.7,2.8,25.1,5.8,37.3,9.1c103.2,27.5,192.7,72.7,272.6,137.6c22.5,18.3,44.3,38.3,65.3,59.9
	c2.1,2.2,4.2,4.3,6.3,6.6c58.8,61.8,111.3,136.5,157.2,223.4"/>
<path id="XMLID_16_" class="st0" d="M713.2,287.1c-4-2.6-8.4-5.1-12.8-7.5C704.4,282,708.7,284.5,713.2,287.1z"/>
<path id="XMLID_15_" class="st0" d="M1109.7,624.8c-8-21.6-20.8-79.9-33.7-112c-5.8-14.3-12-28.4-18.6-42.1
	c-13.5-28.1-28.8-55-45.6-80.2c-4.1-6.1-8.3-12.2-12.6-18.1c-1.5-1.8-2.9-3.7-4.1-5.6c-2-3.3-19.4-26.4-27.1-34.2
	C842.7,204.3,664.3,133.2,550.1,131.2c-38.7-0.7-75.1-1.1-108.7,2.3c-49,5-92.1,14.8-127.1,25.2c-1.5,0.5-3.1,0.9-4.6,1.4
	c-5.7,1-18.8,5.6-19.9,6.4c-0.3,0.3-0.7,0.5-1.1,0.7c-7.5,2.8-15.7,6.1-24.9,10c-6,1.9-11.8,4.5-17.3,7.4
	c-26,11.3-55.6,27-78.7,39.9c-4.7,2-9.2,4.4-13.2,7.5c-16.2,9.3-26.8,15.8-26.8,15.8c-8.3,10.7-16.2,21.8-23.8,33.1
	c30.2-23,64.5-43.2,101.8-60.5l32.5-14c48-19.2,100.4-33.7,155.6-42.7c63-10.3,126.5-13,182.8-8.4c35,2.9,67.2,8.5,94.8,16.9
	c7.6,2.3,25.1,9,26.9,9.7c33.8,13.8,68,30.7,100.8,50c41.4,24.3,80.8,52,114.6,81.4c72,62.4,119.3,129.6,141.1,200.3
	c10.5,28.9,16.7,60.1,15.8,94.9c0.8,13.2,1.2,26.9,1.4,40.8c0.9,268.2-41.1,377.7-41.1,377.7c-2.4,7.7-4.8,15.2-7.4,22.5
	c17-16.4,33-33.8,48-52.1c0.5-2.2,0.9-4.5,1.3-6.7c0.5-4.1,0.9-8.6,1.4-13.4v0c0,0,0-0.2,0.1-0.6c0.4-4.1,0.7-8.4,1.1-13
	c1.5-17.6,6-54.6,11.6-124.9c4.3-54.8,5.3-191.1,5.3-191.1c15.1,57,16.8,121.2,16.9,136.3c0.3,38.2-7.4,170.2-7.6,173.5
	c10.4-15.2,20.2-30.7,29.3-46.8c0.2-2.5,0.5-5,0.7-7.4c1.3-15.3,0.9-133.8-4-180.2C1127.2,712.1,1119,654.7,1109.7,624.8z"/>
<path id="XMLID_14_" class="st0" d="M477.8,1065.1c20.7-14.2,50.4-34.2,88.8-58.9c10.2-6.6,19.7-13.1,28.7-19.6
	c29.1-15.8,90.6-87.4,107.2-116.9l0.3-1.3c4-6.8,18.4-29.5,23.7-37.7c19.5-30.4,23.4-84.8,23.9-117.4c0.3-7.3,0.5-14.8,0.5-21.3
	c0-5.4-0.2-10.2-0.6-13.7c-7.9-153.1-48.1-212.1-128.9-256.5c-15.5-5.9-22.2-5.5-23.5-2.2c-0.8,2,0.4,4.9,2.8,8.2
	c4.3,5.8,12.5,12.4,20.2,15.3c0.6,0.2,53.1,20.7,81,96.3c9.9,29.8,16,66.8,16.2,112.5l-0.2,0c0,0-3.8,57.5-42,130c0,0,0,0.1-0.1,0.1
	l-41.1,63.6c-28,34.9-73,81.1-143.3,130.7c-17.3,11-48.8,32.4-54.5,36c0,0-23,14.9-42.3,27.3c-8.1,5.2-15.6,9.9-20.5,13
	c-1.2,0.7-2.5,1.5-3.7,2.3c-34.9,21.2-99.1,56-99.1,56s-4,2.1-6.4,2.9c6.4,4.4,12.9,8.7,19.5,12.8c31.7-14.1,62.4-30.2,92-48.2
	c38.1-17.9,68.6-45.1,104.5-71.2C704.6,851,726.1,747.1,726.1,747.1c-2.8,17.8-16.8,61.8-58.9,129.8
	c-80.6,86-144.2,129.4-151.5,133.1v-0.1c-61.4,40.7-125.5,88.6-199.2,135.7c5.7,3.1,11.4,6.1,17.2,9c24.3-10.8,47.7-23.2,70.2-37.4
	C430.5,1103.5,454.3,1084.6,477.8,1065.1z"/>
<path id="XMLID_13_" class="st0" d="M4.2,666.7c1,11.6,2.3,23.1,3.9,34.6C28.8,686,49.5,670,65,649.7h0c0,0,49.4-65.4,98.4-105.8
	c49-40.4,122.7-102.4,192.8-140.8c56.8-24.6,124.1-49.2,194.8-46.9c208.9-8.4,251.8,193.3,258.5,308.4c0,40.1-4.7,110.2-31.7,185.7
	c-8.9,22.9-25.1,58-36.9,81.6c-18.8,35.6-39.4,68-61.4,97.4c-13.3,17.9-78.6,67.2-163.7,99.5c0,0-53.1,32.7-74.8,45.1
	c-2.8,2-5.7,4-8.7,5.8c-1.2,0.8-2.5,1.5-3.8,2.2c-1.7,1-3.4,2.1-5.2,3c-1.8,1-3.7,1.9-5.5,2.9c-0.6,0.3-1.1,0.6-1.7,0.9
	c8.6,2.8,17.3,5.4,26,7.8c8.4-5.5,63.1-44,81.8-53.9c18.7-9.9,67.4-14.3,88.8-32.2c21.4-17.9,58.8-42.9,77.5-66
	c18.7-23.1,59.7-77.8,74.8-108.9c15.1-31.1,38.8-71.8,43.5-86.9c4.7-15.1,9.3-29.3,9.3-29.3c0-0.1,16.2-49.3,16.2-55
	c0-0.5-0.1-2.8-0.2-6c0.8-13.2,1.8-38.3,0.2-60.6c-0.1-1.4-0.2-2.8-0.4-4.2C833,580.6,808.5,480,741.9,401
	c-50.8-37.3-82.6-63.3-226.2-66.4c-140.5,12.5-296.3,126.3-325.6,146.7c-28.7,20-71.5,46.3-98.6,68.2c-10.8,8.3-73.3,51.7-89.4,61.6
	"/>
<path id="XMLID_12_" class="st0" d="M2.6,642.7c22.9-12.9,74.2-52.7,101.3-79.3C78,595.4,25.5,658.1,4.2,666.7"/>
<path id="XMLID_11_" class="st0" d="M323.1,1012.8c25.9-11.4,71.4-49.8,73.8-51.6c28.8-20.9,52.3-40.2,52.3-40.2l-0.1,0
	c2.8-2.1,5.6-4.3,8.4-6.5l0.1,0.3c0,0,2.2-1.9,6.2-5.3c13.3-10.8,26.1-22.5,38.5-35c35.4-33.7,82.3-82.8,104.4-124.7
	c15.5-29.5,27.6-56.8,34-80c0.1,0,0.2-0.1,0.2-0.1s0.5-2,1.3-5.7c1.6-6.7,2.7-13,3.2-18.8c1.3-10,2.4-22.3,2.4-35.9
	c-0.1-50.1-15.8-116.8-92.3-140.6c-7.1-2.2-32.6-8.1-62.3,9.6c0,0-0.1,0-0.1,0c-14.1,6-45,30.8-74.6,56.5c-3.3,2.9-6.6,5.8-9.9,8.7
	c-4.1,3.3-8.2,6.6-12.3,9.9c-4.1,2.5-51.8,37.3-56.6,40.7c-51.8,36.3-121.3,98.7-149.4,122.3c-37.3,27-74.4,54.2-110.3,83.7
	c-1.4,1.6-2.8,3.1-4.3,4.6c-0.9,0.6-1.8,1.2-2.6,1.7c-19.3,12.6-32.9,21.2-32.9,21.2c0.1,0.2,0.2,0.4,0.2,0.6
	c-0.1,0-0.1,0.1-0.2,0.1c1.8,4.9,3.8,9.8,5.7,14.7c0.5-0.5,1-0.8,1.5-1.2c24.3-8.2,53.5-24.3,84.9-44.6c8-4.6,13.9-7.9,13.9-7.9
	s5-4,11.3-9c37.4-25.9,76.7-56.3,114-85.9c38.9-29.1,75.7-57,76-58.6c16-14.5,31.7-29.7,46.2-45.3c41.7-38.1,80.5-63.8,128.7-96.3
	c8.9-4.9,20.9-11.2,31.4-9.8c3.7,1.3,6.8,4.3,9.2,9.9c-1.2,9.8-5.4,13.1-7.8,13.8c-0.8,0.2-1.9,0.5-3.1,0.8c-1.5,0.1-3,0.3-4.5,0.8
	c-14-1.4-24,5-32.6,13.8c-0.5,0.2-0.9,0.5-1.4,0.7c-15.9,8.8-34.5,22.5-52.8,44c0,0,0,0.1-0.1,0.1c-1.1,1.3-2.3,2.6-3.5,4
	C346.6,674.8,178.6,792.5,100.4,838.3c-2.8,1.4-5.6,2.7-8.2,4c-0.7,0.3-1.3,0.6-2,1c-12.7,4.8-24.9,10.5-36.5,17.2
	c0.1,0.2,0.2,0.4,0.3,0.6c-0.1,0.1-0.2,0.1-0.3,0.2c3.2,7.2,6.5,14.3,10,21.3c1.5-0.9,2.9-1.9,4.4-2.8c0.2-0.1,46.7-21.8,88.9-45.2
	c0.7,0.2,24.8-14.2,36.3-21.6c0,0,0.1,0,0.1,0l0.1-0.1c80.3-52,150.8-101.8,231.2-176.4c2.5-2.3,5.6-5.6,8.6-8.9
	c19.8-19.8,34.9-41.1,44.9-49.6c2.2-0.2,4.7,0.2,7.3,1.6c-27.9,54.7-44.4,76.6-170.6,179.1c-74,52.9-140.1,90.7-147.3,95.1
	c-47.7,25.5-86.4,45-90.1,46.8c-1.1,0.4-2.1,0.8-3.2,1.2c0.1,0.2,0.2,0.4,0.3,0.6c-0.1,0-0.2,0.1-0.3,0.1c2.6,4.8,5.3,9.6,8,14.3
	c34.4-15.2,130-55.3,179.3-89.1c134.5-99.9,191.7-118,249.6-250c0.3-1.2,0.7-2.5,1.2-3.7c0.3-0.9,0.5-1.7,0.8-2.6
	c7.4-14.3,17.1-30,27.7-39.1c5.9-3.8,12.2-6.8,19.3-8.3c21.6-2.3,44,6.5,56.4,30.2c0.2,0.4,0.3,0.7,0.5,1.1c0.5,1.1,1,2.2,1.5,3.3
	c3.7,8.7,6.5,19.7,7.3,33.4c0,0.5,0.1,1,0.1,1.5c0.1,1.4,0.1,2.9,0.1,4.4c0.2,17.7-2.6,39.6-10.3,66.6c-5.1,16.6-20.9,65.5-39,94.4
	C550.7,800.4,464.8,880.7,452.5,892c-62.3,51.2-159.7,118.3-271.8,152.3c6.7,6.6,13.5,13,20.4,19.3c4.1-1.3,12.1-3.7,22.1-6.8
	c9.2-2.8,28.3-9,28.6-9.3C264.5,1043.1,313.3,1017.1,323.1,1012.8z"/>
<path id="XMLID_10_" class="st0" d="M503.5,804.7c3.5-4.2,7.6-9.4,12.5-15.9c33.1-44.5,48.1-73.1,54.8-88.8c1.4-3,2.6-6.1,3.7-9h0
	c0,0,0.1-0.2,0.1-0.4c1.1-3.1,2-6,2.7-8.4c1.9-5.9,4.7-14.8,8.7-27.1c0.4-1.3,0.9-2.6,1.3-4c8.5-22.8,13.6-40.7,15.8-54.8
	c4.2-27-2.5-39.9-17.4-45.7c-1.1-0.5-2.3-0.9-3.6-1.3c-18.1-5.4-33.3,9.9-47.8,34.3c-6.2,10.5-12.4,22.7-18.5,35.7
	c-20.5,43.3-73.9,100.9-73.9,100.9c-9.7,9-22.6,20.5-39.8,35.6c-15.9,13.9-72,59.6-137.3,98.6c-65.3,39-139.6,71.2-139.6,71.2
	c-9.4,5-18.7,10.3-28.5,14.6c0.1,0.2,0.2,0.4,0.4,0.5c-0.1,0.1-0.2,0.1-0.4,0.2c2.3,3.5,4.5,7,6.9,10.5c4.1,5.6,4.1,6.5,5.5,5.5
	l16.2-7.1c0,0,56-25.5,62.1-30.8c17.2-10.1,57-24.8,144.1-75.9c37.4-22,75.9-62.5,122.4-98.4c10.1-7.1,30.8-22.4,43.3-37.7
	c0,0,0,0,0.1,0c0,0,0.1-0.1,0.2-0.3c0.1-0.1,0.2-0.2,0.3-0.3c7.4-9.3,11.3-15.3,12.9-19.2c0.7-1.1,1.3-2.3,2-3.5
	c11.7-22,25.8-52.7,38.2-77.1c9.3-18.3,17.8-33,23.5-37.6c6-2,11.6-1.1,12.9,6.9c-0.5,1.4,0,4.9,0.4,6.9c-0.6,5.3-2.2,11.5-4.4,18
	c-0.7,1.6-1.3,3.2-1.7,4.7c-3.7,9.8-8.4,19.9-12.5,28.1c-0.3,0.5-0.5,1.1-0.8,1.6c-0.6,1.1-1.2,2.3-1.7,3.3c0,0,0,0.1,0,0.1
	l-45.2,96.1l-0.3,0.2c0.3-0.2-12.2,23.4-17.6,31.8c-34.4,50.8-103.1,122.2-158.3,148.1c-65,40.2-126.2,65.7-197.8,93.1
	c5.5,6.5,11.2,12.8,17,19c18.2-6.4,95.8-34,116-46.3C359.8,935.1,440,883,503.5,804.7z"/>
<path id="XMLID_9_" class="st0" d="M484.7,761.1c6.7-6.2,13-11.3,18.9-15.6c12.8-24.5,9-27.3-1.5-21.7
	c-10.5,5.7-30.8,24.5-32.7,26.8C443.5,780.5,368.1,861,287,891.2c-61.9,36.3-154,74.1-169.5,79.7c4.9,6.7,9.9,13.3,15,19.7
	c34.3-7.7,180.3-63.9,260.2-136.7C443.8,807.5,471,777.7,484.7,761.1z"/>
<path id="XMLID_8_" class="st0" d="M441.8,984c0.1-0.1,0.2-0.1,0.3-0.2c14.6-13.8,30.9-26.6,47.3-39.6c0.4-0.1,0.7-0.2,0.7-0.2
	s121.4-90.6,173.3-178.2c3.2-5.4,5.9-10.4,8.4-15.3c0,0,26.4-50.7,25.9-116.3c-0.5-60.6-11.4-115.8-51-153.7
	c-14.6-14.9-30-25.6-45.4-33.2c-4.3-3.8-8.2-7.7-11.6-12c-0.8-0.9-1.6-1.9-2.4-3c-68.2-30.6-129.5,12.7-181.8,37
	C272.9,561.8,150.9,671.2,74.1,740.2c-5.7,4.8-10.3,8.8-13.8,11.7c-4.6,4-34.8,31.5-34.8,31.5c0,0.2,0.1,0.4,0.2,0.6
	c-0.1,0.1-0.2,0.1-0.2,0.1c1.8,6.3,3.8,12.6,5.8,18.8c0.1,0,0.1-0.1,0.2-0.1c1.1,3.6,2,6.2,2,6.2s11.2-8.5,28.9-22
	c15.2-10.1,34-24.8,54.6-41.9c39-30.1,83.6-77.1,117.6-104.4c60.5-48.6,114.4-81.4,153.7-114.1c27.1-20.1,50-42.7,66.5-51.5
	c90.6-64.9,171.3,2,191.4,39.7c21.3,36.7,27.6,77.5,27.5,113c-0.1,16.6-1.6,32-3.5,45.3c-4.2,25-17.7,82.3-57.7,129.1
	c-40.1,46.7-69.7,65-96.5,88.3v-0.7c0,0,0,0,0,0c-2,2-3.9,3.9-5.8,5.9c-6.2,5.7-12.2,11.8-18.3,18.7c-7.3,7.4-14.7,14.8-22.1,22
	c-4.3,3.4-10.5,9.1-19.3,17.6c-8.3,7.2-71.1,49.6-76.4,54.6c-10.9,6.4-22,12.7-33.1,18.8c-6,2.1-11.5,5.3-16.8,8.9
	c-0.1,0.1-0.2,0.1-0.2,0.2c-0.2,0.1-0.3,0.2-0.5,0.3c-50.3,26.5-94.2,45.8-94.2,45.8h0c-1.4,0.5-2.9,1-4.3,1.5
	c6.1,4.9,12.2,9.8,18.5,14.5c38.9-16.3,76.1-35.9,113.3-55.4C357,1042.7,420,1003.1,441.8,984z"/>
<path id="XMLID_7_" class="st0" d="M955.9,828.5c27.7-156.4,15.7-292.3-42.6-404.3c-3.4-5.1-54.9-71.4-79.5-97.5
	c-100.6-106.7-243-126-243-126c-33.7-2.8-65-1-95.7,1.9c-41.9,7-41.9,7-63.1,9.8C361.6,225,313,241.8,313,241.8l-17.3,3.4
	c0,0-69.5,24.9-127.7,50.7c-3.4,1.5-6.8,3-10.1,4.5c-21.4,9.7-83.7,49.8-91.2,56.5c-4.5,4.1-7.5,7.2-9.3,9.4
	c-2.7,3.2-3.2,4.7-3.2,4.7c-7.6,17.1-14.5,34.5-20.5,52.4c39.6-33.6,81.2-63.5,125-89c40.5-20.2,82.6-40.8,106-51
	c0.1,0,0.1-0.1,0.2-0.1c54.3-23.5,143.1-40,143.1-40s96.1-25.1,177.7-18.3c11.1,0.9,20.9,1.8,29.6,2.7c31.3,3.2,58.5,18.3,58.7,18.7
	c4.1,2.1,32.4,14.3,42.5,17.9c4.1,3,8.6,6.2,13.5,9.4c4.5,3.3,9.2,6.7,14.1,10.4c118,89.4,151.4,160.5,151.4,160.5
	c83.9,141.4,59.5,326.8,4.7,537c-49.2,112.1-66.9,109.6-89,145.1c-6.3,7.8-50.2,59.7-50.2,59.7c-5.4,5.7-12.8,11-18.8,15.6l0.5,0
	h0.7v0v0.6c14.3-3.4,28.4-7.3,42.2-11.6c0.3-0.7,0.6-1.5,0.8-2.3c24-36.7,78.2-78.2,103.5-136.8
	C924.8,977.8,933.5,906.3,955.9,828.5z"/>
<path id="XMLID_6_" class="st0" d="M1055.5,667c0.3-21.8-0.2-43.1-1.6-63.2c0.5-29.3-0.2-58-13.2-80.3c-8.3-28.7-20.9-56.1-36.6-82
	C941.4,338.6,827.6,258.6,724,210.8c0,0-9.5-6.1-20.6-9.1c-5.6-2.4-11.1-4.7-16.6-6.8c-67-26.6-174.1-32.8-281.5-16.4
	c-3,0.4-5.9,0.9-8.9,1.4c-46.2,7.6-90.2,19-131.3,33.8c-4.3,1.6-8.6,3.2-12.9,4.8c-0.2,0.1-0.4,0.1-0.4,0.1s-0.1,0.1-0.3,0.1
	c-41.6,16-79.8,35.5-113.8,58.2l-0.2,0.1c0,0,0.1,0,0.2-0.1c-5.4,3.6-10.6,7.3-15.8,11c-17.7,10.5-32.3,19.9-39.1,26.3v5.5
	c0,0,77-46.1,148.8-74.7c23.1-9.2,45.7-16.6,64.9-20c75.3-13.4,205.7-45.6,260.9-39.3c2.8,0.3,59.1,6.6,61.2,7.1
	c4.3,1.7,8.5,2.4,12.6,2.7c29.6,6.4,63.8,20.9,69,23.5c12.3,6.1,24.6,8.1,35.5,15.2c3.7,3,7.7,5.9,12.4,8.4
	c132.6,79.9,173,160.6,173,160.6c15.4,22.3,29.2,45.5,37.2,71.7c52.3,119.4,33.6,291.2-2.3,445.2c-11.2,41.9-35.8,128.1-58.1,169.1
	c-24.3,34.8-52.7,65.3-81.8,91.4c18.1-6.8,35.7-14.4,52.9-22.8c27.4-34.7,58-63.2,77.8-112.4c10.1-31.7,20.2-63.5,30.3-95.2
	c32.3-136.6,34.2-257.5,35.3-378.1c-19.7-96.7-47.7-123.2-68.8-176.6c38.9,31.3,55.5,74.1,68.6,118.7l0-0.1c0,0,0,0.1,0.1,0.2
	c1.4,4.7,2.7,9.4,4,14.1c0.3,0.2,5.8,29,5,31.5c11.6,157.5,14.3,429.3-100.5,567c-1.2,1.5-2.5,3-3.7,4.6c23-14,45-29.5,65.9-46.4
	c7.8-11.2,15-22.8,21.4-35.6c0,0,47.7-168.1,50.8-376.3C1055.4,671.2,1055.5,669.1,1055.5,667z"/>
<path id="XMLID_5_" class="st0" d="M2.8,587.4C71.4,533.5,140.9,481.3,212,432c1.4-4.5,183.2-124.2,326.8-115.6
	c41.7-8.7,287.3,4.4,316.5,325.4c2.2,24.3,4.4,63.5,0.9,103c-2.1,18.8-4.4,32.9-7.1,44.3c0,0-21,65.6-26.6,75.9
	c-0.1,0.2-53.7,109.9-53.9,110c0,0.1-25.2,34.5-51.5,69.8c-7,8.3-15,18.2-23.5,29.6c-26.4,35.2-46.2,52.6-94.6,68.2
	c-15.3,4.9-84.9,27.8-90.9,31l-48.9,27.9c11,3,20.9,0.2,26.3-1.3c3.1-0.9,5.1-1.7,7-2.9c25.9-7.5,56.4-7,94.5-20.6
	c30.8-11,49.4-14.1,60.5-25.3c0.1-0.1,36-26,40.2-34c20.8-28.9,54.4-75.6,91.6-126.7c50.1-71.1,82.5-148.5,82.7-152.8
	c13.1-34.3,15.4-96.9,15.4-96.9l-0.2,0c7.8-73.7,3.1-140.9-14.3-201.6c-1.3-22-14.8-49.9-50.4-106.3
	C640.2,210.8,378,301.2,298.2,349.6c-34.6,16.2-68.2,34.2-101.7,52.5C136.4,437.5,14.6,537.6,6.9,539.3
	C4.9,555.1,3.5,571.2,2.8,587.4"/>
<path id="XMLID_4_" class="st0" d="M586.3,1069.3c27.1-14.4,50-31.8,68.9-49.6c2.5-1.2,12.6-11.7,16.8-16.9
	c27-29.2,43.8-57.3,52.4-73.6c6.8-10.8,13.5-21.8,20-33.2c1.3,0.4,24.9-64.2,37.8-103c0.5-0.6,0.8-1,0.8-1s8.7-81.7,9.5-111.4
	c0.1-2,0-3.8-0.2-5.4c0.8-48.1-16.8-125.2-24.3-145.5c-13.8-37.1-39.6-78.7-51-88.3c-8.8-10.5-59-74.2-174.2-67.9
	c-65.3,1.9-120.9,24.2-172.4,52.6c0,0-0.1,0-0.2,0.1c-26.3,13.4-107.1,70.3-141.1,93.8C154,572,74.9,688.5,11.8,724.3
	c1.9,10.7,4.1,21.3,6.6,31.7c60.4-33.3,111.5-98.4,160.9-144.4c96.9-90.5,166.8-136.5,238.7-172.6c55.3-27.8,83.3-50.7,160-44.9
	c0,0,182.6,10.2,191.7,277.6v0c-0.2,0.1-0.3,0.2-0.3,0.2s3.2,78-7.9,120.4c-1.7,5.7-3.3,11-4.3,14.2l0,0
	c-0.2,0.7-13.1,37.9-32.8,77.4c-8,16-24.8,40.4-39.3,60.6c-6.4,7.8-15.1,18.1-26.7,31c-25,27.6-114.8,73-142.6,86.7
	c0,0-8.7,4.6-9.3,5.6c-25.4,20.6-97.1,78.8-140.2,101.6c8.6,3.7,17.3,7.2,26.1,10.6c30.9-15.8,60-35,88-56.6
	C503.1,1112.5,537.5,1095.2,586.3,1069.3z"/>
<path id="XMLID_3_" class="st0" d="M664.7,1216.4c17.8-1.7,35.3-4.2,52.6-7.4c1.3-1.6,2.8-3.4,4.6-5.2c0.1,0,0.2,0,0.3,0
	c0.3-0.2,0.5-0.5,0.8-0.7c0.3-0.3,25.3-22.3,34.6-33.7c5-6.1,16.5-20.7,16.6-21.2c62.7-71.1,153.1-213.5,148-440
	c7.7-84.3,1.7-161.6-31.5-224.8c-4.6-11.9-9.9-23.3-15.8-34.5c-4.6-8.6-9.7-17.1-15.2-25.3c-10-25.1-63-74-69.3-78.5
	c-14.6-13.7-31.1-27.4-49.4-40.2l0,0c-6-4.5-14.1-9.6-22.8-14.8c-1.6-1-3.3-2-5-3c0,0,0,0-0.1,0.1c-25.3-14.5-53.8-28.3-53.8-28.3
	c-14.9-4.1-29.4-7.2-43.5-9.6c-19.5-3.2-38-4.9-54.8-5.6c-21.9-0.9-41.1-0.1-56.3,1.2c-2.9-0.6-5.1,0-7.3,0.7
	c-2.5,0.3-4.8,0.5-7,0.8C489.3,246,302.9,275.8,227,322c-18.9,7.5-35.5,19.2-53.8,27.8C122.6,369.4,28.9,456.7,24.8,459
	c-3.9,15.9-12.5,44.7-15.1,61.1c1.5-0.5,118.5-103.3,160.9-131.2c1-3,88.6-53.3,133.1-72.5c72.4-23.4,147.5-41.5,229.4-46.6
	c10.4-0.5,140.7-29.4,279.8,143.8c79.2,71.8,94.1,176.7,87.4,292.8c-0.3,3.5-1.3,16.9-3.3,36.2c-0.2,1.6-1.7,15.2-5.2,42.6
	c0,0.1-10.5,62.2-57.6,152.7c-41.8,80.3-93.6,150.3-93.6,150.3c-1.1,1.1-8.3,8.9-7.8,9.5c-4.5,6.7-17.1,26.2-19.3,28.8
	c-52.4,59.4-152.2,85.6-188.6,87.5"/>
<path id="XMLID_2_" class="st0" d="M587.2,1219c34.4-8.4,69.4-19,89.6-30.5c0.1,0,0.1,0.1,0.2,0.1c0,0,0.1-0.1,0.1-0.1
	c0.4-0.3,0.9-0.7,1.4-1c4.6-2.8,8.4-5.6,11.1-8.5c0.3-0.3,0.6-0.7,0.9-1c15.7-12.8,36.4-30.9,37.8-33.8
	c10.5-17.1,36.1-51.3,54.4-73.8c8.6-12.9,25.8-47.4,33.6-60.9c18.1-29.7,61.8-122.6,74.6-144.5c-3.3,12.7-30.6,84-34.7,94.8
	c-47.6,126.4-107.5,184.2-124,202.1c-0.6-0.2-21,20.6-32.5,31.4c-3.9,2.7-13.6,9.4-35.1,23.1"/>
<rect id="XMLID_1_" x="121.4" y="256.7" class="st1" width="971" height="661.9"/>
</svg>
