<?xml version="1.0" encoding="utf-8"?>
<!-- Generator: Adobe Illustrator 19.0.0, SVG Export Plug-In . SVG Version: 6.00 Build 0)  -->
<svg version="1.1" id="Layer_1" xmlns="http://www.w3.org/2000/svg" xmlns:xlink="http://www.w3.org/1999/xlink" x="0px" y="0px"
	 viewBox="0 0 197 183" style="enable-background:new 0 0 197 183;" xml:space="preserve">
<style type="text/css">
	.st0{fill:#00AEEF;}
</style>
<path class="st0" d="M116,102.4c1.1-1.1,2.3-1.7,3.6-2c0,0,0,0,0-0.1c1.9-13.5-2.6-29-18.1-37.5c-2.3-0.9-3.4-0.8-3.6-0.3
	c-0.1,0.3,0.1,0.7,0.4,1.2c0.6,0.9,1.9,1.9,3,2.3c0.1,0,8,3.1,12.2,14.5c1.8,5.5,2.8,12.5,2.4,21.6c0,0,0,0.1,0,0.1c0,0,0,0,0,0
	C116,102.3,116,102.3,116,102.4C116,102.4,116,102.4,116,102.4"/>
<path class="st0" d="M107.3,115.6L107.3,115.6l4.7-7.7c0,0,0-0.1,0-0.1c0.6-4.3,1-8.7,1.1-12.8c0.1-9.2-1.7-17.5-7.7-23.2
	c-2.2-2.3-4.5-3.9-6.9-5c-0.6-0.6-1.2-1.2-1.7-1.8c-0.1-0.1-0.2-0.3-0.4-0.4c-10.3-4.6-19.6,1.9-27.5,5.6c-20,14-38.4,30.5-50,40.9
	c-0.9,0.7-1.6,1.3-2.1,1.8c-0.7,0.6-5.3,4.8-5.3,4.8c0,0,0,0.1,0,0.1c0,0,0,0,0,0c0.3,1,0.6,1.9,0.9,2.8c0,0,0,0,0,0
	c0.2,0.5,0.3,0.9,0.3,0.9s1.7-1.3,4.4-3.3c2.3-1.5,5.1-3.7,8.2-6.3c5.9-4.5,12.6-11.6,17.8-15.8c9.1-7.3,17.3-12.3,23.2-17.2
	c4.1-3,7.5-6.5,10-7.8c13.7-9.8,25.9,0.3,28.9,6c3.2,5.5,4.2,11.7,4.2,17.1c0,7.8-2.1,14-2.1,14V115.6L107.3,115.6L107.3,115.6z"/>
<path class="st0" d="M122.1,175.9c0.8-0.9,2.5-3.1,2.5-3.2c9.5-10.7,23.1-32.2,22.4-66.5c1.2-12.7,0.3-24.4-4.8-34
	c-0.7-1.8-1.5-3.5-2.4-5.2c-0.7-1.3-1.5-2.6-2.3-3.8C136,59.4,128,52,127.1,51.3c-2.2-2.1-4.7-4.1-7.5-6.1l0,0
	c-0.9-0.7-2.1-1.5-3.4-2.2c-0.3-0.2-0.5-0.3-0.8-0.5c0,0,0,0,0,0c-3.8-2.2-8.1-4.3-8.1-4.3c-2.2-0.6-4.4-1.1-6.6-1.4
	c-2.9-0.5-5.7-0.7-8.3-0.9c-3.3-0.1-6.2,0-8.5,0.2c-0.4-0.1-0.8,0-1.1,0.1c-0.4,0-0.7,0.1-1,0.1c-0.2,0-28.3,4.5-39.8,11.4
	c-2.8,1.1-5.4,2.9-8.1,4.2C26.2,55,12,68.2,11.4,68.6c-0.6,2.4-1.9,6.8-2.3,9.2C9.3,77.7,27,62.2,33.4,58
	c0.1-0.5,13.4-8.1,20.1-10.9c10.9-3.5,22.3-6.3,34.7-7c1.6-0.1,21.3-4.4,42.3,21.7c12,10.8,14.2,26.7,13.2,44.2
	c0,0.5-0.2,2.5-0.5,5.5c0,0.2-0.3,2.3-0.8,6.4c0,0-1.6,9.4-8.7,23.1c-6.3,12.1-14.1,22.7-14.1,22.7c-0.2,0.2-1.3,1.3-1.2,1.4
	c-0.7,1-2.6,3.9-2.9,4.3c-0.7,1-7.8,7.1-6.6,6.6c-0.2,0.2-0.4,0.4-0.5,0.7c0.1,0.2,0.2,0.3,0.3,0.5c0.4,0.6,0.8,1.1,1.4,1.6
	c0,0,0,0,0,0c1.9-1.4,7.5-6.1,7.7-6.7c1.6-2.6,5.4-7.8,8.2-11.2c1.3-1.9,3.9-7.2,5.1-9.2c2.7-4.5,9.3-18.5,11.3-21.8
	c-0.5,1.9-4.6,12.7-5.2,14.3c-7.2,19.1-16.2,27.8-18.7,30.5c-0.1,0-4.4,4.3-5.7,5.4c0,0,0,0,0,0c0.8,0.3,3.1,0.7,3.3,0.7h-0.3
	c0.1,0,0.9,0.1,1.2,0.1c0,0,0.1-0.1,0.1-0.1C116.9,180.9,120.7,177.6,122.1,175.9"/>
<path class="st0" d="M190,92.3C190,92.3,190,92.3,190,92.3c-0.3-1.5-0.5-2.9-0.7-4.3c-2.6-4.2-3.2-9.4-5.4-13.8
	c-0.1-0.3-0.3-0.7-0.4-1c-18.8-34.6-42.5-55.5-77.4-62.4c-2.7-0.5-9.8-3.2-25.1-3.1C64.3,7.9,62.8,9.3,60.7,9.7
	c-3.8,1.7-7.4,3.7-10.8,5.9l13.3-3.1c0,0,10.1-1,10.1-1c6.6-1,30.4-1.3,59.1,10.8c1.9,0.8,14.9,9.9,23.1,17.7c5.7,5.4,9,9.6,9,9.6h0
	c2.5,2.9,4.7,5.9,6.7,9c0,0,0,0,0,0c18.7,29.7,16.2,54.8,16.2,54.8C189.2,106.6,190,99.6,190,92.3"/>
<path class="st0" d="M185.5,117.5c-0.1-1.1-0.2-2.4-0.4-4.1v0c-0.1-2.3-0.2-4.9,0.1-6.4c0.7-3.2-1.9-12.6-3.1-17.4
	c-0.8-3.1-5.8-22.3-20.4-40c-0.1-0.1-14.4-15.5-24.9-22.7c0,0,0,0,0,0c-2-1.4-4.5-2.6-7.3-3.8c-0.9-0.4-1.8-0.7-2.7-1
	c-2.6-0.9-5.4-1.8-8.3-2.5c-4.2-1.1-8.7-2.1-13.2-2.9c-0.7-0.1-1.5-0.3-2.2-0.4c-6.2-1.1-12.3-2-17.5-2.8c-3.4-0.5-7.4-0.4-11.4,0
	c-0.3,0-0.6,0-0.8,0c0,0-0.1,0.1-0.1,0.1c-1,0.1-3.9,0.4-4,0.5c-2.2,0.3-4.4,0.7-6.6,1.2c-0.1,0-4.9,1.1-6.7,1.5
	c-0.3,0-1.5,0.3-1.8,0.5c-6.3,1.7-10.8,3.2-10.8,3.2c-3.5,2.7-6.8,5.7-9.9,8.9c3.9-2.2,11.1-5.9,20.9-8.8
	c13.7-4.1,31.8-7.6,56.3-0.4c22.8,6.7,44.5,21.9,56.5,43.7c10.6,19.2,15.5,43,14.2,67.4c1.5-3.1,2.8-6.4,3.9-9.7
	c0,0,0.1-0.1,0.1-0.5c0.1-0.5,0.2-1.5,0.1-3.3l0,0.1C185.5,117.8,185.5,117.7,185.5,117.5"/>
<path class="st0" d="M145.4,17.7c5,2.9,14.8,11.2,14.8,11.2c1,0.9,1.5,1.5,1.5,1.5l9.4,8.8c0,0,4.6,5.9,6.9,7.9
	c-3.5-6-7.6-11.6-12.3-16.7c-8.8-9.5-19.6-17.1-31.7-22.1c0,0,0,0,0,0c-1.2-1.1-6.4-2.4-6.4-2.4h0c-8.1-2.7-16.6-4.2-25.5-4.5l0,0
	l0,0c-1,0-2-0.1-3.1-0.1c-2.4,0-4.8,0.1-7.1,0.3c4.5,0.2,9.4,0.8,14.5,1.4C132.4,7.7,140.4,14.8,145.4,17.7"/>
<path class="st0" d="M105.7,7.8c1.9,0.4,3.8,0.9,5.6,1.4c15.6,4.2,29.1,11,41.2,20.8c3.4,2.8,6.7,5.8,9.9,9.1c0.3,0.3,0.6,0.7,1,1
	c8.9,9.3,16.8,20.6,23.8,33.8c0.6,1.1,1.1,2.2,1.7,3.3c-8.2-28-16.6-31.4-19.6-35.7c-1.6-1.9-5.3-6.9-6.6-7.9
	c-3-2.5-20.7-15.1-27.4-19c-6.7-3.9-17.6-7.5-24-8.7c0,0-18.5-3.3-30-2.8c-2.5,0.5-5,1.1-7.5,1.8C82.7,4.6,93.8,5.2,105.7,7.8"/>
<path class="st0" d="M115.4,42.6c-0.6-0.4-1.3-0.8-1.9-1.1C114.1,41.8,114.7,42.2,115.4,42.6"/>
<path class="st0" d="M175.3,93.6c-1.2-3.3-3.1-12.1-5.1-16.9c-0.9-2.2-1.8-4.3-2.8-6.4c-2-4.3-4.3-8.3-6.9-12.1
	c-0.6-0.9-1.3-1.8-1.9-2.7c-0.2-0.3-0.4-0.6-0.6-0.8c-0.3-0.5-2.9-4-4.1-5.2C135,30.1,108,19.3,90.8,19c-5.9-0.1-11.4-0.2-16.4,0.4
	c-7.4,0.8-13.9,2.2-19.2,3.8c-0.2,0.1-0.5,0.1-0.7,0.2c-0.9,0.2-2.8,0.8-3,1c-0.1,0-0.1,0.1-0.2,0.1c-1.1,0.4-2.4,0.9-3.8,1.5
	c-0.9,0.3-1.8,0.7-2.6,1.1c-3.9,1.7-8.4,4.1-11.9,6c-0.7,0.3-1.4,0.7-2,1.1c-2.4,1.4-4.1,2.4-4.1,2.4c-1.3,1.6-2.5,3.3-3.6,5
	c4.6-3.5,9.7-6.5,15.4-9.1l4.9-2.1c7.3-2.9,15.2-5.1,23.5-6.5c9.5-1.6,19.1-2,27.6-1.3c5.3,0.4,10.2,1.3,14.3,2.6
	c1.1,0.3,3.8,1.4,4.1,1.5c5.1,2.1,10.3,4.6,15.2,7.5c6.3,3.7,12.2,7.9,17.3,12.3c10.9,9.4,18,19.6,21.3,30.3
	c1.6,4.4,2.5,9.1,2.4,14.3c0.1,2,0.2,4.1,0.2,6.2c0.1,40.5-6.2,57.1-6.2,57.1c-0.4,1.2-0.7,2.3-1.1,3.4c2.6-2.5,5-5.1,7.2-7.9
	c0.1-0.3,0.1-0.7,0.2-1c0.1-0.6,0.1-1.3,0.2-2l0,0c0,0,0,0,0-0.1c0.1-0.6,0.1-1.3,0.2-2c0.2-2.7,0.9-8.3,1.7-18.9
	c0.6-8.3,0.8-28.9,0.8-28.9c2.3,8.6,2.5,18.3,2.5,20.6c0,5.8-1.1,25.7-1.1,26.2c1.6-2.3,3.1-4.6,4.4-7.1c0-0.4,0.1-0.8,0.1-1.1
	c0.2-2.3,0.1-20.2-0.6-27.2C177.9,106.8,176.7,98.1,175.3,93.6"/>
<path class="st0" d="M174,143.8C174,143.8,174,143.8,174,143.8C174,143.8,174,143.9,174,143.8L174,143.8z"/>
<path class="st0" d="M81,180.5c1-0.3,1.2-0.5,2.2-1.3l1.3-2l0.6-1.9l-8.1,5.4C78.7,181.2,80.2,180.7,81,180.5"/>
<path class="st0" d="M34.7,91.6c14.6-13.7,25.2-20.6,36-26.1c8.4-4.2,12.6-7.7,24.2-6.8c0,0,27.6,1.5,29,41.9c0,0,0,0,0,0
	c0.8,0.2,1.6,0.5,2.5,0.9l0.9,0.4c0,0,0,0,0,0c0.3-7.2-2.5-19.5-3.7-22.7c-2.1-5.6-6-11.9-7.7-13.3c-1.3-1.6-8.9-11.2-26.3-10.3
	c-9.9,0.3-18.3,3.6-26,8c0,0,0,0,0,0c-4,2-16.2,10.6-21.3,14.2C30.9,85.6,19,103.2,9.4,108.6c0.3,1.6,0.6,3.2,1,4.8
	C19.6,108.4,27.3,98.6,34.7,91.6"/>
<path class="st0" d="M107.3,143.2c0.2-0.2,4.9-7.8,8.1-13.6c1.8-3.1,3.2-5.8,3.4-6.6h0v0c0.1-0.2,0.1-0.4,0.2-0.5
	c0.9-2.1,1.6-4.1,2-5.7l-0.7-0.3c-1.2-0.5-2.3-0.9-3.2-1.1c-1.3,2.4-2.6,6.9-2.9,8.3c-1.3,3.3-6.9,14.2-6.9,14.2V143.2z"/>
<path class="st0" d="M107.3,153c4.6-5.5,8.9-11.6,12.8-18.5c0.2,0.1,3.8-9.9,5.8-15.8l-2.8-1.2c-0.4,1.3-0.8,2.7-1,3.4l0,0
	c0,0.1-2,5.7-5,11.7c-2.3,4.6-9.3,13.6-9.8,14.5V153z"/>
<path class="st0" d="M55.5,172.2c0.9,0.5,1.7,0.9,2.6,1.4c3.7-1.6,7.2-3.5,10.6-5.6c6.1-3.2,11.3-8.2,16.9-12.6c0,0,0,0,0,0
	c0,0,0-3.6,0-3.6C76.3,157.9,66.6,165.1,55.5,172.2"/>
<path class="st0" d="M63,175.9c1.3,0.6,2.6,1.1,3.9,1.6c6.7-3.4,12.8-7.9,18.6-12.9l0,0v-5.1l0,0C85.3,159.5,70.9,171.7,63,175.9"/>
<path class="st0" d="M74.3,176.5c-0.4,0.3-0.9,0.6-1.3,0.9c-0.2,0.1-0.4,0.2-0.6,0.3c-0.3,0.2-0.5,0.3-0.8,0.5
	c-0.3,0.2-0.6,0.3-0.8,0.4c-0.1,0-0.2,0.1-0.3,0.1c1.3,0.4,2.6,0.8,3.9,1.2l11.1-7.5l0,0c0-0.6,0-1.2,0-1.8v-1.4l0,0
	C81.8,172,78,174.4,74.3,176.5"/>
<path class="st0" d="M17.5,97.4L17.5,97.4c0,0,7.5-9.9,14.9-16c7.4-6.1,18.5-15.5,29.1-21.3c8.6-3.7,18.7-7.4,29.4-7.1
	c33.8-1.4,38.8,33.6,39.2,50c0,0,0,0,0,0l3.5,1.4v0c0-17.3-3.7-32.6-13.9-44.7c-7.7-5.6-12.5-9.6-34.2-10
	c-21.2,1.9-44.8,19.1-49.2,22.2c-4.3,3-10.8,7-14.9,10.3C19.8,83.5,10.4,90,8,91.5c0,0.3,0,0.5,0,0.8c0,1.3,0,2.7,0.1,4
	c3.5-1.9,11.2-8,15.3-12c-3.9,4.8-11.8,14.3-15.1,15.6c0.1,1.8,0.3,3.5,0.6,5.2C12,102.8,15.1,100.4,17.5,97.4"/>
<path class="st0" d="M96.1,82.4c-0.2-0.1-0.4-0.1-0.5-0.2c-2.7-0.8-5,1.5-7.2,5.2c-0.9,1.6-1.9,3.4-2.8,5.4
	C82.5,99.3,74.4,108,74.4,108c-1.5,1.4-3.4,3.1-6,5.4c-2.4,2.1-10.9,9-20.7,14.9c-9.9,5.9-21.1,10.8-21.1,10.8
	c-1.4,0.8-2.8,1.6-4.3,2.2c0,0,0,0.1,0,0.1c0,0,0,0,0,0c0.3,0.5,0.7,1.1,1,1.6c0.6,0.8,0.6,1,0.8,0.8l2.4-1.1c0,0,8.5-3.8,9.4-4.7
	c2.6-1.5,8.6-3.8,21.8-11.5c6.1-3.6,12.4-10.5,20.2-16.2c0,0-0.1,0-0.1,0c0,0,0.1,0,0.1-0.1c-0.4-0.1-1.3-0.4-1.3-0.4v0v-3v-0.1
	c2.5-0.2,3.7-0.4,6.1-0.7c0,0,0.4-0.6,1.1-1.6c0,0,0,0,0,0c0.1-0.1,0.6-0.8,1.2-1.9c1.8-3.3,3.9-8,5.8-11.6c1.4-2.8,2.7-5,3.5-5.7
	c0.9-0.3,1.8-0.2,2,1c-0.1,0.2,0,0.7,0.1,1C96.3,88,96.1,89,95.7,90c-0.1,0.2-0.2,0.5-0.3,0.7c-0.6,1.5-1.3,3-1.9,4.2
	c0,0.1-0.1,0.2-0.1,0.2c-0.1,0.2-0.2,0.3-0.3,0.5c0,0,0,0,0,0c-2.3,4.3-5.1,9.4-5.1,9.4c0,0,0,0,0.1,0c1.1-0.2,2.9-0.7,4.5-1
	c0.7-0.2,1.4-0.3,1.8-0.5c0,0,0.5-1.7,1.7-5.4c0.1-0.2,0.1-0.4,0.2-0.6c1.3-3.4,2-6.1,2.4-8.3C99.4,85.2,98.4,83.3,96.1,82.4"/>
<path class="st0" d="M56.5,152.2c3.9-1.7,10.8-7.5,11.1-7.8c4.4-3.2,7.9-6.1,7.9-6.1l0,0c3.6-2.6,6.9-5.7,10.1-9.1c0,0,0,0,0,0v-3.9
	c0,0,0,0,0,0C80.1,130.9,60,149.4,35,157c1,1,2,2,3.1,2.9c0.6-0.2,1.8-0.6,3.3-1c1.4-0.4,4.3-1.4,4.3-1.4
	C47.6,156.8,55,152.9,56.5,152.2"/>
<path class="st0" d="M82.7,111.7l-2.7-0.8c0,0-13.8,17.3-29,22.9c-9.4,5.5-23.3,11.2-25.6,12c0.7,1,1.5,2,2.3,3
	c5.2-1.2,27.2-9.7,39.3-20.6C79.9,116.5,82.7,111.7,82.7,111.7"/>
<path class="st0" d="M85.6,118.4C85.6,118.4,85.6,118.4,85.6,118.4c0-0.7,0-1.3,0-1.9c-0.1-1.5-0.3-2.5-0.8-3.2
	c-4.7,7.7-16,19.9-25,24.1c-9.8,6.1-19.1,9.9-29.9,14.1c0.8,1,1.7,1.9,2.6,2.9c2.7-1,14.5-5.1,17.5-7
	C62.8,140,75.7,131.6,85.6,118.4"/>
<path class="st0" d="M110.1,118.1l-0.8,1c-0.9,2.6-1.6,5.6-2.1,6.9v6.2c2.3-3.6,5.6-12,6.6-17.1
	C112.4,115.6,111.3,116.5,110.1,118.1"/>
<path class="st0" d="M74.4,147.9C74.4,147.8,74.4,147.8,74.4,147.9c3.4-3.2,7.4-6.1,11.2-9.2l0,0v-5c0,0,0,0,0,0
	c-2.3,2.3-4.6,4.8-7,7c-0.7,0.5-1.6,1.4-2.9,2.7c-1.3,1.1-10.7,7.5-11.5,8.2c-1.6,1-3.3,1.9-5,2.8c-0.9,0.3-1.7,0.8-2.5,1.3
	c0,0,0,0,0,0c0,0,0,0-0.1,0.1c-7.6,4-14.2,6.9-14.2,6.9h0c-0.2,0.1-0.4,0.1-0.6,0.2c0.9,0.7,1.9,1.5,2.8,2.2
	c5.9-2.5,11.5-5.4,17.1-8.4C61.6,156.7,71.1,150.7,74.4,147.9"/>
<path class="st0" d="M85.6,147.8v-3.1l0,0c-0.5,0.3-1.7,0.8-2.1,1.1c-1.2,0.6-8.7,5.7-9.8,6.4c0,0-3.5,2.2-6.4,4.1
	c-1.2,0.8-2.4,1.5-3.1,2c-0.2,0.1-0.4,0.2-0.6,0.3c-5.3,3.2-15,8.5-15,8.5s-0.6,0.3-1,0.4c1,0.7,2,1.3,3,1.9
	c4.8-2.1,9.4-4.6,13.9-7.3C72,158.6,77.6,152.7,85.6,147.8"/>
<path class="st0" d="M152.1,124.4c4.2-23.6,2.4-44.2-6.4-61.1c-0.5-0.8-8.3-10.8-12-14.7c-15.2-16.1-36.7-19-36.7-19
	c-5.1-0.4-9.8-0.2-14.5,0.3c-6.3,1.1-6.3,1.1-9.5,1.5c-10.6,1.9-18,4.4-18,4.4l-2.6,0.5c0,0-10.5,3.8-19.3,7.7
	c-0.5,0.2-1,0.5-1.5,0.7c-3.2,1.5-12.6,7.5-13.8,8.5c-0.7,0.6-1.1,1.1-1.4,1.4c-0.4,0.5-0.5,0.7-0.5,0.7c-1.1,2.6-2.2,5.2-3.1,7.9
	c6-5.1,12.3-9.6,18.9-13.4c6.1-3.1,12.5-6.2,16-7.7c0,0,0,0,0,0c8.2-3.6,21.6-6,21.6-6s14.5-3.8,26.8-2.8c1.7,0.1,3.2,0.3,4.5,0.4
	c4.7,0.5,8.8,2.8,8.9,2.8c0.6,0.3,4.9,2.2,6.4,2.7c0.6,0.5,1.3,0.9,2,1.4c0.7,0.5,1.4,1,2.1,1.6c17.8,13.5,22.9,24.2,22.9,24.2
	c12.7,21.4,9,49.4,0.7,81.1c-7.4,16.9-10.1,16.6-13.4,21.9c-0.9,1.2-7.6,9-7.6,9c-0.8,0.9-1.9,1.7-2.8,2.4l0.1,0h0.1v0v0.1
	c2.2-0.5,4.3-1.1,6.4-1.8c0-0.1,0.1-0.2,0.1-0.3c3.6-5.5,11.8-11.8,15.6-20.7C147.3,146.9,148.7,136.1,152.1,124.4"/>
<path class="st0" d="M167.1,100c0-3.3,0-6.5-0.2-9.6c0.1-4.4,0-8.8-2-12.1c-1.3-4.3-3.1-8.5-5.5-12.4c-9.5-15.5-26.7-27.6-42.3-34.8
	c0,0-1.4-0.9-3.1-1.4c-0.8-0.4-1.7-0.7-2.5-1c-10.1-4-26.3-4.9-42.5-2.5c-0.4,0.1-0.9,0.1-1.3,0.2c-7,1.1-13.6,2.9-19.8,5.1
	c-0.7,0.2-1.3,0.5-1.9,0.7c0,0-0.1,0-0.1,0s0,0,0,0c-6.3,2.4-12.1,5.4-17.2,8.8l0,0c0,0,0,0,0,0c-0.8,0.5-1.6,1.1-2.4,1.7
	c-2.7,1.6-4.9,3-5.9,4v0.8c0,0,11.6-7,22.5-11.3c3.5-1.4,6.9-2.5,9.8-3c11.4-2,31.1-6.9,39.4-5.9c0.4,0,8.9,1,9.2,1.1
	c0.6,0.3,1.3,0.4,1.9,0.4c4.5,1,9.6,3.2,10.4,3.5c1.9,0.9,3.7,1.2,5.4,2.3c0.6,0.5,1.2,0.9,1.9,1.3c20,12.1,26.1,24.3,26.1,24.3
	c2.3,3.4,4.4,6.9,5.6,10.8c7.9,18,5.1,44-0.4,67.2c-1.7,6.3-5.4,19.3-8.8,25.5c-3.7,5.3-8,9.9-12.4,13.8c2.7-1,5.4-2.2,8-3.4
	c4.1-5.2,8.8-9.5,11.8-17c1.5-4.8,3.1-9.6,4.6-14.4c4.9-20.6,5.2-38.9,5.3-57.1c-3-14.6-7.2-18.6-10.4-26.7
	c5.9,4.7,8.4,11.2,10.4,17.9l0,0c0,0,0,0,0,0c0.2,0.7,0.4,1.4,0.6,2.1c0,0,0.9,4.4,0.8,4.8c1.8,23.8,2.2,64.9-15.2,85.7
	c-0.2,0.2-0.4,0.5-0.6,0.7c3.5-2.1,6.8-4.5,10-7c1.2-1.7,2.3-3.4,3.2-5.4c0,0,7.2-25.4,7.7-56.8C167.1,100.6,167.1,100.3,167.1,100"
	/>
<path class="st0" d="M137.9,125.8c2-5.2,2.3-14.6,2.3-14.6l0,0c1.2-11.1,0.5-21.3-2.2-30.4c-0.2-3.3-2.2-7.5-7.6-16.1
	c-26-33.6-65.6-19.9-77.7-12.6c-5.2,2.5-10.3,5.2-15.4,7.9C28.3,65.3,9.9,80.4,8.7,80.7c-0.3,2.4-0.5,4.8-0.6,7.3
	c10.4-8.1,20.9-16,31.6-23.5C39.9,63.8,67.3,45.7,89,47c6.3-1.3,43.4,0.7,47.8,49.1c0.3,3.7,0.7,9.6,0.1,15.6
	c-0.3,2.8-0.7,5-1.1,6.7c0,0-3.2,9.9-4,11.5c0,0-8.1,16.6-8.1,16.6c0,0-15,20.5-16.5,22v2.9c0,0.7,0,1.3,0.1,1.8
	c0.3-0.2,0.6-0.4,0.9-0.6c0,0,7.8-10.9,17.1-23.7C132.9,138.1,137.8,126.4,137.9,125.8"/>
<path class="st0" d="M107.3,163.3c11.1-10.2,22.5-36,24-40.3c0,0,0,0,0,0c1.3-3.8,2.4-7.4,2.4-8.3c0-0.3-0.2-3.9-0.1-5.6
	c0,0-7.5,16-7.6,16.4c-0.9,2.9-4.1,10-6.3,14.5c-3.7,7-7.8,13.1-12.3,18.6V163.3z"/>
<path class="st0" d="M91.6,70c-1.1-0.3-4.9-1.2-9.4,1.4c0,0,0,0,0,0c-2.1,0.9-6.8,4.7-11.3,8.5c-0.5,0.4-1,0.9-1.5,1.3
	c-0.6,0.5-1.2,1-1.9,1.5c-0.6,0.4-7.8,5.6-8.6,6.1c-7.8,5.5-18.3,14.9-22.6,18.5c-5.6,4.1-11.2,8.2-16.7,12.6
	c-0.2,0.2-0.4,0.5-0.7,0.7c-0.1,0.1-0.3,0.2-0.4,0.3c-2.9,1.9-5,3.2-5,3.2c0,0,0,0.1,0,0.1c0,0,0,0,0,0c0.3,0.7,0.6,1.5,0.9,2.2
	c0.1-0.1,0.1-0.1,0.2-0.2c3.7-1.2,8.1-3.7,12.8-6.7c1.2-0.7,2.1-1.2,2.1-1.2s0.8-0.6,1.7-1.4c5.6-3.9,11.6-8.5,17.2-13
	c5.9-4.4,11.4-8.6,11.5-8.9c2.4-2.2,4.8-4.5,7-6.8c6.3-5.8,12.2-9.6,19.4-14.5c1.3-0.7,3.2-1.7,4.7-1.5c0.6,0.2,1,0.7,1.4,1.5
	c-0.2,1.5-0.8,2-1.2,2.1c-0.1,0-0.3,0.1-0.5,0.1c-0.2,0-0.5,0-0.7,0.1c-2.1-0.2-3.6,0.8-4.9,2.1c-0.1,0-0.1,0.1-0.2,0.1
	c-2.4,1.3-5.2,3.4-8,6.6c0,0,0,0,0,0c-0.2,0.2-0.3,0.4-0.5,0.6c-16.7,15.5-42.1,33.3-53.9,40.2c-0.4,0.2-0.8,0.4-1.2,0.6
	c-0.1,0-0.2,0.1-0.3,0.1c-1.9,0.7-3.8,1.6-5.5,2.6c0,0,0,0.1,0,0.1c0,0,0,0,0,0c0.5,1.1,1,2.2,1.5,3.2c0.2-0.1,0.4-0.3,0.7-0.4
	c0,0,7.1-3.3,13.4-6.8c0.1,0,3.8-2.1,5.5-3.3c0,0,0,0,0,0l0,0c12.1-7.8,22.8-15.4,34.9-26.6c0.4-0.3,0.8-0.8,1.3-1.3
	c3-3,5.3-6.2,6.8-7.5c0.3,0,0.7,0,1.1,0.2c-4.2,8.3-6.7,11.6-25.8,27.1c-11.2,8-21.2,13.7-22.3,14.4c-7.2,3.9-13.1,6.8-13.6,7.1
	c-0.2,0.1-0.3,0.1-0.5,0.2c0,0,0,0.1,0.1,0.1c0,0,0,0-0.1,0c0.4,0.7,0.8,1.4,1.2,2.2c5.2-2.3,19.6-8.4,27.1-13.5
	c20.3-15.1,29-17.8,37.7-37.8c0-0.2,0.1-0.4,0.2-0.6c0-0.1,0.1-0.3,0.1-0.4c1.1-2.2,2.6-4.5,4.2-5.9c0.9-0.6,1.8-1,2.9-1.3
	c3.3-0.3,6.7,1,8.5,4.6c0,0.1,0.1,0.1,0.1,0.2c0.1,0.2,0.2,0.3,0.2,0.5c0.6,1.3,1,3,1.1,5.1c0,0.1,0,0.1,0,0.2c0,0.2,0,0.4,0,0.7
	c0,3.2-0.6,7.3-2.3,12.5c0,0,0,0,0,0c0.4-0.1,4.6-1.7,4.6-1.7c0,0,1.1-4,1.1-9.1C105.5,83.7,103.1,73.6,91.6,70"/>
</svg>
