<?xml version="1.0" encoding="utf-8"?>
<!-- Generator: Adobe Illustrator 19.0.0, SVG Export Plug-In . SVG Version: 6.00 Build 0)  -->
<svg version="1.1" id="Layer_1" xmlns="http://www.w3.org/2000/svg" xmlns:xlink="http://www.w3.org/1999/xlink" x="0px" y="0px"
	 viewBox="-459 569 291 94" style="enable-background:new -459 569 291 94;" xml:space="preserve">
<style type="text/css">
	.st0{enable-background:new    ;}
	.st1{fill:#00AEEF;}
</style>
<g class="st0">
	<path class="st1" d="M-373.1,651.1C-373.1,651-373.1,651-373.1,651.1l3.3-10.6c0-0.2,0.1-0.2,0.3-0.2c0.1,0,0.2,0.1,0.3,0.2
		l3.2,10.5c0,0,0,0,0,0.1c0,0.1-0.1,0.3-0.3,0.3c-0.1,0-0.2-0.1-0.2-0.2l-0.8-2.5h-4.5l-0.7,2.5c0,0.1-0.1,0.2-0.3,0.2
		C-372.9,651.3-373.1,651.2-373.1,651.1z M-367.5,648.1l-2.1-6.7l-2.1,6.7H-367.5z"/>
	<path class="st1" d="M-358.2,649.6c0-2.3-3.8-1.1-3.8-3.5c0-0.9,0.7-1.9,2.2-1.9c0.9,0,1.8,0.3,1.8,0.6c0,0.1-0.1,0.3-0.3,0.3
		c-0.2,0-0.7-0.4-1.6-0.4c-1.3,0-1.7,0.8-1.7,1.4c0,2,3.8,0.7,3.8,3.5c0,1.1-0.8,1.8-2.3,1.8c-1.3,0-2.2-0.6-2.2-1
		c0-0.1,0.1-0.3,0.2-0.3c0.3,0,0.6,0.7,2,0.7C-358.7,650.9-358.2,650.3-358.2,649.6z"/>
	<path class="st1" d="M-351.7,647v4c0,0.1-0.1,0.3-0.3,0.3c-0.1,0-0.3-0.1-0.3-0.3v-0.8c-0.5,0.6-1.3,1.1-2.2,1.1
		c-1.2,0-2.1-0.6-2.1-2c0-1.6,1.4-2,3.5-2h0.8V647c0-1.1-0.6-2.3-2-2.3c-0.9,0-1.4,0.4-1.6,0.4c-0.2,0-0.3-0.2-0.3-0.3
		c0-0.3,0.9-0.6,1.9-0.6C-352.3,644.1-351.7,645.5-351.7,647z M-352.2,648h-0.8c-1.5,0-3,0.1-3,1.5c0,1,0.7,1.5,1.5,1.5
		c1.1,0,2.3-1,2.3-1.6V648z"/>
</g>
<g class="st0">
	<path class="st1" d="M-349.2,644.2h2.3c0.1,0,0.3,0.1,0.3,0.3c0,0.1-0.1,0.3-0.3,0.3h-2.3v6.3c0,0.2-0.1,0.3-0.3,0.3
		c-0.1,0-0.2-0.1-0.2-0.3v-8.6c0-1.4,1.2-2.7,2.7-2.7h0.1c0.1,0,0.3,0.1,0.3,0.3c0,0.1-0.1,0.3-0.3,0.3h-0.1c-1.2,0-2.1,1-2.1,2.1
		V644.2z"/>
</g>
<g class="st0">
	<path class="st1" d="M-341.1,646.8c0,1.1-0.6,1.1-1.2,1.1h-3.5v0.7c0,1.4,1.1,2.2,2.5,2.2c1.3,0,1.5-0.6,1.8-0.6
		c0.1,0,0.3,0.2,0.3,0.3c0,0.3-0.8,0.9-2.1,0.9c-1.8,0-3-1.1-3-2.7v-1.9c0-1.4,1.2-2.7,2.7-2.7
		C-342.3,644.1-341.1,645.3-341.1,646.8z M-342.5,647.4c0.7,0,0.9-0.1,0.9-0.6c0-1.1-0.8-2.2-2.1-2.2c-1.2,0-2.1,1-2.1,2.1v0.6
		H-342.5z"/>
	<path class="st1" d="M-328,644.5c0,0.1,0,0.2-0.1,0.2l-2.4,6.5c0,0.1-0.1,0.2-0.2,0.2c-0.1,0-0.1,0-0.2-0.2l-1.8-5.6l-1.7,5.5
		c-0.1,0.2-0.1,0.3-0.3,0.3c-0.1,0-0.2,0-0.3-0.3l-2.3-6.4c0,0-0.1-0.2-0.1-0.2c0-0.1,0.1-0.3,0.3-0.3c0.1,0,0.2,0.1,0.3,0.2
		l2.1,5.9l1.7-5.4c0-0.1,0.1-0.2,0.3-0.2s0.2,0.1,0.3,0.2l1.7,5.5l2.2-5.9c0-0.1,0.1-0.2,0.2-0.2C-328.1,644.2-328,644.3-328,644.5z
		"/>
</g>
<g class="st0">
	<g>
		<path class="st1" d="M-321.9,647v4c0,0.1-0.1,0.3-0.3,0.3c-0.1,0-0.3-0.1-0.3-0.3v-0.8c-0.5,0.6-1.3,1.1-2.2,1.1
			c-1.2,0-2.1-0.6-2.1-2c0-1.6,1.4-2,3.5-2h0.8V647c0-1.1-0.6-2.3-2-2.3c-0.9,0-1.4,0.4-1.6,0.4c-0.2,0-0.3-0.2-0.3-0.3
			c0-0.3,0.9-0.6,1.9-0.6C-322.5,644.1-321.9,645.5-321.9,647z M-322.4,648h-0.8c-1.5,0-3,0.1-3,1.5c0,1,0.7,1.5,1.5,1.5
			c1.1,0,2.3-1,2.3-1.6V648z"/>
	</g>
</g>
<g class="st0">
	<path class="st1" d="M-315.4,644.4C-315.4,644.4-315.4,644.4-315.4,644.4l-2.4,6.7c-0.5,1.5-1.3,3.7-2.7,3.7
		c-0.1,0-0.3-0.1-0.3-0.3c0-0.1,0.1-0.3,0.2-0.3c1.1,0,1.7-1.8,2.2-3.2l-2.4-6.6c0,0,0-0.1,0-0.1c0-0.1,0.1-0.3,0.3-0.3
		c0.1,0,0.2,0.1,0.2,0.2l2.2,6l2.2-6c0-0.1,0.1-0.2,0.2-0.2C-315.6,644.1-315.4,644.2-315.4,644.4z"/>
</g>
<g class="st0">
	<path class="st1" d="M-311.1,641c0-0.1,0.1-0.3,0.3-0.3c0.1,0,0.3,0.1,0.3,0.3v3.2h2c0.1,0,0.3,0.1,0.3,0.3c0,0.1-0.1,0.3-0.3,0.3
		h-2v4.5c0,1.1,0.4,1.6,1.7,1.6h0.3c0.1,0,0.3,0.1,0.3,0.3c0,0.1-0.1,0.3-0.3,0.3h-0.3c-1.4,0-2.2-0.6-2.2-2.1V641z"/>
</g>
<g class="st0">
	<path class="st1" d="M-302.1,646.8v1.8c0,1.4-1.2,2.7-2.7,2.7s-2.6-1.3-2.6-2.7v-1.8c0-1.4,1.2-2.7,2.6-2.7
		C-303.3,644.1-302.1,645.3-302.1,646.8z M-302.6,646.8c0-1.1-0.9-2.2-2.1-2.2s-2.1,1.1-2.1,2.2v1.8c0,1.1,0.9,2.2,2.1,2.2
		s2.1-1.1,2.1-2.2V646.8z"/>
	<path class="st1" d="M-293.9,649.6c0-2.3-3.8-1.1-3.8-3.5c0-0.9,0.7-1.9,2.2-1.9c0.9,0,1.8,0.3,1.8,0.6c0,0.1-0.1,0.3-0.3,0.3
		c-0.2,0-0.7-0.4-1.6-0.4c-1.3,0-1.7,0.8-1.7,1.4c0,2,3.8,0.7,3.8,3.5c0,1.1-0.8,1.8-2.3,1.8c-1.3,0-2.2-0.6-2.2-1
		c0-0.1,0.1-0.3,0.2-0.3c0.3,0,0.6,0.7,2,0.7C-294.3,650.9-293.9,650.3-293.9,649.6z"/>
	<path class="st1" d="M-291.2,651c0,0.1-0.1,0.3-0.3,0.3s-0.3-0.1-0.3-0.3v-11c0-0.2,0.1-0.3,0.3-0.3s0.3,0.1,0.3,0.3v5.2
		c0.3-0.6,1-1.1,2-1.1c1.5,0,2.7,1.2,2.7,2.7v4.2c0,0.2-0.1,0.3-0.3,0.3c-0.1,0-0.3-0.1-0.3-0.3v-4.2c0-1.1-1-2.2-2.1-2.2
		c-1,0-2.1,0.8-2.1,2.2V651z"/>
	<path class="st1" d="M-280.2,647v4c0,0.1-0.1,0.3-0.3,0.3s-0.3-0.1-0.3-0.3v-0.8c-0.5,0.6-1.3,1.1-2.2,1.1c-1.2,0-2.1-0.6-2.1-2
		c0-1.6,1.4-2,3.5-2h0.8V647c0-1.1-0.6-2.3-2-2.3c-0.9,0-1.4,0.4-1.6,0.4c-0.2,0-0.3-0.2-0.3-0.3c0-0.3,0.9-0.6,1.9-0.6
		C-280.8,644.1-280.2,645.5-280.2,647z M-280.7,648h-0.8c-1.5,0-3,0.1-3,1.5c0,1,0.7,1.5,1.5,1.5c1.1,0,2.3-1,2.3-1.6V648z"/>
</g>
<g class="st0">
	<path class="st1" d="M-275.6,644.7c-1,0-2.1,0.8-2.1,2.2v4.2c0,0.1-0.1,0.3-0.3,0.3s-0.3-0.1-0.3-0.3v-6.5c0-0.2,0.1-0.3,0.3-0.3
		s0.3,0.1,0.3,0.3v0.8c0.3-0.6,1-1.1,2.1-1.1h0.6c0.1,0,0.3,0.1,0.3,0.3c0,0.1-0.1,0.3-0.3,0.3H-275.6z"/>
</g>
<g class="st0">
	<path class="st1" d="M-269,646.8c0,1.1-0.6,1.1-1.2,1.1h-3.5v0.7c0,1.4,1.1,2.2,2.5,2.2c1.3,0,1.5-0.6,1.8-0.6
		c0.1,0,0.3,0.2,0.3,0.3c0,0.3-0.8,0.9-2.1,0.9c-1.8,0-3-1.1-3-2.7v-1.9c0-1.4,1.2-2.7,2.7-2.7C-270.2,644.1-269,645.3-269,646.8z
		 M-270.4,647.4c0.7,0,0.9-0.1,0.9-0.6c0-1.1-0.8-2.2-2.1-2.2c-1.2,0-2.1,1-2.1,2.1v0.6H-270.4z"/>
	<path class="st1" d="M-259.8,644.4C-259.8,644.4-259.8,644.4-259.8,644.4l-2.4,6.7c-0.5,1.5-1.3,3.7-2.7,3.7
		c-0.1,0-0.3-0.1-0.3-0.3c0-0.1,0.1-0.3,0.2-0.3c1.1,0,1.7-1.8,2.2-3.2l-2.4-6.6c0,0,0-0.1,0-0.1c0-0.1,0.1-0.3,0.3-0.3
		c0.1,0,0.2,0.1,0.2,0.2l2.2,6l2.2-6c0-0.1,0.1-0.2,0.2-0.2C-259.9,644.1-259.8,644.2-259.8,644.4z"/>
	<path class="st1" d="M-253.4,646.8v1.8c0,1.4-1.2,2.7-2.7,2.7s-2.6-1.3-2.6-2.7v-1.8c0-1.4,1.2-2.7,2.6-2.7
		C-254.7,644.1-253.4,645.3-253.4,646.8z M-253.9,646.8c0-1.1-0.9-2.2-2.1-2.2s-2.1,1.1-2.1,2.2v1.8c0,1.1,0.9,2.2,2.1,2.2
		s2.1-1.1,2.1-2.2V646.8z"/>
	<path class="st1" d="M-251.7,648.7v-4.2c0-0.1,0.1-0.3,0.3-0.3c0.1,0,0.3,0.1,0.3,0.3v4.2c0,1.1,0.9,2.2,2.1,2.2
		c1.2,0,2.1-1,2.1-2.2v-4.2c0-0.1,0.1-0.3,0.3-0.3s0.3,0.1,0.3,0.3v4.2c0,1.4-1.2,2.7-2.7,2.7C-250.5,651.4-251.7,650.1-251.7,648.7
		z"/>
	<path class="st1" d="M-241.8,644.7c-1,0-2.1,0.8-2.1,2.2v4.2c0,0.1-0.1,0.3-0.3,0.3c-0.1,0-0.3-0.1-0.3-0.3v-6.5
		c0-0.2,0.1-0.3,0.3-0.3c0.2,0,0.3,0.1,0.3,0.3v0.8c0.3-0.6,1-1.1,2.1-1.1h0.6c0.1,0,0.3,0.1,0.3,0.3c0,0.1-0.1,0.3-0.3,0.3H-241.8z
		"/>
	<path class="st1" d="M-236.1,641.4c0,0.3-0.2,0.5-0.5,0.5c-0.3,0-0.5-0.2-0.5-0.5c0-0.3,0.2-0.5,0.5-0.5
		C-236.3,640.9-236.1,641.2-236.1,641.4z M-236.3,644.5v6.5c0,0.1-0.1,0.3-0.3,0.3c-0.1,0-0.3-0.1-0.3-0.3v-6.5
		c0-0.2,0.1-0.3,0.3-0.3C-236.4,644.2-236.3,644.3-236.3,644.5z"/>
	<path class="st1" d="M-233.7,651c0,0.1-0.1,0.3-0.3,0.3c-0.2,0-0.3-0.1-0.3-0.3v-6.5c0-0.2,0.1-0.3,0.3-0.3c0.1,0,0.3,0.1,0.3,0.3
		v0.8c0.3-0.6,1-1.1,2-1.1c1.5,0,2.7,1.2,2.7,2.7v4.2c0,0.2-0.1,0.3-0.3,0.3c-0.1,0-0.3-0.1-0.3-0.3v-4.2c0-1.1-1-2.2-2.1-2.2
		c-1,0-2.1,0.8-2.1,2.2V651z"/>
</g>
<g class="st0">
	<path class="st1" d="M-226.5,644.2h2.3c0.2,0,0.3,0.1,0.3,0.3c0,0.1-0.1,0.3-0.3,0.3h-2.3v6.3c0,0.2-0.1,0.3-0.3,0.3
		c-0.1,0-0.2-0.1-0.2-0.3v-8.6c0-1.4,1.2-2.7,2.7-2.7h0.1c0.2,0,0.3,0.1,0.3,0.3c0,0.1-0.1,0.3-0.3,0.3h-0.1c-1.2,0-2.1,1-2.1,2.1
		V644.2z"/>
</g>
<g class="st0">
	<path class="st1" d="M-217.9,646.8v1.8c0,1.4-1.2,2.7-2.7,2.7s-2.6-1.3-2.6-2.7v-1.8c0-1.4,1.2-2.7,2.6-2.7
		C-219.1,644.1-217.9,645.3-217.9,646.8z M-218.4,646.8c0-1.1-0.9-2.2-2.1-2.2c-1.2,0-2.1,1.1-2.1,2.2v1.8c0,1.1,0.9,2.2,2.1,2.2
		s2.1-1.1,2.1-2.2V646.8z"/>
	<path class="st1" d="M-213.5,644.7c-1,0-2.1,0.8-2.1,2.2v4.2c0,0.1-0.1,0.3-0.3,0.3s-0.3-0.1-0.3-0.3v-6.5c0-0.2,0.1-0.3,0.3-0.3
		s0.3,0.1,0.3,0.3v0.8c0.3-0.6,1-1.1,2.1-1.1h0.6c0.1,0,0.3,0.1,0.3,0.3c0,0.1-0.1,0.3-0.3,0.3H-213.5z"/>
	<path class="st1" d="M-207,646.8c0-1.2-0.9-2.1-1.9-2.1c-1,0-2,0.8-2,2.2v4.2c0,0.1-0.1,0.3-0.3,0.3s-0.3-0.1-0.3-0.3v-6.5
		c0-0.2,0.1-0.3,0.3-0.3s0.3,0.1,0.3,0.3v0.8c0.3-0.6,1-1.1,2-1.1c1,0,1.9,0.6,2.2,1.5c0.5-1,1.4-1.5,2.3-1.5c1.3,0,2.5,1,2.5,2.7
		v4.2c0,0.1-0.1,0.3-0.3,0.3c-0.1,0-0.3-0.1-0.3-0.3v-4.2c0-1.4-1-2.2-1.9-2.2c-1,0-2,0.8-2,2.1v4.3c0,0.2-0.1,0.3-0.3,0.3
		c-0.1,0-0.3-0.1-0.3-0.3V646.8z"/>
	<path class="st1" d="M-195.7,647v4c0,0.1-0.1,0.3-0.3,0.3c-0.1,0-0.3-0.1-0.3-0.3v-0.8c-0.5,0.6-1.3,1.1-2.2,1.1
		c-1.2,0-2.1-0.6-2.1-2c0-1.6,1.4-2,3.5-2h0.8V647c0-1.1-0.6-2.3-2-2.3c-0.9,0-1.4,0.4-1.6,0.4c-0.2,0-0.3-0.2-0.3-0.3
		c0-0.3,0.9-0.6,1.9-0.6C-196.3,644.1-195.7,645.5-195.7,647z M-196.2,648h-0.8c-1.5,0-3,0.1-3,1.5c0,1,0.7,1.5,1.5,1.5
		c1.1,0,2.3-1,2.3-1.6V648z"/>
	<path class="st1" d="M-193.7,641c0-0.1,0.1-0.3,0.3-0.3c0.1,0,0.3,0.1,0.3,0.3v3.2h2c0.1,0,0.3,0.1,0.3,0.3c0,0.1-0.1,0.3-0.3,0.3
		h-2v4.5c0,1.1,0.4,1.6,1.7,1.6h0.3c0.1,0,0.3,0.1,0.3,0.3c0,0.1-0.1,0.3-0.3,0.3h-0.3c-1.4,0-2.2-0.6-2.2-2.1V641z"/>
	<path class="st1" d="M-188.9,641.4c0,0.3-0.2,0.5-0.5,0.5c-0.3,0-0.5-0.2-0.5-0.5c0-0.3,0.2-0.5,0.5-0.5
		C-189.1,640.9-188.9,641.2-188.9,641.4z M-189.1,644.5v6.5c0,0.1-0.1,0.3-0.3,0.3c-0.1,0-0.3-0.1-0.3-0.3v-6.5
		c0-0.2,0.1-0.3,0.3-0.3C-189.2,644.2-189.1,644.3-189.1,644.5z"/>
	<path class="st1" d="M-182,646.8v1.8c0,1.4-1.2,2.7-2.7,2.7s-2.6-1.3-2.6-2.7v-1.8c0-1.4,1.2-2.7,2.6-2.7
		C-183.3,644.1-182,645.3-182,646.8z M-182.5,646.8c0-1.1-0.9-2.2-2.1-2.2c-1.2,0-2.1,1.1-2.1,2.2v1.8c0,1.1,0.9,2.2,2.1,2.2
		s2.1-1.1,2.1-2.2V646.8z"/>
	<path class="st1" d="M-179.7,651c0,0.1-0.1,0.3-0.3,0.3s-0.3-0.1-0.3-0.3v-6.5c0-0.2,0.1-0.3,0.3-0.3s0.3,0.1,0.3,0.3v0.8
		c0.3-0.6,1-1.1,2-1.1c1.5,0,2.7,1.2,2.7,2.7v4.2c0,0.2-0.1,0.3-0.3,0.3c-0.1,0-0.3-0.1-0.3-0.3v-4.2c0-1.1-1-2.2-2.1-2.2
		c-1,0-2.1,0.8-2.1,2.2V651z"/>
</g>
<path id="XMLID_5_" class="st1" d="M-340.7,593.1c1.4,0,2.7-0.6,3.8-1.7c1.1-1.2,1.6-2.6,1.6-4.2c0-1.2-0.3-2.1-1-2.8
	c-0.7-0.7-1.6-1-2.8-1c-1.3,0-2.5,0.6-3.6,1.8c-1.1,1.2-1.7,2.6-1.7,4.3c0,1,0.3,1.9,1,2.6C-342.7,592.7-341.8,593.1-340.7,593.1"/>
<path id="XMLID_2_" class="st1" d="M-307.6,587.7c-0.1-0.1-0.3-0.1-0.6-0.1h-4.8l1.6-3.7c2.3-5.3,3.4-9.1,3.4-11.5
	c0-0.8-0.2-1.4-0.5-1.8c-0.4-0.4-0.9-0.6-1.5-0.6c-1.3,0-2.5,0.7-3.7,2.1c-1.9,2.2-3.9,7.4-6.2,15.6h-6.3c-1.1,0-2,0.3-2.6,0.9
	c-0.6,0.6-0.9,1.5-0.9,2.9c0,0.6,0.1,1.1,0.4,1.3c0.2,0.2,0.7,0.4,1.3,0.4h5.8c-0.9,2-2,4.5-3.2,7.6l0,0c0,0-0.9,2.5-2,3.6
	c-2.5,2.5-4.4,4.3-5.7,5.4c-1.5,1.3-5.9,4.8-5.9,4.8c-5.4,4.6-8.7,6.9-9.8,6.9c-0.2,0-0.4-0.1-0.6-0.2c-0.2-0.1-0.2-0.3-0.2-0.5
	c0-0.4,0.2-1.1,0.6-1.9l9-20.4h-7c-0.8,1.7-1.5,3.3-2.2,4.9c-4.4,4.6-8.4,8.3-11.9,11l0,0c-4.1,3.1-8.7,7.4-13.9,12.9
	c2.3-5.9,5.3-12.2,8.9-18.9h-7.3c-2.5,5.1-5.3,8.9-8.3,11.6c-2.1,1.8-4,2.7-5.5,2.7c-0.8,0-1.4-0.3-1.9-1c-0.5-0.7-0.8-1.8-0.8-3.5
	c0-4.2,1.5-7.7,4.6-10.5c3.1-2.8,7.3-4.2,12.7-4.2c1.2,0,2.6,0.1,4.2,0.4c1,0.2,1.6,0.3,2,0.3c0.3,0,0.5-0.1,0.6-0.2
	c0.1-0.1,0.2-0.3,0.2-0.5c0-0.3-0.1-1.1-0.3-2.3c-0.2-1.2-0.3-2.1-0.4-2.7c-1.5-0.3-3.2-0.5-5.2-0.5c-8.4,0-14.8,2-19.3,5.9
	c-2.8,2.4-4.7,5.2-5.7,8.3c0,0,0,0,0,0.1c-0.1,0.2-0.1,0.4-0.2,0.5c-0.1,0.3-0.4,0.7-0.8,1c-0.1,0.1-0.3,0.3-0.4,0.4
	c-4.3,3.9-7.5,6.4-9.6,7.5c-2.2,1.2-4.4,1.7-6.6,1.7c-1.8,0-3-0.3-3.8-1c-0.8-0.6-1.2-1.7-1.4-3.2c4.5-0.7,7.9-1.6,10.2-2.6
	c3.8-1.6,6.5-3.5,8.3-5.7c1.8-2.2,2.7-4.4,2.7-6.7c0-1.9-0.7-3.4-2-4.6c-1.3-1.2-3.2-1.8-5.6-1.8c-4.3,0-8.6,1.6-12.9,4.7
	c-3.6,2.7-6,5.9-7.2,9.7c0,0-0.2,0.9-1.6,2.1c-0.2,0.1-0.3,0.2-0.3,0.2c-5.2,4.6-8.3,7-9.5,7c-0.2,0-0.3,0-0.4-0.1
	c-0.4-0.1-0.4-0.2-0.4-0.4c0-0.3,0.1-0.7,0.3-1.2l0.7-1.6c0.6-1.5,1.3-3,2.1-4.6c2.9-6.2,4.3-9.9,4.3-11.1c0-1.1-0.4-2-1.3-2.7
	c-1.1-0.9-3-1.3-5.6-1.3h-1.6h-1.8v-0.4c0.1-0.6,0.1-1.1,0.1-1.3c0-1.3-0.4-2.3-1.1-3.1c-0.7-0.7-1.7-1.1-2.9-1.1
	c-1.4,0-2.5,0.5-3.4,1.4s-1.3,2.2-1.3,3.9c0,1.2,0.4,2.5,1.2,3.9c-1.9,3.1-3.6,5.5-5.2,7.3c-1.4,1.9-3.3,3.6-5.5,5.2v6.9
	c3.2-2.4,6.2-5.2,9.1-8.4c2.9-3.2,5-6.1,6.4-8.7c0.9-0.1,1.7-0.2,2.3-0.2c0.9,0,1.5,0.1,1.9,0.4c0.4,0.3,0.6,0.7,0.6,1.1
	c0,1-1.2,3.8-3.5,8.6c-3.2,6.4-4.8,10.5-4.8,12c0,0.8,0.4,1.5,1.2,2.2c0.8,0.7,1.7,1,2.8,1c1.6,0,3.9-0.7,6.9-2.2
	c2.9-1.4,6-3.6,9.1-6.6c0.3,2.5,1.3,4.4,2.7,5.9c1.9,1.9,4.9,2.8,8.9,2.8c2.9,0,5.6-0.6,7.9-1.7s5.6-3.5,9.8-7.1
	c0.3,2.5,1,4.6,2.2,6.1c1.5,1.9,3.3,2.9,5.3,2.9c1.6,0,3.1-0.5,4.7-1.4c1.5-0.9,3.4-2.8,5.7-5.5c-0.6,2.2-1.3,4.1-2.1,5.7
	c-0.8,1.6-2.5,4.3-5.1,8c-5,7-7.4,12.2-7.4,15.5c0,0.9,0.3,1.7,0.8,2.3s1.3,0.9,2.2,0.9c1.4,0,2.7-0.6,3.9-1.9
	c1.6-1.7,3.7-5.7,6.3-11.8l2-4.8c2.2-2.2,4.2-3.9,5.8-5.3c1.6-1.4,4.6-3.8,9.1-7.3l3.2-2.5l0.8-0.6l0.4-0.3l0,0l5.4-4.6
	c-2.9,5.8-4.4,9.4-4.4,10.9c0,0.7,0.3,1.4,1,1.9c0.7,0.6,1.6,0.8,2.9,0.8c2.1,0,4.4-0.6,6.8-1.7c2.4-1.1,5.9-3.5,10.5-7.3l0,0
	c1.7-1.4,3.5-3,5.4-5c0.7-0.8,1.4-1.5,2.1-2.1c-0.7,1.8-1.4,3.4-1.9,4.7l-1,2.2c-1.4,3.4-2.1,5.5-2.1,6.4c0,0.7,0.3,1.4,1,2
	s1.6,0.9,2.8,0.9c5.5,0,12.2-3,20-9v-6.8c-2,1.6-3.8,3-5.6,4.2c-3.2,2-5.5,3.4-7.1,4.1c-0.7,0.3-1.3,0.5-1.7,0.5
	c-0.2,0-0.3-0.1-0.5-0.2c-0.1-0.1-0.2-0.3-0.2-0.5c0-0.4,0.2-1.1,0.5-1.9l10.8-26.6h4.9c0.5,0,1-0.1,1.3-0.2
	c0.2-0.1,0.4-0.3,0.5-0.5l0.6-2c0.3-1,0.5-1.8,0.5-2.2C-307.4,587.9-307.5,587.8-307.6,587.7 M-413.4,606.2c2.1-1.7,4-2.5,5.5-2.5
	c0.7,0,1.2,0.2,1.6,0.7s0.6,1.1,0.6,1.8c0,1.3-0.7,2.5-2.2,3.7c-2.1,1.7-5.8,3.1-11.2,4.1C-417.4,610.5-415.5,607.9-413.4,606.2"/>
</svg>
