<?xml version="1.0" encoding="utf-8"?>
<!-- Generator: Adobe Illustrator 19.0.0, SVG Export Plug-In . SVG Version: 6.00 Build 0)  -->
<svg version="1.1" id="Layer_1" xmlns="http://www.w3.org/2000/svg" xmlns:xlink="http://www.w3.org/1999/xlink" x="0px" y="0px"
	 viewBox="0 0 200 200" style="enable-background:new 0 0 200 200;" xml:space="preserve">
<style type="text/css">
	.st0{fill:#FFFFFF;}
</style>
<path id="XMLID_30_" class="st0" d="M118.2,111.3c1.2-1.2,2.4-1.8,3.8-2.1c0,0,0,0,0-0.1c2-14.4-2.8-30.9-19.3-40
	c-2.5-1-3.6-0.9-3.8-0.4c-0.1,0.3,0.1,0.8,0.4,1.3c0.7,0.9,2,2,3.3,2.5c0.1,0,8.6,3.3,13.1,15.5c1.9,5.8,3,13.3,2.5,23v0.1
	c0,0,0,0,0,0c0,0,0,0,0,0V111.3z"/>
<path id="XMLID_29_" class="st0" d="M108.8,125.4L108.8,125.4l5-8.2c0,0,0-0.1,0-0.1c0.6-4.6,1.1-9.2,1.1-13.7
	c0.1-9.8-1.8-18.7-8.2-24.8c-2.4-2.4-4.8-4.1-7.3-5.4c-0.7-0.6-1.3-1.2-1.9-1.9c-0.1-0.1-0.3-0.3-0.4-0.5c-11-4.9-20.9,2-29.3,6
	c-21.3,14.9-41,32.6-53.4,43.7c-0.9,0.8-1.7,1.4-2.2,1.9c-0.8,0.6-5.6,5.1-5.6,5.1c0,0,0,0.1,0,0.1c0,0,0,0,0,0c0.3,1,0.6,2,0.9,3
	c0,0,0,0,0,0c0.2,0.6,0.3,1,0.3,1s1.8-1.4,4.7-3.6c2.4-1.6,5.5-4,8.8-6.8c6.3-4.8,13.5-12.4,19-16.8c9.8-7.8,18.4-13.1,24.8-18.4
	c4.4-3.2,8.1-6.9,10.7-8.3c14.6-10.5,27.6,0.3,30.9,6.4c3.4,5.9,4.5,12.5,4.4,18.2c0,8.4-2.3,14.9-2.3,14.9V125.4L108.8,125.4
	L108.8,125.4z"/>
<path id="XMLID_28_" class="st0" d="M124.7,189.7c0.8-1,2.6-3.3,2.7-3.4c10.1-11.5,24.7-34.4,23.9-71c1.2-13.6,0.3-26.1-5.1-36.3
	c-0.7-1.9-1.6-3.8-2.5-5.6c-0.8-1.4-1.6-2.8-2.4-4.1c-1.6-4.1-10.2-11.9-11.2-12.7c-2.4-2.2-5-4.4-8-6.5v0c-1-0.7-2.3-1.6-3.7-2.4
	c-0.3-0.2-0.5-0.3-0.8-0.5c0,0,0,0,0,0c-4.1-2.3-8.7-4.6-8.7-4.6c-2.4-0.7-4.7-1.2-7-1.5c-3.1-0.5-6.1-0.8-8.8-0.9
	c-3.5-0.1-6.6,0-9.1,0.2c-0.5-0.1-0.8,0-1.2,0.1c-0.4,0-0.8,0.1-1.1,0.1c-0.2,0-30.2,4.8-42.5,12.2c-3,1.2-5.7,3.1-8.7,4.5
	C22.3,60.7,7.2,74.8,6.5,75.1c-0.6,2.6-2,7.2-2.4,9.8c0.2-0.1,19.1-16.7,26-21.2c0.2-0.5,14.3-8.6,21.5-11.7
	c11.7-3.8,23.8-6.7,37-7.5c1.7-0.1,22.7-4.8,45.1,23.2c12.8,11.6,15.2,28.5,14.1,47.2c0,0.6-0.2,2.7-0.5,5.8c0,0.2-0.3,2.4-0.8,6.9
	c0,0-1.7,10-9.3,24.6c-6.8,13-15.1,24.2-15.1,24.2c-0.2,0.2-1.3,1.4-1.3,1.5c-0.7,1.1-2.8,4.2-3.1,4.6c-0.7,1.1-8.3,7.6-7.1,7.1
	c-0.2,0.2-0.4,0.4-0.6,0.7c0.1,0.2,0.2,0.3,0.3,0.5c0.4,0.7,0.9,1.2,1.5,1.7c0,0,0,0,0,0c2-1.5,8-6.5,8.3-7.2
	c1.7-2.8,5.8-8.3,8.8-11.9c1.4-2.1,4.2-7.6,5.4-9.8c2.9-4.8,10-19.8,12-23.3c-0.5,2-4.9,13.6-5.6,15.3c-7.7,20.4-17.3,29.7-20,32.6
	c-0.1,0-4.7,4.6-6,5.8c0,0,0,0,0,0c0.8,0.3,3.3,0.8,3.5,0.8h-0.3c0.1,0,0.9,0.1,1.2,0.1c0,0,0.1-0.1,0.1-0.1
	C119.2,195.1,123.2,191.5,124.7,189.7"/>
<path id="XMLID_27_" class="st0" d="M197.2,100.5L197.2,100.5c-0.3-1.6-0.5-3.1-0.8-4.6c-2.7-4.5-3.4-10-5.8-14.7
	c-0.1-0.4-0.3-0.7-0.4-1.1c-20-36.9-45.3-59.2-82.6-66.6c-2.8-0.6-10.5-3.4-26.8-3.3c-17.8,0.2-19.4,1.7-21.6,2.1
	c-4,1.9-7.9,4-11.6,6.3l14.2-3.3l10.8-1.1c7-1.1,32.4-1.4,63.1,11.5c2.1,0.9,15.9,10.5,24.7,18.9c6,5.7,9.6,10.3,9.6,10.3h0
	c2.6,3.1,5,6.3,7.2,9.6c0,0,0,0,0,0c19.9,31.7,17.3,58.5,17.3,58.5C196.3,115.8,197.2,108.3,197.2,100.5"/>
<path id="XMLID_26_" class="st0" d="M192.4,127.4c-0.1-1.1-0.2-2.6-0.4-4.4c-0.2-2.4-0.2-5.2,0.1-6.9c0.7-3.4-2-13.5-3.3-18.6
	c-0.9-3.3-6.2-23.8-21.8-42.7c-0.1-0.1-15.4-16.5-26.6-24.2c0,0,0,0-0.1,0c-2.1-1.5-4.7-2.8-7.8-4c-0.9-0.4-1.9-0.7-2.9-1.1
	c-2.8-1-5.7-1.9-8.9-2.7c-4.5-1.2-9.3-2.2-14.1-3.2c-0.8-0.1-1.6-0.3-2.4-0.4C97.7,18,91.2,17,85.7,16.3c-3.7-0.5-7.9-0.5-12.2,0
	h-0.9c0,0-0.1,0.1-0.1,0.1c-1.1,0.1-4.2,0.4-4.3,0.5c-2.4,0.4-4.7,0.8-7,1.3c-0.1,0-5.2,1.1-7.2,1.6c-0.3,0-1.6,0.3-1.9,0.5
	c-6.8,1.8-11.5,3.4-11.5,3.4c-3.7,2.9-7.3,6.1-10.6,9.5c4.1-2.4,11.9-6.3,22.3-9.4c14.6-4.4,33.9-8.1,60.2-0.4
	c24.3,7.1,47.5,23.4,60.4,46.7c11.3,20.5,16.6,45.9,15.1,71.9c1.6-3.3,3-6.8,4.2-10.3c0,0,0.1-0.1,0.1-0.5c0.1-0.5,0.2-1.6,0.1-3.5
	l0,0.1C192.4,127.8,192.4,127.6,192.4,127.4"/>
<path id="XMLID_25_" class="st0" d="M149.6,20.8c5.3,3.1,15.8,12,15.8,12c1,1,1.6,1.6,1.6,1.6l10.1,9.4c0,0,4.9,6.3,7.4,8.4
	c-3.7-6.4-8.1-12.4-13.1-17.8c-9.4-10.1-20.9-18.2-33.9-23.6l0,0c-1.3-1.1-6.8-2.6-6.8-2.6h0c-8.6-2.8-17.7-4.5-27.2-4.8h0h0
	c-1.1,0-2.2-0.1-3.3-0.1c-2.6,0-5.1,0.1-7.6,0.3c4.8,0.2,10,0.9,15.5,1.5C135.7,10.2,144.3,17.7,149.6,20.8"/>
<path id="XMLID_24_" class="st0" d="M107.2,10.3c2,0.4,4,0.9,6,1.5c16.6,4.4,31.1,11.7,44,22.2c3.6,3,7.1,6.2,10.5,9.7
	c0.3,0.3,0.7,0.7,1,1.1c9.5,10,18,22,25.4,36c0.6,1.2,1.2,2.4,1.8,3.5c-8.8-29.9-17.7-33.6-20.9-38.1c-1.7-2.1-5.7-7.3-7-8.4
	c-3.2-2.6-22.1-16.1-29.3-20.3c-7.2-4.2-18.7-8-25.6-9.3c0,0-19.8-3.5-32-3c-2.7,0.5-5.4,1.2-8,2C82.6,6.9,94.5,7.5,107.2,10.3"/>
<path id="XMLID_23_" class="st0" d="M117.5,47.4c-0.7-0.4-1.4-0.8-2.1-1.2C116.1,46.6,116.8,47,117.5,47.4"/>
<path id="XMLID_22_" class="st0" d="M181.5,101.9c-1.3-3.5-3.4-12.9-5.4-18.1c-0.9-2.3-1.9-4.6-3-6.8c-2.2-4.5-4.6-8.9-7.4-12.9
	c-0.7-1-1.3-2-2-2.9c-0.2-0.3-0.5-0.6-0.6-0.9c-0.3-0.5-3.1-4.3-4.4-5.5c-20.2-20.7-49-32.1-67.4-32.5c-6.2-0.1-12.1-0.2-17.5,0.4
	c-7.9,0.8-14.9,2.4-20.5,4.1c-0.2,0.1-0.5,0.2-0.7,0.2c-0.9,0.2-3,0.9-3.2,1c0,0-0.1,0.1-0.2,0.1c-1.2,0.5-2.5,1-4,1.6
	c-1,0.3-1.9,0.7-2.8,1.2c-4.2,1.8-9,4.4-12.7,6.4c-0.8,0.3-1.5,0.7-2.1,1.2c-2.6,1.5-4.3,2.5-4.3,2.5c-1.3,1.7-2.6,3.5-3.8,5.3
	c4.9-3.7,10.4-7,16.4-9.8l5.3-2.3c7.7-3.1,16.2-5.4,25.1-6.9c10.2-1.7,20.4-2.1,29.5-1.4c5.6,0.5,10.8,1.4,15.3,2.7
	c1.2,0.4,4,1.4,4.3,1.6c5.5,2.2,11,5,16.3,8.1c6.7,3.9,13,8.4,18.5,13.1c11.6,10.1,19.2,20.9,22.8,32.3c1.7,4.7,2.7,9.7,2.6,15.3
	c0.1,2.1,0.2,4.3,0.2,6.6c0.1,43.3-6.6,60.9-6.6,60.9c-0.4,1.2-0.8,2.5-1.2,3.6c2.7-2.6,5.3-5.5,7.7-8.4c0.1-0.4,0.1-0.7,0.2-1.1
	c0.1-0.7,0.2-1.4,0.2-2.2c0,0,0,0,0-0.1c0.1-0.7,0.1-1.4,0.2-2.1c0.2-2.8,1-8.8,1.9-20.1c0.7-8.8,0.8-30.8,0.8-30.8
	c2.4,9.2,2.7,19.5,2.7,22c0.1,6.2-1.2,27.4-1.2,28c1.7-2.4,3.3-5,4.7-7.6c0-0.4,0.1-0.8,0.1-1.2c0.2-2.5,0.1-21.6-0.6-29.1
	C184.3,116,183,106.7,181.5,101.9"/>
<path id="XMLID_21_" class="st0" d="M180.2,155.5L180.2,155.5C180.1,155.5,180.1,155.5,180.2,155.5L180.2,155.5z"/>
<path id="XMLID_20_" class="st0" d="M80.8,194.7c1.1-0.3,1.3-0.6,2.3-1.4l1.4-2.2l0.7-2l-8.7,5.8C78.3,195.4,79.9,194.9,80.8,194.7"
	/>
<path id="XMLID_19_" class="st0" d="M31.4,99.7c15.6-14.6,26.9-22,38.5-27.8c8.9-4.5,13.4-8.2,25.8-7.2c0,0,29.4,1.6,30.9,44.8
	c0,0,0,0,0,0.1c0.8,0.2,1.7,0.5,2.7,0.9l0.9,0.4c0,0,0,0,0,0c0.3-7.7-2.6-20.8-3.9-24.2c-2.2-6-6.4-12.7-8.2-14.2
	c-1.4-1.7-9.5-12-28.1-10.9c-10.5,0.3-19.5,3.9-27.8,8.5c0,0,0,0,0,0C58,72,45,81.2,39.5,85c-12.1,8.4-24.9,27.2-35.1,32.9
	c0.3,1.7,0.7,3.4,1.1,5.1C15.2,117.7,23.5,107.2,31.4,99.7"/>
<path id="XMLID_18_" class="st0" d="M108.8,154.8c0.2-0.2,5.2-8.4,8.7-14.5c1.9-3.3,3.4-6.2,3.6-7.1v0c0.1-0.2,0.1-0.4,0.2-0.6
	c1-2.3,1.7-4.3,2.1-6.1l-0.8-0.3c-1.3-0.6-2.4-0.9-3.5-1.2c-1.4,2.6-2.8,7.3-3.1,8.9c-1.4,3.5-7.3,15.1-7.3,15.1V154.8z"/>
<path id="XMLID_17_" class="st0" d="M108.8,165.3c4.9-5.9,9.5-12.4,13.7-19.7c0.2,0.1,4.1-10.6,6.2-16.8l-3-1.3
	c-0.4,1.3-0.9,2.9-1.1,3.7v0c0,0.1-2.1,6.1-5.3,12.5c-2.4,4.9-9.9,14.6-10.5,15.4V165.3z"/>
<path id="XMLID_16_" class="st0" d="M53.6,185.8c0.9,0.5,1.8,1,2.8,1.5c3.9-1.7,7.7-3.8,11.3-6c6.6-3.4,12.1-8.8,18-13.4l0,0V164
	C75.8,170.5,65.4,178.3,53.6,185.8"/>
<path id="XMLID_15_" class="st0" d="M61.6,189.7c1.4,0.6,2.8,1.2,4.2,1.7c7.1-3.6,13.7-8.4,19.9-13.8l0,0v-5.5h0
	C85.5,172.2,70.1,185.2,61.6,189.7"/>
<path id="XMLID_14_" class="st0" d="M73.6,190.4c-0.5,0.3-0.9,0.6-1.4,0.9c-0.2,0.1-0.4,0.2-0.6,0.4c-0.3,0.2-0.6,0.3-0.8,0.5
	c-0.3,0.2-0.6,0.3-0.9,0.5c-0.1,0-0.2,0.1-0.3,0.1c1.4,0.5,2.8,0.9,4.2,1.3l11.8-8l0,0c0-0.6,0.1-1.2,0.1-1.9v-1.5l0,0
	C81.7,185.6,77.6,188.1,73.6,190.4"/>
<path id="XMLID_13_" class="st0" d="M13,105.9L13,105.9c0,0,8-10.6,15.9-17.1c7.9-6.5,19.8-16.5,31.1-22.7c9.2-4,20-7.9,31.4-7.6
	c36-1.5,41.4,35.9,41.8,53.4v0l3.8,1.5v0c0-18.4-4-34.8-14.8-47.7c-8.2-6-13.3-10.2-36.5-10.7c-22.7,2-47.8,20.4-52.5,23.7
	c-4.6,3.2-11.5,7.5-15.9,11c-1.7,1.3-11.8,8.3-14.4,9.9c0,0.3,0,0.6,0,0.8c0,1.4,0,2.8,0.1,4.3c3.7-2.1,12-8.5,16.3-12.8
	c-4.2,5.2-12.6,15.3-16.1,16.7c0.2,1.9,0.4,3.7,0.6,5.6C7.2,111.8,10.5,109.2,13,105.9"/>
<path id="XMLID_12_" class="st0" d="M97,89.9c-0.2-0.1-0.4-0.1-0.6-0.2c-2.9-0.9-5.4,1.6-7.7,5.5c-1,1.7-2,3.7-3,5.8
	c-3.3,7-11.9,16.3-11.9,16.3c-1.6,1.4-3.6,3.3-6.4,5.7c-2.6,2.2-11.6,9.6-22.1,15.9c-10.5,6.3-22.5,11.5-22.5,11.5
	c-1.5,0.8-3,1.7-4.6,2.4l0.1,0.1c0,0,0,0-0.1,0c0.4,0.6,0.7,1.1,1.1,1.7c0.7,0.9,0.7,1,0.9,0.9l2.6-1.2c0,0,9-4.1,10-5
	c2.8-1.6,9.2-4,23.2-12.2c6.5-3.8,13.3-11.2,21.6-17.3c0,0-0.1,0-0.1,0c0,0,0.1-0.1,0.1-0.1c-0.4-0.1-1.4-0.4-1.4-0.4v-0.1V116v-0.1
	c2.6-0.2,3.9-0.4,6.5-0.8c0,0,0.4-0.7,1.1-1.7l0,0c0.1-0.1,0.7-0.8,1.3-2c1.9-3.5,4.2-8.5,6.2-12.4c1.5-3,2.9-5.3,3.8-6.1
	c1-0.3,1.9-0.2,2.1,1.1c-0.1,0.2,0,0.8,0.1,1.1C97.2,96,96.9,97,96.5,98c-0.1,0.3-0.2,0.5-0.3,0.8c-0.6,1.6-1.4,3.2-2,4.5
	c0,0.1-0.1,0.2-0.1,0.3c-0.1,0.2-0.2,0.4-0.3,0.5c0,0,0,0,0,0c-2.4,4.6-5.4,10-5.4,10.1c0,0,0,0,0.1,0c1.2-0.2,3.1-0.7,4.8-1.1
	c0.8-0.2,1.4-0.4,2-0.5c0,0,0.6-1.8,1.9-5.8c0.1-0.2,0.1-0.4,0.2-0.6c1.4-3.7,2.2-6.6,2.5-8.8C100.4,93,99.4,90.9,97,89.9"/>
<path id="XMLID_11_" class="st0" d="M54.6,164.5c4.2-1.8,11.5-8,11.9-8.3c4.7-3.4,8.4-6.5,8.4-6.5h0c3.8-2.8,7.4-6.1,10.7-9.7h0
	v-4.2l0,0c-5.8,5.9-27.3,25.7-54,33.8c1.1,1.1,2.2,2.1,3.3,3.1c0.7-0.2,2-0.6,3.6-1.1c1.5-0.5,4.6-1.5,4.6-1.5
	C45.2,169.3,53,165.1,54.6,164.5"/>
<path id="XMLID_10_" class="st0" d="M82.7,121.2l-2.9-0.9c0,0-14.8,18.5-31,24.5c-10,5.9-24.8,11.9-27.3,12.9
	c0.8,1.1,1.6,2.1,2.4,3.2c5.5-1.2,29.1-10.3,42-22C79.6,126.3,82.7,121.2,82.7,121.2"/>
<path id="XMLID_9_" class="st0" d="M85.7,128.4L85.7,128.4c0-0.8,0-1.4,0-2c-0.1-1.6-0.3-2.7-0.8-3.4c-5,8.2-17.1,21.2-26.7,25.7
	c-10.5,6.5-20.4,10.6-31.9,15c0.9,1,1.8,2.1,2.7,3.1c2.9-1,15.4-5.5,18.7-7.5C61.4,151.4,75.2,142.4,85.7,128.4"/>
<path id="XMLID_8_" class="st0" d="M111.9,128.1l-0.8,1.1c-1,2.8-1.7,5.9-2.2,7.4v6.7c2.4-3.9,5.9-12.8,7.1-18.3
	C114.4,125.3,113.1,126.3,111.9,128.1"/>
<path id="XMLID_7_" class="st0" d="M73.8,159.8C73.8,159.8,73.8,159.8,73.8,159.8c3.7-3.4,8-6.5,11.9-9.9h0v-5.3c0,0,0,0,0,0
	c-2.5,2.5-4.9,5.1-7.5,7.5c-0.7,0.6-1.7,1.5-3.1,2.8c-1.3,1.2-11.5,8-12.3,8.8c-1.8,1-3.5,2.1-5.3,3c-1,0.4-1.9,0.9-2.7,1.4
	c0,0,0,0,0,0c0,0-0.1,0-0.1,0.1c-8.1,4.3-15.2,7.4-15.2,7.4h0c-0.2,0.1-0.5,0.2-0.7,0.2c1,0.8,2,1.6,3,2.3
	c6.3-2.6,12.3-5.8,18.3-8.9C60.1,169.3,70.3,162.9,73.8,159.8"/>
<path id="XMLID_6_" class="st0" d="M85.7,159.8v-3.3h0c-0.6,0.3-1.8,0.8-2.3,1.1c-1.3,0.6-9.3,6.1-10.4,6.8c0,0-3.7,2.4-6.8,4.4
	c-1.3,0.8-2.5,1.6-3.3,2.1c-0.2,0.1-0.4,0.2-0.6,0.4c-5.6,3.4-16,9-16,9s-0.6,0.3-1,0.5c1,0.7,2.1,1.4,3.2,2.1
	c5.1-2.3,10.1-4.9,14.8-7.8C71.2,171.2,77.2,164.9,85.7,159.8"/>
<path id="XMLID_5_" class="st0" d="M156.7,134.7c4.5-25.2,2.5-47.1-6.9-65.2c-0.5-0.8-8.9-11.5-12.8-15.7
	c-16.2-17.2-39.2-20.3-39.2-20.3c-5.4-0.5-10.5-0.2-15.4,0.3c-6.8,1.1-6.8,1.1-10.2,1.6c-11.3,2-19.2,4.7-19.2,4.7l-2.8,0.6
	c0,0-11.2,4-20.6,8.2c-0.6,0.2-1.1,0.5-1.6,0.7c-3.4,1.6-13.5,8-14.7,9.1c-0.7,0.7-1.2,1.2-1.5,1.5c-0.4,0.5-0.5,0.8-0.5,0.8
	c-1.2,2.8-2.3,5.6-3.3,8.5C14.3,64,21,59.1,28.1,55c6.5-3.3,13.3-6.6,17.1-8.2c0,0,0,0,0,0c8.8-3.8,23.1-6.5,23.1-6.5
	s15.5-4,28.6-2.9c1.8,0.1,3.4,0.3,4.8,0.4c5.1,0.5,9.4,3,9.5,3c0.6,0.3,5.2,2.3,6.8,2.9c0.6,0.5,1.4,1,2.2,1.5
	c0.7,0.5,1.5,1.1,2.3,1.7c19,14.4,24.4,25.9,24.4,25.9c13.5,22.8,9.6,52.7,0.8,86.6c-7.9,18.1-10.8,17.7-14.4,23.4
	c-1,1.3-8.1,9.6-8.1,9.6c-0.9,0.9-2.1,1.8-3,2.5l0.1,0h0.1v0v0.1c2.3-0.5,4.6-1.2,6.8-1.9c0-0.1,0.1-0.2,0.1-0.4
	c3.9-5.9,12.6-12.6,16.7-22.1C151.7,158.8,153.1,147.3,156.7,134.7"/>
<path id="XMLID_4_" class="st0" d="M172.7,108.7c0-3.5,0-6.9-0.3-10.2c0.1-4.7,0-9.3-2.1-12.9c-1.3-4.6-3.4-9-5.9-13.2
	c-10.1-16.6-28.5-29.5-45.2-37.2c0,0-1.5-1-3.3-1.5c-0.9-0.4-1.8-0.8-2.7-1.1c-10.8-4.3-28.1-5.3-45.4-2.6c-0.5,0.1-1,0.1-1.4,0.2
	c-7.4,1.2-14.6,3.1-21.2,5.4c-0.7,0.2-1.4,0.5-2.1,0.8c0,0-0.1,0-0.1,0s0,0,0,0c-6.7,2.6-12.9,5.7-18.4,9.4l0,0c0,0,0,0,0,0
	c-0.9,0.6-1.7,1.2-2.6,1.8c-2.9,1.7-5.2,3.2-6.3,4.2v0.9c0,0,12.4-7.4,24-12c3.7-1.5,7.4-2.7,10.5-3.2c12.1-2.2,33.2-7.4,42.1-6.3
	c0.4,0,9.5,1.1,9.9,1.1c0.7,0.3,1.4,0.4,2,0.4c4.8,1,10.3,3.4,11.1,3.8c2,1,4,1.3,5.7,2.4c0.6,0.5,1.2,1,2,1.3
	c21.4,12.9,27.9,25.9,27.9,25.9c2.5,3.6,4.7,7.3,6,11.6c8.4,19.3,5.4,47-0.4,71.8c-1.8,6.8-5.8,20.7-9.4,27.3
	c-3.9,5.6-8.5,10.5-13.2,14.7c2.9-1.1,5.8-2.3,8.5-3.7c4.4-5.6,9.4-10.2,12.6-18.1c1.6-5.1,3.3-10.2,4.9-15.4
	c5.2-22,5.5-41.5,5.7-61c-3.2-15.6-7.7-19.9-11.1-28.5c6.3,5.1,8.9,12,11.1,19.1v0c0,0,0,0,0,0c0.2,0.8,0.4,1.5,0.6,2.3
	c0,0,0.9,4.7,0.8,5.1c1.9,25.4,2.3,69.2-16.2,91.4c-0.2,0.2-0.4,0.5-0.6,0.7c3.7-2.3,7.3-4.8,10.6-7.5c1.2-1.8,2.4-3.7,3.5-5.7
	c0,0,7.7-27.1,8.2-60.7C172.7,109.4,172.7,109,172.7,108.7"/>
<path id="XMLID_3_" class="st0" d="M141.5,136.2c2.1-5.5,2.5-15.6,2.5-15.6l0,0c1.3-11.9,0.5-22.7-2.3-32.5
	c-0.2-3.6-2.4-8.1-8.1-17.2c-27.8-35.8-70.1-21.3-82.9-13.5C45,60.1,39.6,63,34.2,66C24.5,71.7,4.9,87.8,3.6,88.1
	c-0.3,2.6-0.6,5.2-0.7,7.8C14,87.1,25.2,78.7,36.7,70.8c0.2-0.7,29.5-20,52.7-18.6c6.7-1.4,46.3,0.7,51.1,52.5
	c0.4,3.9,0.7,10.2,0.1,16.6c-0.3,3-0.7,5.3-1.1,7.1c0,0-3.4,10.6-4.3,12.2c0,0-8.7,17.7-8.7,17.7c0,0-16.1,21.9-17.6,23.5v3.1
	c0,0.7,0,1.4,0.1,2c0.3-0.2,0.6-0.4,1-0.7c0,0,8.3-11.7,18.3-25.3C136.3,149.4,141.5,136.9,141.5,136.2"/>
<path id="XMLID_2_" class="st0" d="M108.8,176.3c11.9-10.9,24-38.4,25.6-43c0,0,0,0,0,0c1.4-4.1,2.6-7.9,2.6-8.8
	c0-0.3-0.2-4.2-0.1-6c0,0-8,17-8.1,17.5c-0.9,3.1-4.4,10.7-6.8,15.5c-3.9,7.5-8.3,14-13.2,19.8V176.3z"/>
<path id="XMLID_1_" class="st0" d="M92.1,76.7c-1.1-0.4-5.3-1.3-10,1.5h0c-2.3,1-7.3,5-12,9.1c-0.5,0.5-1.1,0.9-1.6,1.4
	c-0.7,0.5-1.3,1.1-2,1.6c-0.7,0.4-8.4,6-9.1,6.6c-8.4,5.9-19.6,15.9-24.1,19.7c-6,4.4-12,8.7-17.8,13.5c-0.2,0.3-0.5,0.5-0.7,0.7
	c-0.1,0.1-0.3,0.2-0.4,0.3c-3.1,2-5.3,3.4-5.3,3.4c0,0,0,0.1,0,0.1c0,0,0,0,0,0c0.3,0.8,0.6,1.6,0.9,2.4c0.1-0.1,0.2-0.1,0.2-0.2
	c3.9-1.3,8.6-3.9,13.7-7.2c1.3-0.7,2.2-1.3,2.2-1.3s0.8-0.6,1.8-1.5c6-4.2,12.4-9.1,18.4-13.9c6.3-4.7,12.2-9.2,12.3-9.5
	c2.6-2.3,5.1-4.8,7.5-7.3c6.7-6.1,13-10.3,20.7-15.5c1.4-0.8,3.4-1.8,5.1-1.6c0.6,0.2,1.1,0.7,1.5,1.6c-0.2,1.6-0.9,2.1-1.3,2.2
	c-0.1,0-0.3,0.1-0.5,0.1c-0.2,0-0.5,0.1-0.7,0.1c-2.3-0.2-3.9,0.8-5.3,2.2c-0.1,0-0.2,0.1-0.2,0.1c-2.6,1.4-5.6,3.6-8.5,7.1
	c0,0,0,0,0,0c-0.2,0.2-0.4,0.4-0.6,0.6c-17.8,16.5-44.9,35.5-57.5,42.9c-0.4,0.2-0.9,0.4-1.3,0.6c-0.1,0-0.2,0.1-0.3,0.2
	c-2,0.8-4,1.7-5.9,2.8c0,0,0,0.1,0,0.1c0,0,0,0,0,0c0.5,1.2,1,2.3,1.6,3.4c0.2-0.2,0.5-0.3,0.7-0.5c0,0,7.5-3.5,14.3-7.3
	c0.1,0,4-2.3,5.8-3.5l0,0l0,0c12.9-8.4,24.3-16.4,37.3-28.4c0.4-0.4,0.9-0.9,1.4-1.4c3.2-3.2,5.6-6.6,7.2-8c0.4,0,0.8,0,1.2,0.3
	c-4.5,8.8-7.2,12.4-27.5,28.9c-11.9,8.5-22.6,14.6-23.8,15.3c-7.7,4.1-13.9,7.3-14.5,7.6c-0.2,0.1-0.4,0.1-0.5,0.2
	c0,0,0,0.1,0.1,0.1c0,0,0,0-0.1,0c0.4,0.8,0.9,1.5,1.3,2.3c5.6-2.4,21-8.9,28.9-14.4c21.7-16.1,30.9-19,40.2-40.3
	c0-0.2,0.1-0.4,0.2-0.6c0-0.1,0.1-0.3,0.1-0.4c1.2-2.3,2.8-4.8,4.5-6.3c1-0.6,2-1.1,3.1-1.3c3.5-0.4,7.1,1.1,9.1,4.9
	c0,0.1,0,0.1,0.1,0.2c0.1,0.2,0.2,0.4,0.2,0.5c0.6,1.4,1,3.2,1.2,5.4c0,0.1,0,0.2,0,0.2c0,0.2,0,0.5,0,0.7c0,3.4-0.6,7.8-2.5,13.4
	c0,0,0,0,0,0c0.4-0.1,4.9-1.8,4.9-1.8s1.1-4.3,1.1-9.7C107,91.3,104.5,80.6,92.1,76.7"/>
</svg>
