<svg xmlns="http://www.w3.org/2000/svg" viewBox="0 0 26.46 23"><title>activity-log</title><g id="Layer_2" data-name="Layer 2"><g id="Layer_1-2" data-name="Layer 1"><g id="_Group_" data-name="&lt;Group&gt;"><g id="_Group_2" data-name="&lt;Group&gt;"><rect id="_Rectangle_" data-name="&lt;Rectangle&gt;" x="0.27" y="0.27" width="25.92" height="22.46" rx="2" ry="2" fill="#e1f4fd"/><path id="_Compound_Path_" data-name="&lt;Compound Path&gt;" d="M25.12,23H1.34A1.34,1.34,0,0,1,0,21.66V1.34A1.34,1.34,0,0,1,1.34,0H25.12a1.34,1.34,0,0,1,1.34,1.34V21.66A1.34,1.34,0,0,1,25.12,23ZM1.34.54a.8.8,0,0,0-.8.8V21.66a.8.8,0,0,0,.8.8H25.12a.8.8,0,0,0,.8-.8V1.34a.8.8,0,0,0-.8-.8Z" fill="#00aeef"/></g><g id="_Group_3" data-name="&lt;Group&gt;"><path id="_Path_" data-name="&lt;Path&gt;" d="M19.12,5.52H6.26a.8.8,0,1,1,0-1.61H19.12a.8.8,0,0,1,0,1.61Z" fill="#00aeef"/></g><g id="_Group_4" data-name="&lt;Group&gt;"><path id="_Path_2" data-name="&lt;Path&gt;" d="M23.06,10H6.26a.8.8,0,1,1,0-1.61H23.06a.8.8,0,0,1,0,1.61Z" fill="#00aeef"/></g><g id="_Group_5" data-name="&lt;Group&gt;"><path id="_Path_3" data-name="&lt;Path&gt;" d="M23.06,14.53H6.26a.8.8,0,1,1,0-1.61H23.06a.8.8,0,1,1,0,1.61Z" fill="#00aeef"/></g><g id="_Group_6" data-name="&lt;Group&gt;"><path id="_Path_4" data-name="&lt;Path&gt;" d="M23.06,19.09H6.26a.8.8,0,1,1,0-1.61H23.06a.8.8,0,0,1,0,1.61Z" fill="#00aeef"/></g><g id="_Group_7" data-name="&lt;Group&gt;"><path id="_Path_5" data-name="&lt;Path&gt;" d="M3.05,5.52a.8.8,0,0,1-.57-1.37.83.83,0,0,1,1.14,0,.8.8,0,0,1,.24.57.8.8,0,0,1-.8.8Z" fill="#00aeef"/></g><g id="_Group_8" data-name="&lt;Group&gt;"><path id="_Path_6" data-name="&lt;Path&gt;" d="M3.05,10a.83.83,0,0,1-.57-.23.81.81,0,0,1,0-1.14.84.84,0,0,1,1.14,0A.8.8,0,0,1,3.05,10Z" fill="#00aeef"/></g><g id="_Group_9" data-name="&lt;Group&gt;"><path id="_Path_7" data-name="&lt;Path&gt;" d="M3.05,14.53a.8.8,0,0,1-.8-.8.79.79,0,0,1,.24-.57.83.83,0,0,1,1.14,0,.79.79,0,0,1,.24.57.8.8,0,0,1-.8.8Z" fill="#00aeef"/></g><g id="_Group_10" data-name="&lt;Group&gt;"><path id="_Path_8" data-name="&lt;Path&gt;" d="M3.05,19.09a.8.8,0,0,1-.57-1.37.83.83,0,0,1,1.14,0,.8.8,0,0,1,0,1.14A.8.8,0,0,1,3.05,19.09Z" fill="#00aeef"/></g></g></g></g></svg>