<svg xmlns="http://www.w3.org/2000/svg" viewBox="0 0 257.8 150"><title>action-clearall</title><g id="Layer_2" data-name="Layer 2"><g id="Layer_1-2" data-name="Layer 1"><path d="M113.91,23.7H0v13H104A74.24,74.24,0,0,1,113.91,23.7Z" fill="#00adef"/><path d="M96.5,74.7c0-2.19.11-4.36.3-6.5H0v13H96.8C96.61,79.05,96.5,76.89,96.5,74.7Z" fill="#00adef"/><path d="M0,112.7v13H113.91a74.25,74.25,0,0,1-9.91-13Z" fill="#00adef"/><polygon points="213.74 37.11 182.8 68.05 151.86 37.11 144.91 44.06 175.85 75 144.91 105.94 151.86 112.89 182.8 81.95 213.74 112.89 220.69 105.94 189.75 75 220.69 44.06 213.74 37.11" fill="#00adef"/><path d="M182.8,0a75,75,0,1,0,75,75A75,75,0,0,0,182.8,0Zm0,140.2A65.2,65.2,0,1,1,248,75,65.27,65.27,0,0,1,182.8,140.2Z" fill="#00adef"/></g></g></svg>