<svg xmlns="http://www.w3.org/2000/svg" viewBox="0 0 12.47 12"><title>action-approve</title><g id="Layer_2" data-name="Layer 2"><g id="Layer_1-2" data-name="Layer 1"><g id="_Group_" data-name="&lt;Group&gt;"><g id="_Group_2" data-name="&lt;Group&gt;"><path id="_Path_" data-name="&lt;Path&gt;" d="M5.45,8.58h0a.55.55,0,0,1-.39-.16l-2.5-2.5a.55.55,0,0,1,.78-.78L5.45,7.25,9.12,3.58a.55.55,0,0,1,.78.78L5.85,8.42A.55.55,0,0,1,5.45,8.58Z" fill="#1b75bc"/></g><g id="_Group_3" data-name="&lt;Group&gt;"><path id="_Compound_Path_" data-name="&lt;Compound Path&gt;" d="M7.68,12a3.76,3.76,0,0,1-.8-.12,2.78,2.78,0,0,0-1.3,0,2.43,2.43,0,0,1-1.28,0,2.44,2.44,0,0,1-1-.81,3,3,0,0,0-.44-.44,3.06,3.06,0,0,0-.56-.29,2.44,2.44,0,0,1-1.08-.73A2.44,2.44,0,0,1,.83,8.42a3.11,3.11,0,0,0-.1-.63,3,3,0,0,0-.28-.55A2.45,2.45,0,0,1,0,6,2.45,2.45,0,0,1,.45,4.76a3,3,0,0,0,.28-.55,3.11,3.11,0,0,0,.1-.63,2.44,2.44,0,0,1,.36-1.24,2.44,2.44,0,0,1,1.08-.73,3.06,3.06,0,0,0,.56-.29A3,3,0,0,0,3.27.88a2.44,2.44,0,0,1,1-.81,2.42,2.42,0,0,1,1.28,0,2.78,2.78,0,0,0,1.3,0,2.42,2.42,0,0,1,1.28,0,2.44,2.44,0,0,1,1,.81,3,3,0,0,0,.44.44,3.06,3.06,0,0,0,.56.29,2.45,2.45,0,0,1,1.08.73,2.44,2.44,0,0,1,.36,1.24,3.15,3.15,0,0,0,.1.63,3,3,0,0,0,.28.54A2.45,2.45,0,0,1,12.47,6,2.45,2.45,0,0,1,12,7.24a3,3,0,0,0-.28.55,3.14,3.14,0,0,0-.1.63,2.44,2.44,0,0,1-.36,1.24,2.44,2.44,0,0,1-1.08.73,3.06,3.06,0,0,0-.56.29,3,3,0,0,0-.44.44,2.44,2.44,0,0,1-1,.81A1.53,1.53,0,0,1,7.68,12ZM4.78.83a.71.71,0,0,0-.22,0,1.8,1.8,0,0,0-.66.56A3.69,3.69,0,0,1,3.32,2a3.72,3.72,0,0,1-.72.38,1.81,1.81,0,0,0-.74.45,1.81,1.81,0,0,0-.2.83,3.84,3.84,0,0,1-.14.81,3.62,3.62,0,0,1-.35.71A1.8,1.8,0,0,0,.83,6a1.8,1.8,0,0,0,.33.82,3.62,3.62,0,0,1,.35.71,3.84,3.84,0,0,1,.14.81,1.8,1.8,0,0,0,.2.83,1.81,1.81,0,0,0,.74.45,3.72,3.72,0,0,1,.72.38,3.69,3.69,0,0,1,.58.56,1.8,1.8,0,0,0,.66.56,1.79,1.79,0,0,0,.84-.07A3.84,3.84,0,0,1,6.23,11a3.84,3.84,0,0,1,.83.12,1.79,1.79,0,0,0,.84.07,1.8,1.8,0,0,0,.66-.56A3.69,3.69,0,0,1,9.14,10a3.72,3.72,0,0,1,.72-.38,1.81,1.81,0,0,0,.74-.45,1.81,1.81,0,0,0,.2-.83,3.84,3.84,0,0,1,.14-.81,3.6,3.6,0,0,1,.35-.71A1.8,1.8,0,0,0,11.63,6a1.8,1.8,0,0,0-.33-.82,3.57,3.57,0,0,1-.35-.71,3.81,3.81,0,0,1-.14-.81,1.8,1.8,0,0,0-.2-.83,1.8,1.8,0,0,0-.74-.45A3.73,3.73,0,0,1,9.14,2a3.7,3.7,0,0,1-.58-.56A1.8,1.8,0,0,0,7.9.86a1.8,1.8,0,0,0-.84.07A3.84,3.84,0,0,1,6.23,1,3.84,3.84,0,0,1,5.41.93,3.12,3.12,0,0,0,4.78.83Z" fill="#1b75bc"/></g></g></g></g></svg>