<svg xmlns="http://www.w3.org/2000/svg" viewBox="0 0 15.09 15.09"><title>add-photo</title><g id="Layer_2" data-name="Layer 2"><g id="Layer_1-2" data-name="Layer 1"><g id="_Group_" data-name="&lt;Group&gt;"><g id="_Group_2" data-name="&lt;Group&gt;"><circle id="_Path_" data-name="&lt;Path&gt;" cx="7.24" cy="3.93" r="1.09" fill="#fff"/></g><g id="_Group_3" data-name="&lt;Group&gt;"><path id="_Compound_Path_" data-name="&lt;Compound Path&gt;" d="M14,0H3.23A1.08,1.08,0,0,0,2.16,1.08V11.86a1.08,1.08,0,0,0,1.08,1.08H14a1.08,1.08,0,0,0,1.08-1.08V1.08A1.08,1.08,0,0,0,14,0Zm0,1.08v5.8l-2.7-1.77a.54.54,0,0,0-.63,0L7.5,7.71a.54.54,0,0,1-.67,0L5.37,6.55a.54.54,0,0,0-.65,0L3.23,7.6V1.08Z" fill="#fff"/></g><g id="_Group_4" data-name="&lt;Group&gt;"><path id="_Path_2" data-name="&lt;Path&gt;" d="M1.08,2.16A1.08,1.08,0,0,0,0,3.23V14a1.08,1.08,0,0,0,1.08,1.08H11.86A1.08,1.08,0,0,0,12.93,14H1.08Z" fill="#fff"/></g></g></g></g></svg>