<svg xmlns="http://www.w3.org/2000/svg" viewBox="0 0 38.8 30"><title>workflow</title><g id="Layer_2" data-name="Layer 2"><g id="Layer_1-2" data-name="Layer 1"><g id="_Group_" data-name="&lt;Group&gt;"><g id="_Group_2" data-name="&lt;Group&gt;"><path id="_Path_" data-name="&lt;Path&gt;" d="M24.92,13.22H23.76a2.34,2.34,0,0,1-2.34-2.34v-.75A5.91,5.91,0,0,0,22.54,8c0-.13.15-.19.23-.28A1.45,1.45,0,0,0,23,6c0-.08-.13-.15-.12-.25,0-.69,0-1.37,0-2.06A3.43,3.43,0,0,0,22,1.39,3.26,3.26,0,0,0,20.23.47a5.89,5.89,0,0,0-2.55.06,3.08,3.08,0,0,0-1.81,1.23,3.55,3.55,0,0,0-.56,1.85c0,.7,0,1.4,0,2.1,0,.14-.1.23-.16.35a1.45,1.45,0,0,0,.33,1.77.69.69,0,0,1,.2.39,5.66,5.66,0,0,0,1.05,1.89v.78a2.34,2.34,0,0,1-2.34,2.34H13.23a6.26,6.26,0,0,0-3.51,3.51V17.9a1.17,1.17,0,0,0,1.17,1.17H27.26a1.17,1.17,0,0,0,1.17-1.17V16.73A6.26,6.26,0,0,0,24.92,13.22Z" fill="#c7eafb"/><path id="_Compound_Path_" data-name="&lt;Compound Path&gt;" d="M27.26,19.43H10.89A1.53,1.53,0,0,1,9.36,17.9l0-1.32a6.58,6.58,0,0,1,3.74-3.7H14.4a2,2,0,0,0,2-2v-.65a5.94,5.94,0,0,1-1-1.91l0-.09a.66.66,0,0,0,0-.13,1.82,1.82,0,0,1-.43-2.23l.08-.14,0-.79c0-.45,0-.9,0-1.35a3.91,3.91,0,0,1,.62-2,3.45,3.45,0,0,1,2-1.37A6.25,6.25,0,0,1,20.3.12a3.6,3.6,0,0,1,2,1,3.78,3.78,0,0,1,.93,2.54c0,.49,0,1,0,1.46V5.7l.08.12A1.8,1.8,0,0,1,23,8l-.1.09-.05,0a6.12,6.12,0,0,1-1.09,2.13v.62a2,2,0,0,0,2,2H25a6.58,6.58,0,0,1,3.74,3.7l0,.15V17.9A1.53,1.53,0,0,1,27.26,19.43ZM10.08,16.81V17.9a.81.81,0,0,0,.81.81H27.26a.81.81,0,0,0,.81-.81V16.81a6.09,6.09,0,0,0-3.2-3.23H23.76a2.7,2.7,0,0,1-2.7-2.7V10l.08-.1a5.51,5.51,0,0,0,1-2,.69.69,0,0,1,.26-.38l.06-.05a1.09,1.09,0,0,0,.15-1.3.72.72,0,0,1-.18-.46v-.6c0-.48,0-1,0-1.45a3.07,3.07,0,0,0-.74-2.06A2.91,2.91,0,0,0,20.17.82a5.56,5.56,0,0,0-2.39.05A2.73,2.73,0,0,0,16.17,2a3.19,3.19,0,0,0-.5,1.67c0,.43,0,.88,0,1.33v.76a.66.66,0,0,1-.15.44l0,.08a1.09,1.09,0,0,0,.24,1.32A.84.84,0,0,1,16,8l0,.07a5.27,5.27,0,0,0,1,1.77l.08.1v.91a2.7,2.7,0,0,1-2.7,2.7H13.29A6.09,6.09,0,0,0,10.08,16.81Z" fill="#00aeef"/></g><g id="_Group_3" data-name="&lt;Group&gt;"><polygon id="_Path_2" data-name="&lt;Path&gt;" points="33.81 25.78 30.29 21.68 8.32 21.68 4.8 25.78 3.97 25.06 7.82 20.58 30.79 20.58 34.64 25.06 33.81 25.78" fill="#00aeef"/></g><g id="_Group_4" data-name="&lt;Group&gt;"><rect id="_Path_3" data-name="&lt;Path&gt;" x="18.53" y="21.13" width="1.1" height="3.66" fill="#00aeef"/></g><g id="_Group_5" data-name="&lt;Group&gt;"><path id="_Compound_Path_2" data-name="&lt;Compound Path&gt;" d="M35.75,30a3.06,3.06,0,1,1,3.06-3.06A3.06,3.06,0,0,1,35.75,30Zm0-5a2,2,0,1,0,2,2A2,2,0,0,0,35.75,25Z" fill="#00aeef"/></g><g id="_Group_6" data-name="&lt;Group&gt;"><path id="_Compound_Path_3" data-name="&lt;Compound Path&gt;" d="M19.08,30a3.06,3.06,0,1,1,3.06-3.06A3.06,3.06,0,0,1,19.08,30Zm0-5a2,2,0,1,0,2,2A2,2,0,0,0,19.08,25Z" fill="#00aeef"/></g><g id="_Group_7" data-name="&lt;Group&gt;"><path id="_Compound_Path_4" data-name="&lt;Compound Path&gt;" d="M3.06,30a3.06,3.06,0,1,1,3.06-3.06A3.06,3.06,0,0,1,3.06,30Zm0-5a2,2,0,1,0,2,2A2,2,0,0,0,3.06,25Z" fill="#00aeef"/></g></g></g></g></svg>