<svg xmlns="http://www.w3.org/2000/svg" xmlns:xlink="http://www.w3.org/1999/xlink" viewBox="0 0 484.48 373.25"><defs><linearGradient id="linear-gradient" x1="760.46" y1="249.84" x2="761.46" y2="249.84" gradientTransform="translate(-100721.36 -80517.16) scale(132.87 323.02)" gradientUnits="userSpaceOnUse"><stop offset="0" stop-color="#007b40"/><stop offset="1" stop-color="#55b330"/></linearGradient><linearGradient id="linear-gradient-2" x1="760.48" y1="249.84" x2="761.47" y2="249.84" gradientTransform="translate(-101444.04 -80516.59) scale(133.43 323.02)" gradientUnits="userSpaceOnUse"><stop offset="0" stop-color="#1d2970"/><stop offset="1" stop-color="#006dba"/></linearGradient><linearGradient id="linear-gradient-3" x1="760.46" y1="249.84" x2="761.46" y2="249.84" gradientTransform="translate(-100934.39 -80518.39) scale(132.96 323.03)" gradientUnits="userSpaceOnUse"><stop offset="0" stop-color="#6e2b2f"/><stop offset="1" stop-color="#e30138"/></linearGradient></defs><title>card-jcb</title><g id="Layer_2" data-name="Layer 2"><g id="Layer_1-2" data-name="Layer 1"><path id="path3494" d="M484.48,297.89a75.36,75.36,0,0,1-75.36,75.36H0V75.37A75.36,75.36,0,0,1,75.36,0H484.48V297.89Z" fill="#fff"/><path id="path3496" d="M351.1,193.17c11.69.25,23.44-.52,35.08.4,11.79,2.2,14.63,20,4.16,25.89-7.15,3.85-15.63,1.43-23.38,2.11H351.1v-28.4ZM392.93,161c2.6,9.16-6.24,17.39-15.06,16.13H351.1c.19-8.64-.37-18,.27-26.21,10.72.3,21.55-.62,32.21.48a12.75,12.75,0,0,1,9.35,9.6Zm64.43-135.9c.5,17.5.07,35.93.22,53.78,0,72.6.07,145.2-.06,217.79-.47,27.21-24.58,50.85-51.6,51.39-27,.11-54.09,0-81.14,0V238.38c29.47-.15,59,.31,88.42-.23,13.67-.86,28.64-9.87,29.27-24.91,1.61-15.1-12.63-25.55-26.15-27.2-5.2-.13-5-1.51,0-2.12,12.9-2.79,23-16.13,19.23-29.5-3.23-14.06-18.77-19.5-31.7-19.47-26.35-.18-52.71,0-79.06-.08.17-20.49-.36-41,.28-61.47,2.09-26.72,26.81-48.75,53.45-48.27Z" fill="url(#linear-gradient)"/><path id="path3498" d="M27,76.17c.67-27.16,24.89-50.61,51.87-51,26.95-.08,53.89,0,80.84,0-.07,90.89.15,181.78-.11,272.66-1,26.83-25,49.83-51.68,50.31-27,.1-54,0-81,0V234.68c26.22,6.2,53.72,8.83,80.47,4.72,16-2.57,33.49-10.43,38.9-27,4-14.19,1.74-29.13,2.33-43.69V134.87h-46.3c-.21,22.37.43,44.78-.34,67.13-1.25,13.73-14.85,22.46-27.8,22-16.06.17-47.9-11.64-47.9-11.64-.08-41.92.47-94.41.69-136.18Z" fill="url(#linear-gradient-2)"/><path id="path3500" d="M177,148.52c-2.44.52-.49-8.3-1.11-11.65.17-21.15-.35-42.32.28-63.46,2.08-26.83,27-48.92,53.74-48.29h78.77c-.07,90.88.14,181.77-.11,272.66-1,26.83-25,49.83-51.68,50.31-27,.1-54,0-81,0V223.83c18.44,15.13,43.5,17.48,66.47,17.52,17.32,0,34.54-2.68,51.35-6.67V211.92c-19,9.45-41.23,15.45-62.24,10-14.66-3.65-25.29-17.81-25.06-32.94-1.7-15.73,7.52-32.34,23-37,19.19-6,40.11-1.41,58.1,6.4,3.86,2,7.77,4.52,6.23-1.92v-17.9c-30.09-7.16-62.1-9.79-92.33-2-8.75,2.47-17.27,6.21-24.38,12Z" fill="url(#linear-gradient-3)"/></g></g></svg>