<svg xmlns="http://www.w3.org/2000/svg" xmlns:xlink="http://www.w3.org/1999/xlink" viewBox="0 0 178.87 114.41"><defs><linearGradient id="linear-gradient" x1="100.75" y1="59.08" x2="91.22" y2="44.15" gradientUnits="userSpaceOnUse"><stop offset="0" stop-color="#f9a020"/><stop offset="0.25" stop-color="#f89b20"/><stop offset="0.53" stop-color="#f78e20"/><stop offset="0.62" stop-color="#f68820"/><stop offset="0.73" stop-color="#f58120"/><stop offset="1" stop-color="#f47521"/></linearGradient><linearGradient id="linear-gradient-2" x1="99.24" y1="58.87" x2="85.31" y2="31.64" gradientUnits="userSpaceOnUse"><stop offset="0" stop-color="#f68820" stop-opacity="0"/><stop offset="0.11" stop-color="#ef8023" stop-opacity="0.14"/><stop offset="0.31" stop-color="#e47327" stop-opacity="0.35"/><stop offset="0.5" stop-color="#db682a" stop-opacity="0.52"/><stop offset="0.69" stop-color="#d5612c" stop-opacity="0.64"/><stop offset="0.85" stop-color="#d15d2e" stop-opacity="0.71"/><stop offset="0.98" stop-color="#d05b2e" stop-opacity="0.74"/></linearGradient><clipPath id="clip-path"><circle cx="93.7" cy="48.04" r="13.77" fill="none"/></clipPath></defs><title>card-discover</title><g style="isolation:isolate"><g id="Layer_2" data-name="Layer 2"><g id="Layer_1-2" data-name="Layer 1"><polygon points="0.63 0.66 178.23 0.65 178.23 113.76 0.65 113.76 0.63 0.66" fill="#fff"/><path d="M177.6,63.55S129.07,97.8,40.19,113.12H177.6Z" fill="#f58220"/><path d="M178.23,0,0,0V114.41H178.87V0Zm-.65,1.3V113.11H1.29c0-1.27,0-110.54,0-111.81Z" fill="#231f20"/><path d="M15.64,35H8.23V60.89H15.6c3.92,0,6.75-.92,9.24-3A13,13,0,0,0,29.54,48C29.54,40.33,23.83,35,15.64,35Zm5.9,19.44c-1.59,1.43-3.65,2.06-6.91,2.06H13.27V39.39h1.35c3.26,0,5.24.58,6.91,2.09a8.72,8.72,0,0,1,2.8,6.44A8.88,8.88,0,0,1,21.54,54.45Z" fill="#231f20"/><rect x="31.86" y="35.01" width="5.05" height="25.88" fill="#231f20"/><path d="M49.25,44.94c-3-1.12-3.92-1.86-3.92-3.26,0-1.63,1.58-2.87,3.76-2.87a5.22,5.22,0,0,1,4.07,2.1l2.64-3.46a11.32,11.32,0,0,0-7.61-2.87c-4.58,0-8.07,3.18-8.07,7.42,0,3.57,1.63,5.39,6.37,7.1A20.14,20.14,0,0,1,50,50.57a3.1,3.1,0,0,1,1.51,2.68,3.69,3.69,0,0,1-3.92,3.65,6,6,0,0,1-5.51-3.45l-3.26,3.14c2.33,3.41,5.12,4.93,9,4.93C53,61.52,56.7,58,56.7,53,56.7,48.9,55,47,49.25,44.94Z" fill="#231f20"/><path d="M58.29,48A13.4,13.4,0,0,0,72,61.48,14,14,0,0,0,78.28,60V54c-2,2-3.81,2.83-6.1,2.83-5.08,0-8.69-3.69-8.69-8.93A8.6,8.6,0,0,1,72,39c2.41,0,4.23.86,6.33,2.91V36a12.89,12.89,0,0,0-6.21-1.59A13.61,13.61,0,0,0,58.29,48Z" fill="#231f20"/><polygon points="118.31 52.4 111.41 35.01 105.9 35.01 116.88 61.56 119.6 61.56 130.78 35.01 125.31 35.01 118.31 52.4" fill="#231f20"/><polygon points="133.06 60.89 147.38 60.89 147.38 56.51 138.11 56.51 138.11 49.52 147.04 49.52 147.04 45.14 138.11 45.14 138.11 39.39 147.38 39.39 147.38 35.01 133.06 35.01 133.06 60.89" fill="#231f20"/><path d="M167.37,42.65c0-4.85-3.34-7.64-9.16-7.64h-7.49V60.89h5V50.49h.66l7,10.4h6.21L161.47,50C165.28,49.21,167.37,46.61,167.37,42.65Zm-10.13,4.27h-1.47V39.09h1.55c3.14,0,4.85,1.32,4.85,3.84S160.47,46.93,157.24,46.93Z" fill="#231f20"/><circle cx="93.7" cy="48.04" r="13.77" fill="url(#linear-gradient)"/><circle cx="93.7" cy="48.04" r="13.77" opacity="0.65" fill="url(#linear-gradient-2)" style="mix-blend-mode:multiply"/><g opacity="0.5" style="mix-blend-mode:multiply"><g clip-path="url(#clip-path)"><circle cx="93.74" cy="48.09" r="14.05" fill="#231f20" style="mix-blend-mode:multiply"/><circle cx="93.75" cy="48.1" r="14.05" fill="#242122" style="mix-blend-mode:multiply"/><circle cx="93.76" cy="48.1" r="14.04" fill="#252223" style="mix-blend-mode:multiply"/><circle cx="93.77" cy="48.11" r="14.04" fill="#272324" style="mix-blend-mode:multiply"/><circle cx="93.77" cy="48.12" r="14.04" fill="#282526" style="mix-blend-mode:multiply"/><circle cx="93.78" cy="48.13" r="14.04" fill="#292627" style="mix-blend-mode:multiply"/><circle cx="93.79" cy="48.14" r="14.04" fill="#2a2728" style="mix-blend-mode:multiply"/><circle cx="93.8" cy="48.15" r="14.04" fill="#2b292a" style="mix-blend-mode:multiply"/><circle cx="93.8" cy="48.16" r="14.04" fill="#2d2a2b" style="mix-blend-mode:multiply"/><circle cx="93.81" cy="48.17" r="14.03" fill="#2e2b2d" style="mix-blend-mode:multiply"/><circle cx="93.82" cy="48.18" r="14.03" fill="#2f2d2e" style="mix-blend-mode:multiply"/><circle cx="93.83" cy="48.18" r="14.03" fill="#302e2f" style="mix-blend-mode:multiply"/><circle cx="93.84" cy="48.19" r="14.03" fill="#312f31" style="mix-blend-mode:multiply"/><circle cx="93.84" cy="48.2" r="14.03" fill="#323132" style="mix-blend-mode:multiply"/><circle cx="93.85" cy="48.21" r="14.03" fill="#343233" style="mix-blend-mode:multiply"/><circle cx="93.86" cy="48.22" r="14.03" fill="#353334" style="mix-blend-mode:multiply"/><circle cx="93.87" cy="48.23" r="14.02" fill="#363436" style="mix-blend-mode:multiply"/><circle cx="93.87" cy="48.24" r="14.02" fill="#373537" style="mix-blend-mode:multiply"/><circle cx="93.88" cy="48.25" r="14.02" fill="#383738" style="mix-blend-mode:multiply"/><circle cx="93.89" cy="48.25" r="14.02" fill="#393839" style="mix-blend-mode:multiply"/><circle cx="93.9" cy="48.26" r="14.02" fill="#3a393a" style="mix-blend-mode:multiply"/><circle cx="93.9" cy="48.27" r="14.02" fill="#3b3a3c" style="mix-blend-mode:multiply"/><circle cx="93.91" cy="48.28" r="14.02" fill="#3c3b3d" style="mix-blend-mode:multiply"/><circle cx="93.92" cy="48.29" r="14.02" fill="#3d3c3e" style="mix-blend-mode:multiply"/><circle cx="93.93" cy="48.3" r="14.01" fill="#3e3d3f" style="mix-blend-mode:multiply"/><circle cx="93.93" cy="48.31" r="14.01" fill="#3f3e40" style="mix-blend-mode:multiply"/><circle cx="93.94" cy="48.32" r="14.01" fill="#403f41" style="mix-blend-mode:multiply"/><circle cx="93.95" cy="48.32" r="14.01" fill="#414042" style="mix-blend-mode:multiply"/><circle cx="93.96" cy="48.33" r="14.01" fill="#424143" style="mix-blend-mode:multiply"/><circle cx="93.97" cy="48.34" r="14.01" fill="#434244" style="mix-blend-mode:multiply"/><circle cx="93.97" cy="48.35" r="14.01" fill="#444345" style="mix-blend-mode:multiply"/><circle cx="93.98" cy="48.36" r="14" fill="#454446" style="mix-blend-mode:multiply"/><circle cx="93.99" cy="48.37" r="14" fill="#454547" style="mix-blend-mode:multiply"/><circle cx="93.99" cy="48.38" r="14" fill="#464648" style="mix-blend-mode:multiply"/><circle cx="94" cy="48.39" r="14" fill="#474749" style="mix-blend-mode:multiply"/><circle cx="94.01" cy="48.39" r="14" fill="#48484a" style="mix-blend-mode:multiply"/><circle cx="94.02" cy="48.4" r="14" fill="#49494b" style="mix-blend-mode:multiply"/><circle cx="94.03" cy="48.41" r="14" fill="#4a4a4c" style="mix-blend-mode:multiply"/><circle cx="94.03" cy="48.42" r="13.99" fill="#4b4b4d" style="mix-blend-mode:multiply"/><circle cx="94.04" cy="48.43" r="13.99" fill="#4c4c4e" style="mix-blend-mode:multiply"/><circle cx="94.05" cy="48.44" r="13.99" fill="#4d4d4f" style="mix-blend-mode:multiply"/><circle cx="94.06" cy="48.45" r="13.99" fill="#4d4e50" style="mix-blend-mode:multiply"/><circle cx="94.06" cy="48.46" r="13.99" fill="#4e4f51" style="mix-blend-mode:multiply"/><circle cx="94.07" cy="48.46" r="13.99" fill="#4f5052" style="mix-blend-mode:multiply"/><circle cx="94.08" cy="48.47" r="13.99" fill="#505052" style="mix-blend-mode:multiply"/><circle cx="94.09" cy="48.48" r="13.98" fill="#515153" style="mix-blend-mode:multiply"/><circle cx="94.09" cy="48.49" r="13.98" fill="#525254" style="mix-blend-mode:multiply"/><circle cx="94.1" cy="48.5" r="13.98" fill="#535355" style="mix-blend-mode:multiply"/><circle cx="94.11" cy="48.51" r="13.98" fill="#535456" style="mix-blend-mode:multiply"/><circle cx="94.12" cy="48.52" r="13.98" fill="#545557" style="mix-blend-mode:multiply"/><circle cx="94.13" cy="48.53" r="13.98" fill="#555658" style="mix-blend-mode:multiply"/><circle cx="94.13" cy="48.53" r="13.98" fill="#565759" style="mix-blend-mode:multiply"/><circle cx="94.14" cy="48.54" r="13.98" fill="#57585a" style="mix-blend-mode:multiply"/><circle cx="94.15" cy="48.55" r="13.97" fill="#58585b" style="mix-blend-mode:multiply"/><circle cx="94.16" cy="48.56" r="13.97" fill="#58595b" style="mix-blend-mode:multiply"/><circle cx="94.16" cy="48.57" r="13.97" fill="#595a5c" style="mix-blend-mode:multiply"/><circle cx="94.17" cy="48.58" r="13.97" fill="#5a5b5d" style="mix-blend-mode:multiply"/><circle cx="94.18" cy="48.59" r="13.97" fill="#5b5c5e" style="mix-blend-mode:multiply"/><circle cx="94.19" cy="48.6" r="13.97" fill="#5c5d5f" style="mix-blend-mode:multiply"/><circle cx="94.19" cy="48.6" r="13.97" fill="#5c5d60" style="mix-blend-mode:multiply"/><circle cx="94.2" cy="48.61" r="13.96" fill="#5d5e61" style="mix-blend-mode:multiply"/><circle cx="94.21" cy="48.62" r="13.96" fill="#5e5f61" style="mix-blend-mode:multiply"/><circle cx="94.22" cy="48.63" r="13.96" fill="#5f6062" style="mix-blend-mode:multiply"/><circle cx="94.22" cy="48.64" r="13.96" fill="#606163" style="mix-blend-mode:multiply"/><circle cx="94.23" cy="48.65" r="13.96" fill="#606264" style="mix-blend-mode:multiply"/><circle cx="94.24" cy="48.66" r="13.96" fill="#616265" style="mix-blend-mode:multiply"/><circle cx="94.25" cy="48.67" r="13.96" fill="#626366" style="mix-blend-mode:multiply"/><circle cx="94.25" cy="48.67" r="13.95" fill="#636466" style="mix-blend-mode:multiply"/><circle cx="94.26" cy="48.68" r="13.95" fill="#646567" style="mix-blend-mode:multiply"/><circle cx="94.27" cy="48.69" r="13.95" fill="#646668" style="mix-blend-mode:multiply"/><circle cx="94.28" cy="48.7" r="13.95" fill="#656669" style="mix-blend-mode:multiply"/><circle cx="94.29" cy="48.71" r="13.95" fill="#66676a" style="mix-blend-mode:multiply"/><circle cx="94.29" cy="48.72" r="13.95" fill="#67686a" style="mix-blend-mode:multiply"/><circle cx="94.3" cy="48.73" r="13.95" fill="#67696b" style="mix-blend-mode:multiply"/><circle cx="94.31" cy="48.74" r="13.95" fill="#686a6c" style="mix-blend-mode:multiply"/><circle cx="94.32" cy="48.74" r="13.94" fill="#696a6d" style="mix-blend-mode:multiply"/><circle cx="94.32" cy="48.75" r="13.94" fill="#6a6b6d" style="mix-blend-mode:multiply"/><circle cx="94.33" cy="48.76" r="13.94" fill="#6b6c6e" style="mix-blend-mode:multiply"/><circle cx="94.34" cy="48.77" r="13.94" fill="#6b6d6f" style="mix-blend-mode:multiply"/><circle cx="94.35" cy="48.78" r="13.94" fill="#6c6d70" style="mix-blend-mode:multiply"/><circle cx="94.35" cy="48.79" r="13.94" fill="#6d6e71" style="mix-blend-mode:multiply"/><circle cx="94.36" cy="48.8" r="13.94" fill="#6d6f71" style="mix-blend-mode:multiply"/><circle cx="94.37" cy="48.81" r="13.93" fill="#6e7072" style="mix-blend-mode:multiply"/><circle cx="94.38" cy="48.81" r="13.93" fill="#6f7073" style="mix-blend-mode:multiply"/><circle cx="94.38" cy="48.82" r="13.93" fill="#707174" style="mix-blend-mode:multiply"/><circle cx="94.39" cy="48.83" r="13.93" fill="#707274" style="mix-blend-mode:multiply"/><circle cx="94.4" cy="48.84" r="13.93" fill="#717375" style="mix-blend-mode:multiply"/><circle cx="94.41" cy="48.85" r="13.93" fill="#727376" style="mix-blend-mode:multiply"/><circle cx="94.41" cy="48.86" r="13.93" fill="#737477" style="mix-blend-mode:multiply"/><circle cx="94.42" cy="48.87" r="13.92" fill="#737577" style="mix-blend-mode:multiply"/><circle cx="94.43" cy="48.88" r="13.92" fill="#747678" style="mix-blend-mode:multiply"/><circle cx="94.44" cy="48.89" r="13.92" fill="#757679" style="mix-blend-mode:multiply"/><circle cx="94.44" cy="48.89" r="13.92" fill="#75777a" style="mix-blend-mode:multiply"/><circle cx="94.45" cy="48.9" r="13.92" fill="#76787a" style="mix-blend-mode:multiply"/><circle cx="94.46" cy="48.91" r="13.92" fill="#77797b" style="mix-blend-mode:multiply"/><circle cx="94.47" cy="48.92" r="13.92" fill="#78797c" style="mix-blend-mode:multiply"/><circle cx="94.47" cy="48.93" r="13.91" fill="#787a7d" style="mix-blend-mode:multiply"/><circle cx="94.48" cy="48.94" r="13.91" fill="#797b7d" style="mix-blend-mode:multiply"/><circle cx="94.49" cy="48.95" r="13.91" fill="#7a7b7e" style="mix-blend-mode:multiply"/><circle cx="94.5" cy="48.96" r="13.91" fill="#7a7c7f" style="mix-blend-mode:multiply"/><circle cx="94.51" cy="48.96" r="13.91" fill="#7b7d7f" style="mix-blend-mode:multiply"/><circle cx="94.51" cy="48.97" r="13.91" fill="#7c7e80" style="mix-blend-mode:multiply"/><circle cx="94.52" cy="48.98" r="13.91" fill="#7d7e81" style="mix-blend-mode:multiply"/><circle cx="94.53" cy="48.99" r="13.91" fill="#7d7f82" style="mix-blend-mode:multiply"/><circle cx="94.54" cy="49" r="13.9" fill="#7e8082" style="mix-blend-mode:multiply"/><circle cx="94.54" cy="49.01" r="13.9" fill="#7f8183" style="mix-blend-mode:multiply"/><circle cx="94.55" cy="49.02" r="13.9" fill="#7f8184" style="mix-blend-mode:multiply"/><circle cx="94.56" cy="49.03" r="13.9" fill="#808285" style="mix-blend-mode:multiply"/><circle cx="94.57" cy="49.03" r="13.9" fill="#818385" style="mix-blend-mode:multiply"/><circle cx="94.57" cy="49.04" r="13.9" fill="#828386" style="mix-blend-mode:multiply"/><circle cx="94.58" cy="49.05" r="13.9" fill="#828487" style="mix-blend-mode:multiply"/><circle cx="94.59" cy="49.06" r="13.89" fill="#838587" style="mix-blend-mode:multiply"/><circle cx="94.6" cy="49.07" r="13.89" fill="#848688" style="mix-blend-mode:multiply"/><circle cx="94.6" cy="49.08" r="13.89" fill="#848689" style="mix-blend-mode:multiply"/><circle cx="94.61" cy="49.09" r="13.89" fill="#85878a" style="mix-blend-mode:multiply"/><circle cx="94.62" cy="49.1" r="13.89" fill="#86888a" style="mix-blend-mode:multiply"/><circle cx="94.63" cy="49.1" r="13.89" fill="#86888b" style="mix-blend-mode:multiply"/><circle cx="94.63" cy="49.11" r="13.89" fill="#87898c" style="mix-blend-mode:multiply"/><circle cx="94.64" cy="49.12" r="13.89" fill="#888a8c" style="mix-blend-mode:multiply"/><circle cx="94.65" cy="49.13" r="13.88" fill="#898b8d" style="mix-blend-mode:multiply"/><circle cx="94.66" cy="49.14" r="13.88" fill="#898b8e" style="mix-blend-mode:multiply"/><circle cx="94.67" cy="49.15" r="13.88" fill="#8a8c8f" style="mix-blend-mode:multiply"/><circle cx="94.67" cy="49.16" r="13.88" fill="#8b8d8f" style="mix-blend-mode:multiply"/><circle cx="94.68" cy="49.17" r="13.88" fill="#8b8d90" style="mix-blend-mode:multiply"/><circle cx="94.69" cy="49.17" r="13.88" fill="#8c8e91" style="mix-blend-mode:multiply"/><circle cx="94.7" cy="49.18" r="13.88" fill="#8d8f91" style="mix-blend-mode:multiply"/><circle cx="94.7" cy="49.19" r="13.87" fill="#8d9092" style="mix-blend-mode:multiply"/><circle cx="94.71" cy="49.2" r="13.87" fill="#8e9093" style="mix-blend-mode:multiply"/><circle cx="94.72" cy="49.21" r="13.87" fill="#8f9194" style="mix-blend-mode:multiply"/><circle cx="94.73" cy="49.22" r="13.87" fill="#909294" style="mix-blend-mode:multiply"/><circle cx="94.73" cy="49.23" r="13.87" fill="#909295" style="mix-blend-mode:multiply"/><circle cx="94.74" cy="49.24" r="13.87" fill="#919396" style="mix-blend-mode:multiply"/><circle cx="94.75" cy="49.24" r="13.87" fill="#929497" style="mix-blend-mode:multiply"/><circle cx="94.76" cy="49.25" r="13.86" fill="#939597" style="mix-blend-mode:multiply"/><circle cx="94.76" cy="49.26" r="13.86" fill="#939598" style="mix-blend-mode:multiply"/><circle cx="94.77" cy="49.27" r="13.86" fill="#949699" style="mix-blend-mode:multiply"/><circle cx="94.78" cy="49.28" r="13.86" fill="#959799" style="mix-blend-mode:multiply"/><circle cx="94.79" cy="49.29" r="13.86" fill="#95989a" style="mix-blend-mode:multiply"/><circle cx="94.79" cy="49.3" r="13.86" fill="#96989b" style="mix-blend-mode:multiply"/><circle cx="94.8" cy="49.31" r="13.86" fill="#97999c" style="mix-blend-mode:multiply"/><circle cx="94.81" cy="49.32" r="13.85" fill="#989a9c" style="mix-blend-mode:multiply"/><circle cx="94.82" cy="49.32" r="13.85" fill="#989a9d" style="mix-blend-mode:multiply"/><circle cx="94.82" cy="49.33" r="13.85" fill="#999b9e" style="mix-blend-mode:multiply"/><circle cx="94.83" cy="49.34" r="13.85" fill="#9a9c9f" style="mix-blend-mode:multiply"/><circle cx="94.84" cy="49.35" r="13.85" fill="#9b9d9f" style="mix-blend-mode:multiply"/><circle cx="94.85" cy="49.36" r="13.85" fill="#9b9da0" style="mix-blend-mode:multiply"/><circle cx="94.86" cy="49.37" r="13.85" fill="#9c9ea1" style="mix-blend-mode:multiply"/><circle cx="94.86" cy="49.38" r="13.85" fill="#9d9fa1" style="mix-blend-mode:multiply"/><circle cx="94.87" cy="49.39" r="13.84" fill="#9da0a2" style="mix-blend-mode:multiply"/><circle cx="94.88" cy="49.39" r="13.84" fill="#9ea0a3" style="mix-blend-mode:multiply"/><circle cx="94.89" cy="49.4" r="13.84" fill="#9fa1a4" style="mix-blend-mode:multiply"/><circle cx="94.89" cy="49.41" r="13.84" fill="#a0a2a4" style="mix-blend-mode:multiply"/><circle cx="94.9" cy="49.42" r="13.84" fill="#a0a3a5" style="mix-blend-mode:multiply"/><circle cx="94.91" cy="49.43" r="13.84" fill="#a1a3a6" style="mix-blend-mode:multiply"/><circle cx="94.92" cy="49.44" r="13.84" fill="#a2a4a7" style="mix-blend-mode:multiply"/><circle cx="94.92" cy="49.45" r="13.83" fill="#a3a5a7" style="mix-blend-mode:multiply"/><circle cx="94.93" cy="49.46" r="13.83" fill="#a3a6a8" style="mix-blend-mode:multiply"/><circle cx="94.94" cy="49.46" r="13.83" fill="#a4a6a9" style="mix-blend-mode:multiply"/><circle cx="94.95" cy="49.47" r="13.83" fill="#a5a7aa" style="mix-blend-mode:multiply"/><circle cx="94.95" cy="49.48" r="13.83" fill="#a6a8aa" style="mix-blend-mode:multiply"/><circle cx="94.96" cy="49.49" r="13.83" fill="#a6a9ab" style="mix-blend-mode:multiply"/><circle cx="94.97" cy="49.5" r="13.83" fill="#a7a9ac" style="mix-blend-mode:multiply"/><circle cx="94.98" cy="49.51" r="13.82" fill="#a8aaad" style="mix-blend-mode:multiply"/><circle cx="94.98" cy="49.52" r="13.82" fill="#a9abad" style="mix-blend-mode:multiply"/><circle cx="94.99" cy="49.53" r="13.82" fill="#a9acae" style="mix-blend-mode:multiply"/><circle cx="95" cy="49.53" r="13.82" fill="#aaacaf" style="mix-blend-mode:multiply"/><circle cx="95.01" cy="49.54" r="13.82" fill="#abadb0" style="mix-blend-mode:multiply"/><circle cx="95.02" cy="49.55" r="13.82" fill="#acaeb0" style="mix-blend-mode:multiply"/><circle cx="95.02" cy="49.56" r="13.82" fill="#adafb1" style="mix-blend-mode:multiply"/><circle cx="95.03" cy="49.57" r="13.81" fill="#adafb2" style="mix-blend-mode:multiply"/><circle cx="95.04" cy="49.58" r="13.81" fill="#aeb0b3" style="mix-blend-mode:multiply"/><circle cx="95.05" cy="49.59" r="13.81" fill="#afb1b3" style="mix-blend-mode:multiply"/><circle cx="95.05" cy="49.6" r="13.81" fill="#b0b2b4" style="mix-blend-mode:multiply"/><circle cx="95.06" cy="49.6" r="13.81" fill="#b0b2b5" style="mix-blend-mode:multiply"/><circle cx="95.07" cy="49.61" r="13.81" fill="#b1b3b6" style="mix-blend-mode:multiply"/><circle cx="95.08" cy="49.62" r="13.81" fill="#b2b4b6" style="mix-blend-mode:multiply"/><circle cx="95.08" cy="49.63" r="13.81" fill="#b3b5b7" style="mix-blend-mode:multiply"/><circle cx="95.09" cy="49.64" r="13.8" fill="#b4b6b8" style="mix-blend-mode:multiply"/><circle cx="95.1" cy="49.65" r="13.8" fill="#b4b6b9" style="mix-blend-mode:multiply"/><circle cx="95.11" cy="49.66" r="13.8" fill="#b5b7b9" style="mix-blend-mode:multiply"/><circle cx="95.11" cy="49.67" r="13.8" fill="#b6b8ba" style="mix-blend-mode:multiply"/><circle cx="95.12" cy="49.67" r="13.8" fill="#b7b9bb" style="mix-blend-mode:multiply"/><circle cx="95.13" cy="49.68" r="13.8" fill="#b8b9bc" style="mix-blend-mode:multiply"/><circle cx="95.14" cy="49.69" r="13.8" fill="#b8babd" style="mix-blend-mode:multiply"/><circle cx="95.14" cy="49.7" r="13.79" fill="#b9bbbd" style="mix-blend-mode:multiply"/><circle cx="95.15" cy="49.71" r="13.79" fill="#babcbe" style="mix-blend-mode:multiply"/><circle cx="95.16" cy="49.72" r="13.79" fill="#bbbdbf" style="mix-blend-mode:multiply"/><circle cx="95.17" cy="49.73" r="13.79" fill="#bbbdc0" style="mix-blend-mode:multiply"/><circle cx="95.18" cy="49.74" r="13.79" fill="#bcbec0" style="mix-blend-mode:multiply"/><circle cx="95.18" cy="49.75" r="13.79" fill="#bdbfc1" style="mix-blend-mode:multiply"/><circle cx="95.19" cy="49.75" r="13.79" fill="#bec0c2" style="mix-blend-mode:multiply"/><circle cx="95.2" cy="49.76" r="13.79" fill="#bfc0c3" style="mix-blend-mode:multiply"/><circle cx="95.21" cy="49.77" r="13.78" fill="#bfc1c3" style="mix-blend-mode:multiply"/><circle cx="95.21" cy="49.78" r="13.78" fill="#c0c2c4" style="mix-blend-mode:multiply"/><circle cx="95.22" cy="49.79" r="13.78" fill="#c1c3c5" style="mix-blend-mode:multiply"/><circle cx="95.23" cy="49.8" r="13.78" fill="#c2c4c6" style="mix-blend-mode:multiply"/><circle cx="95.24" cy="49.81" r="13.78" fill="#c3c4c6" style="mix-blend-mode:multiply"/><circle cx="95.24" cy="49.82" r="13.78" fill="#c3c5c7" style="mix-blend-mode:multiply"/><circle cx="95.25" cy="49.82" r="13.78" fill="#c4c6c8" style="mix-blend-mode:multiply"/><circle cx="95.26" cy="49.83" r="13.77" fill="#c5c7c9" style="mix-blend-mode:multiply"/><circle cx="95.27" cy="49.84" r="13.77" fill="#c6c8ca" style="mix-blend-mode:multiply"/><circle cx="95.27" cy="49.85" r="13.77" fill="#c7c8ca" style="mix-blend-mode:multiply"/><circle cx="95.28" cy="49.86" r="13.77" fill="#c7c9cb" style="mix-blend-mode:multiply"/><circle cx="95.29" cy="49.87" r="13.77" fill="#c7c9cb" opacity="0.99" style="mix-blend-mode:multiply"/><circle cx="95.29" cy="49.87" r="13.77" fill="#c7c9cb" opacity="0.99" style="mix-blend-mode:multiply"/><circle cx="95.3" cy="49.88" r="13.77" fill="#c8c9cb" opacity="0.98" style="mix-blend-mode:multiply"/><circle cx="95.31" cy="49.89" r="13.77" fill="#c8cacc" opacity="0.98" style="mix-blend-mode:multiply"/><circle cx="95.31" cy="49.9" r="13.77" fill="#c8cacc" opacity="0.97" style="mix-blend-mode:multiply"/><circle cx="95.32" cy="49.91" r="13.77" fill="#c8cacc" opacity="0.97" style="mix-blend-mode:multiply"/><circle cx="95.33" cy="49.91" r="13.77" fill="#c9cacc" opacity="0.96" style="mix-blend-mode:multiply"/><circle cx="95.33" cy="49.92" r="13.77" fill="#c9cbcd" opacity="0.96" style="mix-blend-mode:multiply"/><circle cx="95.34" cy="49.93" r="13.77" fill="#c9cbcd" opacity="0.95" style="mix-blend-mode:multiply"/><circle cx="95.35" cy="49.94" r="13.77" fill="#c9cbcd" opacity="0.95" style="mix-blend-mode:multiply"/><circle cx="95.35" cy="49.95" r="13.77" fill="#cacbcd" opacity="0.94" style="mix-blend-mode:multiply"/><circle cx="95.36" cy="49.95" r="13.77" fill="#caccce" opacity="0.94" style="mix-blend-mode:multiply"/><circle cx="95.37" cy="49.96" r="13.77" fill="#caccce" opacity="0.93" style="mix-blend-mode:multiply"/><circle cx="95.37" cy="49.97" r="13.77" fill="#cbccce" opacity="0.93" style="mix-blend-mode:multiply"/><circle cx="95.38" cy="49.98" r="13.77" fill="#cbccce" opacity="0.92" style="mix-blend-mode:multiply"/><circle cx="95.39" cy="49.98" r="13.77" fill="#cbcdcf" opacity="0.92" style="mix-blend-mode:multiply"/><circle cx="95.39" cy="49.99" r="13.77" fill="#cbcdcf" opacity="0.91" style="mix-blend-mode:multiply"/><circle cx="95.4" cy="50" r="13.77" fill="#cccdcf" opacity="0.91" style="mix-blend-mode:multiply"/><circle cx="95.41" cy="50.01" r="13.77" fill="#cccdcf" opacity="0.9" style="mix-blend-mode:multiply"/><circle cx="95.41" cy="50.02" r="13.77" fill="#ccced0" opacity="0.9" style="mix-blend-mode:multiply"/><circle cx="95.42" cy="50.02" r="13.77" fill="#ccced0" opacity="0.89" style="mix-blend-mode:multiply"/><circle cx="95.43" cy="50.03" r="13.77" fill="#cdced0" opacity="0.89" style="mix-blend-mode:multiply"/><circle cx="95.43" cy="50.04" r="13.77" fill="#cdced0" opacity="0.88" style="mix-blend-mode:multiply"/><circle cx="95.44" cy="50.05" r="13.77" fill="#cdcfd1" opacity="0.88" style="mix-blend-mode:multiply"/><circle cx="95.45" cy="50.06" r="13.77" fill="#cdcfd1" opacity="0.87" style="mix-blend-mode:multiply"/><circle cx="95.45" cy="50.06" r="13.77" fill="#cecfd1" opacity="0.87" style="mix-blend-mode:multiply"/><circle cx="95.46" cy="50.07" r="13.77" fill="#ced0d1" opacity="0.86" style="mix-blend-mode:multiply"/><circle cx="95.46" cy="50.08" r="13.77" fill="#ced0d1" opacity="0.86" style="mix-blend-mode:multiply"/><circle cx="95.47" cy="50.09" r="13.77" fill="#ced0d2" opacity="0.85" style="mix-blend-mode:multiply"/><circle cx="95.48" cy="50.1" r="13.77" fill="#cfd0d2" opacity="0.85" style="mix-blend-mode:multiply"/><circle cx="95.48" cy="50.1" r="13.77" fill="#cfd1d2" opacity="0.84" style="mix-blend-mode:multiply"/><circle cx="95.49" cy="50.11" r="13.77" fill="#cfd1d2" opacity="0.84" style="mix-blend-mode:multiply"/><circle cx="95.5" cy="50.12" r="13.77" fill="#d0d1d3" opacity="0.83" style="mix-blend-mode:multiply"/><circle cx="95.5" cy="50.13" r="13.77" fill="#d0d1d3" opacity="0.83" style="mix-blend-mode:multiply"/><circle cx="95.51" cy="50.14" r="13.77" fill="#d0d2d3" opacity="0.82" style="mix-blend-mode:multiply"/><circle cx="95.52" cy="50.14" r="13.77" fill="#d0d2d3" opacity="0.82" style="mix-blend-mode:multiply"/><circle cx="95.52" cy="50.15" r="13.77" fill="#d1d2d4" opacity="0.81" style="mix-blend-mode:multiply"/><circle cx="95.53" cy="50.16" r="13.77" fill="#d1d2d4" opacity="0.81" style="mix-blend-mode:multiply"/><circle cx="95.54" cy="50.17" r="13.77" fill="#d1d3d4" opacity="0.8" style="mix-blend-mode:multiply"/><circle cx="95.54" cy="50.17" r="13.77" fill="#d1d3d4" opacity="0.8" style="mix-blend-mode:multiply"/><circle cx="95.55" cy="50.18" r="13.77" fill="#d2d3d5" opacity="0.79" style="mix-blend-mode:multiply"/><circle cx="95.56" cy="50.19" r="13.77" fill="#d2d3d5" opacity="0.79" style="mix-blend-mode:multiply"/><circle cx="95.56" cy="50.2" r="13.77" fill="#d2d4d5" opacity="0.78" style="mix-blend-mode:multiply"/><circle cx="95.57" cy="50.21" r="13.77" fill="#d2d4d5" opacity="0.78" style="mix-blend-mode:multiply"/><circle cx="95.58" cy="50.21" r="13.77" fill="#d3d4d6" opacity="0.77" style="mix-blend-mode:multiply"/><circle cx="95.58" cy="50.22" r="13.77" fill="#d3d4d6" opacity="0.77" style="mix-blend-mode:multiply"/><circle cx="95.59" cy="50.23" r="13.77" fill="#d3d5d6" opacity="0.76" style="mix-blend-mode:multiply"/><circle cx="95.6" cy="50.24" r="13.77" fill="#d3d5d6" opacity="0.76" style="mix-blend-mode:multiply"/><circle cx="95.6" cy="50.25" r="13.77" fill="#d4d5d7" opacity="0.75" style="mix-blend-mode:multiply"/><circle cx="95.61" cy="50.25" r="13.77" fill="#d4d5d7" opacity="0.75" style="mix-blend-mode:multiply"/><circle cx="95.62" cy="50.26" r="13.77" fill="#d4d6d7" opacity="0.74" style="mix-blend-mode:multiply"/><circle cx="95.62" cy="50.27" r="13.77" fill="#d5d6d7" opacity="0.74" style="mix-blend-mode:multiply"/><circle cx="95.63" cy="50.28" r="13.77" fill="#d5d6d8" opacity="0.73" style="mix-blend-mode:multiply"/><circle cx="95.64" cy="50.29" r="13.77" fill="#d5d6d8" opacity="0.73" style="mix-blend-mode:multiply"/><circle cx="95.64" cy="50.29" r="13.77" fill="#d5d7d8" opacity="0.72" style="mix-blend-mode:multiply"/><circle cx="95.65" cy="50.3" r="13.77" fill="#d6d7d8" opacity="0.72" style="mix-blend-mode:multiply"/><circle cx="95.66" cy="50.31" r="13.77" fill="#d6d7d9" opacity="0.71" style="mix-blend-mode:multiply"/><circle cx="95.66" cy="50.32" r="13.77" fill="#d6d7d9" opacity="0.71" style="mix-blend-mode:multiply"/><circle cx="95.67" cy="50.33" r="13.77" fill="#d6d8d9" opacity="0.7" style="mix-blend-mode:multiply"/><circle cx="95.68" cy="50.33" r="13.77" fill="#d7d8d9" opacity="0.7" style="mix-blend-mode:multiply"/><circle cx="95.68" cy="50.34" r="13.77" fill="#d7d8da" opacity="0.69" style="mix-blend-mode:multiply"/><circle cx="95.69" cy="50.35" r="13.77" fill="#d7d8da" opacity="0.69" style="mix-blend-mode:multiply"/><circle cx="95.69" cy="50.36" r="13.77" fill="#d7d9da" opacity="0.68" style="mix-blend-mode:multiply"/><circle cx="95.7" cy="50.37" r="13.77" fill="#d8d9da" opacity="0.68" style="mix-blend-mode:multiply"/><circle cx="95.71" cy="50.37" r="13.77" fill="#d8d9db" opacity="0.67" style="mix-blend-mode:multiply"/><circle cx="95.71" cy="50.38" r="13.77" fill="#d8d9db" opacity="0.67" style="mix-blend-mode:multiply"/><circle cx="95.72" cy="50.39" r="13.77" fill="#d8dadb" opacity="0.66" style="mix-blend-mode:multiply"/><circle cx="95.73" cy="50.4" r="13.77" fill="#d9dadb" opacity="0.66" style="mix-blend-mode:multiply"/><circle cx="95.73" cy="50.41" r="13.77" fill="#d9dadc" opacity="0.65" style="mix-blend-mode:multiply"/><circle cx="95.74" cy="50.41" r="13.77" fill="#d9dbdc" opacity="0.65" style="mix-blend-mode:multiply"/><circle cx="95.75" cy="50.42" r="13.77" fill="#dadbdc" opacity="0.64" style="mix-blend-mode:multiply"/><circle cx="95.75" cy="50.43" r="13.77" fill="#dadbdc" opacity="0.64" style="mix-blend-mode:multiply"/><circle cx="95.76" cy="50.44" r="13.77" fill="#dadbdd" opacity="0.63" style="mix-blend-mode:multiply"/><circle cx="95.77" cy="50.44" r="13.77" fill="#dadcdd" opacity="0.63" style="mix-blend-mode:multiply"/><circle cx="95.77" cy="50.45" r="13.77" fill="#dbdcdd" opacity="0.62" style="mix-blend-mode:multiply"/><circle cx="95.78" cy="50.46" r="13.77" fill="#dbdcdd" opacity="0.62" style="mix-blend-mode:multiply"/><circle cx="95.79" cy="50.47" r="13.77" fill="#dbdcde" opacity="0.61" style="mix-blend-mode:multiply"/><circle cx="95.79" cy="50.48" r="13.77" fill="#dbddde" opacity="0.61" style="mix-blend-mode:multiply"/><circle cx="95.8" cy="50.48" r="13.77" fill="#dcddde" opacity="0.6" style="mix-blend-mode:multiply"/><circle cx="95.81" cy="50.49" r="13.77" fill="#dcddde" opacity="0.6" style="mix-blend-mode:multiply"/><circle cx="95.81" cy="50.5" r="13.77" fill="#dcdddf" opacity="0.59" style="mix-blend-mode:multiply"/><circle cx="95.82" cy="50.51" r="13.77" fill="#dcdedf" opacity="0.59" style="mix-blend-mode:multiply"/><circle cx="95.83" cy="50.52" r="13.77" fill="#dddedf" opacity="0.58" style="mix-blend-mode:multiply"/><circle cx="95.83" cy="50.52" r="13.77" fill="#dddedf" opacity="0.58" style="mix-blend-mode:multiply"/><circle cx="95.84" cy="50.53" r="13.77" fill="#dddee0" opacity="0.57" style="mix-blend-mode:multiply"/><circle cx="95.85" cy="50.54" r="13.77" fill="#dddfe0" opacity="0.57" style="mix-blend-mode:multiply"/><circle cx="95.85" cy="50.55" r="13.77" fill="#dedfe0" opacity="0.56" style="mix-blend-mode:multiply"/><circle cx="95.86" cy="50.56" r="13.77" fill="#dedfe0" opacity="0.56" style="mix-blend-mode:multiply"/><circle cx="95.87" cy="50.56" r="13.77" fill="#dedfe1" opacity="0.55" style="mix-blend-mode:multiply"/><circle cx="95.87" cy="50.57" r="13.77" fill="#dfe0e1" opacity="0.55" style="mix-blend-mode:multiply"/><circle cx="95.88" cy="50.58" r="13.77" fill="#dfe0e1" opacity="0.54" style="mix-blend-mode:multiply"/><circle cx="95.89" cy="50.59" r="13.77" fill="#dfe0e1" opacity="0.54" style="mix-blend-mode:multiply"/><circle cx="95.89" cy="50.6" r="13.77" fill="#dfe0e2" opacity="0.53" style="mix-blend-mode:multiply"/><circle cx="95.9" cy="50.6" r="13.77" fill="#e0e1e2" opacity="0.53" style="mix-blend-mode:multiply"/><circle cx="95.9" cy="50.61" r="13.77" fill="#e0e1e2" opacity="0.52" style="mix-blend-mode:multiply"/><circle cx="95.91" cy="50.62" r="13.77" fill="#e0e1e2" opacity="0.52" style="mix-blend-mode:multiply"/><circle cx="95.92" cy="50.63" r="13.77" fill="#e0e1e3" opacity="0.51" style="mix-blend-mode:multiply"/><circle cx="95.92" cy="50.63" r="13.77" fill="#e1e2e3" opacity="0.51" style="mix-blend-mode:multiply"/><circle cx="95.93" cy="50.64" r="13.77" fill="#e1e2e3" opacity="0.5" style="mix-blend-mode:multiply"/><circle cx="95.94" cy="50.65" r="13.77" fill="#e1e2e3" opacity="0.5" style="mix-blend-mode:multiply"/><circle cx="95.94" cy="50.66" r="13.77" fill="#e1e2e4" opacity="0.49" style="mix-blend-mode:multiply"/><circle cx="95.95" cy="50.67" r="13.77" fill="#e2e3e4" opacity="0.49" style="mix-blend-mode:multiply"/><circle cx="95.96" cy="50.67" r="13.77" fill="#e2e3e4" opacity="0.48" style="mix-blend-mode:multiply"/><circle cx="95.96" cy="50.68" r="13.77" fill="#e2e3e4" opacity="0.48" style="mix-blend-mode:multiply"/><circle cx="95.97" cy="50.69" r="13.77" fill="#e2e3e4" opacity="0.47" style="mix-blend-mode:multiply"/><circle cx="95.98" cy="50.7" r="13.77" fill="#e3e4e5" opacity="0.47" style="mix-blend-mode:multiply"/><circle cx="95.98" cy="50.71" r="13.77" fill="#e3e4e5" opacity="0.46" style="mix-blend-mode:multiply"/><circle cx="95.99" cy="50.71" r="13.77" fill="#e3e4e5" opacity="0.46" style="mix-blend-mode:multiply"/><circle cx="96" cy="50.72" r="13.77" fill="#e3e4e5" opacity="0.45" style="mix-blend-mode:multiply"/><circle cx="96" cy="50.73" r="13.77" fill="#e4e5e6" opacity="0.45" style="mix-blend-mode:multiply"/><circle cx="96.01" cy="50.74" r="13.77" fill="#e4e5e6" opacity="0.44" style="mix-blend-mode:multiply"/><circle cx="96.02" cy="50.75" r="13.77" fill="#e4e5e6" opacity="0.44" style="mix-blend-mode:multiply"/><circle cx="96.02" cy="50.75" r="13.77" fill="#e5e5e6" opacity="0.43" style="mix-blend-mode:multiply"/><circle cx="96.03" cy="50.76" r="13.77" fill="#e5e6e7" opacity="0.43" style="mix-blend-mode:multiply"/><circle cx="96.04" cy="50.77" r="13.77" fill="#e5e6e7" opacity="0.42" style="mix-blend-mode:multiply"/><circle cx="96.04" cy="50.78" r="13.77" fill="#e5e6e7" opacity="0.42" style="mix-blend-mode:multiply"/><circle cx="96.05" cy="50.79" r="13.77" fill="#e6e6e7" opacity="0.41" style="mix-blend-mode:multiply"/><circle cx="96.06" cy="50.79" r="13.77" fill="#e6e7e8" opacity="0.41" style="mix-blend-mode:multiply"/><circle cx="96.06" cy="50.8" r="13.77" fill="#e6e7e8" opacity="0.4" style="mix-blend-mode:multiply"/><circle cx="96.07" cy="50.81" r="13.77" fill="#e6e7e8" opacity="0.4" style="mix-blend-mode:multiply"/><circle cx="96.08" cy="50.82" r="13.77" fill="#e7e8e8" opacity="0.39" style="mix-blend-mode:multiply"/><circle cx="96.08" cy="50.83" r="13.77" fill="#e7e8e9" opacity="0.39" style="mix-blend-mode:multiply"/><circle cx="96.09" cy="50.83" r="13.77" fill="#e7e8e9" opacity="0.38" style="mix-blend-mode:multiply"/><circle cx="96.1" cy="50.84" r="13.77" fill="#e8e8e9" opacity="0.38" style="mix-blend-mode:multiply"/><circle cx="96.1" cy="50.85" r="13.77" fill="#e8e9e9" opacity="0.37" style="mix-blend-mode:multiply"/><circle cx="96.11" cy="50.86" r="13.77" fill="#e8e9ea" opacity="0.37" style="mix-blend-mode:multiply"/><circle cx="96.12" cy="50.86" r="13.77" fill="#e8e9ea" opacity="0.36" style="mix-blend-mode:multiply"/><circle cx="96.12" cy="50.87" r="13.77" fill="#e9e9ea" opacity="0.36" style="mix-blend-mode:multiply"/><circle cx="96.13" cy="50.88" r="13.77" fill="#e9eaeb" opacity="0.35" style="mix-blend-mode:multiply"/><circle cx="96.13" cy="50.89" r="13.77" fill="#e9eaeb" opacity="0.35" style="mix-blend-mode:multiply"/><circle cx="96.14" cy="50.9" r="13.77" fill="#eaeaeb" opacity="0.34" style="mix-blend-mode:multiply"/><circle cx="96.15" cy="50.9" r="13.77" fill="#eaebeb" opacity="0.34" style="mix-blend-mode:multiply"/><circle cx="96.15" cy="50.91" r="13.77" fill="#eaebec" opacity="0.33" style="mix-blend-mode:multiply"/><circle cx="96.16" cy="50.92" r="13.77" fill="#eaebec" opacity="0.33" style="mix-blend-mode:multiply"/><circle cx="96.17" cy="50.93" r="13.77" fill="#ebebec" opacity="0.32" style="mix-blend-mode:multiply"/><circle cx="96.17" cy="50.94" r="13.77" fill="#ebecec" opacity="0.32" style="mix-blend-mode:multiply"/><circle cx="96.18" cy="50.94" r="13.77" fill="#ebeced" opacity="0.31" style="mix-blend-mode:multiply"/><circle cx="96.19" cy="50.95" r="13.77" fill="#ebeced" opacity="0.31" style="mix-blend-mode:multiply"/><circle cx="96.19" cy="50.96" r="13.77" fill="#ececed" opacity="0.3" style="mix-blend-mode:multiply"/><circle cx="96.2" cy="50.97" r="13.77" fill="#ececed" opacity="0.3" style="mix-blend-mode:multiply"/><circle cx="96.21" cy="50.98" r="13.77" fill="#eceded" opacity="0.29" style="mix-blend-mode:multiply"/><circle cx="96.21" cy="50.98" r="13.77" fill="#ecedee" opacity="0.29" style="mix-blend-mode:multiply"/><circle cx="96.22" cy="50.99" r="13.77" fill="#ededee" opacity="0.28" style="mix-blend-mode:multiply"/><circle cx="96.23" cy="51" r="13.77" fill="#edeeee" opacity="0.28" style="mix-blend-mode:multiply"/><circle cx="96.23" cy="51.01" r="13.77" fill="#edeeee" opacity="0.27" style="mix-blend-mode:multiply"/><circle cx="96.24" cy="51.02" r="13.77" fill="#edeeef" opacity="0.27" style="mix-blend-mode:multiply"/><circle cx="96.25" cy="51.02" r="13.77" fill="#eeeeef" opacity="0.26" style="mix-blend-mode:multiply"/><circle cx="96.25" cy="51.03" r="13.77" fill="#eeefef" opacity="0.26" style="mix-blend-mode:multiply"/><circle cx="96.26" cy="51.04" r="13.77" fill="#eeefef" opacity="0.25" style="mix-blend-mode:multiply"/><circle cx="96.27" cy="51.05" r="13.77" fill="#eeeff0" opacity="0.25" style="mix-blend-mode:multiply"/><circle cx="96.27" cy="51.06" r="13.77" fill="#efeff0" opacity="0.24" style="mix-blend-mode:multiply"/><circle cx="96.28" cy="51.06" r="13.77" fill="#eff0f0" opacity="0.24" style="mix-blend-mode:multiply"/><circle cx="96.29" cy="51.07" r="13.77" fill="#eff0f0" opacity="0.23" style="mix-blend-mode:multiply"/><circle cx="96.29" cy="51.08" r="13.77" fill="#f0f0f1" opacity="0.23" style="mix-blend-mode:multiply"/><circle cx="96.3" cy="51.09" r="13.77" fill="#f0f0f1" opacity="0.22" style="mix-blend-mode:multiply"/><circle cx="96.31" cy="51.09" r="13.77" fill="#f0f1f1" opacity="0.22" style="mix-blend-mode:multiply"/><circle cx="96.31" cy="51.1" r="13.77" fill="#f0f1f1" opacity="0.21" style="mix-blend-mode:multiply"/><circle cx="96.32" cy="51.11" r="13.77" fill="#f1f1f2" opacity="0.21" style="mix-blend-mode:multiply"/><circle cx="96.33" cy="51.12" r="13.77" fill="#f1f1f2" opacity="0.2" style="mix-blend-mode:multiply"/><circle cx="96.33" cy="51.13" r="13.77" fill="#f1f2f2" opacity="0.2" style="mix-blend-mode:multiply"/><circle cx="96.34" cy="51.13" r="13.77" fill="#f1f2f2" opacity="0.19" style="mix-blend-mode:multiply"/><circle cx="96.34" cy="51.14" r="13.77" fill="#f2f2f3" opacity="0.19" style="mix-blend-mode:multiply"/><circle cx="96.35" cy="51.15" r="13.77" fill="#f2f2f3" opacity="0.18" style="mix-blend-mode:multiply"/><circle cx="96.36" cy="51.16" r="13.77" fill="#f2f3f3" opacity="0.18" style="mix-blend-mode:multiply"/><circle cx="96.37" cy="51.17" r="13.77" fill="#f2f3f3" opacity="0.17" style="mix-blend-mode:multiply"/><circle cx="96.37" cy="51.17" r="13.77" fill="#f3f3f4" opacity="0.17" style="mix-blend-mode:multiply"/><circle cx="96.38" cy="51.18" r="13.77" fill="#f3f3f4" opacity="0.16" style="mix-blend-mode:multiply"/><circle cx="96.38" cy="51.19" r="13.77" fill="#f3f4f4" opacity="0.16" style="mix-blend-mode:multiply"/><circle cx="96.39" cy="51.2" r="13.77" fill="#f4f4f4" opacity="0.15" style="mix-blend-mode:multiply"/><circle cx="96.4" cy="51.21" r="13.77" fill="#f4f4f5" opacity="0.15" style="mix-blend-mode:multiply"/><circle cx="96.4" cy="51.21" r="13.77" fill="#f4f4f5" opacity="0.14" style="mix-blend-mode:multiply"/><circle cx="96.41" cy="51.22" r="13.77" fill="#f4f5f5" opacity="0.14" style="mix-blend-mode:multiply"/><circle cx="96.42" cy="51.23" r="13.77" fill="#f5f5f5" opacity="0.13" style="mix-blend-mode:multiply"/><circle cx="96.42" cy="51.24" r="13.77" fill="#f5f5f6" opacity="0.13" style="mix-blend-mode:multiply"/><circle cx="96.43" cy="51.25" r="13.77" fill="#f5f6f6" opacity="0.12" style="mix-blend-mode:multiply"/><circle cx="96.44" cy="51.25" r="13.77" fill="#f6f6f6" opacity="0.12" style="mix-blend-mode:multiply"/><circle cx="96.44" cy="51.26" r="13.77" fill="#f6f6f7" opacity="0.11" style="mix-blend-mode:multiply"/><circle cx="96.45" cy="51.27" r="13.77" fill="#f6f6f7" opacity="0.11" style="mix-blend-mode:multiply"/><circle cx="96.46" cy="51.28" r="13.77" fill="#f6f7f7" opacity="0.1" style="mix-blend-mode:multiply"/><circle cx="96.46" cy="51.28" r="13.77" fill="#f7f7f7" opacity="0.1" style="mix-blend-mode:multiply"/><circle cx="96.47" cy="51.29" r="13.77" fill="#f7f7f8" opacity="0.09" style="mix-blend-mode:multiply"/><circle cx="96.48" cy="51.3" r="13.77" fill="#f7f8f8" opacity="0.09" style="mix-blend-mode:multiply"/><circle cx="96.48" cy="51.31" r="13.77" fill="#f8f8f8" opacity="0.08" style="mix-blend-mode:multiply"/><circle cx="96.49" cy="51.32" r="13.77" fill="#f8f8f9" opacity="0.08" style="mix-blend-mode:multiply"/><circle cx="96.5" cy="51.32" r="13.77" fill="#f8f9f9" opacity="0.07" style="mix-blend-mode:multiply"/><circle cx="96.5" cy="51.33" r="13.77" fill="#f9f9f9" opacity="0.07" style="mix-blend-mode:multiply"/><circle cx="96.51" cy="51.34" r="13.77" fill="#f9f9f9" opacity="0.06" style="mix-blend-mode:multiply"/><circle cx="96.52" cy="51.35" r="13.77" fill="#f9fafa" opacity="0.06" style="mix-blend-mode:multiply"/><circle cx="96.52" cy="51.36" r="13.77" fill="#fafafa" opacity="0.05" style="mix-blend-mode:multiply"/><circle cx="96.53" cy="51.36" r="13.77" fill="#fafafa" opacity="0.05" style="mix-blend-mode:multiply"/><circle cx="96.54" cy="51.37" r="13.77" fill="#fbfbfb" opacity="0.04" style="mix-blend-mode:multiply"/><circle cx="96.54" cy="51.38" r="13.77" fill="#fbfbfb" opacity="0.04" style="mix-blend-mode:multiply"/><circle cx="96.55" cy="51.39" r="13.77" fill="#fbfcfc" opacity="0.03" style="mix-blend-mode:multiply"/><circle cx="96.56" cy="51.4" r="13.77" fill="#fcfcfc" opacity="0.03" style="mix-blend-mode:multiply"/><circle cx="96.56" cy="51.4" r="13.77" fill="#fcfcfd" opacity="0.02" style="mix-blend-mode:multiply"/><circle cx="96.57" cy="51.41" r="13.77" fill="#fdfdfd" opacity="0.02" style="mix-blend-mode:multiply"/><circle cx="96.58" cy="51.42" r="13.77" fill="#fdfdfd" opacity="0.01" style="mix-blend-mode:multiply"/><circle cx="96.58" cy="51.43" r="13.77" fill="#fefefe" opacity="0.01" style="mix-blend-mode:multiply"/><circle cx="96.59" cy="51.44" r="13.77" fill="#fefefe" opacity="0" style="mix-blend-mode:multiply"/><circle cx="96.59" cy="51.44" r="13.77" fill="#fff" opacity="0" style="mix-blend-mode:multiply"/></g></g><path d="M170.59,36c0-.45-.31-.7-.86-.7H169v2.27h.54v-.88l.64.88h.66l-.75-.94A.62.62,0,0,0,170.59,36Zm-1,.31h-.09V35.7h.1c.27,0,.41.1.41.29S169.91,36.29,169.64,36.29Z" fill="#231f20"/><path d="M169.84,34.43a2,2,0,1,0,2,2A2,2,0,0,0,169.84,34.43Zm0,3.61a1.63,1.63,0,1,1,1.57-1.63A1.6,1.6,0,0,1,169.83,38Z" fill="#231f20"/></g></g></g></svg>