<svg xmlns="http://www.w3.org/2000/svg" viewBox="0 0 419.87 333.3"><title>card-diners</title><g id="Layer_2" data-name="Layer 2"><g id="Layer_1-2" data-name="Layer 1"><g id="diners"><path id="Shape-path" d="M419.87,168.1C419.87,68.68,336.89,0,246,0H167.73C75.73,0,0,68.71,0,168.1,0,259,75.73,333.74,167.73,333.3H246c90.91.44,173.9-74.29,173.9-165.2Z" fill="#0079be"/><path id="Shape-path-2" data-name="Shape-path" d="M168.21,14.09C84.14,14.11,16,82.39,16,166.67S84.14,319.2,168.21,319.22s152.23-68.3,152.24-152.56S252.3,14.11,168.21,14.09Z" fill="#fff"/><path id="Path" d="M72,166.25A96.85,96.85,0,0,1,133.94,76V256.48A96.81,96.81,0,0,1,72,166.25Zm131,90.27V76a96.71,96.71,0,0,1,0,180.52Z" fill="#0079be"/></g></g></g></svg>