<svg xmlns="http://www.w3.org/2000/svg" viewBox="0 0 159.2 101.1"><title>card-visa</title><g id="Layer_2" data-name="Layer 2"><g id="Layer_1-2" data-name="Layer 1"><rect width="159.2" height="101.1" fill="#fff"/><rect x="2.6" y="84.7" width="153.9" height="13.8" fill="#f7b600"/><rect x="2.6" y="2.7" width="153.9" height="13.8" fill="#1a1f71"/><path d="M64.2,31.7,48.3,69.6H37.9L30.1,39.3c-.5-1.9-.9-2.5-2.3-3.3a39.42,39.42,0,0,0-9.7-3.2l.2-1.1H35a4.57,4.57,0,0,1,4.5,3.9l4.1,21.9L53.8,31.7Zm40.7,25.5c0-10-13.8-10.6-13.7-15,0-1.4,1.3-2.8,4.2-3.2a18.69,18.69,0,0,1,9.7,1.7l1.7-8A25.58,25.58,0,0,0,97.6,31C87.9,31,81.1,36.2,81,43.5c-.1,5.5,4.9,8.5,8.6,10.3s5.1,3.1,5.1,4.7c0,2.5-3.1,3.7-5.9,3.7a20.12,20.12,0,0,1-10.1-2.4l-1.8,8.3a27.86,27.86,0,0,0,10.9,2c10.3.1,17-5,17.1-12.9m25.6,12.4h9.1l-7.9-37.9h-8.4a4.47,4.47,0,0,0-4.2,2.8L104.3,69.6h10.3l2-5.7h12.6Zm-11-13.4L124.7,42l3,14.2ZM78.2,31.7,70.1,69.6H60.3l8.1-37.9Z" fill="#1a1f71"/></g></g></svg>