<svg xmlns="http://www.w3.org/2000/svg" viewBox="0 0 61.1 50.81"><title>delegation</title><g id="Layer_2" data-name="Layer 2"><g id="Layer_1-2" data-name="Layer 1"><path d="M61.1,45.51c-3.1-6.5-7.8-7.8-7.8-7.8s-7.8-2.3-7.8-5.2v-1.6a14.21,14.21,0,0,0,2.5-4.7c0-.3.3-.4.5-.6a3.15,3.15,0,0,0,.4-3.9c-.1-.2-.3-.3-.3-.6v-4.6a7.35,7.35,0,0,0-1.9-5.1,6.8,6.8,0,0,0-4-2.1,13.69,13.69,0,0,0-5.7.1,7.21,7.21,0,0,0-4,2.7,7.54,7.54,0,0,0-1.2,4.1v4.7c0,.3-.2.5-.4.8a3.19,3.19,0,0,0,.7,3.9,1.27,1.27,0,0,1,.4.9,14.4,14.4,0,0,0,2.3,4.2v1.7a2.35,2.35,0,0,1-.2.8,5.31,5.31,0,0,1,1.1.9s9.3,10.4,9.9,11.2a1.5,1.5,0,0,1,.4,1.6,1.79,1.79,0,0,1-1.4,1l-12.2,2c-1,.2-2,.3-3,.5a2.09,2.09,0,0,1-1.4-.3,1.85,1.85,0,0,1-.7-1.8c.1-.3.9-2,1-2.2a24.63,24.63,0,0,1-6.8-4.3,19.15,19.15,0,0,0-2.4,3.8v2.6a2.65,2.65,0,0,0,2.6,2.6H58.2a2.85,2.85,0,0,0,2.9-2.6Z" fill="#00adef"/><path d="M18.3,24a1.27,1.27,0,0,1,1.2,0,4.37,4.37,0,0,1,1.2,2.2c1.2,3.4,3.3,5.5,7.1,8.1,1.9-.8,4.2-2.1,4.5-2.7v-1a14.09,14.09,0,0,1-2.2-4.2v-.1A4.18,4.18,0,0,1,29,24.8c-1.7-.6-6.2-2.3-6.2-4.3V19.1A12.5,12.5,0,0,0,25,15c0-.3.3-.4.4-.5a2.87,2.87,0,0,0,.4-3.4c-.1-.2-.3-.3-.2-.5v-4A7.49,7.49,0,0,0,24,2.11,6.35,6.35,0,0,0,20.5.21a12.07,12.07,0,0,0-5,.1,6,6,0,0,0-3.6,2.4,6.53,6.53,0,0,0-1,3.6v4.1a1.49,1.49,0,0,1-.3.7,2.72,2.72,0,0,0,.6,3.4,2,2,0,0,1,.4.8,9.81,9.81,0,0,0,2,3.6v1.5c0,2.5-6.8,4.6-6.8,4.6s-4.1,1.1-6.8,6.8v2.3a2.26,2.26,0,0,0,2.22,2.3H17.8a17.43,17.43,0,0,1-1.1-4.5C16,27,17.9,24.31,18.3,24Z" fill="#00adef"/><path d="M31.5,36.51c.2.1.3.1.5.2,0-.1.9-2.3,1.3-3.2a15.81,15.81,0,0,1-4.1,2.1A9.17,9.17,0,0,0,31.5,36.51Z"/><path d="M28.9,48.81c0,.1,0,.3.1.3s.4.1.6.1c1.3-.2,14.9-2.4,15-2.4a.28.28,0,0,0,.2-.5c-1-1.1-7.5-8.3-9.8-10.8,0,0-.7-1-1-.2-.4,1-.6,1.6-1.1,3.1a37.1,37.1,0,0,1-6.8-3.3c-3.2-2.3-5.4-4.7-6.4-7.5-.2-.5-.2-1-.4-1.6-.2-.8-.7-.3-.7-.2a13.32,13.32,0,0,0-.4,6.9A18.68,18.68,0,0,0,21.5,40,20.73,20.73,0,0,0,29,45.1c.4.2.8.3,1.2.5A30.9,30.9,0,0,0,28.9,48.81Z" fill="#00adef"/><path d="M29.7,50.71h-.1a2.23,2.23,0,0,1-1.3-.3,1.71,1.71,0,0,1-.9-1.6v-.2l.1-.2c.1-.2.3-.7.6-1.4.1-.2.1-.4.2-.5a23,23,0,0,1-7.9-5.4l-.1-.1a21,21,0,0,1-3.6-8,14.51,14.51,0,0,1,.5-7.6,2,2,0,0,1,1.6-1.3,1.79,1.79,0,0,1,2,1.5,5.07,5.07,0,0,1,.2.9,4.33,4.33,0,0,0,.1.5c.9,2.4,2.7,4.6,5.9,6.8a46.61,46.61,0,0,0,5,2.6,12.2,12.2,0,0,1,.7-1.7,1.74,1.74,0,0,1,1.5-1.2,2.65,2.65,0,0,1,2.1,1c1.7,1.9,5.6,6.2,8,8.8l1.8,2a1.75,1.75,0,0,1-1.1,3c-.6.1-5,.8-8.5,1.4-3,.5-5.8.9-6.4,1Zm-.1-1.9Zm-.7,0ZM22.6,39a19.58,19.58,0,0,0,6.9,4.7h.1c.2.1.3.1.5.2s.5.2.7.3l1.2.6-.5,1.3c-.1.3-.3.8-.5,1.3,1.2-.2,2.9-.5,4.7-.7l6.5-1-.3-.3c-2-2.2-5.2-5.7-7.1-7.9-.1.4-.3.8-.5,1.4l-.4,1.4-1.4-.4a33.1,33.1,0,0,1-7.2-3.5,21.2,21.2,0,0,1-5.8-5.8,13.66,13.66,0,0,0,.2,1.9A16.66,16.66,0,0,0,22.6,39Zm21,8.2C43.6,47.3,43.7,47.3,43.6,47.2Z" fill="#fff"/></g></g></svg>