<svg xmlns="http://www.w3.org/2000/svg" viewBox="0 0 275.55 264.11"><title>error-page</title><g id="Layer_2" data-name="Layer 2"><g id="Layer_1-2" data-name="Layer 1"><g id="_Group_" data-name="&lt;Group&gt;"><g id="_Group_2" data-name="&lt;Group&gt;"><g id="_Group_3" data-name="&lt;Group&gt;"><g id="_Group_4" data-name="&lt;Group&gt;"><path id="_Path_" data-name="&lt;Path&gt;" d="M156.68,181.7a1.83,1.83,0,0,1-1.83-1.83v-5.48a1.83,1.83,0,0,1,3.65,0v5.48A1.83,1.83,0,0,1,156.68,181.7Z" fill="#be1e2d"/></g><g id="_Group_5" data-name="&lt;Group&gt;"><path id="_Path_2" data-name="&lt;Path&gt;" d="M156.68,195.17a1.83,1.83,0,0,1-1.83-1.83v-6.73a1.83,1.83,0,0,1,3.65,0v6.73A1.83,1.83,0,0,1,156.68,195.17Z" fill="#be1e2d"/></g><g id="_Group_6" data-name="&lt;Group&gt;"><path id="_Path_3" data-name="&lt;Path&gt;" d="M162.16,207.38h-5.48a1.83,1.83,0,0,1-1.83-1.83v-5.48a1.83,1.83,0,0,1,3.65,0v3.65h3.65a1.83,1.83,0,0,1,0,3.65Z" fill="#be1e2d"/></g><g id="_Group_7" data-name="&lt;Group&gt;"><path id="_Path_4" data-name="&lt;Path&gt;" d="M182,207.38h-9.9a1.83,1.83,0,1,1,0-3.65H182a1.83,1.83,0,1,1,0,3.65Z" fill="#be1e2d"/></g><g id="_Group_8" data-name="&lt;Group&gt;"><path id="_Path_5" data-name="&lt;Path&gt;" d="M197.33,207.38h-5.48a1.83,1.83,0,0,1,0-3.65h5.48a1.83,1.83,0,0,1,0,3.65Z" fill="#be1e2d"/></g></g><g id="_Group_9" data-name="&lt;Group&gt;"><g id="_Group_10" data-name="&lt;Group&gt;"><path id="_Path_6" data-name="&lt;Path&gt;" d="M138.41,181.7a1.83,1.83,0,0,1-1.83-1.83v-5.48a1.83,1.83,0,1,1,3.65,0v5.48A1.83,1.83,0,0,1,138.41,181.7Z" fill="#be1e2d"/></g><g id="_Group_11" data-name="&lt;Group&gt;"><path id="_Compound_Path_" data-name="&lt;Compound Path&gt;" d="M138.41,241.39a1.83,1.83,0,0,1-1.83-1.83v-9.95a1.83,1.83,0,1,1,3.65,0v9.95A1.83,1.83,0,0,1,138.41,241.39Zm0-19.9a1.83,1.83,0,0,1-1.83-1.83v-9.95a1.83,1.83,0,0,1,3.65,0v9.95A1.83,1.83,0,0,1,138.41,221.49Zm0-19.9a1.83,1.83,0,0,1-1.83-1.83v-9.95a1.83,1.83,0,1,1,3.65,0v9.95A1.83,1.83,0,0,1,138.41,201.6Z" fill="#be1e2d"/></g><g id="_Group_12" data-name="&lt;Group&gt;"><path id="_Path_7" data-name="&lt;Path&gt;" d="M138.41,256.82a1.83,1.83,0,0,1-1.83-1.83v-5.48a1.83,1.83,0,0,1,3.65,0V255A1.83,1.83,0,0,1,138.41,256.82Z" fill="#be1e2d"/></g></g><g id="_Group_13" data-name="&lt;Group&gt;"><g id="_Group_14" data-name="&lt;Group&gt;"><path id="_Path_8" data-name="&lt;Path&gt;" d="M120.14,181.7a1.83,1.83,0,0,1-1.83-1.83v-5.48a1.83,1.83,0,1,1,3.65,0v5.48A1.83,1.83,0,0,1,120.14,181.7Z" fill="#be1e2d"/></g><g id="_Group_15" data-name="&lt;Group&gt;"><path id="_Compound_Path_2" data-name="&lt;Compound Path&gt;" d="M120.14,217.37a1.83,1.83,0,0,1-1.83-1.83v-8.92a1.83,1.83,0,1,1,3.65,0v8.92A1.83,1.83,0,0,1,120.14,217.37Zm0-17.84a1.83,1.83,0,0,1-1.83-1.83v-8.92a1.83,1.83,0,1,1,3.65,0v8.92A1.83,1.83,0,0,1,120.14,199.54Z" fill="#be1e2d"/></g><g id="_Group_16" data-name="&lt;Group&gt;"><path id="_Path_9" data-name="&lt;Path&gt;" d="M120.14,231.77h-5.48a1.83,1.83,0,1,1,0-3.65h3.65v-3.65a1.83,1.83,0,1,1,3.65,0v5.48A1.83,1.83,0,0,1,120.14,231.77Z" fill="#be1e2d"/></g><g id="_Group_17" data-name="&lt;Group&gt;"><path id="_Path_10" data-name="&lt;Path&gt;" d="M103.74,231.77H92.81a1.83,1.83,0,1,1,0-3.65h10.93a1.83,1.83,0,0,1,0,3.65Z" fill="#be1e2d"/></g><g id="_Group_18" data-name="&lt;Group&gt;"><path id="_Path_11" data-name="&lt;Path&gt;" d="M81.88,231.77H76.4a1.83,1.83,0,1,1,0-3.65h5.48a1.83,1.83,0,1,1,0,3.65Z" fill="#be1e2d"/></g></g><g id="_Group_19" data-name="&lt;Group&gt;"><g id="_Group_20" data-name="&lt;Group&gt;"><path id="_Compound_Path_3" data-name="&lt;Compound Path&gt;" d="M211.27,198.92l-6.67,6.67L211,212a1.38,1.38,0,0,1,0,2h0a1.38,1.38,0,0,1-2,0l-6.38-6.38-6.73,6.73a1.38,1.38,0,0,1-2,0l-.13-.13a1.38,1.38,0,0,1,0-2l6.73-6.73-6.37-6.37a1.38,1.38,0,0,1,0-2h0a1.38,1.38,0,0,1,2,0l6.37,6.37,6.67-6.67a1.38,1.38,0,0,1,2,0l.13.13A1.38,1.38,0,0,1,211.27,198.92Z" fill="#be1e2d"/></g></g><g id="_Group_21" data-name="&lt;Group&gt;"><g id="_Group_22" data-name="&lt;Group&gt;"><path id="_Compound_Path_4" data-name="&lt;Compound Path&gt;" d="M147.13,248.36,140.46,255l6.38,6.38a1.38,1.38,0,0,1,0,2h0a1.38,1.38,0,0,1-2,0L138.51,257l-6.73,6.73a1.38,1.38,0,0,1-2,0l-.13-.13a1.38,1.38,0,0,1,0-2l6.73-6.73-6.37-6.37a1.38,1.38,0,0,1,0-2h0a1.38,1.38,0,0,1,2,0l6.37,6.37,6.67-6.67a1.38,1.38,0,0,1,2,0l.13.13A1.38,1.38,0,0,1,147.13,248.36Z" fill="#be1e2d"/></g></g><g id="_Group_23" data-name="&lt;Group&gt;"><g id="_Group_24" data-name="&lt;Group&gt;"><path id="_Compound_Path_5" data-name="&lt;Compound Path&gt;" d="M85.12,223.31,78.45,230l6.38,6.38a1.38,1.38,0,0,1,0,2h0a1.38,1.38,0,0,1-2,0l-6.38-6.38-6.73,6.73a1.38,1.38,0,0,1-2,0l-.13-.13a1.38,1.38,0,0,1,0-2l6.73-6.73L68,223.48a1.38,1.38,0,0,1,0-2h0a1.38,1.38,0,0,1,2,0l6.37,6.37L83,221.23a1.38,1.38,0,0,1,2,0l.13.13A1.38,1.38,0,0,1,85.12,223.31Z" fill="#be1e2d"/></g></g></g><g id="_Group_25" data-name="&lt;Group&gt;"><g id="_Group_26" data-name="&lt;Group&gt;"><path id="_Compound_Path_6" data-name="&lt;Compound Path&gt;" d="M63.4,176.43a63.4,63.4,0,0,1-1-126.8,88.18,88.18,0,0,1,166.49,25,51,51,0,0,1-3.21,101.78l-.5,0Zm0-117.28a53.88,53.88,0,1,0,0,107.76H224.82l.34,0A41.47,41.47,0,0,0,224.72,84,4.76,4.76,0,0,1,220,79.7,78.69,78.69,0,0,0,69.82,56.36a4.77,4.77,0,0,1-4.36,2.83H65C64.48,59.16,63.94,59.14,63.4,59.14Z" fill="#414042"/></g><g id="_Group_27" data-name="&lt;Group&gt;"><g id="_Group_28" data-name="&lt;Group&gt;"><circle id="_Path_12" data-name="&lt;Path&gt;" cx="108.14" cy="97.1" r="6.73" fill="#414042"/></g><g id="_Group_29" data-name="&lt;Group&gt;"><circle id="_Path_13" data-name="&lt;Path&gt;" cx="169.45" cy="97.1" r="6.73" fill="#414042"/></g></g><g id="_Group_30" data-name="&lt;Group&gt;"><path id="_Path_14" data-name="&lt;Path&gt;" d="M170.83,141a2.7,2.7,0,0,1-1.86-.74,43.8,43.8,0,0,0-60.35,0,2.71,2.71,0,0,1-3.73-3.93,49.21,49.21,0,0,1,67.8,0,2.71,2.71,0,0,1-1.86,4.67Z" fill="#414042"/></g></g></g></g></g></svg>