<svg xmlns="http://www.w3.org/2000/svg" viewBox="0 0 96.3 112.25"><title>file</title><g id="Layer_2" data-name="Layer 2"><g id="Layer_1-2" data-name="Layer 1"><path d="M88.25,104.2V40.09H62.2a5.89,5.89,0,0,1-4.32-1.8,5.8,5.8,0,0,1-1.69-4.2V8H8V104.2Zm-24-95.68V32.05H87.77a7.73,7.73,0,0,0-1.44-2.52L66.76,9.84A7.91,7.91,0,0,0,64.24,8.52ZM92,23.77a14.28,14.28,0,0,1,3,4.81,14.71,14.71,0,0,1,1.32,5.52v72.15a6.15,6.15,0,0,1-6,6H6a5.82,5.82,0,0,1-4.2-1.8A5.47,5.47,0,0,1,0,106.24V6A5.45,5.45,0,0,1,1.8,1.8,5.45,5.45,0,0,1,6,0H62.2a12.72,12.72,0,0,1,5.52,1.32,12.11,12.11,0,0,1,4.69,3Z"/></g></g></svg>