<svg xmlns="http://www.w3.org/2000/svg" viewbox="0 0 20 20"
    preserveAspectRatio="xMinYMid"><title>filter-settings</title><g id="Layer_2" data-name="Layer 2"><g id="Layer_1-2" data-name="Layer 1"><path d="M9,7a2,2,0,1,0,2,2A2,2,0,0,0,9,7Zm7-7H2A2,2,0,0,0,0,2V16a2,2,0,0,0,2,2H16a2,2,0,0,0,2-2V2A2,2,0,0,0,16,0ZM14.25,9a5.06,5.06,0,0,1,0,.68l1.48,1.16a.35.35,0,0,1,.08.45l-1.4,2.42a.35.35,0,0,1-.43.15l-1.74-.7a5.36,5.36,0,0,1-1.18.69l-.26,1.85a.36.36,0,0,1-.35.3H7.6a.36.36,0,0,1-.35-.29L7,13.86a5.14,5.14,0,0,1-1.18-.69l-1.74.7a.35.35,0,0,1-.43-.15L2.24,11.3a.35.35,0,0,1,.08-.45L3.8,9.69A5.34,5.34,0,0,1,3.75,9a5.06,5.06,0,0,1,.05-.68L2.32,7.16a.35.35,0,0,1-.08-.45l1.4-2.42a.35.35,0,0,1,.43-.15l1.74.7A5.36,5.36,0,0,1,7,4.15L7.25,2.3A.36.36,0,0,1,7.6,2h2.8a.36.36,0,0,1,.35.29L11,4.14a5.14,5.14,0,0,1,1.18.69l1.74-.7a.35.35,0,0,1,.43.15l1.4,2.42a.35.35,0,0,1-.08.45L14.2,8.31A5.34,5.34,0,0,1,14.25,9Z" fill="#6d6e71"/></g></g></svg>