<?xml version="1.0" encoding="utf-8"?>
<!-- Generator: Adobe Illustrator 21.0.2, SVG Export Plug-In . SVG Version: 6.00 Build 0)  -->
<svg version="1.1" id="Layer_1" xmlns="http://www.w3.org/2000/svg" xmlns:xlink="http://www.w3.org/1999/xlink" x="0px" y="0px"
	 viewBox="0 0 60 47.4" style="enable-background:new 0 0 60 47.4;" xml:space="preserve" preserveAspectRatio="xMinYMid">
<style type="text/css">
	.st0{fill:#6D6E71;}
</style>
<title>filter-vault</title>
<g id="Layer_2">
	<g id="Layer_1-2">
		<g id="_Group_">
			<path id="_Compound_Path_" class="st0" d="M22.9,20.3c-1.8,1.8-1.8,4.8,0,6.7c1.8,1.8,4.8,1.8,6.7,0s1.8-4.8,0-6.7l0,0
				C27.7,18.5,24.7,18.5,22.9,20.3z M27.6,25.1c-0.8,0.8-2,0.8-2.8,0s-0.8-2,0-2.8s2-0.8,2.8,0l0,0C28.4,23,28.4,24.3,27.6,25.1z"/>
			<path id="_Compound_Path_2" class="st0" d="M57,0H7.3c-1.1,0-2,0.9-2,2v7.5H1c-0.6,0-1,0.4-1,1v8.1c0,0.6,0.4,1,1,1h4.3v8.2H1
				c-0.6,0-1,0.4-1,1v8.1c0,0.6,0.4,1,1,1h4.3v7.5c0,1.1,0.9,2,2,2H57c1.1,0,2-0.9,2-2V2C59,0.9,58.1,0,57,0z M33.6,28.3l6.3,6.3
				c0.7,0.8,0.6,2.1-0.2,2.8c-0.7,0.6-1.9,0.6-2.6,0l-6.3-6.3c-2.8,1.7-6.3,1.7-9.1,0l-6.3,6.3c-0.8,0.7-2.1,0.6-2.8-0.2
				c-0.6-0.7-0.6-1.9,0-2.6l6.3-6.3c-1.7-2.8-1.7-6.3,0-9.1l-6.3-6.3c-0.7-0.8-0.6-2.1,0.2-2.8c0.7-0.6,1.9-0.6,2.6,0l6.3,6.3
				c2.8-1.7,6.3-1.7,9.1,0l6.3-6.3c0.7-0.8,2-0.9,2.8-0.2s0.9,2,0.2,2.8c-0.1,0.1-0.1,0.2-0.2,0.2l-6.3,6.3
				C35.3,21.9,35.3,25.4,33.6,28.3z M41.8,5.7c-0.8,0-1.5-0.7-1.5-1.5s0.7-1.5,1.5-1.5s1.5,0.7,1.5,1.5S42.7,5.7,41.8,5.7L41.8,5.7z
				 M46.4,5.7c-0.8,0-1.5-0.7-1.5-1.5s0.7-1.5,1.5-1.5s1.5,0.7,1.5,1.5S47.2,5.7,46.4,5.7L46.4,5.7z M50.9,2.7
				c0.8,0,1.5,0.7,1.5,1.5s-0.7,1.5-1.5,1.5S49.4,5,49.4,4.2C49.4,3.3,50.1,2.7,50.9,2.7L50.9,2.7z M52.4,32.3
				c0,0.8-0.7,1.5-1.5,1.5s-1.5-0.7-1.5-1.5V15.1c0-0.8,0.7-1.5,1.5-1.5s1.5,0.7,1.5,1.5l0,0V32.3z"/>
		</g>
	</g>
</g>
</svg>
