<svg xmlns="http://www.w3.org/2000/svg" viewbox="0 0 20 20"
    preserveAspectRatio="xMinYMid"><title>filter-activities</title><g id="Layer_2" data-name="Layer 2"><g id="Layer_1-2" data-name="Layer 1"><path id="_Path_" data-name="&lt;Path&gt;" d="M17.21,8.61A8.61,8.61,0,1,0,6.7,17a.61.61,0,0,0,.42-.19A1.05,1.05,0,0,0,7.34,16V11.1c0-.53,0-.57-.52-.72l-.32-.1V10a9.4,9.4,0,0,0,2.63-.6l.26.11v1.33l.56-.91c.36-.57.63-.66,1.25-.41l.84.34-.65,1.39-.78-.33c-.5-.21-.72-.16-1,.16l-.27.37v4.65c0,.55.21.82.81.9a1.09,1.09,0,0,0,.39,0h0A8.61,8.61,0,0,0,17.21,8.61Z" fill="#6d6e71"/></g></g></svg>