<svg xmlns="http://www.w3.org/2000/svg" viewbox="0 0 20 20"
    preserveAspectRatio="xMinYMid"><title>filter-network</title><g id="Layer_2" data-name="Layer 2"><g id="Layer_1-2" data-name="Layer 1"><g id="_Group_" data-name="&lt;Group&gt;"><g id="_Group_2" data-name="&lt;Group&gt;"><path id="_Path_" data-name="&lt;Path&gt;" d="M12,10.21h-.9A1.81,1.81,0,0,1,9.31,8.4V7.82a4.56,4.56,0,0,0,.86-1.63c0-.1.11-.15.18-.22a1.12,1.12,0,0,0,.15-1.34c0-.06-.1-.12-.1-.2,0-.53,0-1.06,0-1.59a2.65,2.65,0,0,0-.64-1.78A2.52,2.52,0,0,0,8.39.36a4.55,4.55,0,0,0-2,0A2.38,2.38,0,0,0,5,1.36,2.74,2.74,0,0,0,4.6,2.79c0,.54,0,1.08,0,1.62,0,.11-.08.18-.12.27A1.12,1.12,0,0,0,4.73,6a.53.53,0,0,1,.15.3A4.37,4.37,0,0,0,5.69,7.8v.6a1.81,1.81,0,0,1-1.81,1.81H3A4.83,4.83,0,0,0,.28,12.92v.9a.9.9,0,0,0,.9.9H13.82a.9.9,0,0,0,.9-.9v-.9A4.83,4.83,0,0,0,12,10.21Z" fill="#6d6e71"/><path id="_Compound_Path_" data-name="&lt;Compound Path&gt;" d="M13.82,15H1.18A1.18,1.18,0,0,1,0,13.82l0-1A5.08,5.08,0,0,1,2.91,9.94h1A1.53,1.53,0,0,0,5.42,8.4V7.9a4.59,4.59,0,0,1-.8-1.47l0-.07a.54.54,0,0,0,0-.1,1.4,1.4,0,0,1-.33-1.72l.07-.11,0-.6c0-.35,0-.7,0-1.05A3,3,0,0,1,4.8,1.2,2.67,2.67,0,0,1,6.36.14a4.85,4.85,0,0,1,2.09,0A2.78,2.78,0,0,1,10,.88a2.92,2.92,0,0,1,.72,2c0,.37,0,.74,0,1.11V4.4l.06.09a1.39,1.39,0,0,1-.2,1.68l-.08.07,0,0a4.73,4.73,0,0,1-.84,1.64V8.4a1.53,1.53,0,0,0,1.53,1.53h1A5.08,5.08,0,0,1,15,12.8l0,.12v.9A1.18,1.18,0,0,1,13.82,15ZM.56,13v.84a.63.63,0,0,0,.63.63H13.82a.63.63,0,0,0,.63-.62V13A4.7,4.7,0,0,0,12,10.49h-.86A2.09,2.09,0,0,1,9,8.4V7.72l.07-.08A4.26,4.26,0,0,0,9.9,6.11a.53.53,0,0,1,.2-.29l0,0a.84.84,0,0,0,.12-1,.56.56,0,0,1-.14-.36V4c0-.37,0-.74,0-1.1a2.37,2.37,0,0,0-.57-1.59A2.26,2.26,0,0,0,8.34.64,4.29,4.29,0,0,0,6.5.68a2.11,2.11,0,0,0-1.24.83A2.46,2.46,0,0,0,4.87,2.8c0,.34,0,.69,0,1v.57a.51.51,0,0,1-.12.34l0,.06a.84.84,0,0,0,.19,1,.65.65,0,0,1,.23.38l0,.06a4.06,4.06,0,0,0,.76,1.36L6,7.7v.7a2.09,2.09,0,0,1-2.08,2.08H3A4.7,4.7,0,0,0,.56,13Z" fill="#6d6e71"/></g><g id="_Group_3" data-name="&lt;Group&gt;"><g id="_Group_4" data-name="&lt;Group&gt;"><g id="_Group_5" data-name="&lt;Group&gt;"><path id="_Path_2" data-name="&lt;Path&gt;" d="M20.87,3.64H12.54a.9.9,0,1,1,0-1.79h8.33a.9.9,0,1,1,0,1.79Z" fill="#6d6e71"/></g></g><g id="_Group_6" data-name="&lt;Group&gt;"><g id="_Group_7" data-name="&lt;Group&gt;"><path id="_Path_3" data-name="&lt;Path&gt;" d="M20.87,7H13.15a.9.9,0,1,1,0-1.79h7.72a.9.9,0,1,1,0,1.79Z" fill="#6d6e71"/></g></g><g id="_Group_8" data-name="&lt;Group&gt;"><g id="_Group_9" data-name="&lt;Group&gt;"><path id="_Path_4" data-name="&lt;Path&gt;" d="M20.87,10.34H16a.9.9,0,0,1,0-1.79h4.92a.9.9,0,1,1,0,1.79Z" fill="#6d6e71"/></g></g></g><g id="_Group_10" data-name="&lt;Group&gt;"><path id="_Path_5" data-name="&lt;Path&gt;" d="M22.86,13.89a.28.28,0,0,1-.28-.28V.56H11A.28.28,0,1,1,11,0H22.86a.28.28,0,0,1,.28.28V13.62A.28.28,0,0,1,22.86,13.89Z" fill="#6d6e71"/></g></g></g></g></svg>