<svg xmlns="http://www.w3.org/2000/svg" width="20px" height="20px" viewbox="0 0 20 20"
    preserveAspectRatio="xMinYMid"><title>filter-interactions</title><g id="Layer_2" data-name="Layer 2"><g id="Layer_1-2" data-name="Layer 1"><path id="_Compound_Path_" data-name="&lt;Compound Path&gt;" d="M13.36,0A6.43,6.43,0,0,0,10,1l0,0,0,0A6.43,6.43,0,0,0,6.5,0a6.5,6.5,0,0,0,0,13,6.43,6.43,0,0,0,3.4-1l0,0,0,0a6.43,6.43,0,0,0,3.4,1,6.5,6.5,0,0,0,0-13ZM1.18,6.5A5.32,5.32,0,0,1,6.5,1.18a5.26,5.26,0,0,1,2.42.58,6.52,6.52,0,0,0-.47.49l-.06.08c-.13.16-.26.32-.38.5L7.88,3c-.08.13-.17.27-.24.41l-.12.25c-.06.13-.13.27-.18.41l-.1.27c0,.14-.09.28-.13.43s0,.18-.07.27-.06.32-.09.48,0,.15,0,.23a6,6,0,0,0,0,1.46c0,.08,0,.15,0,.23s.05.32.09.48,0,.18.07.27.08.29.13.43l.1.27c.06.14.12.27.18.41l.12.25c.07.14.16.27.24.41l.13.21c.12.17.24.34.38.5l.06.08a6.52,6.52,0,0,0,.47.49,5.26,5.26,0,0,1-2.42.58A5.32,5.32,0,0,1,1.18,6.5Zm12.18,5.32a5.27,5.27,0,0,1-2.42-.58,6.52,6.52,0,0,0,.47-.49l.06-.07c.14-.16.26-.33.38-.5L12,10c.08-.13.17-.27.24-.41l.12-.25c.06-.13.13-.27.18-.41l.1-.27c0-.14.09-.28.13-.43s0-.18.07-.27.06-.32.09-.48,0-.15,0-.23a6,6,0,0,0,0-1.46c0-.08,0-.16,0-.23s-.05-.32-.09-.48,0-.18-.07-.27-.08-.29-.13-.43l-.1-.27c-.06-.14-.12-.27-.18-.41l-.12-.25c-.07-.14-.16-.27-.24-.41l-.13-.21c-.12-.17-.25-.34-.38-.5l-.06-.07a6.53,6.53,0,0,0-.47-.49,5.27,5.27,0,0,1,2.42-.58,5.32,5.32,0,1,1,0,10.64Z" fill="#6d6e71"/></g></g></svg>