<svg xmlns="http://www.w3.org/2000/svg" viewBox="0 0 29.44 29.44"><title>follow</title><g id="Layer_2" data-name="Layer 2"><g id="Layer_1-2" data-name="Layer 1"><g id="_Group_" data-name="&lt;Group&gt;"><g id="_Group_2" data-name="&lt;Group&gt;"><g id="_Group_3" data-name="&lt;Group&gt;"><path d="M17.89,29.44a2.13,2.13,0,0,1-2.13-2.13A13.65,13.65,0,0,0,2.13,13.68a2.13,2.13,0,1,1,0-4.26A17.91,17.91,0,0,1,20,27.31,2.13,2.13,0,0,1,17.89,29.44Z" fill="#00aeef"/></g></g><g id="_Group_4" data-name="&lt;Group&gt;"><g id="_Group_5" data-name="&lt;Group&gt;"><path d="M27.31,29.44a2.13,2.13,0,0,1-2.13-2.13A23.08,23.08,0,0,0,2.13,4.26,2.13,2.13,0,0,1,2.13,0,27.35,27.35,0,0,1,29.44,27.31,2.13,2.13,0,0,1,27.31,29.44Z" fill="#00aeef"/></g></g><g id="_Group_6" data-name="&lt;Group&gt;"><path d="M1.42,29.44h8.77a1.42,1.42,0,0,0,1.42-1.59,11.72,11.72,0,0,0-10-10A1.42,1.42,0,0,0,0,19.26V28A1.42,1.42,0,0,0,1.42,29.44Z" fill="#00aeef"/></g></g></g></g></svg>