<svg xmlns="http://www.w3.org/2000/svg" viewBox="0 0 45.34 46.28"><defs><style>.cls-1{fill:#fff;}</style></defs><title>google-lite</title><g id="Layer_2" data-name="Layer 2"><g id="Layer_1-2" data-name="Layer 1"><path class="cls-1" d="M0,23.17C-.42,11.25,10,.22,22,0a23.13,23.13,0,0,1,16.61,5.7c-1.89,2.08-3.81,4.13-5.86,6-4.1-2.37-9-4.25-13.75-2.58-7.63,2.18-12.26,11.2-9.43,18.67,2.34,7.81,11.84,12.09,19.28,8.81,3.85-1.38,6.4-4.94,7.51-8.76-4.42-.09-8.83,0-13.25-.15V19.86H45.24c.45,6.44-.5,13.33-4.68,18.5C34.83,45.77,24.24,47.93,15.63,45A23.12,23.12,0,0,1,0,23.17Z"/></g></g></svg>