<svg xmlns="http://www.w3.org/2000/svg" viewBox="0 0 72.77 46.22"><defs><style>.cls-1{fill:#fff;}</style></defs><title>google-plus</title><g id="Layer_2" data-name="Layer 2"><g id="Layer_1-2" data-name="Layer 1"><g id="Layer_2-2" data-name="Layer 2"><g id="Capa_1" data-name="Capa 1"><path class="cls-1" d="M0,23.13A23.12,23.12,0,0,0,15.62,45c8.61,2.89,19.21.73,24.94-6.65,4.19-5.17,5.14-12.06,4.68-18.5-7.38-.07-14.75,0-22.12,0v7.87c4.42.12,8.83.07,13.25.15-1.12,3.82-3.65,7.38-7.51,8.76-7.44,3.28-16.94-1-19.28-8.81C6.76,20.32,11.39,11.29,19,9.12c4.74-1.67,9.62.21,13.67,2.67,2-1.92,4-4,5.86-6.05A23.13,23.13,0,0,0,22,0C10,.18-.43,11.21,0,23.13Z"/><path class="cls-1" d="M59.6,13.19c0,2.2,0,4.41-.06,6.6h-6.6v6.58h6.6V33h6.58V26.36h6.6V19.84h-6.6v-6.6Z"/><path d="M0,23.13C-.43,11.21,10,.18,22,0a23.13,23.13,0,0,1,16.61,5.7c-1.89,2.08-3.81,4.13-5.86,6C28.65,9.33,23.77,7.45,19,9.12,11.37,11.3,6.74,20.32,9.57,27.79c2.34,7.81,11.84,12.09,19.28,8.81,3.85-1.38,6.4-4.94,7.51-8.76-4.42-.09-8.83,0-13.25-.15V19.82H45.23c.45,6.44-.5,13.33-4.68,18.5C34.82,45.73,24.23,47.89,15.62,45A23.12,23.12,0,0,1,0,23.13Z"/><path d="M59.6,13.19h6.57v6.6h6.6v6.58h-6.6V33H59.59v-6.6H53V19.84h6.6C59.55,17.6,59.57,15.39,59.6,13.19Z"/></g></g></g></g></svg>