<svg xmlns="http://www.w3.org/2000/svg" viewBox="0 0 45.71 30.02"><title>handshake-new-hi</title><g id="Layer_2" data-name="Layer 2"><g id="Layer_1-2" data-name="Layer 1"><g id="Layer_2-2" data-name="Layer 2"><g id="Layer_1-2-2" data-name="Layer 1-2"><path d="M15.89,2.08l-.57.28A3,3,0,0,1,13,2.49l-1-.33A.69.69,0,0,0,11.93,2L6,0A.85.85,0,0,0,5,.59L0,14.89A.84.84,0,0,0,.56,16h0l5.84,2a.94.94,0,0,0,.27,0,.85.85,0,0,0,.8-.57L12.16,4l.32.11A4.7,4.7,0,0,0,16,3.88l.57-.28a3,3,0,0,1,2.25-.14l10.74,3.7a2.2,2.2,0,0,1-.75,1.27,2.26,2.26,0,0,1-2,0L22,6.79a.84.84,0,0,0-.67.06.88.88,0,0,0-.42.53A6.39,6.39,0,0,1,18.19,11a6.07,6.07,0,0,1-4.94.08.84.84,0,0,0-.55,1.59h0a9.78,9.78,0,0,0,3.15.58A6.49,6.49,0,0,0,19,12.51,7.74,7.74,0,0,0,22.3,8.65l4,1.37a3.79,3.79,0,0,0,3.54-.22A4.38,4.38,0,0,0,31.4,6.6a.85.85,0,0,0-.57-.82L19.43,1.85a4.72,4.72,0,0,0-3.54.22Zm-9.67,14L2,14.64,6.32,1.94l4.25,1.45Z" fill="#fff"/><path d="M38.27,17l-2,1.84A25.66,25.66,0,0,1,30.18,23L19.55,28.25a1,1,0,0,1-.83-1.71h0l.13-.07,5.81-2.84a.85.85,0,1,0-.74-1.52L18.11,25l-2.93,1.43A.94.94,0,0,1,13.92,26v0a.92.92,0,0,1,0-.72,1,1,0,0,1,.48-.54L16.6,23.6l6.32-3.09A.84.84,0,0,0,22.14,19h0l-6.33,3.1-.24.12-3,1.48a.92.92,0,0,1-.72,0,.94.94,0,0,1-.1-1.74l1-.51,2.13-1,.6-.29,4.9-2.4a.84.84,0,0,0-.73-1.52l-5.31,2.6L12,20a1,1,0,0,1-1.27-.44.91.91,0,0,1,0-.72.93.93,0,0,1,.47-.54l4.05-2a.85.85,0,1,0-.74-1.52h0l-4.05,2a2.59,2.59,0,0,0-1.33,1.51,2.65,2.65,0,0,0,.12,2,2.6,2.6,0,0,0,.81,1,2.56,2.56,0,0,0,2,4.18,2.54,2.54,0,0,0,.27,1.22,2.64,2.64,0,0,0,2.37,1.47,2.56,2.56,0,0,0,1.16-.27l.6-.29a2.72,2.72,0,0,0,.25.92A2.64,2.64,0,0,0,19.14,30a2.56,2.56,0,0,0,1.16-.27l10.63-5.2a27.26,27.26,0,0,0,6.49-4.43l2.38-2.19,5.44-2.66a.84.84,0,0,0,.39-1.12h0L39,.59A.85.85,0,0,0,37.84.2L32.29,2.91A.85.85,0,0,0,31.9,4ZM37.82,2l5.9,12.07-4,2L33.79,4Z" fill="#fff"/></g></g></g></g></svg>