<svg xmlns="http://www.w3.org/2000/svg" viewBox="0 0 32.09 29.02"><title>handshake</title><g id="Layer_2" data-name="Layer 2"><g id="Layer_1-2" data-name="Layer 1"><path id="_Path_" data-name=" Path " d="M26.32,18.24A10.93,10.93,0,0,1,8,21.87L12,18.5a.71.71,0,0,0-.34-1.25L.89,15.38a.71.71,0,0,0-.83.7L0,27.08a.71.71,0,0,0,1.17.55L5.26,24.2a14.49,14.49,0,0,0,24.41-4.7,1.78,1.78,0,1,0-3.35-1.21Z" fill="#00adef"/><path id="_Path_2" data-name=" Path 2" d="M30.92,1.41,26.83,4.84A14.49,14.49,0,0,0,2.42,9.5a1.78,1.78,0,0,0,3.35,1.21A10.93,10.93,0,0,1,24.1,7.13l-4,3.37a.71.71,0,0,0,.34,1.25L31.2,13.59a.71.71,0,0,0,.83-.7l.06-11a.71.71,0,0,0-1.17-.48Z" fill="#00adef"/></g></g></svg>