<svg xmlns="http://www.w3.org/2000/svg" viewBox="0 0 252.9 183.63"><title>help-more</title><g id="Layer_2" data-name="Layer 2"><g id="Layer_2-2" data-name="Layer 2"><path d="M165,183.63a2.9,2.9,0,0,1-2.76-2.12,2.58,2.58,0,0,1,1.22-3.08c6.73-3.67,9.3-6.93,10.27-9a16.54,16.54,0,0,0,1.43-7.37v-.31c0-2.41-1.26-5.95-3.31-6.23-9.79-1.34-27.19-5-33.69-14.37-9.64-13.9-14-42.92-14-64,0-22.77,1.27-47.72,10.66-60.16C147.54,0,167.65,0,189,0h6c18.57-.1,34.6-.17,46.69,14.62,7.6,9.3,11.5,30.9,11.28,62.47.37,36.08-5.21,60.14-16.15,69.59-9.82,8.48-23.62,9.82-37.07,10a4.07,4.07,0,0,0-3.87,2.89c-1.55,5.17-4.62,12.25-10.44,16.59-4,3-10,6.57-20.13,7.43H165m-.2-2.89a.38.38,0,0,0,.09.16c.06.06.1.06.13.06,9.41-.8,14.77-3.94,18.76-6.91,5.24-3.9,8-10.42,9.48-15.21a6.73,6.73,0,0,1,6.4-4.79c12.95-.18,26.19-1.44,35.36-9.36,10.18-8.79,15.58-32.78,15.22-67.55v0c.27-39.1-5.66-54.63-10.68-60.77-11.29-13.81-26-13.73-44.61-13.64l-4.55,0H189c-20.61,0-40.08,0-52.06,15.85C126.77,32,126.77,62.45,126.77,77.11c0,29.51,7,53.07,13.56,62.48,4.33,6.23,15.94,11.06,31.86,13.25,3.83.53,5.61,5.61,5.61,8.88V162a19.07,19.07,0,0,1-1.68,8.53c-1.14,2.45-4,6.22-11.36,10.22" fill="#005f80"/><path d="M175,140.24c-11.83-1.62-22.59-5.26-26.76-11.27-8-11.59-11.26-35.83-11.26-51.63,0-14.88.44-37.81,8.48-48.46,10.33-13.69,27-13.37,44.52-13.37,6.46,0,12.51-.16,18.09.36,1.57.15,3.1.35,4.6.63a37.12,37.12,0,0,1,4.82,1.22A28.22,28.22,0,0,1,231,27a29,29,0,0,1,4.72,9.54C240,50,240,69.56,240,77.34c.1,9.48.25,44.7-12.81,56-7.78,6.72-18.69,7.75-29.56,7.9Z" fill="#44c8f5"/><path d="M238.39,33.46a1.33,1.33,0,0,1-1.27-.93,27.61,27.61,0,0,0-4.48-9.1,27.43,27.43,0,0,0-7.88-6.72,1.34,1.34,0,1,1,1.31-2.33,30,30,0,0,1,8.64,7.36,30.2,30.2,0,0,1,5,10,1.33,1.33,0,0,1-1.27,1.74" fill="#005f80"/><path d="M215.39,13.39l-.25,0c-1.4-.26-2.87-.46-4.48-.61a1.34,1.34,0,0,1,.25-2.66c1.7.16,3.24.37,4.72.65a1.34,1.34,0,0,1-.24,2.65" fill="#005f80"/><path d="M188.56,69.9h-.08c-3.12,0-4.8-1.11-5-3.2l-3-21.29a5.89,5.89,0,0,1,1.31-4.48,8.7,8.7,0,0,1,6.09-2.7c5-.39,8.39,1.7,8.74,5.45,0,.21,0,.5-3.28,22.26-.12,2.42-2,4-4.74,4m.52-29c-.37,0-.71,0-1,0a6.11,6.11,0,0,0-4.26,1.76,3.2,3.2,0,0,0-.7,2.44l3,21.32c0,.19.07.78,2.38.81h.06c1.34,0,2-.49,2.07-1.47l0-.16c1.25-8.15,3.11-20.44,3.26-21.79-.3-2.46-2.82-3-4.83-3" fill="#fff"/><path d="M188.32,83.76a4.79,4.79,0,0,1-.63,0A7,7,0,0,1,183.2,81a4.91,4.91,0,0,1-1.08-3.66c.45-2.92,4-4.3,7.09-3.91a5.77,5.77,0,0,1,4,2.11,4.33,4.33,0,0,1,.81,3.34,5.93,5.93,0,0,1-5.66,4.9M188.21,76c-1.57,0-3.29.66-3.45,1.7a2.35,2.35,0,0,0,.58,1.64,4.4,4.4,0,0,0,2.69,1.7,3.19,3.19,0,0,0,3.31-2.62,1.67,1.67,0,0,0-.31-1.32,3.19,3.19,0,0,0-2.17-1.07,5.25,5.25,0,0,0-.66,0" fill="#fff"/><path d="M15.64,64.25c3.14-11.63,10-19.19,19.69-21.87C41.16,40.77,55.72,40,81.13,40c18.08,0,34.62,1.14,44.24,3,12.11,2.4,19.48,9.77,21.28,21.33,1.56,10,1.57,25,1.57,33.12v.17c0,8.06,0,24.81-1.58,34-2,11.48-9.54,19-21.28,21.31a101.18,101.18,0,0,1-15.63,1.29c-2.33.07-4.55.13-6.31.28a6.17,6.17,0,0,0-4.62,2.23A5.21,5.21,0,0,0,98,161l3.82,17.56A2.8,2.8,0,0,1,99.06,182a2.78,2.78,0,0,1-1.88-.75c-.18-.15-21.7-18.59-28.85-25.23a5.4,5.4,0,0,0-3.7-1.46c-12.52,0-21.84-.53-27.71-1.57-11.77-2.09-19.54-9.87-21.31-21.33C14,121.14,14,105.26,14,96.73V96.6c0-1.31,0-2.82,0-4.49-.07-9-.18-21.21,1.63-27.86m2.61,67c1.58,10.26,8.55,17.22,19.14,19.11,5.71,1,14.87,1.53,27.24,1.53A8.09,8.09,0,0,1,70.15,154c7.11,6.6,28.6,25,28.81,25.19s.1.09.17,0,.06-.07.05-.12l-3.83-17.56a7.94,7.94,0,0,1,1.31-6.43,8.87,8.87,0,0,1,6.53-3.29c1.83-.15,4.08-.22,6.45-.29a98.69,98.69,0,0,0,15.2-1.25c10.58-2,17.38-8.83,19.16-19.14,1.55-8.92,1.54-25.52,1.53-33.5v-.17c0-8,0-22.93-1.54-32.71-1.64-10.49-8.08-16.92-19.15-19.12a158.22,158.22,0,0,0-18.69-2.2c-7.51-.52-16.08-.79-25-.79-24.82,0-39.57.74-45.08,2.26-8.9,2.46-14.9,9.19-17.83,20-1.7,6.29-1.6,18.84-1.53,27.15,0,1.67,0,3.2,0,4.51v.13c0,8.46-.05,24.2,1.54,34.47" fill="#005f80"/><path d="M23.36,97.27c0,7.1,1.65,19.33,3,27.83,1.45,9,7.84,14.89,17.18,16.48,6.75,1.15,17.51,2.82,23.34,2.82H99.77c4.61-.37,12.27-1.67,18.52-2.82,9.32-1.72,15.56-7.51,17.18-16.48,1.32-7.32,2.1-20.61,2.1-27.49a201.52,201.52,0,0,0-2.1-27c-1.47-9-7.29-14.6-17.18-16.48-9.18-1.75-24.37-4-37.37-4-15.17,0-32.6,1.85-38.61,3.44A20.64,20.64,0,0,0,33,58.84a26.25,26.25,0,0,0-6.58,11.8c-1.78,6.3-3.07,15.41-3,26.63" fill="#fbb040"/><path d="M75.55,128.31A6.41,6.41,0,0,1,69,122c0-3.43,2.77-5.92,6.59-5.92,4,0,6.51,2.09,6.51,5.47a6.76,6.76,0,0,1-6.59,6.74m.08-9.22c-1.66,0-3.6.76-3.6,2.92a3.42,3.42,0,0,0,3.52,3.3,3.78,3.78,0,0,0,3.6-3.75c0-1.64-1.18-2.47-3.52-2.47m.12-6.41h-1c-1.73,0-4.25-1.29-4.41-3.39,0-.29-.83-8.29,3.4-13.35l.57-.67c3.06-3.6,6.24-7.32,6.24-10.07,0-3.6-1.49-5.1-5.13-5.15a13.36,13.36,0,0,0-4.86,1,4.11,4.11,0,0,1-5.4-2.34c-.7-1.83,0-5.71,2.1-6.68a23.7,23.7,0,0,1,9.57-2C86.31,70,92.7,77.4,92.7,84.34c0,5.11-3.48,9.12-6.84,13-.5.58-1,1.16-1.5,1.75-.32.38-.71.8-1.11,1.24a14.44,14.44,0,0,0-2.09,2.6,18.44,18.44,0,0,0-.47,6.18,2.52,2.52,0,0,1-.78,1.87,6.63,6.63,0,0,1-4.17,1.7M75.4,77c5.3.08,8.1,2.9,8.1,8.15,0,3.84-3.38,7.81-7,12l-.56.66c-3.4,4.08-2.72,11.08-2.71,11.15a2.12,2.12,0,0,0,1.43.67h1A4.15,4.15,0,0,0,77.7,109c-.11-3.38.13-5.8.71-7.19a14.36,14.36,0,0,1,2.65-3.48c.37-.4.73-.79,1-1.15.5-.59,1-1.18,1.53-1.77,3.14-3.62,6.1-7,6.1-11C89.71,79.58,85.22,73,76.79,73a20.91,20.91,0,0,0-8.32,1.74,4.16,4.16,0,0,0-.55,2.89,1.09,1.09,0,0,0,.59.62,1.11,1.11,0,0,0,.87,0,16.24,16.24,0,0,1,6-1.19" fill="#fff"/><path d="M24.6,69.3a1.35,1.35,0,0,1-.36,0,1.34,1.34,0,0,1-.92-1.65,27.57,27.57,0,0,1,6.93-12.39,22,22,0,0,1,10-5.6,1.34,1.34,0,0,1,.68,2.58,19.36,19.36,0,0,0-8.77,4.92,25,25,0,0,0-6.23,11.21,1.34,1.34,0,0,1-1.28,1" fill="#005f80"/><path d="M28.71,39.82A1.78,1.78,0,0,1,27,38.33l-1.5-9.16A1.78,1.78,0,0,1,29,28.59l1.5,9.16a1.78,1.78,0,0,1-1.47,2l-.29,0" fill="#005f80"/><path d="M20.69,43.58A1.78,1.78,0,0,1,19.36,43L6.56,28.72a1.78,1.78,0,1,1,2.65-2.38L22,40.61a1.78,1.78,0,0,1-1.32,3" fill="#005f80"/><path d="M14,51a1.77,1.77,0,0,1-.67-.13l-12.2-5a1.78,1.78,0,1,1,1.34-3.3l12.2,5A1.78,1.78,0,0,1,14,51" fill="#005f80"/><path d="M234.36,150.92a6.52,6.52,0,1,1,6.52-6.52,6.53,6.53,0,0,1-6.52,6.52m0-11.26a4.74,4.74,0,1,0,4.74,4.74,4.74,4.74,0,0,0-4.74-4.74" fill="#005f80"/><path d="M248.09,151.22a4.37,4.37,0,1,1,4.37-4.37,4.38,4.38,0,0,1-4.37,4.37m0-7a2.59,2.59,0,1,0,2.59,2.59,2.6,2.6,0,0,0-2.59-2.59" fill="#005f80"/><path d="M108.32,31A5.93,5.93,0,1,1,114.25,25,5.94,5.94,0,0,1,108.32,31m0-10.09A4.15,4.15,0,1,0,112.47,25a4.16,4.16,0,0,0-4.15-4.15" fill="#005f80"/><path d="M95.65,33.16a3.7,3.7,0,1,1,3.7-3.7,3.71,3.71,0,0,1-3.7,3.7m0-5.63a1.92,1.92,0,1,0,1.92,1.92,1.93,1.93,0,0,0-1.92-1.92" fill="#005f80"/></g></g></svg>