<svg xmlns="http://www.w3.org/2000/svg" viewBox="0 0 60.64 50.16"><title>home-dashboard-cta-delegation</title><g id="Layer_2" data-name="Layer 2"><g id="Layer_1-2" data-name="Layer 1"><path id="_Path_" data-name=" Path " d="M52.4,36.81s-7.6-2.3-7.6-5.1v-1.6a12.65,12.65,0,0,0,2.4-4.6c0-.3.3-.4.5-.6a3,3,0,0,0,.4-3.8c-.1-.2-.3-.3-.3-.5v-4.4a7.68,7.68,0,0,0-1.8-5,7.2,7.2,0,0,0-3.8-2.1,12.76,12.76,0,0,0-5.5.1,6.88,6.88,0,0,0-4,2.7,8,8,0,0,0-1.1,4v4.5c0,.3-.2.5-.3.8A3,3,0,0,0,32,25a1.23,1.23,0,0,1,.4.8,11.33,11.33,0,0,0,2.3,4v1.7c0,2.8-7.6,5.1-7.6,5.1s-4.6,1.3-7.6,7.6v2.7a2.48,2.48,0,0,0,2.5,2.5H57.4a2.48,2.48,0,0,0,2.5-2.5v-2.6C57,38,52.4,36.81,52.4,36.81Z" fill="#c7eafb" stroke="#2bace2" stroke-linecap="round" stroke-linejoin="round" stroke-width="1.49"/><path d="M25.7,34.51c2.8-.9,5.8-2.4,6.2-3.3v-.9a14.69,14.69,0,0,1-2.2-4.1v-.1a7.55,7.55,0,0,1-1.1-1.4c-1.7-.6-6-2.2-6-4.2v-1.4a10.27,10.27,0,0,0,2.1-4c0-.2.3-.4.4-.5a2.72,2.72,0,0,0,.4-3.3.76.76,0,0,1-.2-.5V6.91a6.64,6.64,0,0,0-1.6-4.4A6.27,6.27,0,0,0,20.3.71a11.11,11.11,0,0,0-4.8.1A5.61,5.61,0,0,0,12,3.11a7.11,7.11,0,0,0-1,3.5v4c0,.3-.2.4-.3.7a2.74,2.74,0,0,0,.6,3.3,2.51,2.51,0,0,1,.4.7,9.4,9.4,0,0,0,2,3.5v1.5c0,2.4-6.6,4.5-6.6,4.5s-4,1.1-6.6,6.6v2.2a2.22,2.22,0,0,0,2.2,2.2H22.9A10.89,10.89,0,0,1,25.7,34.51Z" fill="#c7eafb" stroke="#2bace2" stroke-linecap="round" stroke-linejoin="round"/><path d="M44.3,44.81c-1-1.1-1.9-2.2-2.9-3.2-2.3-2.5-4.5-5.1-6.8-7.6l-.1-.1c-.2-.1-.4-.3-.5-.3a.54.54,0,0,0-.4.3c-.4,1-.7,1.9-1,2.9,0,.1,0,.1-.1.2s-.3-.1-.5-.1a26,26,0,0,1-6.2-3.2c-3.1-2.3-5.3-4.8-6.2-7.5-.2-.5-.2-1.1-.4-1.6a.45.45,0,0,0-.3-.3c-.2-.1-.3,0-.4.2a13.33,13.33,0,0,0-.7,7.2,13.77,13.77,0,0,0,3.6,7.1A22.35,22.35,0,0,0,28.7,44c.4.2.8.3,1.2.5a20.94,20.94,0,0,0-.8,2.3,6.89,6.89,0,0,1-.3.8c0,.1,0,.3.1.3s.4.1.5.1l3.6-.6c3.6-.6,7.2-1.2,10.9-1.8h.2C44.5,45.21,44.6,45.11,44.3,44.81Z" fill="#2bace2" stroke="#c7eafb" stroke-linecap="round" stroke-linejoin="round" stroke-width="1.25"/></g></g></svg>