<svg xmlns="http://www.w3.org/2000/svg" viewBox="0 0 45.94 30"><title>home-dashboard-cta-push</title><g id="Layer_2" data-name="Layer 2"><g id="Layer_1-2" data-name="Layer 1"><g id="_Group_" data-name="&lt;Group&gt;"><g id="_Group_2" data-name="&lt;Group&gt;"><g id="_Group_3" data-name="&lt;Group&gt;"><path id="_Path_" data-name="&lt;Path&gt;" d="M35,5.82A11,11,0,0,0,33.27,6h0A13.8,13.8,0,0,0,8.3,11.43H8.09A8.09,8.09,0,0,0,0,18.91,8.18,8.18,0,0,0,8.32,27.6H34.78A10.89,10.89,0,1,0,35,5.82Z" fill="#00aeef"/></g></g><g id="_Group_4" data-name="&lt;Group&gt;"><path id="_Path_2" data-name="&lt;Path&gt;" d="M22.69,11.06l-8.53,8.53a.39.39,0,0,0,.28.67h4.5a.39.39,0,0,1,.39.39v8.56a.39.39,0,0,0,.39.39H26.2a.39.39,0,0,0,.39-.39V20.66a.39.39,0,0,1,.39-.39h4.5a.39.39,0,0,0,.28-.67l-8.53-8.53A.39.39,0,0,0,22.69,11.06Z" fill="#eff9fe"/><path id="_Compound_Path_" data-name="&lt;Compound Path&gt;" d="M26.2,30H19.74a.79.79,0,0,1-.79-.79V20.66h-4.5a.79.79,0,0,1-.56-1.35l8.53-8.53a.79.79,0,0,1,1.11,0l8.53,8.53a.79.79,0,0,1-.56,1.35H27v8.56A.79.79,0,0,1,26.2,30ZM18.95,19.87a.79.79,0,0,1,.79.79v8.56H26.2V20.66a.79.79,0,0,1,.79-.79h4.5L23,11.34l-8.53,8.53Z" fill="#00aeef"/></g></g></g></g></svg>