<svg xmlns="http://www.w3.org/2000/svg" viewBox="0 0 31.32 31"><title>home-dashboard-interactions</title><g id="Layer_2" data-name="Layer 2"><g id="Layer_1-2" data-name="Layer 1"><g id="_Group_" data-name="&lt;Group&gt;"><g id="_Group_2" data-name="&lt;Group&gt;"><g id="_Group_3" data-name="&lt;Group&gt;"><g id="_Group_4" data-name="&lt;Group&gt;"><path id="_Compound_Path_" data-name="&lt;Compound Path&gt;" d="M12.94,7.17a5.76,5.76,0,1,1-5.77,5.76A5.76,5.76,0,0,1,12.94,7.17Zm3.48,5.76a3.48,3.48,0,1,0-3.48,3.48A3.48,3.48,0,0,0,16.41,12.93Z" fill="#abe1fa"/></g><g id="_Group_5" data-name="&lt;Group&gt;"><path id="_Compound_Path_2" data-name="&lt;Compound Path&gt;" d="M22.6,5.1a.53.53,0,0,1,0,.75L21.44,7a10.24,10.24,0,0,1,1.69,4.08h1.65a.53.53,0,0,1,.53.53v2.61a.52.52,0,0,1-.53.53H23.12a10.24,10.24,0,0,1-1.69,4.08L22.6,20a.53.53,0,0,1,0,.75L20.76,22.6a.51.51,0,0,1-.74,0l-1.17-1.16a10.33,10.33,0,0,1-4.09,1.68v1.66a.53.53,0,0,1-.52.53H11.63a.53.53,0,0,1-.53-.53V23.12A10.26,10.26,0,0,1,7,21.44L5.86,22.6a.52.52,0,0,1-.75,0L3.26,20.76a.53.53,0,0,1,0-.75l1.17-1.17a10.35,10.35,0,0,1-1.69-4.08H1.09a.52.52,0,0,1-.53-.53V11.63a.53.53,0,0,1,.53-.53H2.74A10.35,10.35,0,0,1,4.43,7L3.26,5.85a.53.53,0,0,1,0-.75L5.11,3.26a.53.53,0,0,1,.75,0L7,4.43a10.27,10.27,0,0,1,4.09-1.69V1.09a.52.52,0,0,1,.53-.52h2.61a.52.52,0,0,1,.52.52V2.74a10.23,10.23,0,0,1,4.09,1.69L20,3.26a.52.52,0,0,1,.74,0ZM18.7,12.93a5.76,5.76,0,1,0-5.76,5.77A5.76,5.76,0,0,0,18.7,12.93Z" fill="#e1f4fd"/></g></g><g id="_Group_6" data-name="&lt;Group&gt;"><g id="_Group_7" data-name="&lt;Group&gt;"><path id="_Compound_Path_3" data-name="&lt;Compound Path&gt;" d="M12.94,17a4,4,0,1,1,4-4A4,4,0,0,1,12.94,17Zm0-7a2.91,2.91,0,1,0,2.91,2.91A2.92,2.92,0,0,0,12.94,10Z" fill="#00aeef"/></g><g id="_Group_8" data-name="&lt;Group&gt;"><path id="_Compound_Path_4" data-name="&lt;Compound Path&gt;" d="M14.24,25.87H11.63a1.09,1.09,0,0,1-1.09-1.09V23.58a10.75,10.75,0,0,1-3.45-1.42L6.26,23a1.05,1.05,0,0,1-.79.32A1.07,1.07,0,0,1,4.7,23L2.87,21.16a1.09,1.09,0,0,1,0-1.55l.84-.84a10.83,10.83,0,0,1-1.42-3.44H1.09A1.09,1.09,0,0,1,0,14.24V11.63a1.09,1.09,0,0,1,1.09-1.09H2.28A10.83,10.83,0,0,1,3.71,7.09l-.84-.84a1.1,1.1,0,0,1,0-1.54L4.71,2.86a1.1,1.1,0,0,1,1.54,0l.84.85a10.77,10.77,0,0,1,3.45-1.43V1.09A1.09,1.09,0,0,1,11.63,0h2.61a1.09,1.09,0,0,1,1.09,1.09V2.28a10.7,10.7,0,0,1,3.45,1.43l.84-.84a1.09,1.09,0,0,1,1.54,0L23,4.7a1.11,1.11,0,0,1,0,1.55l-.84.84a10.91,10.91,0,0,1,1.43,3.44h1.19a1.09,1.09,0,0,1,1.09,1.09v2.61a1.09,1.09,0,0,1-1.09,1.09H23.59a10.91,10.91,0,0,1-1.43,3.44l.84.84a1.09,1.09,0,0,1,0,1.55L21.16,23a1.11,1.11,0,0,1-1.55,0l-.83-.83a10.79,10.79,0,0,1-3.45,1.42v1.19A1.09,1.09,0,0,1,14.24,25.87ZM7,20.7l.39.27a9.66,9.66,0,0,0,3.86,1.59l.47.08v2.13l2.57,0,0-2.1.47-.08A9.69,9.69,0,0,0,18.53,21l.39-.27,1.5,1.49,1.79-1.84-1.5-1.45.27-.39a9.74,9.74,0,0,0,1.6-3.85l.08-.47h2.13l0-2.53H22.65l-.08-.47A9.74,9.74,0,0,0,21,7.34L20.7,7l1.5-1.5L20.36,3.67l-1.44,1.5-.39-.27a9.61,9.61,0,0,0-3.86-1.6l-.47-.08V1.09l-2.56,0,0,2.09-.47.08A9.68,9.68,0,0,0,7.34,4.9L7,5.17l-1.5-1.5L3.66,5.51,5.17,7l-.27.39A9.73,9.73,0,0,0,3.3,11.2l-.08.46H1.09l0,2.57,2.09,0,.08.46a9.73,9.73,0,0,0,1.6,3.86l.27.39-1.5,1.5L5.51,22.2Z" fill="#00aeef"/></g><g id="_Group_9" data-name="&lt;Group&gt;"><path id="_Compound_Path_5" data-name="&lt;Compound Path&gt;" d="M12.94,19.26a6.33,6.33,0,1,1,6.33-6.33A6.34,6.34,0,0,1,12.94,19.26Zm0-11.53a5.2,5.2,0,1,0,5.2,5.2A5.2,5.2,0,0,0,12.94,7.74Z" fill="#00aeef"/></g></g></g><g id="_Group_10" data-name="&lt;Group&gt;"><rect id="_Path_" data-name="&lt;Path&gt;" x="6.26" y="28.15" width="15.55" height="0.86" fill="#abe1fa"/></g><g id="_Group_11" data-name="&lt;Group&gt;"><rect id="_Path_2" data-name="&lt;Path&gt;" x="4.82" y="30.14" width="26.5" height="0.86" fill="#abe1fa"/></g></g></g></g></svg>