<svg xmlns="http://www.w3.org/2000/svg" viewBox="0 0 34.51 30"><title>home-dashboard-activity-log</title><g id="Layer_2" data-name="Layer 2"><g id="Layer_1-2" data-name="Layer 1"><g id="_Group_" data-name="&lt;Group&gt;"><g id="_Group_2" data-name="&lt;Group&gt;"><rect id="_Rectangle_" data-name="&lt;Rectangle&gt;" x="0.35" y="0.35" width="33.81" height="29.3" rx="2" ry="2" fill="#e1f4fd"/><path id="_Compound_Path_" data-name="&lt;Compound Path&gt;" d="M32.76,30h-31A1.75,1.75,0,0,1,0,28.25V1.75A1.75,1.75,0,0,1,1.75,0h31a1.75,1.75,0,0,1,1.75,1.75V28.25A1.75,1.75,0,0,1,32.76,30ZM1.75.7a1,1,0,0,0-1,1V28.25a1,1,0,0,0,1,1h31a1,1,0,0,0,1-1V1.75a1,1,0,0,0-1-1Z" fill="#00aeef"/></g><g id="_Group_3" data-name="&lt;Group&gt;"><path id="_Path_" data-name="&lt;Path&gt;" d="M24.94,7.19H8.16a1,1,0,0,1,0-2.1H24.94a1,1,0,1,1,0,2.1Z" fill="#00aeef"/></g><g id="_Group_4" data-name="&lt;Group&gt;"><path id="_Path_2" data-name="&lt;Path&gt;" d="M30.08,13H8.16a1,1,0,0,1,0-2.1H30.08a1,1,0,0,1,0,2.1Z" fill="#00aeef"/></g><g id="_Group_5" data-name="&lt;Group&gt;"><path id="_Path_3" data-name="&lt;Path&gt;" d="M30.08,18.95H8.16a1,1,0,0,1,0-2.1H30.08a1,1,0,0,1,0,2.1Z" fill="#00aeef"/></g><g id="_Group_6" data-name="&lt;Group&gt;"><path id="_Path_4" data-name="&lt;Path&gt;" d="M30.08,24.9H8.16a1,1,0,0,1,0-2.1H30.08a1,1,0,0,1,0,2.1Z" fill="#00aeef"/></g><g id="_Group_7" data-name="&lt;Group&gt;"><path id="_Path_5" data-name="&lt;Path&gt;" d="M4,7.2a1,1,0,0,1-.74-1.79,1.08,1.08,0,0,1,1.48,0A1,1,0,0,1,5,6.15a1,1,0,0,1-1,1Z" fill="#00aeef"/></g><g id="_Group_8" data-name="&lt;Group&gt;"><path id="_Path_6" data-name="&lt;Path&gt;" d="M4,13a1.08,1.08,0,0,1-.74-.3,1.05,1.05,0,0,1,0-1.49,1.1,1.1,0,0,1,1.48,0A1,1,0,0,1,4,13Z" fill="#00aeef"/></g><g id="_Group_9" data-name="&lt;Group&gt;"><path id="_Path_7" data-name="&lt;Path&gt;" d="M4,18.95a1,1,0,0,1-1-1,1,1,0,0,1,.31-.74,1.08,1.08,0,0,1,1.48,0A1,1,0,0,1,5,17.9a1,1,0,0,1-1,1Z" fill="#00aeef"/></g><g id="_Group_10" data-name="&lt;Group&gt;"><path id="_Path_8" data-name="&lt;Path&gt;" d="M4,24.9a1,1,0,0,1-.74-1.79,1.08,1.08,0,0,1,1.48,0,1,1,0,0,1,0,1.48A1,1,0,0,1,4,24.9Z" fill="#00aeef"/></g></g></g></g></svg>