<?xml version="1.0" encoding="iso-8859-1"?>
<!-- Generator: Adobe Illustrator 19.0.0, SVG Export Plug-In . SVG Version: 6.00 Build 0)  -->
<svg version="1.1" id="Capa_1" xmlns="http://www.w3.org/2000/svg" xmlns:xlink="http://www.w3.org/1999/xlink" x="0px" y="0px"
	 viewBox="0 0 512.001 512.001" style="enable-background:new 0 0 512.001 512.001;" xml:space="preserve">
<polygon style="fill:#445870;" points="504.5,489.252 7.5,489.252 7.5,184.43 256,53.252 504.5,184.43 "/>
<path style="fill:#F2DC50;" d="M396.083,75.527c3.693,1.409,6.134,4.958,6.134,8.92V208.37c0,31.849-12.282,62.484-34.385,85.341
	c-22.664,23.443-58.143,50.193-111.002,66.913c-0.538,0.17-1.123,0.17-1.66,0c-52.859-16.72-88.331-43.469-111.002-66.913
	c-22.096-22.857-34.385-53.492-34.385-85.341V84.446c0-3.961,2.441-7.51,6.134-8.92l136.696-52.151c2.182-0.832,4.592-0.832,6.774,0
	L396.083,75.527z"/>
<path style="fill:#D9AD29;" d="M396.083,75.527l-23.906-9.12c0.024,0.321,0.04,0.644,0.04,0.971v143.636
	c0,36.915-12.282,72.423-34.385,98.916c-7.28,8.728-15.891,17.851-25.967,26.858c23.976-13.614,42.305-28.944,55.967-43.076
	c22.103-22.857,34.385-53.492,34.385-85.341V84.446C402.217,80.485,399.776,76.936,396.083,75.527z"/>
<path style="fill:#D62F2F;" d="M372.217,99.647v107.526c0,24.722-9.392,48.045-26.447,65.683
	c-23.865,24.684-54.044,43.285-89.77,55.338V55.31L372.217,99.647z"/>
<path style="fill:#FF4A4A;" d="M256,55.31v272.883c-35.719-12.052-65.898-30.654-89.77-55.338
	c-17.056-17.644-26.447-40.967-26.447-65.683V99.647L256,55.31z"/>
<polygon style="fill:#EDEDED;" points="504.5,189.252 504.5,489.252 7.5,489.252 7.5,189.252 256,335.862 "/>
<polygon style="fill:#CFCFCF;" points="474.5,206.605 474.5,489.252 504.5,489.252 504.5,189.252 "/>
<path style="fill:#F2DC50;" d="M241.456,243.974c-3.837,0-7.672-1.469-10.599-4.41l-48.467-48.677
	c-5.854-5.879-5.854-15.411,0-21.29c5.853-5.879,15.345-5.879,21.198,0l37.867,38.032l66.955-67.245
	c5.854-5.88,15.345-5.88,21.198,0c5.854,5.879,5.854,15.411,0,21.29l-77.554,77.89C249.129,242.503,245.292,243.974,241.456,243.974
	z"/>
<path d="M508.001,177.719l-98.281-51.933V84.265c0-7.034-4.408-13.441-10.967-15.944L262.059,16.116
	c-3.906-1.489-8.209-1.489-12.122,0.002L113.249,68.321c-6.561,2.504-10.969,8.911-10.969,15.945v41.521L3.999,177.719
	c-2.46,1.3-3.999,3.856-3.999,6.64v4.825v9.844v39.541c0,4.146,3.358,7.508,7.5,7.508s7.5-3.361,7.5-7.508v-36.238l98.043,57.902
	c1.317,2.541,3.907,4.06,6.641,4.06c0.072,0,0.144-0.009,0.215-0.011l121.587,71.808L15,476.035V271.267
	c0-4.146-3.358-7.508-7.5-7.508S0,267.121,0,271.267v218.224c0,0.059,0.007,0.116,0.009,0.174c0.003,0.149,0.01,0.298,0.023,0.447
	c0.009,0.104,0.02,0.208,0.032,0.311c0.017,0.138,0.038,0.275,0.063,0.413c0.02,0.113,0.043,0.225,0.069,0.337
	c0.028,0.122,0.059,0.243,0.094,0.364c0.035,0.124,0.073,0.247,0.115,0.369c0.036,0.105,0.074,0.208,0.114,0.312
	c0.052,0.134,0.108,0.266,0.168,0.396c0.042,0.091,0.085,0.181,0.13,0.27c0.07,0.137,0.144,0.271,0.221,0.403
	c0.028,0.049,0.051,0.099,0.081,0.147c0.018,0.029,0.04,0.053,0.058,0.082c0.148,0.233,0.307,0.459,0.479,0.674
	c0.018,0.022,0.034,0.047,0.052,0.069c0.18,0.218,0.374,0.424,0.577,0.62c0.075,0.073,0.152,0.14,0.23,0.209
	c0.142,0.127,0.287,0.247,0.438,0.363c0.082,0.063,0.163,0.126,0.247,0.185c0.208,0.146,0.422,0.282,0.644,0.407
	c0.023,0.013,0.045,0.029,0.068,0.041c0.253,0.139,0.517,0.259,0.786,0.368c0.062,0.025,0.125,0.045,0.188,0.069
	c0.211,0.078,0.425,0.148,0.644,0.208c0.077,0.021,0.154,0.041,0.233,0.06c0.212,0.051,0.427,0.09,0.645,0.122
	c0.077,0.011,0.152,0.026,0.229,0.035c0.27,0.031,0.544,0.05,0.822,0.052c0.017,0,0.033,0.003,0.05,0.003
	c0.005,0,0.01-0.001,0.014-0.001h496.956c0.005,0,0.01,0.001,0.014,0.001c0.017,0,0.033-0.003,0.05-0.003
	c0.279-0.001,0.553-0.021,0.823-0.052c0.076-0.009,0.15-0.023,0.226-0.035c0.22-0.032,0.436-0.072,0.649-0.123
	c0.077-0.018,0.152-0.038,0.228-0.059c0.221-0.06,0.437-0.13,0.65-0.209c0.061-0.023,0.122-0.043,0.183-0.067
	c0.271-0.109,0.535-0.23,0.789-0.369c0.021-0.011,0.04-0.025,0.061-0.037c0.225-0.126,0.441-0.264,0.651-0.411
	c0.083-0.058,0.163-0.121,0.245-0.183c0.151-0.116,0.298-0.237,0.439-0.364c0.077-0.069,0.155-0.137,0.23-0.21
	c0.202-0.196,0.396-0.4,0.575-0.618c0.021-0.026,0.039-0.055,0.06-0.081c0.169-0.211,0.324-0.432,0.469-0.66
	c0.019-0.03,0.042-0.056,0.061-0.086c0.031-0.051,0.055-0.104,0.085-0.155c0.075-0.128,0.147-0.257,0.214-0.39
	c0.048-0.094,0.093-0.188,0.136-0.283c0.058-0.126,0.112-0.253,0.163-0.383c0.042-0.108,0.082-0.216,0.119-0.325
	c0.04-0.118,0.077-0.237,0.111-0.358c0.035-0.124,0.067-0.249,0.096-0.374c0.025-0.109,0.047-0.218,0.067-0.328
	c0.026-0.14,0.047-0.28,0.064-0.421c0.012-0.101,0.023-0.202,0.032-0.304c0.013-0.152,0.02-0.303,0.023-0.454
	c0.001-0.057,0.009-0.113,0.009-0.171V208.87v-19.687v-4.825C512,181.574,510.461,179.018,508.001,177.719z M419.272,428.007
	c-3.524-2.179-8.146-1.083-10.322,2.445c-2.175,3.529-1.082,8.154,2.443,10.332l66.677,41.2H33.93L256,344.767l125.54,77.571
	c3.524,2.177,8.146,1.082,10.321-2.445c2.176-3.529,1.083-8.154-2.442-10.332l-118.905-73.472L497,202.329v6.54v267.164
	L419.272,428.007z M250.697,230.272L250.697,230.272l-3.957,3.979c-1.413,1.421-3.289,2.203-5.284,2.203s-3.871-0.783-5.284-2.204
	l-48.467-48.727c-2.939-2.955-2.939-7.763,0-10.718c1.413-1.421,3.29-2.203,5.284-2.203c1.995,0,3.872,0.782,5.285,2.203
	l37.867,38.071c1.408,1.415,3.32,2.21,5.315,2.21s3.907-0.795,5.315-2.21l66.955-67.314c1.414-1.421,3.291-2.204,5.285-2.204l0,0
	c1.994,0,3.87,0.783,5.284,2.204c2.939,2.955,2.939,7.762,0,10.717L250.697,230.272z M248.5,66.005v123.851l-7.044,7.082
	l-32.553-32.727c-4.249-4.271-9.901-6.624-15.914-6.624c-6.014,0-11.665,2.353-15.913,6.624c-8.75,8.797-8.75,23.111,0,31.907
	l48.466,48.726c4.249,4.272,9.901,6.625,15.915,6.625c2.432,0,4.799-0.403,7.044-1.144v67.256
	c-30.269-11.645-56.095-28.411-76.879-49.931c-15.697-16.247-24.341-37.743-24.341-60.528v-102.46L248.5,66.005z M493.435,187.001
	l-87.226,51.514c2.334-9.856,3.511-19.956,3.511-30.193v-65.558L493.435,187.001z M118.593,82.351l136.685-52.202
	c0.458-0.174,0.983-0.175,1.438-0.002l136.692,52.204c0.785,0.299,1.312,1.068,1.312,1.914v46.102c0,0.015,0,0.03,0,0.045v77.91
	c0,14.261-2.586,28.222-7.675,41.511l-24.841,14.67c11.383-16.762,17.516-36.615,17.516-57.383v-31.619
	c0-4.146-3.358-7.508-7.5-7.508s-7.5,3.361-7.5,7.508v31.619c0,22.794-8.644,44.29-24.342,60.529
	c-20.787,21.523-46.613,38.289-76.878,49.931v-78.9l71.424-71.807c8.751-8.797,8.751-23.11,0.001-31.906
	c-4.249-4.272-9.899-6.625-15.913-6.626c0,0,0,0-0.001,0c-6.013,0-11.665,2.353-15.915,6.625l-39.596,39.81V66.005l101.22,38.657
	v38.14c0,4.146,3.358,7.508,7.5,7.508s7.5-3.361,7.5-7.508V99.491c0-3.114-1.92-5.905-4.827-7.015l-116.22-44.385
	c-0.005-0.002-0.01-0.003-0.015-0.005c-0.19-0.072-0.385-0.125-0.58-0.182c-0.098-0.028-0.193-0.066-0.291-0.09
	c-0.166-0.041-0.335-0.063-0.503-0.092c-0.129-0.022-0.258-0.055-0.388-0.07c-0.11-0.013-0.221-0.012-0.332-0.02
	c-0.189-0.014-0.378-0.034-0.566-0.034c-0.073,0-0.146,0.011-0.22,0.013c-0.227,0.007-0.453,0.014-0.678,0.041
	c-0.081,0.01-0.16,0.031-0.24,0.044c-0.217,0.033-0.435,0.066-0.649,0.119c-0.089,0.022-0.177,0.057-0.266,0.082
	c-0.202,0.058-0.405,0.114-0.603,0.189c-0.005,0.002-0.011,0.003-0.017,0.005l-116.22,44.385c-2.906,1.11-4.827,3.9-4.827,7.015
	v107.63c0,20.763,6.135,40.618,17.522,57.386l-24.833-14.666c-5.098-13.265-7.689-27.209-7.689-41.518v-77.91
	c0-0.015,0-0.03,0-0.045V84.265C117.28,83.42,117.807,82.651,118.593,82.351z M105.795,238.517l-87.23-51.516l83.715-44.236v65.558
	C102.28,218.583,103.463,228.678,105.795,238.517z"/>
<g>
</g>
<g>
</g>
<g>
</g>
<g>
</g>
<g>
</g>
<g>
</g>
<g>
</g>
<g>
</g>
<g>
</g>
<g>
</g>
<g>
</g>
<g>
</g>
<g>
</g>
<g>
</g>
<g>
</g>
</svg>
