<svg xmlns="http://www.w3.org/2000/svg" viewBox="0 0 41.65 27"><title>home-dashboard-network</title><g id="Layer_2" data-name="Layer 2"><g id="Layer_1-2" data-name="Layer 1"><g id="_Group_" data-name="&lt;Group&gt;"><path id="_Path_" data-name="&lt;Path&gt;" d="M21.63,18.38H20a3.25,3.25,0,0,1-3.25-3.25v-1a8.22,8.22,0,0,0,1.56-2.93c0-.18.21-.27.32-.39a2,2,0,0,0,.28-2.42c-.06-.11-.18-.21-.17-.35,0-1,0-1.91,0-2.86a4.77,4.77,0,0,0-1.16-3.2A4.54,4.54,0,0,0,15.11.65a8.19,8.19,0,0,0-3.54.08A4.28,4.28,0,0,0,9,2.44,4.93,4.93,0,0,0,8.27,5c0,1,0,1.94,0,2.91,0,.19-.14.33-.22.49a2,2,0,0,0,.46,2.46,1,1,0,0,1,.28.54A7.86,7.86,0,0,0,10.25,14v1.08A3.25,3.25,0,0,1,7,18.37H5.38S2.43,19.19.5,23.25v1.63A1.62,1.62,0,0,0,2.13,26.5H24.88a1.62,1.62,0,0,0,1.63-1.63V23.25C24.57,19.19,21.63,18.38,21.63,18.38Z" fill="#c7eafb" stroke="#00aeef" stroke-miterlimit="10"/><g id="_Group_2" data-name="&lt;Group&gt;"><g id="_Group_3" data-name="&lt;Group&gt;"><path id="_Path_2" data-name="&lt;Path&gt;" d="M37.56,6.55h-15a1.61,1.61,0,0,1,0-3.22h15a1.61,1.61,0,0,1,0,3.22Z" fill="#00aeef"/></g><g id="_Group_4" data-name="&lt;Group&gt;"><path id="_Path_3" data-name="&lt;Path&gt;" d="M37.56,12.58H23.67a1.61,1.61,0,0,1,0-3.22h13.9a1.61,1.61,0,0,1,0,3.22Z" fill="#00aeef"/></g><g id="_Group_5" data-name="&lt;Group&gt;"><path id="_Path_4" data-name="&lt;Path&gt;" d="M37.56,18.61H28.72a1.61,1.61,0,1,1,0-3.22h8.85a1.61,1.61,0,1,1,0,3.22Z" fill="#00aeef"/></g></g><polyline id="_Path_5" data-name="&lt;Path&gt;" points="19.78 0.5 41.15 0.5 41.15 24.51" fill="none" stroke="#00aeef" stroke-linecap="round" stroke-linejoin="round"/></g></g></g></svg>