<svg xmlns="http://www.w3.org/2000/svg" viewBox="0 0 79.65 52.49"><title>home-dashboard-cta-handshake</title><g id="Layer_2" data-name="Layer 2"><g id="Layer_1-2" data-name="Layer 1"><g id="Layer_2-2" data-name="Layer 2"><g id="Layer_3" data-name="Layer 3"><polygon points="57.78 6.91 66.19 3.08 77.03 25 68.78 29.16 57.78 6.91" fill="#c7eafb"/><polygon points="10.52 2.84 19.78 5.41 11.53 29.5 2.53 26.16 10.52 2.84" fill="#c7eafb"/><polygon points="20.11 6.08 31.61 4.5 53.28 11.91 50.86 16.91 38.69 13.75 29.13 22.25 15.88 18.62 20.11 6.08" fill="#c7eafb"/><path d="M56.69,6.87l.72,2.88s.19,10-7.06,11c-2.82.37-10.07-2.5-10.07-2.5a13.4,13.4,0,0,1-5.17,6.08,15.29,15.29,0,0,1-8.75,2.08l-8.67,5.71,1.38,9.5L24,47.06,29.26,47l4.56,3.88L59.57,38.25,68.44,30Z" fill="#c7eafb"/><path d="M27.7,3.82l-1,.49a5.14,5.14,0,0,1-3.94.23L21.11,4a1.19,1.19,0,0,0-.29-.15L10.7.33a1.47,1.47,0,0,0-1.86.9L.33,26a1.46,1.46,0,0,0,.9,1.86h0l10.13,3.47a1.63,1.63,0,0,0,.47.08,1.47,1.47,0,0,0,1.39-1l8-23.35.55.19A8.15,8.15,0,0,0,28,6.93l1-.48a5.12,5.12,0,0,1,3.91-.24l18.62,6.41a3.82,3.82,0,0,1-1.29,2.2c-.79.55-2,.55-3.52,0L38.41,12a1.45,1.45,0,0,0-1.16.1,1.53,1.53,0,0,0-.73.92s-1.16,4.34-4.83,6.31c-2.31,1.24-5.18,1.29-8.56.15a1.47,1.47,0,0,0-1,2.76,17,17,0,0,0,5.46,1A11.25,11.25,0,0,0,33,21.92a13.42,13.42,0,0,0,5.75-6.69l6.93,2.37c2.47.86,4.54.73,6.14-.39,2.57-1.78,2.69-5.38,2.71-5.54a1.47,1.47,0,0,0-1-1.42L33.84,3.43A8.18,8.18,0,0,0,27.7,3.82ZM10.94,28.11,3.58,25.59l7.54-22,7.37,2.52Z" fill="#2bace2" stroke="#c7eafb" stroke-linecap="round" stroke-linejoin="round" stroke-width="0.5"/><path d="M66.5,29.77,63,33a44.48,44.48,0,0,1-10.55,7.2L34,49.2a1.66,1.66,0,1,1-1.44-3l.23-.11,10.08-4.93a1.46,1.46,0,1,0-1.27-2.63h0l-10.06,5L26.49,46a1.64,1.64,0,0,1-2.19-.75h0A1.6,1.6,0,0,1,24.21,44,1.64,1.64,0,0,1,25,43l3.83-1.87,11-5.36a1.46,1.46,0,1,0-1.28-2.63l-11,5.38-.42.21L21.9,41.3a1.59,1.59,0,0,1-1.25.08,1.64,1.64,0,0,1-.18-3l1.81-.89L26,35.68l1-.5L35.53,31a1.46,1.46,0,0,0-1.27-2.63h0l-9.21,4.51-4,2a1.64,1.64,0,0,1-2.19-.76,1.57,1.57,0,0,1-.08-1.24,1.62,1.62,0,0,1,.82-.94l7-3.44a1.46,1.46,0,1,0-1.27-2.63l-7,3.44A4.5,4.5,0,0,0,16,31.9a4.59,4.59,0,0,0,.21,3.49A4.51,4.51,0,0,0,17.61,37,4.56,4.56,0,0,0,21.2,44.4a4.4,4.4,0,0,0,.47,2.11,4.57,4.57,0,0,0,4.1,2.55,4.44,4.44,0,0,0,2-.47l1-.5a4.72,4.72,0,0,0,.43,1.6,4.58,4.58,0,0,0,4.1,2.55,4.43,4.43,0,0,0,2-.47l18.43-9A47.25,47.25,0,0,0,65,35.1l4.12-3.8,9.43-4.62a1.46,1.46,0,0,0,.71-1.94l0-.06L67.71,1.23a1.47,1.47,0,0,0-2-.7l0,0-9.63,4.7a1.47,1.47,0,0,0-.7,2l0,0ZM65.72,3.83,75.94,24.75l-7,3.42L58.73,7.26Z" fill="#2bace2" stroke="#c7eafb" stroke-linecap="round" stroke-linejoin="round" stroke-width="0.5"/></g></g></g></g></svg>