<svg xmlns="http://www.w3.org/2000/svg" viewBox="0 0 40.68 30"><title>home-dashboard-cta-vault</title><g id="Layer_2" data-name="Layer 2"><g id="Layer_1-2" data-name="Layer 1"><rect id="_Rectangle_" data-name="&lt;Rectangle&gt;" x="0.27" y="0.27" width="40.14" height="27.18" rx="1" ry="1" transform="translate(40.68 27.72) rotate(-180)" fill="#c7eafb"/><path id="_Compound_Path_" data-name="&lt;Compound Path&gt;" d="M0,27.09V.63A.63.63,0,0,1,.63,0H40.05a.63.63,0,0,1,.63.63V27.09a.63.63,0,0,1-.63.63H.63A.63.63,0,0,1,0,27.09ZM.63.54A.09.09,0,0,0,.54.63V27.09a.09.09,0,0,0,.09.09H40.05a.09.09,0,0,0,.09-.09V.63a.09.09,0,0,0-.09-.09Z" fill="#00aeef"/><rect id="_Rectangle_2" data-name="&lt;Rectangle&gt;" x="8.55" y="-4.41" width="23.59" height="36.55" rx="2" ry="2" transform="translate(34.2 -6.48) rotate(90)" fill="#eff9fe"/><path id="_Compound_Path_2" data-name="&lt;Compound Path&gt;" d="M1.8,24.93V2.79a1,1,0,0,1,1-1H37.89a1,1,0,0,1,1,1V24.93a1,1,0,0,1-1,1H2.79A1,1,0,0,1,1.8,24.93Zm1-22.6a.45.45,0,0,0-.45.45V24.93a.45.45,0,0,0,.45.45H37.89a.45.45,0,0,0,.45-.45V2.79a.45.45,0,0,0-.45-.45Z" fill="#00aeef"/><rect id="_Rectangle_3" data-name="&lt;Rectangle&gt;" x="34.18" y="27.45" width="5.15" height="2.28" transform="translate(73.51 57.18) rotate(-180)" fill="#c7eafb"/><path id="_Compound_Path_3" data-name="&lt;Compound Path&gt;" d="M33.91,29.73V27.45a.27.27,0,0,1,.27-.27h5.15a.27.27,0,0,1,.27.27v2.28a.27.27,0,0,1-.27.27H34.18A.27.27,0,0,1,33.91,29.73Zm5.15-2H34.45v1.74h4.61Z" fill="#00aeef"/><rect id="_Rectangle_4" data-name="&lt;Rectangle&gt;" x="1.35" y="27.45" width="5.15" height="2.28" transform="translate(7.85 57.18) rotate(-180)" fill="#c7eafb"/><path id="_Compound_Path_4" data-name="&lt;Compound Path&gt;" d="M1.08,29.73V27.45a.27.27,0,0,1,.27-.27H6.5a.27.27,0,0,1,.27.27v2.28A.27.27,0,0,1,6.5,30H1.35A.27.27,0,0,1,1.08,29.73Zm5.15-2H1.62v1.74H6.23Z" fill="#00aeef"/><g id="_Group_" data-name="&lt;Group&gt;"><rect id="_Rectangle_5" data-name="&lt;Rectangle&gt;" x="0.27" y="7.65" width="3.25" height="1.56" transform="translate(3.78 16.87) rotate(-180)" fill="#e1f4fd"/><path id="_Compound_Path_5" data-name="&lt;Compound Path&gt;" d="M0,9.22V7.65a.27.27,0,0,1,.27-.27H3.52a.27.27,0,0,1,.27.27V9.22a.27.27,0,0,1-.27.27H.27A.27.27,0,0,1,0,9.22ZM3.25,7.92H.54v1H3.25Z" fill="#00aeef"/></g><g id="_Group_2" data-name="&lt;Group&gt;"><rect id="_Rectangle_6" data-name="&lt;Rectangle&gt;" x="0.27" y="18.5" width="3.25" height="1.56" transform="translate(3.78 38.57) rotate(-180)" fill="#e1f4fd"/><path id="_Compound_Path_6" data-name="&lt;Compound Path&gt;" d="M0,20.07V18.5a.27.27,0,0,1,.27-.27H3.52a.27.27,0,0,1,.27.27v1.56a.27.27,0,0,1-.27.27H.27A.27.27,0,0,1,0,20.07Zm3.25-1.29H.54v1H3.25Z" fill="#00aeef"/></g><g id="_Group_3" data-name="&lt;Group&gt;"><g id="_Group_4" data-name="&lt;Group&gt;"><g id="_Group_5" data-name="&lt;Group&gt;"><path id="_Path_" data-name="&lt;Path&gt;" d="M30,16.43a2.6,2.6,0,0,0,1.56-.9,2.23,2.23,0,0,0,.24-.34l0,0a2.44,2.44,0,0,0,.18-.39,2.68,2.68,0,0,0,.15-.66c0-.08,0-.15,0-.23A2.65,2.65,0,0,0,32,13a2.59,2.59,0,0,0-.18-.39l0,0a2.42,2.42,0,0,0-.24-.34,2.61,2.61,0,0,0-1.57-.9l-.2,0h-.47l-.2,0a2.63,2.63,0,0,0-1.57.9,3.21,3.21,0,0,0-.24.34l0,0A2.6,2.6,0,0,0,27,13.86c0,.08,0,.16,0,.23a2.52,2.52,0,0,0,.15.66,2.44,2.44,0,0,0,.18.39l0,0a2.88,2.88,0,0,0,.24.34,2.63,2.63,0,0,0,1.57.9l.2,0h.46Z" fill="#c7eafb"/></g><g id="_Group_6" data-name="&lt;Group&gt;"><path id="_Path_2" data-name="&lt;Path&gt;" d="M31.56,15.52a2.6,2.6,0,0,1-1.56.9l-.21,0h-.46l-.2,0a2.63,2.63,0,0,1-1.57-.9,2.88,2.88,0,0,1-.24-.34l0,0a2.44,2.44,0,0,1-.18-.39,2.52,2.52,0,0,1-.15-.66l-.36,0a2.83,2.83,0,0,0,.19.82l-3.32,1.92a.44.44,0,0,0-.17.61.45.45,0,0,0,.39.23.47.47,0,0,0,.23-.06l3.32-1.92a3,3,0,0,0,1.86,1.07v3.84a.45.45,0,1,0,.9,0V16.78a3,3,0,0,0,1.86-1.07l3.33,1.92a.45.45,0,0,0,.61-.17.45.45,0,0,0-.17-.61l-3.33-1.92a2.84,2.84,0,0,0,.19-.82l-.36,0a2.68,2.68,0,0,1-.15.66,2.44,2.44,0,0,1-.18.39l0,0A2.23,2.23,0,0,1,31.56,15.52Z" fill="#00aeef"/></g><g id="_Group_7" data-name="&lt;Group&gt;"><path id="_Path_3" data-name="&lt;Path&gt;" d="M30,11.29a2.61,2.61,0,0,1,1.57.9,2.42,2.42,0,0,1,.24.34l0,0A2.59,2.59,0,0,1,32,13a2.65,2.65,0,0,1,.16.9c0,.08,0,.16,0,.23l.36,0a1.93,1.93,0,0,0,0-.25,3,3,0,0,0-.2-1.07l3.33-1.92a.45.45,0,0,0-.45-.78L31.87,12A3,3,0,0,0,30,10.93V7.09a.45.45,0,0,0-.9,0v3.84A3,3,0,0,0,27.25,12l-3.32-1.92a.45.45,0,0,0-.45.78l3.32,1.92a3,3,0,0,0-.2,1.07,1.93,1.93,0,0,0,0,.25l.36,0c0-.08,0-.15,0-.23a2.6,2.6,0,0,1,.35-1.29l0,0a3.21,3.21,0,0,1,.24-.34,2.63,2.63,0,0,1,1.57-.9l.2,0h.47Z" fill="#00aeef"/></g></g></g><g id="_Group_8" data-name="&lt;Group&gt;"><circle id="_Path_4" data-name="&lt;Path&gt;" cx="29.56" cy="13.86" r="0.89" fill="#00aeef"/></g><g id="_Group_9" data-name="&lt;Group&gt;"><rect id="_Rectangle_7" data-name="&lt;Rectangle&gt;" x="7.46" y="8.36" width="10.17" height="1.94" transform="translate(25.09 18.65) rotate(-180)" fill="#c7eafb"/><path id="_Compound_Path_7" data-name="&lt;Compound Path&gt;" d="M7.19,10.29V8.35a.27.27,0,0,1,.27-.27H17.63a.27.27,0,0,1,.27.27v1.94a.27.27,0,0,1-.27.27H7.46A.27.27,0,0,1,7.19,10.29ZM17.36,8.62H7.73V10h9.63Z" fill="#00aeef"/></g><g id="_Group_10" data-name="&lt;Group&gt;"><rect id="_Path_5" data-name="&lt;Path&gt;" x="16.15" y="12.04" width="1.47" height="1.24" rx="0.18" ry="0.18" fill="#00aeef"/></g><g id="_Group_11" data-name="&lt;Group&gt;"><rect id="_Path_6" data-name="&lt;Path&gt;" x="11.81" y="12.04" width="1.47" height="1.24" rx="0.18" ry="0.18" fill="#00aeef"/></g><g id="_Group_12" data-name="&lt;Group&gt;"><rect id="_Path_7" data-name="&lt;Path&gt;" x="7.46" y="12.04" width="1.47" height="1.24" rx="0.18" ry="0.18" fill="#00aeef"/></g><g id="_Group_13" data-name="&lt;Group&gt;"><rect id="_Path_8" data-name="&lt;Path&gt;" x="16.15" y="15.08" width="1.47" height="1.24" rx="0.18" ry="0.18" fill="#00aeef"/></g><g id="_Group_14" data-name="&lt;Group&gt;"><rect id="_Path_9" data-name="&lt;Path&gt;" x="11.81" y="15.08" width="1.47" height="1.24" rx="0.18" ry="0.18" fill="#00aeef"/></g><g id="_Group_15" data-name="&lt;Group&gt;"><rect id="_Path_10" data-name="&lt;Path&gt;" x="7.46" y="15.08" width="1.47" height="1.24" rx="0.18" ry="0.18" fill="#00aeef"/></g><g id="_Group_16" data-name="&lt;Group&gt;"><rect id="_Path_11" data-name="&lt;Path&gt;" x="16.15" y="18.12" width="1.47" height="1.24" rx="0.18" ry="0.18" fill="#00aeef"/></g><g id="_Group_17" data-name="&lt;Group&gt;"><rect id="_Path_12" data-name="&lt;Path&gt;" x="11.81" y="18.12" width="1.47" height="1.24" rx="0.18" ry="0.18" fill="#00aeef"/></g><g id="_Group_18" data-name="&lt;Group&gt;"><rect id="_Path_13" data-name="&lt;Path&gt;" x="7.46" y="18.12" width="1.47" height="1.24" rx="0.18" ry="0.18" fill="#00aeef"/></g></g></g></svg>