<?xml version="1.0" encoding="iso-8859-1"?>
<!-- Generator: Adobe Illustrator 19.0.0, SVG Export Plug-In . SVG Version: 6.00 Build 0)  -->
<svg version="1.1" id="Capa_1" xmlns="http://www.w3.org/2000/svg" xmlns:xlink="http://www.w3.org/1999/xlink" x="0px" y="0px"
	 viewBox="0 0 342 342" style="enable-background:new 0 0 342 342;" xml:space="preserve">
<path style="fill:#FF5E4C;" d="M269.2,149.6V42.4c0-19.6-16-35.6-35.6-35.6H108.4c-19.6,0-35.6,16-35.6,35.6v107.2V300
	c0,19.6,16,35.6,35.6,35.6h125.2c19.6,0,35.6-16,35.6-35.6V149.6z"/>
<rect x="72.4" y="68.4" style="fill:#FDFDFD;" width="196.8" height="206.8"/>
<path d="M233.2,342H108.4C85.2,342,66,323.2,66,299.6V42.4C66,19.2,84.8,0,108.4,0h125.2C256.8,0,276,18.8,276,42.4V300
	C275.6,323.2,256.8,342,233.2,342z M108.4,13.2c-16,0-29.2,13.2-29.2,29.2V300c0,16,13.2,29.2,29.2,29.2h125.2
	c16,0,29.2-13.2,29.2-29.2V42.4c0-16-13.2-29.2-29.2-29.2H108.4z"/>
<path style="fill:#FDC028;" d="M216.8,158v63.2c0,8.4-6.8,15.2-15.2,15.2H140c-8.4,0-15.2-6.8-15.2-15.2V158H216.8z"/>
<path d="M201.6,242.8H140c-12,0-21.6-9.6-21.6-21.6V158c0-3.6,2.8-6.4,6.4-6.4h92c3.6,0,6.4,2.8,6.4,6.4v63.2
	C223.2,233.2,213.6,242.8,201.6,242.8z M131.2,164.4v56.8c0,4.8,4,8.8,8.8,8.8h61.6c4.8,0,8.4-4,8.4-8.8v-56.8H131.2z"/>
<path d="M198.4,164.4c-3.6,0-6.4-2.8-6.4-6.4v-26c0-10.8-9.6-19.6-21.2-19.6s-21.2,8.8-21.2,19.6v26c0,3.6-2.8,6.4-6.4,6.4
	c-3.6,0-6.4-2.8-6.4-6.4v-26c0-18,15.2-32.4,34-32.4s34,14.8,34,32.4v26C204.8,161.6,202,164.4,198.4,164.4z"/>
<circle style="fill:#FDFDFD;" cx="170.8" cy="188.4" r="12"/>
<path d="M170.8,206.8c-10.4,0-18.4-8.4-18.4-18.4s8.4-18.4,18.4-18.4s18.4,8.4,18.4,18.4S180.8,206.8,170.8,206.8z M170.8,182.8
	c-3.2,0-5.6,2.4-5.6,5.6s2.4,5.6,5.6,5.6s5.6-2.4,5.6-5.6S174,182.8,170.8,182.8z"/>
<path d="M170.8,223.2c-3.6,0-6.4-2.8-6.4-6.4v-16.4c0-3.6,2.8-6.4,6.4-6.4c3.6,0,6.4,2.8,6.4,6.4v16.4
	C177.2,220.4,174.4,223.2,170.8,223.2z"/>
<path d="M269.2,281.2H72.4c-3.6,0-6.4-2.8-6.4-6.4s2.8-6.4,6.4-6.4h196.8c3.6,0,6.4,2.8,6.4,6.4
	C275.6,278.4,272.8,281.2,269.2,281.2z"/>
<path d="M269.2,74.8H72.4c-3.6,0-6.4-2.8-6.4-6.4c0-3.6,2.8-6.4,6.4-6.4h196.8c3.6,0,6.4,2.8,6.4,6.4
	C275.6,71.6,272.8,74.8,269.2,74.8z"/>
<circle cx="170.8" cy="305.2" r="18"/>
<g>
</g>
<g>
</g>
<g>
</g>
<g>
</g>
<g>
</g>
<g>
</g>
<g>
</g>
<g>
</g>
<g>
</g>
<g>
</g>
<g>
</g>
<g>
</g>
<g>
</g>
<g>
</g>
<g>
</g>
</svg>
