<svg xmlns="http://www.w3.org/2000/svg" viewBox="0 0 33.06 30"><title>interaction-sync</title><g id="Layer_2" data-name="Layer 2"><g id="Layer_1-2" data-name="Layer 1"><g id="_Group_" data-name="&lt;Group&gt;"><g id="_Group_2" data-name="&lt;Group&gt;"><path id="_Path_" data-name="&lt;Path&gt;" d="M26.81,18.74A10.93,10.93,0,0,1,8.47,22.37L12.52,19a.71.71,0,0,0-.34-1.25L1.38,15.88a.71.71,0,0,0-.83.7l-.06,11a.71.71,0,0,0,1.17.55l4.09-3.43A14.49,14.49,0,0,0,30.16,20a1.78,1.78,0,1,0-3.35-1.21Z" fill="#eff9fe"/><path id="_Compound_Path_" data-name="&lt;Compound Path&gt;" d="M16.54,30A14.92,14.92,0,0,1,5.7,25.33L2,28.46a1.18,1.18,0,0,1-1.28.17A1.18,1.18,0,0,1,0,27.54l.06-11a1.2,1.2,0,0,1,1.4-1.17l10.81,1.84a1.2,1.2,0,0,1,.57,2.09L9.18,22.41a10.45,10.45,0,0,0,17.18-3.83h0a2.26,2.26,0,1,1,4.26,1.54A15,15,0,0,1,16.54,30ZM5.79,24l.31.35a14,14,0,0,0,23.6-4.54,1.3,1.3,0,1,0-2.44-.88A11.41,11.41,0,0,1,8.11,22.7l-.34-.37,4.44-3.73a.23.23,0,0,0-.11-.4L1.3,16.36a.23.23,0,0,0-.19.05.23.23,0,0,0-.08.17L1,27.55a.23.23,0,0,0,.38.18Z" fill="#00aeef"/></g><g id="_Group_3" data-name="&lt;Group&gt;"><path id="_Path_2" data-name="&lt;Path&gt;" d="M31.41,1.91,27.32,5.34A14.49,14.49,0,0,0,2.91,10a1.78,1.78,0,0,0,3.35,1.21A10.93,10.93,0,0,1,24.59,7.63L20.54,11a.71.71,0,0,0,.34,1.25l10.81,1.84a.71.71,0,0,0,.83-.7l.06-11A.71.71,0,0,0,31.41,1.91Z" fill="#eff9fe"/><path id="_Compound_Path_2" data-name="&lt;Compound Path&gt;" d="M31.81,14.61l-.2,0L20.8,12.75a1.2,1.2,0,0,1-.57-2.09l3.66-3.07A10.45,10.45,0,0,0,6.71,11.42,2.26,2.26,0,1,1,2.45,9.88a15,15,0,0,1,24.91-5.2L31.1,1.54a1.2,1.2,0,0,1,2,.92l-.06,11a1.2,1.2,0,0,1-1.19,1.19Zm-15.29-11A11.39,11.39,0,0,1,25,7.3l.34.37L20.85,11.4a.23.23,0,0,0,.11.4l10.81,1.84a.22.22,0,0,0,.19-.05.23.23,0,0,0,.08-.17l.06-11a.23.23,0,0,0-.38-.18L27.27,6,27,5.66a14,14,0,0,0-23.6,4.55,1.3,1.3,0,0,0,2.44.88A11.44,11.44,0,0,1,16.52,3.57Z" fill="#00aeef"/></g></g></g></g></svg>