<svg xmlns="http://www.w3.org/2000/svg" viewBox="0 0 32.94 28.39"><title>interaction-evt</title><g id="Layer_2" data-name="Layer 2"><g id="Layer_1-2" data-name="Layer 1"><g id="_Group_" data-name="&lt;Group&gt;"><rect id="_Rectangle_" data-name="&lt;Rectangle&gt;" x="0.5" y="2.69" width="31.94" height="25.2" rx="1" ry="1" fill="#eff9fe"/><g id="_Group_2" data-name="&lt;Group&gt;"><path id="_Path_" data-name="&lt;Path&gt;" d="M16.65,13.74l1.53,3.09,3.42.5a.2.2,0,0,1,.11.34l-2.47,2.41.58,3.4a.2.2,0,0,1-.29.21l-3.05-1.61-3.05,1.61a.2.2,0,0,1-.29-.21l.58-3.4-2.47-2.41a.2.2,0,0,1,.11-.34l3.42-.5,1.53-3.09A.2.2,0,0,1,16.65,13.74Z" fill="#00aeef"/></g><path id="_Compound_Path_" data-name="&lt;Compound Path&gt;" d="M31.44,2.19h-4V1a1,1,0,0,0-2,0V2.19H7.51V1a1,1,0,0,0-2,0V2.19H0v24.7a1.5,1.5,0,0,0,1.5,1.5H31.44a1.5,1.5,0,0,0,1.5-1.5V2.19Zm.5,24.7a.5.5,0,0,1-.5.5H1.5a.5.5,0,0,1-.5-.5V11.43H31.94Z" fill="#00aeef"/></g></g></g></svg>