<svg xmlns="http://www.w3.org/2000/svg" viewBox="0 0 32.94 28.39"><title>interaction-cta-event-personal</title><g id="Layer_2" data-name="Layer 2"><g id="Layer_1-2" data-name="Layer 1"><g id="Layer_1-2-2" data-name="Layer 1-2"><g id="_Group_" data-name=" Group "><g id="_Group_2" data-name=" Group 2"><path id="_Path_" data-name=" Path " d="M16.65,13.74l1.53,3.09,3.42.5a.2.2,0,0,1,.11.34l-2.47,2.41.58,3.4a.2.2,0,0,1-.29.21l-3-1.61-3.05,1.61a.2.2,0,0,1-.29-.21l.58-3.4-2.47-2.41a.2.2,0,0,1,.11-.34l3.42-.5,1.53-3.09a.2.2,0,0,1,.28-.06Z" fill="#aaa"/></g><path id="_Compound_Path_" data-name=" Compound Path " d="M31.44,2.19h-4V1a1,1,0,0,0-2,0V2.19H7.51V1a1,1,0,0,0-2,0V2.19H0v24.7a1.5,1.5,0,0,0,1.5,1.5H31.44a1.5,1.5,0,0,0,1.5-1.5h0V2.19Zm.5,24.7a.5.5,0,0,1-.5.5H1.5a.5.5,0,0,1-.5-.5V11.43H31.94Z" fill="#aaa"/></g></g></g></g></svg>