<svg xmlns="http://www.w3.org/2000/svg" viewBox="0 0 206.25 156.69"><defs><style>.cls-1{fill:#00adef;}</style></defs><title>interaction</title><g id="Layer_2" data-name="Layer 2"><g id="Layer_1-2" data-name="Layer 1"><g id="Layer_2-2" data-name="Layer 2"><g id="Layer_1-2-2" data-name="Layer 1-2"><path id="_Compound_Path_" data-name=" Compound Path " class="cls-1" d="M152.76,10,155,1.49A1.15,1.15,0,0,0,153.6.05L128.3,6.88a1.15,1.15,0,0,0-.51,1.92l18.57,18.49a1.15,1.15,0,0,0,1.92-.52l2.23-8.39a61.42,61.42,0,1,1-38.58,116.17,70.17,70.17,0,0,0,0-113l.13,0A50.76,50.76,0,0,0,103.23,16h-.06l-.59-.3-.31-.11h0A70.18,70.18,0,1,0,55,146.56l-1.41,8.76A1.15,1.15,0,0,0,55,156.63l24.49-9.33a1.15,1.15,0,0,0,.32-2L59.57,128.8a1.15,1.15,0,0,0-1.85.71L56.36,138a61.43,61.43,0,1,1,38-116.31,70.17,70.17,0,0,0,0,113h0c1.2.94,5.46,4.22,8.68,5.53l.13-.06A70.18,70.18,0,1,0,152.76,10Zm-49.6,16.34a61.21,61.21,0,0,1,5.52,4L88.1,39.89A61.43,61.43,0,0,1,103.16,26.29Zm-23.24,27,35.63-16.62a61.79,61.79,0,0,1,6,7.72L75.92,65.72a61.47,61.47,0,0,1,4-12.38ZM74.64,78.12c0-.72,0-1.43.07-2.15l51.14-23.84a61.63,61.63,0,0,1,3.37,8.92l-54,25.2A60.81,60.81,0,0,1,74.64,78.12ZM77,95.05l54-25.2a60.87,60.87,0,0,1,.57,8.25,18.72,18.72,0,0,1-.07,2l-51.1,23.95A61.63,61.63,0,0,1,77,95.05Zm13.62,24.36a61.83,61.83,0,0,1-6-7.72l45.73-21.32a61.46,61.46,0,0,1-4,12.37Zm6.87,6.48,20.81-9.7a61.43,61.43,0,0,1-15.21,13.73,61.13,61.13,0,0,1-5.57-4Z"/></g></g></g></g></svg>