<svg xmlns="http://www.w3.org/2000/svg" viewBox="0 0 30 30"><title>interaction-srfi</title><g id="Layer_2" data-name="Layer 2"><g id="Layer_1-2" data-name="Layer 1"><g id="_Group_" data-name="&lt;Group&gt;"><g id="_Group_2" data-name="&lt;Group&gt;"><g id="_Group_3" data-name="&lt;Group&gt;"><g id="_Group_4" data-name="&lt;Group&gt;"><path id="_Compound_Path_" data-name="&lt;Compound Path&gt;" d="M15,26A11,11,0,1,1,26,15,11,11,0,0,1,15,26ZM15,5A10,10,0,1,0,25,15,10,10,0,0,0,15,5Z" fill="#00aeef"/></g></g><g id="_Group_5" data-name="&lt;Group&gt;"><g id="_Group_6" data-name="&lt;Group&gt;"><path id="_Path_" data-name="&lt;Path&gt;" d="M26.24,20.68a.5.5,0,0,1-.45-.71,11.67,11.67,0,0,0,.63-1.67A11.87,11.87,0,0,0,26.88,15a.5.5,0,0,1,1,0,12.79,12.79,0,0,1-1.19,5.41A.5.5,0,0,1,26.24,20.68Z" fill="#00aeef"/></g></g><g id="_Group_7" data-name="&lt;Group&gt;"><g id="_Group_8" data-name="&lt;Group&gt;"><path id="_Path_2" data-name="&lt;Path&gt;" d="M3.59,10.64a.49.49,0,0,1-.2,0,.5.5,0,0,1-.27-.66c.16-.38.34-.76.54-1.12a13,13,0,0,1,.84-1.34.5.5,0,0,1,.82.58A11.84,11.84,0,0,0,4.55,9.3c-.18.33-.35.68-.5,1A.5.5,0,0,1,3.59,10.64Z" fill="#00aeef"/></g></g><g id="_Group_9" data-name="&lt;Group&gt;"><g id="_Group_10" data-name="&lt;Group&gt;"><path id="_Path_3" data-name="&lt;Path&gt;" d="M15,27.9" fill="#00aeef"/></g></g><g id="_Group_11" data-name="&lt;Group&gt;"><g id="_Group_12" data-name="&lt;Group&gt;"><path id="_Path_4" data-name="&lt;Path&gt;" d="M26.49,10.82a.5.5,0,0,1-.46-.31c-.07-.18-.15-.35-.23-.52s-.17-.35-.26-.52A.5.5,0,1,1,26.43,9q.14.28.28.56t.25.57a.5.5,0,0,1-.46.69Z" fill="#00aeef"/></g></g><g id="_Group_13" data-name="&lt;Group&gt;"><g id="_Group_14" data-name="&lt;Group&gt;"><path id="_Path_5" data-name="&lt;Path&gt;" d="M3,7.39a.5.5,0,0,1-.42-.78,15,15,0,0,1,6.6-5.43A14.82,14.82,0,0,1,12,.3a15.2,15.2,0,0,1,6,0,14.92,14.92,0,0,1,5.36,2.26.5.5,0,1,1-.56.83,13.92,13.92,0,0,0-5-2.11,14.21,14.21,0,0,0-5.64,0,13.95,13.95,0,0,0-5,2.11A14.07,14.07,0,0,0,3.39,7.17.5.5,0,0,1,3,7.39Z" fill="#00aeef"/></g></g><g id="_Group_15" data-name="&lt;Group&gt;"><g id="_Group_16" data-name="&lt;Group&gt;"><path id="_Path_6" data-name="&lt;Path&gt;" d="M4.75,25.75a.5.5,0,0,1-.35-.15,15,15,0,0,1-3.21-4.77A14.88,14.88,0,0,1,.3,18a15.14,15.14,0,0,1,0-6,.5.5,0,1,1,1,.2A14,14,0,0,0,5.1,24.9a.5.5,0,0,1-.35.86Z" fill="#00aeef"/></g></g><g id="_Group_17" data-name="&lt;Group&gt;"><g id="_Group_18" data-name="&lt;Group&gt;"><path id="_Path_7" data-name="&lt;Path&gt;" d="M15,30a15.08,15.08,0,0,1-3-.3,14.93,14.93,0,0,1-2.82-.87.5.5,0,1,1,.39-.92,14,14,0,0,0,2.63.82,14.21,14.21,0,0,0,5.64,0,14,14,0,0,0,2.63-.82.5.5,0,1,1,.39.92A14.93,14.93,0,0,1,18,29.7,15.08,15.08,0,0,1,15,30Z" fill="#00aeef"/></g></g><g id="_Group_19" data-name="&lt;Group&gt;"><g id="_Group_20" data-name="&lt;Group&gt;"><path id="_Path_8" data-name="&lt;Path&gt;" d="M25.25,25.75a.5.5,0,0,1-.35-.86,14,14,0,0,0,3-4.45,14,14,0,0,0,.82-2.63A14.13,14.13,0,0,0,29,15a.5.5,0,0,1,1,0,15,15,0,0,1-4.39,10.61A.5.5,0,0,1,25.25,25.75Z" fill="#00aeef"/></g></g><g id="_Group_21" data-name="&lt;Group&gt;"><g id="_Group_22" data-name="&lt;Group&gt;"><path id="_Path_9" data-name="&lt;Path&gt;" d="M28.36,9.86a.5.5,0,0,1-.46-.31,14,14,0,0,0-1.29-2.38.5.5,0,1,1,.83-.56,15,15,0,0,1,1.38,2.55.5.5,0,0,1-.27.66A.49.49,0,0,1,28.36,9.86Z" fill="#00aeef"/></g></g><g id="_Group_23" data-name="&lt;Group&gt;"><g id="_Group_24" data-name="&lt;Group&gt;"><path id="_Path_10" data-name="&lt;Path&gt;" d="M23.75,6.73a.5.5,0,0,1-.35-.15A11.85,11.85,0,0,0,19.62,4a12,12,0,0,0-9.24,0A11.85,11.85,0,0,0,6.6,6.58a.5.5,0,1,1-.71-.71A12.84,12.84,0,0,1,10,3.11a13,13,0,0,1,10,0,12.84,12.84,0,0,1,4.09,2.76.5.5,0,0,1-.35.86Z" fill="#00aeef"/></g></g><g id="_Group_25" data-name="&lt;Group&gt;"><g id="_Group_26" data-name="&lt;Group&gt;"><path id="_Path_11" data-name="&lt;Path&gt;" d="M10.18,26.88a.49.49,0,0,1-.2,0A12.87,12.87,0,0,1,2.12,15a.5.5,0,0,1,1,0,11.89,11.89,0,0,0,7.25,10.94.5.5,0,0,1-.2,1Z" fill="#00aeef"/></g></g><g id="_Group_27" data-name="&lt;Group&gt;"><g id="_Group_28" data-name="&lt;Group&gt;"><path id="_Path_12" data-name="&lt;Path&gt;" d="M19.82,26.88a.5.5,0,0,1-.2-1,11.85,11.85,0,0,0,3.77-2.54.5.5,0,1,1,.71.71A12.83,12.83,0,0,1,20,26.84.49.49,0,0,1,19.82,26.88Z" fill="#00aeef"/></g></g><g id="_Group_29" data-name="&lt;Group&gt;"><path id="_Compound_Path_2" data-name="&lt;Compound Path&gt;" d="M15,6.6A8.4,8.4,0,1,0,23.4,15,8.4,8.4,0,0,0,15,6.6Z" fill="#eff9fe"/><path id="_Compound_Path_3" data-name="&lt;Compound Path&gt;" d="M15,23.9A8.9,8.9,0,1,1,23.9,15,8.91,8.91,0,0,1,15,23.9ZM15,7.1A7.9,7.9,0,1,0,22.9,15,7.91,7.91,0,0,0,15,7.1Z" fill="#00aeef"/></g></g><path id="_Path_13" data-name="&lt;Path&gt;" d="M15.08,8.73A1.27,1.27,0,1,1,13.73,10,1.29,1.29,0,0,1,15.08,8.73Z" fill="#00aeef"/><path id="_Path_14" data-name="&lt;Path&gt;" d="M17.18,20.38H13v-.75l.86-.19c0-.76,0-1.73,0-2.4v-.8c0-.88,0-1.37,0-2l-1-.14v-.62l3.33-1.07.27.18,0,2.31V17c0,.67,0,1.66,0,2.44l.8.16Z" fill="#00aeef"/></g></g></g></svg>