<svg xmlns="http://www.w3.org/2000/svg" viewBox="0 0 46.17 30"><title>interaction-push</title><g id="Layer_2" data-name="Layer 2"><g id="Layer_1-2" data-name="Layer 1"><path id="_Path_" data-name="&lt;Path&gt;" d="M35.16,6.07a11,11,0,0,0-1.77.15h0A13.8,13.8,0,0,0,8.41,11.68H8.2A8.09,8.09,0,0,0,.14,19.16a8.18,8.18,0,0,0,8.29,8.69H34.9a10.89,10.89,0,1,0,.26-21.79Z" fill="#eff9fe"/><path id="_Path_2" data-name="&lt;Path&gt;" d="M19.85,29.61a.14.14,0,0,1-.14-.14V20.91a.64.64,0,0,0-.64-.64h-4.5a.14.14,0,0,1-.1-.25L23,11.49a.14.14,0,0,1,.2,0L31.71,20a.14.14,0,0,1-.1.25h-4.5a.65.65,0,0,0-.64.64v8.56a.14.14,0,0,1-.14.14Z" fill="#fff"/><path id="_Compound_Path_" data-name="&lt;Compound Path&gt;" d="M46.14,16.18A11.2,11.2,0,0,0,33.42,5.83,14.07,14.07,0,0,0,8.24,11.24,8.48,8.48,0,0,0,0,19.06a8.27,8.27,0,0,0,2.21,6.3,8.8,8.8,0,0,0,6.44,2.78H19.13v1.09a.78.78,0,0,0,.78.78h6.36a.78.78,0,0,0,.78-.78V28.13h7.67a11.62,11.62,0,0,0,8.46-3.64A11,11,0,0,0,46.14,16.18ZM26.41,20.81v8.42a.14.14,0,0,1-.14.14H19.9a.14.14,0,0,1-.14-.14V20.81a.63.63,0,0,0-.63-.63H14.7a.14.14,0,0,1-.1-.24L23,11.55a.14.14,0,0,1,.1,0,.14.14,0,0,1,.1,0l8.39,8.39a.14.14,0,0,1-.1.24H27A.63.63,0,0,0,26.41,20.81Zm16,3a10.63,10.63,0,0,1-7.74,3.33H27V20.81h4.43A.78.78,0,0,0,32,19.49L23.63,11.1a.78.78,0,0,0-1.1,0l-8.39,8.39a.78.78,0,0,0,.55,1.32h4.43v6.34H8.67A7.81,7.81,0,0,1,3,24.69a7.29,7.29,0,0,1-2-5.56,7.49,7.49,0,0,1,7.44-6.91h.62l.07-.42A13.08,13.08,0,0,1,32.78,6.63l.21.27.3-.05a10.22,10.22,0,0,1,11.86,9.41A10,10,0,0,1,42.45,23.83Z" fill="#00aeef"/></g></g></svg>