<svg xmlns="http://www.w3.org/2000/svg" viewBox="0 0 37.36 33.72"><title>interaction-sync-manual</title><g id="Layer_2" data-name="Layer 2"><g id="Layer_1-2" data-name="Layer 1"><g id="_Group_" data-name="&lt;Group&gt;"><path id="_Compound_Path_" data-name="&lt;Compound Path&gt;" d="M36,1.62l-4.76,4A16.86,16.86,0,0,0,2.82,11.09a2.07,2.07,0,0,0,3.9,1.41A12.72,12.72,0,0,1,28.06,8.28L26.21,9.84l-.13,0-1.64.95a8.37,8.37,0,0,0-3.54-2V7a1.06,1.06,0,0,0-1.06-1.06H17.42A1.06,1.06,0,0,0,16.36,7V8.79a8.37,8.37,0,0,0-3.54,2l-1.54-.89a1.06,1.06,0,0,0-1.45.39l-1.21,2.1A1.06,1.06,0,0,0,9,13.87l1.52.88a8.41,8.41,0,0,0,0,4.13l-.83.48L1,17.89a.83.83,0,0,0-1,.81L0,31.46a.83.83,0,0,0,1.36.64l4.76-4a16.86,16.86,0,0,0,28.42-5.47,2.07,2.07,0,1,0-3.9-1.41A12.72,12.72,0,0,1,9.3,25.44l2.36-2,1.09-.63a8.37,8.37,0,0,0,3.61,2.1v1.79a1.06,1.06,0,0,0,1.06,1.06h2.42a1.06,1.06,0,0,0,1.06-1.06V24.93a8.37,8.37,0,0,0,3.61-2.1l1.52.88a1.11,1.11,0,0,0,1.52-.41l1.19-2.05a1.06,1.06,0,0,0-.39-1.45l-1.59-.92a8.42,8.42,0,0,0,0-4.13l.73-.42,8.84,1.51a.83.83,0,0,0,1-.81l.07-12.76A.83.83,0,0,0,36,1.62ZM18.68,22.35a5.49,5.49,0,1,1,5.49-5.49A5.49,5.49,0,0,1,18.68,22.35Z" fill="#ababab"/><path id="_Compound_Path_2" data-name="&lt;Compound Path&gt;" d="M21.87,14.64l.44-.44a.2.2,0,0,0,0-.28l-.69-.69a.2.2,0,0,0-.28,0l-.44.44A3.84,3.84,0,0,0,19.37,13v-.62a.2.2,0,0,0-.2-.2h-1a.2.2,0,0,0-.2.2V13a3.86,3.86,0,0,0-1.53.63L16,13.23a.2.2,0,0,0-.28,0l-.69.69a.2.2,0,0,0,0,.28l.44.44a3.88,3.88,0,0,0-.63,1.53h-.62a.2.2,0,0,0-.2.2v1a.2.2,0,0,0,.2.2h.62a3.88,3.88,0,0,0,.63,1.53l-.44.44a.2.2,0,0,0,0,.28l.69.69a.19.19,0,0,0,.28,0l.44-.44a3.86,3.86,0,0,0,1.53.63v.62a.2.2,0,0,0,.2.2h1a.2.2,0,0,0,.2-.2v-.62a3.88,3.88,0,0,0,1.53-.63l.44.44a.19.19,0,0,0,.28,0l.69-.69a.2.2,0,0,0,0-.28l-.44-.44a3.85,3.85,0,0,0,.63-1.53h.62a.2.2,0,0,0,.2-.2v-1a.2.2,0,0,0-.2-.2h-.62A3.85,3.85,0,0,0,21.87,14.64ZM18.68,19a2.16,2.16,0,1,1,2.16-2.17A2.17,2.17,0,0,1,18.68,19Z" fill="#ababab"/></g></g></g></svg>