<svg xmlns="http://www.w3.org/2000/svg" viewBox="0 0 34.07 30"><title>interaction-ad</title><g id="Layer_2" data-name="Layer 2"><g id="Layer_1-2" data-name="Layer 1"><g id="_Group_" data-name="&lt;Group&gt;"><path id="_Path_" data-name="&lt;Path&gt;" d="M30.3,1.27a.36.36,0,0,0-.36-.35.36.36,0,0,0-.18,0A57.11,57.11,0,0,1,3.53,8.22,2.72,2.72,0,0,0,.91,10.95v4.56a2.71,2.71,0,0,0,2.6,2.73c1,0,2.07.1,3.08.18s2.07.2,3.08.33A54.88,54.88,0,0,1,29.76,25.5a.36.36,0,0,0,.18,0,.36.36,0,0,0,.36-.35V1.27Z" fill="#c7eafb"/><path id="_Path_2" data-name="&lt;Path&gt;" d="M29.55,25.88a55,55,0,0,0-26-7.21,3.16,3.16,0,0,1-3-3.17V10.95a3.17,3.17,0,0,1,3-3.16,56.57,56.57,0,0,0,26-7.2.79.79,0,0,1,1.18.69V25.2A.79.79,0,0,1,29.55,25.88Z" fill="#eff9fe"/><path id="_Compound_Path_" data-name="&lt;Compound Path&gt;" d="M34.07,13.23a3.32,3.32,0,0,0-2.86-3.29V1.27A1.27,1.27,0,0,0,29.32.16,55.5,55.5,0,0,1,10.59,6.63v-.2A.79.79,0,1,0,9,6.42v.42c-1.79.23-3.63.38-5.51.46A3.63,3.63,0,0,0,0,10.95v4.56a3.61,3.61,0,0,0,3.49,3.64c1,0,2,.1,3,.18a1.53,1.53,0,0,0,0,.19L10,29a1.58,1.58,0,0,0,3-1.08l-2.68-7.34a.78.78,0,0,0,.26-.58v-.16a54,54,0,0,1,18.73,6.5,1.26,1.26,0,0,0,1.27,0,1.25,1.25,0,0,0,.62-1.09V16.52A3.32,3.32,0,0,0,34.07,13.23ZM1,15.51V10.95A2.68,2.68,0,0,1,3.53,8.26C5.4,8.18,7.22,8,9,7.81v2.34H4.78a.4.4,0,0,0,0,.79H9V12.6H4.78a.4.4,0,0,0,0,.79H9v1.66H4.78a.4.4,0,0,0,0,.79H9v2.77c-1.78-.22-3.61-.36-5.48-.42A2.67,2.67,0,0,1,1,15.51ZM30.26,25.2a.31.31,0,0,1-.15.27.32.32,0,0,1-.32,0h0a54.93,54.93,0,0,0-19.19-6.64V7.59A56.41,56.41,0,0,0,29.78,1a.32.32,0,0,1,.32,0,.31.31,0,0,1,.15.27Z" fill="#00aeef"/></g></g></g></svg>