<svg xmlns="http://www.w3.org/2000/svg" viewBox="0 0 28 30"><title>interaction-reg</title><g id="Layer_2" data-name="Layer 2"><g id="Layer_1-2" data-name="Layer 1"><g id="_Group_" data-name="&lt;Group&gt;"><g id="_Group_2" data-name="&lt;Group&gt;"><path id="_Path_" data-name="&lt;Path&gt;" d="M24.21,28.77a70.49,70.49,0,0,1-21.64,0,1.6,1.6,0,0,1-1.34-1.32,70.48,70.48,0,0,1,0-21.64A1.61,1.61,0,0,1,2.58,4.45a70.48,70.48,0,0,1,21.64,0,1.61,1.61,0,0,1,1.34,1.32,70.52,70.52,0,0,1,0,21.65A1.61,1.61,0,0,1,24.21,28.77Z" fill="#eff9fe"/><path id="_Compound_Path_" data-name="&lt;Compound Path&gt;" d="M13.62,30a74.93,74.93,0,0,1-11.11-.84A2,2,0,0,1,.83,27.5a71.19,71.19,0,0,1,0-21.76A2,2,0,0,1,2.52,4a71.26,71.26,0,0,1,21.76,0A2,2,0,0,1,26,5.71a71.26,71.26,0,0,1,0,21.77,2,2,0,0,1-1.67,1.69h0A67.8,67.8,0,0,1,13.62,30ZM13.39,4a70.43,70.43,0,0,0-10.75.83,1.21,1.21,0,0,0-1,1,70.39,70.39,0,0,0,0,21.51,1.2,1.2,0,0,0,1,1,70.47,70.47,0,0,0,21.52,0h0a1.21,1.21,0,0,0,1-1,70.45,70.45,0,0,0,0-21.52,1.21,1.21,0,0,0-1-1A70.44,70.44,0,0,0,13.39,4Z" fill="#00aeef"/></g><g id="_Group_3" data-name="&lt;Group&gt;"><rect id="_Path_2" data-name="&lt;Path&gt;" x="5.07" y="7.57" width="13.28" height="3.03" fill="#00aeef"/></g><g id="_Group_4" data-name="&lt;Group&gt;"><rect id="_Path_3" data-name="&lt;Path&gt;" x="5.07" y="12.89" width="13.28" height="3.03" fill="#00aeef"/></g><g id="_Group_5" data-name="&lt;Group&gt;"><rect id="_Path_4" data-name="&lt;Path&gt;" x="5.07" y="18.03" width="13.28" height="3.03" fill="#00aeef"/></g><g id="_Group_6" data-name="&lt;Group&gt;"><path id="_Path_5" data-name="&lt;Path&gt;" d="M26.92,2.47,23.78.65a1.33,1.33,0,0,0-1.77.6L12.34,18a1.12,1.12,0,0,0-.15.51L12,24.38a.23.23,0,0,0,.34.2l5-3.13a1.12,1.12,0,0,0,.37-.39L27.29,4.3A1.33,1.33,0,0,0,26.92,2.47Z" fill="#fff"/><path id="_Compound_Path_2" data-name="&lt;Compound Path&gt;" d="M12.16,25.11a.7.7,0,0,1-.35-.09.74.74,0,0,1-.37-.61l.24-5.9a1.63,1.63,0,0,1,.22-.74L21.58,1A2,2,0,0,1,22.66.1,1.65,1.65,0,0,1,24,.22L27.18,2A1.65,1.65,0,0,1,28,3.16a2,2,0,0,1-.24,1.39L18.05,21.31a1.63,1.63,0,0,1-.54.56l-5,3.13A.86.86,0,0,1,12.16,25.11ZM23.22,1a.74.74,0,0,0-.24,0,1,1,0,0,0-.53.45L12.78,18.26a.61.61,0,0,0-.08.28l-.21,5.32L17,21a.62.62,0,0,0,.2-.21L26.85,4A1,1,0,0,0,27,3.36a.66.66,0,0,0-.31-.45h0L23.53,1.09A.61.61,0,0,0,23.22,1Z" fill="#00aeef"/></g><g id="_Group_7" data-name="&lt;Group&gt;"><path id="_Rectangle_" data-name="&lt;Rectangle&gt;" d="M16.09,3.74h6.09a0,0,0,0,1,0,0V19.93a1,1,0,0,1-1,1H17.09a1,1,0,0,1-1-1V3.74A0,0,0,0,1,16.09,3.74Z" transform="translate(8.73 -7.91) rotate(30)" fill="#fff"/><path id="_Compound_Path_3" data-name="&lt;Compound Path&gt;" d="M17.1,21.43a1.51,1.51,0,0,1-.76-.2l-3.52-2a1.52,1.52,0,0,1-.56-2.07L20.6,2.68l6.15,3.55L18.42,20.68a1.51,1.51,0,0,1-.92.71A1.52,1.52,0,0,1,17.1,21.43ZM21,4.06,13.14,17.63a.51.51,0,0,0,.19.69l3.52,2a.51.51,0,0,0,.38.05.5.5,0,0,0,.31-.24L25.37,6.6Z" fill="#00aeef"/></g></g></g></g></svg>