<svg xmlns="http://www.w3.org/2000/svg" xmlns:xlink="http://www.w3.org/1999/xlink" viewBox="0 0 283.47 139.61"><defs><clipPath id="clip-path" transform="translate(0)"><circle id="_Clipping_Path_" data-name="&lt;Clipping Path&gt;" cx="57.21" cy="70.09" r="57.21" fill="none"/></clipPath></defs><title>intro-vault-tour</title><g id="Layer_2" data-name="Layer 2"><g id="Layer_1-2" data-name="Layer 1"><g id="_Group_" data-name="&lt;Group&gt;"><path id="_Path_" data-name="&lt;Path&gt;" d="M120.27,28.09H78.09v-.34h205V1.85A1.51,1.51,0,0,0,281.62.34H52.6V0h229a1.85,1.85,0,0,1,1.85,1.85V28.09h0v75.8h-.3V28.09H120.27Z" transform="translate(0)" fill="#808285"/><path id="_Path_2" data-name="&lt;Path&gt;" d="M154.4,15.64a.32.32,0,0,0,.09-.47.39.39,0,0,0-.51-.08c-1.5,1-2.11,1.76-1.85,2.35s.86.68,2,.65a15.79,15.79,0,0,0,2.24-.25,51.29,51.29,0,0,0,8.16-2.28,50,50,0,0,0,7.67-3.42c2.2-1.27,3.12-2.23,2.81-2.94s-1.2-.77-2.92-.59a.35.35,0,0,0-.32.37.36.36,0,0,0,.41.29c1.63-.17,2.11.06,2.16.17s-.26.83-2.52,2.13a49.21,49.21,0,0,1-7.55,3.36,50.52,50.52,0,0,1-8,2.25c-2.62.46-3.36.16-3.43,0S153,16.59,154.4,15.64Z" transform="translate(0)" fill="#808285"/><path id="_Compound_Path_" data-name="&lt;Compound Path&gt;" d="M156.17,16.08A38.55,38.55,0,0,0,163.82,14,38.58,38.58,0,0,0,171,10.68l.17-.06A8.07,8.07,0,1,0,156,16.13l.17-.06Zm3.59-8.13c-.07-.22.66-.59.66-.59s1,.29,1-.44.51-.73.51-.73h1.38s.6-.37.67,0a7.6,7.6,0,0,0,.73,1.39,5.25,5.25,0,0,1,1.1-.51c.22,0,.37,1,.37,1s-.44,1-.66.77-.81,0-.81,0a5.38,5.38,0,0,1-.8.88c-.22.11,1.61.84,1.83,1.08a5.19,5.19,0,0,1,.44,1.88c0,.37-.68.73-1,.37s-.37-1.25-1-1-1.54-.73-1.76-.73-.51-.07-.44-.56a1.34,1.34,0,0,0-.37-1.11,4,4,0,0,0-1.32,0c-.51.07-1.17-.29-1.17-.84S159.83,8.17,159.76,7.95Z" transform="translate(0)" fill="#808285"/><path id="_Compound_Path_2" data-name="&lt;Compound Path&gt;" d="M157.52,18.67a8.07,8.07,0,0,0,14.12-5.14v-.2l-.34.29a46.92,46.92,0,0,1-6.56,2.92C162.26,17.44,157.52,18.67,157.52,18.67Zm7.51-.81h.73l.44-.62,1.17.29-.25.33h-.63l.07.41-.07.73-.73-.07-.66.69.37.7.54.33a7.59,7.59,0,0,1-2.44.41,7.71,7.71,0,0,1-1.87-.24l-.1-.35c-.15-.51.59-.73.59-.73s.51-.07.55-.44a1.74,1.74,0,0,1,1.14-1.44c.81-.24.88.49.88.49Z" transform="translate(0)" fill="#808285"/><path id="_Compound_Path_3" data-name="&lt;Compound Path&gt;" d="M110.45,14.85a.7.7,0,0,0-.7.7v2.93a.7.7,0,0,0,.7.7h1.2v2.37a1.06,1.06,0,0,0,1.06,1.06h18a1.06,1.06,0,0,0,1.06-1.06V5.88a1.06,1.06,0,0,0-1.06-1.06h-18a1.06,1.06,0,0,0-1.06,1.06V8.25h-1.2a.7.7,0,0,0-.7.7v2.93a.7.7,0,0,0,.7.7h1.2v2.28Zm0-3,0-3h1.88v-3a.38.38,0,0,1,.38-.38h18a.38.38,0,0,1,.38.38V21.54a.38.38,0,0,1-.38.38h-18a.38.38,0,0,1-.38-.38v-3l-1.9,0,0-3h1.88V11.9Z" transform="translate(0)" fill="#808285"/><circle id="_Path_3" data-name="&lt;Path&gt;" cx="119.56" cy="14.05" r="0.72" transform="translate(25.1 88.67) rotate(-45.01)" fill="#808285"/><path id="_Compound_Path_4" data-name="&lt;Compound Path&gt;" d="M114.62,19a.72.72,0,0,0,1,0l2.27-2.27a3.15,3.15,0,0,0,3.3,0L123.48,19a.72.72,0,0,0,1-1l-2.27-2.27a3.15,3.15,0,0,0,0-3.3l2.27-2.27a.72.72,0,0,0-1-1l-2.27,2.27a3.15,3.15,0,0,0-3.3,0l-2.27-2.27a.72.72,0,1,0-1,1l2.27,2.27a3.15,3.15,0,0,0,0,3.3L114.62,18A.72.72,0,0,0,114.62,19Zm3.73-6.14a1.7,1.7,0,1,1,0,2.41A1.71,1.71,0,0,1,118.36,12.84Z" transform="translate(0)" fill="#808285"/><path id="_Path_4" data-name="&lt;Path&gt;" d="M128.47,10.4a.54.54,0,0,0-.54.54v6.2a.54.54,0,1,0,1.08,0v-6.2A.54.54,0,0,0,128.47,10.4Z" transform="translate(0)" fill="#808285"/><circle id="_Path_5" data-name="&lt;Path&gt;" cx="126.84" cy="7" r="0.54" fill="#808285"/><circle id="_Path_6" data-name="&lt;Path&gt;" cx="125.2" cy="7" r="0.54" fill="#808285"/><circle id="_Path_7" data-name="&lt;Path&gt;" cx="128.46" cy="7" r="0.54" fill="#808285"/><path id="_Compound_Path_5" data-name="&lt;Compound Path&gt;" d="M218.26,21.43a1.85,1.85,0,0,0,1.85-1.85V6.3a1.85,1.85,0,0,0-1.85-1.85H205a1.85,1.85,0,0,0-1.85,1.85V19.58A1.85,1.85,0,0,0,205,21.43Zm-14.39-1.85V6.3A1.11,1.11,0,0,1,205,5.19h13.28a1.11,1.11,0,0,1,1.11,1.11V19.58a1.1,1.1,0,0,1-1,1.1.83.83,0,0,0,.1-.38v-.85a4.55,4.55,0,0,0-2.55-2.55H215a1.7,1.7,0,0,1-1.7-1.7v-.55a4.3,4.3,0,0,0,.81-1.54c0-.09.11-.14.17-.21a1.05,1.05,0,0,0,.15-1.27c0-.06-.09-.11-.09-.18,0-.5,0-1,0-1.5a2.5,2.5,0,0,0-.61-1.67,2.37,2.37,0,0,0-1.29-.67,4.29,4.29,0,0,0-1.85,0,2.24,2.24,0,0,0-1.32.89,2.58,2.58,0,0,0-.41,1.35c0,.51,0,1,0,1.52,0,.1-.07.17-.11.26A1.05,1.05,0,0,0,209,13a.5.5,0,0,1,.15.28,4.12,4.12,0,0,0,.77,1.37v.57a1.7,1.7,0,0,1-1.7,1.7h-.85a4.55,4.55,0,0,0-2.55,2.55v.85a.83.83,0,0,0,.1.38A1.1,1.1,0,0,1,203.88,19.58Z" transform="translate(0)" fill="#808285"/><rect id="_Path_8" data-name="&lt;Path&gt;" x="188.3" y="5.26" width="0.34" height="16.67" fill="#808285"/><path id="_Path_9" data-name="&lt;Path&gt;" d="M236.94,14a14.13,14.13,0,0,1,6.56-.18c1.65.46,3.15,1.37,4.85,1.7,3.33.63,6.21-2.21,9.44-1.37,1.64.42,3,1.2,4.78,1.23a9.12,9.12,0,0,0,4.66-1.27.84.84,0,0,0-.85-1.45,7.3,7.3,0,0,1-5.51.8c-1.51-.39-2.82-1.22-4.43-1.17a13.15,13.15,0,0,0-4,1,7.18,7.18,0,0,1-5.2.14,24.42,24.42,0,0,0-4.47-1.51,14.66,14.66,0,0,0-4.43.1c-4.13.62-7.83,1.55-12,.74-1.06-.2-1.51,1.42-.45,1.62A28.2,28.2,0,0,0,236.94,14Z" transform="translate(0)" fill="#808285"/></g><g id="_Group_2" data-name="&lt;Group&gt;"><path id="_Path_10" data-name="&lt;Path&gt;" d="M104.12,37.38l7.06-17.44L92.33,25a57.21,57.21,0,1,0,11.8,12.42Z" transform="translate(0)" fill="#17479e"/><g id="_Clip_Group_" data-name="&lt;Clip Group&gt;"><g clip-path="url(#clip-path)"><polygon id="_Path_11" data-name="&lt;Path&gt;" points="93.69 43.4 88.9 89.68 20.73 91.77 68.35 139.61 130.18 79.9 93.69 43.4" fill="#092b6e"/></g></g><g id="_Group_3" data-name="&lt;Group&gt;"><g id="_Group_4" data-name="&lt;Group&gt;"><rect id="_Rectangle_" data-name="&lt;Rectangle&gt;" x="21.21" y="43.67" width="71.99" height="48.75" rx="1" ry="1" transform="translate(114.41 136.09) rotate(-180)" fill="#c7eafb"/><path id="_Compound_Path_6" data-name="&lt;Compound Path&gt;" d="M20.73,91.77V44.32a1.13,1.13,0,0,1,1.13-1.13h70.7a1.13,1.13,0,0,1,1.13,1.13V91.77a1.13,1.13,0,0,1-1.13,1.13H21.85A1.13,1.13,0,0,1,20.73,91.77Zm1.13-47.62a.16.16,0,0,0-.16.16V91.77a.16.16,0,0,0,.16.16h70.7a.16.16,0,0,0,.16-.16V44.32a.16.16,0,0,0-.16-.16Z" transform="translate(0)" fill="#00aeef"/></g><g id="_Group_5" data-name="&lt;Group&gt;"><rect id="_Rectangle_2" data-name="&lt;Rectangle&gt;" x="36.06" y="35.27" width="42.3" height="65.55" rx="2" ry="2" transform="translate(125.25 10.84) rotate(90)" fill="#eff9fe"/><path id="_Compound_Path_7" data-name="&lt;Compound Path&gt;" d="M23.95,87.91V48.18a1.77,1.77,0,0,1,1.77-1.77h63a1.77,1.77,0,0,1,1.77,1.77V87.91a1.77,1.77,0,0,1-1.77,1.77h-63A1.77,1.77,0,0,1,23.95,87.91Zm1.77-40.53a.81.81,0,0,0-.81.81V87.91a.81.81,0,0,0,.81.81h63a.81.81,0,0,0,.81-.81V48.18a.81.81,0,0,0-.81-.81Z" transform="translate(0)" fill="#00aeef"/></g><g id="_Group_6" data-name="&lt;Group&gt;"><rect id="_Rectangle_3" data-name="&lt;Rectangle&gt;" x="82.03" y="92.42" width="9.24" height="4.09" transform="translate(173.3 188.93) rotate(-180)" fill="#c7eafb"/><path id="_Compound_Path_8" data-name="&lt;Compound Path&gt;" d="M81.54,96.51V92.42a.48.48,0,0,1,.48-.48h9.24a.48.48,0,0,1,.48.48v4.09a.48.48,0,0,1-.48.48H82A.48.48,0,0,1,81.54,96.51Zm9.24-3.61H82.51V96h8.28Z" transform="translate(0)" fill="#00aeef"/></g><g id="_Group_7" data-name="&lt;Group&gt;"><rect id="_Rectangle_4" data-name="&lt;Rectangle&gt;" x="23.14" y="92.42" width="9.24" height="4.09" transform="translate(55.53 188.93) rotate(-180)" fill="#c7eafb"/><path id="_Compound_Path_9" data-name="&lt;Compound Path&gt;" d="M22.66,96.51V92.42a.48.48,0,0,1,.48-.48h9.24a.48.48,0,0,1,.48.48v4.09a.48.48,0,0,1-.48.48H23.14A.48.48,0,0,1,22.66,96.51ZM31.9,92.9H23.63V96H31.9Z" transform="translate(0)" fill="#00aeef"/></g><g id="_Group_8" data-name="&lt;Group&gt;"><g id="_Group_9" data-name="&lt;Group&gt;"><rect id="_Rectangle_5" data-name="&lt;Rectangle&gt;" x="21.21" y="56.91" width="5.82" height="2.8" transform="translate(48.24 116.63) rotate(-180)" fill="#e1f4fd"/><path id="_Compound_Path_10" data-name="&lt;Compound Path&gt;" d="M20.73,59.72v-2.8a.48.48,0,0,1,.48-.48H27a.48.48,0,0,1,.48.48v2.8a.48.48,0,0,1-.48.48H21.21A.48.48,0,0,1,20.73,59.72Zm5.82-2.32H21.69v1.84h4.85Z" transform="translate(0)" fill="#00aeef"/></g><g id="_Group_10" data-name="&lt;Group&gt;"><rect id="_Rectangle_6" data-name="&lt;Rectangle&gt;" x="21.21" y="76.37" width="5.82" height="2.8" transform="translate(48.24 155.55) rotate(-180)" fill="#e1f4fd"/><path id="_Compound_Path_11" data-name="&lt;Compound Path&gt;" d="M20.73,79.18v-2.8a.48.48,0,0,1,.48-.48H27a.48.48,0,0,1,.48.48v2.8a.48.48,0,0,1-.48.48H21.21A.48.48,0,0,1,20.73,79.18Zm5.82-2.32H21.69v1.84h4.85Z" transform="translate(0)" fill="#00aeef"/></g></g><g id="_Group_11" data-name="&lt;Group&gt;"><g id="_Group_12" data-name="&lt;Group&gt;"><g id="_Group_13" data-name="&lt;Group&gt;"><g id="_Group_14" data-name="&lt;Group&gt;"><path id="_Path_12" data-name="&lt;Path&gt;" d="M74.54,72.65A4.66,4.66,0,0,0,77.34,71a4,4,0,0,0,.43-.61l0-.06a4.37,4.37,0,0,0,.33-.7,4.8,4.8,0,0,0,.27-1.19c0-.14,0-.28,0-.42a4.76,4.76,0,0,0-.29-1.61,4.65,4.65,0,0,0-.33-.7l0-.06a4.34,4.34,0,0,0-.43-.61,4.69,4.69,0,0,0-2.82-1.62l-.35,0-.42,0-.42,0-.35,0a4.73,4.73,0,0,0-2.82,1.62,5.76,5.76,0,0,0-.43.61l0,.06A4.67,4.67,0,0,0,69.08,68c0,.14,0,.28,0,.42a4.53,4.53,0,0,0,.27,1.19,4.37,4.37,0,0,0,.33.7l0,.06a5.17,5.17,0,0,0,.43.61A4.71,4.71,0,0,0,73,72.65l.37.05.41,0,.42,0Z" transform="translate(0)" fill="#c7eafb"/></g><g id="_Group_15" data-name="&lt;Group&gt;"><path id="_Path_13" data-name="&lt;Path&gt;" d="M77.34,71a4.66,4.66,0,0,1-2.8,1.62l-.37.05-.42,0-.41,0L73,72.65A4.71,4.71,0,0,1,70.16,71a5.17,5.17,0,0,1-.43-.61l0-.06a4.37,4.37,0,0,1-.33-.7,4.53,4.53,0,0,1-.27-1.19l-.64,0A5.08,5.08,0,0,0,68.8,70l-6,3.45a.8.8,0,0,0-.3,1.1.81.81,0,0,0,.7.41.83.83,0,0,0,.41-.11l6-3.44a5.34,5.34,0,0,0,3.34,1.92v6.89a.81.81,0,0,0,1.61,0V73.29a5.3,5.3,0,0,0,3.34-1.92l6,3.44a.8.8,0,0,0,1.1-.3.8.8,0,0,0-.3-1.1L78.7,70A5.09,5.09,0,0,0,79,68.5l-.64,0a4.8,4.8,0,0,1-.27,1.19,4.37,4.37,0,0,1-.33.7l0,.06A4,4,0,0,1,77.34,71Z" transform="translate(0)" fill="#00aeef"/></g><g id="_Group_16" data-name="&lt;Group&gt;"><path id="_Path_14" data-name="&lt;Path&gt;" d="M74.52,63.44a4.69,4.69,0,0,1,2.82,1.62,4.34,4.34,0,0,1,.43.61l0,.06a4.65,4.65,0,0,1,.33.7A4.76,4.76,0,0,1,78.42,68c0,.14,0,.28,0,.42l.64,0a3.46,3.46,0,0,0,0-.45,5.34,5.34,0,0,0-.37-1.93l6-3.44a.81.81,0,1,0-.81-1.4l-6,3.45a5.28,5.28,0,0,0-3.34-1.93V55.91a.81.81,0,1,0-1.61,0V62.8a5.32,5.32,0,0,0-3.34,1.93l-6-3.45a.81.81,0,1,0-.81,1.4l6,3.44A5.33,5.33,0,0,0,68.43,68a3.46,3.46,0,0,0,0,.45l.64,0c0-.14,0-.28,0-.42a4.67,4.67,0,0,1,.62-2.31l0-.06a5.76,5.76,0,0,1,.43-.61A4.73,4.73,0,0,1,73,63.44l.35,0,.42,0,.42,0Z" transform="translate(0)" fill="#00aeef"/></g></g></g><g id="_Group_17" data-name="&lt;Group&gt;"><circle id="_Path_15" data-name="&lt;Path&gt;" cx="73.75" cy="68.05" r="1.6" fill="#00aeef"/></g></g><g id="_Group_18" data-name="&lt;Group&gt;"><g id="_Group_19" data-name="&lt;Group&gt;"><rect id="_Rectangle_7" data-name="&lt;Rectangle&gt;" x="34.1" y="58.17" width="18.24" height="3.47" transform="translate(86.45 119.82) rotate(-180)" fill="#c7eafb"/><path id="_Compound_Path_12" data-name="&lt;Compound Path&gt;" d="M33.62,61.65V58.17a.48.48,0,0,1,.48-.48H52.34a.48.48,0,0,1,.48.48v3.47a.48.48,0,0,1-.48.48H34.1A.48.48,0,0,1,33.62,61.65Zm18.24-3H34.59v2.51H51.86Z" transform="translate(0)" fill="#00aeef"/></g><g id="_Group_20" data-name="&lt;Group&gt;"><rect id="_Path_16" data-name="&lt;Path&gt;" x="49.7" y="64.78" width="2.64" height="2.23" rx="0.32" ry="0.32" fill="#00aeef"/></g><g id="_Group_21" data-name="&lt;Group&gt;"><rect id="_Path_17" data-name="&lt;Path&gt;" x="41.9" y="64.78" width="2.64" height="2.23" rx="0.32" ry="0.32" fill="#00aeef"/></g><g id="_Group_22" data-name="&lt;Group&gt;"><rect id="_Path_18" data-name="&lt;Path&gt;" x="34.1" y="64.78" width="2.64" height="2.23" rx="0.32" ry="0.32" fill="#00aeef"/></g><g id="_Group_23" data-name="&lt;Group&gt;"><rect id="_Path_19" data-name="&lt;Path&gt;" x="49.7" y="70.23" width="2.64" height="2.23" rx="0.32" ry="0.32" fill="#00aeef"/></g><g id="_Group_24" data-name="&lt;Group&gt;"><rect id="_Path_20" data-name="&lt;Path&gt;" x="41.9" y="70.23" width="2.64" height="2.23" rx="0.32" ry="0.32" fill="#00aeef"/></g><g id="_Group_25" data-name="&lt;Group&gt;"><rect id="_Path_21" data-name="&lt;Path&gt;" x="34.1" y="70.23" width="2.64" height="2.23" rx="0.32" ry="0.32" fill="#00aeef"/></g><g id="_Group_26" data-name="&lt;Group&gt;"><rect id="_Path_22" data-name="&lt;Path&gt;" x="49.7" y="75.69" width="2.64" height="2.23" rx="0.32" ry="0.32" fill="#00aeef"/></g><g id="_Group_27" data-name="&lt;Group&gt;"><rect id="_Path_23" data-name="&lt;Path&gt;" x="41.9" y="75.69" width="2.64" height="2.23" rx="0.32" ry="0.32" fill="#00aeef"/></g><g id="_Group_28" data-name="&lt;Group&gt;"><rect id="_Path_24" data-name="&lt;Path&gt;" x="34.1" y="75.69" width="2.64" height="2.23" rx="0.32" ry="0.32" fill="#00aeef"/></g></g></g></g></g></g></svg>