<svg xmlns="http://www.w3.org/2000/svg" xmlns:xlink="http://www.w3.org/1999/xlink" viewBox="0 0 314.11 34.52"><defs><linearGradient id="linear-gradient" y1="17.26" x2="314.11" y2="17.26" gradientUnits="userSpaceOnUse"><stop offset="0" stop-color="#fff" stop-opacity="0"/><stop offset="0.25" stop-color="#00aeef"/><stop offset="0.77" stop-color="#00aeef"/><stop offset="1" stop-color="#fff" stop-opacity="0"/></linearGradient></defs><title>intro-search-business</title><g id="Layer_2" data-name="Layer 2"><g id="Layer_1-2" data-name="Layer 1"><g id="_Group_" data-name="&lt;Group&gt;"><rect id="_Rectangle_" data-name="&lt;Rectangle&gt;" y="0.5" width="314.11" height="33.52" fill="url(#linear-gradient)"/><rect id="_Rectangle_2" data-name="&lt;Rectangle&gt;" x="47.86" y="6.31" width="218.38" height="20.75" rx="2" ry="2" fill="#fff" stroke="#808285" stroke-miterlimit="10"/><line id="_Path_" data-name="&lt;Path&gt;" x1="314.11" y1="34.02" y2="34.02" fill="none" stroke="#00aeef" stroke-miterlimit="10"/><line id="_Path_2" data-name="&lt;Path&gt;" y1="0.5" x2="314.11" y2="0.5" fill="none" stroke="#00aeef" stroke-miterlimit="10"/><path id="_Compound_Path_" data-name="&lt;Compound Path&gt;" d="M62.68,13.22a4.13,4.13,0,1,0-.51,6.26l3.18,3.18a.66.66,0,0,0,.93-.93l-3.18-3.18A4.13,4.13,0,0,0,62.68,13.22Zm-.93,4.9a2.8,2.8,0,1,1,0-4A2.81,2.81,0,0,1,61.75,18.12Z" fill="#a7a9ac"/><g id="_Group_2" data-name="&lt;Group&gt;"><path d="M80.19,11.88a12.63,12.63,0,0,1,2.38-.21,4.18,4.18,0,0,1,2.77.73,2.12,2.12,0,0,1,.84,1.79,2.4,2.4,0,0,1-1.71,2.22v0A2.61,2.61,0,0,1,86.57,19a2.72,2.72,0,0,1-.85,2,5.08,5.08,0,0,1-3.49.94,15.34,15.34,0,0,1-2-.12ZM81.5,16h1.19c1.38,0,2.19-.72,2.19-1.69,0-1.19-.9-1.65-2.22-1.65a5.61,5.61,0,0,0-1.16.09Zm0,4.85a7,7,0,0,0,1.1.06c1.35,0,2.59-.49,2.59-2S84,17,82.58,17H81.5Z" fill="#58595b"/><path d="M94.35,19.87c0,.75,0,1.41.06,2H93.24l-.07-1.19h0A2.73,2.73,0,0,1,90.74,22c-1.14,0-2.5-.63-2.5-3.18V14.59h1.32v4c0,1.38.42,2.31,1.62,2.31a1.91,1.91,0,0,0,1.74-1.2A1.94,1.94,0,0,0,93,19V14.59h1.32Z" fill="#58595b"/><path d="M96.36,20.5A3.46,3.46,0,0,0,98.1,21c1,0,1.41-.48,1.41-1.08s-.37-1-1.35-1.33c-1.3-.47-1.92-1.19-1.92-2.06a2.24,2.24,0,0,1,2.5-2.13,3.62,3.62,0,0,1,1.79.45l-.33,1a2.82,2.82,0,0,0-1.48-.42c-.78,0-1.22.45-1.22,1s.44.87,1.38,1.23c1.26.48,1.9,1.11,1.9,2.19,0,1.27-1,2.17-2.71,2.17a4.14,4.14,0,0,1-2-.5Z" fill="#58595b"/><path d="M104,12.55a.82.82,0,0,1-1.63,0,.8.8,0,0,1,.82-.82A.78.78,0,0,1,104,12.55Zm-1.47,9.3V14.59h1.32v7.26Z" fill="#58595b"/><path d="M106,16.56c0-.75,0-1.36-.06-2h1.17l.07,1.2h0a2.67,2.67,0,0,1,2.4-1.37c1,0,2.56.6,2.56,3.09v4.33h-1.32V17.67c0-1.17-.43-2.14-1.68-2.14a1.88,1.88,0,0,0-1.77,1.35,1.9,1.9,0,0,0-.09.62v4.36H106Z" fill="#58595b"/><path d="M115.05,18.46A2.33,2.33,0,0,0,117.54,21a4.77,4.77,0,0,0,2-.37l.23.95a5.88,5.88,0,0,1-2.42.45,3.37,3.37,0,0,1-3.57-3.66c0-2.19,1.29-3.92,3.4-3.92,2.37,0,3,2.08,3,3.42a5,5,0,0,1,0,.62Zm3.87-.95a1.88,1.88,0,0,0-1.83-2.14,2.19,2.19,0,0,0-2,2.14Z" fill="#58595b"/><path d="M121.65,20.5a3.46,3.46,0,0,0,1.74.52c1,0,1.41-.48,1.41-1.08s-.37-1-1.35-1.33c-1.3-.47-1.92-1.19-1.92-2.06a2.24,2.24,0,0,1,2.5-2.13,3.62,3.62,0,0,1,1.79.45l-.33,1a2.82,2.82,0,0,0-1.48-.42c-.78,0-1.22.45-1.22,1s.44.87,1.38,1.23c1.26.48,1.9,1.11,1.9,2.19,0,1.27-1,2.17-2.71,2.17a4.14,4.14,0,0,1-2-.5Z" fill="#58595b"/><path d="M127.59,20.5a3.46,3.46,0,0,0,1.74.52c1,0,1.41-.48,1.41-1.08s-.37-1-1.35-1.33c-1.3-.47-1.92-1.19-1.92-2.06a2.24,2.24,0,0,1,2.5-2.13,3.62,3.62,0,0,1,1.79.45l-.33,1a2.82,2.82,0,0,0-1.48-.42c-.78,0-1.22.45-1.22,1s.44.87,1.38,1.23c1.26.48,1.9,1.11,1.9,2.19,0,1.27-1,2.17-2.71,2.17a4.14,4.14,0,0,1-2-.5Z" fill="#58595b"/></g><line id="_Path_3" data-name="&lt;Path&gt;" x1="140.68" y1="10.19" x2="140.68" y2="24.67" fill="none" stroke="#00aeef" stroke-miterlimit="10" stroke-width="2"/></g></g></g></svg>