<?xml version="1.0" encoding="utf-8"?>
<!-- Generator: Adobe Illustrator 21.0.0, SVG Export Plug-In . SVG Version: 6.00 Build 0)  -->
<svg version="1.1" id="Capa_1" xmlns="http://www.w3.org/2000/svg" xmlns:xlink="http://www.w3.org/1999/xlink" x="0px" y="0px"
	 viewBox="0 0 482.9 482.9" style="enable-background:new 0 0 482.9 482.9;" xml:space="preserve">
<style type="text/css">
	.st0{fill:#D8D8D8;}
</style>
<g>
	<path class="st0" d="M453.3,0H152.7c-5.5,0-10,4.5-10,10v126.9H29.6c-5.5,0-10,4.5-10,10V336c0,5.5,4.5,10,10,10h51.5v126.9
		c0,5.5,4.5,10,10,10h300.6c5.5,0,10-4.5,10-10V283.8c0-5.5-4.5-10-10-10h-51.5v-64.8h113.1c5.5,0,10-4.5,10-10V10
		C463.3,4.5,458.8,0,453.3,0z M190.7,20l-13.8,13.8c0,0,0,0,0,0L162.7,48V20H190.7z M67.3,156.9l-13.8,13.8c0,0,0,0,0,0l-13.8,13.8
		v-27.7H67.3z M101.2,321.5v-27.7h27.7L101.2,321.5z M381.8,462.9H101.2V349.8l11-11c0.7,4.8,4.9,8.5,9.9,8.5c5.5,0,10-4.5,10-10
		v-12.5h12.5c5.5,0,10-4.5,10-10c0-5-3.7-9.1-8.5-9.9l11-11h224.6L381.8,462.9L381.8,462.9z M91.2,273.8c-5.5,0-10,4.5-10,10V326
		H39.6V212.9l11-11c0.7,4.8,4.9,8.5,9.9,8.5c5.5,0,10-4.5,10-10v-12.5H83c5.5,0,10-4.5,10-10c0-5-3.7-9.1-8.5-9.9l11-11h224.6v116.9
		H91.2z M443.3,189.1H340.2v-32.2H357c5.5,0,10-4.5,10-10s-4.5-10-10-10H162.7V76.2L174,64.9c0.7,4.8,4.9,8.5,9.9,8.5
		c5.5,0,10-4.5,10-10V50.9h12.5c5.5,0,10-4.5,10-10c0-5-3.7-9.1-8.5-9.9l11-11h224.3L443.3,189.1L443.3,189.1z"/>
	<path class="st0" d="M249,72.2h108c5.5,0,10-4.5,10-10s-4.5-10-10-10H249c-5.5,0-10,4.5-10,10S243.5,72.2,249,72.2z"/>
	<path class="st0" d="M357,94.5H249c-5.5,0-10,4.5-10,10s4.5,10,10,10h108c5.5,0,10-4.5,10-10S362.5,94.5,357,94.5z"/>
	<path class="st0" d="M233.9,189.1h-108c-5.5,0-10,4.5-10,10s4.5,10,10,10h108c5.5,0,10-4.5,10-10S239.4,189.1,233.9,189.1z"/>
	<path class="st0" d="M233.9,231.5h-108c-5.5,0-10,4.5-10,10s4.5,10,10,10h108c5.5,0,10-4.5,10-10S239.4,231.5,233.9,231.5z"/>
	<path class="st0" d="M187.5,346h108c5.5,0,10-4.5,10-10s-4.5-10-10-10h-108c-5.5,0-10,4.5-10,10S181.9,346,187.5,346z"/>
	<path class="st0" d="M187.5,388.4h108c5.5,0,10-4.5,10-10s-4.5-10-10-10h-108c-5.5,0-10,4.5-10,10S181.9,388.4,187.5,388.4z"/>
	<path class="st0" d="M295.5,410.8h-108c-5.5,0-10,4.5-10,10s4.5,10,10,10h108c5.5,0,10-4.5,10-10S301,410.8,295.5,410.8z"/>
</g>
</svg>
