<?xml version="1.0" encoding="utf-8"?>
<!-- Generator: Adobe Illustrator 21.0.0, SVG Export Plug-In . SVG Version: 6.00 Build 0)  -->
<svg version="1.1" id="Layer_1" xmlns="http://www.w3.org/2000/svg" xmlns:xlink="http://www.w3.org/1999/xlink" x="0px" y="0px"
	 viewBox="0 0 627 438.5" style="enable-background:new 0 0 627 438.5;" xml:space="preserve">
<title>invite-person-w-email</title>
<path d="M201,219.3c30.3,0,56.1-10.7,77.5-32.1s32.1-47.3,32.1-77.5c0-30.3-10.7-56.1-32.1-77.5S231.3,0,201,0s-56.1,10.7-77.5,32.1
	s-32.1,47.2-32.1,77.5s10.7,56.1,32.1,77.5S170.7,219.3,201,219.3z"/>
<path d="M401,335c-0.8-10.4-2.1-20.8-4-31.1c-1.8-10.5-4.4-20.8-7.6-31c-3.1-9.7-7.2-19-12.3-27.8c-4.8-8.5-10.7-16.3-17.7-23
	c-7.1-6.6-15.4-11.8-24.4-15.3c-10.1-3.9-20.9-5.8-31.8-5.7c-1.7,0-5.7,2-12,6.1s-13.4,8.7-21.3,13.7s-18.2,9.6-30.8,13.7
	c-24.8,8.2-51.5,8.2-76.2,0c-12.7-4.1-22.9-8.7-30.8-13.7s-15-9.6-21.3-13.7c-6.3-4.1-10.3-6.1-12-6.1c-10.9-0.1-21.7,1.8-31.8,5.7
	c-9,3.5-17.3,8.7-24.4,15.3c-7,6.8-13,14.6-17.7,23.1c-5,8.8-9.2,18.2-12.3,27.8c-3.2,10.2-5.7,20.5-7.6,31c-1.9,10.3-3.2,20.6-4,31
	c-0.7,9.6-1,19.5-1,29.5c0,22.8,6.9,40.9,20.8,54.1s32.4,19.8,55.4,19.8h249.5c23,0,41.5-6.6,55.4-19.8
	c13.9-13.2,20.8-31.2,20.8-54.1C402,354.5,401.7,344.6,401,335z"/>
<path d="M593.4,1.6H377.8c-18.5,0-33.6,14.5-33.6,32.2v150.3c0,17.8,15.1,32.2,33.6,32.2h215.6c18.5,0,33.6-14.5,33.6-32.2V33.8
	C627,16,611.9,1.6,593.4,1.6z M593.4,187.8H377.8c-2.7,0-5.1-1.8-5.1-3.8V53.6l97.5,82.3c2,1.7,4.5,2.6,7.2,2.6h16.5
	c2.6,0,5.2-0.9,7.2-2.6l97.5-82.3V184C598.6,186.1,596.2,187.8,593.4,187.8z M485.6,110.3L390.8,30h189.7L485.6,110.3z"/>
</svg>
