<svg xmlns="http://www.w3.org/2000/svg" viewBox="0 0 62.55 59.77"><title>linkedin</title><g id="Layer_2" data-name="Layer 2"><g id="Capa_1" data-name="Capa 1"><path d="M62.55,36.64V59.77H49.14V38.19c0-5.42-1.94-9.12-6.79-9.12A7.33,7.33,0,0,0,35.47,34,9.18,9.18,0,0,0,35,37.25V59.77H21.62s.18-36.55,0-40.33H35v5.72l-.09.13H35v-.13a13.31,13.31,0,0,1,12.09-6.66c8.82,0,15.44,5.76,15.44,18.15Z"/><path d="M7.59,0C3,0,0,3,0,7s2.91,7,7.41,7H7.5c4.68,0,7.58-3.1,7.58-7s-2.91-7-7.5-7Z"/><rect x="0.8" y="19.44" width="13.41" height="40.33"/></g></g></svg>