<?xml version="1.0" encoding="utf-8"?>
<!-- Generator: Adobe Illustrator 21.0.0, SVG Export Plug-In . SVG Version: 6.00 Build 0)  -->
<svg version="1.1" xmlns="http://www.w3.org/2000/svg" xmlns:xlink="http://www.w3.org/1999/xlink" x="0px" y="0px"
	 viewBox="0 0 50 50" style="enable-background:new 0 0 50 50;" xml:space="preserve">
<style type="text/css">
	.st0{clip-path:url(#SVGID_2_);}
	.st1{clip-path:url(#SVGID_6_);fill:#FFFFFF;}
	.st2{opacity:0.2;clip-path:url(#SVGID_8_);}
	.st3{clip-path:url(#SVGID_10_);fill:#FFFFFF;}
	.st4{clip-path:url(#SVGID_12_);fill:#FFFFFF;}
	.st5{clip-path:url(#SVGID_14_);fill:#FFFFFF;}
	.st6{clip-path:url(#SVGID_16_);fill:#FFFFFF;}
	.st7{opacity:0.2;clip-path:url(#SVGID_18_);}
	.st8{clip-path:url(#SVGID_20_);fill:#FFFFFF;}
	.st9{clip-path:url(#SVGID_22_);fill:none;stroke:#D1D3D4;}
	.st10{fill:none;}
	.st11{clip-path:url(#SVGID_24_);fill:#FFFFFF;}
	.st12{clip-path:url(#SVGID_26_);fill:#E6E7E8;}
	.st13{fill:#6D6E71;}
	.st14{fill:#FFFFFF;}
	.st15{fill:#00AEEF;}
	.st16{fill:#0084B6;}
	.st17{fill:#58595B;}
	.st18{fill:none;stroke:#00AEEF;stroke-width:4.5347;}
	.st19{fill:none;stroke:#0084B6;stroke-width:4.5347;}
	.st20{clip-path:url(#SVGID_28_);fill:#0084B6;}
	.st21{fill:#2BACE2;stroke:#FFFFFF;stroke-width:1.7205;stroke-linecap:round;stroke-linejoin:round;stroke-miterlimit:10;}
	.st22{fill:none;stroke:#00AEEF;stroke-width:13.6041;}
	.st23{fill:none;stroke:#0084B6;stroke-width:13.6041;}
	.st24{clip-path:url(#SVGID_30_);fill:#0084B6;}
	.st25{fill:#2BACE2;stroke:#FFFFFF;stroke-width:5.1615;stroke-linecap:round;stroke-linejoin:round;stroke-miterlimit:10;}
	.st26{fill:#005F80;}
	.st27{fill:#44C8F5;}
	.st28{fill:#FBB040;}
	.st29{clip-path:url(#SVGID_32_);}
	.st30{fill:#D1D3D4;}
</style>
<g id="Layer_1">
	<g>
		<defs>
			<rect id="SVGID_1_" x="791.6" y="-518.8" width="1440" height="570"/>
		</defs>
		<clipPath id="SVGID_2_">
			<use xlink:href="#SVGID_1_"  style="overflow:visible;"/>
		</clipPath>
		<g class="st0">
			<defs>
				<rect id="SVGID_3_" x="790.7" y="-518.8" width="1440.9" height="961.7"/>
			</defs>
			<clipPath id="SVGID_4_">
				<use xlink:href="#SVGID_3_"  style="overflow:visible;"/>
			</clipPath>
			<g transform="matrix(1 0 0 1 6.103516e-05 0)" style="clip-path:url(#SVGID_4_);">
				
					<image style="overflow:visible;" width="2002" height="1336" xlink:href="4CF91A9B.jpg"  transform="matrix(0.7197 0 0 0.7198 790.6615 -518.8449)">
				</image>
			</g>
		</g>
	</g>
	<text transform="matrix(1 0 0 1 1235.286 -327.612)"><tspan x="0" y="0" class="st14" style="font-family:'Roboto-Light'; font-size:42.2197px;">W</tspan><tspan x="37.2" y="0" class="st14" style="font-family:'Roboto-Light'; font-size:42.2197px;">elcome </tspan><tspan x="183.4" y="0" class="st14" style="font-family:'Roboto-Light'; font-size:42.2197px;">t</tspan><tspan x="196.6" y="0" class="st14" style="font-family:'Roboto-Light'; font-size:42.2197px;">o Regit Help Center</tspan></text>
	<g>
		<defs>
			<rect id="SVGID_5_" x="791.6" y="-518.8" width="1440" height="1804.6"/>
		</defs>
		<clipPath id="SVGID_6_">
			<use xlink:href="#SVGID_5_"  style="overflow:visible;"/>
		</clipPath>
		<path class="st1" d="M1832.6-166.4h-642c-5,0-9-4-9-9v-32c0-5,4-9,9-9h642c5,0,9,4,9,9v32C1841.6-170.5,1837.5-166.4,1832.6-166.4
			"/>
	</g>
	<text transform="matrix(1 0 0 1 1259.9735 -185.2883)"><tspan x="0" y="0" class="st13" style="font-family:'Roboto-Light'; font-size:25px;">How can we help </tspan><tspan x="192.7" y="0" class="st13" style="font-family:'Roboto-Light'; font-size:25px;">y</tspan><tspan x="204.4" y="0" class="st13" style="font-family:'Roboto-Light'; font-size:25px;">ou?</tspan></text>
	<g>
		<defs>
			<rect id="SVGID_7_" x="791.6" y="-518.8" width="1440" height="1804.6"/>
		</defs>
		<clipPath id="SVGID_8_">
			<use xlink:href="#SVGID_7_"  style="overflow:visible;"/>
		</clipPath>
		<g class="st2">
			<g>
				<defs>
					<rect id="SVGID_9_" x="1191.6" y="-149.3" width="296.1" height="30.2"/>
				</defs>
				<clipPath id="SVGID_10_">
					<use xlink:href="#SVGID_9_"  style="overflow:visible;"/>
				</clipPath>
				<path class="st3" d="M1482.7-119.1h-286.1c-2.8,0-5-2.2-5-5v-20.2c0-2.8,2.2-5,5-5h286.1c2.8,0,5,2.2,5,5v20.2
					C1487.7-121.4,1485.5-119.1,1482.7-119.1"/>
			</g>
		</g>
		<g class="st2">
			<g>
				<defs>
					<rect id="SVGID_11_" x="1191.6" y="-110.7" width="230.1" height="30.2"/>
				</defs>
				<clipPath id="SVGID_12_">
					<use xlink:href="#SVGID_11_"  style="overflow:visible;"/>
				</clipPath>
				<path class="st4" d="M1416.6-80.5h-220.1c-2.8,0-5-2.2-5-5v-20.2c0-2.8,2.2-5,5-5h220.1c2.8,0,5,2.2,5,5v20.2
					C1421.6-82.8,1419.4-80.5,1416.6-80.5"/>
			</g>
		</g>
		<g class="st2">
			<g>
				<defs>
					<rect id="SVGID_13_" x="1501.9" y="-149.3" width="246.8" height="30.2"/>
				</defs>
				<clipPath id="SVGID_14_">
					<use xlink:href="#SVGID_13_"  style="overflow:visible;"/>
				</clipPath>
				<path class="st5" d="M1743.7-119.1h-236.8c-2.8,0-5-2.2-5-5v-20.2c0-2.8,2.2-5,5-5h236.8c2.8,0,5,2.2,5,5v20.2
					C1748.7-121.4,1746.5-119.1,1743.7-119.1"/>
			</g>
		</g>
		<g class="st2">
			<g>
				<defs>
					<rect id="SVGID_15_" x="1431.8" y="-110.7" width="243.3" height="30.2"/>
				</defs>
				<clipPath id="SVGID_16_">
					<use xlink:href="#SVGID_15_"  style="overflow:visible;"/>
				</clipPath>
				<path class="st6" d="M1670.1-80.5h-233.3c-2.8,0-5-2.2-5-5v-20.2c0-2.8,2.2-5,5-5h233.3c2.8,0,5,2.2,5,5v20.2
					C1675.1-82.8,1672.9-80.5,1670.1-80.5"/>
			</g>
		</g>
	</g>
	<text transform="matrix(1 0 0 1 1205.9999 -129.5275)"><tspan x="0" y="0" class="st14" style="font-family:'Roboto-Light'; font-size:15px;">How do I change or </tspan><tspan x="131" y="0" class="st14" style="font-family:'Roboto-Light'; font-size:15px;">r</tspan><tspan x="135.9" y="0" class="st14" style="font-family:'Roboto-Light'; font-size:15px;">eset my passwo</tspan><tspan x="242.8" y="0" class="st14" style="font-family:'Roboto-Light'; font-size:15px;">r</tspan><tspan x="247.8" y="0" class="st14" style="font-family:'Roboto-Light'; font-size:15px;">d?</tspan></text>
	<text transform="matrix(1 0 0 1 1204.0048 -91.0075)" class="st14" style="font-family:'Roboto-Light'; font-size:15px;">How can I add my information?</text>
	<text transform="matrix(1 0 0 1 1442.5048 -91.0075)" class="st14" style="font-family:'Roboto-Light'; font-size:15px;">Why do I need security questions?</text>
	<g>
		<defs>
			<rect id="SVGID_17_" x="791.6" y="-518.8" width="1440" height="1804.6"/>
		</defs>
		<clipPath id="SVGID_18_">
			<use xlink:href="#SVGID_17_"  style="overflow:visible;"/>
		</clipPath>
		<g class="st7">
			<g>
				<defs>
					<rect id="SVGID_19_" x="1686.3" y="-110.7" width="155.3" height="30.2"/>
				</defs>
				<clipPath id="SVGID_20_">
					<use xlink:href="#SVGID_19_"  style="overflow:visible;"/>
				</clipPath>
				<path class="st8" d="M1836.6-80.5h-145.3c-2.8,0-5-2.2-5-5v-20.2c0-2.8,2.2-5,5-5h145.3c2.8,0,5,2.2,5,5v20.2
					C1841.6-82.8,1839.3-80.5,1836.6-80.5"/>
			</g>
		</g>
	</g>
	<text transform="matrix(1 0 0 1 1697.0697 -91.0109)"><tspan x="0" y="0" class="st14" style="font-family:'Roboto-Light'; font-size:15px;">How </tspan><tspan x="34" y="0" class="st14" style="font-family:'Roboto-Light'; font-size:15px;">t</tspan><tspan x="38.6" y="0" class="st14" style="font-family:'Roboto-Light'; font-size:15px;">o join an </tspan><tspan x="97.7" y="0" class="st14" style="font-family:'Roboto-Light'; font-size:15px;">e</tspan><tspan x="105.4" y="0" class="st14" style="font-family:'Roboto-Light'; font-size:15px;">v</tspan><tspan x="112.5" y="0" class="st14" style="font-family:'Roboto-Light'; font-size:15px;">ent?</tspan></text>
	<text transform="matrix(1 0 0 1 1514.5345 -129.5309)"><tspan x="0" y="0" class="st14" style="font-family:'Roboto-Light'; font-size:15px;">Whe</tspan><tspan x="29.4" y="0" class="st14" style="font-family:'Roboto-Light'; font-size:15px;">r</tspan><tspan x="34.3" y="0" class="st14" style="font-family:'Roboto-Light'; font-size:15px;">e I can manage my account? </tspan></text>
	<text transform="matrix(1 0 0 1 1397.7928 213.7855)"><tspan x="0" y="0" style="fill:#231F20; font-family:'Roboto-Light'; font-size:35px;">P</tspan><tspan x="21.3" y="0" style="fill:#231F20; font-family:'Roboto-Light'; font-size:35px;">opular</tspan><tspan x="117.9" y="0" style="fill:#231F20; font-family:'Roboto-Light'; font-size:35px;"> </tspan><tspan x="125.8" y="0" style="fill:#231F20; font-family:'Roboto-Light'; font-size:35px; letter-spacing:-1;">T</tspan><tspan x="145" y="0" style="fill:#231F20; font-family:'Roboto-Light'; font-size:35px;">opics</tspan></text>
	<text transform="matrix(1 0 0 1 1292.8627 735.9158)"><tspan x="0" y="0" style="fill:#231F20; font-family:'Roboto-Light'; font-size:35px;">Looking </tspan><tspan x="129.8" y="0" style="fill:#231F20; font-family:'Roboto-Light'; font-size:35px;">F</tspan><tspan x="149.1" y="0" style="fill:#231F20; font-family:'Roboto-Light'; font-size:35px;">or Something Else?</tspan></text>
	<text transform="matrix(1 0 0 1 1040.0966 481.8797)" style="fill:#231F20; font-family:'Roboto-Regular'; font-size:23px;">Using Regit</text>
	<text transform="matrix(1 0 0 1 1040.0966 506.8797)"><tspan x="0" y="0" style="fill:#748A96; font-family:'Roboto-Regular'; font-size:15px;">Learn the how </tspan><tspan x="93" y="0" style="fill:#748A96; font-family:'Roboto-Regular'; font-size:15px;">t</tspan><tspan x="97.8" y="0" style="fill:#748A96; font-family:'Roboto-Regular'; font-size:15px;">o c</tspan><tspan x="115.9" y="0" style="fill:#748A96; font-family:'Roboto-Regular'; font-size:15px;">r</tspan><tspan x="120.7" y="0" style="fill:#748A96; font-family:'Roboto-Regular'; font-size:15px;">eate an </tspan></text>
	<text transform="matrix(1 0 0 1 1040.0966 524.8797)"><tspan x="0" y="0" style="fill:#748A96; font-family:'Roboto-Regular'; font-size:15px;">Account. Ogani</tspan><tspan x="96.5" y="0" style="fill:#748A96; font-family:'Roboto-Regular'; font-size:15px;">z</tspan><tspan x="102.8" y="0" style="fill:#748A96; font-family:'Roboto-Regular'; font-size:15px;">e, use and </tspan></text>
	<text transform="matrix(1 0 0 1 1040.0966 542.8797)"><tspan x="0" y="0" style="fill:#748A96; font-family:'Roboto-Regular'; font-size:15px;">sha</tspan><tspan x="21.5" y="0" style="fill:#748A96; font-family:'Roboto-Regular'; font-size:15px;">r</tspan><tspan x="26.3" y="0" style="fill:#748A96; font-family:'Roboto-Regular'; font-size:15px;">e </tspan></text>
	<text transform="matrix(1 0 0 1 1080.8514 542.8797)"><tspan x="0" y="0" style="fill:#748A96; font-family:'Roboto-Regular'; font-size:15px;">y</tspan><tspan x="7" y="0" style="fill:#748A96; font-family:'Roboto-Regular'; font-size:15px;">our </tspan><tspan x="31.5" y="0" style="fill:#748A96; font-family:'Roboto-Regular'; font-size:15px;">y</tspan><tspan x="38.5" y="0" style="fill:#748A96; font-family:'Roboto-Regular'; font-size:15px;">our information.</tspan></text>
	<text transform="matrix(1 0 0 1 1284.4115 481.8797)" style="fill:#231F20; font-family:'Roboto-Regular'; font-size:23px;">Manage Account</text>
	<text transform="matrix(1 0 0 1 1284.4115 506.8797)"><tspan x="0" y="0" style="fill:#748A96; font-family:'Roboto-Regular'; font-size:15px;">Get help managing </tspan><tspan x="123.5" y="0" style="fill:#748A96; font-family:'Roboto-Regular'; font-size:15px;">y</tspan><tspan x="130.4" y="0" style="fill:#748A96; font-family:'Roboto-Regular'; font-size:15px;">our p</tspan><tspan x="163.6" y="0" style="fill:#748A96; font-family:'Roboto-Regular'; font-size:15px;">r</tspan><tspan x="168.3" y="0" style="fill:#748A96; font-family:'Roboto-Regular'; font-size:15px;">oﬁle </tspan></text>
	<text transform="matrix(1 0 0 1 1284.4115 524.8797)" style="fill:#748A96; font-family:'Roboto-Regular'; font-size:15px;">and account.</text>
	<text transform="matrix(1 0 0 1 1528.7269 481.8797)" style="fill:#231F20; font-family:'Roboto-Regular'; font-size:23px;">Delegation</text>
	<text transform="matrix(1 0 0 1 1528.7269 506.8797)" style="fill:#748A96; font-family:'Roboto-Regular'; font-size:16px;">Understand delegation Rules  </text>
	<text transform="matrix(1 0 0 1 1528.7269 526.0799)"><tspan x="0" y="0" style="fill:#748A96; font-family:'Roboto-Regular'; font-size:16px;">and how </tspan><tspan x="61.8" y="0" style="fill:#748A96; font-family:'Roboto-Regular'; font-size:16px;">t</tspan><tspan x="67" y="0" style="fill:#748A96; font-family:'Roboto-Regular'; font-size:16px;">o authori</tspan><tspan x="127.6" y="0" style="fill:#748A96; font-family:'Roboto-Regular'; font-size:16px;">z</tspan><tspan x="134.3" y="0" style="fill:#748A96; font-family:'Roboto-Regular'; font-size:16px;">e </tspan><tspan x="145.8" y="0" style="fill:#748A96; font-family:'Roboto-Regular'; font-size:16px;">t</tspan><tspan x="150.9" y="0" style="fill:#748A96; font-family:'Roboto-Regular'; font-size:16px;">o </tspan></text>
	<text transform="matrix(1 0 0 1 1528.7269 545.2801)" style="fill:#748A96; font-family:'Roboto-Regular'; font-size:16px;">others. </text>
	<text transform="matrix(1 0 0 1 1773.0414 481.8797)"><tspan x="0" y="0" style="fill:#231F20; font-family:'Roboto-Regular'; font-size:23px;">Inte</tspan><tspan x="37.4" y="0" style="fill:#231F20; font-family:'Roboto-Regular'; font-size:23px;">r</tspan><tspan x="44.5" y="0" style="fill:#231F20; font-family:'Roboto-Regular'; font-size:23px;">action </tspan></text>
	<text transform="matrix(1 0 0 1 1773.0414 506.8797)"><tspan x="0" y="0" style="fill:#748A96; font-family:'Roboto-Regular'; font-size:16px;">Learn how </tspan><tspan x="73.6" y="0" style="fill:#748A96; font-family:'Roboto-Regular'; font-size:16px;">t</tspan><tspan x="78.8" y="0" style="fill:#748A96; font-family:'Roboto-Regular'; font-size:16px;">o inte</tspan><tspan x="116.9" y="0" style="fill:#748A96; font-family:'Roboto-Regular'; font-size:16px;">r</tspan><tspan x="121.8" y="0" style="fill:#748A96; font-family:'Roboto-Regular'; font-size:16px;">act with </tspan></text>
	<text transform="matrix(1 0 0 1 1773.0414 526.0799)" style="fill:#748A96; font-family:'Roboto-Regular'; font-size:16px;">others and businesses.</text>
	<g>
		<defs>
			<rect id="SVGID_21_" x="791.6" y="-518.8" width="1440" height="1804.6"/>
		</defs>
		<clipPath id="SVGID_22_">
			<use xlink:href="#SVGID_21_"  style="overflow:visible;"/>
		</clipPath>
		<rect x="1267.3" y="311.8" class="st9" width="244.3" height="262.5"/>
		<rect x="1022.9" y="311.8" class="st9" width="244.3" height="262.5"/>
		<rect x="1511.6" y="311.8" class="st9" width="244.3" height="262.5"/>
		<rect x="1755.9" y="311.8" class="st9" width="244.3" height="262.5"/>
	</g>
	<rect x="791.6" y="-518.8" class="st10" width="1440" height="1804.6"/>
	<text transform="matrix(1 0 0 1 1494.1127 1174.5311)"><tspan x="0" y="0" class="st17" style="font-family:'Roboto-Regular'; font-size:15px;">Sta</tspan><tspan x="19.6" y="0" class="st17" style="font-family:'Roboto-Regular'; font-size:15px;">r</tspan><tspan x="24.9" y="0" class="st17" style="font-family:'Roboto-Regular'; font-size:15px;">t chat</tspan></text>
	<text transform="matrix(1 0 0 1 1441.8558 1093.6337)"><tspan x="0" y="0" style="fill:#231F20; font-family:'Roboto-Regular'; font-size:20px;">Contact Suppo</tspan><tspan x="124.4" y="0" style="fill:#231F20; font-family:'Roboto-Regular'; font-size:20px;">r</tspan><tspan x="131.4" y="0" style="fill:#231F20; font-family:'Roboto-Regular'; font-size:20px;">t</tspan></text>
	<text transform="matrix(1 0 0 1 1355.996 1122.6737)"><tspan x="0" y="0" class="st17" style="font-family:'Roboto-Light'; font-size:20px;">Get help right aw</tspan><tspan x="147.4" y="0" class="st17" style="font-family:'Roboto-Light'; font-size:20px;">a</tspan><tspan x="158" y="0" class="st17" style="font-family:'Roboto-Light'; font-size:20px;">y </tspan><tspan x="172.3" y="0" class="st17" style="font-family:'Roboto-Light'; font-size:20px;">b</tspan><tspan x="183.3" y="0" class="st17" style="font-family:'Roboto-Light'; font-size:20px;">y contact </tspan><tspan x="268.9" y="0" class="st17" style="font-family:'Roboto-Light'; font-size:20px;">t</tspan><tspan x="275.2" y="0" class="st17" style="font-family:'Roboto-Light'; font-size:20px;">o us. </tspan></text>
	<text transform="matrix(1 0 0 1 1410.1957 1146.6737)"><tspan x="0" y="0" class="st17" style="font-family:'Roboto-Light'; font-size:20px;">W</tspan><tspan x="17.6" y="0" class="st17" style="font-family:'Roboto-Light'; font-size:20px;">e a</tspan><tspan x="43.5" y="0" class="st17" style="font-family:'Roboto-Light'; font-size:20px;">r</tspan><tspan x="50.1" y="0" class="st17" style="font-family:'Roboto-Light'; font-size:20px;">e he</tspan><tspan x="86.6" y="0" class="st17" style="font-family:'Roboto-Light'; font-size:20px;">r</tspan><tspan x="93.1" y="0" class="st17" style="font-family:'Roboto-Light'; font-size:20px;">e </tspan><tspan x="108.3" y="0" class="st17" style="font-family:'Roboto-Light'; font-size:20px;">t</tspan><tspan x="114.5" y="0" class="st17" style="font-family:'Roboto-Light'; font-size:20px;">o help </tspan><tspan x="172.3" y="0" class="st17" style="font-family:'Roboto-Light'; font-size:20px;">y</tspan><tspan x="181.7" y="0" class="st17" style="font-family:'Roboto-Light'; font-size:20px;">ou.</tspan></text>
	<g>
		<defs>
			<rect id="SVGID_23_" x="791.6" y="-518.8" width="1440" height="1804.6"/>
		</defs>
		<clipPath id="SVGID_24_">
			<use xlink:href="#SVGID_23_"  style="overflow:visible;"/>
		</clipPath>
		<path class="st11" d="M1634.5,910c0.1-12.2-0.1-48.3-11-61.6c-12.6-15.5-29.7-14.1-50.2-14.1c-21.4,0-41.9-0.4-54.5,16.4
			c-9.8,13-10.4,41.1-10.4,59.4c0,19.4,3.9,49,13.8,63.2c5.1,7.4,18.3,11.8,32.8,13.8c2.9,0.4,4.5,4.6,4.5,7.6c0,1,0.2,4.4-1.6,8.2
			c-1.3,2.7-4.4,6.1-10.8,9.6c-1.3,0.7-0.5,2.8,1,2.7c9.5-0.8,15.1-4,19.4-7.2c5.4-4.1,8.4-10.7,10-15.9c0.7-2.3,2.8-3.8,5.1-3.8
			c13.3-0.2,26.7-1.4,36.2-9.7C1634.8,964.7,1634.6,921.6,1634.5,910"/>
		<path class="st11" d="M1482.1,1012c0,0,0,0.1-0.1,0.1c-0.1,0-0.1,0-0.2,0c-0.2-0.2-21.7-18.6-28.8-25.2c-1.5-1.4-3.5-2.2-5.5-2.2
			c-12.4,0-21.5-0.5-27.2-1.5c-10.6-1.9-17.6-8.8-19.1-19.1c-1.6-10.3-1.6-26-1.5-34.5v-0.1c0-1.3,0-2.8,0-4.5
			c-0.1-8.3-0.2-20.9,1.5-27.1c2.9-10.8,8.9-17.5,17.8-20c5.5-1.5,20.3-2.3,45.1-2.3c9,0,17.5,0.3,25,0.8c7.5,0.5,14,1.3,18.7,2.2
			c11.1,2.2,17.5,8.6,19.2,19.1c1.5,9.8,1.5,24.7,1.5,32.7v0.2c0,8,0,24.6-1.5,33.5c-1.8,10.3-8.6,17.1-19.2,19.1
			c-4.8,0.9-10.3,1.1-15.2,1.2c-2.4,0.1-4.6,0.1-6.5,0.3c-2.8,0.2-5.1,1.4-6.5,3.3c-1.3,1.8-1.8,4-1.3,6.4L1482.1,1012z"/>
		<path class="st11" d="M1623,977.3c0,3.1-2.5,5.6-5.6,5.6c-3.1,0-5.6-2.5-5.6-5.6c0-3.1,2.5-5.6,5.6-5.6
			C1620.4,971.6,1623,974.2,1623,977.3"/>
		<path class="st11" d="M1634.5,979.7c0,1.9-1.6,3.5-3.5,3.5c-1.9,0-3.5-1.6-3.5-3.5s1.6-3.5,3.5-3.5
			C1633,976.2,1634.5,977.8,1634.5,979.7"/>
		<path class="st11" d="M1496.3,857.9c0,2.8-2.3,5-5,5c-2.8,0-5-2.3-5-5s2.3-5,5-5C1494.1,852.9,1496.3,855.1,1496.3,857.9"/>
		<path class="st11" d="M1481.4,862.3c0,1.6-1.3,2.8-2.8,2.8c-1.6,0-2.8-1.3-2.8-2.8s1.3-2.8,2.8-2.8
			C1480.2,859.5,1481.4,860.8,1481.4,862.3"/>
	</g>
	<text transform="matrix(1 0 0 1 1239.3573 -49.6935)"><tspan x="0" y="0" class="st14" style="font-family:'Roboto-Light'; font-size:17px;">If </tspan><tspan x="14.3" y="0" class="st14" style="font-family:'Roboto-Light'; font-size:17px;">y</tspan><tspan x="22.3" y="0" class="st14" style="font-family:'Roboto-Light'; font-size:17px;">ou ca</tspan><tspan x="63.1" y="0" class="st14" style="font-family:'Roboto-Light'; font-size:17px;">n</tspan><tspan x="71.8" y="0" class="st14" style="font-family:'Roboto-Light'; font-size:17px;">’t ﬁnd what </tspan><tspan x="157.3" y="0" class="st14" style="font-family:'Roboto-Light'; font-size:17px;">y</tspan><tspan x="165.3" y="0" class="st14" style="font-family:'Roboto-Light'; font-size:17px;">ou’</tspan><tspan x="187.2" y="0" class="st14" style="font-family:'Roboto-Light'; font-size:17px;">r</tspan><tspan x="192.7" y="0" class="st14" style="font-family:'Roboto-Light'; font-size:17px;">e looking, </tspan><tspan x="266.8" y="0" class="st14" style="font-family:'Roboto-Light'; font-size:17px;">y</tspan><tspan x="274.8" y="0" class="st14" style="font-family:'Roboto-Light'; font-size:17px;">ou can alw</tspan><tspan x="354.8" y="0" class="st14" style="font-family:'Roboto-Light'; font-size:17px;">a</tspan><tspan x="363.8" y="0" class="st14" style="font-family:'Roboto-Light'; font-size:17px;">ys contact us via chat or </tspan></text>
	<text transform="matrix(1 0 0 1 1398.1034 -29.2936)" class="st14" style="font-family:'Roboto-Light'; font-size:17px;">email and we will gladly assist.</text>
	<text transform="matrix(1 0 0 1 1229.6166 -297.7062)"><tspan x="0" y="0" class="st14" style="font-family:'Roboto-Light'; font-size:17px;">Find what </tspan><tspan x="77.1" y="0" class="st14" style="font-family:'Roboto-Light'; font-size:17px;">y</tspan><tspan x="85.1" y="0" class="st14" style="font-family:'Roboto-Light'; font-size:17px;">ou’</tspan><tspan x="107" y="0" class="st14" style="font-family:'Roboto-Light'; font-size:17px;">r</tspan><tspan x="112.5" y="0" class="st14" style="font-family:'Roboto-Light'; font-size:17px;">e looking for </tspan><tspan x="208.4" y="0" class="st14" style="font-family:'Roboto-Light'; font-size:17px;">b</tspan><tspan x="217.7" y="0" class="st14" style="font-family:'Roboto-Light'; font-size:17px;">y b</tspan><tspan x="239.3" y="0" class="st14" style="font-family:'Roboto-Light'; font-size:17px;">r</tspan><tspan x="244.9" y="0" class="st14" style="font-family:'Roboto-Light'; font-size:17px;">owsing th</tspan><tspan x="317.4" y="0" class="st14" style="font-family:'Roboto-Light'; font-size:17px;">r</tspan><tspan x="322.9" y="0" class="st14" style="font-family:'Roboto-Light'; font-size:17px;">ough the </tspan><tspan x="392.4" y="0" class="st14" style="font-family:'Roboto-Light'; font-size:17px; letter-spacing:-1;">F</tspan><tspan x="400.5" y="0" class="st14" style="font-family:'Roboto-Light'; font-size:17px;">A</tspan><tspan x="411.1" y="0" class="st14" style="font-family:'Roboto-Light'; font-size:17px;">Qs page or type </tspan><tspan x="531.4" y="0" class="st14" style="font-family:'Roboto-Light'; font-size:17px;">y</tspan><tspan x="539.4" y="0" class="st14" style="font-family:'Roboto-Light'; font-size:17px;">our </tspan></text>
	<text transform="matrix(1 0 0 1 1420.4076 -277.3063)"><tspan x="0" y="0" class="st14" style="font-family:'Roboto-Light'; font-size:17px;">questions di</tspan><tspan x="90.3" y="0" class="st14" style="font-family:'Roboto-Light'; font-size:17px;">r</tspan><tspan x="95.9" y="0" class="st14" style="font-family:'Roboto-Light'; font-size:17px;">ectly belo</tspan><tspan x="166.5" y="0" class="st14" style="font-family:'Roboto-Light'; font-size:17px; letter-spacing:-1;">w</tspan><tspan x="178.3" y="0" class="st14" style="font-family:'Roboto-Light'; font-size:17px;">.</tspan></text>
	<text transform="matrix(1 0 0 1 1085.5858 1254.3954)"><tspan x="0" y="0" class="st14" style="font-family:'Roboto-Regular'; font-size:17px;">REG</tspan><tspan x="28.5" y="0" class="st14" style="font-family:'Roboto-Regular'; font-size:17px;">I</tspan><tspan x="32.3" y="0" class="st14" style="font-family:'Roboto-Regular'; font-size:17px;">T</tspan><tspan x="40.5" y="0" class="st14" style="font-family:'Roboto-Regular'; font-size:17px;"> FOR IN</tspan><tspan x="92.1" y="0" class="st14" style="font-family:'Roboto-Regular'; font-size:17px;">D</tspan><tspan x="103.3" y="0" class="st14" style="font-family:'Roboto-Regular'; font-size:17px;">IVID</tspan><tspan x="132.3" y="0" class="st14" style="font-family:'Roboto-Regular'; font-size:17px;">U</tspan><tspan x="143.1" y="0" class="st14" style="font-family:'Roboto-Regular'; font-size:17px;">AL </tspan><tspan x="165.1" y="0" class="st14" style="font-family:'Roboto-Regular'; font-size:17px; letter-spacing:31;"> </tspan><tspan x="200.3" y="0" class="st14" style="font-family:'Roboto-Regular'; font-size:17px; letter-spacing:31;"> </tspan><tspan x="235.7" y="0" class="st14" style="font-family:'Roboto-Regular'; font-size:17px;">REG</tspan><tspan x="264.1" y="0" class="st14" style="font-family:'Roboto-Regular'; font-size:17px;">I</tspan><tspan x="268" y="0" class="st14" style="font-family:'Roboto-Regular'; font-size:17px;">T</tspan><tspan x="276.1" y="0" class="st14" style="font-family:'Roboto-Regular'; font-size:17px;"> FOR BUSINESS</tspan><tspan x="381.4" y="0" class="st14" style="font-family:'Roboto-Regular'; font-size:17px; letter-spacing:11;"> </tspan><tspan x="396.7" y="0" class="st14" style="font-family:'Roboto-Regular'; font-size:17px; letter-spacing:31;">  </tspan><tspan x="467.4" y="0" class="st14" style="font-family:'Roboto-Regular'; font-size:17px;">REG</tspan><tspan x="495.9" y="0" class="st14" style="font-family:'Roboto-Regular'; font-size:17px;">I</tspan><tspan x="499.8" y="0" class="st14" style="font-family:'Roboto-Regular'; font-size:17px;">T</tspan><tspan x="507.9" y="0" class="st14" style="font-family:'Roboto-Regular'; font-size:17px;"> FOR DEVE</tspan><tspan x="581.8" y="0" class="st14" style="font-family:'Roboto-Regular'; font-size:17px;">L</tspan><tspan x="589.3" y="0" class="st14" style="font-family:'Roboto-Regular'; font-size:17px;">OPER</tspan><tspan x="627.5" y="0" class="st14" style="font-family:'Roboto-Regular'; font-size:17px; letter-spacing:-2;"> </tspan><tspan x="628.6" y="0" class="st14" style="font-family:'Roboto-Regular'; font-size:17px; letter-spacing:31;"> </tspan><tspan x="664" y="0" class="st14" style="font-family:'Roboto-Regular'; font-size:17px;">LEGAL &amp; PRI</tspan><tspan x="749.6" y="0" class="st14" style="font-family:'Roboto-Regular'; font-size:17px;">V</tspan><tspan x="758.4" y="0" class="st14" style="font-family:'Roboto-Regular'; font-size:17px;">A</tspan><tspan x="768.7" y="0" class="st14" style="font-family:'Roboto-Regular'; font-size:17px;">CY</tspan></text>
	<g>
		<defs>
			<rect id="SVGID_25_" x="791.6" y="-518.8" width="1440" height="1804.6"/>
		</defs>
		<clipPath id="SVGID_26_">
			<use xlink:href="#SVGID_25_"  style="overflow:visible;"/>
		</clipPath>
		<rect x="791.6" y="51.2" class="st12" width="1440" height="51.7"/>
	</g>
	<text transform="matrix(1 0 0 1 1167.5248 81.7752)" class="st17" style="font-family:'Roboto-Regular'; font-size:17px;">Home</text>
	<text transform="matrix(1 0 0 1 1408.976 81.7752)" class="st17" style="font-family:'Roboto-Regular'; font-size:17px;">Business</text>
	<text transform="matrix(1 0 0 1 1569.3363 81.7752)"><tspan x="0" y="0" class="st17" style="font-family:'Roboto-Regular'; font-size:17px;">D</tspan><tspan x="11.3" y="0" class="st17" style="font-family:'Roboto-Regular'; font-size:17px;">ev</tspan><tspan x="27.8" y="0" class="st17" style="font-family:'Roboto-Regular'; font-size:17px;">eloper</tspan></text>
	<text transform="matrix(1 0 0 1 1728.1674 81.7752)"><tspan x="0" y="0" class="st17" style="font-family:'Roboto-Regular'; font-size:17px;">Security &amp; Sa</tspan><tspan x="91.1" y="0" class="st17" style="font-family:'Roboto-Regular'; font-size:17px;">f</tspan><tspan x="95.9" y="0" class="st17" style="font-family:'Roboto-Regular'; font-size:17px;">ety</tspan></text>
	<text transform="matrix(1 0 0 1 1271.8368 81.7752)" class="st17" style="font-family:'Roboto-Regular'; font-size:17px;">Individual</text>
	<path class="st13" d="M1229.8-186.6c4.7-4.7,4.7-12.5,0-17.2c-4.7-4.7-12.5-4.7-17.2,0c-4.4,4.4-4.7,11.4-0.9,16.1l-6.6,6.6
		c-0.6,0.6-0.6,1.5,0,2c0.6,0.6,1.5,0.6,2,0l6.6-6.6C1218.4-181.9,1225.4-182.2,1229.8-186.6 M1214.2-188.2c-3.9-3.9-3.9-10.1,0-14
		c3.9-3.9,10.1-3.9,14,0c3.9,3.9,3.9,10.1,0,14C1224.3-184.3,1218-184.3,1214.2-188.2"/>
	<g>
		<path class="st14" d="M1518.7-407.1c0.5-0.5,1-0.7,1.5-0.8c0,0,0,0,0,0c0.8-5.7-1.1-12.2-7.6-15.8c-1-0.4-1.4-0.3-1.5-0.1
			c0,0.1,0,0.3,0.2,0.5c0.3,0.4,0.8,0.8,1.3,1c0,0,3.4,1.3,5.1,6.1C1518.5-413.9,1518.9-411,1518.7-407.1
			C1518.7-407.1,1518.7-407.1,1518.7-407.1C1518.7-407.1,1518.7-407.1,1518.7-407.1C1518.7-407.1,1518.7-407.1,1518.7-407.1
			C1518.7-407.1,1518.7-407.1,1518.7-407.1"/>
		<path class="st14" d="M1515-401.5L1515-401.5l2-3.2c0,0,0,0,0-0.1c0.3-1.8,0.4-3.6,0.4-5.4c0-3.8-0.7-7.4-3.2-9.8
			c-0.9-0.9-1.9-1.6-2.9-2.1c-0.3-0.2-0.5-0.5-0.7-0.8c-0.1-0.1-0.1-0.1-0.2-0.2c-4.3-1.9-8.2,0.8-11.6,2.3
			c-8.4,5.9-16.2,12.8-21,17.2c-0.4,0.3-0.7,0.6-0.9,0.7c-0.3,0.3-2.2,2-2.2,2c0,0,0,0,0,0c0,0,0,0,0,0c0.1,0.4,0.2,0.8,0.4,1.2
			c0,0,0,0,0,0c0.1,0.2,0.1,0.4,0.1,0.4s0.7-0.5,1.8-1.4c1-0.6,2.2-1.6,3.5-2.7c2.5-1.9,5.3-4.9,7.5-6.6c3.8-3.1,7.3-5.2,9.8-7.2
			c1.7-1.3,3.2-2.7,4.2-3.3c5.8-4.1,10.9,0.1,12.2,2.5c1.4,2.3,1.8,4.9,1.7,7.2c0,3.3-0.9,5.9-0.9,5.9V-401.5L1515-401.5L1515-401.5
			z"/>
		<path class="st14" d="M1521.3-376.2c0.3-0.4,1-1.3,1.1-1.3c4-4.5,9.7-13.6,9.4-28c0.5-5.4,0.1-10.3-2-14.3c-0.3-0.8-0.6-1.5-1-2.2
			c-0.3-0.5-0.6-1.1-1-1.6c-0.6-1.6-4-4.7-4.4-5c-0.9-0.9-2-1.7-3.1-2.6l0,0c-0.4-0.3-0.9-0.6-1.4-0.9c-0.1-0.1-0.2-0.1-0.3-0.2
			c0,0,0,0,0,0c-1.6-0.9-3.4-1.8-3.4-1.8c-0.9-0.3-1.9-0.5-2.8-0.6c-1.2-0.2-2.4-0.3-3.5-0.4c-1.4-0.1-2.6,0-3.6,0.1
			c-0.2,0-0.3,0-0.5,0c-0.2,0-0.3,0-0.4,0c-0.1,0-11.9,1.9-16.7,4.8c-1.2,0.5-2.3,1.2-3.4,1.8c-3.2,1.2-9.2,6.8-9.4,6.9
			c-0.2,1-0.8,2.8-1,3.9c0.1,0,7.5-6.6,10.2-8.3c0.1-0.2,5.6-3.4,8.5-4.6c4.6-1.5,9.4-2.6,14.6-3c0.7,0,8.9-1.9,17.8,9.1
			c5,4.6,6,11.2,5.6,18.6c0,0.2-0.1,1.1-0.2,2.3c0,0.1-0.1,1-0.3,2.7c0,0-0.7,4-3.7,9.7c-2.7,5.1-5.9,9.6-5.9,9.6
			c-0.1,0.1-0.5,0.6-0.5,0.6c-0.3,0.4-1.1,1.7-1.2,1.8c-0.3,0.4-3.3,3-2.8,2.8c-0.1,0.1-0.2,0.2-0.2,0.3c0,0.1,0.1,0.1,0.1,0.2
			c0.2,0.3,0.3,0.5,0.6,0.7c0,0,0,0,0,0c0.8-0.6,3.1-2.6,3.3-2.8c0.7-1.1,2.3-3.3,3.5-4.7c0.5-0.8,1.6-3,2.1-3.9
			c1.2-1.9,3.9-7.8,4.7-9.2c-0.2,0.8-1.9,5.3-2.2,6c-3,8-6.8,11.7-7.9,12.8c0,0-1.8,1.8-2.4,2.3c0,0,0,0,0,0
			c0.3,0.1,1.3,0.3,1.4,0.3l-0.1,0c0,0,0.4,0,0.5,0.1c0,0,0,0,0.1,0C1519.1-374.1,1520.7-375.5,1521.3-376.2"/>
		<path class="st14" d="M1549.9-411.3C1549.9-411.3,1549.9-411.4,1549.9-411.3c-0.1-0.6-0.2-1.2-0.3-1.8c-1.1-1.8-1.4-4-2.3-5.8
			c-0.1-0.1-0.1-0.3-0.2-0.4c-7.9-14.5-17.9-23.3-32.5-26.2c-1.1-0.2-4.1-1.3-10.6-1.3c-7,0.1-7.6,0.7-8.5,0.8
			c-1.6,0.7-3.1,1.6-4.5,2.5l5.6-1.3c0,0,4.3-0.4,4.3-0.4c2.8-0.4,12.8-0.5,24.9,4.5c0.8,0.3,6.3,4.1,9.7,7.4c2.4,2.3,3.8,4,3.8,4h0
			c1,1.2,2,2.5,2.8,3.8c0,0,0,0,0,0c7.9,12.5,6.8,23,6.8,23C1549.5-405.3,1549.9-408.3,1549.9-411.3"/>
		<path class="st14" d="M1547.9-400.7c0-0.4-0.1-1-0.1-1.7v0c-0.1-1-0.1-2,0.1-2.7c0.3-1.3-0.8-5.3-1.3-7.3
			c-0.3-1.3-2.4-9.4-8.6-16.8c0,0-6.1-6.5-10.5-9.6c0,0,0,0,0,0c-0.8-0.6-1.9-1.1-3.1-1.6c-0.4-0.1-0.8-0.3-1.2-0.4
			c-1.1-0.4-2.3-0.7-3.5-1.1c-1.8-0.5-3.7-0.9-5.5-1.2c-0.3-0.1-0.6-0.1-0.9-0.2c-2.6-0.5-5.2-0.9-7.4-1.2c-1.4-0.2-3.1-0.2-4.8,0
			c-0.1,0-0.2,0-0.4,0c0,0,0,0-0.1,0c-0.4,0-1.7,0.2-1.7,0.2c-0.9,0.1-1.9,0.3-2.8,0.5c-0.1,0-2,0.4-2.8,0.6c-0.1,0-0.6,0.1-0.8,0.2
			c-2.7,0.7-4.5,1.3-4.5,1.3c-1.5,1.1-2.9,2.4-4.2,3.7c1.6-0.9,4.7-2.5,8.8-3.7c5.8-1.7,13.4-3.2,23.7-0.1
			c9.6,2.8,18.7,9.2,23.8,18.4c4.4,8.1,6.5,18.1,6,28.3c0.6-1.3,1.2-2.7,1.6-4.1c0,0,0,0,0.1-0.2
			C1547.9-399.5,1548-399.9,1547.9-400.7l0,0.1C1548-400.6,1548-400.7,1547.9-400.7"/>
		<path class="st14" d="M1531.1-442.7c2.1,1.2,6.2,4.7,6.2,4.7c0.4,0.4,0.6,0.6,0.6,0.6l4,3.7c0,0,1.9,2.5,2.9,3.3
			c-1.5-2.5-3.2-4.9-5.2-7c-3.7-4-8.2-7.2-13.3-9.3c0,0,0,0,0,0c-0.5-0.4-2.7-1-2.7-1h0c-3.4-1.1-7-1.8-10.7-1.9l0,0v0
			c-0.4,0-0.9,0-1.3,0c-1,0-2,0-3,0.1c1.9,0.1,4,0.3,6.1,0.6C1525.6-446.9,1529-444,1531.1-442.7"/>
		<path class="st14" d="M1514.4-446.9c0.8,0.2,1.6,0.4,2.4,0.6c6.6,1.7,12.2,4.6,17.3,8.7c1.4,1.2,2.8,2.4,4.1,3.8
			c0.1,0.1,0.3,0.3,0.4,0.4c3.7,3.9,7.1,8.7,10,14.2c0.2,0.5,0.5,0.9,0.7,1.4c-3.5-11.8-7-13.2-8.2-15c-0.7-0.8-2.2-2.9-2.8-3.3
			c-1.3-1-8.7-6.3-11.5-8c-2.8-1.6-7.4-3.2-10.1-3.7c0,0-7.8-1.4-12.6-1.2c-1.1,0.2-2.1,0.5-3.1,0.8
			C1504.7-448.2,1509.4-448,1514.4-446.9"/>
		<path class="st14" d="M1518.5-432.3c-0.3-0.2-0.5-0.3-0.8-0.5C1517.9-432.6,1518.2-432.4,1518.5-432.3"/>
		<path class="st14" d="M1543.7-410.8c-0.5-1.4-1.3-5.1-2.1-7.1c-0.4-0.9-0.8-1.8-1.2-2.7c-0.9-1.8-1.8-3.5-2.9-5.1
			c-0.3-0.4-0.5-0.8-0.8-1.2c-0.1-0.1-0.2-0.2-0.3-0.4c-0.1-0.2-1.2-1.7-1.7-2.2c-8-8.1-19.3-12.7-26.6-12.8c-2.5,0-4.8-0.1-6.9,0.1
			c-3.1,0.3-5.8,0.9-8.1,1.6c-0.1,0-0.2,0.1-0.3,0.1c-0.4,0.1-1.2,0.4-1.3,0.4c0,0,0,0-0.1,0c-0.5,0.2-1,0.4-1.6,0.6
			c-0.4,0.1-0.7,0.3-1.1,0.5c-1.7,0.7-3.5,1.7-5,2.5c-0.3,0.1-0.6,0.3-0.8,0.5c-1,0.6-1.7,1-1.7,1c-0.5,0.7-1,1.4-1.5,2.1
			c1.9-1.5,4.1-2.7,6.5-3.8l2.1-0.9c3-1.2,6.4-2.1,9.9-2.7c4-0.7,8-0.8,11.6-0.5c2.2,0.2,4.3,0.5,6,1.1c0.5,0.1,1.6,0.6,1.7,0.6
			c2.1,0.9,4.3,2,6.4,3.2c2.6,1.5,5.1,3.3,7.3,5.2c4.6,4,7.6,8.2,9,12.7c0.7,1.8,1.1,3.8,1,6c0.1,0.8,0.1,1.7,0.1,2.6
			c0.1,17-2.6,24-2.6,24c-0.2,0.5-0.3,1-0.5,1.4c1.1-1,2.1-2.1,3-3.3c0-0.1,0.1-0.3,0.1-0.4c0-0.3,0.1-0.5,0.1-0.9v0c0,0,0,0,0,0
			c0-0.3,0-0.5,0.1-0.8c0.1-1.1,0.4-3.5,0.7-7.9c0.3-3.5,0.3-12.1,0.3-12.1c1,3.6,1.1,7.7,1.1,8.7c0,2.4-0.5,10.8-0.5,11
			c0.7-1,1.3-2,1.9-3c0-0.2,0-0.3,0-0.5c0.1-1,0.1-8.5-0.3-11.4C1544.8-405.3,1544.2-408.9,1543.7-410.8"/>
		<path class="st14" d="M1543.1-389.7C1543.1-389.7,1543.1-389.7,1543.1-389.7C1543.1-389.7,1543.1-389.7,1543.1-389.7L1543.1-389.7
			z"/>
		<path class="st14" d="M1504-374.2c0.4-0.1,0.5-0.2,0.9-0.6l0.6-0.9l0.3-0.8l-3.4,2.3C1503-374,1503.6-374.1,1504-374.2"/>
		<path class="st14" d="M1484.5-411.6c6.2-5.7,10.6-8.7,15.2-11c3.5-1.8,5.3-3.2,10.2-2.9c0,0,11.6,0.6,12.2,17.6c0,0,0,0,0,0
			c0.3,0.1,0.7,0.2,1.1,0.4l0.4,0.1c0,0,0,0,0,0c0.1-3-1-8.2-1.5-9.5c-0.9-2.4-2.5-5-3.2-5.6c-0.6-0.7-3.7-4.7-11.1-4.3
			c-4.1,0.1-7.7,1.5-11,3.3c0,0,0,0,0,0c-1.7,0.9-6.8,4.5-9,6c-4.8,3.3-9.8,10.7-13.8,13c0.1,0.7,0.3,1.4,0.4,2
			C1478.2-404.6,1481.4-408.7,1484.5-411.6"/>
		<path class="st14" d="M1515-389.9c0.1-0.1,2.1-3.3,3.4-5.7c0.7-1.3,1.3-2.5,1.4-2.8c0,0,0,0,0,0c0-0.1,0.1-0.1,0.1-0.2
			c0.4-0.9,0.7-1.7,0.8-2.4l-0.3-0.1c-0.5-0.2-1-0.4-1.4-0.5c-0.6,1-1.1,2.9-1.2,3.5c-0.6,1.4-2.9,6-2.9,6V-389.9z"/>
		<path class="st14" d="M1515-385.8c1.9-2.3,3.8-4.9,5.4-7.8c0.1,0,1.6-4.2,2.4-6.6l-1.2-0.5c-0.2,0.5-0.3,1.1-0.4,1.5l0,0
			c0,0-0.8,2.4-2.1,4.9c-1,1.9-3.9,5.7-4.1,6.1V-385.8z"/>
		<path class="st14" d="M1493.3-377.7c0.4,0.2,0.7,0.4,1.1,0.6c1.5-0.7,3-1.5,4.5-2.4c2.6-1.3,4.8-3.4,7.1-5.3c0,0,0,0,0,0
			c0,0,0-1.5,0-1.5C1502-383.7,1497.9-380.7,1493.3-377.7"/>
		<path class="st14" d="M1496.4-376.2c0.5,0.2,1.1,0.5,1.7,0.7c2.8-1.4,5.4-3.3,7.8-5.4l0,0v-2.2l0,0
			C1505.8-383.1,1499.8-378,1496.4-376.2"/>
		<path class="st14" d="M1501.2-375.9c-0.2,0.1-0.4,0.3-0.6,0.4c-0.1,0-0.2,0.1-0.2,0.1c-0.1,0.1-0.2,0.1-0.3,0.2
			c-0.1,0.1-0.2,0.1-0.3,0.2c0,0-0.1,0-0.1,0.1c0.5,0.2,1.1,0.3,1.7,0.5l4.7-3.1l0,0c0-0.2,0-0.5,0-0.8v-0.6l0,0
			C1504.3-377.8,1502.7-376.8,1501.2-375.9"/>
		<path class="st14" d="M1477.3-409.2L1477.3-409.2c0,0,3.1-4.2,6.3-6.7c3.1-2.6,7.8-6.5,12.2-8.9c3.6-1.6,7.9-3.1,12.4-3
			c14.2-0.6,16.3,14.1,16.5,21c0,0,0,0,0,0l1.5,0.6v0c0-7.3-1.6-13.7-5.8-18.8c-3.2-2.4-5.2-4-14.4-4.2c-8.9,0.8-18.8,8-20.7,9.3
			c-1.8,1.3-4.5,2.9-6.3,4.3c-0.7,0.5-4.7,3.3-5.7,3.9c0,0.1,0,0.2,0,0.3c0,0.6,0,1.1,0,1.7c1.5-0.8,4.7-3.3,6.4-5
			c-1.6,2-5,6-6.3,6.6c0.1,0.7,0.1,1.5,0.2,2.2C1475-406.9,1476.3-407.9,1477.3-409.2"/>
		<path class="st14" d="M1510.4-415.5c-0.1,0-0.1-0.1-0.2-0.1c-1.1-0.3-2.1,0.6-3,2.2c-0.4,0.7-0.8,1.4-1.2,2.3
			c-1.3,2.8-4.7,6.4-4.7,6.4c-0.6,0.6-1.4,1.3-2.5,2.3c-1,0.9-4.6,3.8-8.7,6.3c-4.1,2.5-8.9,4.5-8.9,4.5c-0.6,0.3-1.2,0.7-1.8,0.9
			c0,0,0,0,0,0c0,0,0,0,0,0c0.1,0.2,0.3,0.4,0.4,0.7c0.3,0.4,0.3,0.4,0.3,0.3l1-0.5c0,0,3.6-1.6,3.9-2c1.1-0.6,3.6-1.6,9.2-4.8
			c2.6-1.5,5.2-4.4,8.5-6.8c0,0,0,0,0,0c0,0,0,0,0,0c-0.2-0.1-0.5-0.2-0.5-0.2v0v-1.3v0c1-0.1,1.6-0.2,2.6-0.3c0,0,0.2-0.3,0.4-0.7
			c0,0,0,0,0,0c0,0,0.3-0.3,0.5-0.8c0.7-1.4,1.6-3.4,2.4-4.9c0.6-1.2,1.1-2.1,1.5-2.4c0.4-0.1,0.7-0.1,0.8,0.4c0,0.1,0,0.3,0,0.4
			c0,0.3-0.1,0.7-0.3,1.1c0,0.1-0.1,0.2-0.1,0.3c-0.2,0.6-0.5,1.3-0.8,1.8c0,0,0,0.1-0.1,0.1c0,0.1-0.1,0.1-0.1,0.2c0,0,0,0,0,0
			c-0.9,1.8-2.1,4-2.1,4c0,0,0,0,0,0c0.5-0.1,1.2-0.3,1.9-0.4c0.3-0.1,0.6-0.1,0.8-0.2c0,0,0.2-0.7,0.7-2.3c0-0.1,0.1-0.2,0.1-0.3
			c0.5-1.4,0.9-2.6,1-3.5C1511.7-414.3,1511.3-415.1,1510.4-415.5"/>
		<path class="st14" d="M1493.7-386.1c1.6-0.7,4.5-3.2,4.7-3.3c1.8-1.3,3.3-2.6,3.3-2.6l0,0c1.5-1.1,2.9-2.4,4.2-3.8c0,0,0,0,0,0
			v-1.6c0,0,0,0,0,0c-2.3,2.3-10.8,10.1-21.3,13.3c0.4,0.4,0.9,0.8,1.3,1.2c0.3-0.1,0.8-0.2,1.4-0.4c0.6-0.2,1.8-0.6,1.8-0.6
			C1490-384.2,1493.1-385.9,1493.7-386.1"/>
		<path class="st14" d="M1504.7-403.2l-1.1-0.4c0,0-5.8,7.3-12.2,9.6c-3.9,2.3-9.8,4.7-10.8,5.1c0.3,0.4,0.6,0.8,1,1.3
			c2.2-0.5,11.5-4.1,16.5-8.7C1503.5-401.2,1504.7-403.2,1504.7-403.2"/>
		<path class="st14" d="M1505.9-400.4L1505.9-400.4c0-0.3,0-0.6,0-0.8c0-0.6-0.1-1-0.3-1.3c-2,3.2-6.7,8.4-10.5,10.1
			c-4.1,2.6-8,4.2-12.6,5.9c0.4,0.4,0.7,0.8,1.1,1.2c1.2-0.4,6.1-2.2,7.4-2.9C1496.3-391.3,1501.8-394.8,1505.9-400.4"/>
		<path class="st14" d="M1516.2-400.5l-0.3,0.4c-0.4,1.1-0.7,2.3-0.9,2.9v2.6c1-1.5,2.3-5,2.8-7.2
			C1517.2-401.6,1516.7-401.2,1516.2-400.5"/>
		<path class="st14" d="M1501.2-388C1501.2-388,1501.2-388,1501.2-388c1.4-1.4,3.1-2.6,4.7-3.9l0,0v-2.1c0,0,0,0,0,0
			c-1,1-1.9,2-2.9,3c-0.3,0.2-0.7,0.6-1.2,1.1c-0.5,0.5-4.5,3.2-4.9,3.5c-0.7,0.4-1.4,0.8-2.1,1.2c-0.4,0.1-0.7,0.3-1.1,0.6
			c0,0,0,0,0,0c0,0,0,0,0,0c-3.2,1.7-6,2.9-6,2.9h0c-0.1,0-0.2,0.1-0.3,0.1c0.4,0.3,0.8,0.6,1.2,0.9c2.5-1,4.8-2.3,7.2-3.5
			C1495.8-384.2,1499.8-386.8,1501.2-388"/>
		<path class="st14" d="M1505.9-388c0,0,0-1.3,0-1.3l0,0c-0.2,0.1-0.7,0.3-0.9,0.4c-0.5,0.2-3.7,2.4-4.1,2.7c0,0-1.5,0.9-2.7,1.7
			c-0.5,0.3-1,0.6-1.3,0.8c-0.1,0-0.2,0.1-0.2,0.1c-2.2,1.3-6.3,3.6-6.3,3.6s-0.3,0.1-0.4,0.2c0.4,0.3,0.8,0.6,1.2,0.8
			c2-0.9,4-1.9,5.8-3.1C1500.2-383.5,1502.6-386,1505.9-388"/>
		<path class="st14" d="M1533.9-397.9c1.8-9.9,1-18.6-2.7-25.7c-0.2-0.3-3.5-4.5-5.1-6.2c-6.4-6.8-15.4-8-15.4-8
			c-2.1-0.2-4.1-0.1-6.1,0.1c-2.7,0.4-2.7,0.4-4,0.6c-4.5,0.8-7.6,1.9-7.6,1.9l-1.1,0.2c0,0-4.4,1.6-8.1,3.2
			c-0.2,0.1-0.4,0.2-0.6,0.3c-1.4,0.6-5.3,3.2-5.8,3.6c-0.3,0.3-0.5,0.5-0.6,0.6c-0.2,0.2-0.2,0.3-0.2,0.3c-0.5,1.1-0.9,2.2-1.3,3.3
			c2.5-2.1,5.2-4,7.9-5.7c2.6-1.3,5.3-2.6,6.7-3.2c0,0,0,0,0,0c3.4-1.5,9.1-2.5,9.1-2.5s6.1-1.6,11.3-1.2c0.7,0.1,1.3,0.1,1.9,0.2
			c2,0.2,3.7,1.2,3.7,1.2c0.3,0.1,2.1,0.9,2.7,1.1c0.3,0.2,0.5,0.4,0.9,0.6c0.3,0.2,0.6,0.4,0.9,0.7c7.5,5.7,9.6,10.2,9.6,10.2
			c5.3,9,3.8,20.8,0.3,34.1c-3.1,7.1-4.3,7-5.7,9.2c-0.4,0.5-3.2,3.8-3.2,3.8c-0.3,0.4-0.8,0.7-1.2,1l0,0h0v0v0
			c0.9-0.2,1.8-0.5,2.7-0.7c0,0,0-0.1,0.1-0.1c1.5-2.3,5-5,6.6-8.7C1531.9-388.4,1532.5-392.9,1533.9-397.9"/>
		<path class="st14" d="M1540.2-408.1c0-1.4,0-2.7-0.1-4c0-1.9,0-3.7-0.8-5.1c-0.5-1.8-1.3-3.6-2.3-5.2c-4-6.5-11.2-11.6-17.8-14.7
			c0,0-0.6-0.4-1.3-0.6c-0.4-0.1-0.7-0.3-1.1-0.4c-4.3-1.7-11.1-2.1-17.9-1c-0.2,0-0.4,0.1-0.6,0.1c-2.9,0.5-5.7,1.2-8.3,2.1
			c-0.3,0.1-0.5,0.2-0.8,0.3c0,0,0,0,0,0s0,0,0,0c-2.6,1-5.1,2.3-7.2,3.7l0,0c0,0,0,0,0,0c-0.3,0.2-0.7,0.5-1,0.7
			c-1.1,0.7-2,1.3-2.5,1.7v0.3c0,0,4.9-2.9,9.5-4.7c1.5-0.6,2.9-1.1,4.1-1.3c4.8-0.9,13.1-2.9,16.6-2.5c0.2,0,3.8,0.4,3.9,0.5
			c0.3,0.1,0.5,0.2,0.8,0.2c1.9,0.4,4.1,1.3,4.4,1.5c0.8,0.4,1.6,0.5,2.3,1c0.2,0.2,0.5,0.4,0.8,0.5c8.4,5.1,11,10.2,11,10.2
			c1,1.4,1.9,2.9,2.4,4.6c3.3,7.6,2.1,18.5-0.1,28.3c-0.7,2.7-2.3,8.1-3.7,10.7c-1.5,2.2-3.3,4.1-5.2,5.8c1.1-0.4,2.3-0.9,3.4-1.5
			c1.7-2.2,3.7-4,4.9-7.1c0.6-2,1.3-4,1.9-6c2.1-8.7,2.2-16.4,2.2-24c-1.3-6.1-3-7.8-4.4-11.2c2.5,2,3.5,4.7,4.4,7.5l0,0
			c0,0,0,0,0,0c0.1,0.3,0.2,0.6,0.3,0.9c0,0,0.4,1.8,0.3,2c0.7,10,0.9,27.3-6.4,36c-0.1,0.1-0.2,0.2-0.2,0.3
			c1.5-0.9,2.9-1.9,4.2-2.9c0.5-0.7,1-1.4,1.4-2.3c0,0,3-10.7,3.2-23.9C1540.2-407.9,1540.2-408,1540.2-408.1"/>
		<path class="st14" d="M1527.9-397.3c0.8-2.2,1-6.2,1-6.2l0,0c0.5-4.7,0.2-9-0.9-12.8c-0.1-1.4-0.9-3.2-3.2-6.8
			c-10.9-14.1-27.6-8.4-32.7-5.3c-2.2,1-4.3,2.2-6.5,3.3c-3.8,2.2-11.6,8.6-12,8.7c-0.1,1-0.2,2-0.3,3.1c4.4-3.4,8.8-6.7,13.3-9.9
			c0.1-0.3,11.6-7.9,20.8-7.3c2.7-0.6,18.3,0.3,20.1,20.7c0.1,1.5,0.3,4,0.1,6.5c-0.1,1.2-0.3,2.1-0.5,2.8c0,0-1.3,4.2-1.7,4.8
			c0,0-3.4,7-3.4,7c0,0-6.3,8.6-6.9,9.2v1.2c0,0.3,0,0.5,0,0.8c0.1-0.1,0.3-0.2,0.4-0.3c0,0,3.3-4.6,7.2-10
			C1525.8-392.1,1527.9-397,1527.9-397.3"/>
		<path class="st14" d="M1515-381.5c4.7-4.3,9.5-15.1,10.1-17c0,0,0,0,0,0c0.6-1.6,1-3.1,1-3.5c0-0.1-0.1-1.6-0.1-2.4
			c0,0-3.1,6.7-3.2,6.9c-0.4,1.2-1.7,4.2-2.7,6.1c-1.6,2.9-3.3,5.5-5.2,7.8V-381.5z"/>
		<path class="st14" d="M1508.4-420.7c-0.4-0.1-2.1-0.5-4,0.6c0,0,0,0,0,0c-0.9,0.4-2.9,2-4.7,3.6c-0.2,0.2-0.4,0.4-0.6,0.5
			c-0.3,0.2-0.5,0.4-0.8,0.6c-0.3,0.2-3.3,2.4-3.6,2.6c-3.3,2.3-7.7,6.3-9.5,7.8c-2.4,1.7-4.7,3.4-7,5.3c-0.1,0.1-0.2,0.2-0.3,0.3
			c-0.1,0-0.1,0.1-0.2,0.1c-1.2,0.8-2.1,1.4-2.1,1.4c0,0,0,0,0,0c0,0,0,0,0,0c0.1,0.3,0.2,0.6,0.4,0.9c0,0,0.1-0.1,0.1-0.1
			c1.5-0.5,3.4-1.5,5.4-2.8c0.5-0.3,0.9-0.5,0.9-0.5s0.3-0.3,0.7-0.6c2.4-1.6,4.9-3.6,7.2-5.5c2.5-1.8,4.8-3.6,4.8-3.7
			c1-0.9,2-1.9,2.9-2.9c2.7-2.4,5.1-4.1,8.2-6.1c0.6-0.3,1.3-0.7,2-0.6c0.2,0.1,0.4,0.3,0.6,0.6c-0.1,0.6-0.3,0.8-0.5,0.9
			c-0.1,0-0.1,0-0.2,0.1c-0.1,0-0.2,0-0.3,0c-0.9-0.1-1.5,0.3-2.1,0.9c0,0-0.1,0-0.1,0c-1,0.6-2.2,1.4-3.4,2.8c0,0,0,0,0,0
			c-0.1,0.1-0.1,0.2-0.2,0.3c-7,6.5-17.7,14-22.7,16.9c-0.2,0.1-0.4,0.2-0.5,0.3c0,0-0.1,0-0.1,0.1c-0.8,0.3-1.6,0.7-2.3,1.1
			c0,0,0,0,0,0c0,0,0,0,0,0c0.2,0.5,0.4,0.9,0.6,1.4c0.1-0.1,0.2-0.1,0.3-0.2c0,0,3-1.4,5.6-2.9c0,0,1.6-0.9,2.3-1.4c0,0,0,0,0,0
			l0,0c5.1-3.3,9.6-6.5,14.7-11.2c0.2-0.1,0.4-0.4,0.5-0.6c1.3-1.3,2.2-2.6,2.9-3.2c0.1,0,0.3,0,0.5,0.1c-1.8,3.5-2.8,4.9-10.8,11.4
			c-4.7,3.4-8.9,5.8-9.4,6c-3,1.6-5.5,2.9-5.7,3c-0.1,0-0.1,0.1-0.2,0.1c0,0,0,0,0,0c0,0,0,0,0,0c0.2,0.3,0.3,0.6,0.5,0.9
			c2.2-1,8.3-3.5,11.4-5.7c8.5-6.4,12.2-7.5,15.9-15.9c0-0.1,0-0.2,0.1-0.2c0-0.1,0-0.1,0.1-0.2c0.5-0.9,1.1-1.9,1.8-2.5
			c0.4-0.2,0.8-0.4,1.2-0.5c1.4-0.1,2.8,0.4,3.6,1.9c0,0,0,0,0,0.1c0,0.1,0.1,0.1,0.1,0.2c0.2,0.6,0.4,1.3,0.5,2.1c0,0,0,0.1,0,0.1
			c0,0.1,0,0.2,0,0.3c0,1.3-0.2,3.1-1,5.3c0,0,0,0,0,0c0.2-0.1,1.9-0.7,1.9-0.7c0,0,0.4-1.7,0.4-3.8
			C1514.3-415,1513.3-419.2,1508.4-420.7"/>
	</g>
	<g>
		<path class="st15" d="M1170.1,366h-63c-1.4,0-2.5,1.1-2.5,2.5v9.5h-5.4c-0.7,0-1.3,0.6-1.3,1.3v10.3c0,0.7,0.6,1.3,1.3,1.3h5.4
			v10.3h-5.4c-0.7,0-1.3,0.6-1.3,1.3v10.3c0,0.7,0.6,1.3,1.3,1.3h5.4v9.5c0,1.4,1.1,2.5,2.5,2.5h63c1.4,0,2.5-1.1,2.5-2.5v-54.9
			C1172.7,367.1,1171.5,366,1170.1,366"/>
		<path class="st14" d="M1148.5,409.7l-8-8c2.2-3.5,2.2-8.1,0-11.6l8-8c1-1,1-2.6,0-3.6c-1-1-2.6-1-3.6,0l-8,8
			c-3.5-2.2-8.1-2.2-11.6,0l-8-8c-1-1-2.6-1-3.6,0c-1,1-1,2.6,0,3.6l8,8c-2.2,3.5-2.2,8.1,0,11.6l-8,8c-1,1-1,2.6,0,3.6
			c1,1,2.6,1,3.6,0l8-8c3.5,2.2,8.1,2.2,11.6,0l8,8c1,1,2.6,1,3.6,0C1149.4,412.3,1149.4,410.7,1148.5,409.7 M1126.9,400.2
			c-2.3-2.3-2.3-6.1,0-8.5c2.3-2.3,6.1-2.3,8.5,0c2.3,2.3,2.3,6.1,0,8.5C1133,402.5,1129.2,402.5,1126.9,400.2"/>
		<path class="st14" d="M1162.4,408.7c-1,0-1.9-0.8-1.9-1.9v-21.8c0-1,0.8-1.9,1.9-1.9c1,0,1.9,0.8,1.9,1.9v21.8
			C1164.3,407.9,1163.5,408.7,1162.4,408.7"/>
		<path class="st14" d="M1158.6,371.2c0,1-0.8,1.9-1.9,1.9c-1,0-1.9-0.8-1.9-1.9s0.8-1.9,1.9-1.9
			C1157.7,369.4,1158.6,370.2,1158.6,371.2"/>
		<path class="st14" d="M1152.8,371.2c0,1-0.8,1.9-1.9,1.9c-1,0-1.9-0.8-1.9-1.9s0.8-1.9,1.9-1.9
			C1152,369.4,1152.8,370.2,1152.8,371.2"/>
		<path class="st14" d="M1164.3,371.2c0,1-0.8,1.9-1.9,1.9c-1,0-1.9-0.8-1.9-1.9s0.8-1.9,1.9-1.9
			C1163.4,369.4,1164.3,370.2,1164.3,371.2"/>
	</g>
	<g>
		<path class="st15" d="M1419.8,405.6c-4.1,0.3-9.6,4.4-14.8,6.8c-6.4,2.9-16.4,0.6-16.4,0.6c1.5-0.7,7.8-2.2,9.1-2.8
			c6.7-3,6.2-9.1,3-9.1c-4.2,0.1-6.7,1.1-15.2,2.3c-6.4,0.9-14,0.6-17.6,1.9c-5.1,2-13.4,15.1-13.4,15.1l12.8,12.4
			c0,0,7.9-7.8,11.7-7.8c8.8,0,9.1-0.1,17.2-0.6c3.5-0.2,4.2-0.3,6.2-1c10.5-3.6,21.9-13,22.1-14.2
			C1424.8,406.6,1421.9,405.4,1419.8,405.6"/>
		<path class="st16" d="M1376.7,378.8l2,0.4c0,0,0,0,0.1,0c0.1,1.2,0.3,2.4,0.7,3.6c0,0,0,0-0.1,0l-1.8,1c-0.3,0.2-0.5,0.5-0.6,0.8
			c-0.1,0.3,0,0.7,0.1,1l2.4,4.1c0.2,0.4,0.7,0.7,1.2,0.7c0.2,0,0.5-0.1,0.7-0.2l1.8-1c0,0,0.1-0.1,0.1-0.1c0.8,0.9,1.8,1.6,2.8,2.3
			c0,0,0,0.1-0.1,0.1l-0.7,1.9c-0.1,0.3-0.1,0.7,0,1c0.2,0.3,0.4,0.6,0.8,0.7l4.5,1.6c0.2,0.1,0.3,0.1,0.5,0.1
			c0.5,0,1.1-0.3,1.3-0.9l0.7-1.9c0-0.1,0-0.1,0-0.2c0.6,0.1,1.2,0.1,1.8,0.1c0.6,0,1.2,0,1.8-0.1c0,0.1,0,0.1,0,0.2l0.7,1.9
			c0.1,0.3,0.4,0.6,0.7,0.8c0.2,0.1,0.4,0.1,0.6,0.1c0.2,0,0.3,0,0.5-0.1l4.5-1.6c0.7-0.3,1.1-1,0.8-1.7l-0.7-1.9c0,0,0-0.1-0.1-0.1
			c1-0.7,1.9-1.4,2.8-2.3c0,0,0.1,0.1,0.1,0.1l1.8,1c0.2,0.1,0.4,0.2,0.7,0.2c0.1,0,0.2,0,0.3,0c0.3-0.1,0.6-0.3,0.8-0.6l2.4-4.1
			c0.4-0.6,0.1-1.5-0.5-1.8l-1.8-1c0,0-0.1,0-0.1,0c0.3-1.1,0.6-2.3,0.7-3.6c0,0,0,0,0.1,0l2-0.4c0.3-0.1,0.7-0.3,0.9-0.5
			c0.2-0.3,0.3-0.6,0.2-1l-0.8-4.7c-0.1-0.4-0.3-0.7-0.5-0.9c-0.3-0.2-0.6-0.3-1-0.2l-2,0.4c-0.5-1.1-1.1-2.2-1.8-3.2l1.3-1.6
			c0.2-0.3,0.3-0.6,0.3-1c0-0.4-0.2-0.7-0.5-0.9l-3.7-3.1c-0.3-0.2-0.6-0.3-1-0.3c-0.4,0-0.7,0.2-0.9,0.5l-1.3,1.5
			c-1.1-0.6-2.3-1-3.5-1.3v-2c0-0.7-0.6-1.3-1.3-1.3h-4.8c-0.7,0-1.3,0.6-1.3,1.3v2c-1.2,0.3-2.4,0.7-3.5,1.3l-1.3-1.5
			c-0.2-0.3-0.6-0.4-0.9-0.5c-0.4,0-0.7,0.1-1,0.3l-3.7,3.1c-0.6,0.5-0.6,1.3-0.2,1.9l1.3,1.6c-0.7,1-1.3,2.1-1.8,3.2l-2-0.4
			c-0.3-0.1-0.7,0-1,0.2c-0.3,0.2-0.5,0.5-0.5,0.9l-0.8,4.7C1375.5,378,1376,378.7,1376.7,378.8 M1386.4,378.2
			c0-4.6,3.8-8.4,8.4-8.4c4.6,0,8.4,3.8,8.4,8.4c0,4.6-3.8,8.4-8.4,8.4C1390.1,386.6,1386.4,382.8,1386.4,378.2"/>
	</g>
	<g>
		<path class="st17" d="M1483.9,1161.6h-7.2c-1.4,0-2.5,1-2.5,2.2v2.6c0,0.3,0.2,0.5,0.5,0.5s0.5-0.2,0.5-0.5v-2.6
			c0-0.7,0.6-1.2,1.4-1.2h7.2c0.8,0,1.4,0.5,1.4,1.2v10.5c0,0.7-0.6,1.2-1.4,1.2h-7.2c-0.8,0-1.4-0.5-1.4-1.2v-2.6
			c0-0.3-0.2-0.5-0.5-0.5s-0.5,0.2-0.5,0.5v2.6c0,1.2,1.1,2.2,2.5,2.2h7.2c1.4,0,2.5-1,2.5-2.2v-10.5
			C1486.4,1162.7,1485.3,1161.6,1483.9,1161.6"/>
		<path class="st17" d="M1477.3,1172.6c-0.2,0.2-0.2,0.5,0,0.7c0.1,0.1,0.2,0.2,0.4,0.2c0.1,0,0.3-0.1,0.4-0.2l3.8-3.8
			c0.1-0.1,0.2-0.2,0.2-0.4c0-0.1-0.1-0.3-0.2-0.4l-3.8-3.8c-0.2-0.2-0.5-0.2-0.7,0c-0.2,0.2-0.2,0.5,0,0.7l2.9,2.9h-10
			c-0.3,0-0.5,0.2-0.5,0.5s0.2,0.5,0.5,0.5h10L1477.3,1172.6z"/>
	</g>
	<g>
		<g>
			<path class="st18" d="M1865.1,396c0-10.5,5.1-19.8,12.9-25.6c-5.3-3.9-11.7-6.2-18.8-6.2c-17.5,0-31.7,14.2-31.7,31.8
				s14.2,31.8,31.7,31.8c7,0,13.5-2.3,18.8-6.2C1870.2,415.8,1865.1,406.5,1865.1,396z"/>
			<path class="st18" d="M1896.8,364.2c-7,0-13.5,2.3-18.8,6.2c7.9,5.8,12.9,15.1,12.9,25.6s-5.1,19.8-12.9,25.6
				c5.3,3.9,11.7,6.2,18.8,6.2c17.5,0,31.7-14.2,31.7-31.8S1914.3,364.2,1896.8,364.2z"/>
			<path class="st19" d="M1891,396c0-10.5-5.1-19.8-12.9-25.6c-7.9,5.8-12.9,15.1-12.9,25.6s5.1,19.8,12.9,25.6
				C1885.9,415.8,1891,406.5,1891,396z"/>
		</g>
		<g>
			<defs>
				<path id="SVGID_27_" d="M1865.1,396c0,10.5,5.1,19.8,13,25.6c7.9-5.8,12.9-15.1,12.9-25.6c0-10.5-5.1-19.8-12.9-25.6
					C1870.2,376.1,1865.1,385.5,1865.1,396"/>
			</defs>
			<clipPath id="SVGID_28_">
				<use xlink:href="#SVGID_27_"  style="overflow:visible;"/>
			</clipPath>
			<polygon class="st20" points="1854.8,371.7 1852.7,368.1 1901.3,339.4 1903.4,343 			"/>
			<polygon class="st20" points="1854.8,382.4 1852.8,378.8 1901.4,350.1 1903.5,353.7 			"/>
			<polygon class="st20" points="1854.9,393 1852.8,389.5 1901.5,360.8 1903.6,364.3 			"/>
			<polygon class="st20" points="1855,403.7 1852.9,400.1 1901.5,371.5 1903.6,375 			"/>
			<polygon class="st20" points="1855,414.4 1852.9,410.8 1901.6,382.1 1903.7,385.7 			"/>
			<polygon class="st20" points="1855.1,425.1 1853,421.5 1901.6,392.8 1903.7,396.4 			"/>
			<polygon class="st20" points="1855.1,435.7 1853,432.2 1901.7,403.5 1903.8,407.1 			"/>
			<polygon class="st20" points="1855.2,446.4 1853.1,442.9 1901.7,414.2 1903.8,417.7 			"/>
		</g>
	</g>
	<g>
		<path id="_Path__1_" class="st15" d="M1653.9,406.7c0,0-10.5-3.2-10.5-7v-2.2c1.5-1.8,2.6-4,3.3-6.3c0-0.4,0.4-0.6,0.7-0.8
			c1.4-1.4,1.7-3.6,0.6-5.2c-0.1-0.3-0.4-0.4-0.4-0.7c0-2.2,0-4.1,0-6.1c0-2.5-0.8-5-2.5-6.9c-1.4-1.5-3.3-2.5-5.2-2.9
			c-2.5-0.6-5.1-0.4-7.6,0.1c-2.2,0.6-4.1,1.8-5.5,3.7c-1,1.7-1.5,3.6-1.5,5.5c0,2.2,0,4.1,0,6.2c0,0.4-0.3,0.7-0.4,1.1
			c-1,1.8-0.6,4,1,5.2c0.3,0.3,0.6,0.7,0.6,1.1c0.7,2.1,1.8,4,3.2,5.5v2.3c0,3.9-10.5,7-10.5,7s-6.3,1.8-10.5,10.5v3.7
			c0,1.9,1.5,3.4,3.4,3.4l0,0h48.7c1.9,0,3.4-1.5,3.4-3.4V417C1660.2,408.3,1653.9,406.7,1653.9,406.7z"/>
		<path class="st16" d="M1617.1,403.5c3.9-1.2,8-3.3,8.5-4.5v-1.2c-1.2-1.7-2.3-3.6-3-5.6v-0.1c-0.6-0.6-1.1-1.2-1.5-1.9
			c-2.3-0.8-8.3-3-8.3-5.8v-1.9c1.4-1.7,2.3-3.4,2.9-5.5c0-0.3,0.4-0.6,0.6-0.7c1.2-1.2,1.4-3,0.6-4.5c-0.1-0.1-0.3-0.4-0.3-0.7
			c0-1.9,0-3.6,0-5.4c0-2.2-0.7-4.3-2.2-6.1c-1.2-1.2-2.9-2.2-4.7-2.5c-2.2-0.4-4.4-0.4-6.6,0.1c-1.9,0.4-3.7,1.5-4.8,3.2
			c-0.8,1.4-1.4,3.2-1.4,4.8c0,1.9,0,3.6,0,5.5c0,0.4-0.3,0.6-0.4,1c-0.8,1.5-0.4,3.4,0.8,4.5c0.3,0.3,0.4,0.7,0.6,1
			c0.6,1.8,1.5,3.4,2.8,4.8v2.1c0,3.3-9.1,6.2-9.1,6.2s-5.5,1.5-9.1,9.1v3c0,1.7,1.4,3,3,3l0,0h27.8
			C1615.2,404,1616.7,403.6,1617.1,403.5z"/>
		<path class="st21" d="M1642.8,417.7c-1.4-1.5-2.6-3-4-4.4c-3.2-3.4-6.2-7-9.4-10.5l-0.1-0.1c-0.3-0.1-0.6-0.4-0.7-0.4
			s-0.4,0.1-0.6,0.4c-0.6,1.4-1,2.6-1.4,4c0,0.1,0,0.1-0.1,0.3c-0.3,0-0.4-0.1-0.7-0.1c-3.2-1.1-5.9-2.6-8.5-4.4
			c-4.3-3.2-7.3-6.6-8.5-10.3c-0.3-0.7-0.3-1.5-0.6-2.2c0-0.1-0.3-0.4-0.4-0.4c-0.3-0.1-0.4,0-0.6,0.3c-1.1,3-1.7,6.3-1,9.9
			c0.6,3.3,2.1,6.6,5,9.8c2.6,2.9,5.9,5.2,10.1,7.2c0.6,0.3,1.1,0.4,1.7,0.7c-0.4,1.1-0.8,2.1-1.1,3.2c-0.1,0.4-0.3,0.8-0.4,1.1
			c0,0.1,0,0.4,0.1,0.4c0.1,0.1,0.6,0.1,0.7,0.1c1.7-0.3,3.3-0.6,5-0.8c5-0.8,9.9-1.7,15-2.5c0.1,0,0.1,0,0.3,0
			C1643,418.2,1643.2,418.1,1642.8,417.7z"/>
	</g>
	<g>
		<path class="st15" d="M-1702,248.5h-189.1c-4.2,0-7.6,3.4-7.6,7.6v28.5h-16.2c-2.1,0-3.8,1.7-3.8,3.8v30.8c0,2.1,1.7,3.8,3.8,3.8
			h16.2v31h-16.2c-2.1,0-3.8,1.7-3.8,3.8v30.8c0,2.1,1.7,3.8,3.8,3.8h16.2v28.5c0,4.2,3.4,7.6,7.6,7.6h189.1c4.2,0,7.6-3.4,7.6-7.6
			V256.1C-1694.4,251.9-1697.8,248.5-1702,248.5"/>
		<path class="st14" d="M-1767.1,379.8l-23.9-23.9c6.6-10.6,6.6-24.2,0-34.8l23.9-23.9c3-3,3-7.8,0-10.7c-3-3-7.8-3-10.7,0
			l-23.9,23.9c-10.6-6.6-24.2-6.6-34.8,0l-23.9-23.9c-3-3-7.8-3-10.7,0c-3,3-3,7.8,0,10.7l23.9,23.9c-6.6,10.6-6.6,24.2,0,34.8
			l-23.9,23.9c-3,3-3,7.8,0,10.7c3,3,7.8,3,10.7,0l23.9-23.9c10.6,6.6,24.2,6.6,34.8,0l23.9,23.9c3,3,7.8,3,10.7,0
			C-1764.1,387.5-1764.1,382.7-1767.1,379.8 M-1831.7,351.2c-7-7-7-18.4,0-25.4c7-7,18.4-7,25.4,0c7,7,7,18.4,0,25.4
			C-1813.4,358.2-1824.7,358.2-1831.7,351.2"/>
		<path class="st14" d="M-1725.2,376.8c-3.1,0-5.7-2.5-5.7-5.7v-65.3c0-3.1,2.5-5.7,5.7-5.7c3.1,0,5.7,2.5,5.7,5.7v65.3
			C-1719.5,374.3-1722.1,376.8-1725.2,376.8"/>
		<path class="st14" d="M-1736.7,264.4c0,3.1-2.5,5.7-5.7,5.7c-3.1,0-5.7-2.5-5.7-5.7c0-3.1,2.5-5.7,5.7-5.7
			C-1739.2,258.7-1736.7,261.2-1736.7,264.4"/>
		<path class="st14" d="M-1754,264.4c0,3.1-2.5,5.7-5.7,5.7c-3.1,0-5.7-2.5-5.7-5.7c0-3.1,2.5-5.7,5.7-5.7
			C-1756.6,258.7-1754,261.2-1754,264.4"/>
		<path class="st14" d="M-1719.7,264.4c0,3.1-2.5,5.7-5.7,5.7c-3.1,0-5.7-2.5-5.7-5.7c0-3.1,2.5-5.7,5.7-5.7
			C-1722.2,258.7-1719.7,261.2-1719.7,264.4"/>
	</g>
	<g>
		<path class="st15" d="M-1434.2,362.3c-12.4,0.8-24.7,13.2-40.5,20.3c-19.3,8.7-53.3,1.7-53.4,1.7c4.6-2.2,21.6-5.4,27.3-8.3
			c20.9-10.8,18.5-27.4,8.9-27.2c-12.7,0.2-21.9,10-47.4,9.8c-19.7-0.2-37.7,8.8-47.8,16.8c-12.9,10.2-36.1,35.4-36.1,35.4
			l31.3,33.1c0,0,23.7-23.3,35.2-23.3c26.3,0,27.3-0.4,51.7-1.7c10.4-0.6,12.5-1,18.5-3c31.6-10.7,65.6-39.2,66.2-42.6
			C-1419,365.3-1427.6,361.9-1434.2,362.3"/>
		<path class="st16" d="M-1570.4,287.1l6.1,1.1c0.1,0,0.1,0,0.2,0c0.2,3.7,0.9,7.3,2,10.7c-0.1,0-0.1,0.1-0.2,0.1l-5.4,3.1
			c-0.9,0.5-1.6,1.4-1.9,2.4c-0.3,1-0.1,2.1,0.4,3l7.2,12.4c0.7,1.3,2.1,2,3.5,2c0.7,0,1.4-0.2,2-0.5l5.4-3.1
			c0.1-0.1,0.2-0.2,0.3-0.2c2.5,2.6,5.3,4.9,8.3,6.9c-0.1,0.1-0.1,0.3-0.2,0.4l-2.1,5.8c-0.4,1-0.3,2.1,0.1,3.1
			c0.5,1,1.3,1.7,2.3,2.1l13.5,4.9c0.5,0.2,0.9,0.2,1.4,0.2c1.6,0,3.2-1,3.8-2.6l2.1-5.8c0.1-0.2,0.1-0.3,0.1-0.5
			c1.8,0.2,3.6,0.3,5.4,0.3c1.8,0,3.6-0.1,5.4-0.3c0,0.2,0.1,0.3,0.1,0.5l2.1,5.8c0.4,1,1.1,1.8,2.1,2.3c0.5,0.2,1.1,0.4,1.7,0.4
			c0.5,0,0.9-0.1,1.4-0.2l13.5-4.9c2.1-0.8,3.2-3.1,2.4-5.1l-2.1-5.8c-0.1-0.1-0.1-0.3-0.2-0.4c3-2,5.8-4.3,8.3-6.9
			c0.1,0.1,0.2,0.2,0.3,0.2l5.4,3.1c0.6,0.4,1.3,0.5,2,0.5c0.3,0,0.7-0.1,1-0.1c1-0.3,1.9-1,2.4-1.9l7.2-12.4
			c1.1-1.9,0.4-4.4-1.5-5.5l-5.4-3.1c-0.1,0-0.2-0.1-0.2-0.1c1-3.4,1.7-7,2-10.7c0.1,0,0.1,0,0.2,0l6.1-1.1c1-0.2,2-0.8,2.6-1.6
			c0.6-0.9,0.8-1.9,0.7-3l-2.5-14.1c-0.2-1.1-0.8-2-1.6-2.6c-0.9-0.6-1.9-0.9-3-0.7l-6.1,1.1c-1.5-3.4-3.3-6.6-5.5-9.6l3.9-4.7
			c0.7-0.8,1-1.9,0.9-2.9c-0.1-1.1-0.6-2-1.4-2.7l-11-9.2c-0.8-0.7-1.9-1-2.9-0.9c-1.1,0.1-2,0.6-2.7,1.4l-3.9,4.6
			c-3.3-1.7-6.8-3-10.4-3.8v-6c0-2.2-1.8-4-4-4h-14.4c-2.2,0-4,1.8-4,4v6c-3.7,0.9-7.2,2.2-10.4,3.8l-3.9-4.6
			c-0.7-0.8-1.7-1.3-2.7-1.4c-1.1-0.1-2.1,0.2-2.9,0.9l-11,9.2c-1.7,1.4-1.9,3.9-0.5,5.6l3.9,4.7c-2.2,3-4,6.2-5.5,9.6l-6.1-1.1
			c-1-0.2-2.1,0.1-3,0.7c-0.9,0.6-1.5,1.5-1.6,2.6l-2.5,14.1C-1574,284.6-1572.6,286.7-1570.4,287.1 M-1541.4,285.2
			c0-13.9,11.3-25.2,25.2-25.2c13.9,0,25.2,11.3,25.2,25.2c0,13.9-11.3,25.2-25.2,25.2C-1530.1,310.5-1541.4,299.2-1541.4,285.2"/>
	</g>
	<g>
		<g>
			<path class="st22" d="M-919.2,344.5c0-31.5,15.3-59.4,38.8-76.8c-15.8-11.6-35.2-18.5-56.3-18.5c-52.6,0-95.2,42.7-95.2,95.3
				c0,52.6,42.6,95.3,95.2,95.3c21.1,0,40.6-6.9,56.3-18.5C-903.9,404-919.2,376-919.2,344.5z"/>
			<path class="st22" d="M-824,249.2c-21.1,0-40.6,6.9-56.3,18.5c23.6,17.3,38.8,45.3,38.8,76.8c0,31.5-15.3,59.4-38.8,76.8
				c15.8,11.6,35.2,18.5,56.3,18.5c52.6,0,95.2-42.7,95.2-95.3C-728.8,291.9-771.4,249.2-824,249.2z"/>
			<path class="st23" d="M-841.5,344.5c0-31.5-15.3-59.4-38.8-76.8c-23.6,17.3-38.8,45.3-38.8,76.8c0,31.5,15.3,59.4,38.8,76.8
				C-856.8,404-841.5,376-841.5,344.5z"/>
		</g>
		<g>
			<defs>
				<path id="SVGID_29_" d="M-919.2,344.5c0,31.5,15.3,59.4,38.9,76.8c23.6-17.3,38.8-45.3,38.8-76.8c0-31.5-15.3-59.4-38.8-76.8
					C-903.9,285.1-919.2,313-919.2,344.5"/>
			</defs>
			<clipPath id="SVGID_30_">
				<use xlink:href="#SVGID_29_"  style="overflow:visible;"/>
			</clipPath>
			<polygon class="st24" points="-950.1,271.6 -956.4,260.9 -810.4,174.9 -804.1,185.6 			"/>
			<polygon class="st24" points="-949.9,303.7 -956.2,293 -810.2,206.9 -804,217.6 			"/>
			<polygon class="st24" points="-949.7,335.7 -956,325 -810.1,238.9 -803.8,249.6 			"/>
			<polygon class="st24" points="-949.6,367.8 -955.8,357.1 -809.9,271 -803.6,281.7 			"/>
			<polygon class="st24" points="-949.4,399.8 -955.7,389.1 -809.7,303 -803.4,313.7 			"/>
			<polygon class="st24" points="-949.2,431.8 -955.5,421.1 -809.6,335.1 -803.3,345.8 			"/>
			<polygon class="st24" points="-949,463.9 -955.3,453.2 -809.4,367.1 -803.1,377.8 			"/>
			<polygon class="st24" points="-948.9,495.9 -955.2,485.2 -809.2,399.1 -802.9,409.8 			"/>
		</g>
	</g>
	<g>
		<path id="_Path__2_" class="st15" d="M-1140.7,378.6c0,0-31.4-9.5-31.4-21.1v-6.6c4.5-5.4,7.8-12,9.9-19c0-1.2,1.2-1.7,2.1-2.5
			c4.1-4.1,5-10.7,1.7-15.7c-0.4-0.8-1.2-1.2-1.2-2.1c0-6.6,0-12.4,0-18.2c0-7.4-2.5-14.9-7.4-20.7c-4.1-4.5-9.9-7.4-15.7-8.7
			c-7.4-1.7-15.3-1.2-22.7,0.4c-6.6,1.7-12.4,5.4-16.5,11.2c-2.9,5-4.5,10.7-4.5,16.5c0,6.6,0,12.4,0,18.6c0,1.2-0.8,2.1-1.2,3.3
			c-2.9,5.4-1.7,12,2.9,15.7c0.8,0.8,1.7,2.1,1.7,3.3c2.1,6.2,5.4,12,9.5,16.5v7c0,11.6-31.4,21.1-31.4,21.1s-19,5.4-31.4,31.4v11.2
			c0,5.8,4.5,10.3,10.3,10.3l0,0h146.2c5.8,0,10.3-4.5,10.3-10.3v-10.7C-1121.7,383.5-1140.7,378.6-1140.7,378.6z"/>
		<path class="st16" d="M-1251,369.1c11.6-3.7,24-9.9,25.6-13.6v-3.7c-3.7-5-7-10.7-9.1-16.9v-0.4c-1.7-1.7-3.3-3.7-4.5-5.8
			c-7-2.5-24.8-9.1-24.8-17.4v-5.8c4.1-5,7-10.3,8.7-16.5c0-0.8,1.2-1.7,1.7-2.1c3.7-3.7,4.1-9.1,1.7-13.6c-0.4-0.4-0.8-1.2-0.8-2.1
			c0-5.8,0-10.7,0-16.1c0-6.6-2.1-12.8-6.6-18.2c-3.7-3.7-8.7-6.6-14-7.4c-6.6-1.2-13.2-1.2-19.8,0.4c-5.8,1.2-11.2,4.5-14.5,9.5
			c-2.5,4.1-4.1,9.5-4.1,14.5c0,5.8,0,10.7,0,16.5c0,1.2-0.8,1.7-1.2,2.9c-2.5,4.5-1.2,10.3,2.5,13.6c0.8,0.8,1.2,2.1,1.7,2.9
			c1.7,5.4,4.5,10.3,8.3,14.5v6.2c0,9.9-27.3,18.6-27.3,18.6s-16.5,4.5-27.3,27.3v9.1c0,5,4.1,9.1,9.1,9.1l0,0h83.4
			C-1256.8,370.7-1252.3,369.5-1251,369.1z"/>
		<path class="st25" d="M-1174.2,411.6c-4.1-4.5-7.8-9.1-12-13.2c-9.5-10.3-18.6-21.1-28.1-31.4l-0.4-0.4c-0.8-0.4-1.7-1.2-2.1-1.2
			s-1.2,0.4-1.7,1.2c-1.7,4.1-2.9,7.8-4.1,12c0,0.4,0,0.4-0.4,0.8c-0.8,0-1.2-0.4-2.1-0.4c-9.5-3.3-17.8-7.8-25.6-13.2
			c-12.8-9.5-21.9-19.8-25.6-31c-0.8-2.1-0.8-4.5-1.7-6.6c0-0.4-0.8-1.2-1.2-1.2c-0.8-0.4-1.2,0-1.7,0.8c-3.3,9.1-5,19-2.9,29.7
			c1.7,9.9,6.2,19.8,14.9,29.3c7.8,8.7,17.8,15.7,30.2,21.5c1.7,0.8,3.3,1.2,5,2.1c-1.2,3.3-2.5,6.2-3.3,9.5
			c-0.4,1.2-0.8,2.5-1.2,3.3c0,0.4,0,1.2,0.4,1.2c0.4,0.4,1.7,0.4,2.1,0.4c5-0.8,9.9-1.7,14.9-2.5c14.9-2.5,29.7-5,45-7.4
			c0.4,0,0.4,0,0.8,0C-1173.4,413.3-1172.9,412.9-1174.2,411.6z"/>
	</g>
	<path class="st13" d="M41.2,34.6c7.1-7.1,7.1-18.7,0-25.8c-7.1-7.1-18.7-7.1-25.8,0C8.8,15.4,8.3,25.9,14,33l-9.9,9.9
		c-0.8,0.8-0.8,2.2,0,3c0.8,0.8,2.2,0.8,3,0L17,36C24.1,41.7,34.6,41.2,41.2,34.6 M17.8,32.2c-5.8-5.8-5.8-15.2,0-21
		c5.8-5.8,15.2-5.8,21,0c5.8,5.8,5.8,15.2,0,21C33,38,23.6,38,17.8,32.2"/>
</g>
<g id="Layer_2">
	<g>
		<path class="st26" d="M1547.9,1016.5c-1.3,0-2.4-0.8-2.8-2.1c-0.4-1.2,0.1-2.5,1.2-3.1c6.7-3.7,9.3-6.9,10.3-9
			c1.5-3.2,1.4-6.2,1.4-7.4l0-0.3c0-2.4-1.3-5.9-3.3-6.2c-9.8-1.3-27.2-5-33.7-14.4c-9.6-13.9-14-42.9-14-64
			c0-22.8,1.3-47.7,10.7-60.2c12.8-16.9,32.9-16.9,54.2-16.9h1.4c1.5,0,3,0,4.5,0c18.6-0.1,34.6-0.2,46.7,14.6
			c7.6,9.3,11.5,30.9,11.3,62.5c0.4,36.1-5.2,60.1-16.1,69.6c-9.8,8.5-23.6,9.8-37.1,10c-1.8,0-3.4,1.2-3.9,2.9
			c-1.6,5.2-4.6,12.3-10.4,16.6c-4,3-10,6.6-20.1,7.4C1548.1,1016.5,1548,1016.5,1547.9,1016.5 M1547.7,1013.6c0,0,0,0.1,0.1,0.2
			c0.1,0.1,0.1,0.1,0.1,0.1c9.4-0.8,14.8-3.9,18.8-6.9c5.2-3.9,8-10.4,9.5-15.2c0.8-2.8,3.4-4.8,6.4-4.8c12.9-0.2,26.2-1.4,35.4-9.4
			c10.2-8.8,15.6-32.8,15.2-67.6v0c0.3-39.1-5.7-54.6-10.7-60.8c-11.3-13.8-26-13.7-44.6-13.6c-1.5,0-3,0-4.5,0h-1.4
			c-20.6,0-40.1,0-52.1,15.9c-10.1,13.4-10.1,43.9-10.1,58.6c0,29.5,7,53.1,13.6,62.5c4.3,6.2,15.9,11.1,31.9,13.2
			c3.8,0.5,5.6,5.6,5.6,8.9l0,0.3c0,1.3,0.1,4.7-1.7,8.5C1558,1005.8,1555.1,1009.6,1547.7,1013.6"/>
		<path class="st27" d="M1558,973.1c-11.8-1.6-22.6-5.3-26.8-11.3c-8-11.6-11.3-35.8-11.3-51.6c0-14.9,0.4-37.8,8.5-48.5
			c10.3-13.7,27-13.4,44.5-13.4c6.5,0,12.5-0.2,18.1,0.4c1.6,0.1,3.1,0.4,4.6,0.6c1.7,0.3,3.3,0.7,4.8,1.2c1.8,0.6,3.5,1.3,5.2,2.3
			c3,1.7,5.7,3.9,8.3,7c2,2.4,3.5,5.7,4.7,9.5c4.2,13.4,4.3,33,4.2,40.8c0.1,9.5,0.3,44.7-12.8,56c-7.8,6.7-18.7,7.8-29.6,7.9
			L1558,973.1z"/>
		<path class="st26" d="M1621.4,866.3c-0.6,0-1.1-0.4-1.3-0.9c-1.2-3.9-2.7-7-4.5-9.1c-2.3-2.9-4.9-5.1-7.9-6.7
			c-0.6-0.4-0.9-1.2-0.5-1.8c0.4-0.6,1.2-0.9,1.8-0.5c3.3,1.8,6.1,4.2,8.6,7.4c1.9,2.4,3.6,5.7,5,10c0.2,0.7-0.2,1.5-0.9,1.7
			C1621.6,866.3,1621.5,866.3,1621.4,866.3"/>
		<path class="st26" d="M1598.4,846.3c-0.1,0-0.2,0-0.2,0c-1.4-0.3-2.9-0.5-4.5-0.6c-0.7-0.1-1.3-0.7-1.2-1.5
			c0.1-0.7,0.7-1.3,1.5-1.2c1.7,0.2,3.2,0.4,4.7,0.6c0.7,0.1,1.2,0.8,1.1,1.6C1599.6,845.8,1599,846.3,1598.4,846.3"/>
		<path class="st14" d="M1571.5,902.8L1571.5,902.8c-3.2,0-4.9-1.1-5.1-3.2l-3-21.3c-0.2-1.7,0.3-3.3,1.3-4.5
			c1.3-1.5,3.5-2.5,6.1-2.7c5-0.4,8.4,1.7,8.7,5.4c0,0.2,0,0.5-3.3,22.3C1576.2,901.2,1574.3,902.8,1571.5,902.8 M1572,873.7
			c-0.4,0-0.7,0-1,0c-1.9,0.1-3.4,0.8-4.3,1.8c-0.6,0.7-0.8,1.5-0.7,2.4l3,21.3c0,0.2,0.1,0.8,2.4,0.8c0,0,0,0,0.1,0
			c1.3,0,2-0.5,2.1-1.5l0-0.2c1.2-8.1,3.1-20.4,3.3-21.8C1576.6,874.2,1574.1,873.7,1572,873.7"/>
		<path class="st14" d="M1571.3,916.6c-0.2,0-0.4,0-0.6,0c-1.7-0.2-3.4-1.3-4.5-2.7c-0.9-1.2-1.3-2.5-1.1-3.7c0.4-2.9,4-4.3,7.1-3.9
			c1.7,0.2,3.1,1,4,2.1c0.7,1,1,2.1,0.8,3.3C1576.5,914.5,1574,916.6,1571.3,916.6 M1571.2,908.9c-1.6,0-3.3,0.7-3.4,1.7
			c-0.1,0.5,0.1,1.1,0.6,1.6c0.7,0.9,1.8,1.6,2.7,1.7c1.6,0.2,3.1-1.2,3.3-2.6c0.1-0.5,0-0.9-0.3-1.3c-0.4-0.6-1.2-0.9-2.2-1.1
			C1571.6,908.9,1571.4,908.9,1571.2,908.9"/>
		<path class="st26" d="M1398.6,897.1c3.1-11.6,10-19.2,19.7-21.9c5.8-1.6,20.4-2.4,45.8-2.4c18.1,0,34.6,1.1,44.2,3
			c12.1,2.4,19.5,9.8,21.3,21.3c1.6,10,1.6,25,1.6,33.1v0.2c0,8.1,0,24.8-1.6,34c-2,11.5-9.5,19-21.3,21.3c-5,1-10.7,1.1-15.6,1.3
			c-2.3,0.1-4.5,0.1-6.3,0.3c-2.1,0.2-3.6,0.9-4.6,2.2c-0.9,1.2-1.2,2.6-0.8,4.3l3.8,17.6c0.2,1.2-0.3,2.4-1.4,3
			c-0.4,0.3-0.9,0.4-1.4,0.4c-0.7,0-1.3-0.3-1.9-0.7c-0.2-0.2-21.7-18.6-28.8-25.2c-1-0.9-2.3-1.5-3.7-1.5
			c-12.5,0-21.8-0.5-27.7-1.6c-11.8-2.1-19.5-9.9-21.3-21.3c-1.6-10.5-1.6-26.4-1.6-34.9v-0.1c0-1.3,0-2.8,0-4.5
			C1396.9,916,1396.8,903.8,1398.6,897.1 M1401.2,964.1c1.6,10.3,8.6,17.2,19.1,19.1c5.7,1,14.9,1.5,27.2,1.5c2.1,0,4,0.8,5.5,2.2
			c7.1,6.6,28.6,25,28.8,25.2c0.1,0.1,0.1,0.1,0.2,0c0.1,0,0.1-0.1,0.1-0.1l-3.8-17.6c-0.5-2.4,0-4.7,1.3-6.4
			c1.4-1.9,3.7-3.1,6.5-3.3c1.8-0.2,4.1-0.2,6.5-0.3c4.9-0.2,10.4-0.3,15.2-1.2c10.6-2,17.4-8.8,19.2-19.1
			c1.5-8.9,1.5-25.5,1.5-33.5v-0.2c0-8,0-22.9-1.5-32.7c-1.6-10.5-8.1-16.9-19.2-19.1c-4.7-0.9-11.2-1.7-18.7-2.2
			c-7.5-0.5-16.1-0.8-25-0.8c-24.8,0-39.6,0.7-45.1,2.3c-8.9,2.5-14.9,9.2-17.8,20c-1.7,6.3-1.6,18.8-1.5,27.1c0,1.7,0,3.2,0,4.5
			v0.1C1399.7,938.1,1399.6,953.8,1401.2,964.1"/>
		<path class="st28" d="M1406.3,930.1c0,7.1,1.6,19.3,3,27.8c1.4,9,7.8,14.9,17.2,16.5c6.8,1.2,17.5,2.8,23.3,2.8h32.9
			c4.6-0.4,12.3-1.7,18.5-2.8c9.3-1.7,15.6-7.5,17.2-16.5c1.3-7.3,2.1-20.6,2.1-27.5c0-6.7-0.8-18.9-2.1-27
			c-1.5-9-7.3-14.6-17.2-16.5c-9.2-1.7-24.4-4-37.4-4c-15.2,0-32.6,1.8-38.6,3.4c-3.7,1-6.8,2.8-9.4,5.3c-3,3-5.2,7-6.6,11.8
			C1407.6,909.8,1406.3,918.9,1406.3,930.1"/>
		<path class="st14" d="M1458.5,961.2c-3.6,0-6.5-2.8-6.5-6.3c0-3.4,2.8-5.9,6.6-5.9c4,0,6.5,2.1,6.5,5.5
			C1465.1,958.1,1462.1,961.2,1458.5,961.2 M1458.6,952c-1.7,0-3.6,0.8-3.6,2.9c0,1.8,1.6,3.3,3.5,3.3c2.1,0,3.6-2,3.6-3.8
			C1462.1,952.8,1460.9,952,1458.6,952 M1458.7,945.6h-1c-1.7,0-4.3-1.3-4.4-3.4c0-0.3-0.8-8.3,3.4-13.4l0.6-0.7
			c3.1-3.6,6.2-7.3,6.2-10.1c0-3.6-1.5-5.1-5.1-5.2c-1.6,0-3.4,0.4-4.9,1c-1,0.4-2.2,0.4-3.2,0c-1-0.4-1.8-1.3-2.2-2.3
			c-0.7-1.8,0-5.7,2.1-6.7c2.8-1.3,6.3-2,9.6-2c9.5,0,15.9,7.4,15.9,14.4c0,5.1-3.5,9.1-6.8,13c-0.5,0.6-1,1.2-1.5,1.7
			c-0.3,0.4-0.7,0.8-1.1,1.2c-0.8,0.8-1.8,2-2.1,2.6c-0.4,1-0.6,3.2-0.5,6.2c0,0.5-0.1,1.2-0.8,1.9
			C1461.9,944.9,1459.9,945.6,1458.7,945.6 M1458.4,909.9c5.3,0.1,8.1,2.9,8.1,8.1c0,3.8-3.4,7.8-7,12l-0.6,0.7
			c-3.4,4.1-2.7,11.1-2.7,11.2c0.1,0.2,0.9,0.7,1.4,0.7h1c0.5,0,1.6-0.4,1.9-0.7c-0.1-3.4,0.1-5.8,0.7-7.2c0.4-1.1,1.6-2.3,2.6-3.5
			c0.4-0.4,0.7-0.8,1-1.1c0.5-0.6,1-1.2,1.5-1.8c3.1-3.6,6.1-7,6.1-11c0-4.8-4.5-11.4-12.9-11.4c-2.8,0-5.9,0.7-8.3,1.7
			c-0.4,0.3-0.8,2.2-0.6,2.9c0.1,0.3,0.3,0.5,0.6,0.6c0.3,0.1,0.6,0.1,0.9,0C1454.2,910.3,1456.4,909.9,1458.4,909.9"/>
		<path class="st26" d="M1407.6,902.2c-0.1,0-0.2,0-0.4,0c-0.7-0.2-1.1-0.9-0.9-1.6c1.4-5.1,3.8-9.3,6.9-12.4
			c2.7-2.7,6.1-4.6,10-5.6c0.7-0.2,1.4,0.2,1.6,0.9c0.2,0.7-0.2,1.4-0.9,1.6c-3.4,0.9-6.4,2.6-8.8,4.9c-2.8,2.8-4.9,6.5-6.2,11.2
			C1408.7,901.8,1408.1,902.2,1407.6,902.2"/>
		<path class="st26" d="M1411.7,872.7c-0.9,0-1.6-0.6-1.8-1.5l-1.5-9.2c-0.2-1,0.5-1.9,1.5-2c1-0.2,1.9,0.5,2,1.5l1.5,9.2
			c0.2,1-0.5,1.9-1.5,2C1411.9,872.7,1411.8,872.7,1411.7,872.7"/>
		<path class="st26" d="M1403.7,876.4c-0.5,0-1-0.2-1.3-0.6l-12.8-14.3c-0.7-0.7-0.6-1.9,0.1-2.5c0.7-0.7,1.9-0.6,2.5,0.1l12.8,14.3
			c0.7,0.7,0.6,1.9-0.1,2.5C1404.5,876.3,1404.1,876.4,1403.7,876.4"/>
		<path class="st26" d="M1396.9,883.9c-0.2,0-0.5,0-0.7-0.1l-12.2-5c-0.9-0.4-1.3-1.4-1-2.3c0.4-0.9,1.4-1.3,2.3-1l12.2,5
			c0.9,0.4,1.3,1.4,1,2.3C1398.3,883.5,1397.6,883.9,1396.9,883.9"/>
		<path class="st26" d="M1617.3,983.8c-3.6,0-6.5-2.9-6.5-6.5s2.9-6.5,6.5-6.5c3.6,0,6.5,2.9,6.5,6.5S1620.9,983.8,1617.3,983.8
			 M1617.3,972.5c-2.6,0-4.7,2.1-4.7,4.7s2.1,4.7,4.7,4.7c2.6,0,4.7-2.1,4.7-4.7S1619.9,972.5,1617.3,972.5"/>
		<path class="st26" d="M1631.1,984.1c-2.4,0-4.4-2-4.4-4.4s2-4.4,4.4-4.4c2.4,0,4.4,2,4.4,4.4S1633.5,984.1,1631.1,984.1
			 M1631.1,977.1c-1.4,0-2.6,1.2-2.6,2.6c0,1.4,1.2,2.6,2.6,2.6c1.4,0,2.6-1.2,2.6-2.6C1633.6,978.3,1632.5,977.1,1631.1,977.1"/>
		<path class="st26" d="M1491.3,863.8c-3.3,0-5.9-2.7-5.9-5.9s2.7-5.9,5.9-5.9c3.3,0,5.9,2.7,5.9,5.9S1494.6,863.8,1491.3,863.8
			 M1491.3,853.8c-2.3,0-4.2,1.9-4.2,4.2c0,2.3,1.9,4.2,4.2,4.2c2.3,0,4.2-1.9,4.2-4.2C1495.4,855.6,1493.6,853.8,1491.3,853.8"/>
		<path class="st26" d="M1478.6,866c-2,0-3.7-1.7-3.7-3.7c0-2,1.7-3.7,3.7-3.7s3.7,1.7,3.7,3.7C1482.3,864.4,1480.7,866,1478.6,866
			 M1478.6,860.4c-1.1,0-1.9,0.9-1.9,1.9c0,1.1,0.9,1.9,1.9,1.9s1.9-0.9,1.9-1.9C1480.5,861.3,1479.7,860.4,1478.6,860.4"/>
	</g>
	<g>
		<path class="st26" d="M-284.5,513.3c-2.5,0-4.8-1.7-5.5-4.2c-0.7-2.5,0.2-5,2.4-6.2c13.5-7.3,18.6-13.9,20.5-18.1
			c3-6.5,2.9-12.5,2.9-14.7l0-0.6c0-4.8-2.5-11.9-6.6-12.5c-19.6-2.7-54.4-10-67.4-28.7c-19.3-27.8-28.1-85.8-28.1-128
			c0-45.5,2.5-95.4,21.3-120.3c25.6-33.9,65.8-33.9,108.4-33.8h2.8c3.1,0,6.1,0,9.1,0c37.1-0.2,69.2-0.3,93.4,29.2
			c15.2,18.6,23,61.8,22.6,124.9c0.7,72.2-10.4,120.3-32.3,139.2c-19.6,17-47.2,19.6-74.1,20c-3.6,0-6.7,2.4-7.8,5.8
			c-3.1,10.3-9.2,24.5-20.9,33.2c-8.1,6-20,13.2-40.3,14.9C-284.2,513.3-284.4,513.3-284.5,513.3"/>
		<path class="st14" d="M-284.9,507.5c0,0.1,0.1,0.2,0.2,0.3c0.1,0.1,0.2,0.1,0.3,0.1c18.8-1.6,29.5-7.9,37.5-13.8
			c10.5-7.8,16.1-20.8,19-30.4c1.7-5.7,6.8-9.5,12.8-9.6c25.9-0.4,52.4-2.9,70.7-18.7c20.4-17.6,31.2-65.6,30.4-135.1v0
			c0.5-78.2-11.3-109.3-21.4-121.5c-22.6-27.6-52-27.5-89.2-27.3c-3,0-6,0-9.1,0h-2.8c-41.2,0-80.2,0-104.1,31.7
			c-20.2,26.8-20.2,87.8-20.2,117.1c0,59,14.1,106.1,27.1,125c8.7,12.5,31.9,22.1,63.7,26.5c7.7,1.1,11.2,11.2,11.2,17.8l0,0.5
			c0,2.6,0.2,9.5-3.4,17.1C-264.5,492-270.3,499.5-284.9,507.5"/>
		<path class="st27" d="M-264.4,426.5c-23.7-3.2-45.2-10.5-53.5-22.5c-16.1-23.2-22.5-71.7-22.5-103.3c0-29.8,0.9-75.6,17-96.9
			c20.7-27.4,54-26.7,89.1-26.7c12.9,0,25-0.3,36.2,0.7c3.1,0.3,6.2,0.7,9.2,1.3c3.3,0.6,6.5,1.4,9.6,2.4c3.6,1.2,7.1,2.7,10.4,4.5
			c5.9,3.3,11.4,7.9,16.5,14.1c3.9,4.8,7,11.5,9.4,19.1c8.5,26.8,8.6,66,8.5,81.5c0.2,19,0.5,89.4-25.6,112
			c-15.6,13.4-37.4,15.5-59.1,15.8L-264.4,426.5z"/>
		<path class="st26" d="M-137.7,213c-1.1,0-2.2-0.7-2.5-1.9c-2.5-7.8-5.5-14-9-18.2c-4.7-5.7-9.8-10.1-15.8-13.4
			c-1.3-0.7-1.7-2.4-1-3.6c0.7-1.3,2.3-1.7,3.6-1c6.5,3.7,12.2,8.5,17.3,14.7c3.9,4.8,7.2,11.5,9.9,20c0.4,1.4-0.3,2.9-1.7,3.4
			C-137.1,212.9-137.4,213-137.7,213"/>
		<path class="st26" d="M-183.7,172.8c-0.2,0-0.3,0-0.5,0c-2.8-0.5-5.7-0.9-9-1.2c-1.5-0.1-2.5-1.4-2.4-2.9c0.1-1.5,1.4-2.5,2.9-2.4
			c3.4,0.3,6.5,0.7,9.4,1.3c1.5,0.3,2.4,1.7,2.1,3.1C-181.3,171.9-182.4,172.8-183.7,172.8"/>
		<path class="st14" d="M-237.3,285.9h-0.2c-6.2-0.1-9.6-2.2-10-6.4l-6.1-42.6c-0.3-3.5,0.6-6.5,2.6-9c2.6-3.1,6.9-5,12.2-5.4
			c10.1-0.8,16.8,3.4,17.5,10.9c0,0.4,0.1,1-6.6,44.5C-228.1,282.8-231.8,285.9-237.3,285.9 M-236.3,227.8c-0.7,0-1.4,0-2.1,0.1
			c-3.8,0.3-6.9,1.5-8.5,3.5c-1.1,1.3-1.6,3-1.4,4.9l6.1,42.6c0,0.4,0.1,1.6,4.8,1.6c0,0,0.1,0,0.1,0c2.7,0,4.1-1,4.1-2.9l0-0.3
			c2.5-16.3,6.2-40.9,6.5-43.6C-227.2,228.8-232.3,227.8-236.3,227.8"/>
		<path class="st14" d="M-237.8,313.6c-0.4,0-0.8,0-1.3-0.1c-3.3-0.4-6.7-2.5-9-5.5c-1.8-2.3-2.5-4.9-2.2-7.3
			c0.9-5.8,8.1-8.6,14.2-7.8c3.4,0.4,6.2,1.9,7.9,4.2c1.4,1.9,2,4.2,1.6,6.7C-227.4,309.3-232.5,313.6-237.8,313.6 M-238.1,298.1
			c-3.1,0-6.6,1.3-6.9,3.4c-0.1,0.9,0.3,2.1,1.2,3.3c1.3,1.8,3.5,3.2,5.4,3.4c3.2,0.4,6.2-2.5,6.6-5.2c0.2-1,0-1.9-0.6-2.7
			c-0.8-1.1-2.4-1.9-4.3-2.1C-237.2,298.1-237.6,298.1-238.1,298.1"/>
		<path class="st26" d="M-583.2,274.6c6.3-23.3,19.9-38.4,39.4-43.7c11.7-3.2,40.8-4.7,91.6-4.7c36.2,0,69.2,2.3,88.5,6.1
			c24.2,4.8,39,19.5,42.6,42.7c3.1,20,3.1,50.1,3.1,66.2v0.3c0,16.1,0,49.6-3.2,67.9c-4,23-19.1,38.1-42.6,42.6
			c-10,1.9-21.3,2.3-31.3,2.6c-4.7,0.1-9.1,0.3-12.6,0.6c-4.1,0.3-7.3,1.9-9.2,4.5c-1.7,2.3-2.3,5.3-1.7,8.6l7.6,35.1
			c0.5,2.5-0.6,4.8-2.7,6c-0.9,0.5-1.8,0.7-2.7,0.7c-1.4,0-2.7-0.5-3.8-1.5c-0.4-0.3-43.4-37.2-57.7-50.5c-2-1.9-4.6-2.9-7.4-2.9
			c-25,0-43.7-1-55.4-3.2c-23.5-4.2-39.1-19.7-42.6-42.7c-3.2-21-3.2-52.7-3.1-69.8v-0.2c0-2.6,0-5.6-0.1-9
			C-586.6,312.4-586.8,287.9-583.2,274.6"/>
		<path class="st14" d="M-578,408.5c3.2,20.5,17.1,34.4,38.3,38.2c11.4,2,29.7,3.1,54.5,3.1c4.1,0,8,1.5,11,4.3
			c14.2,13.2,57.2,50,57.6,50.4c0.1,0.1,0.2,0.2,0.3,0.1c0.1-0.1,0.1-0.1,0.1-0.2l-7.7-35.1c-1-4.8,0-9.3,2.6-12.9
			c2.8-3.8,7.5-6.1,13.1-6.6c3.7-0.3,8.2-0.4,12.9-0.6c9.8-0.3,20.8-0.6,30.4-2.5c21.1-4.1,34.8-17.7,38.3-38.3
			c3.1-17.8,3.1-51,3.1-67v-0.3c0-16,0-45.9-3.1-65.4c-3.3-21-16.2-33.8-38.3-38.2c-9.5-1.9-22.4-3.4-37.4-4.4
			c-15-1-32.2-1.6-50.1-1.6c-49.6,0-79.1,1.5-90.2,4.5c-17.8,4.9-29.8,18.4-35.7,40c-3.4,12.6-3.2,37.7-3.1,54.3
			c0,3.3,0.1,6.4,0.1,9v0.3C-581.1,356.4-581.2,387.9-578,408.5"/>
		<path class="st28" d="M-567.8,340.6c0.1,14.2,3.3,38.7,6,55.7c2.9,18,15.7,29.8,34.4,33c13.5,2.3,35,5.6,46.7,5.6h65.7
			c9.2-0.7,24.5-3.3,37-5.6c18.6-3.4,31.1-15,34.4-33c2.6-14.6,4.2-41.2,4.2-55c0-13.5-1.6-37.7-4.2-53.9c-2.9-18-14.6-29.2-34.4-33
			c-18.4-3.5-48.7-8-74.7-8c-30.3,0-65.2,3.7-77.2,6.9c-7.4,2-13.7,5.5-18.7,10.5c-6,6-10.4,13.9-13.2,23.6
			C-565.3,299.9-567.9,318.2-567.8,340.6"/>
		<path class="st14" d="M-463.4,402.7c-7.2,0-13-5.6-13-12.6c0-6.9,5.5-11.8,13.2-11.8c8,0,13,4.2,13,10.9
			C-450.2,396.5-456.2,402.7-463.4,402.7 M-463.2,384.2c-3.3,0-7.2,1.5-7.2,5.8c0,3.6,3.2,6.6,7,6.6c4.2,0,7.2-4,7.2-7.5
			C-456.2,385.9-458.5,384.2-463.2,384.2 M-463,371.4h-2.1c-3.5,0-8.5-2.6-8.8-6.8c-0.1-0.6-1.7-16.6,6.8-26.7l1.1-1.3
			c6.1-7.2,12.5-14.6,12.5-20.1c0-7.2-3-10.2-10.3-10.3c-3.1,0-6.7,0.7-9.7,1.9c-2.1,0.8-4.3,0.8-6.4-0.1c-2-0.9-3.6-2.5-4.4-4.6
			c-1.4-3.7,0-11.4,4.2-13.4c5.6-2.6,12.5-4,19.1-4c19,0,31.8,14.9,31.8,28.7c0,10.2-7,18.2-13.7,26c-1,1.2-2,2.3-3,3.5
			c-0.6,0.8-1.4,1.6-2.2,2.5c-1.6,1.7-3.7,4-4.2,5.2c-0.8,2-1.2,6.5-0.9,12.4c0,0.9-0.2,2.3-1.6,3.7
			C-456.7,370.1-460.5,371.4-463,371.4 M-463.7,300.1c10.6,0.2,16.2,5.8,16.2,16.3c0,7.7-6.8,15.6-13.9,24l-1.1,1.3
			c-6.8,8.2-5.4,22.2-5.4,22.3c0.2,0.5,1.7,1.3,2.9,1.3h2.1c1,0,3.2-0.8,3.9-1.4c-0.2-6.8,0.3-11.6,1.4-14.4c0.9-2.2,3.1-4.6,5.3-7
			c0.7-0.8,1.5-1.6,2.1-2.3c1-1.2,2-2.4,3.1-3.5c6.3-7.2,12.2-14.1,12.2-22.1c0-9.5-9-22.7-25.8-22.7c-5.7,0-11.9,1.3-16.6,3.5
			c-0.8,0.6-1.6,4.4-1.1,5.8c0.2,0.6,0.6,1,1.2,1.2c0.6,0.2,1.2,0.2,1.7,0C-471.9,301-467.7,300.1-463.7,300.1"/>
		<path class="st26" d="M-565.3,284.7c-0.2,0-0.5,0-0.7-0.1c-1.4-0.4-2.2-1.9-1.8-3.3c2.9-10.2,7.6-18.6,13.9-24.8
			c5.5-5.4,12.2-9.1,19.9-11.2c1.4-0.4,2.9,0.5,3.3,1.9c0.4,1.4-0.5,2.9-1.9,3.3c-6.8,1.8-12.7,5.1-17.5,9.8
			c-5.6,5.5-9.8,13.1-12.5,22.4C-563,283.9-564.1,284.7-565.3,284.7"/>
		<path class="st26" d="M-557.1,225.7c-1.7,0-3.2-1.2-3.5-3l-3-18.3c-0.3-1.9,1-3.8,2.9-4.1c1.9-0.3,3.8,1,4.1,2.9l3,18.3
			c0.3,1.9-1,3.8-2.9,4.1C-556.7,225.7-556.9,225.7-557.1,225.7"/>
		<path class="st26" d="M-573.1,233.2c-1,0-1.9-0.4-2.7-1.2l-25.6-28.5c-1.3-1.5-1.2-3.7,0.3-5c1.5-1.3,3.7-1.2,5,0.3l25.6,28.5
			c1.3,1.5,1.2,3.7-0.3,5C-571.4,232.9-572.2,233.2-573.1,233.2"/>
		<path class="st26" d="M-586.5,248.1c-0.4,0-0.9-0.1-1.3-0.3l-24.4-9.9c-1.8-0.7-2.7-2.8-2-4.6c0.7-1.8,2.8-2.7,4.6-2l24.4,9.9
			c1.8,0.7,2.7,2.8,2,4.6C-583.8,247.3-585.1,248.1-586.5,248.1"/>
		<path class="st26" d="M-118.3,448.5c-4.8,0-8.8-3.9-8.8-8.8c0-4.8,3.9-8.7,8.8-8.7c4.8,0,8.7,3.9,8.7,8.7
			C-109.5,444.6-113.5,448.5-118.3,448.5"/>
		<path class="st26" d="M-397.8,208c-6.5,0-11.9-5.3-11.9-11.9c0-6.5,5.3-11.9,11.9-11.9c6.5,0,11.9,5.3,11.9,11.9
			C-386,202.7-391.3,208-397.8,208"/>
		<path class="st26" d="M-423.2,212.4c-4.1,0-7.4-3.3-7.4-7.4c0-4.1,3.3-7.4,7.4-7.4s7.4,3.3,7.4,7.4
			C-415.8,209-419.1,212.4-423.2,212.4"/>
	</g>
	<g>
		<defs>
			<rect id="SVGID_31_" x="-1784.3" y="-420.3" width="1440" height="436"/>
		</defs>
		<clipPath id="SVGID_32_">
			<use xlink:href="#SVGID_31_"  style="overflow:visible;"/>
		</clipPath>
		<g class="st29">
			<defs>
				<rect id="SVGID_33_" x="-1785.2" y="-420.3" width="1440.9" height="962"/>
			</defs>
			<clipPath id="SVGID_34_">
				<use xlink:href="#SVGID_33_"  style="overflow:visible;"/>
			</clipPath>
			<g transform="matrix(1 0 0 1 1.220703e-04 0)" style="clip-path:url(#SVGID_34_);">
				
					<image style="overflow:visible;" width="2002" height="1336" xlink:href="4CF91A99.jpg"  transform="matrix(0.7197 0 0 0.7201 -1785.2258 -420.2848)">
				</image>
			</g>
		</g>
	</g>
	<polygon class="st30" points="-45.3,6 -56.8,17.6 -68.4,6 -71.8,9.4 -56.8,24.4 -41.8,9.4 	"/>
	<path class="st26" d="M-145.8,447.9c-7.2,0-13-5.8-13-13c0-7.2,5.8-13,13-13c7.2,0,13,5.8,13,13
		C-132.7,442.1-138.6,447.9-145.8,447.9"/>
	<path class="st14" d="M-145.8,425.4c-5.2,0-9.5,4.3-9.5,9.5c0,5.2,4.3,9.5,9.5,9.5c5.2,0,9.5-4.3,9.5-9.5
		C-136.3,429.6-140.5,425.4-145.8,425.4"/>
	<path class="st14" d="M-118.3,434.6c-2.9,0-5.2,2.3-5.2,5.2c0,2.9,2.3,5.2,5.2,5.2c2.9,0,5.2-2.3,5.2-5.2
		C-113.1,436.9-115.4,434.6-118.3,434.6"/>
	<path class="st14" d="M-397.8,187.8c-4.6,0-8.3,3.7-8.3,8.3c0,4.6,3.7,8.3,8.3,8.3c4.6,0,8.3-3.7,8.3-8.3
		C-389.5,191.6-393.3,187.8-397.8,187.8"/>
	<path class="st14" d="M-423.2,201.1c-2.1,0-3.9,1.7-3.9,3.9c0,2.1,1.7,3.8,3.9,3.8c2.1,0,3.9-1.7,3.9-3.8
		C-419.3,202.8-421,201.1-423.2,201.1"/>
</g>
</svg>
