<svg xmlns="http://www.w3.org/2000/svg" viewBox="0 0 60.5 61.42"><title>main-nav-handshakes</title><g id="Layer_2" data-name="Layer 2"><g id="Layer_1-2" data-name="Layer 1"><g id="Layer_2-2" data-name="Layer 2"><g id="Layer_2-2-2" data-name="Layer 2-2"><path d="M60.43,29.75a30.15,30.15,0,0,0-1.75-9.57c-.24-.66-2.53-.72-4.72-.59H49a7,7,0,0,1-2.48-.46l-12.2-4.66A7.59,7.59,0,0,0,27,15.52l-7.64,5.8a1.45,1.45,0,0,0,.38,2.4A4.79,4.79,0,0,0,24,23.51l6.5-3.64a1.18,1.18,0,0,1,1.46.28L46.11,37.37a.36.36,0,0,0,.5,0h0l.59-.49a1.66,1.66,0,0,1,1-.37h7.9A26.62,26.62,0,0,1,20,54.78l2.13-3a.72.72,0,0,0-.52-1.13l-11.36-1h-.07a.72.72,0,0,0-.65,1L14.31,61a.72.72,0,0,0,.58.41H15a.72.72,0,0,0,.58-.3l2.35-3.32A30.21,30.21,0,0,0,60.5,30.22,1.77,1.77,0,0,0,60.43,29.75Z" fill="#fff"/><path d="M16.85,43.08l.19.15a2,2,0,0,0,2.12.21.1.1,0,0,1,.15.1,2,2,0,0,0,.75,1.76l.14.11a2,2,0,0,0,2.15.2.11.11,0,0,1,.17.08,2,2,0,0,0,.73,1.25l.08.06a2,2,0,0,0,2.81-.33h0a2,2,0,0,0,.16-.24l.29-.51a2.08,2.08,0,0,0-.35-2.57A2,2,0,0,0,24.08,43,.06.06,0,0,1,24,43h0a2,2,0,0,0-2.7-2c-.29,0-.23-.21-.23-.21a2,2,0,0,0-2.78-2.48c-.22,0-.19-.17-.19-.17A2,2,0,0,0,14.81,36l-1.55,1.9a2,2,0,0,0,.27,2.76h0l.24.19A2,2,0,0,0,16,41a.09.09,0,0,1,.14.1A2,2,0,0,0,16.85,43.08Z" fill="#fff"/><path d="M13.1,34.74a4.31,4.31,0,0,1,5.58-.91,4.06,4.06,0,0,1,1.62,2.28,4.08,4.08,0,0,1,2.86,2.82,4.07,4.07,0,0,1,2.38,1.86,4.11,4.11,0,0,1,2.25,1.13A4.24,4.24,0,0,1,28.38,47l-.22.39A2.35,2.35,0,0,0,31.8,45h0a0,0,0,0,1,.07,0l.18.17a2.41,2.41,0,0,0,3,.33,2.35,2.35,0,0,0,1-2.4h0a0,0,0,0,1,.07,0l.18.17a2.41,2.41,0,0,0,3,.34,2.35,2.35,0,0,0,1-2.4.05.05,0,0,1,.07,0h0l.19.19a2.39,2.39,0,0,0,2.9.36,2.44,2.44,0,0,0,.64-3.51L44,38.17l-1.43-1.72L31,22.34a.38.38,0,0,0-.48-.09L25,25.34a6.92,6.92,0,0,1-5.76.44A3.72,3.72,0,0,1,17,23.54a4.18,4.18,0,0,1,.38-3.17.53.53,0,0,0-.47-.8s-7.12,0-10.09-.11H5.93A26.6,26.6,0,0,1,41,5.84q.8.35,1.57.76L40.21,9.4a.71.71,0,0,0,.42,1.16l11.23,2H52a.72.72,0,0,0,.67-1L48.78.89a.71.71,0,0,0-.55-.46H48.1a.72.72,0,0,0-.55.25L44.93,3.79A30.21,30.21,0,0,0,2.07,19.46h0v0c-.1.27-.2.54-.29.8s-.19.54-.28.82l-.07.23A30.31,30.31,0,0,0,0,30.47a27.62,27.62,0,0,0,.63,6.16l11-.06Z" fill="#fff"/></g></g></g></g></svg>