<svg xmlns="http://www.w3.org/2000/svg" viewBox="0 0 61.14 50.81"><title>main-nav-delegate</title><g id="Layer_2" data-name="Layer 2"><g id="Layer_1-2" data-name="Layer 1"><g id="Layer_2-2" data-name="Layer 2"><g id="Layer_1-2-2" data-name="Layer 1-2"><path d="M61.1,45.51c-3.1-6.5-7.8-7.8-7.8-7.8s-7.8-2.3-7.8-5.2v-1.6a14.21,14.21,0,0,0,2.5-4.7c0-.3.3-.4.5-.6a3.15,3.15,0,0,0,.4-3.9c-.1-.2-.3-.3-.3-.6v-4.6a7.35,7.35,0,0,0-1.9-5.1,6.8,6.8,0,0,0-4-2.1,13.69,13.69,0,0,0-5.7.1,7.21,7.21,0,0,0-4,2.7,7.54,7.54,0,0,0-1.2,4.1v4.7c0,.3-.2.5-.4.8a3.19,3.19,0,0,0,.7,3.9,1.27,1.27,0,0,1,.4.9,14.4,14.4,0,0,0,2.3,4.2v1.7a2.35,2.35,0,0,1-.2.8,5.3,5.3,0,0,1,1.1.9s9.3,10.4,9.9,11.2a1.5,1.5,0,0,1,.4,1.6,1.79,1.79,0,0,1-1.4,1l-12.2,2c-1,.2-2,.3-3,.5a2.09,2.09,0,0,1-1.4-.3,1.85,1.85,0,0,1-.7-1.8c.1-.3.9-2,1-2.2a24.63,24.63,0,0,1-6.8-4.3,19.15,19.15,0,0,0-2.4,3.8v2.6a2.65,2.65,0,0,0,2.6,2.6H58.2a2.85,2.85,0,0,0,2.9-2.6A20.94,20.94,0,0,0,61.1,45.51Z" fill="#fff"/><path d="M18.3,24a1.27,1.27,0,0,1,1.2,0,4.37,4.37,0,0,1,1.2,2.2c1.2,3.4,3.3,5.5,7.1,8.1,1.9-.8,4.2-2.1,4.5-2.7v-1a14.09,14.09,0,0,1-2.2-4.2v-.1A4.18,4.18,0,0,1,29,24.8c-1.7-.6-6.2-2.3-6.2-4.3V19.1A12.5,12.5,0,0,0,25,15c0-.3.3-.4.4-.5a2.87,2.87,0,0,0,.4-3.4c-.1-.2-.3-.3-.2-.5v-4A7.49,7.49,0,0,0,24,2.11,6.35,6.35,0,0,0,20.5.21a12.07,12.07,0,0,0-5,.1,6,6,0,0,0-3.6,2.4,6.53,6.53,0,0,0-1,3.6v4.1a1.49,1.49,0,0,1-.3.7,2.72,2.72,0,0,0,.6,3.4,2,2,0,0,1,.4.8,9.81,9.81,0,0,0,2,3.6v1.5c0,2.5-6.8,4.6-6.8,4.6s-4.1,1.1-6.8,6.8v2.3a2.26,2.26,0,0,0,2.22,2.3H17.8a17.43,17.43,0,0,1-1.1-4.5C16.1,27,17.9,24.21,18.3,24Z" fill="#fff"/><path d="M29.82,47.17c-.37.7,0,1.5,1.83,1.17L42.49,46.7c1-.22.81-1,.24-1.66-.88-1-4.48-4.88-7.08-7.71,0,0-.84-1.15-1.62.92a11.51,11.51,0,0,1-.79,1.63c-1.46-.14-5.68-2.7-7.58-4A17,17,0,0,1,20.1,28.4c-.2-.8-1-2.3-1.54-1.15s.11,5,.56,6.46a20.78,20.78,0,0,0,3.21,5.38c1.9,2.1,6.67,5.6,8.49,6A19.58,19.58,0,0,1,29.82,47.17Z" fill="#fff"/><path d="M31.6,36.51c.2.1.3.1.5.2a.35.35,0,0,1,.1-.2c.3-.9.8-2.1,1.2-3a15.81,15.81,0,0,1-4.1,2.1C30,35.91,30.7,36.21,31.6,36.51Z" fill="#fff"/></g></g></g></g></svg>