<?xml version="1.0" encoding="utf-8"?>
<!-- Generator: Adobe Illustrator 21.0.0, SVG Export Plug-In . SVG Version: 6.00 Build 0)  -->
<svg version="1.1" id="Layer_1" xmlns="http://www.w3.org/2000/svg" xmlns:xlink="http://www.w3.org/1999/xlink" x="0px" y="0px"
	 viewBox="0 0 370 330" style="enable-background:new 0 0 370 330;" xml:space="preserve">
<style type="text/css">
	.st0{fill:#29ABE2;}
	.st1{fill:#FFFFFF;}
	.st2{fill:none;stroke:#FFFFFF;stroke-width:12;stroke-linecap:round;stroke-linejoin:round;stroke-miterlimit:10;}
</style>
<g id="XMLID_211_">
	<g>
		<path class="st0" d="M1494.4,189.1H1217c-6.1,0-11.1,5-11.1,11.1V242h-23.8c-3.1,0-5.6,2.5-5.6,5.6v45.2c0,3.1,2.5,5.6,5.6,5.6
			h23.8v45.5h-23.8c-3.1,0-5.6,2.5-5.6,5.6v45.2c0,3.1,2.5,5.6,5.6,5.6h23.8V442c0,6.1,5,11.1,11.1,11.1h277.4
			c6.1,0,11.1-5,11.1-11.1V200.2C1505.5,194.1,1500.5,189.1,1494.4,189.1z M1364,357.8l35,35c4.3,4.3,4.3,11.4,0,15.7
			c-4.3,4.3-11.4,4.3-15.7,0l-35-35c-15.6,9.6-35.4,9.6-51,0l-35,35c-4.3,4.3-11.4,4.3-15.7,0c-4.3-4.3-4.3-11.4,0-15.7l35-35
			c-9.6-15.6-9.6-35.4,0-51l-35-35c-4.3-4.3-4.3-11.4,0-15.7c4.3-4.3,11.4-4.3,15.7,0l35,35c15.6-9.6,35.4-9.6,51,0l35-35
			c4.3-4.3,11.4-4.3,15.7,0c4.3,4.3,4.3,11.4,0,15.7l-35,35C1373.6,322.4,1373.6,342.3,1364,357.8z M1413.9,226.1
			c-4.6,0-8.3-3.7-8.3-8.3c0-4.6,3.7-8.3,8.3-8.3s8.3,3.7,8.3,8.3C1422.3,222.3,1418.6,226.1,1413.9,226.1z M1439.3,226.1
			c-4.6,0-8.3-3.7-8.3-8.3c0-4.6,3.7-8.3,8.3-8.3c4.6,0,8.3,3.7,8.3,8.3C1447.7,222.3,1443.9,226.1,1439.3,226.1z M1468.7,380.2
			c0,4.6-3.7,8.3-8.3,8.3c-4.6,0-8.3-3.7-8.3-8.3v-95.8c0-4.6,3.7-8.3,8.3-8.3c4.6,0,8.3,3.7,8.3,8.3V380.2z M1464.3,226.1
			c-4.6,0-8.3-3.7-8.3-8.3c0-4.6,3.7-8.3,8.3-8.3c4.6,0,8.3,3.7,8.3,8.3C1472.7,222.3,1468.9,226.1,1464.3,226.1z"/>
		<path class="st0" d="M1304.1,313.7c-10.3,10.3-10.3,26.9,0,37.2c10.3,10.3,26.9,10.3,37.2,0c10.3-10.3,10.3-26.9,0-37.2
			C1331.1,303.5,1314.4,303.5,1304.1,313.7z"/>
	</g>
</g>
<g>
	<path class="st0" d="M1494.4,565.6H1217c-6.1,0-11.1,5-11.1,11.1v41.8h-23.8c-3.1,0-5.6,2.5-5.6,5.6v45.2c0,3.1,2.5,5.6,5.6,5.6
		h23.8v45.5h-23.8c-3.1,0-5.6,2.5-5.6,5.6v45.2c0,3.1,2.5,5.6,5.6,5.6h23.8v41.8c0,6.1,5,11.1,11.1,11.1h277.4
		c6.1,0,11.1-5,11.1-11.1V576.7C1505.5,570.6,1500.5,565.6,1494.4,565.6z M1369,721.3l35,35c4.3,4.3,4.3,11.4,0,15.7
		c-4.3,4.3-11.4,4.3-15.7,0l-35-35c-15.6,9.6-35.4,9.6-51,0l-35,35c-4.3,4.3-11.4,4.3-15.7,0c-4.3-4.3-4.3-11.4,0-15.7l35-35
		c-9.6-15.6-9.6-35.4,0-51l-35-35c-4.3-4.3-4.3-11.4,0-15.7c4.3-4.3,11.4-4.3,15.7,0l35,35c15.6-9.6,35.4-9.6,51,0l35-35
		c4.3-4.3,11.4-4.3,15.7,0c4.3,4.3,4.3,11.4,0,15.7l-35,35C1378.6,685.9,1378.6,705.8,1369,721.3z M1471.7,739.7
		c0,4.6-3.7,8.3-8.3,8.3c-4.6,0-8.3-3.7-8.3-8.3v-95.8c0-4.6,3.7-8.3,8.3-8.3c4.6,0,8.3,3.7,8.3,8.3V739.7z"/>
	<circle class="st0" cx="1328.8" cy="696.2" r="26.8"/>
</g>
<g>
	<g>
		<g id="XMLID_329_">
			<path id="XMLID_444_" class="st1" d="M730.9,512.8h-69.8c-3.8,0-6.9-3.3-6.9-7.3c0-4,3.1-7.3,6.9-7.3h69.8c3.8,0,6.9,3.3,6.9,7.3
				C737.8,509.5,734.7,512.8,730.9,512.8z"/>
		</g>
		<g id="XMLID_344_">
			<path id="XMLID_389_" class="st1" d="M730.9,548.4h-61.8c-3.8,0-6.9-3.3-6.9-7.3c0-4,3.1-7.3,6.9-7.3h61.8c3.8,0,6.9,3.3,6.9,7.3
				C737.8,545.1,734.7,548.4,730.9,548.4z"/>
		</g>
		<g id="XMLID_351_">
			<path id="XMLID_384_" class="st1" d="M730.9,584h-53.1c-3.8,0-6.9-3.3-6.9-7.3c0-4,3.1-7.3,6.9-7.3h53.1c3.8,0,6.9,3.3,6.9,7.3
				C737.8,580.7,734.7,584,730.9,584z"/>
		</g>
	</g>
	<polyline class="st2" points="651.3,471.3 762.7,471.3 762.7,629.6 	"/>
	<path class="st1" d="M702.1,659.8l0-1.4c-17.2-36.2-43.4-43.8-44.5-44.1l-15.1-0.2c-1.7,0-23.6-3.1-23.6-23.6V583
		c5.8-7.3,10.3-15.8,13-25.4c0.2-0.2,0.4-0.4,0.6-0.6c0.4-0.4,0.9-0.8,1.2-1.1c6.8-6.8,8-18,3.1-25.9c-0.2-0.4-0.5-0.7-0.9-1.4
		l0-6.8c0-5.8,0-11.5,0-17.4c-0.3-12.2-4.2-23-11.1-30.3c-5.8-6.2-13.9-10.4-23.5-12.2c-10.9-2.1-22-1.8-32.2,0.8
		c-10.1,2.5-18.9,8.5-24.1,16.4c-4.5,6.5-7,14.9-7.4,24.4c-0.1,5.3-0.1,10.7-0.1,16.1l-0.3,9.4c-0.4,0.6-0.8,1.3-1,1.7
		c-4.8,8.7-2.6,20.3,5.1,26.6c0.2,0.2,0.4,1,0.5,1.5l0.3,1.1c2.6,8.1,6.7,15.7,12.4,22.7v7.7c0,13-10.6,23.6-23.6,23.6l-15.1,0.2
		c-1.1,0.3-27.4,7.9-44.5,44.1l-0.4,15.8c0,10.1,8.2,18.2,18.2,18.2h143.6h51.6c10,0,18.2-8.2,18.2-18.2v-13.9
		C702.5,660.1,702.3,659.9,702.1,659.8z"/>
</g>
<g>
	<g>
		<g id="XMLID_7_">
			<path id="XMLID_8_" class="st1" d="M-127.2,551.8H-197c-3.8,0-6.9-3.3-6.9-7.3s3.1-7.3,6.9-7.3h69.8c3.8,0,6.9,3.3,6.9,7.3
				S-123.4,551.8-127.2,551.8z"/>
		</g>
		<g id="XMLID_5_">
			<path id="XMLID_6_" class="st1" d="M-127.2,587.4H-189c-3.8,0-6.9-3.3-6.9-7.3c0-4,3.1-7.3,6.9-7.3h61.8c3.8,0,6.9,3.3,6.9,7.3
				C-120.3,584.1-123.4,587.4-127.2,587.4z"/>
		</g>
		<g id="XMLID_3_">
			<path id="XMLID_4_" class="st1" d="M-127.2,623h-53.1c-3.8,0-6.9-3.3-6.9-7.3c0-4,3.1-7.3,6.9-7.3h53.1c3.8,0,6.9,3.3,6.9,7.3
				C-120.3,619.7-123.4,623-127.2,623z"/>
		</g>
	</g>
	<polyline class="st2" points="-206.8,510.3 -95.4,510.3 -95.4,668.6 	"/>
	<path class="st1" d="M-156,698.8l0-1.4c-17.2-36.2-43.4-43.8-44.5-44.1l-15.1-0.2c-1.7,0-23.6-3.1-23.6-23.6V622
		c5.8-7.3,10.3-15.8,13-25.4c0.2-0.2,0.4-0.4,0.6-0.6c0.4-0.4,0.9-0.8,1.2-1.1c6.8-6.8,8-18,3.1-25.9c-0.2-0.4-0.5-0.7-0.9-1.4
		l0-6.8c0-5.8,0-11.5,0-17.4c-0.3-12.2-4.2-23-11.1-30.3c-5.8-6.2-13.9-10.4-23.5-12.2c-10.9-2.1-22-1.8-32.2,0.8
		c-10.1,2.5-18.9,8.5-24.1,16.4c-4.5,6.5-7,14.9-7.4,24.4c-0.1,5.3-0.1,10.7-0.1,16.1l-0.3,9.4c-0.4,0.6-0.8,1.3-1,1.7
		c-4.8,8.7-2.6,20.3,5.1,26.6c0.2,0.2,0.4,1,0.5,1.5l0.3,1.1c2.6,8.1,6.7,15.7,12.4,22.7v7.7c0,13-10.6,23.6-23.6,23.6l-15.1,0.2
		c-1.1,0.3-27.4,7.9-44.5,44.1l-0.4,15.8c0,10.1,8.2,18.2,18.2,18.2h143.6h51.6c10,0,18.2-8.2,18.2-18.2v-13.9
		C-155.6,699.1-155.8,699-156,698.8z"/>
</g>
<g>
	<g>
		<g id="XMLID_1_">
			<g>
				<path class="st1" d="M347.2,8.6H52c-6.5,0-11.8,5.3-11.8,11.8v44.5H14.9c-3.3,0-5.9,2.6-5.9,5.9v48.1c0,3.3,2.6,5.9,5.9,5.9
					h25.3v48.4H14.9c-3.3,0-5.9,2.6-5.9,5.9v48.1c0,3.3,2.6,5.9,5.9,5.9h25.3v44.5c0,6.5,5.3,11.8,11.8,11.8h295.1
					c6.5,0,11.8-5.3,11.8-11.8V20.5C359,13.9,353.7,8.6,347.2,8.6z M208.4,188.2l37.2,37.2c4.6,4.6,4.6,12.1,0,16.7
					c-4.6,4.6-12.1,4.6-16.7,0l-37.2-37.2c-16.6,10.3-37.7,10.3-54.3,0l-37.2,37.2c-4.6,4.6-12.1,4.6-16.7,0
					c-4.6-4.6-4.6-12.1,0-16.7l37.2-37.2c-10.3-16.6-10.3-37.7,0-54.3L83.5,96.6c-4.6-4.6-4.6-12.1,0-16.7c4.6-4.6,12.1-4.6,16.7,0
					l37.2,37.2c16.6-10.3,37.7-10.3,54.3,0L229,79.9c4.6-4.6,12.1-4.6,16.7,0c4.6,4.6,4.6,12.1,0,16.7l-37.2,37.2
					C218.7,150.5,218.7,171.6,208.4,188.2z M258.4,51.2c-4.9,0-8.9-4-8.9-8.9c0-4.9,4-8.9,8.9-8.9c4.9,0,8.9,4,8.9,8.9
					C267.3,47.2,263.3,51.2,258.4,51.2z M285.4,51.2c-4.9,0-8.9-4-8.9-8.9c0-4.9,4-8.9,8.9-8.9c4.9,0,8.9,4,8.9,8.9
					C294.3,47.2,290.3,51.2,285.4,51.2z M319.8,212c0,4.9-4,8.9-8.9,8.9c-4.9,0-8.9-4-8.9-8.9V110.1c0-4.9,4-8.9,8.9-8.9
					c4.9,0,8.9,4,8.9,8.9V212z M312,51.2c-4.9,0-8.9-4-8.9-8.9c0-4.9,4-8.9,8.9-8.9c4.9,0,8.9,4,8.9,8.9
					C320.9,47.2,316.9,51.2,312,51.2z"/>
				<path class="st1" d="M144.8,141.2c-10.9,10.9-10.9,28.7,0,39.6c10.9,10.9,28.7,10.9,39.6,0c10.9-10.9,10.9-28.7,0-39.6
					C173.4,130.3,155.7,130.3,144.8,141.2z"/>
			</g>
		</g>
		<g>
			<path class="st1" d="M121.9,323.4H72.9c-3.5,0-6.4-2.9-6.4-6.4v-12.8c0-3.5,2.9-6.4,6.4-6.4h48.9c3.5,0,6.4,2.9,6.4,6.4V317
				C128.2,320.5,125.4,323.4,121.9,323.4z"/>
			<path class="st1" d="M327.2,323.4h-48.9c-3.5,0-6.4-2.9-6.4-6.4v-12.8c0-3.5,2.9-6.4,6.4-6.4h48.9c3.5,0,6.4,2.9,6.4,6.4V317
				C333.6,320.5,330.7,323.4,327.2,323.4z"/>
		</g>
	</g>
</g>
</svg>
