<svg xmlns="http://www.w3.org/2000/svg" viewBox="0 0 297.8 231.69"><title>main-nav-network</title><g id="Layer_2" data-name="Layer 2"><g id="Layer_1-2" data-name="Layer 1"><g id="_Group_" data-name="&lt;Group&gt;"><path id="_Path_" data-name="&lt;Path&gt;" d="M260,52.29H190.2a7.31,7.31,0,0,1,0-14.6H260a7.31,7.31,0,0,1,0,14.6Z" fill="#fff"/></g><g id="_Group_2" data-name="&lt;Group&gt;"><path id="_Path_2" data-name="&lt;Path&gt;" d="M260,87.89H198.2a7.31,7.31,0,0,1,0-14.6H260a7.31,7.31,0,0,1,0,14.6Z" fill="#fff"/></g><g id="_Group_3" data-name="&lt;Group&gt;"><path id="_Path_3" data-name="&lt;Path&gt;" d="M260,123.49H206.9a7.31,7.31,0,0,1,0-14.6H260a7.31,7.31,0,0,1,0,14.6Z" fill="#fff"/></g><polyline points="180.4 10.79 291.8 10.79 291.8 169.09" fill="none" stroke="#fff" stroke-linecap="round" stroke-linejoin="round" stroke-width="12"/><path d="M231.2,199.29v-1.4c-17.2-36.2-43.4-43.8-44.5-44.1l-15.1-.2c-1.7,0-23.6-3.1-23.6-23.6v-7.5a72,72,0,0,0,13-25.4l.6-.6c.4-.4.9-.8,1.2-1.1a21.51,21.51,0,0,0,3.1-25.9c-.2-.4-.5-.7-.9-1.4V43.89c-.3-12.2-4.2-23-11.1-30.3-5.8-6.2-13.9-10.4-23.5-12.2a74.2,74.2,0,0,0-32.2.8c-10.1,2.5-18.9,8.5-24.1,16.4-4.5,6.5-7,14.9-7.4,24.4-.1,5.3-.1,10.7-.1,16.1l-.3,9.4a18.08,18.08,0,0,0-1,1.7,21.6,21.6,0,0,0,5.1,26.6,4.37,4.37,0,0,1,.5,1.5l.3,1.1a69.26,69.26,0,0,0,12.4,22.7v7.7A23.64,23.64,0,0,1,60,153.39l-15.1.2c-1.1.3-27.4,7.9-44.5,44.1L0,213.49a18.2,18.2,0,0,0,18.2,18.2H213.4a18.27,18.27,0,0,0,18.2-18.2v-13.9A1.72,1.72,0,0,1,231.2,199.29Z" fill="#fff"/></g></g></svg>