<svg xmlns="http://www.w3.org/2000/svg" viewBox="0 0 16 12"><title>network-transactions</title><g id="Layer_2" data-name="Layer 2"><g id="Layer_1-2" data-name="Layer 1"><g id="_Group_" data-name="&lt;Group&gt;"><g id="_Group_2" data-name="&lt;Group&gt;"><path id="_Path_" data-name="&lt;Path&gt;" d="M10.63,1.82H4.53A.91.91,0,1,1,4.53,0h6.1a.91.91,0,0,1,0,1.82Z" fill="#6d6e71"/></g><g id="_Group_3" data-name="&lt;Group&gt;"><path id="_Path_2" data-name="&lt;Path&gt;" d="M15.09,6.84H4.53A.91.91,0,1,1,4.53,5H15.09a.91.91,0,0,1,0,1.82Z" fill="#6d6e71"/></g><g id="_Group_4" data-name="&lt;Group&gt;"><path id="_Path_3" data-name="&lt;Path&gt;" d="M15.09,12H4.53a.91.91,0,1,1,0-1.82H15.09a.91.91,0,0,1,0,1.82Z" fill="#6d6e71"/></g><g id="_Group_5" data-name="&lt;Group&gt;"><path id="_Path_4" data-name="&lt;Path&gt;" d="M.91,1.82A.91.91,0,0,1,0,.91.92.92,0,0,1,.27.27a.94.94,0,0,1,1.28,0,.91.91,0,0,1,.27.64.91.91,0,0,1-.91.91Z" fill="#6d6e71"/></g><g id="_Group_6" data-name="&lt;Group&gt;"><path id="_Path_5" data-name="&lt;Path&gt;" d="M.91,6.84a.94.94,0,0,1-.64-.26.91.91,0,0,1,0-1.29,1,1,0,0,1,1.28,0,.91.91,0,0,1,0,1.29A.93.93,0,0,1,.91,6.84Z" fill="#6d6e71"/></g><g id="_Group_7" data-name="&lt;Group&gt;"><path id="_Path_6" data-name="&lt;Path&gt;" d="M.91,12A.91.91,0,0,1,0,11.09a.9.9,0,0,1,.27-.64.94.94,0,0,1,1.28,0,.9.9,0,0,1,.27.64A.91.91,0,0,1,.91,12Z" fill="#6d6e71"/></g></g></g></g></svg>