<?xml version="1.0" encoding="utf-8"?>
<!-- Generator: Adobe Illustrator 21.0.0, SVG Export Plug-In . SVG Version: 6.00 Build 0)  -->
<svg version="1.1" id="Capa_1" xmlns="http://www.w3.org/2000/svg" xmlns:xlink="http://www.w3.org/1999/xlink" x="0px" y="0px"
	 viewBox="0 0 512 512" style="enable-background:new 0 0 512 512;" xml:space="preserve">
<style type="text/css">
	.st0{fill:#FFFFFF;}
	.st1{fill:#00ADEF;}
</style>
<rect x="95" y="121" class="st0" width="315" height="370"/>
<g>
	<g>
		<path class="st1" d="M351.4,97V85.8c0-12.7-10.3-23.1-23.1-23.1h-37.9c3.2-5.7,4.9-12.8,4.9-19.9c0-23.6-19.2-42.8-42.8-42.8
			s-42.7,19.2-42.7,42.8c0,7.2,1.8,14.2,4.9,19.9h-31.1c-12.7,0-23.1,10.3-23.1,23.1V97h-51.5c-19.3,0-35,15.7-35,35v345
			c0,19.3,15.7,35,35,35h293.5c19.3,0,35-15.7,35-35V132c0-19.3-15.7-35-35-35C402.8,97,351.4,97,351.4,97z M227.1,42.8
			c0-14.1,11.4-25.5,25.4-25.5c14.1,0,25.5,11.5,25.5,25.5c0,8-3.7,14.9-9.6,19.9h-31.7C230.9,57.7,227.1,50.8,227.1,42.8z
			 M402.8,456.2c0,11.9-9.6,21.5-21.5,21.5H130.7c-11.9,0-21.5-9.6-21.5-21.5V153.5c0-11.9,9.6-21.5,21.5-21.5h29.9
			c0,9.5,7.7,17.1,17.1,17.1h156.4c9.5,0,17.1-7.7,17.1-17.1h29.9c11.9,0,21.5,9.6,21.5,21.5V456.2L402.8,456.2z"/>
		<circle class="st1" cx="173.7" cy="209.7" r="30.4"/>
		<path class="st1" d="M346.7,192.7H243c-9.5,0-17.3,7.6-17.3,17.1c0,9.5,7.7,17.1,17.3,17.1h103.7c9.5,0,17.3-7.6,17.3-17.1
			S356.3,192.7,346.7,192.7z"/>
		<circle class="st1" cx="173.7" cy="296" r="30.4"/>
		<path class="st1" d="M346.7,278.4H243c-9.5,0-17.3,8-17.3,17.5c0,9.5,7.7,17.5,17.3,17.5h103.7c9.5,0,17.3-7.9,17.3-17.5
			C364,286.4,356.3,278.4,346.7,278.4z"/>
		<circle class="st1" cx="173.7" cy="388.1" r="30.4"/>
		<path class="st1" d="M346.7,370.6H243c-9.5,0-17.3,8-17.3,17.5s7.7,17.5,17.3,17.5h103.7c9.5,0,17.3-8,17.3-17.5
			C364,378.5,356.3,370.6,346.7,370.6z"/>
	</g>
</g>
</svg>
