<svg xmlns="http://www.w3.org/2000/svg" viewBox="0 0 34.33 24.08"><title>notif</title><g id="Layer_2" data-name="Layer 2"><g id="Layer_6" data-name="Layer 6"><path d="M34.25,5.89C33.88,5,32.46,4.74,29.89,5a.52.52,0,0,0-.48.55A.54.54,0,0,0,30,6c2.44-.26,3.15.09,3.22.25s-.39,1.23-3.76,3.18a73.46,73.46,0,0,1-11.26,5,75.4,75.4,0,0,1-12,3.35c-3.91.68-5,.25-5.11,0s.22-.91,2.38-2.33a.47.47,0,0,0,.13-.7.58.58,0,0,0-.77-.11C.61,16.15-.3,17.3.08,18.19c.3.69,1.29,1,3,1a23.61,23.61,0,0,0,3.34-.38,76.53,76.53,0,0,0,12.18-3.4A74.6,74.6,0,0,0,30,10.28C33.33,8.38,34.7,6.95,34.25,5.89Z" fill="#fff"/><path d="M6.13,16.14h0a57.5,57.5,0,0,0,11.41-3.07,57.54,57.54,0,0,0,10.72-5L28.51,8A12,12,0,1,0,5.88,16.23ZM20.45,8.2A7.73,7.73,0,0,1,21.1,11c0,.55-1,1.09-1.42.55s-.55-1.86-1.42-1.43S16,9,15.64,9s-.77-.11-.66-.84a2,2,0,0,0-.55-1.66,6,6,0,0,0-2,0c-.76.11-1.75-.44-1.75-1.25s.87-.94.76-1.27,1-.87,1-.87S14,3.57,14,2.48s.77-1.09.77-1.09h2.06s.89-.55,1,0a11.34,11.34,0,0,0,1.09,2.08,7.83,7.83,0,0,1,1.64-.76c.33,0,.55,1.42.55,1.42s-.66,1.53-1,1.16-1.21,0-1.21,0a8,8,0,0,1-1.2,1.31C17.39,6.75,20.12,7.84,20.45,8.2Z" fill="#fff"/><path d="M28.69,12.47a70,70,0,0,1-9.78,4.36C15.21,18.17,8.14,20,8.14,20A12,12,0,0,0,29.2,12.34V12ZM14.37,23.22l-.15-.52c-.22-.76.87-1.09.87-1.09s.77-.11.82-.66A2.6,2.6,0,0,1,17.6,18.8c1.2-.36,1.31.73,1.31.73l.44-.73h1.09l.66-.93,1.75.43-.37.5h-.94l.11.62-.11,1.09-1.09-.11-1,1,.55,1,.8.49a11.33,11.33,0,0,1-3.64.61A11.5,11.5,0,0,1,14.37,23.22Z" fill="#fff"/></g></g></svg>