<svg xmlns="http://www.w3.org/2000/svg" viewBox="0 0 49.31 31.95"><title>payment-visa</title><g id="Layer_2" data-name="Layer 2"><g id="Layer_1-2" data-name="Layer 1"><path d="M48.19,32H1.12A1.12,1.12,0,0,1,0,30.84V1.12A1.12,1.12,0,0,1,1.12,0H48.19a1.12,1.12,0,0,1,1.12,1.12V30.84A1.12,1.12,0,0,1,48.19,32" fill="#114471"/><path d="M15.51,9.7,12.15,18.3,11.79,17A13.45,13.45,0,0,0,7,11.78l3.08,10.51h3.63L19.15,9.7Z" fill="#fff"/><polygon points="20.54 9.69 18.39 22.29 21.82 22.29 23.98 9.69 20.54 9.69" fill="#fff"/><path d="M30.89,14.75c-1.2-.58-1.94-1-1.93-1.56s.62-1.08,2-1.08a6.31,6.31,0,0,1,2.57.48l.31.14L34.28,10a8.89,8.89,0,0,0-3.08-.53c-3.39,0-5.78,1.71-5.8,4.15,0,1.81,1.7,2.82,3,3.42s1.78,1,1.78,1.56c0,.84-1.07,1.23-2.05,1.23a7.23,7.23,0,0,1-3.23-.66l-.44-.2L24,21.81a10.89,10.89,0,0,0,3.82.67c3.61,0,6-1.68,6-4.3,0-1.43-.91-2.52-2.89-3.42" fill="#fff"/><path d="M43.09,9.71H40.43a1.71,1.71,0,0,0-1.8,1L33.53,22.3h3.61s.59-1.55.72-1.89h4.4c.11.44.42,1.89.42,1.89h3.19Zm-4.24,8.12,1.37-3.52s.28-.73.46-1.2l.23,1.09.79,3.64Z" fill="#fff"/><path d="M3.67,9.58H9a1.39,1.39,0,0,1,1.5,1l1.16,5.57c-1.14-2.91-3.88-5.33-8-6.34Z" fill="#fbb041"/></g></g></svg>