<svg xmlns="http://www.w3.org/2000/svg" viewBox="0 0 49.31 31.95"><title>payment-mastercard</title><g id="Layer_2" data-name="Layer 2"><g id="Layer_1-2" data-name="Layer 1"><path d="M45.79,16A12.66,12.66,0,1,1,33.14,3.32,12.66,12.66,0,0,1,45.79,16" fill="#ec2427"/><path d="M28.83,16A12.66,12.66,0,1,1,16.17,3.32,12.66,12.66,0,0,1,28.83,16" fill="#fbb041"/><path d="M28.16,11.94h-7c.07-.13.31-.66.68-1.35h5.77a14,14,0,0,1,.55,1.35" fill="#ec2427"/><path d="M26.89,9.25H22.6c.28-.46.58-.92.9-1.35h2.4a12.75,12.75,0,0,1,1,1.35" fill="#ec2427"/><path d="M24.65,25.36A13.06,13.06,0,0,1,23.36,24H26a11.93,11.93,0,0,1-1.28,1.36h0l0,0" fill="#ec2427"/><path d="M26.9,22.67H22.41a12.56,12.56,0,0,1-.75-1.35h6a12.52,12.52,0,0,1-.74,1.35" fill="#ec2427"/><path d="M13.23,13.8a4.63,4.63,0,0,0-1.63.3l-.2,1.16A4.21,4.21,0,0,1,12.87,15c.5,0,.87.06.87.46a.92.92,0,0,1,0,.34s-.4,0-.58,0c-1.17,0-2.39.49-2.39,2A1.28,1.28,0,0,0,12,19.24a1.76,1.76,0,0,0,1.38-.62l0,.51h1.19l.53-3.71a1.6,1.6,0,0,0-1.86-1.63m-.66,4.31a.49.49,0,0,1-.53-.51c0-.37.2-.81,1.18-.81a.74.74,0,0,1,.29,0c0,.23-.14,1.29-1,1.29" fill="#114471"/><path d="M17.52,15c.19,0,.92.06.92.06l.17-1.19a6.26,6.26,0,0,0-1.24-.11c-1,0-2,.4-2,1.76,0,1.54,1.68,1.39,1.68,2,0,.43-.47.47-.83.47a4.1,4.1,0,0,1-1.2-.21l-.18,1.18a4.24,4.24,0,0,0,1.51.17c.3,0,2,.08,2-1.71s-1.6-1.34-1.6-2c0-.34.26-.44.74-.44" fill="#114471"/><path d="M20.35,15.2h.71l.17-1.27h-.67l.14-.78H19.35s-.8,4.43-.8,5a1,1,0,0,0,1.08,1.14,3.52,3.52,0,0,0,1-.18l.17-1.15c-.09,0-.23,0-.35,0-.47,0-.52-.25-.49-.44Z" fill="#114471"/><path d="M25.17,17a9.69,9.69,0,0,0,.18-1.23,1.81,1.81,0,0,0-1.92-2c-1.35,0-2.35,1.46-2.35,3.11a2.11,2.11,0,0,0,2.32,2.35A3.5,3.5,0,0,0,24.82,19l.24-1.3a4.25,4.25,0,0,1-1.44.33c-1.44,0-1.19-1.08-1.19-1.08Zm-1.74-2c.76,0,.62.86.62.93H22.55c0-.09.14-.93.87-.93" fill="#114471"/><polygon points="9.07 12.73 7.75 16.67 7.68 12.73 5.71 12.73 4.63 19.15 5.93 19.15 6.76 14.31 6.88 19.15 7.8 19.15 9.54 14.31 8.77 19.15 10.15 19.15 11.21 12.73 9.07 12.73" fill="#114471"/><path d="M28.33,13.87c-.61,0-1,.82-1,.82l.12-.75H26.15l-.84,5.22h1.38c.39-2.23.46-4,1.4-3.71a5.2,5.2,0,0,1,.5-1.56,1.4,1.4,0,0,0-.26,0" fill="#114471"/><path d="M29.75,16.43c0-1.59.82-2.47,1.73-2.47a2.41,2.41,0,0,1,1.24.39l.22-1.43a4.87,4.87,0,0,0-1.52-.33c-1.55,0-3.07,1.34-3.07,3.88,0,1.68.82,2.79,2.43,2.79A6.32,6.32,0,0,0,32,19.08l.24-1.47a3.22,3.22,0,0,1-1.11.33,1.33,1.33,0,0,1-1.34-1.51" fill="#114471"/><path d="M44.8,18.56a.38.38,0,0,0-.15-.15.4.4,0,0,0-.2-.05.41.41,0,0,0-.2.05.34.34,0,0,0-.15.15.39.39,0,0,0-.05.21.38.38,0,0,0,.05.2.37.37,0,0,0,.15.15.46.46,0,0,0,.2.06.47.47,0,0,0,.2-.06A.36.36,0,0,0,44.8,19a.39.39,0,0,0,.06-.2.4.4,0,0,0-.06-.21m-.06.37a.31.31,0,0,1-.12.13.33.33,0,0,1-.34,0,.32.32,0,0,1-.13-.13.35.35,0,0,1,0-.17.3.3,0,0,1,0-.16.31.31,0,0,1,.13-.13.36.36,0,0,1,.17,0,.35.35,0,0,1,.17,0,.29.29,0,0,1,.13.13.33.33,0,0,1,0,.16.34.34,0,0,1,0,.17" fill="#114471"/><path d="M43.12,12.74l-.29,1.8a1.78,1.78,0,0,0-1.3-.7c-1.24,0-2.26,1.49-2.26,3.2,0,1.1.55,2.18,1.67,2.18a1.68,1.68,0,0,0,1.25-.56l-.06.48h1.31l1-6.41Zm-1.71,5.17c-.48,0-.71-.4-.71-1,0-1,.47-1.73,1.06-1.73s.73.33.73,1.11-.35,1.66-1.08,1.66" fill="#114471"/><path d="M44.52,18.81l0,0a.13.13,0,0,0,.09,0,.1.1,0,0,0,0-.08.12.12,0,0,0-.08-.11.24.24,0,0,0-.11,0h-.15V19h.07V18.8h.1a.39.39,0,0,1,.07.11l0,.07h.09l-.05-.09-.07-.09m-.09-.08h-.09V18.6h.15l0,0a0,0,0,0,1,0,0,.07.07,0,0,1,0,0l-.08,0" fill="#114471"/><path d="M35.07,13.8a4.66,4.66,0,0,0-1.63.3l-.19,1.16A4.22,4.22,0,0,1,34.71,15c.5,0,.87.06.87.46a.85.85,0,0,1,0,.34s-.4,0-.58,0c-1.16,0-2.39.49-2.39,2a1.28,1.28,0,0,0,1.3,1.45,1.76,1.76,0,0,0,1.38-.62l0,.51h1.19l.53-3.71a1.59,1.59,0,0,0-1.85-1.63m-.67,4.31a.49.49,0,0,1-.52-.51c0-.37.2-.81,1.18-.81a.72.72,0,0,1,.29,0c0,.23-.14,1.29-1,1.29" fill="#114471"/><path d="M39.91,13.88a1.4,1.4,0,0,0-.26,0c-.61,0-1.05.82-1.05.82l.12-.75H37.46l-.84,5.22H38c.4-2.23.47-4,1.4-3.71a5.12,5.12,0,0,1,.5-1.56" fill="#114471"/><path d="M48,0H1.27A1.27,1.27,0,0,0,0,1.27V30.69A1.27,1.27,0,0,0,1.27,32H48a1.27,1.27,0,0,0,1.27-1.27V1.27A1.27,1.27,0,0,0,48,0M45.79,16a12.65,12.65,0,0,1-21.14,9.39,12.66,12.66,0,1,1-8.56-22h.08a12.62,12.62,0,0,1,8.49,3.27A12.65,12.65,0,0,1,45.79,16Z" fill="#114471"/><path d="M44.88,23.21a.38.38,0,0,1-.15.15.39.39,0,0,1-.4,0,.4.4,0,0,1-.15-.15.41.41,0,0,1-.06-.2.43.43,0,0,1,.06-.21.4.4,0,0,1,.15-.15.37.37,0,0,1,.2-.06.42.42,0,0,1,.2.06.34.34,0,0,1,.15.15.42.42,0,0,1,.06.21.45.45,0,0,1-.05.2" fill="#fff"/><path d="M44.66,23.14a.42.42,0,0,0-.07-.09l0,0a.16.16,0,0,0,.09,0,.12.12,0,0,0,0-.08.14.14,0,0,0,0-.07.11.11,0,0,0-.06,0h-.26v.44h.07V23h0l.05,0a.26.26,0,0,1,.08.1l0,.07h.09ZM44.5,23h-.09v-.13h.15l0,0a.1.1,0,0,1,0,0,.07.07,0,0,1,0,.05l-.08,0" fill="#114471"/><path d="M13.47,13.49a4.63,4.63,0,0,0-1.63.3L11.65,15a4.21,4.21,0,0,1,1.47-.24c.5,0,.87.06.87.46a.92.92,0,0,1,0,.34s-.4,0-.58,0c-1.17,0-2.39.49-2.39,2a1.28,1.28,0,0,0,1.3,1.45,1.76,1.76,0,0,0,1.38-.62l0,.51H14.8l.53-3.71a1.6,1.6,0,0,0-1.86-1.63m-.66,4.31a.49.49,0,0,1-.53-.51c0-.37.2-.81,1.18-.81a.74.74,0,0,1,.29,0c0,.23-.14,1.29-1,1.29" fill="#fff"/><path d="M17.76,14.73c.19,0,.92.06.92.06l.17-1.19a6.26,6.26,0,0,0-1.24-.11c-1,0-2,.4-2,1.76,0,1.54,1.68,1.39,1.68,2,0,.43-.47.47-.83.47a4.1,4.1,0,0,1-1.2-.21l-.18,1.18a4.24,4.24,0,0,0,1.51.17c.3,0,2,.08,2-1.71s-1.6-1.34-1.6-2c0-.34.26-.44.74-.44" fill="#fff"/><path d="M20.6,14.89h.71l.17-1.27h-.67l.14-.78H19.6s-.8,4.43-.8,5a1,1,0,0,0,1.08,1.14,3.52,3.52,0,0,0,1-.18l.17-1.15c-.09,0-.23,0-.35,0-.47,0-.52-.25-.49-.44Z" fill="#fff"/><path d="M25.42,16.67a9.69,9.69,0,0,0,.18-1.23,1.81,1.81,0,0,0-1.92-2c-1.35,0-2.35,1.46-2.35,3.11a2.11,2.11,0,0,0,2.33,2.35,3.49,3.49,0,0,0,1.42-.22l.24-1.3a4.25,4.25,0,0,1-1.44.33c-1.44,0-1.19-1.08-1.19-1.08Zm-1.74-2c.76,0,.62.86.62.93H22.8c0-.09.14-.93.87-.93" fill="#fff"/><polygon points="9.32 12.42 8 16.36 7.93 12.42 5.96 12.42 4.88 18.84 6.18 18.84 7 14 7.12 18.84 8.05 18.84 9.78 14 9.02 18.84 10.39 18.84 11.46 12.42 9.32 12.42" fill="#fff"/><path d="M28.58,13.56c-.61,0-1,.82-1,.82l.12-.75H26.4l-.84,5.22h1.38c.39-2.23.46-4,1.4-3.71a5.2,5.2,0,0,1,.5-1.56,1.4,1.4,0,0,0-.26,0" fill="#fff"/><path d="M30,16.11c0-1.59.82-2.47,1.73-2.47A2.41,2.41,0,0,1,33,14l.22-1.43a4.87,4.87,0,0,0-1.52-.33c-1.55,0-3.07,1.34-3.07,3.88,0,1.68.82,2.79,2.43,2.79a6.32,6.32,0,0,0,1.18-.18l.24-1.47a3.22,3.22,0,0,1-1.11.33A1.33,1.33,0,0,1,30,16.11" fill="#fff"/><path d="M45,18.25a.37.37,0,0,0-.15-.15.4.4,0,0,0-.2-.05.41.41,0,0,0-.2.05.34.34,0,0,0-.15.15.39.39,0,0,0-.05.21.38.38,0,0,0,.05.2.38.38,0,0,0,.15.15.47.47,0,0,0,.21.06.47.47,0,0,0,.2-.06.36.36,0,0,0,.15-.15.39.39,0,0,0,.06-.2.4.4,0,0,0-.06-.21m-.06.37a.31.31,0,0,1-.12.13.33.33,0,0,1-.34,0,.32.32,0,0,1-.13-.13.35.35,0,0,1,0-.17.3.3,0,0,1,0-.16.31.31,0,0,1,.13-.13.36.36,0,0,1,.17,0,.35.35,0,0,1,.17,0,.29.29,0,0,1,.13.13.33.33,0,0,1,0,.16.34.34,0,0,1,0,.17" fill="#fff"/><path d="M43.37,12.43l-.29,1.8a1.78,1.78,0,0,0-1.3-.7c-1.24,0-2.26,1.49-2.26,3.2,0,1.1.55,2.18,1.67,2.18a1.68,1.68,0,0,0,1.25-.56l-.06.48h1.31l1-6.41ZM41.66,17.6c-.48,0-.71-.4-.71-1,0-1,.47-1.73,1.06-1.73s.73.33.73,1.11-.35,1.66-1.08,1.66" fill="#fff"/><path d="M44.76,18.5l0,0a.13.13,0,0,0,.09,0,.11.11,0,0,0,0-.08.12.12,0,0,0-.08-.11.24.24,0,0,0-.11,0h-.15v.44h.07v-.18h.1a.39.39,0,0,1,.07.11l0,.07h.09l-.05-.09-.07-.09m-.09-.08h-.09v-.13h.15l0,0a0,0,0,0,1,0,0,.07.07,0,0,1,0,0l-.08,0" fill="#fff"/><path d="M35.32,13.49a4.66,4.66,0,0,0-1.63.3L33.49,15A4.22,4.22,0,0,1,35,14.71c.5,0,.87.06.87.46a.85.85,0,0,1,0,.34s-.4,0-.58,0c-1.16,0-2.39.49-2.39,2a1.28,1.28,0,0,0,1.3,1.45,1.76,1.76,0,0,0,1.38-.62l0,.51h1.19l.53-3.71a1.59,1.59,0,0,0-1.85-1.63m-.67,4.31a.49.49,0,0,1-.52-.51c0-.37.2-.81,1.18-.81a.72.72,0,0,1,.29,0c0,.23-.14,1.29-1,1.29" fill="#fff"/><path d="M40.16,13.57a1.4,1.4,0,0,0-.26,0c-.61,0-1.05.82-1.05.82l.12-.75H37.71l-.84,5.22h1.38c.4-2.23.47-4,1.4-3.71a5.12,5.12,0,0,1,.5-1.56" fill="#fff"/></g></g></svg>