<?xml version="1.0" encoding="utf-8"?>
<!-- Generator: Adobe Illustrator 21.0.0, SVG Export Plug-In . SVG Version: 6.00 Build 0)  -->
<svg version="1.1" id="Layer_1" xmlns="http://www.w3.org/2000/svg" xmlns:xlink="http://www.w3.org/1999/xlink" x="0px" y="0px"
	 viewBox="0 0 512 512" style="enable-background:new 0 0 512 512;" xml:space="preserve">
<style type="text/css">
	.st0{fill:#FFFFFF;}
</style>
<rect x="69" y="17" class="st0" width="370" height="473"/>
<g>
	<g>
		<path d="M438.9,0H73.1C58.5,0,47.5,11,47.5,25.6v460.8c0,14.6,11,25.6,25.6,25.6h365.7c14.6,0,25.6-11,25.6-25.6V25.6
			C464.5,11,453.5,0,438.9,0z M427.9,475.4H84.1V36.6h343.8L427.9,475.4L427.9,475.4z"/>
	</g>
</g>
<g>
	<g>
		<path d="M398.6,64H113.4c-11,0-18.3,7.3-18.3,18.3v78.6c0,11,7.3,18.3,18.3,18.3h285.3c11,0,18.3-7.3,18.3-18.3V82.3
			C416.9,71.3,409.6,64,398.6,64z M380.3,142.6H131.7v-42.1h248.7L380.3,142.6L380.3,142.6z"/>
	</g>
</g>
<g>
	<g>
		<path d="M224.9,332.8H113.4c-11,0-18.3,7.3-18.3,18.3v64c0,9.1,7.3,18.3,18.3,18.3h111.5c11,0,18.3-7.3,18.3-18.3v-64
			C243.2,340.1,235.9,332.8,224.9,332.8z M206.6,396.8h-75v-27.4h75L206.6,396.8L206.6,396.8z"/>
	</g>
</g>
<g>
	<g>
		<path d="M398.6,206.6H113.4c-11,0-18.3,7.3-18.3,18.3s7.3,18.3,18.3,18.3h285.3c11,0,18.3-7.3,18.3-18.3S409.6,206.6,398.6,206.6z
			"/>
	</g>
</g>
<g>
	<g>
		<path d="M398.6,268.8H113.4c-11,0-18.3,7.3-18.3,18.3c0,11,7.3,18.3,18.3,18.3h285.3c11,0,18.3-7.3,18.3-18.3
			S409.6,268.8,398.6,268.8z"/>
	</g>
</g>
<g>
	<g>
		<path d="M398.6,332.8H287.1c-11,0-18.3,7.3-18.3,18.3s7.3,18.3,18.3,18.3h111.5c11,0,18.3-7.3,18.3-18.3S409.6,332.8,398.6,332.8z
			"/>
	</g>
</g>
<g>
	<g>
		<path d="M398.6,396.8H287.1c-11,0-18.3,7.3-18.3,18.3s7.3,18.3,18.3,18.3h111.5c11,0,18.3-7.3,18.3-18.3S409.6,396.8,398.6,396.8z
			"/>
	</g>
</g>
</svg>
