<?xml version="1.0" encoding="utf-8"?>
<!-- Generator: Adobe Illustrator 21.0.0, SVG Export Plug-In . SVG Version: 6.00 Build 0)  -->
<svg version="1.1" id="Capa_1" xmlns="http://www.w3.org/2000/svg" xmlns:xlink="http://www.w3.org/1999/xlink" x="0px" y="0px"
	 viewBox="0 0 461.3 461.3" style="enable-background:new 0 0 461.3 461.3;" xml:space="preserve">
<style type="text/css">
	.st0{fill:#FFFFFF;}
</style>
<polygon class="st0" points="317,351 50,340 50,20 239,20 305,108 "/>
<g>
	<path d="M432.4,435.7l-66-66c34.5-45,31.2-109.8-9.9-151c-12-12-26.1-21-41.6-26.6V88.3c0-4-1.6-7.8-4.4-10.6L237.2,4.4
		c-2.8-2.8-6.6-4.4-10.6-4.4H39.5c-8.3,0-15,6.7-15,15v319.2c0,8.3,6.7,15,15,15h132.3c5.5,11.5,12.9,22.2,22.4,31.7
		c21.7,21.7,50.5,33.6,81.1,33.6c25.6,0,49.9-8.3,69.8-23.7l66,66c2.9,2.9,6.8,4.4,10.6,4.4c3.8,0,7.7-1.5,10.6-4.4
		C438.3,451,438.3,441.5,432.4,435.7z M241.6,51.2l22.1,22.1h-22.1L241.6,51.2L241.6,51.2z M54.5,319.2V30h157.1v58.3
		c0,8.3,6.7,15,15,15h58.3v82.1c-3.2-0.3-6.3-0.4-9.6-0.4c-8.1,0-16.1,0.8-23.8,2.5H80.4c-5.5,0-10,4.5-10,10s4.5,10,10,10h126.7
		c-4.5,3.4-8.8,7.1-12.9,11.1c-5.3,5.3-9.9,10.9-13.9,16.9H80.4c-5.5,0-10,4.5-10,10s4.5,10,10,10h89.1
		c-8.4,20.2-10.8,42.4-7.2,63.7L54.5,319.2L54.5,319.2z M193.5,278h64.2c5.5,0,10-4.5,10-10s-4.5-10-10-10h-56
		c3.7-6.5,8.3-12.6,13.8-18.1c16-16,37.3-24.8,59.9-24.8c11.9,0,23.5,2.5,34.1,7.1V345H203.7C191,324.9,187.6,300.5,193.5,278z
		 M221.2,365h98.2c5.5,0,10-4.5,10-10V234.5c2,1.7,4,3.5,5.9,5.3c33,33,33,86.8,0,119.8c-16,16-37.3,24.8-59.9,24.8
		C255.3,384.5,236.4,377.7,221.2,365z"/>
	<path d="M80.4,159.5h178.5c5.5,0,10-4.5,10-10s-4.5-10-10-10H80.4c-5.5,0-10,4.5-10,10S74.9,159.5,80.4,159.5z"/>
</g>
</svg>
