<svg xmlns="http://www.w3.org/2000/svg" viewBox="0 0 120.52 79.24"><title>push-vault-light</title><g id="Layer_2" data-name="Layer 2"><g id="Layer_1-2" data-name="Layer 1"><g id="_Group_" data-name="&lt;Group&gt;"><g id="_Group_2" data-name="&lt;Group&gt;"><path id="_Path_" data-name="&lt;Path&gt;" d="M90.89,16.76a27.78,27.78,0,0,0-4.5.37.08.08,0,0,1-.08,0A35,35,0,0,0,23,31h-.53A20.52,20.52,0,0,0,2.06,50c-.89,12.1,8.9,22,21,22H90.23c16.22,0,29.29-13.28,28.23-29.47A27.63,27.63,0,0,0,90.89,16.76Z" fill="#fff" stroke="#00aeef" stroke-linecap="round" stroke-linejoin="round" stroke-width="4"/></g></g><g id="_Group_3" data-name="&lt;Group&gt;"><path id="_Path_2" data-name="&lt;Path&gt;" d="M59.55,18,37.93,39.59a1,1,0,0,0,.71,1.71H50.06a1,1,0,0,1,1,1V77.24a1,1,0,0,0,1,1h16.4a1,1,0,0,0,1-1V42.3a1,1,0,0,1,1-1H81.89a1,1,0,0,0,.71-1.71L61,18A1,1,0,0,0,59.55,18Z" fill="#00aeef"/><path id="_Compound_Path_" data-name="&lt;Compound Path&gt;" d="M68.46,79.24H52.06a2,2,0,0,1-2-2V42.3H38.64a2,2,0,0,1-1.41-3.41L58.85,17.26a2,2,0,0,1,2.83,0L83.3,38.88a2,2,0,0,1-1.41,3.41H70.46V77.24A2,2,0,0,1,68.46,79.24ZM50.06,40.3a2,2,0,0,1,2,2V77.24h16.4V42.3a2,2,0,0,1,2-2H81.89L60.26,18.67,38.64,40.3Z" fill="#00aeef"/></g></g></g></svg>