<svg xmlns="http://www.w3.org/2000/svg" viewBox="0 0 116.52 77.24"><title>push-vault</title><g id="Layer_2" data-name="Layer 2"><g id="Layer_1-2" data-name="Layer 1"><g id="_Group_" data-name="&lt;Group&gt;"><g id="_Group_2" data-name="&lt;Group&gt;"><path id="_Path_" data-name="&lt;Path&gt;" d="M88.89,14.76a27.78,27.78,0,0,0-4.5.37.08.08,0,0,1-.08,0A35,35,0,0,0,21,29h-.53A20.52,20.52,0,0,0,.06,48c-.89,12.1,8.9,22,21,22H88.23c16.22,0,29.29-13.28,28.23-29.47A27.63,27.63,0,0,0,88.89,14.76Z" fill="#00aeef"/></g></g><g id="_Group_3" data-name="&lt;Group&gt;"><path id="_Path_2" data-name="&lt;Path&gt;" d="M57.55,16,35.93,37.59a1,1,0,0,0,.71,1.71H48.06a1,1,0,0,1,1,1V75.24a1,1,0,0,0,1,1h16.4a1,1,0,0,0,1-1V40.3a1,1,0,0,1,1-1H79.89a1,1,0,0,0,.71-1.71L59,16A1,1,0,0,0,57.55,16Z" fill="#fff"/><path id="_Compound_Path_" data-name="&lt;Compound Path&gt;" d="M66.46,77.24H50.06a2,2,0,0,1-2-2V40.3H36.64a2,2,0,0,1-1.41-3.41L56.85,15.26a2,2,0,0,1,2.83,0L81.3,36.88a2,2,0,0,1-1.41,3.41H68.46V75.24A2,2,0,0,1,66.46,77.24ZM48.06,38.3a2,2,0,0,1,2,2V75.24h16.4V40.3a2,2,0,0,1,2-2H79.89L58.26,16.67,36.64,38.3Z" fill="#00aeef"/></g></g></g></svg>