<svg xmlns="http://www.w3.org/2000/svg" xmlns:xlink="http://www.w3.org/1999/xlink" viewBox="0 0 244.33 136.5"><defs><clipPath id="a" transform="translate(-59.66 -133.09)"><rect x="59.66" y="133.09" width="244.33" height="136.49" fill="none"/></clipPath></defs><title>regit-business-light</title><g clip-path="url(#a)"><path d="M250.34,170.16a8.14,8.14,0,0,0,6.08-2.79,9.49,9.49,0,0,0,2.64-6.76,6,6,0,0,0-1.68-4.47,6.29,6.29,0,0,0-4.59-1.64,7.86,7.86,0,0,0-5.77,2.94,9.87,9.87,0,0,0-2.71,6.92,5.57,5.57,0,0,0,1.68,4.17,6,6,0,0,0,4.35,1.64" transform="translate(-59.66 -133.09)" fill="#fff"/><path d="M303.76,161.56a1.54,1.54,0,0,0-.92-0.19H295l2.6-6q5.5-12.84,5.5-18.49a4,4,0,0,0-.88-2.83,3.27,3.27,0,0,0-2.48-.92q-3.13,0-6,3.36-4.51,5.43-10,25.14H273.73A5.52,5.52,0,0,0,269.6,163q-1.37,1.42-1.37,4.62a2.2,2.2,0,0,0,2.67,2.68h9.4c-1.5,3.16-3.2,7.27-5.08,12.3h0s-1.39,4-3.24,5.78q-6.1,6-9.22,8.68c-2.37,2-9.51,7.79-9.51,7.79q-13.1,11.08-15.74,11.08a1.44,1.44,0,0,1-.92-0.31,1,1,0,0,1-.38-0.84,8.12,8.12,0,0,1,1-3.13l14.51-32.86H240.4q-1.91,4.05-3.52,7.87a188.71,188.71,0,0,1-19.18,17.81v0a201.45,201.45,0,0,0-22.47,20.77,289.84,289.84,0,0,1,14.29-30.49H197.68q-6.11,12.23-13.45,18.72-5.12,4.43-8.94,4.43a3.71,3.71,0,0,1-3.06-1.61q-1.22-1.61-1.22-5.67a22,22,0,0,1,7.38-16.89Q185.76,187,198.9,187a43.19,43.19,0,0,1,6.73.61,20.71,20.71,0,0,0,3.21.46,1,1,0,0,0,1.22-1.15,27.46,27.46,0,0,0-.53-3.71,36.43,36.43,0,0,1-.61-4.32,37.85,37.85,0,0,0-8.33-.83q-20.25,0-31.07,9.44a30.74,30.74,0,0,0-9.22,13.4,0.52,0.52,0,0,0-.05.16c-0.1.29-.2,0.58-0.28,0.88a5,5,0,0,1-1.22,1.66l-0.67.61q-10.35,9.37-15.45,12A22.94,22.94,0,0,1,132,219q-4.28,0-6.15-1.57a7.37,7.37,0,0,1-2.26-5.08q10.85-1.76,16.43-4.12,9.1-3.82,13.38-9.14t4.28-10.81a9.74,9.74,0,0,0-3.25-7.49q-3.25-3-9.06-3-10.47,0-20.86,7.64c-5.87,4.38-9.73,9.58-11.68,15.57,0,0-.33,1.48-2.59,3.46l-0.48.39q-12.46,11.23-15.36,11.23a0.83,0.83,0,0,1-.61-0.23,0.93,0.93,0,0,1-.23-0.69,5.78,5.78,0,0,1,.54-2l1.15-2.6q1.53-3.59,3.36-7.41,7-15.06,7-18a5,5,0,0,0-2.06-4.28q-2.68-2.06-9-2.06l-2.52.08H89l0.08-.61q0.15-1.53.16-2.14a6.84,6.84,0,0,0-1.72-4.93,6.19,6.19,0,0,0-4.69-1.79,7.14,7.14,0,0,0-5.46,2.25A8.88,8.88,0,0,0,75.25,178a13.12,13.12,0,0,0,2,6.34,81.56,81.56,0,0,1-8.37,11.85,57.32,57.32,0,0,1-9.21,8.25v11.08A110,110,0,0,0,74.33,202,72.49,72.49,0,0,0,84.73,188a28.5,28.5,0,0,1,3.71-.3,4.93,4.93,0,0,1,3,.72,2.21,2.21,0,0,1,.93,1.8q0,2.37-5.61,13.83-7.69,15.59-7.69,19.41A4.74,4.74,0,0,0,81,226.94a6.69,6.69,0,0,0,4.59,1.68q3.9,0,11.2-3.53a61.52,61.52,0,0,0,14.75-10.6,15.8,15.8,0,0,0,4.4,9.44q4.66,4.55,14.37,4.55a29.67,29.67,0,0,0,12.8-2.68q5.6-2.64,15.82-11.47a18.53,18.53,0,0,0,3.55,9.83q3.74,4.7,8.48,4.7a14.18,14.18,0,0,0,7.53-2.29q3.71-2.3,9.13-8.94a46,46,0,0,1-3.32,9.13A124.4,124.4,0,0,1,176,239.63q-12,17-12,24.92a5.12,5.12,0,0,0,1.3,3.67,4.61,4.61,0,0,0,3.51,1.38,8.73,8.73,0,0,0,6.34-3.13q4-4.2,10.16-19l3.29-7.8q5.43-5.24,9.29-8.52t14.71-11.76l5.12-4,1.23-.95,0.61-.47V214l8.63-7.44q-7,14-7,17.5a3.92,3.92,0,0,0,1.64,3.1,7.28,7.28,0,0,0,4.7,1.34,25.75,25.75,0,0,0,10.89-2.7q5.77-2.7,16.93-11.74V214a84.31,84.31,0,0,0,8.64-8.12q1.68-1.83,3.36-3.36-1.76,4.43-3.06,7.57l-1.53,3.52q-3.37,8.18-3.36,10.32a4.13,4.13,0,0,0,1.64,3.17,6.62,6.62,0,0,0,4.47,1.42q13.37,0,32.17-14.45V203.1a92.11,92.11,0,0,1-9,6.77,102.38,102.38,0,0,1-11.46,6.62,7.08,7.08,0,0,1-2.75.83,1,1,0,0,1-.76-0.34,1.27,1.27,0,0,1-.3-0.88,9.25,9.25,0,0,1,.84-3.13l17.35-42.8h7.87a4.67,4.67,0,0,0,2.07-.38,1.76,1.76,0,0,0,.76-0.84l1-3.21a13.74,13.74,0,0,0,.76-3.59,0.71,0.71,0,0,0-.23-0.57M133.18,191.4q5.12-4,8.94-4.05a3.45,3.45,0,0,1,2.64,1.11,4.16,4.16,0,0,1,1,2.94q0,3.14-3.51,6-5,4.13-18,6.57,3.82-8.48,8.94-12.54" transform="translate(-59.66 -133.09)" fill="#fff"/></g><path d="M198.28,253.12V238.79h5a9.59,9.59,0,0,1,2.23.24,4.76,4.76,0,0,1,1.67.72,3.21,3.21,0,0,1,1,1.22,3.94,3.94,0,0,1,.36,1.74,3.6,3.6,0,0,1-.12.94,3.06,3.06,0,0,1-.37.85,3.1,3.1,0,0,1-.63.71,3.25,3.25,0,0,1-.92.53,3.16,3.16,0,0,1,1.08.48,2.95,2.95,0,0,1,1.16,1.66,3.92,3.92,0,0,1,.13,1,3.77,3.77,0,0,1-1.34,3.15,6,6,0,0,1-3.82,1.06h-5.48Zm3-8.32h2.18a2.67,2.67,0,0,0,1.68-.48,1.6,1.6,0,0,0,.55-1.3,1.65,1.65,0,0,0-.57-1.4,3,3,0,0,0-1.79-.43h-2.07v3.61Zm0,2.09v3.87h2.53a3,3,0,0,0,1-.14,2,2,0,0,0,.69-0.39,1.57,1.57,0,0,0,.41-0.59,2,2,0,0,0,.13-0.74,2.72,2.72,0,0,0-.12-0.83,1.59,1.59,0,0,0-.37-0.63,1.61,1.61,0,0,0-.65-0.4,3,3,0,0,0-1-.14h-2.64Z" transform="translate(-59.66 -133.09)" fill="#fff"/><path d="M223,238.79v9.46a5.44,5.44,0,0,1-.41,2.19,4.43,4.43,0,0,1-1.14,1.59,4.84,4.84,0,0,1-1.74,1,7.64,7.64,0,0,1-4.41,0,4.83,4.83,0,0,1-1.74-1,4.38,4.38,0,0,1-1.14-1.59,5.49,5.49,0,0,1-.41-2.19v-9.46h3v9.46a2.73,2.73,0,0,0,.67,2.05,3,3,0,0,0,3.73,0,2.75,2.75,0,0,0,.66-2.05v-9.46h3Z" transform="translate(-59.66 -133.09)" fill="#fff"/><path d="M233.81,249.36a2,2,0,0,0-.11-0.67,1.31,1.31,0,0,0-.42-0.56,3.83,3.83,0,0,0-.86-0.5,13.56,13.56,0,0,0-1.41-.52,17.38,17.38,0,0,1-1.85-.71,6.82,6.82,0,0,1-1.52-.93,4.14,4.14,0,0,1-1-1.23,3.38,3.38,0,0,1-.38-1.63,3.48,3.48,0,0,1,.39-1.64,3.69,3.69,0,0,1,1.09-1.26,5.37,5.37,0,0,1,1.67-.81,7.4,7.4,0,0,1,2.13-.29,6.72,6.72,0,0,1,2.16.33,5,5,0,0,1,1.66.92,4.08,4.08,0,0,1,1.06,1.4,4.2,4.2,0,0,1,.37,1.78h-3a2.38,2.38,0,0,0-.14-0.84,1.69,1.69,0,0,0-.44-0.66,2,2,0,0,0-.74-0.43,3.21,3.21,0,0,0-1-.15,3.54,3.54,0,0,0-1,.13,2,2,0,0,0-.71.35,1.49,1.49,0,0,0-.42.53,1.51,1.51,0,0,0-.14.65,1.39,1.39,0,0,0,.72,1.19,8.16,8.16,0,0,0,2.12.89,13.92,13.92,0,0,1,2.06.81,6.14,6.14,0,0,1,1.49,1,3.83,3.83,0,0,1,.9,1.26,3.93,3.93,0,0,1,.31,1.58,3.71,3.71,0,0,1-.37,1.68,3.48,3.48,0,0,1-1,1.24,5,5,0,0,1-1.64.78,7.89,7.89,0,0,1-2.14.27,8.26,8.26,0,0,1-1.42-.12,6.8,6.8,0,0,1-1.35-.38,5.86,5.86,0,0,1-1.2-.64,4.41,4.41,0,0,1-1-.91,4.07,4.07,0,0,1-.64-1.19,4.45,4.45,0,0,1-.23-1.47h3a2.64,2.64,0,0,0,.21,1.1,1.88,1.88,0,0,0,.58.73,2.4,2.4,0,0,0,.89.41,4.89,4.89,0,0,0,1.16.13,3.58,3.58,0,0,0,1-.12,2,2,0,0,0,.7-0.34,1.34,1.34,0,0,0,.41-0.52A1.57,1.57,0,0,0,233.81,249.36Z" transform="translate(-59.66 -133.09)" fill="#fff"/><path d="M242.91,253.12h-3V238.79h3v14.33Z" transform="translate(-59.66 -133.09)" fill="#fff"/><path d="M258.28,253.12h-3l-5.75-9.43v9.43h-3V238.79h3l5.76,9.45v-9.45h2.94v14.33Z" transform="translate(-59.66 -133.09)" fill="#fff"/><path d="M270.47,246.91H264.8v3.84h6.65v2.37h-9.6V238.79h9.58v2.39H264.8v3.41h5.67v2.31Z" transform="translate(-59.66 -133.09)" fill="#fff"/><path d="M281.6,249.36a2,2,0,0,0-.11-0.67,1.31,1.31,0,0,0-.42-0.56,3.83,3.83,0,0,0-.86-0.5,13.56,13.56,0,0,0-1.41-.52,17.38,17.38,0,0,1-1.85-.71,6.82,6.82,0,0,1-1.52-.93,4.14,4.14,0,0,1-1-1.23,3.38,3.38,0,0,1-.38-1.63,3.48,3.48,0,0,1,.39-1.64,3.69,3.69,0,0,1,1.09-1.26,5.37,5.37,0,0,1,1.67-.81,7.4,7.4,0,0,1,2.13-.29,6.72,6.72,0,0,1,2.16.33,5,5,0,0,1,1.66.92,4.08,4.08,0,0,1,1.06,1.4,4.2,4.2,0,0,1,.37,1.78h-3a2.38,2.38,0,0,0-.14-0.84,1.69,1.69,0,0,0-.44-0.66,2,2,0,0,0-.74-0.43,3.21,3.21,0,0,0-1-.15,3.54,3.54,0,0,0-1,.13,2,2,0,0,0-.71.35,1.49,1.49,0,0,0-.42.53,1.51,1.51,0,0,0-.14.65,1.39,1.39,0,0,0,.72,1.19,8.16,8.16,0,0,0,2.12.89,13.92,13.92,0,0,1,2.06.81,6.14,6.14,0,0,1,1.49,1,3.83,3.83,0,0,1,.9,1.26,3.93,3.93,0,0,1,.31,1.58,3.71,3.71,0,0,1-.37,1.68,3.48,3.48,0,0,1-1,1.24,5,5,0,0,1-1.64.78,7.89,7.89,0,0,1-2.14.27,8.26,8.26,0,0,1-1.42-.12,6.8,6.8,0,0,1-1.35-.38,5.86,5.86,0,0,1-1.2-.64,4.41,4.41,0,0,1-1-.91,4.07,4.07,0,0,1-.64-1.19,4.45,4.45,0,0,1-.23-1.47h3a2.64,2.64,0,0,0,.21,1.1,1.88,1.88,0,0,0,.58.73,2.4,2.4,0,0,0,.89.41,4.89,4.89,0,0,0,1.16.13,3.58,3.58,0,0,0,1-.12,2,2,0,0,0,.7-0.34,1.34,1.34,0,0,0,.41-0.52A1.57,1.57,0,0,0,281.6,249.36Z" transform="translate(-59.66 -133.09)" fill="#fff"/><path d="M295,249.36a2,2,0,0,0-.11-0.67,1.31,1.31,0,0,0-.42-0.56,3.83,3.83,0,0,0-.86-0.5,13.56,13.56,0,0,0-1.41-.52,17.38,17.38,0,0,1-1.85-.71,6.82,6.82,0,0,1-1.52-.93,4.14,4.14,0,0,1-1-1.23,3.38,3.38,0,0,1-.38-1.63,3.48,3.48,0,0,1,.39-1.64,3.69,3.69,0,0,1,1.09-1.26,5.37,5.37,0,0,1,1.67-.81,7.4,7.4,0,0,1,2.13-.29,6.72,6.72,0,0,1,2.16.33,5,5,0,0,1,1.66.92,4.08,4.08,0,0,1,1.06,1.4A4.2,4.2,0,0,1,298,243h-3a2.38,2.38,0,0,0-.14-0.84,1.69,1.69,0,0,0-.44-0.66,2,2,0,0,0-.74-0.43,3.21,3.21,0,0,0-1-.15,3.54,3.54,0,0,0-1,.13,2,2,0,0,0-.71.35,1.49,1.49,0,0,0-.42.53,1.51,1.51,0,0,0-.14.65,1.39,1.39,0,0,0,.72,1.19,8.16,8.16,0,0,0,2.12.89,13.92,13.92,0,0,1,2.06.81,6.14,6.14,0,0,1,1.49,1,3.83,3.83,0,0,1,.9,1.26,3.93,3.93,0,0,1,.31,1.58,3.71,3.71,0,0,1-.37,1.68,3.48,3.48,0,0,1-1,1.24,5,5,0,0,1-1.64.78,7.89,7.89,0,0,1-2.14.27,8.26,8.26,0,0,1-1.42-.12,6.8,6.8,0,0,1-1.35-.38,5.86,5.86,0,0,1-1.2-.64,4.41,4.41,0,0,1-1-.91,4.07,4.07,0,0,1-.64-1.19,4.45,4.45,0,0,1-.23-1.47h3a2.64,2.64,0,0,0,.21,1.1,1.88,1.88,0,0,0,.58.73,2.4,2.4,0,0,0,.89.41,4.89,4.89,0,0,0,1.16.13,3.58,3.58,0,0,0,1-.12,2,2,0,0,0,.7-0.34,1.34,1.34,0,0,0,.41-0.52A1.57,1.57,0,0,0,295,249.36Z" transform="translate(-59.66 -133.09)" fill="#fff"/></svg>