<svg xmlns="http://www.w3.org/2000/svg" viewBox="0 0 343.25 191.76"><title>regit-support-logo</title><g id="Layer_2" data-name="Layer 2"><g id="Layer_1-2" data-name="Layer 1"><path d="M267.88,52.07a11.44,11.44,0,0,0,8.54-3.92,13.34,13.34,0,0,0,3.7-9.5,8.39,8.39,0,0,0-2.36-6.28,8.82,8.82,0,0,0-6.44-2.31q-4.3,0-8.11,4.13a13.87,13.87,0,0,0-3.81,9.72,7.83,7.83,0,0,0,2.36,5.85A8.38,8.38,0,0,0,267.88,52.07Z" fill="#00aeef"/><path d="M342.93,40a2.15,2.15,0,0,0-1.29-.27h-11l3.65-8.48q7.73-18,7.73-26a5.56,5.56,0,0,0-1.24-4A4.6,4.6,0,0,0,337.35,0q-4.4,0-8.38,4.72Q322.64,12.35,314.91,40H300.74q-3.87,0-5.8,2T293,48.53a4.16,4.16,0,0,0,.8,3,4.17,4.17,0,0,0,3,.81H310c-2.11,4.44-4.49,10.21-7.14,17.28h0s-2,5.59-4.54,8.12q-8.57,8.42-13,12.19C282,92.73,272,100.82,272,100.82q-18.4,15.56-22.11,15.57a2,2,0,0,1-1.29-.43,1.43,1.43,0,0,1-.54-1.18,11.38,11.38,0,0,1,1.4-4.4l20.39-46.17H253.92Q251.24,69.9,249,75.27a266,266,0,0,1-26.95,25v0q-13.9,10.66-31.57,29.18a407.28,407.28,0,0,1,20.08-42.84H193.91Q185.32,103.83,175,113q-7.19,6.23-12.56,6.23a5.2,5.2,0,0,1-4.29-2.26q-1.72-2.26-1.72-8A30.91,30.91,0,0,1,166.8,85.22q10.36-9.53,28.83-9.53a60.75,60.75,0,0,1,9.45.86,29.28,29.28,0,0,0,4.51.64,1.44,1.44,0,0,0,1.72-1.61,38.5,38.5,0,0,0-.75-5.22,51.41,51.41,0,0,1-.86-6.07A53.15,53.15,0,0,0,198,63.13q-28.45,0-43.65,13.26a43.16,43.16,0,0,0-13,18.82.79.79,0,0,0-.07.22c-.14.41-.28.82-.4,1.23A7,7,0,0,1,139.2,99l-.95.86q-14.53,13.16-21.7,16.89a32.22,32.22,0,0,1-15,3.94q-6,0-8.64-2.2t-3.17-7.14q15.24-2.47,23.09-5.8,12.77-5.37,18.79-12.83t6-15.19A13.68,13.68,0,0,0,133.08,67q-4.57-4.19-12.72-4.19-14.71,0-29.31,10.74C82.8,79.7,77.38,87,74.63,95.42c0,0-.47,2.07-3.64,4.85l-.67.54Q52.83,116.6,48.75,116.6a1.16,1.16,0,0,1-.86-.32,1.31,1.31,0,0,1-.32-1,8.11,8.11,0,0,1,.75-2.79l1.61-3.65q2.15-5,4.72-10.41,9.77-21.15,9.77-25.23a7.05,7.05,0,0,0-2.9-6q-3.76-2.9-12.67-2.9l-3.54.11H41.23l.11-.86q.22-2.14.22-3a9.61,9.61,0,0,0-2.42-6.93,8.7,8.7,0,0,0-6.59-2.52,10,10,0,0,0-7.68,3.17q-3,3.17-3,8.86A18.44,18.44,0,0,0,24.71,72,114.63,114.63,0,0,1,12.94,88.69,80.5,80.5,0,0,1,0,100.28v15.57a154.67,154.67,0,0,0,20.61-19q9.77-10.73,14.6-19.75a39.73,39.73,0,0,1,5.21-.43,6.92,6.92,0,0,1,4.23,1A3.1,3.1,0,0,1,46,80.2q0,3.33-7.88,19.43-10.8,21.9-10.8,27.27,0,2.58,2.68,4.94a9.41,9.41,0,0,0,6.44,2.36q5.48,0,15.73-5,9.93-4.81,20.72-14.9Q74,122.71,79,127.61,85.57,134,99.21,134a41.69,41.69,0,0,0,18-3.77q7.86-3.71,22.23-16.11c.6,5.76,2.26,10.38,5,13.82q5.26,6.6,11.92,6.6a19.91,19.91,0,0,0,10.58-3.22q5.21-3.22,12.83-12.56a64.82,64.82,0,0,1-4.67,12.83q-2.74,5.42-11.65,18.09-16.86,23.94-16.86,35a7.19,7.19,0,0,0,1.83,5.15,6.47,6.47,0,0,0,4.94,1.93q4.72,0,8.91-4.4,5.58-5.91,14.28-26.63l4.62-11q7.62-7.37,13-12t20.67-16.52L222,115.7l1.72-1.33.86-.67v-.07l12.13-10.45q-9.88,19.65-9.88,24.59a5.5,5.5,0,0,0,2.31,4.35q2.31,1.88,6.6,1.88a36.18,36.18,0,0,0,15.3-3.8q8.1-3.8,23.78-16.5v-.07A118.28,118.28,0,0,0,287,102.21q2.36-2.58,4.72-4.72-2.47,6.23-4.29,10.63l-2.15,4.94q-4.73,11.49-4.72,14.49a5.79,5.79,0,0,0,2.31,4.46,9.3,9.3,0,0,0,6.28,2q18.79,0,45.2-20.29V98.35a129.71,129.71,0,0,1-12.67,9.51,144.36,144.36,0,0,1-16.1,9.3,10,10,0,0,1-3.87,1.16,1.37,1.37,0,0,1-1.07-.48,1.78,1.78,0,0,1-.43-1.23,12.94,12.94,0,0,1,1.18-4.4l24.37-60.13h11.06a6.53,6.53,0,0,0,2.9-.54,2.46,2.46,0,0,0,1.07-1.18l1.4-4.51a19.23,19.23,0,0,0,1.07-5A1,1,0,0,0,342.93,40ZM103.29,81.92q7.19-5.69,12.56-5.69a4.84,4.84,0,0,1,3.7,1.56A5.83,5.83,0,0,1,121,81.92q0,4.4-4.94,8.37-7,5.8-25.34,9.23Q96.09,87.61,103.29,81.92Z" fill="#00aeef"/><path d="M203.58,166.28a4.78,4.78,0,0,0-.34-1.86,3.92,3.92,0,0,0-1.16-1.49,8.62,8.62,0,0,0-2.14-1.23,28.9,28.9,0,0,0-3.33-1.12,31,31,0,0,1-3.47-1.18,10.82,10.82,0,0,1-2.62-1.5,6.2,6.2,0,0,1-1.66-2,5.58,5.58,0,0,1-.59-2.63,5.71,5.71,0,0,1,.63-2.68,6.19,6.19,0,0,1,1.77-2.08,8.58,8.58,0,0,1,2.71-1.35,11.79,11.79,0,0,1,3.45-.48,10.49,10.49,0,0,1,3.63.6,8.32,8.32,0,0,1,2.76,1.63,7.14,7.14,0,0,1,1.75,2.42,7.28,7.28,0,0,1,.61,3h-2.17A6,6,0,0,0,203,152a5.09,5.09,0,0,0-1.28-1.83,6,6,0,0,0-2.07-1.21,8.3,8.3,0,0,0-2.8-.44,9.29,9.29,0,0,0-2.78.38,6.06,6.06,0,0,0-2,1,4.28,4.28,0,0,0-1.21,1.5,4.16,4.16,0,0,0-.41,1.82,4.1,4.1,0,0,0,.34,1.68,3.9,3.9,0,0,0,1.15,1.43,9,9,0,0,0,2.12,1.23,23.05,23.05,0,0,0,3.24,1.08,30,30,0,0,1,3.59,1.23,10.63,10.63,0,0,1,2.66,1.57,6.12,6.12,0,0,1,1.65,2.08,6.22,6.22,0,0,1,.56,2.71,5.86,5.86,0,0,1-.66,2.79,6.2,6.2,0,0,1-1.82,2.09,8.56,8.56,0,0,1-2.78,1.31,12.83,12.83,0,0,1-3.5.46,13.72,13.72,0,0,1-2.29-.19,12,12,0,0,1-2.21-.59,9.6,9.6,0,0,1-2-1,6.94,6.94,0,0,1-1.59-1.46,6.8,6.8,0,0,1-1.07-1.94,7.2,7.2,0,0,1-.39-2.44h2.15a5.22,5.22,0,0,0,.67,2.72,5.43,5.43,0,0,0,1.72,1.79,7.39,7.39,0,0,0,2.36,1,11.54,11.54,0,0,0,2.63.31,10,10,0,0,0,2.71-.34,6.49,6.49,0,0,0,2.08-1,4.39,4.39,0,0,0,1.33-1.51A4.17,4.17,0,0,0,203.58,166.28Z" fill="#8e8e8e"/><path d="M228,147.06v17.28a9.22,9.22,0,0,1-.71,3.76,7.58,7.58,0,0,1-1.93,2.67,8.09,8.09,0,0,1-2.85,1.6,11.22,11.22,0,0,1-3.49.53,11.39,11.39,0,0,1-3.55-.53,8,8,0,0,1-2.85-1.6,7.36,7.36,0,0,1-1.89-2.67,9.53,9.53,0,0,1-.68-3.76V147.06h2.14v17.28a7.83,7.83,0,0,0,.51,2.94,5.7,5.7,0,0,0,1.42,2.1,6,6,0,0,0,2.16,1.27,9,9,0,0,0,5.48,0,5.93,5.93,0,0,0,2.15-1.27,5.77,5.77,0,0,0,1.41-2.1,7.85,7.85,0,0,0,.51-2.94V147.06Z" fill="#8e8e8e"/><path d="M236.11,162.17v10.38H234v-25.5h8.69a11.19,11.19,0,0,1,3.7.56,7.56,7.56,0,0,1,2.69,1.57,6.48,6.48,0,0,1,1.64,2.41,8.36,8.36,0,0,1,.55,3.08,8.53,8.53,0,0,1-.55,3.16,6.15,6.15,0,0,1-1.63,2.36,7.21,7.21,0,0,1-2.69,1.47,12.35,12.35,0,0,1-3.71.51Zm0-1.82h6.53a8.88,8.88,0,0,0,2.92-.43,5.27,5.27,0,0,0,2-1.19,4.71,4.71,0,0,0,1.14-1.79,6.59,6.59,0,0,0,.37-2.22,6.76,6.76,0,0,0-.37-2.23,5,5,0,0,0-1.14-1.86,5.38,5.38,0,0,0-2-1.26,8.26,8.26,0,0,0-2.92-.46h-6.53Z" fill="#8e8e8e"/><path d="M258.2,162.17v10.38H256v-25.5h8.69a11.19,11.19,0,0,1,3.7.56,7.56,7.56,0,0,1,2.69,1.57,6.48,6.48,0,0,1,1.64,2.41,8.36,8.36,0,0,1,.55,3.08,8.53,8.53,0,0,1-.55,3.16,6.15,6.15,0,0,1-1.63,2.36,7.21,7.21,0,0,1-2.69,1.47,12.35,12.35,0,0,1-3.71.51Zm0-1.82h6.53a8.88,8.88,0,0,0,2.92-.43,5.27,5.27,0,0,0,2-1.19,4.71,4.71,0,0,0,1.14-1.79,6.59,6.59,0,0,0,.37-2.22,6.76,6.76,0,0,0-.37-2.23,5,5,0,0,0-1.14-1.86,5.38,5.38,0,0,0-2-1.26,8.26,8.26,0,0,0-2.92-.46H258.2Z" fill="#8e8e8e"/><path d="M297,161.19a15.67,15.67,0,0,1-.7,4.84,10.79,10.79,0,0,1-2,3.69,8.78,8.78,0,0,1-3.13,2.36,9.83,9.83,0,0,1-4.1.83,9.72,9.72,0,0,1-4.07-.83,9,9,0,0,1-3.14-2.36,10.75,10.75,0,0,1-2-3.69,15.29,15.29,0,0,1-.72-4.84v-2.73a15.37,15.37,0,0,1,.72-4.85,11,11,0,0,1,2-3.7,8.82,8.82,0,0,1,3.13-2.36,9.72,9.72,0,0,1,4.07-.83,9.83,9.83,0,0,1,4.1.83,8.9,8.9,0,0,1,3.14,2.36,10.71,10.71,0,0,1,2,3.7,15.75,15.75,0,0,1,.7,4.85Zm-2.15-2.77a14.73,14.73,0,0,0-.53-4.08,9,9,0,0,0-1.52-3.09,6.81,6.81,0,0,0-2.45-2,7.57,7.57,0,0,0-3.29-.69,7.43,7.43,0,0,0-3.25.69,6.89,6.89,0,0,0-2.45,2,9,9,0,0,0-1.54,3.09,14.47,14.47,0,0,0-.53,4.08v2.77a14.32,14.32,0,0,0,.54,4.1,9.09,9.09,0,0,0,1.56,3.1,6.85,6.85,0,0,0,2.46,2,7.51,7.51,0,0,0,3.25.68,7.64,7.64,0,0,0,3.3-.68,6.63,6.63,0,0,0,2.43-2,9,9,0,0,0,1.51-3.1,15,15,0,0,0,.52-4.1Z" fill="#8e8e8e"/><path d="M311.92,161.94h-7.41v10.61h-2.17v-25.5h8.28a12.31,12.31,0,0,1,3.6.49A7.65,7.65,0,0,1,317,149a6.31,6.31,0,0,1,1.73,2.36,8.07,8.07,0,0,1,.6,3.22,7.2,7.2,0,0,1-.39,2.37,6.87,6.87,0,0,1-1.08,2,7.14,7.14,0,0,1-1.67,1.54,7.93,7.93,0,0,1-2.15,1l6.38,10.84v.23h-2.29Zm-7.41-1.84h6.6a7,7,0,0,0,2.62-.46,5.49,5.49,0,0,0,1.88-1.22,5,5,0,0,0,1.13-1.77,5.93,5.93,0,0,0,.38-2.09,6.32,6.32,0,0,0-.42-2.36,4.67,4.67,0,0,0-1.25-1.79,5.71,5.71,0,0,0-2-1.13,9,9,0,0,0-2.78-.39h-6.11Z" fill="#8e8e8e"/><path d="M341.06,148.89h-8.74v23.66h-2.15V148.89h-8.72v-1.84h19.61Z" fill="#8e8e8e"/></g></g></svg>