<?xml version="1.0" encoding="utf-8"?>
<!-- Generator: Adobe Illustrator 21.0.0, SVG Export Plug-In . SVG Version: 6.00 Build 0)  -->
<svg version="1.1" id="Layer_1" xmlns="http://www.w3.org/2000/svg" xmlns:xlink="http://www.w3.org/1999/xlink" x="0px" y="0px"
	 viewBox="0 0 221.6 332.2" style="enable-background:new 0 0 221.6 332.2;" xml:space="preserve">
<style type="text/css">
	.st0{fill:#FFFFFF;}
	.st1{fill:none;}
</style>
<title>regit-logo</title>
<path class="st0" d="M162.5,257.2c1.8,0,3.4-0.8,4.6-2.1c1.3-1.4,2-3.2,2-5.1c0.1-1.3-0.4-2.5-1.3-3.4c-0.9-0.9-2.2-1.3-3.5-1.2
	c-1.7,0.1-3.3,0.9-4.4,2.2c-1.3,1.4-2,3.3-2,5.2c0,1.2,0.4,2.3,1.3,3.1C160.2,256.8,161.4,257.2,162.5,257.2"/>
<path class="st0" d="M202.9,250.7c-0.2-0.1-0.5-0.2-0.7-0.1h-5.9l2-4.6c2.8-6.5,4.2-11.1,4.2-14c0.1-0.8-0.2-1.5-0.7-2.1
	c-0.5-0.5-1.2-0.7-1.9-0.7c-1.6,0-3.1,0.8-4.5,2.5c-2.3,2.7-4.8,9.1-7.6,19h-7.6c-1.1-0.1-2.3,0.3-3.1,1.1c-0.8,1-1.1,2.2-1,3.5
	c-0.2,0.9,0.3,1.8,1.2,2c0.3,0.1,0.5,0.1,0.8,0h7.1c-1.1,2.4-2.4,5.5-3.8,9.3l0,0c-0.5,1.6-1.4,3.1-2.4,4.4c-3.1,3-5.4,5.2-7,6.5
	c-1.8,1.5-7.2,5.9-7.2,5.9c-6.6,5.6-10.6,8.4-11.9,8.4c-0.2,0-0.5-0.1-0.7-0.2c-0.2-0.2-0.3-0.4-0.3-0.6c0.1-0.8,0.3-1.6,0.8-2.4
	l11-24.8H155c-0.9,2-1.8,4-2.6,5.9c-4.5,4.8-9.3,9.3-14.5,13.4l0,0c-6.1,4.8-11.7,10-17,15.7c3.1-7.9,6.8-15.5,10.8-23h-8.9
	c-3.1,6.1-6.5,10.9-10.2,14.1c-2.6,2.2-4.8,3.3-6.8,3.3c-0.9,0-1.7-0.5-2.3-1.2c-0.7-0.8-1-2.2-1-4.3c-0.1-4.9,1.9-9.5,5.6-12.8
	c3.7-3.4,8.9-5.1,15.5-5.1c1.7,0,3.4,0.2,5.1,0.5c0.8,0.2,1.6,0.3,2.4,0.3c0.4,0.1,0.8-0.2,0.9-0.6c0-0.1,0-0.2,0-0.2
	c-0.1-0.9-0.2-1.9-0.4-2.8c-0.2-1.1-0.4-2.2-0.5-3.3c-2.1-0.4-4.2-0.7-6.3-0.6c-10.2,0-18,2.4-23.5,7.1c-3.2,2.7-5.6,6.2-7,10.1
	c0,0,0,0.1,0,0.1c-0.1,0.2-0.2,0.4-0.2,0.7c-0.2,0.5-0.5,0.9-0.9,1.3l-0.5,0.5c-5.2,4.7-9.1,7.7-11.7,9.1c-2.5,1.4-5.2,2.1-8.1,2.1
	c-2.2,0-3.7-0.4-4.6-1.2c-1-1-1.7-2.4-1.7-3.8c4.2-0.6,8.4-1.6,12.4-3.1c4.6-1.9,7.9-4.2,10.1-6.9c2-2.3,3.1-5.2,3.2-8.2
	c0.1-2.2-0.8-4.2-2.4-5.7c-1.9-1.6-4.4-2.4-6.8-2.3c-5.3,0-10.5,1.9-15.8,5.8c-4.1,2.9-7.2,7-8.8,11.8c-0.4,1-1.1,2-2,2.6l-0.4,0.3
	c-6.3,5.7-10.1,8.5-11.6,8.5c-0.2,0-0.3-0.1-0.5-0.2c-0.1-0.1-0.2-0.3-0.2-0.5c0-0.5,0.2-1,0.4-1.5l0.9-2c0.8-1.8,1.6-3.7,2.5-5.6
	c3.5-7.6,5.3-12.1,5.3-13.6c0-1.2-0.5-2.4-1.5-3.2c-1.3-1-3.6-1.6-6.8-1.6l-1.9,0.1h-2.2l0.1-0.5c0.1-0.8,0.1-1.3,0.1-1.6
	c0.1-1.4-0.4-2.7-1.3-3.7c-0.9-0.9-2.2-1.4-3.5-1.4c-1.6-0.1-3.1,0.6-4.1,1.7c-1.1,1.3-1.7,3-1.6,4.8c0.1,1.7,0.6,3.3,1.5,4.8
	c-1.8,3.2-4,6.2-6.3,9c-2.1,2.3-4.4,4.4-7,6.2v8.4c4-3.1,7.7-6.5,11.1-10.2c3-3.2,5.7-6.8,7.8-10.6c0.9-0.1,1.9-0.2,2.8-0.2
	c0.8-0.1,1.6,0.1,2.3,0.5c0.4,0.3,0.7,0.8,0.7,1.4c0,1.2-1.4,4.7-4.2,10.5c-3.9,7.8-5.8,12.7-5.8,14.7c0.1,1.1,0.6,2,1.4,2.7
	c1,0.8,2.2,1.3,3.5,1.3c2,0,4.8-0.9,8.5-2.7c4.1-2.1,7.8-4.8,11.1-8c0.3,2.7,1.5,5.2,3.4,7.1c2.3,2.3,6,3.4,10.9,3.4
	c3.3,0.1,6.6-0.6,9.7-2c2.8-1.3,6.8-4.2,11.9-8.7c0.2,2.7,1.1,5.3,2.7,7.4c1.9,2.4,4,3.5,6.4,3.5c2,0,4-0.6,5.7-1.8
	c1.9-1.2,4.2-3.4,6.9-6.8c-0.6,2.4-1.4,4.7-2.5,6.9c-1.9,3.4-4,6.6-6.3,9.7c-6,8.6-9.1,14.8-9.1,18.8c0,1,0.3,2,1,2.8
	c0.7,0.7,1.7,1.1,2.7,1c1.9-0.1,3.6-0.9,4.8-2.4c2-2.1,4.6-6.9,7.7-14.3l2.5-5.9c2.7-2.7,5.1-4.8,7-6.4s5.6-4.6,11.1-8.9l3.9-3
	l0.9-0.7l0.5-0.4l0,0l6.5-5.6c-3.5,7-5.3,11.4-5.3,13.2c0,0.9,0.5,1.8,1.2,2.3c1,0.7,2.3,1.1,3.5,1c2.9-0.1,5.7-0.7,8.2-2
	c2.9-1.3,7.2-4.3,12.8-8.9l0,0c2.3-1.9,4.5-3.9,6.5-6.1c0.8-0.9,1.7-1.8,2.5-2.5c-0.9,2.2-1.7,4.1-2.3,5.7l-1.1,2.7
	c-1.7,4.1-2.5,6.7-2.5,7.8c0,0.9,0.5,1.8,1.3,2.4c1,0.8,2.2,1.1,3.4,1.1c6.7,0,14.8-3.6,24.3-10.9V282c-2.2,1.8-4.4,3.5-6.8,5.1
	c-2.8,1.9-5.7,3.5-8.7,5c-0.6,0.4-1.4,0.6-2.1,0.6c-0.2,0-0.4-0.1-0.6-0.3c-0.2-0.2-0.2-0.4-0.2-0.7c0.1-0.8,0.3-1.6,0.6-2.4
	l13.1-32.3h6c0.5,0,1.1-0.1,1.6-0.3c0.3-0.1,0.5-0.4,0.6-0.6l0.8-2.4c0.3-0.9,0.5-1.8,0.6-2.7C203.1,250.9,203,250.8,202.9,250.7
	 M74.1,273.2c2.6-2,4.8-3.1,6.8-3.1c0.8,0,1.5,0.3,2,0.8c0.5,0.6,0.8,1.4,0.8,2.2c0,1.6-0.9,3.1-2.7,4.5c-2.5,2.1-7,3.7-13.6,5
	C69.3,278.4,71.5,275.3,74.1,273.2"/>
<path class="st0" d="M131.5,123.1c1.2-1.2,2.7-2.1,4.3-2.4v-0.1c2.3-16.4-3.1-35.2-22-45.6c-2.8-1.1-4.1-1-4.3-0.4
	c-0.1,0.6,0.1,1.1,0.5,1.5c1,1.2,2.3,2.2,3.7,2.8c0.1,0,9.8,3.8,14.9,17.7c2.2,6.6,3.4,15.2,2.9,26.2c0,0,0,0.1,0,0.1l0,0l0,0
	C131.5,123,131.5,123.1,131.5,123.1"/>
<path class="st0" d="M120.9,139.2L120.9,139.2l5.8-9.3v-0.2c0.8-5.2,1.2-10.4,1.3-15.6c0.1-11.1-2.1-21.3-9.4-28.3
	c-2.4-2.5-5.2-4.6-8.4-6.1c-0.8-0.7-1.5-1.4-2.1-2.2c-0.2-0.2-0.3-0.4-0.5-0.5c-12.5-5.6-23.8,2.3-33.4,6.8
	c-24.3,17-46.8,37.1-60.9,49.8l-2.5,2.2c-0.8,0.7-6.4,5.8-6.4,5.8v0.1l0,0c0.3,1.2,0.7,2.3,1.1,3.5l0,0l0.4,1.1l5.3-4
	c3.5-2.4,6.8-5,10-7.7c7.2-5.5,15.4-14.2,21.6-19.2c11.1-8.9,21-15,28.3-21c5-3.7,9.2-7.9,12.2-9.5c16.7-11.9,31.5,0.4,35.2,7.3
	c3.9,6.8,5.1,14.2,5,20.8c0,5.8-0.9,11.5-2.6,17L120.9,139.2L120.9,139.2L120.9,139.2z"/>
<path class="st0" d="M138.9,212.5c0.9-1.1,3-3.8,3.1-3.9c11.5-13.1,28.1-39.3,27.2-80.9c1.4-15.5,0.3-29.7-5.8-41.3
	c-0.8-2.2-1.8-4.3-2.9-6.3c-0.8-1.6-1.8-3.1-2.8-4.6c-1.8-4.7-11.6-13.7-12.8-14.5c-2.8-2.7-5.9-5.1-9.1-7.4l0,0
	c-1.3-1-2.8-1.9-4.2-2.7l-0.9-0.5l0,0c-4.6-2.7-9.9-5.2-9.9-5.2c-2.6-0.7-5.3-1.3-8-1.8c-3.3-0.5-6.7-0.9-10.1-1
	c-3.5-0.1-6.9-0.1-10.3,0.2c-0.4-0.1-0.9,0-1.3,0.1l-1.3,0.1c-0.2,0-34.5,5.5-48.4,14c-3.5,1.4-6.5,3.5-9.9,5.1
	C22.2,65.4,4.9,81.5,4.2,81.9c-0.7,2.9-2.3,8.2-2.8,11.2C1.7,93.1,23.2,74.2,31,69c0.2-0.5,16.3-9.8,24.5-13.3
	c13.3-4.3,27.1-7.7,42.1-8.6c1.9-0.1,25.9-5.4,51.4,26.4c14.6,13.2,17.3,32.5,16.1,53.8c0,0.6-0.2,3.1-0.6,6.7c0,0.3-0.3,2.8-1,7.8
	c0,0-1.9,11.4-10.6,28.1c-5.1,9.6-10.8,18.8-17.2,27.6c-0.5,0.5-1,1.1-1.4,1.7l-3.6,5.3c-0.8,1.2-9.4,8.7-8.1,8.1
	c-0.3,0.2-0.5,0.5-0.7,0.8c0.1,0.2,0.2,0.4,0.3,0.5c0.4,0.8,1,1.4,1.7,2l0,0c2.3-1.7,9.1-7.4,9.4-8.1c1.9-3.1,6.6-9.4,10-13.6
	c1.6-2.4,4.7-8.7,6.2-11.2c3.3-5.5,11.4-22.5,13.7-26.6c-0.6,2.3-5.6,15.5-6.4,17.4c-8.8,23.2-19.8,33.9-22.8,37.2
	c-0.1,0-5.3,5.3-6.9,6.6l0,0c1.3,0.4,2.7,0.7,4,0.9H131c0.1,0,1,0.1,1.4,0.1l0.2-0.1C134.8,216.8,136.9,214.7,138.9,212.5"/>
<path class="st0" d="M221.6,110.8L221.6,110.8c-0.3-1.7-0.6-3.5-0.9-5.2c-3.1-5.1-3.9-11.4-6.6-16.8c-0.2-0.4-0.3-0.8-0.5-1.3
	c-22.8-42.1-51.7-67.5-94.2-75.9c-3.3-0.6-11.9-3.9-30.6-3.7c-20.3,0.2-22.1,1.9-24.6,2.4c-4.5,2.1-8.9,4.5-13.2,7.2l16.2-3.8
	l12.3-1.3c8-1.3,37-1.5,72,13.1c2.4,1,18.1,12,28.2,21.5c3.9,3.6,7.5,7.6,10.9,11.7l0,0c3,3.5,5.7,7.2,8.2,11l0,0
	c22.7,36.1,19.7,66.7,19.7,66.7C220.6,128.1,221.6,119.5,221.6,110.8"/>
<path class="st0" d="M216.1,141.5c-0.1-1.3-0.2-2.9-0.4-5l0,0c-0.2-2.6-0.2-5.2,0.1-7.8c0.8-3.9-2.3-15.4-3.8-21.2
	c-4.8-17.8-13.3-34.4-24.9-48.7c-0.1-0.1-17.6-18.9-30.3-27.6h-0.1c-2.8-1.8-5.8-3.4-8.9-4.6c-1.1-0.4-2.2-0.9-3.3-1.3
	c-3.1-1.1-6.5-2.1-10.1-3.1c-5.1-1.4-10.6-2.5-16-3.6l-2.7-0.5c-7.6-1.4-15-2.5-21.3-3.4c-4.6-0.5-9.3-0.5-13.9,0h-1l-0.2,0.1
	c-1.3,0.1-4.8,0.5-4.9,0.6c-2.7,0.4-5.4,0.9-8,1.4c-0.2,0-5.9,1.3-8.2,1.9c-0.8,0.1-1.5,0.3-2.2,0.6c-7.7,2-13.1,3.9-13.1,3.9
	c-4.3,3.3-8.3,6.9-12,10.8c8.1-4.5,16.6-8.1,25.5-10.7c16.7-5,38.7-9.2,68.6-0.4c27.7,8.1,54.2,26.6,68.8,53.2
	c12.9,23.4,18.9,52.3,17.2,82c1.8-3.8,3.4-7.8,4.8-11.8c0.1-0.2,0.1-0.4,0.2-0.5c0.2-1.3,0.2-2.7,0.1-4v0.1c0,0,0-0.1,0-0.4"/>
<path class="st0" d="M167.3,20c6.1,3.5,18,13.7,18,13.7c1.2,1.1,1.8,1.8,1.8,1.8l11.5,10.7c0,0,5.6,7.2,8.4,9.6
	c-4.2-7.3-9.2-14.1-15-20.3l0,0c-10.8-11.6-24-20.8-38.6-26.9l0,0c-1.5-1.3-7.8-2.9-7.8-2.9l0,0c-10-3.3-20.5-5.2-31-5.5l0,0
	c-1.2,0-2.5-0.1-3.7-0.1c-2.9,0-5.8,0.1-8.7,0.4c5.5,0.3,11.4,1,17.7,1.7C151.5,7.9,161.3,16.5,167.3,20"/>
<path class="st0" d="M118.9,8c2.3,0.5,4.6,1.1,6.9,1.7c18.3,4.7,35.4,13.4,50.1,25.3c4.2,3.4,8.2,7.1,12,11l1.2,1.2
	c11.5,12.3,21.2,26.1,28.9,41.1c0.7,1.3,1.4,2.7,2.1,4c-10-34-20.2-38.3-23.8-43.4c-2-2.4-6.5-8.4-8-9.6c-3.6-3-25.2-18.3-33.4-23.1
	S133.5,7,125.6,5.6c0,0-22.5-4-36.5-3.4C86,2.8,83,3.5,80,4.4C93.1,4,106.1,5.2,118.9,8"/>
<path class="st0" d="M130.8,50.3c-0.8-0.5-1.5-0.9-2.4-1.4L130.8,50.3"/>
<path class="st0" d="M203.6,112.4c-1.5-4-3.8-14.7-6.2-20.6c-1.1-2.7-2.2-5.2-3.4-7.7c-2.5-5.1-5.3-10-8.4-14.8
	c-0.8-1.1-1.5-2.2-2.3-3.3c-0.3-0.3-0.5-0.7-0.8-1c-1.5-2.2-3.2-4.3-5-6.3c-23-23.6-55.8-36.6-76.8-37c-6.7-0.2-13.3-0.1-20,0.4
	c-7.9,0.8-15.7,2.4-23.4,4.6L56.5,27c-1.3,0.3-2.5,0.7-3.7,1.2l-0.2,0.1c-1.4,0.5-2.9,1.1-4.6,1.8c-1.1,0.4-2.2,0.8-3.2,1.4
	c-4.8,2.1-10.2,5-14.5,7.3c-0.9,0.4-1.7,0.8-2.4,1.4c-3,1.7-4.9,2.9-4.9,2.9c-1.5,2-3,4-4.4,6.1c5.8-4.4,12.1-8.1,18.7-11.1l6-2.6
	c9.2-3.6,18.8-6.3,28.6-7.9c11.1-1.9,22.4-2.4,33.6-1.6c5.9,0.4,11.7,1.5,17.4,3.1c1.4,0.4,4.6,1.6,4.9,1.8
	c6.4,2.6,12.6,5.7,18.5,9.2c7.5,4.3,14.5,9.4,21.1,15c13.3,11.4,22,23.8,26,36.8c2.1,5.6,3.1,11.5,2.9,17.5c0.2,2.4,0.2,4.9,0.3,7.5
	c0.2,49.3-7.6,69.4-7.6,69.4c-0.4,1.4-0.9,2.8-1.4,4.1c3.1-3,6.1-6.2,8.8-9.6c0.1-0.4,0.2-0.8,0.3-1.2c0.1-0.8,0.2-1.6,0.3-2.5l0,0
	v-0.1c0.1-0.8,0.1-1.5,0.2-2.4c0.3-3.2,1.1-10,2.1-23c0.8-10.1,1-35.1,1-35.1c2.8,10.5,3.1,22.3,3.1,25c0,7-1.4,31.3-1.4,31.9
	c1.9-2.8,3.7-5.6,5.4-8.6c0-0.5,0.1-0.9,0.1-1.4c0.2-2.8,0.2-24.6-0.7-33.1C206.4,124.3,205.3,118.3,203.6,112.4"/>
<path class="st0" d="M202.1,173.5L202.1,173.5L202.1,173.5L202.1,173.5z"/>
<path class="st0" d="M88.9,218.2c1-0.3,1.9-0.8,2.7-1.6l1.6-2.5l0.8-2.3l-9.9,6.6C85.6,218.7,87.3,218.6,88.9,218.2"/>
<path class="st0" d="M32.6,109.9c17.8-16.6,30.7-25.1,43.9-31.7c10.2-5.1,15.3-9.3,29.4-8.3c0,0,33.6,1.9,35.3,51c0,0,0,0,0,0.1
	c0.9,0.3,2,0.6,3.1,1l1.1,0.4c0,0,0,0,0,0c0.4-8.8-3-23.7-4.4-27.6c-2.5-6.8-7.3-14.5-9.4-16.2c-1.6-1.9-10.9-13.6-32-12.5
	c-12,0.4-22.2,4.4-31.7,9.7l0,0C62.9,78.2,48.1,88.7,41.8,93c-13.8,9.5-28.4,31-40,37.5c0.4,2,0.8,3.9,1.2,5.8
	c11.1-6.1,20.5-18.1,29.6-26.6"/>
<path class="st0" d="M120.9,172.7c0.2-0.2,6-9.5,9.9-16.5c1.6-2.6,3-5.3,4.1-8.1l0,0c0.1-0.2,0.2-0.4,0.2-0.6c1-2.3,1.8-4.6,2.4-7
	l-0.9-0.3c-1.3-0.6-2.6-1-3.9-1.3c-1.6,3.2-2.7,6.6-3.5,10.1c-1.6,4-8.3,17.3-8.3,17.3L120.9,172.7L120.9,172.7z"/>
<path class="st0" d="M120.9,184.7c5.9-7,11.1-14.6,15.6-22.5c0.3,0.1,4.7-12.1,7-19.2l-3.4-1.4c-0.4,1.5-1,3.3-1.2,4.2l0,0
	c-1.7,4.9-3.7,9.6-6,14.2c-2.8,5.5-11.3,16.6-12,17.6L120.9,184.7L120.9,184.7z"/>
<path class="st0" d="M57.8,208.1c1,0.6,2.1,1.1,3.2,1.7c4.5-2,8.8-4.3,12.9-6.9c7.5-3.9,13.8-10,20.5-15.3l0,0v-4.4
	C83.2,190.7,71.4,199.5,57.8,208.1"/>
<path class="st0" d="M66.9,212.5c1.6,0.7,3.2,1.3,4.8,1.9c8.2-4.3,15.8-9.6,22.7-15.8l0,0v-6.3l0,0
	C94.2,192.5,76.6,207.4,66.9,212.5"/>
<path class="st0" d="M80.7,213.3c-0.5,0.4-1.1,0.7-1.6,1.1l-0.7,0.4c-0.3,0.2-0.6,0.4-1,0.5l-1,0.5l-0.3,0.2c1.6,0.5,3.2,1,4.8,1.4
	l13.5-9.1l0,0c0-0.7,0.1-1.4,0.1-2.2v-1.7l0,0C90,207.6,85.4,210.6,80.7,213.3"/>
<path class="st0" d="M11.6,116.9L11.6,116.9c0,0,9.1-12,18.1-19.5s22.6-18.8,35.4-25.9c10.4-4.5,22.8-9,35.8-8.6
	c41.1-1.6,47.2,40.9,47.7,60.9c0,0,0,0,0,0.1l4.3,1.8v0c-0.1-21-4.5-39.7-16.9-54.4c-9.3-6.9-15.2-11.6-41.6-12.2
	C68.6,61.3,40,82.2,34.6,86s-13.1,8.5-18.1,12.5C14.5,100.1,3,108,0,109.9c0,0.3,0,0.6,0,0.9c0,1.6,0,3.3,0.1,4.9
	c4.2-2.4,13.6-9.7,18.6-14.6c-4.8,5.9-14.4,17.4-18.3,19c0.2,2.1,0.4,4.3,0.7,6.4C5,123.6,8.8,120.7,11.6,116.9"/>
<path class="st0" d="M107.3,98.7c-0.2-0.1-0.4-0.2-0.7-0.2c-3.3-1-6.1,1.8-8.8,6.3c-1.1,1.9-2.3,4.2-3.4,6.6
	c-3.8,8-13.6,18.5-13.6,18.5c-1.8,1.6-4.2,3.8-7.3,6.5c-7.9,6.7-16.4,12.8-25.2,18.1c-8.3,4.9-16.9,9.2-25.7,13.2
	c-1.7,0.9-3.4,1.9-5.2,2.7l0.1,0.1h-0.1c0.4,0.7,0.8,1.3,1.3,1.9c0.8,1,0.8,1.2,1,1l3-1.3c0,0,10.3-4.7,11.4-5.7
	c3.2-1.9,10.5-4.6,26.5-14c7.4-4.3,15.1-12.7,24.6-19.6H85l0.1-0.1c-0.5-0.2-1.6-0.5-1.6-0.5v-3.8c3-0.2,4.5-0.4,7.5-0.9l1.3-2l0,0
	c0.6-0.7,1.1-1.5,1.5-2.3c2.2-4,4.7-9.7,7-14.2c1.7-3.4,3.3-6.1,4.3-6.9c1.1-0.4,2.1-0.2,2.4,1.3c-0.1,0.4,0,0.9,0.1,1.3
	c-0.2,1.1-0.4,2.2-0.8,3.3c-0.1,0.3-0.2,0.6-0.3,0.9c-0.7,1.8-1.4,3.5-2.3,5.2l-0.2,0.3l-0.3,0.6l0,0c-2.7,5.3-6.2,11.5-6.2,11.5
	h0.1c1.3-0.3,3.6-0.8,5.4-1.2l2.2-0.5c0,0,0.6-2,2.1-6.6l0.2-0.7c1.3-3.3,2.3-6.6,2.9-10.1C111.2,102.2,110,99.9,107.3,98.7"/>
<path class="st0" d="M59,183.7c4.8-2.1,13.1-9.2,13.6-9.5c5.3-3.8,9.6-7.4,9.6-7.4l0,0c4.4-3.3,8.5-7,12.2-11.1l0,0V151l0,0
	c-6.6,6.7-31.1,29.3-61.6,38.5c1.2,1.2,2.5,2.4,3.8,3.5l4.1-1.3c1.7-0.5,5.2-1.7,5.3-1.7C48.3,189.3,57.2,184.5,59,183.7"/>
<path class="st0" d="M91,134.5l-3.3-1c0,0-16.9,21.1-35.3,27.9C41,168.1,24.1,175,21.2,176c0.9,1.2,1.8,2.4,2.8,3.6
	c6.3-1.4,33.1-11.8,47.8-25.1C87.5,140.2,91,134.5,91,134.5"/>
<path class="st0" d="M94.4,142.6L94.4,142.6c0-0.9,0-1.6,0-2.3c0.1-1.4-0.3-2.7-1-3.9c-5.7,9.3-19.5,24.2-30.4,29.3
	c-11.9,7.4-23.2,12-36.4,17.1c1,1.2,2.1,2.3,3.1,3.5c3.3-1.2,17.6-6.3,21.3-8.5C66.7,168.9,82.4,158.6,94.4,142.6"/>
<path class="st0" d="M124.3,142.3l-0.9,1.3c-1.1,3.2-2,6.8-2.5,8.4v7.6c2.8-4.4,6.8-14.6,8.1-20.8
	C127.2,139.1,125.7,140.3,124.3,142.3"/>
<path class="st0" d="M80.8,178.4L80.8,178.4c4.2-3.9,9.1-7.4,13.6-11.2l0,0v-6.1l0,0c-2.8,2.9-5.6,5.8-8.5,8.6
	c-0.8,0.6-1.9,1.7-3.5,3.2c-1.5,1.3-13.1,9.1-14,10c-2,1.2-4,2.3-6.1,3.5c-1.1,0.4-2.1,1-3.1,1.6l0,0l-0.1,0.1
	c-9.3,4.9-17.3,8.4-17.3,8.4l0,0l-0.8,0.3c1.1,0.9,2.3,1.8,3.4,2.7c7.1-3,14-6.6,20.8-10.2C65.3,189.2,76.9,181.9,80.8,178.4"/>
<path class="st0" d="M94.4,178.4v-3.8l0,0c-0.6,0.3-2.1,1-2.6,1.3c-1.4,0.7-10.6,6.9-11.9,7.8c0,0-4.2,2.7-7.8,5
	c-1.5,1-2.9,1.8-3.8,2.4l-0.7,0.4c-6.4,3.9-18.2,10.3-18.2,10.3c-0.4,0.2-0.8,0.4-1.2,0.5c1.2,0.8,2.4,1.6,3.6,2.4
	c5.8-2.6,11.5-5.6,16.9-8.9C78,191.4,84.7,184.2,94.4,178.4"/>
<path class="st0" d="M175.4,149.8c5.1-28.8,2.9-53.7-7.8-74.3c-0.6-0.9-10.1-13.1-14.6-17.9c-18.5-19.6-44.7-23.2-44.7-23.2
	c-5.9-0.4-11.8-0.3-17.6,0.3C82.9,36,82.9,36,79,36.5c-7.4,1.3-14.7,3.1-21.9,5.4L54,42.6c0,0-12.8,4.6-23.5,9.3l-1.9,0.9
	c-5.8,3.1-11.4,6.6-16.8,10.4c-0.6,0.5-1.2,1.1-1.7,1.7c-0.2,0.3-0.4,0.6-0.5,0.9c-1.4,3.1-2.7,6.4-3.8,9.6
	c7.2-6.1,14.9-11.6,23-16.4c7.4-3.7,15.2-7.5,19.5-9.4l0,0c10-4.3,26.3-7.4,26.3-7.4s17.7-4.6,32.7-3.4c2,0.2,3.8,0.3,5.4,0.5
	c3.8,0.5,7.5,1.6,10.8,3.5c0.8,0.4,6,2.6,7.8,3.3c0.8,0.5,1.6,1.1,2.5,1.7s1.7,1.2,2.6,1.9c21.7,16.4,27.8,29.5,27.8,29.5l0,0
	c15.4,26,10.9,60.1,0.9,98.7c-9,20.6-12.3,20.2-16.4,26.7c-1.1,1.4-9.2,11-9.2,11c-1.1,1-2.2,2-3.5,2.9h0.2v0.1
	c2.6-0.6,5.2-1.3,7.8-2.1c0.1-0.1,0.1-0.3,0.2-0.4c4.4-6.8,14.4-14.4,19-25.2C169.6,177.3,171.2,164.1,175.4,149.8"/>
<path class="st0" d="M193.7,120.1c0.1-4,0-7.9-0.3-11.6c0.1-5.4,0-10.7-2.4-14.8c-1.6-5.3-3.8-10.4-6.7-15.1
	c-11.5-18.9-32.4-33.6-51.5-42.4c-1.2-0.7-2.5-1.3-3.8-1.7c-1-0.4-2-0.9-3-1.3c-12.3-4.9-32-6-51.8-3l-1.6,0.3
	c-8.2,1.3-16.3,3.4-24.2,6.1c-0.8,0.3-1.6,0.6-2.4,0.9H46l0,0C38.6,40.4,31.6,44,25,48.3l0,0l0,0c-1,0.7-2,1.3-2.9,2
	c-2.5,1.4-4.9,3-7.2,4.8v1c8.8-5.2,17.9-9.8,27.4-13.7c3.9-1.6,7.9-2.8,11.9-3.7c13.8-2.5,37.8-8.4,48-7.2
	c0.5,0.1,10.9,1.2,11.2,1.3c0.7,0.3,1.5,0.5,2.3,0.5c4.3,1.1,8.6,2.6,12.6,4.4c2.3,1.1,4.5,1.5,6.5,2.8c0.7,0.6,1.5,1.1,2.3,1.5
	C161.6,56.8,169,71.6,169,71.6c3,4,5.3,8.5,6.8,13.2c9.6,22,6.2,53.5-0.4,81.9c-2.1,7.7-6.6,23.5-10.7,31.1
	c-4.3,6.2-9.4,11.8-15,16.8c3.3-1.2,6.6-2.6,9.7-4.2c5-6.4,10.7-11.6,14.3-20.7l5.6-17.5c5.9-25.1,6.3-47.4,6.5-69.5
	c-3.6-17.8-8.8-22.6-12.7-32.5c7.2,5.8,10.2,13.6,12.6,21.8l0,0l0,0c0.3,0.9,0.5,1.7,0.8,2.6c0.4,1.9,0.7,3.8,0.9,5.8
	c2.1,29,2.6,78.9-18.5,104.3l-0.7,0.8c4.2-2.6,8.3-5.4,12.1-8.5c1.5-2.1,2.8-4.3,3.9-6.5c5.8-22.6,8.9-45.8,9.3-69.2
	C193.7,120.8,193.7,120.5,193.7,120.1"/>
<path class="st0" d="M158.1,151.5c2.4-6.3,2.8-17.8,2.8-17.8l0,0c1.4-13.5,0.6-25.9-2.6-37.1c-0.3-4-2.7-9.2-9.3-19.5
	c-31.7-40.9-79.9-24.3-94.6-15.4c-6.4,3-12.5,6.3-18.7,9.6c-11,6.5-33.4,24.9-34.8,25.2c-0.4,2.9-0.6,5.9-0.8,8.9
	c12.6-9.9,25.4-19.5,38.5-28.6C38.9,76,72.3,54,98.7,55.6c7.7-1.6,52.8,0.8,58.2,59.8c0.6,6.3,0.7,12.6,0.2,18.9
	c-0.3,2.7-0.7,5.5-1.3,8.1c0,0-3.9,12.1-4.9,14c0,0-9.9,20.2-9.9,20.2s-18.4,25-20.1,26.8v3.6c0,0.8,0,1.5,0.1,2.2
	c0.4-0.3,0.7-0.5,1.1-0.8c0,0,9.5-13.3,20.8-28.9C152.1,166.6,158.1,152.3,158.1,151.5"/>
<path class="st0" d="M120.9,197.2c13.5-12.5,27.4-43.8,29.1-49.1l0,0c1.6-4.7,3-9,3-10.1c0-0.4-0.2-4.7-0.1-6.8c0,0-9.1,19.4-9.3,20
	c-1.1,3.5-5,12.2-7.7,17.6c-4.2,8-9.2,15.6-15,22.6L120.9,197.2L120.9,197.2z"/>
<path class="st0" d="M101.8,83.7c-3.9-1-8.1-0.4-11.5,1.8l0,0c-2.6,1.1-8.3,5.7-13.7,10.4l-1.8,1.6l-2.3,1.8
	c-0.8,0.5-9.5,6.9-10.4,7.5c-9.5,6.6-22.3,18.1-27.5,22.4c-6.8,5-13.7,10-20.3,15.4c-0.3,0.3-0.5,0.6-0.8,0.9l-0.5,0.3
	c-3.5,2.3-6,3.9-6,3.9v0.1l0,0c0.3,0.9,0.7,1.8,1.1,2.7c0.1-0.1,0.2-0.1,0.3-0.2c4.5-1.5,9.8-4.5,15.6-8.2l2.6-1.5l2.1-1.7
	c6.9-4.8,14.1-10.3,21-15.8c7.2-5.4,13.9-10.5,14-10.8c2.9-2.7,5.8-5.5,8.5-8.3c7.7-7,14.8-11.7,23.7-17.7c1.6-0.9,3.8-2.1,5.8-1.8
	c0.8,0.3,1.4,1,1.7,1.8c-0.2,1.8-1,2.4-1.4,2.5l-0.6,0.2c-0.3,0-0.6,0.1-0.8,0.1c-2.6-0.3-4.4,0.9-6,2.5l-0.3,0.1
	c-3.7,2.1-7,4.8-9.7,8.1l0,0l-0.8,0.8c-20.3,18.9-51.2,40.5-65.6,48.9l-1.5,0.7l-0.4,0.2c-2.3,0.9-4.6,1.9-6.7,3.2v0.1l0,0
	c0.6,1.3,1.2,2.6,1.8,3.9l0.8-0.5c0,0,8.6-4,16.3-8.3c0.1,0,4.6-2.6,6.7-4l0,0c14.8-9.5,27.7-18.7,42.5-32.4c0.4-0.4,1-1,1.6-1.6
	c3.7-3.6,6.4-7.6,8.3-9.1c0.5,0,0.9,0.1,1.3,0.3c-5.1,10.1-8.2,14.1-31.4,32.9c-13.6,9.8-25.7,16.7-27.1,17.5
	c-8.8,4.7-15.9,8.3-16.6,8.6l-0.6,0.2l0.1,0.1h-0.1c0.5,0.9,1,1.8,1.5,2.6c6.3-2.8,23.9-10.2,33-16.4c24.7-18.4,35.2-21.7,45.9-46
	c0.1-0.2,0.1-0.5,0.2-0.7l0.1-0.5c1.3-2.7,3-5.1,5.1-7.2c1.1-0.7,2.3-1.2,3.6-1.5c4.3-0.6,8.4,1.7,10.4,5.5l0.1,0.2
	c0.1,0.2,0.2,0.4,0.3,0.6c0.8,2,1.2,4,1.3,6.2c0,0.1,0,0.2,0,0.3c0,0.3,0,0.5,0,0.8c-0.1,5.2-1,10.4-2.8,15.3l0,0
	c0.5-0.1,5.6-2,5.6-2c0.9-3.6,1.3-7.4,1.3-11.1C118.7,100.4,115.8,88.2,101.8,83.7"/>
<rect class="st1" width="221.6" height="332.2"/>
</svg>
