<svg xmlns="http://www.w3.org/2000/svg" viewBox="0 0 221.61 332.24"><title>regit-business-logotype</title><g id="Layer_2" data-name="Layer 2"><g id="Layer_1-2" data-name="Layer 1"><path d="M162.53,257.17a6.14,6.14,0,0,0,4.59-2.11,7.16,7.16,0,0,0,2-5.11,4.51,4.51,0,0,0-1.27-3.38,4.74,4.74,0,0,0-3.46-1.24,5.93,5.93,0,0,0-4.36,2.22,7.45,7.45,0,0,0-2,5.22,4.21,4.21,0,0,0,1.27,3.14,4.51,4.51,0,0,0,3.29,1.24" fill="#00aeef"/><path d="M202.87,250.68a1.17,1.17,0,0,0-.69-.14h-5.89l2-4.56q4.16-9.69,4.16-14a3,3,0,0,0-.66-2.14,2.48,2.48,0,0,0-1.87-.69q-2.37,0-4.5,2.54-3.4,4.1-7.56,19h-7.62a4.16,4.16,0,0,0-3.12,1.07,4.88,4.88,0,0,0-1,3.49,1.66,1.66,0,0,0,2,2h7.1q-1.69,3.59-3.84,9.29h0a14.09,14.09,0,0,1-2.44,4.36q-4.61,4.52-7,6.55c-1.79,1.54-7.18,5.88-7.18,5.88q-9.92,8.41-11.92,8.41a1.08,1.08,0,0,1-.69-.23.76.76,0,0,1-.29-.64,6.11,6.11,0,0,1,.75-2.36l11-24.77H155q-1.42,3-2.65,5.9a143,143,0,0,1-14.48,13.44h0a152.31,152.31,0,0,0-17,15.69,219.2,219.2,0,0,1,10.79-23h-8.91q-4.62,9.22-10.17,14.12-3.87,3.35-6.75,3.35a2.79,2.79,0,0,1-2.25-1.22q-1-1.21-1-4.28A16.61,16.61,0,0,1,108.18,275q5.57-5.12,15.49-5.12a32.59,32.59,0,0,1,5.08.46,15.76,15.76,0,0,0,2.42.34.78.78,0,0,0,.92-.86,20.62,20.62,0,0,0-.4-2.8,27.8,27.8,0,0,1-.46-3.26,28.56,28.56,0,0,0-6.29-.63q-15.29,0-23.46,7.13a23.21,23.21,0,0,0-7,10.11.45.45,0,0,0,0,.12c-.07.22-.15.44-.21.66a3.79,3.79,0,0,1-.92,1.25l-.51.46q-7.81,7.07-11.67,9.08A17.32,17.32,0,0,1,73.12,294q-3.23,0-4.64-1.18a5.57,5.57,0,0,1-1.7-3.84,56.6,56.6,0,0,0,12.43-3.11q6.87-2.89,10.1-6.9a13,13,0,0,0,3.23-8.17,7.36,7.36,0,0,0-2.45-5.66,9.74,9.74,0,0,0-6.84-2.25q-7.91,0-15.75,5.77a23.82,23.82,0,0,0-8.82,11.76,5.77,5.77,0,0,1-2,2.61l-.36.29q-9.41,8.48-11.6,8.48a.63.63,0,0,1-.46-.17.71.71,0,0,1-.17-.52,4.34,4.34,0,0,1,.4-1.5l.87-2q1.15-2.71,2.54-5.6,5.25-11.37,5.25-13.56a3.79,3.79,0,0,0-1.54-3.18q-2-1.57-6.79-1.57l-1.9.06H40.73l.06-.46q.12-1.15.12-1.62a5.16,5.16,0,0,0-1.3-3.72,4.67,4.67,0,0,0-3.54-1.36,5.39,5.39,0,0,0-4.12,1.7,6.69,6.69,0,0,0-1.6,4.76,9.91,9.91,0,0,0,1.51,4.79,61.62,61.62,0,0,1-6.32,9,43.36,43.36,0,0,1-7,6.23v8.37a83.23,83.23,0,0,0,11.07-10.2,54.72,54.72,0,0,0,7.85-10.62,21.39,21.39,0,0,1,2.8-.23,3.72,3.72,0,0,1,2.27.55,1.67,1.67,0,0,1,.7,1.36q0,1.79-4.24,10.45-5.8,11.77-5.8,14.66a3.59,3.59,0,0,0,1.44,2.66,5.07,5.07,0,0,0,3.46,1.27q2.94,0,8.45-2.67a46.43,46.43,0,0,0,11.13-8A11.93,11.93,0,0,0,61,297.74q3.52,3.44,10.85,3.43a22.43,22.43,0,0,0,9.67-2q4.23-2,11.95-8.66a14,14,0,0,0,2.68,7.43q2.82,3.55,6.4,3.55a10.69,10.69,0,0,0,5.68-1.75q2.8-1.73,6.9-6.75a34.78,34.78,0,0,1-2.51,6.9,93.73,93.73,0,0,1-6.26,9.72q-9.06,12.87-9.06,18.81a3.86,3.86,0,0,0,1,2.77,3.47,3.47,0,0,0,2.65,1,6.59,6.59,0,0,0,4.79-2.37q3-3.18,7.67-14.31l2.48-5.89q4.1-4,7-6.43T134,294.31l3.86-3,.93-.72.46-.36h0l6.52-5.62q-5.31,10.56-5.31,13.21a3,3,0,0,0,1.24,2.34,5.5,5.5,0,0,0,3.55,1,19.44,19.44,0,0,0,8.22-2q4.36-2,12.78-8.86h0a63.39,63.39,0,0,0,6.52-6.14q1.27-1.38,2.54-2.54Q174,285,173,287.33L171.88,290q-2.54,6.18-2.54,7.79a3.11,3.11,0,0,0,1.27,2.36A5,5,0,0,0,174,301.2q10.1,0,24.29-10.91V282a70,70,0,0,1-6.81,5.11,77.54,77.54,0,0,1-8.66,5,5.35,5.35,0,0,1-2.08.63.74.74,0,0,1-.58-.26,1,1,0,0,1-.23-.66,7,7,0,0,1,.63-2.37l13.06-32.32h6a3.51,3.51,0,0,0,1.56-.29,1.32,1.32,0,0,0,.58-.64l.75-2.42a10.36,10.36,0,0,0,.58-2.71.54.54,0,0,0-.17-.43M74.07,273.21q3.86-3.06,6.75-3.06a2.61,2.61,0,0,1,2,.84,3.13,3.13,0,0,1,.79,2.22q0,2.37-2.65,4.5-3.75,3.12-13.62,5,2.88-6.41,6.75-9.46" fill="#00aeef"/><path d="M131.5,123.14a8.32,8.32,0,0,1,4.34-2.4v-.08c2.27-16.44-3.14-35.24-22-45.61-2.85-1.08-4.08-1-4.32-.41a1.78,1.78,0,0,0,.51,1.5,9.15,9.15,0,0,0,3.71,2.81c.11,0,9.76,3.8,14.9,17.7,2.21,6.65,3.38,15.2,2.86,26.23V123h0v.11" fill="#00aeef"/><path d="M120.85,139.19h0l5.76-9.32v-.17a122.92,122.92,0,0,0,1.28-15.59c.1-11.14-2.1-21.28-9.38-28.26a30.43,30.43,0,0,0-8.36-6.11,18.33,18.33,0,0,1-2.13-2.2c-.15-.17-.3-.35-.45-.55C95,71.37,83.76,79.32,74.14,83.79c-24.34,17-46.78,37.11-60.9,49.8l-2.52,2.15c-.85.73-6.4,5.79-6.4,5.79v.1h0q.5,1.74,1.06,3.46h0l.36,1.14,5.31-4a125,125,0,0,0,10-7.7c7.17-5.53,15.37-14.17,21.62-19.19,11.13-8.94,21-15,28.26-21,5-3.7,9.19-7.85,12.23-9.47,16.66-11.94,31.51.37,35.19,7.29,3.92,6.75,5.07,14.24,5,20.77a59.38,59.38,0,0,1-2.6,17v9.33Z" fill="#00aeef"/><path d="M138.9,212.5c.92-1.13,3-3.81,3.05-3.9,11.53-13.06,28.15-39.25,27.23-80.86,1.41-15.5.31-29.71-5.78-41.34a55.6,55.6,0,0,0-2.91-6.34q-1.27-2.38-2.79-4.65c-1.85-4.67-11.58-13.67-12.75-14.48a81.4,81.4,0,0,0-9.08-7.39h0a45.93,45.93,0,0,0-4.2-2.72l-.91-.55h0c-4.64-2.66-9.88-5.2-9.88-5.2a76.88,76.88,0,0,0-8-1.76,82.54,82.54,0,0,0-10.08-1,84,84,0,0,0-10.35.21,2.46,2.46,0,0,0-1.34.12l-1.3.1c-.2,0-34.5,5.47-48.45,14-3.47,1.38-6.54,3.53-9.9,5.11C22.17,65.45,4.93,81.51,4.19,81.94c-.72,2.93-2.29,8.22-2.77,11.23C1.69,93.08,23.21,74.17,31,69c.18-.55,16.3-9.8,24.47-13.32,13.3-4.35,27.13-7.68,42.13-8.61C99.52,47,123.48,41.71,149,73.55c14.57,13.19,17.35,32.49,16.11,53.84,0,.64-.24,3.1-.61,6.66,0,.29-.31,2.79-1,7.84,0,0-1.93,11.43-10.59,28.07a237.07,237.07,0,0,1-17.2,27.64,9.31,9.31,0,0,0-1.43,1.74l-3.55,5.29c-.81,1.23-9.45,8.68-8.06,8.06a3.55,3.55,0,0,0-.66.83c.1.19.21.37.32.55a7.7,7.7,0,0,0,1.7,2h0c2.31-1.69,9.07-7.42,9.41-8.15a167.17,167.17,0,0,1,10-13.57c1.57-2.37,4.74-8.71,6.17-11.2,3.33-5.45,11.36-22.54,13.72-26.56-.61,2.33-5.63,15.45-6.37,17.43-8.75,23.23-19.76,33.87-22.8,37.16-.13,0-5.31,5.26-6.89,6.61h0a40.09,40.09,0,0,0,4,.91H131c.1,0,1,.13,1.42.15l.15-.14a82,82,0,0,0,6.36-6.19" fill="#00aeef"/><path d="M221.61,110.8h0q-.45-2.6-.87-5.22c-3.12-5.12-3.93-11.44-6.61-16.79-.16-.42-.34-.83-.52-1.25C190.78,45.45,161.94,20,119.42,11.64c-3.25-.64-11.93-3.9-30.59-3.72-20.26.2-22.13,1.92-24.6,2.36a110.79,110.79,0,0,0-13.16,7.23l16.22-3.77,12.32-1.3c8-1.25,37-1.55,72,13.15,2.36,1,18.14,12,28.18,21.5a115.57,115.57,0,0,1,10.9,11.71h0a102.17,102.17,0,0,1,8.21,11h0c22.71,36.12,19.71,66.69,19.71,66.69a111,111,0,0,0,3-25.68" fill="#00aeef"/><path d="M216.07,141.46c-.06-1.29-.19-2.91-.43-5h0a35.37,35.37,0,0,1,.15-7.81c.8-3.9-2.29-15.39-3.79-21.17a131.43,131.43,0,0,0-24.89-48.72c-.09-.1-17.58-18.85-30.28-27.64h-.06a46,46,0,0,0-8.87-4.57q-1.6-.64-3.33-1.26c-3.14-1.11-6.55-2.14-10.11-3.08-5.14-1.36-10.6-2.55-16-3.59l-2.69-.5c-7.59-1.39-15-2.48-21.29-3.35a62.13,62.13,0,0,0-13.87,0h-1l-.15.12c-1.27.13-4.78.5-4.9.62-2.71.4-5.41.89-8,1.42-.16,0-5.9,1.3-8.21,1.87a7,7,0,0,0-2.2.56c-7.7,2-13.09,3.88-13.09,3.88A111.39,111.39,0,0,0,31.06,34a123.88,123.88,0,0,1,25.45-10.7c16.67-5,38.68-9.21,68.58-.43,27.7,8.14,54.2,26.63,68.81,53.22,12.85,23.4,18.9,52.32,17.24,82a110,110,0,0,0,4.77-11.79,1.92,1.92,0,0,0,.16-.55,18.63,18.63,0,0,0,.13-4v-.27" fill="#00aeef"/><path d="M167.29,20c6.06,3.53,18,13.67,18,13.68,1.19,1.13,1.83,1.79,1.83,1.79l11.49,10.72s5.55,7.16,8.41,9.61a111.26,111.26,0,0,0-15-20.33h0A111,111,0,0,0,153.4,8.5h0c-1.49-1.29-7.79-2.9-7.79-2.9h0a110.48,110.48,0,0,0-31-5.51h0Q112.75,0,110.87,0c-2.92,0-5.8.12-8.66.35,5.52.29,11.44,1,17.68,1.68C151.48,7.9,161.3,16.46,167.36,20" fill="#00aeef"/><path d="M118.93,8c2.33.51,4.61,1.07,6.86,1.67A131.48,131.48,0,0,1,175.9,35a139.46,139.46,0,0,1,12,11l1.15,1.2A183.69,183.69,0,0,1,218,88.24c.7,1.33,1.39,2.68,2.08,4-10-34-20.2-38.27-23.84-43.4-2-2.36-6.49-8.36-8-9.6-3.64-3-25.16-18.33-33.37-23.11S133.49,7,125.61,5.58c0,0-22.52-4-36.53-3.44Q84.46,3.06,80,4.36A165.37,165.37,0,0,1,118.92,8" fill="#00aeef"/><path d="M130.75,50.28c-.75-.48-1.54-.94-2.36-1.38l2.36,1.38" fill="#00aeef"/><path d="M203.61,112.37c-1.47-4-3.82-14.69-6.19-20.6q-1.59-4-3.41-7.74a120.86,120.86,0,0,0-8.4-14.75c-.76-1.13-1.53-2.24-2.32-3.34a9.37,9.37,0,0,1-.75-1,67.78,67.78,0,0,0-5-6.28c-23-23.56-55.83-36.64-76.84-37a171.11,171.11,0,0,0-20,.43,126.85,126.85,0,0,0-23.38,4.64l-.84.26a21.23,21.23,0,0,0-3.66,1.18l-.19.13c-1.37.52-2.88,1.13-4.57,1.84a20.45,20.45,0,0,0-3.18,1.36c-4.78,2.07-10.22,5-14.47,7.34A10.82,10.82,0,0,0,28,40.22C25,41.93,23,43.13,23,43.13q-2.29,3-4.38,6.08A101.73,101.73,0,0,1,37.38,38.08l6-2.58A137.21,137.21,0,0,1,72,27.64,141,141,0,0,1,105.61,26,84.13,84.13,0,0,1,123,29.15c1.39.42,4.62,1.65,5,1.78a145.8,145.8,0,0,1,18.53,9.19,142,142,0,0,1,21.07,15c13.28,11.43,22,23.8,26,36.79a46.93,46.93,0,0,1,2.91,17.45c.15,2.43.23,4.94.25,7.5.16,49.32-7.56,69.45-7.56,69.45-.43,1.42-.89,2.8-1.36,4.14a110.91,110.91,0,0,0,8.81-9.58c.09-.41.17-.82.25-1.23.09-.75.17-1.58.26-2.47h0v-.11c.07-.76.14-1.55.2-2.39.28-3.24,1.11-10,2.13-23,.79-10.08,1-35.13,1-35.13,2.77,10.49,3.08,22.27,3.1,25,0,7-1.37,31.29-1.4,31.9q2.88-4.17,5.38-8.61c0-.45.08-.91.12-1.37.24-2.81.17-24.61-.74-33.12a106.22,106.22,0,0,0-3.25-18" fill="#00aeef"/><path d="M202.14,173.53h0v0Z" fill="#00aeef"/><path d="M88.88,218.16a5.69,5.69,0,0,0,2.66-1.61l1.63-2.49.76-2.32L84,218.36a8.79,8.79,0,0,0,4.84-.25" fill="#00aeef"/><path d="M32.61,109.95c17.82-16.63,30.67-25.1,43.88-31.73C86.66,73.12,91.8,68.9,105.91,70c0,0,33.58,1.87,35.25,51V121c.95.27,2,.61,3.08,1l1.06.43v0c.37-8.76-3-23.73-4.45-27.59-2.53-6.82-7.28-14.46-9.37-16.22-1.62-1.93-10.85-13.64-32-12.48-12,.35-22.23,4.44-31.7,9.68h0C62.94,78.25,48.09,88.71,41.84,93c-13.82,9.53-28.36,31-40,37.54q.53,2.94,1.22,5.83c11.1-6.12,20.5-18.09,29.58-26.56" fill="#00aeef"/><path d="M120.85,172.74c.22-.23,6-9.53,9.89-16.52a64.49,64.49,0,0,0,4.14-8.07h0c.09-.21.17-.43.24-.64a42.38,42.38,0,0,0,2.38-7l-.89-.35a24.42,24.42,0,0,0-4-1.32A45.81,45.81,0,0,0,129.18,149c-1.61,4-8.34,17.25-8.34,17.25v6.53Z" fill="#00aeef"/><path d="M120.85,184.74a155.5,155.5,0,0,0,15.64-22.5c.25.08,4.68-12.09,7-19.19l-3.44-1.44c-.44,1.52-1,3.31-1.24,4.19h0a131.35,131.35,0,0,1-6,14.23c-2.77,5.54-11.29,16.6-12,17.62v7.09Z" fill="#00aeef"/><path d="M57.82,208.11c1,.57,2.1,1.12,3.17,1.66A103.21,103.21,0,0,0,73.9,202.9c7.49-3.86,13.81-10,20.54-15.31h0v-4.42c-11.29,7.49-23.08,16.29-36.62,25" fill="#00aeef"/><path d="M67,212.55q2.37,1,4.8,1.94a115.24,115.24,0,0,0,22.69-15.75h0v-6.26h0c-.25.07-17.8,14.92-27.48,20" fill="#00aeef"/><path d="M80.69,213.32c-.52.38-1.05.73-1.59,1.07l-.69.35a10.43,10.43,0,0,1-1,.55l-1,.53-.32.16q2.37.78,4.78,1.44l13.46-9.07h0c0-.68.06-1.42.06-2.21v-1.67h0a154.07,154.07,0,0,1-13.74,8.79" fill="#00aeef"/><path d="M11.61,116.95h0s9.08-12,18.09-19.46S52.26,78.67,65.14,71.6C75.58,67.08,88,62.6,101,63c41.05-1.65,47.21,40.88,47.65,60.87v.06l4.3,1.75v0c-.05-21-4.53-39.72-16.89-54.38C126.67,64.37,120.84,59.59,94.43,59,68.61,61.31,40,82.23,34.61,86S21.47,94.51,16.49,98.54C14.49,100.06,3,108,0,109.87v.93q0,2.45.11,4.87C4.37,113.3,13.8,106,18.78,101.09,14,107,4.37,118.49.44,120.09q.27,3.21.71,6.35c3.81-2.81,7.61-5.75,10.48-9.49" fill="#00aeef"/><path d="M107.29,98.74c-.21-.08-.43-.16-.66-.23-3.32-1-6.12,1.81-8.79,6.3-1.15,1.93-2.27,4.17-3.41,6.56-3.77,8-13.59,18.55-13.59,18.55-1.79,1.65-4.16,3.77-7.31,6.54a194.63,194.63,0,0,1-25.24,18.13,257.57,257.57,0,0,1-25.68,13.15c-1.73.92-3.44,1.89-5.24,2.69l.07.1h-.07q.62,1,1.26,1.93c.75,1,.75,1.19,1,1l3-1.31s10.3-4.68,11.41-5.67c3.16-1.87,10.48-4.57,26.49-14,7.44-4.33,15.08-12.69,24.61-19.65H85l.12-.09c-.49-.16-1.59-.48-1.59-.48v-3.83c3-.24,4.5-.44,7.46-.9l1.29-2h0a15.78,15.78,0,0,0,1.51-2.32c2.15-4,4.74-9.7,7-14.17,1.72-3.37,3.26-6.07,4.32-6.9,1.1-.37,2.14-.21,2.38,1.27a3.17,3.17,0,0,0,.08,1.27,16.29,16.29,0,0,1-.81,3.31,7.29,7.29,0,0,0-.32.87,53,53,0,0,1-2.3,5.17l-.15.29-.32.61h0c-2.74,5.28-6.19,11.45-6.2,11.47h.08c1.32-.28,3.55-.79,5.42-1.24l2.22-.55,2.12-6.6.24-.73a53.83,53.83,0,0,0,2.9-10.07c.77-5-.46-7.33-3.2-8.41" fill="#00aeef"/><path d="M59,183.74c4.76-2.1,13.12-9.16,13.57-9.49,5.3-3.83,9.62-7.39,9.62-7.39h0a89.59,89.59,0,0,0,12.23-11.12h0V151h0c-6.59,6.74-31.13,29.26-61.59,38.51q1.83,1.81,3.75,3.55l4.06-1.25c1.69-.52,5.2-1.66,5.26-1.71,2.34-.8,11.31-5.58,13.11-6.37" fill="#00aeef"/><path d="M91,134.46l-3.32-1s-16.85,21.06-35.31,27.92C41,168.06,24.07,175,21.22,176q1.35,1.84,2.76,3.63c6.31-1.42,33.14-11.75,47.84-25.12,15.72-14.31,19.18-20,19.18-20" fill="#00aeef"/><path d="M94.43,142.59h0v-2.28a6.87,6.87,0,0,0-1-3.9c-5.69,9.33-19.5,24.16-30.44,29.33-11.94,7.35-23.2,12-36.38,17.08q1.52,1.78,3.12,3.49c3.34-1.19,17.62-6.25,21.32-8.51,15.67-8.91,31.38-19.19,43.37-35.2" fill="#00aeef"/><path d="M124.3,142.26l-.92,1.26c-1.11,3.19-2,6.77-2.53,8.44v7.61c2.76-4.41,6.76-14.56,8.08-20.83-1.77.4-3.19,1.56-4.63,3.55" fill="#00aeef"/><path d="M80.85,178.43h.05c4.11-3.89,9-7.37,13.53-11.21h0v-6.09h0c-2.83,2.86-5.62,5.8-8.5,8.56-.79.63-1.94,1.67-3.54,3.23-1.53,1.32-13.07,9.12-14,10-2,1.18-4,2.34-6.08,3.45A13.72,13.72,0,0,0,59.23,188h0l-.09.06c-9.26,4.87-17.33,8.43-17.33,8.43h0l-.78.27q1.68,1.36,3.4,2.66c7.15-3,14-6.6,20.84-10.19.07,0,11.66-7.32,15.66-10.84" fill="#00aeef"/><path d="M94.44,178.38v-3.82h0c-.64.34-2.06,1-2.6,1.3-1.44.72-10.57,6.9-11.9,7.76,0,0-4.23,2.74-7.79,5-1.5,1-2.87,1.83-3.77,2.39l-.69.42c-6.41,3.9-18.22,10.3-18.22,10.3a9.49,9.49,0,0,1-1.18.53q1.77,1.22,3.6,2.36a149.06,149.06,0,0,0,16.92-8.88c9.16-4.3,15.91-11.5,25.63-17.39" fill="#00aeef"/><path d="M175.37,149.84c5.09-28.75,2.9-53.74-7.83-74.33-.62-.94-10.09-13.12-14.62-17.93C134.43,38,108.24,34.41,108.24,34.41a96.49,96.49,0,0,0-17.63.33C82.91,36,82.91,36,79,36.55a160.44,160.44,0,0,0-21.86,5.38L54,42.56s-12.79,4.58-23.48,9.31l-1.88.87A148.16,148.16,0,0,0,11.84,63.12a17.18,17.18,0,0,0-1.72,1.73,3.34,3.34,0,0,0-.51.89q-2.1,4.71-3.77,9.63A159.83,159.83,0,0,1,28.84,59C36.28,55.29,44,51.5,48.33,49.64h0c10-4.32,26.31-7.36,26.31-7.36s17.66-4.61,32.67-3.36c2,.17,3.84.33,5.44.5a30,30,0,0,1,10.8,3.45c.75.38,6,2.63,7.81,3.3.75.55,1.59,1.13,2.48,1.74s1.69,1.23,2.59,1.92c21.69,16.44,27.83,29.5,27.83,29.5h0c15.42,26,10.94,60.09.86,98.74-9,20.61-12.31,20.16-16.37,26.67-1.15,1.43-9.23,11-9.23,11a30.54,30.54,0,0,1-3.46,2.87h.22v.11q3.94-.93,7.77-2.14c.05-.14.1-.27.15-.42,4.41-6.82,14.36-14.42,19-25.22,6.44-13.66,8-26.81,12.16-41.1" fill="#00aeef"/><path d="M193.69,120.13c.05-4,0-7.92-.3-11.63.09-5.38,0-10.66-2.42-14.76a62.39,62.39,0,0,0-6.74-15.08C172.71,59.74,151.79,45,132.74,36.27A15.82,15.82,0,0,0,129,34.59c-1-.43-2-.86-3-1.26-12.32-4.89-32-6-51.75-3l-1.64.26a136.26,136.26,0,0,0-24.18,6.15c-.8.29-1.58.59-2.37.89H46A106.92,106.92,0,0,0,25,48.33h0q-1.48,1-2.91,2a49.35,49.35,0,0,0-7.2,4.83v1A225.42,225.42,0,0,1,42.28,42.43a64.57,64.57,0,0,1,11.94-3.69c13.84-2.47,37.81-8.39,48-7.22.51.06,10.87,1.22,11.24,1.3a7.76,7.76,0,0,0,2.31.5,71.75,71.75,0,0,1,12.62,4.42c2.27,1.13,4.52,1.49,6.52,2.79a13.08,13.08,0,0,0,2.29,1.54C161.57,56.76,169,71.6,169,71.6a47.92,47.92,0,0,1,6.84,13.19c9.62,22,6.18,53.55-.43,81.85-2.07,7.71-6.59,23.55-10.69,31.09a97.87,97.87,0,0,1-15,16.8q5-1.87,9.74-4.2c5-6.39,10.66-11.62,14.31-20.67l5.57-17.5c5.93-25.12,6.28-47.35,6.5-69.52-3.63-17.77-8.77-22.64-12.65-32.48,7.15,5.76,10.2,13.63,12.61,21.82h0q.38,1.3.75,2.6a42.13,42.13,0,0,1,.92,5.8c2.14,29,2.64,78.94-18.47,104.26l-.68.84a111.13,111.13,0,0,0,12.12-8.53,55.3,55.3,0,0,0,3.94-6.54,298.31,298.31,0,0,0,9.34-69.19v-1.14" fill="#00aeef"/><path d="M158.1,151.54c2.41-6.31,2.83-17.8,2.83-17.8h0q2.15-20.32-2.63-37.06c-.25-4-2.72-9.18-9.27-19.55-31.7-40.87-79.91-24.25-94.58-15.39-6.36,3-12.54,6.29-18.7,9.65C24.75,77.89,2.3,96.29.9,96.6Q.34,101,.13,105.45c12.62-9.92,25.4-19.5,38.47-28.57C38.86,76,72.28,54,98.69,55.62c7.67-1.61,52.83.81,58.2,59.82a108.64,108.64,0,0,1,.16,18.93,71.54,71.54,0,0,1-1.3,8.15s-3.87,12.07-4.88,14c0,0-9.88,20.2-9.91,20.23s-18.35,25-20.11,26.75v3.56a14.68,14.68,0,0,0,.11,2.24c.38-.25.74-.51,1.1-.78,0,0,9.5-13.31,20.84-28.89,9.21-13.07,15.16-27.3,15.2-28.1" fill="#00aeef"/><path d="M120.85,197.19c13.53-12.47,27.4-43.77,29.15-49.06h0c1.61-4.69,3-9,3-10.08,0-.35-.22-4.73-.15-6.83,0,0-9.1,19.42-9.28,20-1.07,3.52-5,12.22-7.72,17.63a132.69,132.69,0,0,1-15,22.6v5.74Z" fill="#00aeef"/><path d="M101.77,83.74A14.34,14.34,0,0,0,90.32,85.5h0c-2.59,1.1-8.27,5.66-13.71,10.39l-1.82,1.59L72.54,99.3c-.75.47-9.53,6.86-10.41,7.48-9.52,6.63-22.32,18.1-27.52,22.44-6.85,5-13.68,10-20.29,15.38-.26.29-.52.57-.79.85l-.48.31-6,3.91v.11h0q.51,1.36,1.05,2.71c.08-.08.18-.15.27-.23,4.48-1.51,9.84-4.46,15.61-8.2l2.56-1.45,2.08-1.66c6.87-4.76,14.1-10.34,21-15.8,7.16-5.35,13.92-10.47,14-10.78,2.94-2.66,5.82-5.46,8.5-8.33,7.67-7,14.81-11.74,23.66-17.7,1.63-.91,3.84-2.06,5.77-1.8a3,3,0,0,1,1.7,1.82c-.22,1.81-1,2.41-1.43,2.54l-.57.16a4.11,4.11,0,0,0-.84.14c-2.58-.26-4.4.92-6,2.54l-.25.13A35,35,0,0,0,84.45,102h0l-.78.78c-20.33,18.86-51.22,40.5-65.59,48.92l-1.51.74-.36.18a46.4,46.4,0,0,0-6.72,3.16v.1h0q.88,2,1.83,3.92l.8-.52s8.59-4,16.34-8.3c.13,0,4.57-2.6,6.67-4h0c14.75-9.55,27.73-18.72,42.51-32.43.45-.42,1-1,1.58-1.64,3.65-3.65,6.42-7.56,8.25-9.12a2.46,2.46,0,0,1,1.35.3c-5.13,10.06-8.17,14.08-31.37,32.93-13.59,9.76-25.74,16.69-27.07,17.5-8.78,4.7-15.89,8.27-16.57,8.61l-.59.22.06.11h-.06c.48.89,1,1.76,1.47,2.64,6.33-2.79,23.9-10.18,33-16.38,24.72-18.38,35.24-21.69,45.89-46a6.38,6.38,0,0,1,.22-.68l.15-.47a25,25,0,0,1,5.1-7.18,10.49,10.49,0,0,1,3.56-1.48A10.11,10.11,0,0,1,113,99.42l.1.2c.1.2.19.4.28.61a18.51,18.51,0,0,1,1.26,6.16v1.09a46.46,46.46,0,0,1-2.76,15.26h0c.46-.15,5.56-2,5.56-2a47,47,0,0,0,1.28-11.1c0-9.21-2.9-21.47-17-25.85" fill="#00aeef"/><rect width="221.6" height="332.24" fill="none"/><path d="M123,319.08V308.44h3.71a7.12,7.12,0,0,1,1.65.18,3.53,3.53,0,0,1,1.24.53,2.38,2.38,0,0,1,.74.91,2.92,2.92,0,0,1,.27,1.29,2.67,2.67,0,0,1-.09.7,2.27,2.27,0,0,1-.27.63,2.3,2.3,0,0,1-.47.53,2.41,2.41,0,0,1-.68.39,2.35,2.35,0,0,1,.8.36,2.19,2.19,0,0,1,.86,1.23,2.91,2.91,0,0,1,.1.74,2.8,2.8,0,0,1-1,2.34,4.45,4.45,0,0,1-2.83.79H123Zm2.23-6.17h1.62a2,2,0,0,0,1.25-.36,1.19,1.19,0,0,0,.41-1,1.22,1.22,0,0,0-.42-1,2.23,2.23,0,0,0-1.33-.32H125.2v2.68Zm0,1.55v2.87h1.88a2.23,2.23,0,0,0,.74-.1,1.48,1.48,0,0,0,.51-.29,1.17,1.17,0,0,0,.3-.44,1.48,1.48,0,0,0,.1-.55,2,2,0,0,0-.09-.62,1.18,1.18,0,0,0-.27-.47,1.19,1.19,0,0,0-.48-.3,2.23,2.23,0,0,0-.74-.1h-1.94Z" fill="#00adef"/><path d="M141.34,308.44v7a4,4,0,0,1-.3,1.63,3.29,3.29,0,0,1-.85,1.18,3.59,3.59,0,0,1-1.29.74,5.67,5.67,0,0,1-3.27,0,3.58,3.58,0,0,1-1.29-.74,3.25,3.25,0,0,1-.85-1.18,4.07,4.07,0,0,1-.3-1.63v-7h2.23v7a2,2,0,0,0,.5,1.52,2.23,2.23,0,0,0,2.77,0,2,2,0,0,0,.49-1.52v-7h2.17Z" fill="#00adef"/><path d="M149.36,316.29a1.48,1.48,0,0,0-.08-.5,1,1,0,0,0-.31-.42,2.84,2.84,0,0,0-.64-.37,10.06,10.06,0,0,0-1-.39,12.9,12.9,0,0,1-1.37-.53,5.06,5.06,0,0,1-1.13-.69,3.07,3.07,0,0,1-.74-.91,2.51,2.51,0,0,1-.28-1.21,2.58,2.58,0,0,1,.29-1.22,2.74,2.74,0,0,1,.81-.94,4,4,0,0,1,1.24-.6,5.49,5.49,0,0,1,1.58-.22,5,5,0,0,1,1.6.24,3.71,3.71,0,0,1,1.23.68,3,3,0,0,1,.79,1,3.12,3.12,0,0,1,.27,1.32h-2.23a1.77,1.77,0,0,0-.1-.62,1.25,1.25,0,0,0-.33-.49,1.48,1.48,0,0,0-.55-.32,2.38,2.38,0,0,0-.74-.11,2.63,2.63,0,0,0-.74.1,1.48,1.48,0,0,0-.53.26,1.11,1.11,0,0,0-.31.39,1.12,1.12,0,0,0-.1.48,1,1,0,0,0,.53.88,6.06,6.06,0,0,0,1.57.66,10.33,10.33,0,0,1,1.53.6,4.56,4.56,0,0,1,1.11.74,2.84,2.84,0,0,1,.67.94,2.92,2.92,0,0,1,.23,1.17,2.75,2.75,0,0,1-.27,1.25,2.58,2.58,0,0,1-.74.92,3.71,3.71,0,0,1-1.22.58,5.86,5.86,0,0,1-1.59.2,6.13,6.13,0,0,1-1.05-.09,5,5,0,0,1-1-.28,4.35,4.35,0,0,1-.89-.47,3.27,3.27,0,0,1-.74-.68,3,3,0,0,1-.47-.88,3.3,3.3,0,0,1-.17-1.09h2.23a2,2,0,0,0,.16.82,1.4,1.4,0,0,0,.43.54,1.78,1.78,0,0,0,.66.3,3.63,3.63,0,0,0,.86.1,2.66,2.66,0,0,0,.74-.09,1.48,1.48,0,0,0,.52-.25,1,1,0,0,0,.3-.39A1.17,1.17,0,0,0,149.36,316.29Z" fill="#00adef"/><path d="M156.11,319.08h-2.23V308.44h2.23Z" fill="#00adef"/><path d="M167.52,319.08h-2.23l-4.27-7v7H158.8V308.44H161l4.27,7v-7h2.18v10.63Z" fill="#00adef"/><path d="M176.56,314.47h-4.21v2.85h4.94v1.76h-7.12V308.44h7.11v1.77h-4.92v2.53h4.21v1.71Z" fill="#00adef"/><path d="M184.82,316.29a1.48,1.48,0,0,0-.08-.5,1,1,0,0,0-.31-.42,2.84,2.84,0,0,0-.64-.37,10.06,10.06,0,0,0-1-.39,12.9,12.9,0,0,1-1.37-.53,5.06,5.06,0,0,1-1.13-.69,3.07,3.07,0,0,1-.74-.91,2.51,2.51,0,0,1-.28-1.21,2.58,2.58,0,0,1,.29-1.22,2.74,2.74,0,0,1,.81-.94,4,4,0,0,1,1.24-.6,5.49,5.49,0,0,1,1.58-.22,5,5,0,0,1,1.6.24,3.71,3.71,0,0,1,1.23.68,3,3,0,0,1,.79,1,3.12,3.12,0,0,1,.27,1.32h-2.23a1.77,1.77,0,0,0-.1-.62,1.25,1.25,0,0,0-.33-.49,1.48,1.48,0,0,0-.55-.32,2.38,2.38,0,0,0-.74-.11,2.63,2.63,0,0,0-.74.1,1.48,1.48,0,0,0-.53.26,1.11,1.11,0,0,0-.31.39,1.12,1.12,0,0,0-.1.48,1,1,0,0,0,.53.88,6.06,6.06,0,0,0,1.57.66,10.33,10.33,0,0,1,1.53.6,4.56,4.56,0,0,1,1.11.74,2.84,2.84,0,0,1,.67.94,2.92,2.92,0,0,1,.23,1.17,2.75,2.75,0,0,1-.27,1.25,2.58,2.58,0,0,1-.74.92,3.71,3.71,0,0,1-1.22.58,5.86,5.86,0,0,1-1.59.2,6.13,6.13,0,0,1-1.05-.09,5,5,0,0,1-1-.28,4.35,4.35,0,0,1-.89-.47,3.27,3.27,0,0,1-.74-.68,3,3,0,0,1-.47-.88,3.3,3.3,0,0,1-.17-1.09h2.23a2,2,0,0,0,.16.82,1.4,1.4,0,0,0,.43.54,1.78,1.78,0,0,0,.66.3,3.63,3.63,0,0,0,.86.1,2.66,2.66,0,0,0,.74-.09,1.48,1.48,0,0,0,.52-.25,1,1,0,0,0,.3-.39A1.17,1.17,0,0,0,184.82,316.29Z" fill="#00adef"/><path d="M194.77,316.29a1.48,1.48,0,0,0-.08-.5,1,1,0,0,0-.31-.42,2.84,2.84,0,0,0-.64-.37,10.06,10.06,0,0,0-1-.39,12.9,12.9,0,0,1-1.37-.53,5.06,5.06,0,0,1-1.13-.69,3.07,3.07,0,0,1-.74-.91,2.51,2.51,0,0,1-.28-1.21,2.58,2.58,0,0,1,.29-1.22,2.74,2.74,0,0,1,.81-.94,4,4,0,0,1,1.24-.6,5.49,5.49,0,0,1,1.58-.22,5,5,0,0,1,1.6.24,3.71,3.71,0,0,1,1.23.68,3,3,0,0,1,.79,1,3.12,3.12,0,0,1,.29,1.29h-2.23a1.77,1.77,0,0,0-.1-.62,1.25,1.25,0,0,0-.33-.49,1.48,1.48,0,0,0-.55-.32A2.38,2.38,0,0,0,193,310a2.63,2.63,0,0,0-.74.1,1.48,1.48,0,0,0-.53.26,1.11,1.11,0,0,0-.31.39,1.12,1.12,0,0,0-.1.48,1,1,0,0,0,.53.88,6.06,6.06,0,0,0,1.57.66,10.33,10.33,0,0,1,1.53.6,4.56,4.56,0,0,1,1.11.74,2.84,2.84,0,0,1,.67.94,2.92,2.92,0,0,1,.23,1.17,2.75,2.75,0,0,1-.27,1.25,2.58,2.58,0,0,1-.74.92,3.71,3.71,0,0,1-1.22.58,5.86,5.86,0,0,1-1.59.2,6.13,6.13,0,0,1-1.05-.09,5,5,0,0,1-1-.28,4.35,4.35,0,0,1-.89-.47,3.27,3.27,0,0,1-.74-.68,3,3,0,0,1-.47-.88,3.3,3.3,0,0,1-.17-1.09h2.23a2,2,0,0,0,.16.82,1.4,1.4,0,0,0,.43.54,1.78,1.78,0,0,0,.66.3,3.63,3.63,0,0,0,.86.1,2.66,2.66,0,0,0,.74-.09,1.48,1.48,0,0,0,.52-.25,1,1,0,0,0,.3-.39A1.16,1.16,0,0,0,194.77,316.29Z" fill="#00adef"/></g></g></svg>