<?xml version="1.0" encoding="utf-8"?>
<!-- Generator: Adobe Illustrator 21.0.0, SVG Export Plug-In . SVG Version: 6.00 Build 0)  -->
<svg version="1.1" id="Layer_1" xmlns="http://www.w3.org/2000/svg" xmlns:xlink="http://www.w3.org/1999/xlink" x="0px" y="0px"
	 viewBox="0 0 90 50.3" style="enable-background:new 0 0 90 50.3;" xml:space="preserve">
<style type="text/css">
	.st0{fill:#00ADEF;}
</style>
<title>regit-light</title>
<path class="st0" d="M70.2,13.6c0.9,0,1.7-0.4,2.2-1c0.7-0.7,1-1.6,1-2.5c0-0.6-0.2-1.2-0.6-1.6c-0.5-0.4-1.1-0.6-1.7-0.6
	c-0.8,0-1.6,0.4-2.1,1.1c-0.7,0.7-1,1.6-1,2.5c0,0.6,0.2,1.1,0.6,1.5C69.1,13.5,69.7,13.7,70.2,13.6z"/>
<path class="st0" d="M89.9,10.5c-0.1-0.1-0.2-0.1-0.3-0.1h-2.9l1-2.2c1.3-3.2,2-5.4,2-6.8c0-0.4-0.1-0.7-0.3-1
	C89.1,0.2,88.8,0,88.5,0c-0.9,0.1-1.7,0.5-2.2,1.2c-1.1,1.3-2.3,4.4-3.7,9.3h-3.7c-0.6,0-1.1,0.1-1.5,0.5c-0.4,0.5-0.6,1.1-0.5,1.7
	c-0.1,0.4,0.1,0.9,0.6,1c0.1,0,0.3,0,0.4,0h3.5c-0.5,1.2-1.2,2.7-1.9,4.5l0,0c-0.3,0.8-0.7,1.5-1.2,2.1c-1.5,1.5-2.6,2.5-3.4,3.2
	c-0.9,0.8-3.5,2.9-3.5,2.9c-3.2,2.7-5.2,4.1-5.8,4.1c-0.1,0-0.2,0-0.3-0.1c-0.1-0.1-0.1-0.2-0.1-0.3c0-0.4,0.2-0.8,0.4-1.1l5.3-12.2
	h-4.2c-0.5,1-0.9,2-1.3,2.9c-2.2,2.3-4.6,4.5-7.1,6.6l0,0c-3,2.3-5.7,4.9-8.3,7.6c1.5-3.8,3.3-7.6,5.3-11.2h-4.4
	c-1.2,2.6-2.9,4.9-5,6.9c-0.9,0.9-2,1.5-3.3,1.6c-0.5,0-0.9-0.2-1.1-0.6C41.1,30,41,29.2,41,28.5c0-2.4,0.9-4.6,2.7-6.2
	c1.8-1.7,4.3-2.5,7.6-2.5c0.8,0,1.7,0.1,2.5,0.2c0.4,0.1,0.8,0.1,1.2,0.2c0.2,0.1,0.4,0,0.5-0.2c0-0.1,0-0.1,0-0.2
	c0-0.5-0.1-0.9-0.2-1.4c-0.2-0.4-0.3-1-0.3-1.5c-1-0.2-2-0.3-3.1-0.3c-5,0-8.8,1.2-11.4,3.5c-1.6,1.3-2.7,3-3.4,4.9c0,0,0,0,0,0.1
	S37,25.3,37,25.4c-0.1,0.2-0.3,0.4-0.5,0.6l-0.3,0.2c-1.7,1.7-3.6,3.2-5.7,4.4c-1.2,0.6-2.6,1-3.9,1c-0.8,0.1-1.6-0.1-2.3-0.6
	c-0.5-0.5-0.8-1.2-0.8-1.9c2.1-0.3,4.1-0.8,6-1.5s3.6-1.9,4.9-3.4c1-1.1,1.5-2.5,1.6-4c0-1.1-0.4-2.1-1.2-2.8
	c-0.9-0.8-2.1-1.2-3.3-1.1c-2.8,0.1-5.5,1.1-7.7,2.8c-2,1.4-3.5,3.4-4.3,5.7c-0.2,0.5-0.5,1-1,1.3l-0.2,0.1
	c-3.1,2.8-4.9,4.1-5.7,4.1c-0.1,0-0.2,0-0.2-0.1c-0.1-0.1-0.1-0.2-0.1-0.3c0-0.3,0.1-0.5,0.2-0.7l0.4-1c0.4-0.9,0.8-1.8,1.2-2.7
	c1.7-3.7,2.6-5.9,2.6-6.6c0-0.6-0.3-1.2-0.8-1.6c-1-0.6-2.2-0.9-3.3-0.8h-0.9h-1v-0.2c0-0.4,0.1-0.6,0.1-0.8c0-0.7-0.2-1.3-0.6-1.8
	C9.7,13.2,9.1,13,8.5,13c-0.8,0-1.5,0.3-2,0.8c-0.6,0.6-0.8,1.5-0.8,2.3s0.3,1.6,0.7,2.3c-0.9,1.5-1.9,3-3.1,4.4
	c-1,1.1-2.2,2.1-3.4,3v4.1c2-1.5,3.8-3.2,5.4-5c1.5-1.6,2.8-3.3,3.8-5.2c0.5-0.1,0.9-0.1,1.4-0.1c0.4,0,0.8,0.1,1.1,0.3
	c0.2,0.2,0.3,0.4,0.3,0.7c0,0.6-0.7,2.3-2.1,5.1C7.9,29.5,7,31.9,7,32.8c0,0.5,0.3,1,0.7,1.3c0.5,0.4,1.1,0.6,1.7,0.6
	c1.4-0.1,2.9-0.6,4.1-1.3c2-1,3.8-2.3,5.4-3.9c0.1,1.3,0.7,2.5,1.6,3.5c1.1,1.1,2.9,1.7,5.3,1.7c1.6,0,3.2-0.3,4.7-1
	c2.1-1.2,4.1-2.6,5.8-4.2c0.1,1.3,0.5,2.6,1.3,3.6c0.7,1,1.9,1.7,3.1,1.7c1,0,1.9-0.3,2.8-0.8c1.3-0.9,2.4-2,3.4-3.3
	c-0.3,1.2-0.7,2.3-1.2,3.4c-0.9,1.6-1.9,3.2-3,4.7C39.8,43,38.3,46,38.3,48c0,0.5,0.1,1,0.5,1.4c0.3,0.3,0.8,0.5,1.3,0.5
	c0.9,0,1.8-0.5,2.3-1.1c1-1,2.2-3.4,3.7-7l1.2-2.9c1.3-1.3,2.5-2.3,3.4-3.1s2.8-2.3,5.4-4.3L58,30l0.5-0.4l0.2-0.2l0,0l3.2-2.7
	c-1.7,3.4-2.6,5.6-2.6,6.5c0,0.5,0.2,0.9,0.6,1.1c0.5,0.4,1.1,0.5,1.7,0.5c1.4,0,2.8-0.4,4-1c2.2-1.2,4.3-2.7,6.2-4.3l0,0
	c1.1-0.9,2.2-1.9,3.2-3c0.4-0.5,0.8-0.9,1.2-1.2c-0.4,1.1-0.8,2-1.1,2.8l-0.6,1.3c-0.6,1.2-1,2.5-1.2,3.8c0,0.5,0.2,0.9,0.6,1.2
	c0.5,0.4,1.1,0.6,1.6,0.5c3.3,0,7.2-1.8,11.9-5.3v-4c-1.1,0.9-2.2,1.7-3.3,2.5c-1.4,0.9-2.8,1.7-4.2,2.4c-0.3,0.2-0.6,0.3-1,0.3
	c-0.1,0-0.2,0-0.3-0.1c-0.1-0.1-0.1-0.2-0.1-0.3c0-0.4,0.1-0.8,0.3-1.1l6.4-15.7h2.9c0.3,0,0.5,0,0.8-0.1c0.1-0.1,0.2-0.2,0.3-0.3
	l0.4-1.2c0.2-0.4,0.2-0.9,0.3-1.3C90,10.6,90,10.5,89.9,10.5z M27.1,21.5c0.9-0.8,2.1-1.4,3.3-1.5c0.4,0,0.7,0.1,1,0.4
	s0.4,0.7,0.4,1.1c-0.1,0.9-0.5,1.7-1.3,2.2c-1.2,1-3.4,1.8-6.6,2.4C24.5,24.3,25.7,22.7,27.1,21.5L27.1,21.5z"/>
</svg>
