<svg xmlns="http://www.w3.org/2000/svg" viewBox="0 0 19.26 17.38"><title>responsive-nav-syncs</title><g id="Layer_2" data-name="Layer 2"><g id="Layer_1-2" data-name="Layer 1"><path id="_Path_" data-name="&lt;Path&gt;" d="M15.8,10.94a6.56,6.56,0,0,1-11,2.18l2.43-2a.43.43,0,0,0-.2-.75L.54,9.22a.43.43,0,0,0-.5.42l0,6.58a.43.43,0,0,0,.7.33l2.45-2.06A8.69,8.69,0,0,0,17.8,11.67a1.07,1.07,0,0,0-2-.73Z"/><path id="_Path_2" data-name="&lt;Path&gt;" d="M18.56.84,16.1,2.9A8.69,8.69,0,0,0,1.45,5.72a1.07,1.07,0,0,0,2,.73,6.56,6.56,0,0,1,11-2.18L12,6.31a.43.43,0,0,0,.2.75l6.49,1.1a.43.43,0,0,0,.5-.42l0-6.58A.43.43,0,0,0,18.56.84Z"/></g></g></svg>