<svg xmlns="http://www.w3.org/2000/svg" width="44" height="31" viewBox="0 0 44 31">
  <metadata><?xpacket begin="﻿" id="W5M0MpCehiHzreSzNTczkc9d"?>
<x:xmpmeta xmlns:x="adobe:ns:meta/" x:xmptk="Adobe XMP Core 5.6-c138 79.159824, 2016/09/14-01:09:01        ">
   <rdf:RDF xmlns:rdf="http://www.w3.org/1999/02/22-rdf-syntax-ns#">
      <rdf:Description rdf:about=""/>
   </rdf:RDF>
</x:xmpmeta>
                                                                                                    
                                                                                                    
                                                                                                    
                                                                                                    
                                                                                                    
                                                                                                    
                                                                                                    
                                                                                                    
                                                                                                    
                                                                                                    
                                                                                                    
                                                                                                    
                                                                                                    
                                                                                                    
                                                                                                    
                                                                                                    
                                                                                                    
                                                                                                    
                                                                                                    
                                                                                                    
                           
<?xpacket end="w"?></metadata>
<defs>
    <style>
      .cls-1 {
        fill: #252525;
        fill-rule: evenodd;
      }
    </style>
  </defs>
  <path class="cls-1" d="M1190.9,2685.57c-0.48-1.1-2.3-1.48-5.59-1.13a0.676,0.676,0,0,0-.63.72,0.7,0.7,0,0,0,.78.56c3.13-.33,4.04.13,4.13,0.33,0.12,0.29-.51,1.59-4.83,4.09a93.874,93.874,0,0,1-14.43,6.46,97.01,97.01,0,0,1-15.36,4.32c-5.02.87-6.44,0.31-6.56,0.02-0.09-.21.28-1.17,3.05-3a0.605,0.605,0,0,0,.16-0.9,0.739,0.739,0,0,0-.98-0.14c-2.87,1.89-4.03,3.37-3.54,4.52,0.38,0.89,1.65,1.31,3.84,1.25a29.356,29.356,0,0,0,4.28-.49,97.7,97.7,0,0,0,15.62-4.38,96.038,96.038,0,0,0,14.67-6.57C1189.72,2688.79,1191.48,2686.94,1190.9,2685.57Zm-36.06,13.2v0.01a88.1,88.1,0,0,0,28.38-10.37l0.32-.11a15.427,15.427,0,0,0-29.98,5.19,15.672,15.672,0,0,0,.96,5.4Zm18.36-10.22a9.96,9.96,0,0,1,.84,3.61c0,0.71-1.3,1.41-1.82.71s-0.7-2.39-1.82-1.84-2.94-1.4-3.36-1.4a0.788,0.788,0,0,1-.84-1.08,2.6,2.6,0,0,0-.7-2.14,7.746,7.746,0,0,0-2.53-.02,1.93,1.93,0,0,1-2.24-1.6c0-1.05,1.12-1.21.98-1.63s1.26-1.13,1.26-1.13,1.96,0.56,1.96-.84,0.99-1.41.99-1.41h2.63s1.15-.7,1.29,0a14.77,14.77,0,0,0,1.39,2.67,10.078,10.078,0,0,1,2.11-.98c0.42,0,.7,1.83.7,1.83s-0.84,1.97-1.26,1.49-1.55,0-1.55,0a10.4,10.4,0,0,1-1.53,1.68C1169.28,2686.69,1172.78,2688.08,1173.2,2688.55Zm10.57,5.5a89.232,89.232,0,0,1-12.54,5.61c-4.75,1.74-13.8,4.1-13.8,4.1A15.408,15.408,0,0,0,1169,2709a15.568,15.568,0,0,0,15.43-15.12v-0.39Zm-18.36,13.84c-0.07-.22-0.13-0.45-0.19-0.67-0.29-.98,1.12-1.4,1.12-1.4a1.215,1.215,0,0,0,1.05-.85,3.356,3.356,0,0,1,2.17-2.77,1.149,1.149,0,0,1,1.67.94l0.57-.94h1.4l0.84-1.19,2.24,0.55-0.47.64h-1.21l0.14,0.8-0.14,1.41-1.4-.14-1.26,1.33,0.7,1.34,1.02,0.63a14.464,14.464,0,0,1-4.66.78A14.305,14.305,0,0,1,1165.41,2707.89Z" transform="translate(-1147 -2678)"/>
</svg>
