<svg xmlns="http://www.w3.org/2000/svg" viewBox="0 0 206.24 156.65"><title>responsive-nav-interactions</title><g id="Layer_2" data-name="Layer 2"><g id="Layer_1-2" data-name="Layer 1"><path id="_Compound_Path_" data-name="&lt;Compound Path&gt;" d="M152.72,9.9,155,1.44A1.15,1.15,0,0,0,153.56,0l-25.3,6.83a1.15,1.15,0,0,0-.51,1.92l18.57,18.49a1.15,1.15,0,0,0,1.92-.52l2.23-8.39a61.42,61.42,0,1,1-38.58,116.17,70.17,70.17,0,0,0,0-113l.13-.05a50.76,50.76,0,0,0-8.83-5.46l-.06,0-.59-.3-.31-.11v0a70.18,70.18,0,1,0-47.3,130.93l-1.41,8.76A1.15,1.15,0,0,0,55,156.58l24.49-9.33a1.15,1.15,0,0,0,.32-2L59.53,128.75a1.15,1.15,0,0,0-1.85.71l-1.36,8.44a61.43,61.43,0,1,1,38-116.31,70.17,70.17,0,0,0,0,113l0,0c1.2.94,5.46,4.22,8.68,5.53l.13-.06A70.18,70.18,0,1,0,152.72,9.9Zm-49.6,16.34a61.21,61.21,0,0,1,5.52,4l-20.58,9.6A61.43,61.43,0,0,1,103.12,26.24Zm-23.24,27,35.63-16.62a61.79,61.79,0,0,1,6,7.72L75.88,65.67A61.47,61.47,0,0,1,79.89,53.29ZM74.6,78.07c0-.72,0-1.43.07-2.15l51.14-23.84A61.63,61.63,0,0,1,129.18,61l-54,25.2A60.81,60.81,0,0,1,74.6,78.07ZM77,95l54-25.2a60.87,60.87,0,0,1,.57,8.25c0,.68,0,1.36-.07,2L80.4,104A61.63,61.63,0,0,1,77,95Zm13.62,24.36a61.83,61.83,0,0,1-6-7.72l45.73-21.32a61.46,61.46,0,0,1-4,12.37Zm6.87,6.48,20.81-9.7a61.43,61.43,0,0,1-15.21,13.73A61.13,61.13,0,0,1,97.52,125.86Z"/></g></g></svg>