<svg xmlns="http://www.w3.org/2000/svg" width="30" height="30" viewBox="0 0 30 30">
  <metadata><?xpacket begin="﻿" id="W5M0MpCehiHzreSzNTczkc9d"?>
<x:xmpmeta xmlns:x="adobe:ns:meta/" x:xmptk="Adobe XMP Core 5.6-c138 79.159824, 2016/09/14-01:09:01        ">
   <rdf:RDF xmlns:rdf="http://www.w3.org/1999/02/22-rdf-syntax-ns#">
      <rdf:Description rdf:about=""/>
   </rdf:RDF>
</x:xmpmeta>
                                                                                                    
                                                                                                    
                                                                                                    
                                                                                                    
                                                                                                    
                                                                                                    
                                                                                                    
                                                                                                    
                                                                                                    
                                                                                                    
                                                                                                    
                                                                                                    
                                                                                                    
                                                                                                    
                                                                                                    
                                                                                                    
                                                                                                    
                                                                                                    
                                                                                                    
                                                                                                    
                           
<?xpacket end="w"?></metadata>
<defs>
    <style>
      .cls-1 {
        fill: #252525;
        fill-rule: evenodd;
      }
    </style>
  </defs>
  <path class="cls-1" d="M1184.78,3040.42h-1.52a1.2,1.2,0,0,1-1.12-.75c-0.06-.16-0.13-0.31-0.2-0.47a1.2,1.2,0,0,1,.26-1.33l1.08-1.07a1.225,1.225,0,0,0,0-1.72l-3.35-3.35a1.207,1.207,0,0,0-1.72,0l-1.08,1.07a1.2,1.2,0,0,1-1.33.26c-0.15-.07-0.31-0.13-0.47-0.2a1.211,1.211,0,0,1-.75-1.12v-1.51a1.21,1.21,0,0,0-1.21-1.22h-4.74a1.218,1.218,0,0,0-1.22,1.22v1.51a1.2,1.2,0,0,1-.74,1.12c-0.16.07-.32,0.13-0.47,0.2a1.2,1.2,0,0,1-1.33-.26l-1.08-1.07a1.207,1.207,0,0,0-1.72,0l-3.35,3.35a1.225,1.225,0,0,0,0,1.72l1.08,1.07a1.2,1.2,0,0,1,.26,1.33c-0.07.16-.14,0.31-0.2,0.47a1.2,1.2,0,0,1-1.12.75h-1.52a1.208,1.208,0,0,0-1.21,1.21v4.74a1.216,1.216,0,0,0,1.21,1.22h1.52a1.2,1.2,0,0,1,1.12.75c0.06,0.15.13,0.31,0.2,0.46a1.2,1.2,0,0,1-.26,1.33l-1.08,1.08a1.225,1.225,0,0,0,0,1.72l3.35,3.35a1.225,1.225,0,0,0,1.72,0l1.08-1.08a1.2,1.2,0,0,1,1.33-.26c0.15,0.07.31,0.14,0.47,0.2a1.2,1.2,0,0,1,.74,1.12v1.52a1.225,1.225,0,0,0,1.22,1.22h4.74a1.216,1.216,0,0,0,1.21-1.22v-1.52a1.211,1.211,0,0,1,.75-1.12c0.16-.06.32-0.13,0.47-0.2a1.2,1.2,0,0,1,1.33.26l1.08,1.08a1.225,1.225,0,0,0,1.72,0l3.35-3.35a1.225,1.225,0,0,0,0-1.72l-1.08-1.08a1.2,1.2,0,0,1-.26-1.33c0.07-.15.14-0.31,0.2-0.46a1.2,1.2,0,0,1,1.12-.75h1.52a1.216,1.216,0,0,0,1.21-1.22v-4.74A1.208,1.208,0,0,0,1184.78,3040.42ZM1171,3051.03a7.025,7.025,0,1,1,7.02-7.03A7.025,7.025,0,0,1,1171,3051.03Z" transform="translate(-1156 -3029)"/>
</svg>
