<svg xmlns="http://www.w3.org/2000/svg" width="42" height="26" viewBox="0 0 42 26">
  <metadata><?xpacket begin="﻿" id="W5M0MpCehiHzreSzNTczkc9d"?>
<x:xmpmeta xmlns:x="adobe:ns:meta/" x:xmptk="Adobe XMP Core 5.6-c138 79.159824, 2016/09/14-01:09:01        ">
   <rdf:RDF xmlns:rdf="http://www.w3.org/1999/02/22-rdf-syntax-ns#">
      <rdf:Description rdf:about=""/>
   </rdf:RDF>
</x:xmpmeta>
                                                                                                    
                                                                                                    
                                                                                                    
                                                                                                    
                                                                                                    
                                                                                                    
                                                                                                    
                                                                                                    
                                                                                                    
                                                                                                    
                                                                                                    
                                                                                                    
                                                                                                    
                                                                                                    
                                                                                                    
                                                                                                    
                                                                                                    
                                                                                                    
                                                                                                    
                                                                                                    
                           
<?xpacket end="w"?></metadata>
<defs>
    <style>
      .cls-1 {
        fill: #252525;
        fill-rule: evenodd;
      }
    </style>
  </defs>
  <path class="cls-1" d="M1172.63,2839.59a22.67,22.67,0,0,0-3.94-1.04c-1.62-.28-2.39-0.31-2.88-1.34-0.78-1.65-.19-1.52.38-2.85a0.142,0.142,0,0,0,.02-0.06,5.465,5.465,0,0,0,.39-0.59,7.007,7.007,0,0,0,1.26-3.36,31.779,31.779,0,0,1,.33-3.25,6.872,6.872,0,0,0-.46-3.99c-0.31-.54-2.84-2-5.31-2.12a8.769,8.769,0,0,0-4.76,1.48c-1.45.95-1.25,3.99-1.11,4.59,0.04,0.18.07,0.35,0.09,0.5a3.819,3.819,0,0,1-.01.97,8.575,8.575,0,0,0,1.85,5.62c0.05,0.06.1,0.11,0.15,0.17,0,0.01.01,0.03,0.01,0.04,0.57,1.33,1.17,1.2.38,2.85-0.65,1.36-1.74.94-4.69,1.7a21.172,21.172,0,0,0-2.08.64c-2.16.54-2.97,4.99-3.26,7.45h26.88C1175.62,2844.65,1174.86,2840.47,1172.63,2839.59Zm15.55,0.93a19.431,19.431,0,0,0-3.45-.91c-1.42-.25-2.09-0.28-2.52-1.18-0.69-1.44-.17-1.33.33-2.49a0.169,0.169,0,0,0,.02-0.05,5.127,5.127,0,0,0,.34-0.52,6.134,6.134,0,0,0,1.1-2.94,28.232,28.232,0,0,1,.29-2.85,5.947,5.947,0,0,0-.4-3.48,7.771,7.771,0,0,0-4.65-1.87,7.65,7.65,0,0,0-4.16,1.3c-1.27.83-1.1,3.49-.98,4.02a4.138,4.138,0,0,1,.08.44,2.965,2.965,0,0,1-.01.85,7.532,7.532,0,0,0,1.62,4.91c0.04,0.05.09,0.1,0.13,0.15a0.227,0.227,0,0,1,.01.04c0.5,1.16,1.02,1.05.34,2.49a1.512,1.512,0,0,1-.95.81c1.33,1.54,2.19,4.06,2.56,7.57l0.02,0.19h13.11C1190.79,2844.95,1190.13,2841.29,1188.18,2840.52Z" transform="translate(-1149 -2821)"/>
</svg>
