<svg xmlns="http://www.w3.org/2000/svg" width="39" height="29.91" viewBox="0 0 39 29.91">
  <metadata><?xpacket begin="﻿" id="W5M0MpCehiHzreSzNTczkc9d"?>
<x:xmpmeta xmlns:x="adobe:ns:meta/" x:xmptk="Adobe XMP Core 5.6-c138 79.159824, 2016/09/14-01:09:01        ">
   <rdf:RDF xmlns:rdf="http://www.w3.org/1999/02/22-rdf-syntax-ns#">
      <rdf:Description rdf:about=""/>
   </rdf:RDF>
</x:xmpmeta>
                                                                                                    
                                                                                                    
                                                                                                    
                                                                                                    
                                                                                                    
                                                                                                    
                                                                                                    
                                                                                                    
                                                                                                    
                                                                                                    
                                                                                                    
                                                                                                    
                                                                                                    
                                                                                                    
                                                                                                    
                                                                                                    
                                                                                                    
                                                                                                    
                                                                                                    
                                                                                                    
                           
<?xpacket end="w"?></metadata>
<defs>
    <style>
      .cls-1 {
        fill: #252525;
        fill-rule: evenodd;
      }
    </style>
  </defs>
  <path class="cls-1" d="M1161.87,2901.72h25.05a2.837,2.837,0,1,0,0-5.66h-25.05A2.837,2.837,0,1,0,1161.87,2901.72Zm25.05,2.43h-25.05a2.833,2.833,0,1,0,0,5.65h25.05A2.833,2.833,0,1,0,1186.92,2904.15Zm0,8.08h-25.05a2.833,2.833,0,1,0,0,5.65h25.05A2.833,2.833,0,1,0,1186.92,2912.23Zm0,8.08h-25.05a2.837,2.837,0,1,0,0,5.66h25.05A2.837,2.837,0,1,0,1186.92,2920.31Zm-35.04-23.41a2.768,2.768,0,0,0-.91,1.98,2.733,2.733,0,0,0,.91,1.98,3.051,3.051,0,0,0,2.14.86,2.978,2.978,0,0,0,2.18-.86,2.733,2.733,0,0,0,.91-1.98,2.768,2.768,0,0,0-.91-1.98A3.285,3.285,0,0,0,1151.88,2896.9Zm0,8.07a2.664,2.664,0,0,0,0,4.01,3.117,3.117,0,0,0,2.14.8,3.331,3.331,0,0,0,2.18-.8,2.935,2.935,0,0,0,.91-2.03,2.86,2.86,0,0,0-.91-1.98A3.381,3.381,0,0,0,1151.88,2904.97Zm0,8.11a2.723,2.723,0,0,0-.86,1.99,2.917,2.917,0,0,0,.86,2.03,3.351,3.351,0,0,0,2.18.8,3.159,3.159,0,0,0,2.14-.85,2.768,2.768,0,0,0,.91-1.98,2.935,2.935,0,0,0-.91-2.03A3.285,3.285,0,0,0,1151.88,2913.08Zm0,8.03a2.935,2.935,0,0,0-.91,2.03,2.768,2.768,0,0,0,.91,1.98,2.942,2.942,0,0,0,2.14.85,3.136,3.136,0,0,0,2.18-.85,2.718,2.718,0,0,0,.86-1.98,2.685,2.685,0,0,0-.86-1.98A3.446,3.446,0,0,0,1151.88,2921.11Z" transform="translate(-1150.97 -2896.06)"/>
</svg>
