<svg xmlns="http://www.w3.org/2000/svg" viewBox="0 0 328.98 264"><title>responsive-nav-vault</title><g id="Layer_2" data-name="Layer 2"><g id="Layer_1-2" data-name="Layer 1"><path d="M317.87,0H40.46A11.11,11.11,0,0,0,29.35,11.12V52.93H5.56A5.56,5.56,0,0,0,0,58.48v45.19a5.56,5.56,0,0,0,5.56,5.56H29.35v45.54H5.56A5.56,5.56,0,0,0,0,160.33v45.19a5.56,5.56,0,0,0,5.56,5.56H29.35v41.81A11.12,11.12,0,0,0,40.46,264H317.87A11.11,11.11,0,0,0,329,252.89V11.12A11.11,11.11,0,0,0,317.87,0ZM192.46,155.75l35,35a11.11,11.11,0,1,1-15.72,15.72l-35-35a48.62,48.62,0,0,1-51,0l-35,35A11.11,11.11,0,0,1,75,190.76l35-35a48.63,48.63,0,0,1,0-51l-35-35A11.11,11.11,0,0,1,90.71,54l35,35a48.62,48.62,0,0,1,51,0l35-35a11.11,11.11,0,0,1,15.72,15.72l-35,35A48.63,48.63,0,0,1,192.46,155.75Zm102.72,18.38a8.33,8.33,0,1,1-16.67,0V78.36a8.33,8.33,0,1,1,16.67,0Z"/><circle cx="152.34" cy="130.59" r="26.75"/></g></g></svg>