<?xml version="1.0" encoding="utf-8"?>
<!-- Generator: Adobe Illustrator 21.0.0, SVG Export Plug-In . SVG Version: 6.00 Build 0)  -->
<svg version="1.1" id="Capa_1" xmlns="http://www.w3.org/2000/svg" xmlns:xlink="http://www.w3.org/1999/xlink" x="0px" y="0px"
	 viewBox="0 0 58 58" style="enable-background:new 0 0 58 58;" xml:space="preserve">
<style type="text/css">
	.st0{fill:#FFFFFF;}
</style>
<path class="st0" d="M53,3.3H5c-2.7,0-5,2.3-5,5v33c0,2.7,2.3,5,5,5h2h6h2v8.4l8.2-9.1l5-5.8c0.4-0.4,1-0.5,1.4-0.1
	c0.4,0.4,0.5,1,0.1,1.4l-4.4,5.2H53c2.7,0,5-2.3,5-5v-33C58,5.6,55.7,3.3,53,3.3z M26,18.3H11c-0.6,0-1-0.4-1-1s0.4-1,1-1h15
	c0.6,0,1,0.4,1,1S26.6,18.3,26,18.3z M45,26.3H11c-0.6,0-1-0.4-1-1s0.4-1,1-1h34c0.6,0,1,0.4,1,1S45.6,26.3,45,26.3z M45,34.3H11
	c-0.6,0-1-0.4-1-1s0.4-1,1-1h34c0.6,0,1,0.4,1,1S45.6,34.3,45,34.3z"/>
</svg>
