<svg xmlns="http://www.w3.org/2000/svg" viewBox="0 0 372 372"><title>social-action-link-hi</title><g id="Layer_2" data-name="Layer 2"><g id="Capa_1" data-name="Capa 1"><circle cx="186" cy="186" r="186" fill="#689f38"/><g id="Link"><path d="M202.17,152.86a10.5,10.5,0,0,0-11.34,17.68,35,35,0,0,1,5.92,54.21l-42,42a35,35,0,1,1-49.5-49.49l19.92-19.93a10.5,10.5,0,1,0-14.84-14.85L90.41,202.41a56,56,0,1,0,79.19,79.18l42-42a56,56,0,0,0-9.43-86.73ZM242,74a55.61,55.61,0,0,0-39.6,16.41l-42,42a56,56,0,0,0,9.43,86.73,10.5,10.5,0,0,0,11.34-17.68,35,35,0,0,1-5.92-54.21l42-42a35,35,0,1,1,49.5,49.49l-19.92,19.92a10.5,10.5,0,0,0,14.85,14.85l19.92-19.93A56,56,0,0,0,242,74Z" fill="#fff"/></g></g></g></svg>