<svg xmlns="http://www.w3.org/2000/svg" viewBox="0 0 24.83 24.52"><title>stamp-regit</title><path d="M199.31,2056.4a0.94,0.94,0,0,1,.49-0.27h0a4.86,4.86,0,0,0-2.47-5.11c-0.32-.12-0.46-0.11-0.48,0a0.2,0.2,0,0,0,.06.17,1,1,0,0,0,.41.31,3.3,3.3,0,0,1,1.67,2,8.14,8.14,0,0,1,.32,2.94h0Z" transform="translate(-184.57 -2042.61)" fill="#00aeef"/><path d="M198.11,2058.2h0l0.64-1a0,0,0,0,0,0,0,13.75,13.75,0,0,0,.15-1.75,4.15,4.15,0,0,0-1.05-3.17,3.39,3.39,0,0,0-.94-0.68,2.11,2.11,0,0,1-.24-0.25l0-.06c-1.41-.63-2.67.26-3.74,0.76a72.89,72.89,0,0,0-6.82,5.58l-0.28.24-0.72.65h0l0.12,0.39h0l0,0.13,0.6-.45a13.38,13.38,0,0,0,1.12-.86c0.8-.62,1.72-1.59,2.42-2.15,1.25-1,2.36-1.68,3.17-2.35,0.56-.41,1-0.88,1.37-1.06a2.68,2.68,0,0,1,3.94.82,4.59,4.59,0,0,1,.56,2.33,6.64,6.64,0,0,1-.29,1.91v1h0Z" transform="translate(-184.57 -2042.61)" fill="#00aeef"/><path d="M200.14,2066.41l0.34-.44a12.94,12.94,0,0,0,3.05-9.06,8.3,8.3,0,0,0-.65-4.63,6.08,6.08,0,0,0-.33-0.71q-0.14-.27-0.31-0.52a6.8,6.8,0,0,0-1.43-1.62,9.1,9.1,0,0,0-1-.83h0a5.28,5.28,0,0,0-.47-0.3l-0.1-.06h0c-0.52-.3-1.11-0.58-1.11-0.58a8.67,8.67,0,0,0-.89-0.2,9.44,9.44,0,0,0-1.13-.12,9.55,9.55,0,0,0-1.16,0,0.28,0.28,0,0,0-.15,0l-0.14,0s-3.86.61-5.43,1.56c-0.39.15-.73,0.4-1.11,0.57a16.39,16.39,0,0,0-3.06,2.25c-0.08.33-.26,0.92-0.31,1.26,0,0,2.44-2.13,3.32-2.7a22.49,22.49,0,0,1,2.74-1.49,19,19,0,0,1,4.73-1c0.21,0,2.9-.61,5.76,3,1.63,1.48,1.94,3.64,1.8,6,0,0.07,0,.35-0.07.75,0,0,0,.31-0.11.88a11.78,11.78,0,0,1-1.19,3.14,26.45,26.45,0,0,1-1.93,3.1,1.08,1.08,0,0,0-.16.19l-0.4.59c-0.09.14-1.06,1-.91,0.9a0.41,0.41,0,0,0-.07.09l0,0.06a0.89,0.89,0,0,0,.19.22h0a10.13,10.13,0,0,0,1.05-.91c0.22-.35.74-1.06,1.12-1.52,0.18-.27.53-1,0.69-1.26,0.38-.61,1.27-2.53,1.54-3-0.07.26-.63,1.73-0.71,2a11.37,11.37,0,0,1-2.56,4.16s-0.6.59-.77,0.74h0a4.28,4.28,0,0,0,.45.1h0l0.16,0h0S199.94,2066.65,200.14,2066.41Z" transform="translate(-184.57 -2042.61)" fill="#00aeef"/><path d="M209.4,2055h0c0-.19-0.07-0.39-0.1-0.58-0.35-.57-0.44-1.28-0.74-1.88l-0.06-.14c-2.56-4.72-5.79-7.57-10.55-8.5a11.5,11.5,0,0,0-3.43-.42,8.47,8.47,0,0,0-2.76.26,12.6,12.6,0,0,0-1.48.81l1.82-.42,1.38-.14a17,17,0,0,1,8.06,1.47,20.89,20.89,0,0,1,3.16,2.41,13,13,0,0,1,1.22,1.31h0a11.72,11.72,0,0,1,.92,1.23h0a12.92,12.92,0,0,1,2.21,7.47A12.42,12.42,0,0,0,209.4,2055Z" transform="translate(-184.57 -2042.61)" fill="#00aeef"/><path d="M208.78,2058.46c0-.15,0-0.33,0-0.56h0a3.93,3.93,0,0,1,0-.88,8.93,8.93,0,0,0-.43-2.37,14.73,14.73,0,0,0-2.79-5.46,27.87,27.87,0,0,0-3.39-3.1h0a5.13,5.13,0,0,0-1-.51l-0.37-.14c-0.35-.12-0.74-0.24-1.13-0.35-0.58-.15-1.19-0.29-1.8-0.4l-0.3-.06c-0.85-.15-1.68-0.28-2.39-0.37h0a7,7,0,0,0-1.55,0h-0.13c-0.14,0-.53.06-0.55,0.07l-0.9.16-0.92.21a0.79,0.79,0,0,0-.25.06c-0.86.23-1.47,0.43-1.47,0.43a12.44,12.44,0,0,0-1.35,1.21,13.9,13.9,0,0,1,2.85-1.2,12.72,12.72,0,0,1,7.68,0,13,13,0,0,1,7.71,6,17.23,17.23,0,0,1,1.93,9.19,12.25,12.25,0,0,0,.53-1.32,0.22,0.22,0,0,0,0-.06,2,2,0,0,0,0-.45v0A0.3,0.3,0,0,0,208.78,2058.46Z" transform="translate(-184.57 -2042.61)" fill="#00aeef"/><path d="M203.32,2044.84a21,21,0,0,1,2,1.53l0.2,0.2,1.29,1.2a11,11,0,0,0,.94,1.08,12.4,12.4,0,0,0-1.68-2.28h0a12.46,12.46,0,0,0-4.33-3h0a3.68,3.68,0,0,0-.87-0.33h0a12.35,12.35,0,0,0-3.48-.62H197c-0.33,0-.65,0-1,0,0.62,0,1.28.11,2,.19A12.34,12.34,0,0,1,203.32,2044.84Z" transform="translate(-184.57 -2042.61)" fill="#00aeef"/><path d="M197.9,2043.5l0.77,0.19a14.75,14.75,0,0,1,5.62,2.83,15.58,15.58,0,0,1,1.34,1.23l0.13,0.14a20.48,20.48,0,0,1,3.24,4.6l0.23,0.45c-1.12-3.82-2.26-4.29-2.67-4.86-0.23-.26-0.73-0.94-0.9-1.08-0.41-.34-2.82-2.05-3.74-2.59a12.1,12.1,0,0,0-3.28-1.19,24.62,24.62,0,0,0-4.09-.39c-0.35.07-.69,0.15-1,0.25A18.57,18.57,0,0,1,197.9,2043.5Z" transform="translate(-184.57 -2042.61)" fill="#00aeef"/><path d="M199.22,2048.24l-0.26-.15Z" transform="translate(-184.57 -2042.61)" fill="#00aeef"/><path d="M207.39,2055.2c-0.16-.45-0.43-1.65-0.69-2.31-0.12-.3-0.25-0.59-0.38-0.87a13.59,13.59,0,0,0-.94-1.65l-0.26-.37-0.08-.12a7.58,7.58,0,0,0-.56-0.7,13.86,13.86,0,0,0-8.61-4.15,19.33,19.33,0,0,0-2.24,0,14.18,14.18,0,0,0-2.62.52l-0.1,0a2.36,2.36,0,0,0-.41.13h0L190,2046a2.12,2.12,0,0,0-.36.15c-0.54.23-1.15,0.56-1.62,0.82a1.2,1.2,0,0,0-.27.15l-0.55.33c-0.17.22-.33,0.45-0.49,0.68a11.47,11.47,0,0,1,2.1-1.25l0.67-.29a15.42,15.42,0,0,1,3.21-.88,15.82,15.82,0,0,1,3.77-.17,9.44,9.44,0,0,1,2,.35l0.55,0.2a16.42,16.42,0,0,1,2.08,1,16.09,16.09,0,0,1,2.36,1.68,9.13,9.13,0,0,1,2.9,4.13,5.17,5.17,0,0,1,.33,2c0,0.27,0,.55,0,0.84,0,5.53-.85,7.78-0.85,7.78,0,0.16-.1.31-0.15,0.46a12.26,12.26,0,0,0,1-1.07l0-.14c0-.08,0-0.18,0-0.28h0c0-.08,0-0.17,0-0.27,0-.36.13-1.13,0.24-2.57,0.09-1.13.11-3.94,0.11-3.94a12.5,12.5,0,0,1,.35,2.81c0,0.79-.15,3.51-0.16,3.57,0.22-.31.42-0.63,0.6-1,0-.05,0-0.1,0-0.15,0-.32,0-2.76-0.08-3.71A11.81,11.81,0,0,0,207.39,2055.2Z" transform="translate(-184.57 -2042.61)" fill="#00aeef"/><polygon points="22.65 19.44 22.65 19.44 22.64 19.45 22.65 19.44" fill="#00aeef"/><path d="M194.53,2067a0.65,0.65,0,0,0,.3-0.18l0.18-.28,0.09-.26-1.11.74A1,1,0,0,0,194.53,2067Z" transform="translate(-184.57 -2042.61)" fill="#00aeef"/><path d="M188.23,2054.92a20,20,0,0,1,4.92-3.55,5.11,5.11,0,0,1,3.3-.92s3.76,0.21,3.95,5.72h0l0.34,0.12,0.12,0h0a11.34,11.34,0,0,0-.5-3.09,6,6,0,0,0-1.05-1.82,4.08,4.08,0,0,0-3.59-1.4,7.69,7.69,0,0,0-3.55,1.08h0c-0.54.28-2.21,1.45-2.91,1.93-1.55,1.07-3.18,3.47-4.48,4.21,0,0.22.09,0.44,0.14,0.65A19.13,19.13,0,0,0,188.23,2054.92Z" transform="translate(-184.57 -2042.61)" fill="#00aeef"/><path d="M198.11,2062s0.67-1.07,1.11-1.85a7,7,0,0,0,.46-0.9h0l0-.07a4.69,4.69,0,0,0,.27-0.78l-0.1,0a2.77,2.77,0,0,0-.44-0.15,5.18,5.18,0,0,0-.39,1.13c-0.18.45-.94,1.93-0.94,1.93V2062Z" transform="translate(-184.57 -2042.61)" fill="#00aeef"/><path d="M198.11,2063.3a17.25,17.25,0,0,0,1.75-2.52s0.52-1.35.79-2.15l-0.38-.16-0.14.47h0a14.55,14.55,0,0,1-.68,1.6,20.62,20.62,0,0,1-1.34,2v0.79Z" transform="translate(-184.57 -2042.61)" fill="#00aeef"/><path d="M191.05,2065.92l0.35,0.19a11.48,11.48,0,0,0,1.45-.77,15,15,0,0,0,2.3-1.71h0v-0.5C193.89,2064,192.57,2065,191.05,2065.92Z" transform="translate(-184.57 -2042.61)" fill="#00aeef"/><path d="M192.08,2066.42l0.54,0.22a12.9,12.9,0,0,0,2.54-1.76h0v-0.7h0A27.85,27.85,0,0,1,192.08,2066.42Z" transform="translate(-184.57 -2042.61)" fill="#00aeef"/><path d="M193.62,2066.51l-0.18.12-0.08,0-0.11.06-0.11.06,0,0,0.53,0.16,1.51-1h0c0-.08,0-0.16,0-0.25v-0.19h0A17.12,17.12,0,0,1,193.62,2066.51Z" transform="translate(-184.57 -2042.61)" fill="#00aeef"/><path d="M185.87,2055.71h0a15.29,15.29,0,0,1,2-2.18,27.8,27.8,0,0,1,4-2.9,9.48,9.48,0,0,1,4-1c4.6-.19,5.29,4.58,5.34,6.82h0l0.48,0.2h0a9.15,9.15,0,0,0-1.89-6.09c-1-.77-1.7-1.3-4.66-1.37-2.89.26-6.1,2.6-6.71,3s-1.47,1-2,1.41c-0.22.17-1.51,1.06-1.84,1.27v0.1c0,0.18,0,.36,0,0.55a13.86,13.86,0,0,0,2.09-1.63,10.94,10.94,0,0,1-2.05,2.13c0,0.24,0,.48.08,0.71A5.63,5.63,0,0,0,185.87,2055.71Z" transform="translate(-184.57 -2042.61)" fill="#00aeef"/><path d="M196.59,2053.67l-0.07,0a1,1,0,0,0-1,.71c-0.13.22-.25,0.47-0.38,0.74a10.86,10.86,0,0,1-1.52,2.08l-0.82.73a22,22,0,0,1-2.83,2,28.69,28.69,0,0,1-2.88,1.47c-0.19.1-.39,0.21-0.59,0.3h0l0.14,0.22c0.08,0.12.08,0.13,0.11,0.11l0.33-.15s1.15-.52,1.28-0.64c0.35-.21,1.17-0.51,3-1.56,0.83-.49,1.7-1.43,2.76-2.21h0l-0.18-.05h0V2057c0.33,0,.5,0,0.83-0.1l0.15-.22h0a1.81,1.81,0,0,0,.17-0.26c0.24-.45.53-1.09,0.79-1.59a3.1,3.1,0,0,1,.48-0.77,0.17,0.17,0,0,1,.27.14,0.38,0.38,0,0,0,0,.14,1.9,1.9,0,0,1-.09.37l0,0.1a5.79,5.79,0,0,1-.26.58l0,0,0,0.07h0c-0.31.59-.69,1.28-0.69,1.28h0l0.61-.14,0.25-.06,0.24-.74,0-.08a6.28,6.28,0,0,0,.32-1.13A0.73,0.73,0,0,0,196.59,2053.67Z" transform="translate(-184.57 -2042.61)" fill="#00aeef"/><path d="M191.19,2063.19a9.62,9.62,0,0,0,1.52-1.06c0.59-.43,1.08-0.83,1.08-0.83h0a10,10,0,0,0,1.37-1.25h0v-0.53h0a18,18,0,0,1-6.9,4.32l0.42,0.4,0.46-.14,0.59-.19C190,2063.81,191,2063.28,191.19,2063.19Z" transform="translate(-184.57 -2042.61)" fill="#00aeef"/><path d="M194.77,2057.67l-0.37-.12a11.4,11.4,0,0,1-4,3.13,28.68,28.68,0,0,1-3.49,1.64l0.31,0.41a15.94,15.94,0,0,0,5.36-2.82A13.13,13.13,0,0,0,194.77,2057.67Z" transform="translate(-184.57 -2042.61)" fill="#00aeef"/><path d="M195.15,2058.58h0c0-.1,0-0.18,0-0.26a0.77,0.77,0,0,0-.11-0.44,10.14,10.14,0,0,1-3.41,3.28,22.77,22.77,0,0,1-4.08,1.92l0.35,0.39a22.73,22.73,0,0,0,2.39-1A15,15,0,0,0,195.15,2058.58Z" transform="translate(-184.57 -2042.61)" fill="#00aeef"/><path d="M198.5,2058.54l-0.1.14c-0.12.36-.22,0.76-0.28,0.95v0.85a9.21,9.21,0,0,0,.91-2.34A0.89,0.89,0,0,0,198.5,2058.54Z" transform="translate(-184.57 -2042.61)" fill="#00aeef"/><path d="M193.63,2062.6h0c0.46-.44,1-0.83,1.52-1.26h0v-0.68h0c-0.32.32-.63,0.65-1,1-0.09.07-.22,0.19-0.4,0.36s-1.46,1-1.57,1.12l-0.68.39a1.54,1.54,0,0,0-.35.18h0c-1,.55-1.94.94-1.94,0.94h0l-0.09,0,0.38,0.3c0.8-.34,1.57-0.74,2.33-1.14A21,21,0,0,0,193.63,2062.6Z" transform="translate(-184.57 -2042.61)" fill="#00aeef"/><path d="M195.15,2062.59v-0.43h0l-0.29.15c-0.16.08-1.18,0.77-1.33,0.87l-0.87.56-0.42.27-0.08,0c-0.72.44-2,1.15-2,1.15l-0.13.06,0.4,0.26a16.74,16.74,0,0,0,1.9-1C193.31,2064.06,194.07,2063.25,195.15,2062.59Z" transform="translate(-184.57 -2042.61)" fill="#00aeef"/><path d="M204.22,2059.39a12.88,12.88,0,0,0-.87-8.33c-0.07-.11-1.13-1.47-1.64-2a9.34,9.34,0,0,0-5-2.6,10.77,10.77,0,0,0-2,0l-1.3.2a18,18,0,0,0-2.45.6l-0.36.07s-1.43.51-2.63,1l-0.21.09a16.87,16.87,0,0,0-1.88,1.16,1.92,1.92,0,0,0-.19.19,0.33,0.33,0,0,0-.07.1c-0.16.35-.3,0.71-0.42,1.08a17.67,17.67,0,0,1,2.58-1.83c0.83-.42,1.7-0.84,2.18-1.05h0a17.24,17.24,0,0,1,2.95-.82,12.92,12.92,0,0,1,3.66-.38l0.61,0.06a3.34,3.34,0,0,1,1.21.39c0.09,0,.67.29,0.87,0.37l0.28,0.19,0.29,0.21a10.46,10.46,0,0,1,3.12,3.31h0c1.73,2.91,1.23,6.73.1,11.06a10.37,10.37,0,0,1-1.83,3l-1,1.23a3.56,3.56,0,0,1-.39.32h0c0.3-.07.58-0.15,0.87-0.24l0,0a16.61,16.61,0,0,0,2.13-2.82A28.49,28.49,0,0,0,204.22,2059.39Z" transform="translate(-184.57 -2042.61)" fill="#00aeef"/><path d="M206.27,2056.07c0-.45,0-0.89,0-1.3a3.18,3.18,0,0,0-.27-1.65,6.91,6.91,0,0,0-.75-1.69,13.45,13.45,0,0,0-5.77-4.75,1.77,1.77,0,0,0-.43-0.19l-0.34-.14a12.13,12.13,0,0,0-5.8-.34l-0.18,0a15.31,15.31,0,0,0-2.7.7l-0.26.1h0a12,12,0,0,0-2.34,1.2h0l-0.33.23a5.4,5.4,0,0,0-.8.54v0.11a25.11,25.11,0,0,1,3.06-1.54,7.22,7.22,0,0,1,1.34-.41c1.55-.28,4.24-0.94,5.37-0.81l1.26,0.15a0.87,0.87,0,0,0,.26.06,8.15,8.15,0,0,1,1.42.48,7.29,7.29,0,0,1,.73.31,1.46,1.46,0,0,0,.26.17,9.5,9.5,0,0,1,3.56,3.31,5.38,5.38,0,0,1,.77,1.48c1.08,2.46.69,6,0,9.17a20.48,20.48,0,0,1-1.2,3.48,11,11,0,0,1-1.68,1.88c0.37-.14.74-0.3,1.09-0.47a8.89,8.89,0,0,0,1.6-2.32l0.62-2a33.6,33.6,0,0,0,.73-7.79,14.3,14.3,0,0,0-1.42-3.64,4.57,4.57,0,0,1,1.41,2.45h0l0.09,0.29a4.9,4.9,0,0,1,.1.65c0.24,3.24.3,8.84-2.07,11.68l-0.08.09a12.61,12.61,0,0,0,1.36-1,6.41,6.41,0,0,0,.44-0.73,33.5,33.5,0,0,0,1-7.75v-0.13Z" transform="translate(-184.57 -2042.61)" fill="#00aeef"/><path d="M202.29,2059.58a8,8,0,0,0,.32-2h0a10.8,10.8,0,0,0-.29-4.15,5.4,5.4,0,0,0-1-2.19c-3.55-4.58-9-2.72-10.59-1.72-0.71.33-1.41,0.7-2.1,1.08-1.24.73-3.75,2.79-3.9,2.82,0,0.33-.07.66-0.09,1,1.41-1.11,2.85-2.19,4.31-3.2,0-.09,3.77-2.56,6.73-2.38,0.86-.18,5.92.09,6.52,6.7a12.06,12.06,0,0,1,0,2.12,7.51,7.51,0,0,1-.15.91s-0.43,1.35-.55,1.56l-1.11,2.27s-2.05,2.8-2.25,3v0.4a2.39,2.39,0,0,0,0,.25l0.12-.09s1.07-1.49,2.34-3.24A14.87,14.87,0,0,0,202.29,2059.58Z" transform="translate(-184.57 -2042.61)" fill="#00aeef"/><path d="M198.11,2064.7c1.52-1.4,3.07-4.9,3.27-5.5h0a7.38,7.38,0,0,0,.33-1.13s0-.53,0-0.76c0,0-1,2.18-1,2.24a18.33,18.33,0,0,1-.87,2,14.66,14.66,0,0,1-1.68,2.53v0.65Z" transform="translate(-184.57 -2042.61)" fill="#00aeef"/><path d="M196,2052a1.61,1.61,0,0,0-1.28.2h0a9.2,9.2,0,0,0-1.54,1.16l-0.2.18-0.25.2-1.17.84c-1.07.75-2.5,2-3.08,2.52-0.77.56-1.53,1.12-2.27,1.72l-0.09.09-0.05,0-0.67.44h0c0,0.1.08,0.2,0.12,0.3l0,0a8.43,8.43,0,0,0,1.75-.92l0.29-.16,0.23-.19c0.77-.53,1.58-1.16,2.35-1.77s1.56-1.17,1.57-1.21c0.33-.3.65-0.61,1-0.93a21.26,21.26,0,0,1,2.65-2,1.15,1.15,0,0,1,.64-0.2,0.34,0.34,0,0,1,.19.2,0.3,0.3,0,0,1-.16.28l-0.06,0-0.1,0a0.79,0.79,0,0,0-.67.29h0a3.92,3.92,0,0,0-1.09.91h0l-0.07.08a51.83,51.83,0,0,1-7.35,5.48l-0.17.08,0,0a5.1,5.1,0,0,0-.75.36h0c0.06,0.15.13,0.29,0.2,0.44l0.09-.06s1-.45,1.83-0.93c0,0,.51-0.29.75-0.44h0a32.57,32.57,0,0,0,4.76-3.63l0.18-.18c0.41-.41.72-0.85,0.92-1a0.28,0.28,0,0,1,.15,0c-0.58,1.13-.92,1.58-3.52,3.69-1.53,1.09-2.89,1.87-3,2-1,.53-1.78.93-1.86,1l-0.07,0h0l0.16,0.29a27.2,27.2,0,0,0,3.69-1.84c2.77-2.06,3.95-2.43,5.14-5.15l0-.08,0-.05a2.77,2.77,0,0,1,.57-0.8,1.19,1.19,0,0,1,.4-0.17,1.13,1.13,0,0,1,1.16.62v0l0,0.07a2.11,2.11,0,0,1,.15.69v0s0,0.06,0,.09a5.23,5.23,0,0,1-.32,1.71h0l0.63-.23a5.26,5.26,0,0,0,.14-1.24A2.77,2.77,0,0,0,196,2052Z" transform="translate(-184.57 -2042.61)" fill="#00aeef"/></svg>