<svg xmlns="http://www.w3.org/2000/svg" viewBox="0 0 81.8 67.36"><title>topic-delegation</title><g id="Layer_2" data-name="Layer 2"><g id="Layer_1-2" data-name="Layer 1"><path id="_Path_" data-name=" Path " d="M71.47,50S61,46.84,61,43v-2.2a17.42,17.42,0,0,0,3.3-6.33c0-.41.41-.55.69-.83a4.17,4.17,0,0,0,.55-5.23c-.14-.28-.41-.41-.41-.69V21.64a10.58,10.58,0,0,0-2.48-6.89,9.91,9.91,0,0,0-5.23-2.89,17.57,17.57,0,0,0-7.57.14,9.48,9.48,0,0,0-5.51,3.72,11,11,0,0,0-1.51,5.51v6.2c0,.41-.28.69-.41,1.1a4.19,4.19,0,0,0,1,5.23,1.7,1.7,0,0,1,.55,1.1,15.6,15.6,0,0,0,3.17,5.51v2.34c0,3.86-10.47,7-10.47,7S30.3,51.52,26.16,60.2v3.72a3.41,3.41,0,0,0,3.44,3.44H78.35a3.41,3.41,0,0,0,3.44-3.44V60.33C77.8,51.66,71.47,50,71.47,50Z" fill="#00aeef"/><path d="M34.7,46.84c3.86-1.24,8-3.3,8.54-4.54V41.06a20.23,20.23,0,0,1-3-5.65v-.14a10.4,10.4,0,0,1-1.51-1.93c-2.34-.83-8.26-3-8.26-5.78V25.63a14.14,14.14,0,0,0,2.89-5.51c0-.28.41-.55.55-.69a3.74,3.74,0,0,0,.55-4.54,1.05,1.05,0,0,1-.28-.69V8.83a9.15,9.15,0,0,0-2.2-6.06A8.64,8.64,0,0,0,27.27.29a15.3,15.3,0,0,0-6.61.14A7.72,7.72,0,0,0,15.84,3.6a9.79,9.79,0,0,0-1.38,4.82v5.51c0,.41-.28.55-.41,1a3.77,3.77,0,0,0,.83,4.54,3.45,3.45,0,0,1,.55,1,12.94,12.94,0,0,0,2.75,4.82v2.07c0,3.3-9.09,6.2-9.09,6.2S3.58,35,0,42.57v3a3.06,3.06,0,0,0,3,3H30.85A15,15,0,0,1,34.7,46.84Z" fill="#0084b6"/><path d="M60.31,61c-1.38-1.51-2.62-3-4-4.41-3.17-3.44-6.2-7-9.36-10.47L46.82,46c-.28-.14-.55-.41-.69-.41a.74.74,0,0,0-.55.41c-.55,1.38-1,2.62-1.38,4,0,.14,0,.14-.14.28s-.41-.14-.69-.14a35.75,35.75,0,0,1-8.54-4.41c-4.27-3.17-7.3-6.61-8.54-10.33-.28-.69-.28-1.51-.55-2.2a.62.62,0,0,0-.41-.41c-.28-.14-.41,0-.55.28a18.35,18.35,0,0,0-1,9.91,19,19,0,0,0,5,9.78,30.78,30.78,0,0,0,10.05,7.16c.55.28,1.1.41,1.65.69a28.82,28.82,0,0,0-1.1,3.17,9.49,9.49,0,0,1-.41,1.1c0,.14,0,.41.14.41s.55.14.69.14l5-.83c5-.83,9.91-1.65,15-2.48H60C60.59,61.57,60.73,61.44,60.31,61Z" fill="#2bace2" stroke="#fff" stroke-linecap="round" stroke-linejoin="round" stroke-width="1.72"/></g></g></svg>