<svg xmlns="http://www.w3.org/2000/svg" viewBox="0 0 70 73.54"><title>topic-account</title><g id="Layer_2" data-name="Layer 2"><g id="Layer_1-2" data-name="Layer 1"><path d="M65.35,46.37c-4.14.25-9.58,4.39-14.83,6.77-6.43,2.91-16.45.57-16.45.57,1.54-.72,7.82-2.22,9.09-2.77,6.72-3,6.15-9.12,3-9.07C41.88,41.93,39.4,43,31,44.12c-6.39.87-14,.55-17.59,1.94C8.25,48,0,61.18,0,61.18L12.75,73.54s7.9-7.78,11.74-7.78c8.75,0,9.11-.12,17.24-.56a17.86,17.86,0,0,0,6.16-1c10.54-3.56,21.85-13,22.06-14.19.48-2.65-2.41-3.78-4.59-3.65" fill="#00aeef"/><path d="M22.29,19.62l2,.36h.06A15.77,15.77,0,0,0,25,23.55l-.07,0-1.79,1a1.34,1.34,0,0,0-.49,1.82l2.39,4.15a1.34,1.34,0,0,0,1.16.67,1.31,1.31,0,0,0,.67-.18l1.79-1,.12-.08a16.2,16.2,0,0,0,2.76,2.3,1.11,1.11,0,0,0-.07.14l-.71,1.95a1.33,1.33,0,0,0,.8,1.71l4.5,1.64a1.36,1.36,0,0,0,.46.08,1.33,1.33,0,0,0,1.25-.88L38.52,35a1.23,1.23,0,0,0,0-.16,16.51,16.51,0,0,0,1.79.1,16.23,16.23,0,0,0,1.79-.1,1.59,1.59,0,0,0,0,.16l.71,1.94a1.34,1.34,0,0,0,.69.75,1.37,1.37,0,0,0,.57.12,1.4,1.4,0,0,0,.46-.08l4.5-1.64a1.34,1.34,0,0,0,.8-1.71l-.71-1.95-.07-.14A16.07,16.07,0,0,0,51.89,30l.12.08,1.79,1a1.31,1.31,0,0,0,.67.18,1.45,1.45,0,0,0,.35,0,1.34,1.34,0,0,0,.81-.62L58,26.45a1.34,1.34,0,0,0-.49-1.82l-1.79-1-.07,0A15.93,15.93,0,0,0,56.32,20h.06l2-.36a1.33,1.33,0,0,0,1.08-1.55l-.83-4.72a1.32,1.32,0,0,0-.55-.86,1.34,1.34,0,0,0-1-.22l-2,.36a16.06,16.06,0,0,0-1.82-3.19l1.32-1.57A1.33,1.33,0,0,0,54.41,6L50.74,2.91a1.34,1.34,0,0,0-1.88.16L47.57,4.61a15.65,15.65,0,0,0-3.48-1.28v-2A1.34,1.34,0,0,0,42.75,0H38a1.34,1.34,0,0,0-1.34,1.34v2a15.69,15.69,0,0,0-3.48,1.28L31.85,3.07A1.33,1.33,0,0,0,30,2.91L26.29,6a1.33,1.33,0,0,0-.16,1.88l1.32,1.57a16.14,16.14,0,0,0-1.82,3.19l-2-.36a1.34,1.34,0,0,0-1,.22,1.32,1.32,0,0,0-.55.86l-.83,4.72a1.33,1.33,0,0,0,1.08,1.55m9.64-.6a8.41,8.41,0,1,1,8.41,8.41A8.42,8.42,0,0,1,31.94,19" fill="#0084b6"/></g></g></svg>