<svg xmlns="http://www.w3.org/2000/svg" viewBox="0 0 74.77 60"><title>topic-using</title><g id="Layer_2" data-name="Layer 2"><g id="Layer_1-2" data-name="Layer 1"><path d="M72.24,0h-63A2.53,2.53,0,0,0,6.67,2.53V12H1.26A1.26,1.26,0,0,0,0,13.29V23.56a1.26,1.26,0,0,0,1.26,1.26H6.67V35.17H1.26A1.26,1.26,0,0,0,0,36.44V46.71A1.26,1.26,0,0,0,1.26,48H6.67v9.5A2.53,2.53,0,0,0,9.19,60h63a2.53,2.53,0,0,0,2.53-2.53V2.53A2.53,2.53,0,0,0,72.24,0" fill="#00aeef"/><path d="M50.56,43.75l-8-8a11.05,11.05,0,0,0,0-11.6l8-8A2.53,2.53,0,1,0,47,12.67l-8,8a11.05,11.05,0,0,0-11.6,0l-8-8a2.53,2.53,0,0,0-3.57,3.57l8,8a11.05,11.05,0,0,0,0,11.6l-8,8a2.53,2.53,0,0,0,3.57,3.57l8-8a11.05,11.05,0,0,0,11.6,0l8,8a2.53,2.53,0,1,0,3.57-3.57M29,34.23a6,6,0,1,1,8.45,0,6,6,0,0,1-8.45,0" fill="#fff"/><path d="M64.51,42.78a1.89,1.89,0,0,1-1.89-1.89V19.12a1.89,1.89,0,1,1,3.79,0V40.88a1.89,1.89,0,0,1-1.89,1.89" fill="#fff"/><path d="M60.68,5.28a1.89,1.89,0,1,1-1.89-1.89,1.89,1.89,0,0,1,1.89,1.89" fill="#fff"/><path d="M54.91,5.28A1.89,1.89,0,1,1,53,3.39a1.89,1.89,0,0,1,1.89,1.89" fill="#fff"/><path d="M66.36,5.28a1.89,1.89,0,1,1-1.89-1.89,1.89,1.89,0,0,1,1.89,1.89" fill="#fff"/></g></g></svg>