<svg xmlns="http://www.w3.org/2000/svg" xmlns:xlink="http://www.w3.org/1999/xlink" viewBox="0 0 105.54 107.01"><defs><clipPath id="clip-path"><path d="M39.82,56.55a31.72,31.72,0,0,0,13,25.6,31.78,31.78,0,0,0,0-51.2,31.72,31.72,0,0,0-13,25.6" fill="none"/></clipPath></defs><title>topic-interaction</title><g id="Layer_2" data-name="Layer 2"><g id="Layer_1-2" data-name="Layer 1"><path d="M39.82,56.55A31.72,31.72,0,0,1,52.77,31a31.76,31.76,0,1,0,0,51.2A31.72,31.72,0,0,1,39.82,56.55Z" fill="none" stroke="#00aeef" stroke-width="4.53"/><path d="M71.54,24.79A31.55,31.55,0,0,0,52.77,31a31.77,31.77,0,0,1,0,51.2A31.75,31.75,0,1,0,71.54,24.79Z" fill="none" stroke="#00aeef" stroke-width="4.53"/><path d="M65.72,56.55A31.72,31.72,0,0,0,52.77,31a31.77,31.77,0,0,0,0,51.2A31.72,31.72,0,0,0,65.72,56.55Z" fill="none" stroke="#0084b6" stroke-width="4.53"/><g clip-path="url(#clip-path)"><polygon points="29.52 32.26 27.42 28.69 76.07 0 78.17 3.57 29.52 32.26" fill="#0084b6"/><polygon points="29.58 42.94 27.48 39.37 76.13 10.68 78.22 14.24 29.58 42.94" fill="#0084b6"/><polygon points="29.63 53.62 27.54 50.05 76.18 21.36 78.28 24.92 29.63 53.62" fill="#0084b6"/><polygon points="29.69 64.3 27.59 60.73 76.24 32.04 78.33 35.6 29.69 64.3" fill="#0084b6"/><polygon points="29.75 74.97 27.65 71.41 76.29 42.72 78.39 46.28 29.75 74.97" fill="#0084b6"/><polygon points="29.8 85.65 27.7 82.09 76.35 53.4 78.45 56.96 29.8 85.65" fill="#0084b6"/><polygon points="29.86 96.33 27.76 92.77 76.41 64.07 78.5 67.64 29.86 96.33" fill="#0084b6"/><polygon points="29.91 107.01 27.82 103.44 76.46 74.75 78.56 78.32 29.91 107.01" fill="#0084b6"/></g></g></g></svg>