<svg xmlns="http://www.w3.org/2000/svg" viewBox="0 0 65.39 53.04"><title>twitter</title><path d="M65.36,6.24a26.75,26.75,0,0,1-7.7,2.11A13.45,13.45,0,0,0,63.55.95,26.84,26.84,0,0,1,55,4.18,13.42,13.42,0,0,0,32.19,16.42a38.06,38.06,0,0,1-27.64-14A13.42,13.42,0,0,0,8.7,20.31a13.31,13.31,0,0,1-6.07-1.68v.17A13.42,13.42,0,0,0,13.38,31.95a13.46,13.46,0,0,1-6.06.23,13.42,13.42,0,0,0,12.53,9.31A26.9,26.9,0,0,1,3.2,47.23,27,27,0,0,1,0,47a37.93,37.93,0,0,0,20.55,6c24.67,0,38.15-20.41,38.15-38.09V13.22a27.19,27.19,0,0,0,6.69-6.94Z"/></svg>