<svg xmlns="http://www.w3.org/2000/svg" viewBox="0 0 329 264"><title>vault</title><g id="Layer_2" data-name="Layer 2"><g id="Layer_1-2" data-name="Layer 1"><g id="_Group_" data-name="&lt;Group&gt;"><path d="M317.9,0H40.5A11.14,11.14,0,0,0,29.4,11.1V52.9H5.6A5.59,5.59,0,0,0,0,58.5v45.2a5.59,5.59,0,0,0,5.6,5.6H29.4v45.5H5.6A5.59,5.59,0,0,0,0,160.4v45.2a5.59,5.59,0,0,0,5.6,5.6H29.4v41.7A11.14,11.14,0,0,0,40.5,264H317.9A11.14,11.14,0,0,0,329,252.9V11.1A11.14,11.14,0,0,0,317.9,0ZM187.5,168.7l35,35a11.1,11.1,0,0,1-15.7,15.7l-35-35a48.76,48.76,0,0,1-51,0l-35,35a11.1,11.1,0,0,1-15.7-15.7l35-35a48.76,48.76,0,0,1,0-51l-35-35A11.1,11.1,0,0,1,85.8,67l35,35a48.76,48.76,0,0,1,51,0l35-35a11.1,11.1,0,0,1,15.7,15.7l-35,35A48.76,48.76,0,0,1,187.5,168.7ZM237.4,37a8.3,8.3,0,1,1,8.3-8.3A8.28,8.28,0,0,1,237.4,37Zm25.4,0a8.3,8.3,0,1,1,8.3-8.3A8.28,8.28,0,0,1,262.8,37Zm29.4,154.1a8.3,8.3,0,0,1-16.6,0V95.3a8.3,8.3,0,0,1,16.6,0ZM287.8,37a8.3,8.3,0,1,1,8.3-8.3A8.28,8.28,0,0,1,287.8,37Z" fill="#29abe2"/><path d="M127.6,124.6a26.3,26.3,0,1,0,37.2,0A26.25,26.25,0,0,0,127.6,124.6Z" fill="#29abe2"/></g></g></g></svg>