<svg xmlns="http://www.w3.org/2000/svg" viewBox="0 0 62.01 47.36"><title>workflow</title><g id="Layer_2" data-name="Layer 2"><g id="Layer_1-2" data-name="Layer 1"><path id="_Path_" data-name=" Path " d="M39.83,20.56H38a3.74,3.74,0,0,1-3.74-3.74h0v-1.2A9.45,9.45,0,0,0,36,12.25c0-.21.24-.31.37-.45A2.31,2.31,0,0,0,36.7,9c-.07-.13-.2-.24-.2-.41V5.32a5.49,5.49,0,0,0-1.33-3.68A5.22,5.22,0,0,0,32.34.18a9.41,9.41,0,0,0-4.07.09,4.93,4.93,0,0,0-2.9,2,5.66,5.66,0,0,0-.89,3V8.62c0,.22-.16.37-.25.56A2.32,2.32,0,0,0,24.76,12a1.09,1.09,0,0,1,.32.62,9,9,0,0,0,1.68,3v1.24A3.74,3.74,0,0,1,23,20.56H21.15s-3.39.93-5.61,5.61V28a1.87,1.87,0,0,0,1.87,1.87H43.57A1.87,1.87,0,0,0,45.44,28V26.17C43.22,21.49,39.83,20.56,39.83,20.56Z" fill="#09f"/><g id="_Group_3" data-name=" Group 3"><polygon id="_Path_2" data-name=" Path 2" points="54.03 40.62 48.4 34.07 13.31 34.07 7.68 40.62 6.35 39.48 12.5 32.32 49.21 32.32 55.36 39.48 54.03 40.62" fill="#09f"/></g><g id="_Group_4" data-name=" Group 4"><rect id="_Path_3" data-name=" Path 3" x="29.61" y="33.19" width="1.75" height="5.84" fill="#09f"/></g><g id="_Group_5" data-name=" Group 5"><path id="_Compound_Path_2" data-name=" Compound Path 2" d="M57.12,47.36A4.89,4.89,0,1,1,62,42.43a4.89,4.89,0,0,1-4.89,4.93Zm0-8a3.13,3.13,0,1,0,3.14,3.12v0a3.14,3.14,0,0,0-3.14-3.09Z" fill="#09f"/></g><g id="_Group_6" data-name=" Group 6"><path id="_Compound_Path_3" data-name=" Compound Path 3" d="M30.49,47.36a4.89,4.89,0,1,1,4.89-4.93,4.89,4.89,0,0,1-4.89,4.93Zm0-8a3.13,3.13,0,1,0,3.14,3.12v0a3.14,3.14,0,0,0-3.14-3.09Z" fill="#09f"/></g><g id="_Group_7" data-name=" Group 7"><path id="_Compound_Path_4" data-name=" Compound Path 4" d="M4.9,47.36a4.89,4.89,0,1,1,4.88-4.93A4.89,4.89,0,0,1,4.9,47.36Zm0-8A3.13,3.13,0,1,0,8,42.51s0-.05,0-.08A3.14,3.14,0,0,0,4.9,39.34Z" fill="#09f"/></g></g></g></svg>