<?xml version="1.0" standalone="no"?>
<!DOCTYPE svg PUBLIC "-//W3C//DTD SVG 20010904//EN"
 "http://www.w3.org/TR/2001/REC-SVG-20010904/DTD/svg10.dtd">
<svg version="1.0" xmlns="http://www.w3.org/2000/svg"
 width="260.000000pt" height="260.000000pt" viewBox="0 0 260.000000 260.000000"
 preserveAspectRatio="xMidYMid meet">
<metadata>
Created by potrace 1.11, written by Peter Selinger 2001-2013
</metadata>
<g transform="translate(0.000000,260.000000) scale(0.100000,-0.100000)"
fill="#000000" stroke="none">
<path d="M1701 2588 c-58 -16 -137 -111 -251 -296 -57 -94 -106 -169 -109
-166 -2 2 -4 97 -4 212 1 114 -3 212 -8 218 -5 6 -26 16 -47 23 -35 12 -46 10
-142 -24 -106 -36 -335 -99 -400 -109 -19 -3 -73 -12 -120 -21 -47 -8 -114
-18 -150 -21 -36 -4 -72 -8 -80 -10 -8 -1 -21 -3 -28 -3 -9 -1 -12 -16 -10
-52 l3 -51 111 -37 c62 -20 121 -44 132 -54 11 -10 24 -36 30 -57 6 -24 9
-393 9 -966 0 -994 0 -1009 -50 -1078 -29 -41 -68 -75 -87 -76 -8 0 -22 -5
-30 -10 -10 -6 181 -9 555 -8 524 1 566 3 515 16 -102 28 -167 88 -191 176 -8
29 -11 291 -12 872 l0 832 64 85 c84 111 114 132 193 132 65 -1 91 -9 295 -95
97 -40 126 -48 137 -39 8 6 14 19 14 28 0 9 4 21 9 27 4 5 32 61 61 124 29 63
70 151 91 195 21 44 35 82 31 86 -4 3 -43 21 -87 39 -44 17 -111 45 -150 61
-135 55 -220 69 -294 47z"/>
</g>
</svg>
