<svg xmlns="http://www.w3.org/2000/svg" viewBox="0 0 106.05 84.04"><title>about-feature-protection</title><g id="Layer_2" data-name="Layer 2"><g id="Layer_1-2" data-name="Layer 1"><g id="_Group_" data-name="&lt;Group&gt;"><rect id="_Rectangle_" data-name="&lt;Rectangle&gt;" x="2.48" width="94.89" height="60.11" fill="#abe1fa"/><rect id="_Rectangle_2" data-name="&lt;Rectangle&gt;" x="6.12" y="3.27" width="94.89" height="60.11" fill="#d4effc"/><path id="_Path_" data-name="&lt;Path&gt;" d="M104,84H2.05A2.05,2.05,0,0,1,0,82V19A2.05,2.05,0,0,1,2.05,16.9h56A2.05,2.05,0,0,0,59.75,16l5.71-8.24a2.05,2.05,0,0,1,1.68-.88H104A2.05,2.05,0,0,1,106.05,9V82A2.05,2.05,0,0,1,104,84Z" fill="#44c8f5"/><path id="_Compound_Path_" data-name="&lt;Compound Path&gt;" d="M62.81,42.4h-.46V40.22a9.07,9.07,0,0,0-9.06-9.06h-.53a9.07,9.07,0,0,0-9.06,9.06V42.4h-.46a.88.88,0,0,0-.88.88V57.37a2.42,2.42,0,0,0,2.42,2.42H61.26a2.42,2.42,0,0,0,2.42-2.42V43.28A.88.88,0,0,0,62.81,42.4Zm-8.57,8.45V55a1.21,1.21,0,0,1-2.42,0V50.85a3.1,3.1,0,1,1,2.42,0Zm4.48-8.45H47.34V40.22a5.43,5.43,0,0,1,5.43-5.43h.53a5.43,5.43,0,0,1,5.43,5.43Z" fill="#fff"/></g></g></g></svg>