<svg xmlns="http://www.w3.org/2000/svg" viewBox="0 0 120.03 219.12"><title>about-benefits-free</title><g id="Layer_2" data-name="Layer 2"><g id="Layer_1-2" data-name="Layer 1"><g id="_Group_" data-name="&lt;Group&gt;"><path id="_Compound_Path_" data-name="&lt;Compound Path&gt;" d="M117.87,113.27,75.27,61.84a3.61,3.61,0,0,0-5.68.08L31.41,113.27C41,149.06,13.1,184.79,5.14,219.12H96.6C102.74,182.41,127.38,144.57,117.87,113.27ZM71.9,89c-2.3,0-4.16-2.95-4.16-6.58s1.86-6.58,4.16-6.58,4.16,2.95,4.16,6.58S74.2,89,71.9,89Z" fill="#bcbec0"/><path id="_Compound_Path_2" data-name="&lt;Compound Path&gt;" d="M114,108.51,71.39,57.08a3.61,3.61,0,0,0-5.68.08L27.53,108.51C37.14,144.31,9.22,180,1.26,214.36H92.73C98.86,177.66,123.51,139.81,114,108.51ZM68,84.26c-2.3,0-4.16-2.95-4.16-6.58s1.86-6.58,4.16-6.58,4.16,2.95,4.16,6.58S70.32,84.26,68,84.26Z" fill="#fff" stroke="#1b75bc" stroke-width="2"/><path id="_Path_" data-name="&lt;Path&gt;" d="M71.43,57.08c.35-5.48.56-11.88.56-18.71C72,18,70.18,1.5,67.94,1.5s-4,16.51-4,36.87,1.81,36.87,4,36.87c.62,0,1.22-1.29,1.75-3.6" fill="none" stroke="#1b75bc" stroke-width="3"/><g id="_Group_2" data-name="&lt;Group&gt;"><path id="_Compound_Path_3" data-name="&lt;Compound Path&gt;" d="M43.33,147.22l-4.24,0c1.19-5.68,2.05-11.34,1.55-16.89l-5,1.71a32.82,32.82,0,0,0-.38-3.49q4.27-1.71,8.43-3.42h.47C45.94,132.32,44.9,139.75,43.33,147.22Z" fill="#00aeef"/><path id="_Compound_Path_4" data-name="&lt;Compound Path&gt;" d="M62.6,138.22a14.92,14.92,0,0,1-1.19,4.39,10.47,10.47,0,0,1-2,3,7.51,7.51,0,0,1-2.63,1.75,8.5,8.5,0,0,1-3.06.56,6.78,6.78,0,0,1-2.82-.55,4.3,4.3,0,0,1-1.93-1.72,7.39,7.39,0,0,1-.93-3,19.34,19.34,0,0,1,.08-4.32c.14-1.29.23-2.58.27-3.87a23.8,23.8,0,0,1,.44-4.28A8.41,8.41,0,0,1,50,127.28a4.85,4.85,0,0,1,2-1.72,7.39,7.39,0,0,1,2.9-.61,9,9,0,0,1,3.14.46A6.8,6.8,0,0,1,60.64,127,7.58,7.58,0,0,1,62.42,130a11.27,11.27,0,0,1,.52,4.33C62.88,135.6,62.76,136.91,62.6,138.22Zm-3.91-4.5a10.08,10.08,0,0,0-.19-2.5,4.45,4.45,0,0,0-.67-1.62,2.57,2.57,0,0,0-1-.87,3.08,3.08,0,0,0-1.32-.25,2.74,2.74,0,0,0-1.25.3,2.14,2.14,0,0,0-.87.91,5.18,5.18,0,0,0-.5,1.63,18.75,18.75,0,0,0-.19,2.49c0,1.69-.18,3.39-.38,5.1a16.41,16.41,0,0,0-.15,2.55,4.92,4.92,0,0,0,.31,1.68,1.77,1.77,0,0,0,.77.92,2.46,2.46,0,0,0,1.21.27,3.12,3.12,0,0,0,1.31-.29,3,3,0,0,0,1.1-.93,6.22,6.22,0,0,0,.86-1.69,12.58,12.58,0,0,0,.57-2.56C58.48,137.14,58.63,135.42,58.69,133.72Z" fill="#00aeef"/><path id="_Compound_Path_5" data-name="&lt;Compound Path&gt;" d="M79.92,138.09a15.7,15.7,0,0,1-1.25,4.47,10.88,10.88,0,0,1-2.06,3.08A7.56,7.56,0,0,1,74,147.4a8.37,8.37,0,0,1-3.06.56,6.72,6.72,0,0,1-2.82-.56,4.34,4.34,0,0,1-1.92-1.76,7.48,7.48,0,0,1-.9-3,19.63,19.63,0,0,1,.15-4.4c.16-1.32.29-2.63.36-3.94a24,24,0,0,1,.57-4.36,8.89,8.89,0,0,1,1.26-3,5.11,5.11,0,0,1,2.08-1.75,7.41,7.41,0,0,1,2.92-.61,8.62,8.62,0,0,1,3.11.48,6.51,6.51,0,0,1,2.55,1.67,7.51,7.51,0,0,1,1.68,3,11.81,11.81,0,0,1,.4,4.41C80.25,135.42,80.1,136.75,79.92,138.09Zm-3.81-4.59a10.48,10.48,0,0,0-.12-2.55,4.44,4.44,0,0,0-.62-1.65,2.46,2.46,0,0,0-1-.89,3,3,0,0,0-1.31-.26,2.74,2.74,0,0,0-1.26.3,2.27,2.27,0,0,0-.9.92,5.43,5.43,0,0,0-.55,1.66,19.12,19.12,0,0,0-.26,2.54c-.08,1.72-.26,3.45-.5,5.19a16.37,16.37,0,0,0-.19,2.59,5,5,0,0,0,.29,1.71,1.76,1.76,0,0,0,.76.94,2.42,2.42,0,0,0,1.21.28A3.09,3.09,0,0,0,73,144a3,3,0,0,0,1.11-.94,6.51,6.51,0,0,0,.88-1.72,13.55,13.55,0,0,0,.61-2.61C75.83,137,76,135.23,76.11,133.49Z" fill="#00aeef"/><path id="_Compound_Path_6" data-name="&lt;Compound Path&gt;" d="M83.32,129a6.13,6.13,0,0,1,.22-1.83,4.18,4.18,0,0,1,.77-1.5,3.83,3.83,0,0,1,1.35-1,4.81,4.81,0,0,1,2-.41,5.64,5.64,0,0,1,2.12.34,4.77,4.77,0,0,1,1.61,1,4.23,4.23,0,0,1,1,1.49,4.93,4.93,0,0,1,.36,1.83q0,.61,0,1.22a5.13,5.13,0,0,1-.36,1.84,4.54,4.54,0,0,1-1,1.52,4.84,4.84,0,0,1-1.54,1,5.24,5.24,0,0,1-2.05.4,4.78,4.78,0,0,1-2-.36,3.87,3.87,0,0,1-1.39-1A4.22,4.22,0,0,1,83.6,132a5.9,5.9,0,0,1-.27-1.81C83.33,129.82,83.33,129.41,83.32,129Zm3.52,16.92L85,144.71a131.42,131.42,0,0,0,12.3-18.22l2.16,1.18A150.38,150.38,0,0,1,86.83,145.93Zm-.64-15.75a3,3,0,0,0,.1.79,1.85,1.85,0,0,0,.33.67,1.62,1.62,0,0,0,.56.46,1.72,1.72,0,0,0,.81.16,1.82,1.82,0,0,0,.81-.18,1.76,1.76,0,0,0,.58-.47,2.1,2.1,0,0,0,.36-.68,2.59,2.59,0,0,0,.13-.79q0-.61,0-1.22a2.72,2.72,0,0,0-.13-.79,2.14,2.14,0,0,0-.37-.67,1.69,1.69,0,0,0-.6-.45,1.94,1.94,0,0,0-.84-.16,1.72,1.72,0,0,0-.8.19,1.59,1.59,0,0,0-.55.47,2,2,0,0,0-.31.68,2.94,2.94,0,0,0-.09.79Q86.19,129.57,86.19,130.18ZM92.33,142a6.94,6.94,0,0,1,.63-1.87,5.47,5.47,0,0,1,1.14-1.54,5.39,5.39,0,0,1,1.61-1,5.22,5.22,0,0,1,2.05-.39,4.57,4.57,0,0,1,2,.38,3.37,3.37,0,0,1,1.31,1,3.46,3.46,0,0,1,.63,1.54,5.56,5.56,0,0,1,0,1.88q-.12.63-.24,1.27a6.71,6.71,0,0,1-.66,1.88,5.71,5.71,0,0,1-1.19,1.54,5.37,5.37,0,0,1-1.66,1,5.47,5.47,0,0,1-2.08.37,4.44,4.44,0,0,1-1.93-.39,3.13,3.13,0,0,1-1.26-1,3.52,3.52,0,0,1-.59-1.53,5.63,5.63,0,0,1,.06-1.87Q92.22,142.58,92.33,142Zm2.58,1.26a2.44,2.44,0,0,0,0,.81,1.82,1.82,0,0,0,.24.69,1.36,1.36,0,0,0,1.21.66,2.14,2.14,0,0,0,.91-.17,2,2,0,0,0,.64-.47,2.34,2.34,0,0,0,.42-.69,4.37,4.37,0,0,0,.24-.81L98.8,142a2.8,2.8,0,0,0,0-.81,1.68,1.68,0,0,0-.22-.69,1.31,1.31,0,0,0-.49-.48,1.56,1.56,0,0,0-.77-.18,1.93,1.93,0,0,0-.83.18,2.16,2.16,0,0,0-.65.48,2.53,2.53,0,0,0-.46.69,3.37,3.37,0,0,0-.26.81Q95,142.58,94.92,143.21Z" fill="#00aeef"/></g><g id="_Group_3" data-name="&lt;Group&gt;"><path id="_Compound_Path_7" data-name="&lt;Compound Path&gt;" d="M41.39,166.11l-9,.08c-1.17,3.35-2.43,6.68-3.74,10l-4.55,0a239.85,239.85,0,0,0,8.09-24.46q7.54-.16,15.08-.27-.53,2.07-1.14,4.13l-10.32.15q-.93,3.18-2,6.35l9.12-.1Q42.16,164.06,41.39,166.11Z" fill="#00aeef"/><path id="_Compound_Path_8" data-name="&lt;Compound Path&gt;" d="M53.31,167.09l-3.75,0c-1.2,3-2.52,6-3.92,9.05H41.08A145,145,0,0,0,50,151.44l8.61-.1a11.07,11.07,0,0,1,3.48.45,5.19,5.19,0,0,1,2.32,1.41,4.22,4.22,0,0,1,1,2.34A7.42,7.42,0,0,1,65,158.8a11.55,11.55,0,0,1-1.15,2.46,10.48,10.48,0,0,1-1.56,1.94,11.14,11.14,0,0,1-1.88,1.48,14.06,14.06,0,0,1-2.15,1.1,85.31,85.31,0,0,1,.18,10.15l-.12.24H53.41Q53.58,171.63,53.31,167.09ZM51.15,163l3.83,0a5.49,5.49,0,0,0,1.74-.27,5,5,0,0,0,1.45-.76,5.32,5.32,0,0,0,1.13-1.17,5.89,5.89,0,0,0,.76-1.52,3.23,3.23,0,0,0,0-2.76,2.77,2.77,0,0,0-2.56-1l-3.84,0Q52.53,159.25,51.15,163Z" fill="#00aeef"/><path id="_Compound_Path_9" data-name="&lt;Compound Path&gt;" d="M79.91,165.39H70.82q-1.44,3.35-3.16,6.68l10.45,0q-1.13,2.07-2.37,4.12l-14.82,0a99.1,99.1,0,0,0,9.85-24.91q7.75,0,15.49,0-.44,2.08-1.05,4.16H74.47q-.87,3-2,6h9.15C81.09,162.7,80.52,164,79.91,165.39Z" fill="#00aeef"/><path id="_Compound_Path_10" data-name="&lt;Compound Path&gt;" d="M98.09,165.45l-9.09,0q-1.58,3.36-3.53,6.7l10.44,0q-1.28,2.07-2.7,4.12l-14.8-.06c5.18-8.24,9-16.67,10.69-25q7.75,0,15.49.07-.39,2.07-1,4.15l-10.76-.05a61.49,61.49,0,0,1-2.07,6l9.16,0Q99.09,163.43,98.09,165.45Z" fill="#00aeef"/></g></g></g></g></svg>