<svg xmlns="http://www.w3.org/2000/svg" viewBox="0 0 166.08 100"><title>about-feature-communication</title><g id="Layer_2" data-name="Layer 2"><g id="Layer_1-2" data-name="Layer 1"><g id="_Group_" data-name="&lt;Group&gt;"><g id="_Group_2" data-name="&lt;Group&gt;"><rect id="_Rectangle_" data-name="&lt;Rectangle&gt;" x="11.88" width="142.32" height="89.4" rx="3.47" ry="3.47" fill="#44c8f5"/><rect id="_Rectangle_2" data-name="&lt;Rectangle&gt;" x="41.67" y="-23.13" width="82.73" height="135.65" rx="0.47" ry="0.47" transform="translate(127.74 -38.34) rotate(90)" fill="#fff"/><path id="_Path_" data-name="&lt;Path&gt;" d="M149.18,92H16.89a43.83,43.83,0,0,1-15-2.63L.38,88.78a.57.57,0,0,1,.2-1.11H165.5a.57.57,0,0,1,.2,1.11l-1.56.56A43.83,43.83,0,0,1,149.18,92Z" fill="#44c8f5"/><path id="_Path_2" data-name="&lt;Path&gt;" d="M15.21,3.89a.55.55,0,0,1,.55-.55H150.31a.55.55,0,0,1,.55.55V6.27H15.21Z" fill="#abe1fa"/><rect id="_Rectangle_3" data-name="&lt;Rectangle&gt;" x="56.62" y="22.72" width="48.73" height="22.96" fill="#abe1fa"/><rect id="_Rectangle_4" data-name="&lt;Rectangle&gt;" x="56.62" y="48.27" width="48.73" height="22.96" fill="#abe1fa"/><rect id="_Rectangle_5" data-name="&lt;Rectangle&gt;" x="34.31" y="10.16" width="19.93" height="12.56" fill="#abe1fa"/><rect id="_Rectangle_6" data-name="&lt;Rectangle&gt;" x="107.71" y="10.16" width="19.93" height="17.7" fill="#abe1fa"/><rect id="_Path_3" data-name="&lt;Path&gt;" x="56.62" y="10.16" width="11.29" height="10.36" fill="#abe1fa"/><rect id="_Path_4" data-name="&lt;Path&gt;" x="69.09" y="10.16" width="11.29" height="10.36" fill="#abe1fa"/><rect id="_Path_5" data-name="&lt;Path&gt;" x="81.57" y="10.16" width="11.29" height="10.36" fill="#abe1fa"/><rect id="_Path_6" data-name="&lt;Path&gt;" x="94.05" y="10.16" width="11.29" height="10.36" fill="#abe1fa"/></g><g id="_Group_3" data-name="&lt;Group&gt;"><rect id="_Rectangle_7" data-name="&lt;Rectangle&gt;" x="136.91" y="45.42" width="29.16" height="54.58" rx="2.69" ry="2.69" fill="#44c8f5"/><polygon id="_Path_7" data-name="&lt;Path&gt;" points="137.99 94.31 137.99 50.02 165 50.02 165 50.02 165 94.31 137.99 94.31" fill="#fff"/><circle id="_Path_8" data-name="&lt;Path&gt;" cx="151.49" cy="97.15" r="1.62" fill="#ecf8fe"/><line id="_Path_9" data-name="&lt;Path&gt;" x1="149.76" y1="47.88" x2="153.23" y2="47.88" fill="none" stroke="#ecf8fe" stroke-linecap="round" stroke-linejoin="round" stroke-width="0.5"/><rect id="_Path_10" data-name="&lt;Path&gt;" x="139.18" y="51.2" width="24.63" height="9.59" fill="#abe1fa"/><rect id="_Path_11" data-name="&lt;Path&gt;" x="139.18" y="61.98" width="24.63" height="9.59" fill="#abe1fa"/><rect id="_Path_12" data-name="&lt;Path&gt;" x="139.18" y="72.75" width="24.63" height="9.59" fill="#abe1fa"/><rect id="_Path_13" data-name="&lt;Path&gt;" x="139.18" y="83.53" width="24.63" height="9.59" fill="#abe1fa"/></g></g></g></g></svg>