<svg xmlns="http://www.w3.org/2000/svg" xmlns:xlink="http://www.w3.org/1999/xlink" viewBox="0 0 382.63 426.18"><defs><clipPath id="clip-path"><path id="_Clipping_Path_" data-name="&lt;Clipping Path&gt;" d="M242.37,244.38l-45.26,26.13a8.35,8.35,0,0,1-8.35,0l-45.26-26.13a8.35,8.35,0,0,1-4.17-7.23V184.9a8.35,8.35,0,0,1,4.17-7.23l45.26-26.13a8.35,8.35,0,0,1,8.35,0l45.26,26.13a8.35,8.35,0,0,1,4.17,7.23v52.26A8.35,8.35,0,0,1,242.37,244.38Z" fill="none"/></clipPath><linearGradient id="linear-gradient" x1="234.89" y1="252.97" x2="150.99" y2="169.08" gradientUnits="userSpaceOnUse"><stop offset="0" stop-color="#0066b3"/><stop offset="1" stop-color="#00aeef"/></linearGradient><linearGradient id="linear-gradient-2" x1="153.25" y1="39.69" x2="232.63" y2="39.69" xlink:href="#linear-gradient"/><linearGradient id="linear-gradient-3" x1="-233.35" y1="-1888.28" x2="-153.98" y2="-1888.28" gradientTransform="translate(235.41 2012.9)" xlink:href="#linear-gradient"/><linearGradient id="linear-gradient-4" x1="1243.02" y1="-3187.08" x2="1322.39" y2="-3187.08" gradientTransform="translate(3226.77 1580.72) rotate(-90)" xlink:href="#linear-gradient"/><linearGradient id="linear-gradient-5" x1="3105.99" y1="-2557.9" x2="3185.37" y2="-2557.9" gradientTransform="translate(3334.52 -2171.41) rotate(180)" xlink:href="#linear-gradient"/><linearGradient id="linear-gradient-6" x1="3492.6" y1="-629.93" x2="3571.97" y2="-629.93" gradientTransform="translate(3872.32 -328.36) rotate(180)" xlink:href="#linear-gradient"/><linearGradient id="linear-gradient-7" x1="2016.23" y1="668.86" x2="2095.6" y2="668.86" gradientTransform="translate(1010.95 -1927.75) rotate(90)" xlink:href="#linear-gradient"/></defs><title>about-works</title><g id="Layer_2" data-name="Layer 2"><g id="Layer_1-2" data-name="Layer 1"><g id="_Clip_Group_" data-name="&lt;Clip Group&gt;"><g clip-path="url(#clip-path)"><g id="_Group_" data-name="&lt;Group&gt;"><path id="_Path_" data-name="&lt;Path&gt;" d="M238.44,271.63H146.22c1-8.8,3.77-29.86,11.19-31.81,2.68-1,5-1.74,7.12-2.29,10.14-2.7,13.88-1.21,16.12-6.08,2.69-5.88.65-5.43-1.31-10.2l-.06-.15q-.26-.29-.49-.61a31.45,31.45,0,0,1-6.36-20.1,13.66,13.66,0,0,0,0-3.47,15.9,15.9,0,0,0-.3-1.81c-.49-2.15-1.16-13,3.81-16.45,2.26-1.55,9.22-5.66,16.32-5.29,8.48.44,17.15,5.67,18.24,7.61,2.93,5.24,1.71,13.5,1.58,14.27-.51,3-.87,7.15-1.16,11.62a25.5,25.5,0,0,1-4.31,12,23.7,23.7,0,0,1-1.32,2.1l-.08.22c-2,4.77-4,4.31-1.31,10.2,1.69,3.69,4.31,3.8,9.88,4.82A74.75,74.75,0,0,1,227.34,240c7.66,3.15,10.24,18.11,11.1,26.52" fill="#00aeef" fill-rule="evenodd"/></g></g></g><g id="_Group_2" data-name="&lt;Group&gt;"><path id="_Path_2" data-name="&lt;Path&gt;" d="M242.37,244.38l-45.26,26.13a8.35,8.35,0,0,1-8.35,0l-45.26-26.13a8.35,8.35,0,0,1-4.17-7.23V184.9a8.35,8.35,0,0,1,4.17-7.23l45.26-26.13a8.35,8.35,0,0,1,8.35,0l45.26,26.13a8.35,8.35,0,0,1,4.17,7.23v52.26A8.35,8.35,0,0,1,242.37,244.38Z" fill="none" stroke="url(#linear-gradient)"/></g><circle id="_Path_3" data-name="&lt;Path&gt;" cx="192.94" cy="39.69" r="39.19" fill="none" stroke="url(#linear-gradient-2)"/><circle id="_Path_4" data-name="&lt;Path&gt;" cx="41.74" cy="124.61" r="39.19" transform="matrix(0.5, -0.87, 0.87, 0.5, -87.05, 98.46)" fill="none" stroke="url(#linear-gradient-3)"/><circle id="_Path_5" data-name="&lt;Path&gt;" cx="39.69" cy="298.02" r="39.19" transform="translate(-143.69 59.77) rotate(-30)" fill="none" stroke="url(#linear-gradient-4)"/><circle id="_Path_6" data-name="&lt;Path&gt;" cx="188.84" cy="386.5" r="39.19" fill="none" stroke="url(#linear-gradient-5)"/><circle id="_Path_7" data-name="&lt;Path&gt;" cx="340.04" cy="301.57" r="39.19" transform="translate(-91.15 445.27) rotate(-60)" fill="none" stroke="url(#linear-gradient-6)"/><circle id="_Path_8" data-name="&lt;Path&gt;" cx="342.09" cy="128.16" r="39.19" transform="translate(-18.25 188.22) rotate(-30)" fill="none" stroke="url(#linear-gradient-7)"/><g id="_Group_3" data-name="&lt;Group&gt;"><g id="_Group_4" data-name="&lt;Group&gt;"><g id="_Group_5" data-name="&lt;Group&gt;"><path id="_Path_9" data-name="&lt;Path&gt;" d="M207.42,137.42a53.06,53.06,0,0,0,4.68-22,52.13,52.13,0,0,0-7.52-27.33" fill="none" stroke="#939598"/><g id="_Group_6" data-name="&lt;Group&gt;"><path id="_Path_10" data-name="&lt;Path&gt;" d="M204.58,142.75a30.22,30.22,0,0,1,8.18-5.37l-5-.68L204.33,133A30.2,30.2,0,0,1,204.58,142.75Z" fill="#939598"/></g></g></g><g id="_Group_7" data-name="&lt;Group&gt;"><g id="_Group_8" data-name="&lt;Group&gt;"><path id="_Path_11" data-name="&lt;Path&gt;" d="M178.47,92.43a53.06,53.06,0,0,0-4.68,22,52.13,52.13,0,0,0,7.52,27.33" fill="none" stroke="#939598"/><g id="_Group_9" data-name="&lt;Group&gt;"><path id="_Path_12" data-name="&lt;Path&gt;" d="M181.3,87.11a30.22,30.22,0,0,1-8.18,5.37l5,.68,3.41,3.73A30.2,30.2,0,0,1,181.3,87.11Z" fill="#939598"/></g></g></g></g><g id="_Group_10" data-name="&lt;Group&gt;"><g id="_Group_11" data-name="&lt;Group&gt;"><g id="_Group_12" data-name="&lt;Group&gt;"><path id="_Path_13" data-name="&lt;Path&gt;" d="M119.83,234.31a53.06,53.06,0,0,0-21.39,6.95,52.13,52.13,0,0,0-19.91,20.17" fill="none" stroke="#939598"/><g id="_Group_13" data-name="&lt;Group&gt;"><path id="_Path_14" data-name="&lt;Path&gt;" d="M125.86,234.11a30.22,30.22,0,0,1-8.74-4.4l1.91,4.68-1.52,4.82A30.2,30.2,0,0,1,125.86,234.11Z" fill="#939598"/></g></g></g><g id="_Group_14" data-name="&lt;Group&gt;"><g id="_Group_15" data-name="&lt;Group&gt;"><path id="_Path_15" data-name="&lt;Path&gt;" d="M95.34,281.88a53.06,53.06,0,0,0,21.39-6.95,52.13,52.13,0,0,0,19.91-20.17" fill="none" stroke="#939598"/><g id="_Group_16" data-name="&lt;Group&gt;"><path id="_Path_16" data-name="&lt;Path&gt;" d="M89.31,282.09a30.22,30.22,0,0,1,8.74,4.4l-1.91-4.68L97.65,277A30.2,30.2,0,0,1,89.31,282.09Z" fill="#939598"/></g></g></g></g><g id="_Group_17" data-name="&lt;Group&gt;"><g id="_Group_18" data-name="&lt;Group&gt;"><g id="_Group_19" data-name="&lt;Group&gt;"><path id="_Path_17" data-name="&lt;Path&gt;" d="M247.53,261.72a53.06,53.06,0,0,0,16.71,15.05,52.13,52.13,0,0,0,27.43,7.15" fill="none" stroke="#939598"/><g id="_Group_20" data-name="&lt;Group&gt;"><path id="_Path_18" data-name="&lt;Path&gt;" d="M244.34,256.6a30.22,30.22,0,0,1,.56,9.77l3.1-4,4.94-1.09A30.2,30.2,0,0,1,244.34,256.6Z" fill="#939598"/></g></g></g><g id="_Group_21" data-name="&lt;Group&gt;"><g id="_Group_22" data-name="&lt;Group&gt;"><path id="_Path_19" data-name="&lt;Path&gt;" d="M301,259.15a53.06,53.06,0,0,0-16.71-15.05,52.13,52.13,0,0,0-27.42-7.15" fill="none" stroke="#939598"/><g id="_Group_23" data-name="&lt;Group&gt;"><path id="_Path_20" data-name="&lt;Path&gt;" d="M304.17,264.27a30.23,30.23,0,0,1-.56-9.77l-3.1,4-4.94,1.09A30.19,30.19,0,0,1,304.17,264.27Z" fill="#939598"/></g></g></g></g><g id="_Group_24" data-name="&lt;Group&gt;"><g id="_Group_25" data-name="&lt;Group&gt;"><g id="_Group_26" data-name="&lt;Group&gt;"><path id="_Path_21" data-name="&lt;Path&gt;" d="M136.55,157.58a53.06,53.06,0,0,0-16.71-15.05,52.13,52.13,0,0,0-27.43-7.15" fill="none" stroke="#939598"/><g id="_Group_27" data-name="&lt;Group&gt;"><path id="_Path_22" data-name="&lt;Path&gt;" d="M139.74,162.7a30.22,30.22,0,0,1-.56-9.77l-3.1,4L131.15,158A30.2,30.2,0,0,1,139.74,162.7Z" fill="#939598"/></g></g></g><g id="_Group_28" data-name="&lt;Group&gt;"><g id="_Group_29" data-name="&lt;Group&gt;"><path id="_Path_23" data-name="&lt;Path&gt;" d="M83.11,160.16a53.06,53.06,0,0,0,16.71,15.05,52.13,52.13,0,0,0,27.42,7.15" fill="none" stroke="#939598"/><g id="_Group_30" data-name="&lt;Group&gt;"><path id="_Path_24" data-name="&lt;Path&gt;" d="M79.92,155a30.22,30.22,0,0,1,.56,9.77l3.1-4,4.94-1.09A30.2,30.2,0,0,1,79.92,155Z" fill="#939598"/></g></g></g></g><g id="_Group_31" data-name="&lt;Group&gt;"><g id="_Group_32" data-name="&lt;Group&gt;"><g id="_Group_33" data-name="&lt;Group&gt;"><path id="_Path_25" data-name="&lt;Path&gt;" d="M176.67,281.88a53.06,53.06,0,0,0-4.68,22,52.13,52.13,0,0,0,7.52,27.33" fill="none" stroke="#939598"/><g id="_Group_34" data-name="&lt;Group&gt;"><path id="_Path_26" data-name="&lt;Path&gt;" d="M179.5,276.56a30.22,30.22,0,0,1-8.18,5.37l5,.68,3.41,3.73A30.2,30.2,0,0,1,179.5,276.56Z" fill="#939598"/></g></g></g><g id="_Group_35" data-name="&lt;Group&gt;"><g id="_Group_36" data-name="&lt;Group&gt;"><path id="_Path_27" data-name="&lt;Path&gt;" d="M205.62,326.87a53.06,53.06,0,0,0,4.68-22,52.13,52.13,0,0,0-7.52-27.33" fill="none" stroke="#939598"/><g id="_Group_37" data-name="&lt;Group&gt;"><path id="_Path_28" data-name="&lt;Path&gt;" d="M202.78,332.2a30.22,30.22,0,0,1,8.18-5.37l-5-.68-3.41-3.73A30.19,30.19,0,0,1,202.78,332.2Z" fill="#939598"/></g></g></g></g><g id="_Group_38" data-name="&lt;Group&gt;"><g id="_Group_39" data-name="&lt;Group&gt;"><g id="_Group_40" data-name="&lt;Group&gt;"><path id="_Path_29" data-name="&lt;Path&gt;" d="M264.25,185A53.06,53.06,0,0,0,285.65,178a52.13,52.13,0,0,0,19.91-20.17" fill="none" stroke="#939598"/><g id="_Group_41" data-name="&lt;Group&gt;"><path id="_Path_30" data-name="&lt;Path&gt;" d="M258.22,185.2a30.22,30.22,0,0,1,8.74,4.4L265,184.92l1.52-4.82A30.2,30.2,0,0,1,258.22,185.2Z" fill="#939598"/></g></g></g><g id="_Group_42" data-name="&lt;Group&gt;"><g id="_Group_43" data-name="&lt;Group&gt;"><path id="_Path_31" data-name="&lt;Path&gt;" d="M288.74,137.42a53.06,53.06,0,0,0-21.39,6.95,52.13,52.13,0,0,0-19.91,20.17" fill="none" stroke="#939598"/><g id="_Group_44" data-name="&lt;Group&gt;"><path id="_Path_32" data-name="&lt;Path&gt;" d="M294.77,137.22a30.22,30.22,0,0,1-8.74-4.4L288,137.5l-1.52,4.82A30.2,30.2,0,0,1,294.77,137.22Z" fill="#939598"/></g></g></g></g><g id="_Group_45" data-name="&lt;Group&gt;"><circle id="_Path_33" data-name="&lt;Path&gt;" cx="222.64" cy="13.27" r="12.77" fill="#fff" stroke="#00a651"/><polyline id="_Path_34" data-name="&lt;Path&gt;" points="229.53 7.9 221.09 18.64 215.74 13.3" fill="#fff" stroke="#00a651" stroke-width="2"/></g><g id="_Group_46" data-name="&lt;Group&gt;"><circle id="_Path_35" data-name="&lt;Path&gt;" cx="220.64" cy="362.09" r="12.77" fill="#fff" stroke="#00a651"/><polyline id="_Path_36" data-name="&lt;Path&gt;" points="227.53 356.72 219.09 367.46 213.74 362.12" fill="#fff" stroke="#00a651" stroke-width="2"/></g><g id="_Group_47" data-name="&lt;Group&gt;"><g id="_Group_48" data-name="&lt;Group&gt;"><path d="M330.85,324.5v-5.43h1.9a3.64,3.64,0,0,1,.85.09,1.79,1.79,0,0,1,.63.27,1.2,1.2,0,0,1,.39.46,1.48,1.48,0,0,1,.14.66,1.35,1.35,0,0,1,0,.36,1.19,1.19,0,0,1-.14.32,1.23,1.23,0,0,1-.24.27,1.25,1.25,0,0,1-.35.2,1.19,1.19,0,0,1,.41.18,1.12,1.12,0,0,1,.28.28,1.1,1.1,0,0,1,.16.35,1.5,1.5,0,0,1,.05.39,1.43,1.43,0,0,1-.51,1.19,2.29,2.29,0,0,1-1.45.4Zm1.12-3.15h.83a1,1,0,0,0,.64-.18.61.61,0,0,0,.21-.49.62.62,0,0,0-.21-.53,1.13,1.13,0,0,0-.68-.16H332Zm0,.79v1.46h1a1.14,1.14,0,0,0,.37-.05.73.73,0,0,0,.26-.15.6.6,0,0,0,.15-.22.77.77,0,0,0,.05-.28,1,1,0,0,0,0-.31.59.59,0,0,0-.14-.24.59.59,0,0,0-.25-.15,1.12,1.12,0,0,0-.37-.05Z" fill="#00aeef"/><path d="M339,323.38h-2l-.37,1.12h-1.19l2-5.43h1l2,5.43h-1.19Zm-1.66-.91h1.36l-.68-2Z" fill="#00aeef"/><path d="M345.65,324.5h-1.12l-2.18-3.57v3.57h-1.12v-5.43h1.12l2.18,3.58v-3.58h1.12Z" fill="#00aeef"/><path d="M348.51,322.32l-.58.63v1.55h-1.12v-5.43h1.12v2.46l.49-.67,1.38-1.78h1.38l-1.93,2.41,2,3h-1.33Z" fill="#00aeef"/></g><g id="_Group_49" data-name="&lt;Group&gt;"><g id="_Group_50" data-name="&lt;Group&gt;"><g id="_Group_51" data-name="&lt;Group&gt;"><g id="_Group_52" data-name="&lt;Group&gt;"><path id="_Compound_Path_" data-name="&lt;Compound Path&gt;" d="M322.16,311.32a2,2,0,0,0,0,4.07h35.61a2,2,0,1,0,0-4.07h-.51V293h.51a1,1,0,1,0,0-2H322.16a1,1,0,0,0,0,2h.51v18.31ZM347.08,293h6.1v18.31h-6.1Zm-10.17,0H343v18.31h-6.1Zm-10.18,0h6.1v18.31h-6.1Z" fill="#00aeef"/><path id="_Compound_Path_2" data-name="&lt;Compound Path&gt;" d="M319.61,289.8h40.71a2,2,0,0,0,.66-4l-20.19-9.09a2,2,0,0,0-1.67,0l-20.35,9.16a2,2,0,0,0,.83,3.9ZM340,279.36a4.43,4.43,0,1,1-4.43,4.43A4.43,4.43,0,0,1,340,279.36Z" fill="#00aeef"/><path id="_Compound_Path_3" data-name="&lt;Compound Path&gt;" d="M338.61,285l-.66.66a2.34,2.34,0,0,0,1.72.69v.79h.74v-.82a1.58,1.58,0,0,0,1.57-1.55,1.44,1.44,0,0,0-.4-1.09,1.77,1.77,0,0,0-1-.41l-.28,0V282a1.46,1.46,0,0,1,.9.35l.64-.63a2.13,2.13,0,0,0-1.44-.6v-.65h-.74v.66a1.55,1.55,0,0,0-1.52,1.56,1.36,1.36,0,0,0,.37,1,1.74,1.74,0,0,0,1,.44l.23,0v1.32A1.66,1.66,0,0,1,338.61,285Zm1.7-.83a.88.88,0,0,1,.52.19.58.58,0,0,1,.16.44c0,.36-.24.58-.68.63Zm-1-1.2a.5.5,0,0,1-.15-.37.65.65,0,0,1,.63-.64v1.22A.86.86,0,0,1,339.29,283Z" fill="#00aeef"/></g></g></g><g id="_Group_53" data-name="&lt;Group&gt;" opacity="0.06"><path id="_Path_37" data-name="&lt;Path&gt;" d="M357.91,311.32h-.51V293h.51a1,1,0,1,0,0-2h-8.64q-.26,1-.57,2h4.63v18.31h-6.1v-14a71.8,71.8,0,0,1-4.07,8.83v5.13H340.1q-1.39,2.13-2.87,4.07h20.69a2,2,0,1,0,0-4.07Z" fill="#00aeef"/><path id="_Path_38" data-name="&lt;Path&gt;" d="M361.13,285.83l-10.35-4.66a44.19,44.19,0,0,1-1.21,8.62h10.9a2,2,0,0,0,.66-4Z" fill="#00aeef"/></g></g></g><g id="_Group_54" data-name="&lt;Group&gt;"><g id="_Group_55" data-name="&lt;Group&gt;"><g id="_Group_56" data-name="&lt;Group&gt;"><g id="_Group_57" data-name="&lt;Group&gt;"><path id="_Compound_Path_4" data-name="&lt;Compound Path&gt;" d="M58.57,136.44c0-.19,0-.32,0-.45q0-4.92,0-9.84c0-.67,0-.57-.57-.57H55.28V106H51.61v-4.91h1.12V99.61H29.93v1.46H31V106H27.35V125.6H24.09v10.85h-1.6c0,.56,0,1.09,0,1.61s.11.47.48.47H59.73l.4,0v-2.07ZM48.69,110.7h2.84V115H48.69Zm2.85,5.52v4.31H48.7v-4.31Zm-6.09,5.51H47c.2,0,.32,0,.32.27,0,1.27,0,2.54,0,3.81,0,.09-.14.27-.22.27-.87,0-1.75,0-2.67,0v-4.36Zm-1-1.21v-4.31h2.86v4.31ZM47.32,115H44.46v-4.3h2.86ZM35.69,110.7h2.85V115H35.69Zm2.85,9.82H35.7v-4.3h2.85Zm0,1.46c0,1.26,0,2.52,0,3.77,0,.11-.13.32-.2.32-.87,0-1.75,0-2.66,0v-4.34h2.82A1.43,1.43,0,0,1,38.57,122Zm-7.1-11.29h2.85V115H31.47Zm0,5.52h2.85v4.31H31.47Zm0,5.52H34c.24,0,.32.08.32.32,0,1.26,0,2.51,0,3.77,0,.09-.14.27-.22.27-.87,0-1.75,0-2.67,0Zm9.06,14.75H31.16V128.8h9.35Zm-2.38-31.09a3.44,3.44,0,1,1,3.44,3.44A3.44,3.44,0,0,1,38.13,105.38Zm13.37,31.1H42.15V128.8H51.5Zm.05-10.62c0,.08-.12.22-.19.22-.89,0-1.77,0-2.67,0v-4.36c.91,0,1.8,0,2.69,0,.06,0,.18.15.18.23Q51.57,123.92,51.56,125.86Z" fill="#00aeef"/><polygon id="_Path_39" data-name="&lt;Path&gt;" points="42.3 103.23 40.83 103.23 40.83 104.65 39.42 104.65 39.42 106.12 40.83 106.12 40.83 107.53 42.3 107.53 42.3 106.12 43.72 106.12 43.72 104.65 42.3 104.65 42.3 103.23" fill="#00aeef"/></g><path id="_Compound_Path_5" data-name="&lt;Compound Path&gt;" d="M58.57,136.44c0-.19,0-.32,0-.45q0-4.92,0-9.84c0-.67,0-.57-.57-.57H55.28V106H51.61v-4.91h1.12V99.61H49.46a58.18,58.18,0,0,1-2.29,16.59h.14v4.31H45.85q-.2.61-.42,1.21H47c.2,0,.32,0,.32.27,0,1.27,0,2.54,0,3.81,0,.09-.14.27-.22.27-.87,0-1.75,0-2.67,0v-1.72q-.9,2.29-1.91,4.43h9v7.68H42.15v-6.87q-.8,1.66-1.64,3.22v3.65H38.39q-.66,1.06-1.34,2.06H59.73l.4,0v-2.07ZM48.69,110.7h2.84V115H48.69Zm2.85,5.52v4.31H48.7v-4.31Zm0,9.65c0,.08-.12.22-.19.22-.89,0-1.77,0-2.67,0v-4.36c.91,0,1.8,0,2.69,0,.06,0,.18.15.18.23Q51.57,123.92,51.56,125.86Z" fill="#00aeef" opacity="0.06"/></g></g><g id="_Group_58" data-name="&lt;Group&gt;"><path d="M27.94,147.51H26.8v-2.36H24.59v2.36H23.46V142h1.13v2.23H26.8V142h1.13Z" fill="#00aeef"/><path d="M33.65,144.88a3.52,3.52,0,0,1-.17,1.13,2.46,2.46,0,0,1-.48.85,2.07,2.07,0,0,1-.74.54,2.5,2.5,0,0,1-1.9,0,2.12,2.12,0,0,1-.74-.54,2.45,2.45,0,0,1-.49-.85,3.47,3.47,0,0,1-.17-1.13v-.24a3.47,3.47,0,0,1,.17-1.13,2.5,2.5,0,0,1,.48-.85,2.09,2.09,0,0,1,.74-.54,2.51,2.51,0,0,1,1.9,0,2.08,2.08,0,0,1,.74.54,2.47,2.47,0,0,1,.48.85,3.47,3.47,0,0,1,.17,1.13Zm-1.15-.25a2.33,2.33,0,0,0-.31-1.32,1.1,1.1,0,0,0-1.77,0,2.32,2.32,0,0,0-.31,1.32v.25a3.18,3.18,0,0,0,.08.76,1.65,1.65,0,0,0,.23.56,1,1,0,0,0,.38.34,1.1,1.1,0,0,0,.51.12,1,1,0,0,0,.88-.45,2.37,2.37,0,0,0,.3-1.32Z" fill="#00aeef"/><path d="M37.53,146.07a.77.77,0,0,0,0-.26.51.51,0,0,0-.16-.21,1.46,1.46,0,0,0-.33-.19,5.31,5.31,0,0,0-.54-.2,6.77,6.77,0,0,1-.71-.27,2.61,2.61,0,0,1-.59-.36,1.56,1.56,0,0,1-.4-.48,1.29,1.29,0,0,1-.15-.63,1.34,1.34,0,0,1,.15-.63,1.41,1.41,0,0,1,.42-.49,2.06,2.06,0,0,1,.64-.31,2.85,2.85,0,0,1,.82-.11,2.59,2.59,0,0,1,.83.13,1.9,1.9,0,0,1,.64.35,1.58,1.58,0,0,1,.41.54,1.62,1.62,0,0,1,.14.68H37.53a.91.91,0,0,0-.05-.32.68.68,0,0,0-.17-.25.8.8,0,0,0-.29-.16,1.23,1.23,0,0,0-.4-.06,1.38,1.38,0,0,0-.39,0A.79.79,0,0,0,36,143a.55.55,0,0,0-.16.2.58.58,0,0,0-.06.25.54.54,0,0,0,.28.46,3.16,3.16,0,0,0,.81.34,5.31,5.31,0,0,1,.79.31,2.35,2.35,0,0,1,.57.39,1.47,1.47,0,0,1,.35.48,1.51,1.51,0,0,1,.12.61,1.44,1.44,0,0,1-.14.65,1.35,1.35,0,0,1-.4.48,1.9,1.9,0,0,1-.63.3,3,3,0,0,1-.82.1,3.16,3.16,0,0,1-.54,0,2.58,2.58,0,0,1-.52-.15,2.31,2.31,0,0,1-.46-.25,1.74,1.74,0,0,1-.37-.35,1.63,1.63,0,0,1-.25-.46,1.73,1.73,0,0,1-.09-.57h1.14a1,1,0,0,0,.08.42.73.73,0,0,0,.22.28.93.93,0,0,0,.34.16,1.84,1.84,0,0,0,.45,0,1.38,1.38,0,0,0,.38,0,.78.78,0,0,0,.27-.13.51.51,0,0,0,.16-.2A.62.62,0,0,0,37.53,146.07Z" fill="#00aeef"/><path d="M40.76,145.57v1.94H39.63V142h2.15a2.6,2.6,0,0,1,.87.14,1.88,1.88,0,0,1,.65.38,1.61,1.61,0,0,1,.41.58,1.86,1.86,0,0,1,.14.73,1.79,1.79,0,0,1-.14.72,1.48,1.48,0,0,1-.41.55,1.87,1.87,0,0,1-.65.35,2.86,2.86,0,0,1-.87.12Zm0-.92h1a1.29,1.29,0,0,0,.42-.06.79.79,0,0,0,.29-.17.65.65,0,0,0,.16-.26,1,1,0,0,0,.05-.33,1.12,1.12,0,0,0-.05-.34.78.78,0,0,0-.45-.49,1.05,1.05,0,0,0-.42-.08h-1Z" fill="#00aeef"/><path d="M46,147.51H44.89V142H46Z" fill="#00aeef"/><path d="M51.31,142.92H49.63v4.59H48.49v-4.59H46.82V142h4.49Z" fill="#00aeef"/><path d="M54.81,146.38h-2l-.38,1.14H51.23L53.28,142h1.05l2.06,5.51H55.19Zm-1.68-.92H54.5l-.69-2.06Z" fill="#00aeef"/><path d="M58.24,146.6h2.41v.91H57.11V142h1.13Z" fill="#00aeef"/></g></g><g id="_Group_59" data-name="&lt;Group&gt;"><circle id="_Path_40" data-name="&lt;Path&gt;" cx="366.46" cy="275.15" r="12.77" fill="#fff" stroke="#00a651"/><polyline id="_Path_41" data-name="&lt;Path&gt;" points="373.35 269.78 364.91 280.52 359.57 275.17" fill="#fff" stroke="#00a651" stroke-width="2"/></g><g id="_Group_60" data-name="&lt;Group&gt;"><circle id="_Path_42" data-name="&lt;Path&gt;" cx="369.35" cy="100.61" r="12.77" fill="#fff" stroke="#00a651"/><polyline id="_Path_43" data-name="&lt;Path&gt;" points="376.25 95.24 367.81 105.98 362.46 100.64" fill="#fff" stroke="#00a651" stroke-width="2"/></g><g id="_Group_61" data-name="&lt;Group&gt;"><circle id="_Path_44" data-name="&lt;Path&gt;" cx="70.27" cy="100.61" r="12.77" fill="#fff" stroke="#00a651"/><polyline id="_Path_45" data-name="&lt;Path&gt;" points="77.16 95.24 68.72 105.98 63.38 100.64" fill="#fff" stroke="#00a651" stroke-width="2"/></g><g id="_Group_62" data-name="&lt;Group&gt;"><g id="_Group_63" data-name="&lt;Group&gt;"><path d="M179.79,61a2.1,2.1,0,0,1-.18.72,1.67,1.67,0,0,1-.41.56,1.89,1.89,0,0,1-.63.37,2.53,2.53,0,0,1-.85.13,2.2,2.2,0,0,1-.89-.17,1.81,1.81,0,0,1-.67-.49,2.23,2.23,0,0,1-.42-.78,3.35,3.35,0,0,1-.15-1V60a3.24,3.24,0,0,1,.15-1,2.26,2.26,0,0,1,.43-.78,1.87,1.87,0,0,1,.67-.49,2.18,2.18,0,0,1,.88-.17,2.45,2.45,0,0,1,.85.14,1.83,1.83,0,0,1,.63.38,1.71,1.71,0,0,1,.4.57,2.38,2.38,0,0,1,.18.72h-1.06a1.61,1.61,0,0,0-.08-.41.79.79,0,0,0-.18-.3.73.73,0,0,0-.3-.18,1.41,1.41,0,0,0-.44-.06.9.9,0,0,0-.8.39,2.2,2.2,0,0,0-.26,1.21v.35a3.67,3.67,0,0,0,.06.7,1.47,1.47,0,0,0,.18.5.81.81,0,0,0,.32.3,1.06,1.06,0,0,0,.48.1,1.47,1.47,0,0,0,.43-.06.73.73,0,0,0,.49-.46,1.4,1.4,0,0,0,.08-.4Z" fill="#00aeef"/><path d="M184.88,60.28a3.28,3.28,0,0,1-.16,1.06,2.3,2.3,0,0,1-.45.79,1.94,1.94,0,0,1-.69.5,2.33,2.33,0,0,1-1.77,0,2,2,0,0,1-.69-.5,2.29,2.29,0,0,1-.45-.79,3.2,3.2,0,0,1-.16-1.06v-.23a3.23,3.23,0,0,1,.16-1.05,2.32,2.32,0,0,1,.45-.8,1.93,1.93,0,0,1,.69-.5,2.33,2.33,0,0,1,1.77,0,2,2,0,0,1,.69.5,2.33,2.33,0,0,1,.45.8,3.26,3.26,0,0,1,.16,1.05ZM183.81,60a2.16,2.16,0,0,0-.29-1.23,1,1,0,0,0-1.65,0,2.16,2.16,0,0,0-.29,1.23v.23a3,3,0,0,0,.08.71,1.58,1.58,0,0,0,.22.52,1,1,0,0,0,.35.32,1,1,0,0,0,.48.11.93.93,0,0,0,.82-.42,2.2,2.2,0,0,0,.29-1.23Z" fill="#00aeef"/><path d="M187.21,57.6l1.32,3.72,1.31-3.72h1.39v5.13h-1.06v-1.4l.11-2.42-1.39,3.83h-.73l-1.38-3.82.11,2.42v1.4h-1.06V57.6Z" fill="#00aeef"/><path d="M193.39,60.92v1.81h-1.06V57.6h2a2.41,2.41,0,0,1,.81.13,1.76,1.76,0,0,1,.61.35,1.51,1.51,0,0,1,.38.54,1.74,1.74,0,0,1,.13.68,1.67,1.67,0,0,1-.13.67,1.39,1.39,0,0,1-.38.51,1.74,1.74,0,0,1-.61.33,2.65,2.65,0,0,1-.81.11Zm0-.86h.95a1.2,1.2,0,0,0,.39-.06.71.71,0,0,0,.27-.16.6.6,0,0,0,.15-.24.92.92,0,0,0,0-.31,1,1,0,0,0,0-.32.75.75,0,0,0-.15-.27.74.74,0,0,0-.27-.19,1,1,0,0,0-.39-.07h-.95Z" fill="#00aeef"/><path d="M199.44,61.67h-1.85l-.35,1.06h-1.12L198,57.6h1l1.92,5.13H199.8Zm-1.57-.86h1.28l-.65-1.92Z" fill="#00aeef"/><path d="M205.76,62.73H204.7l-2.06-3.38v3.38h-1.06V57.6h1.06L204.7,61V57.6h1.05Z" fill="#00aeef"/><path d="M208.53,59.91l1.07-2.31h1.16l-1.69,3.27v1.86H208V60.87l-1.69-3.27h1.16Z" fill="#00aeef"/></g><g id="_Group_64" data-name="&lt;Group&gt;"><g id="_Group_65" data-name="&lt;Group&gt;"><g id="_Group_66" data-name="&lt;Group&gt;"><g id="_Group_67" data-name="&lt;Group&gt;"><path id="_Compound_Path_6" data-name="&lt;Compound Path&gt;" d="M214,53.53h0V36l-13.67-3.5V19.56l-14.83-4.87V29.77l-13.66,7.66V53h0v1.13H214Zm-35.57-4.12H175V45.94h3.47Zm0-5.78H175V40.16h3.47Zm5.39,5.78h-3.47V45.94h3.47Zm0-5.78h-3.47V40.16h3.47Zm8.08,4.13h-3.47V44.29h3.47Zm0-7.07h-3.47V37.22h3.47Zm0-7.07h-3.47V30.15h3.47Zm0-7.07h-3.47V23.07h3.47Zm5.39,21.22h-3.47V44.29h3.47Zm0-7.07h-3.47V37.22h3.47Zm0-7.07h-3.47V30.15h3.47Zm0-7.07h-3.47V23.07h3.47Zm8.19,22.87H202V45.94h3.47Zm0-5.78H202V40.16h3.47Zm5.39,5.78h-3.47V45.94h3.47Zm0-5.78h-3.47V40.16h3.47Z" fill="#00aeef" fill-rule="evenodd"/></g></g></g><path id="_Compound_Path_7" data-name="&lt;Compound Path&gt;" d="M200.36,32.5V19.56l-2.07-.68a68.36,68.36,0,0,1-1.55,18.34h.57v3.47h-1.41q-.49,1.84-1.06,3.6h2.47v3.47h-3.47v-.6a62.84,62.84,0,0,1-3.08,7H214v-.61h0V36Zm5.14,16.92H202V45.94h3.47Zm0-5.78H202V40.16h3.47Zm5.39,5.78h-3.47V45.94h3.47Zm0-5.78h-3.47V40.16h3.47Z" fill="#00aeef" opacity="0.06"/></g></g><g id="_Group_68" data-name="&lt;Group&gt;"><g id="_Group_69" data-name="&lt;Group&gt;"><path d="M330.73,143.55a.61.61,0,0,0,0-.21.42.42,0,0,0-.13-.18,1.2,1.2,0,0,0-.27-.16l-.45-.17a5.53,5.53,0,0,1-.59-.22,2.21,2.21,0,0,1-.48-.29,1.31,1.31,0,0,1-.33-.39,1.07,1.07,0,0,1-.12-.52,1.11,1.11,0,0,1,.12-.52,1.18,1.18,0,0,1,.35-.4,1.71,1.71,0,0,1,.53-.26,2.34,2.34,0,0,1,.68-.09,2.1,2.1,0,0,1,.69.1,1.55,1.55,0,0,1,.53.29,1.26,1.26,0,0,1,.34.44,1.31,1.31,0,0,1,.12.56h-.94a.78.78,0,0,0,0-.26.53.53,0,0,0-.14-.21.66.66,0,0,0-.23-.14,1,1,0,0,0-.33,0,1.16,1.16,0,0,0-.32,0,.67.67,0,0,0-.22.11.47.47,0,0,0-.13.17.46.46,0,0,0,0,.21.44.44,0,0,0,.23.38,2.58,2.58,0,0,0,.67.28,4.35,4.35,0,0,1,.65.26,2,2,0,0,1,.47.32,1.17,1.17,0,0,1,.38.9,1.17,1.17,0,0,1-.12.53,1.09,1.09,0,0,1-.33.39,1.54,1.54,0,0,1-.52.25,2.46,2.46,0,0,1-.68.09,2.6,2.6,0,0,1-.45,0,2.07,2.07,0,0,1-.43-.12,1.8,1.8,0,0,1-.38-.2,1.37,1.37,0,0,1-.3-.29,1.3,1.3,0,0,1-.2-.38,1.41,1.41,0,0,1-.07-.47h.94a.85.85,0,0,0,.07.35.59.59,0,0,0,.18.23.76.76,0,0,0,.28.13,1.52,1.52,0,0,0,.37,0,1.11,1.11,0,0,0,.31,0,.64.64,0,0,0,.22-.11.41.41,0,0,0,.13-.16A.51.51,0,0,0,330.73,143.55Z" fill="#00aeef"/><path d="M335,142.78h-1.8V144h2.11v.75h-3V140.2h3V141h-2.1V142H335Z" fill="#00aeef"/><path d="M337.57,143.08h-.75v1.66h-.94V140.2h1.69a2.61,2.61,0,0,1,.71.09,1.5,1.5,0,0,1,.53.26,1.16,1.16,0,0,1,.33.43,1.43,1.43,0,0,1,.12.59,1.65,1.65,0,0,1-.06.45,1.18,1.18,0,0,1-.16.35,1.16,1.16,0,0,1-.26.27,1.67,1.67,0,0,1-.34.2l1,1.86v0h-1Zm-.75-.76h.76a1,1,0,0,0,.32,0,.63.63,0,0,0,.23-.14.59.59,0,0,0,.14-.21.78.78,0,0,0,0-.28.69.69,0,0,0-.18-.5.76.76,0,0,0-.56-.18h-.75Z" fill="#00aeef"/><path d="M341.59,143.62l1-3.42h1l-1.58,4.54h-1l-1.57-4.54h1Z" fill="#00aeef"/><path d="M345.08,144.74h-.94V140.2h.94Z" fill="#00aeef"/><path d="M349.51,143.23a1.87,1.87,0,0,1-.16.64,1.47,1.47,0,0,1-.36.5,1.63,1.63,0,0,1-.56.32,2.22,2.22,0,0,1-.75.12,2,2,0,0,1-.78-.15,1.6,1.6,0,0,1-.59-.43,2,2,0,0,1-.37-.69,3,3,0,0,1-.13-.91v-.3a2.86,2.86,0,0,1,.13-.91,2,2,0,0,1,.38-.69,1.63,1.63,0,0,1,.59-.44,1.93,1.93,0,0,1,.78-.15,2.16,2.16,0,0,1,.75.12,1.61,1.61,0,0,1,.55.33,1.49,1.49,0,0,1,.36.51,2.12,2.12,0,0,1,.16.64h-.94a1.35,1.35,0,0,0-.07-.36.69.69,0,0,0-.16-.26.66.66,0,0,0-.27-.16,1.24,1.24,0,0,0-.39-.05.8.8,0,0,0-.71.34,1.94,1.94,0,0,0-.23,1.07v.31a3.18,3.18,0,0,0,.05.62,1.27,1.27,0,0,0,.16.44.7.7,0,0,0,.29.27.92.92,0,0,0,.42.09,1.3,1.3,0,0,0,.38,0,.66.66,0,0,0,.27-.15.67.67,0,0,0,.17-.25,1.25,1.25,0,0,0,.07-.36Z" fill="#00aeef"/><path d="M352.86,142.78h-1.8V144h2.11v.75h-3V140.2h3V141h-2.1V142h1.8Z" fill="#00aeef"/><path d="M326.79,149.83v1.6h-.94v-4.54h1.77a2.14,2.14,0,0,1,.72.11,1.56,1.56,0,0,1,.54.31,1.36,1.36,0,0,1,.34.48,1.56,1.56,0,0,1,.12.6,1.49,1.49,0,0,1-.12.6,1.25,1.25,0,0,1-.34.45,1.54,1.54,0,0,1-.54.29,2.37,2.37,0,0,1-.72.1Zm0-.76h.84a1.06,1.06,0,0,0,.34,0,.64.64,0,0,0,.24-.14.54.54,0,0,0,.14-.21.81.81,0,0,0,0-.27.91.91,0,0,0,0-.28.66.66,0,0,0-.14-.24.64.64,0,0,0-.24-.17.86.86,0,0,0-.34-.06h-.84Z" fill="#00aeef"/><path d="M331.65,149.77h-.74v1.66H330v-4.54h1.69a2.55,2.55,0,0,1,.71.09,1.47,1.47,0,0,1,.53.26,1.15,1.15,0,0,1,.33.43,1.41,1.41,0,0,1,.12.59,1.66,1.66,0,0,1-.05.45,1.25,1.25,0,0,1-.16.35,1.24,1.24,0,0,1-.26.27,1.64,1.64,0,0,1-.34.2l1,1.86v0h-1Zm-.74-.76h.75a1,1,0,0,0,.32,0,.6.6,0,0,0,.23-.14.56.56,0,0,0,.14-.21.77.77,0,0,0,0-.28.69.69,0,0,0-.18-.5.76.76,0,0,0-.56-.18h-.75Z" fill="#00aeef"/><path d="M337.78,149.27a2.89,2.89,0,0,1-.14.93,2,2,0,0,1-.39.7,1.73,1.73,0,0,1-.61.44,2.06,2.06,0,0,1-1.57,0,1.74,1.74,0,0,1-.61-.44,2,2,0,0,1-.4-.7,2.89,2.89,0,0,1-.14-.93v-.2a2.84,2.84,0,0,1,.14-.93,2.05,2.05,0,0,1,.4-.71,1.73,1.73,0,0,1,.61-.44,2.06,2.06,0,0,1,1.57,0,1.72,1.72,0,0,1,.61.44,2,2,0,0,1,.4.71,2.89,2.89,0,0,1,.14.93Zm-.95-.21a1.9,1.9,0,0,0-.26-1.08.9.9,0,0,0-1.46,0,1.91,1.91,0,0,0-.26,1.08v.21a2.63,2.63,0,0,0,.07.63,1.41,1.41,0,0,0,.19.46.85.85,0,0,0,.31.28.91.91,0,0,0,.42.09.82.82,0,0,0,.73-.37,2,2,0,0,0,.25-1.09Z" fill="#00aeef"/><path d="M340.06,150.31l1-3.41h1l-1.58,4.54h-1L338,146.89h1Z" fill="#00aeef"/><path d="M343.55,151.43h-.94v-4.54h.94Z" fill="#00aeef"/><path d="M344.42,151.43v-4.54h1.4a2.2,2.2,0,0,1,.84.16,1.9,1.9,0,0,1,.65.44,2,2,0,0,1,.43.68,2.47,2.47,0,0,1,.15.89v.21a2.49,2.49,0,0,1-.15.88,2,2,0,0,1-.43.68,1.89,1.89,0,0,1-.66.44,2.21,2.21,0,0,1-.84.16Zm.94-3.78v3h.45a1,1,0,0,0,.84-.37,1.65,1.65,0,0,0,.29-1v-.21a1.65,1.65,0,0,0-.29-1,1,1,0,0,0-.84-.36Z" fill="#00aeef"/><path d="M351.3,149.47h-1.79v1.22h2.11v.75h-3v-4.54h3v.76h-2.1v1.08h1.79Z" fill="#00aeef"/><path d="M353.84,149.77h-.74v1.66h-.94v-4.54h1.69a2.55,2.55,0,0,1,.71.09,1.47,1.47,0,0,1,.53.26,1.15,1.15,0,0,1,.33.43,1.41,1.41,0,0,1,.12.59,1.66,1.66,0,0,1-.05.45,1.25,1.25,0,0,1-.16.35,1.24,1.24,0,0,1-.26.27,1.64,1.64,0,0,1-.34.2l1,1.86v0h-1Zm-.74-.76h.75a1,1,0,0,0,.32,0,.6.6,0,0,0,.23-.14.56.56,0,0,0,.14-.21.77.77,0,0,0,0-.28.69.69,0,0,0-.18-.5.76.76,0,0,0-.56-.18h-.75Z" fill="#00aeef"/></g><g id="_Group_70" data-name="&lt;Group&gt;"><g id="_Group_71" data-name="&lt;Group&gt;"><path id="_Compound_Path_8" data-name="&lt;Compound Path&gt;" d="M360.88,135.22h-.74V115.56a.39.39,0,0,0-.29-.38l-17.21-4.7a.39.39,0,0,1-.29-.38v-3.72c0-1.78-4.1-3.22-9.15-3.22S324,104.6,324,106.38v28.84h-.74a.39.39,0,0,0-.39.39v1.32a.39.39,0,0,0,.39.39h37.58a.39.39,0,0,0,.39-.39v-1.32A.39.39,0,0,0,360.88,135.22Zm-33.7-4.56a.4.4,0,0,1-.29.38,12.09,12.09,0,0,0-1.5.53.39.39,0,0,1-.55-.36v-1.74a.4.4,0,0,1,.23-.36,11,11,0,0,1,1.61-.61.4.4,0,0,1,.51.38Zm0-4.22a.4.4,0,0,1-.29.38,12.12,12.12,0,0,0-1.5.53.39.39,0,0,1-.55-.36v-1.74a.4.4,0,0,1,.23-.36,11,11,0,0,1,1.61-.61.4.4,0,0,1,.51.38Zm0-4.22a.4.4,0,0,1-.29.38,12.09,12.09,0,0,0-1.5.52.39.39,0,0,1-.55-.36V121a.4.4,0,0,1,.23-.36,10.93,10.93,0,0,1,1.61-.61.4.4,0,0,1,.51.38Zm0-4.22a.4.4,0,0,1-.29.38,12.1,12.1,0,0,0-1.5.53.4.4,0,0,1-.55-.36v-1.74a.4.4,0,0,1,.23-.36,11,11,0,0,1,1.61-.61.4.4,0,0,1,.51.38Zm0-4.22a.4.4,0,0,1-.29.38,12.12,12.12,0,0,0-1.5.53.39.39,0,0,1-.55-.36V112.6a.4.4,0,0,1,.23-.36,11,11,0,0,1,1.61-.61.4.4,0,0,1,.51.38Zm0-4.22a.4.4,0,0,1-.29.38,12.12,12.12,0,0,0-1.5.53.39.39,0,0,1-.55-.36v-1.74a.4.4,0,0,1,.23-.36,10.94,10.94,0,0,1,1.61-.61.4.4,0,0,1,.51.38Zm5.52,20.31a.39.39,0,0,1-.38.39,25.39,25.39,0,0,0-3.68.37.39.39,0,0,1-.46-.39v-1.8a.39.39,0,0,1,.32-.39,25.2,25.2,0,0,1,3.8-.4.4.4,0,0,1,.41.39Zm0-4.22a.39.39,0,0,1-.38.39,25.4,25.4,0,0,0-3.68.37.39.39,0,0,1-.46-.39v-1.8a.39.39,0,0,1,.32-.39,25.2,25.2,0,0,1,3.8-.4.39.39,0,0,1,.41.39Zm0-4.22a.39.39,0,0,1-.38.39,25.4,25.4,0,0,0-3.68.37.39.39,0,0,1-.46-.39V120a.39.39,0,0,1,.32-.39,25.19,25.19,0,0,1,3.8-.4.39.39,0,0,1,.41.39Zm0-4.22a.39.39,0,0,1-.38.39,25.39,25.39,0,0,0-3.68.37.39.39,0,0,1-.46-.39v-1.8a.39.39,0,0,1,.32-.39,25.2,25.2,0,0,1,3.8-.4.39.39,0,0,1,.41.39Zm0-4.22a.39.39,0,0,1-.38.39,25.41,25.41,0,0,0-3.68.37.39.39,0,0,1-.46-.39v-1.8a.39.39,0,0,1,.32-.39,25.17,25.17,0,0,1,3.8-.4.39.39,0,0,1,.41.39Zm0-4.22a.39.39,0,0,1-.38.39,25.37,25.37,0,0,0-3.68.37.39.39,0,0,1-.46-.39v-1.8a.39.39,0,0,1,.32-.39,25.23,25.23,0,0,1,3.8-.4.39.39,0,0,1,.41.39Zm5.52,21.47a.39.39,0,0,1-.46.39,25.37,25.37,0,0,0-3.68-.37.39.39,0,0,1-.38-.39v-1.82a.39.39,0,0,1,.41-.39,25.2,25.2,0,0,1,3.8.4.39.39,0,0,1,.32.39Zm0-4.22a.39.39,0,0,1-.46.39,25.4,25.4,0,0,0-3.68-.37.39.39,0,0,1-.38-.39v-1.82a.39.39,0,0,1,.41-.39,25.18,25.18,0,0,1,3.8.4.39.39,0,0,1,.32.39Zm0-4.22a.39.39,0,0,1-.46.39,25.42,25.42,0,0,0-3.68-.37.39.39,0,0,1-.38-.39v-1.82a.39.39,0,0,1,.41-.39,25.21,25.21,0,0,1,3.8.4.39.39,0,0,1,.32.39Zm0-4.22a.39.39,0,0,1-.46.39,25.39,25.39,0,0,0-3.68-.37.39.39,0,0,1-.38-.39v-1.82a.39.39,0,0,1,.41-.39,25.17,25.17,0,0,1,3.8.4.39.39,0,0,1,.32.39Zm0-4.22a.39.39,0,0,1-.46.39,25.37,25.37,0,0,0-3.68-.37.39.39,0,0,1-.38-.39v-1.82a.39.39,0,0,1,.41-.39,25.2,25.2,0,0,1,3.8.4.39.39,0,0,1,.32.39Zm0-4.22a.39.39,0,0,1-.46.39,25.37,25.37,0,0,0-3.68-.37.39.39,0,0,1-.38-.39V107a.39.39,0,0,1,.41-.39,25.2,25.2,0,0,1,3.8.4.39.39,0,0,1,.32.39ZM341.38,134a.54.54,0,1,1-1.08,0v-17.1a.54.54,0,1,1,1.08,0Zm.18-19.69a.39.39,0,0,1-.55.36,12.12,12.12,0,0,0-1.5-.53.4.4,0,0,1-.29-.38V112a.4.4,0,0,1,.51-.38,11,11,0,0,1,1.61.61.4.4,0,0,1,.23.36Zm0-4.22a.39.39,0,0,1-.55.36,12.09,12.09,0,0,0-1.5-.53.4.4,0,0,1-.29-.38v-1.78a.39.39,0,0,1,.51-.38,10.93,10.93,0,0,1,1.61.61.4.4,0,0,1,.23.36ZM354,124.3v.49h-.45v.81H353v-.81h-1.58l0-.37,1.58-2.47h.63v2.35Zm-.48,2,0,0,.07,0,.1,0,.19.06.13.08a.29.29,0,0,1,.08.1.35.35,0,0,1,0,.14.29.29,0,0,1-.12.24.44.44,0,0,1-.14.06l-.19,0-.18,0a.51.51,0,0,1-.16-.07.36.36,0,0,1-.11-.12.33.33,0,0,1,0-.17h.28a.15.15,0,0,0,.06.13.29.29,0,0,0,.17,0h.08l.05,0,0,0a.1.1,0,0,0,0,0,.11.11,0,0,0,0,0l0,0-.07,0-.1,0-.19-.06-.13-.07a.27.27,0,0,1-.08-.1.32.32,0,0,1,0-.13.29.29,0,0,1,0-.14.33.33,0,0,1,.09-.11.44.44,0,0,1,.14-.07l.18,0,.19,0a.46.46,0,0,1,.15.07.32.32,0,0,1,.1.11.32.32,0,0,1,0,.15h-.28a.13.13,0,0,0,0-.06l0,0-.06,0h-.16l-.05,0,0,0a.1.1,0,0,0,0,0A.09.09,0,0,0,353.54,126.34Zm-.42.78h-.31l-.21-.39h-.18v.39h-.28V126h.48l.19,0a.43.43,0,0,1,.15.07.29.29,0,0,1,.09.11.33.33,0,0,1,0,.15.43.43,0,0,1,0,.12.3.3,0,0,1,0,.09l-.07.07-.09.05Zm-4.54-1.51v-.42l1.19-1.3.25-.29a2,2,0,0,0,.16-.24.86.86,0,0,0,.08-.2.74.74,0,0,0,0-.19.71.71,0,0,0,0-.23.53.53,0,0,0-.11-.18.48.48,0,0,0-.17-.12.57.57,0,0,0-.23,0,.69.69,0,0,0-.27.05.52.52,0,0,0-.19.14.59.59,0,0,0-.12.21.91.91,0,0,0,0,.27h-.61a1.25,1.25,0,0,1,.08-.45,1,1,0,0,1,.24-.37,1.13,1.13,0,0,1,.39-.25,1.42,1.42,0,0,1,.53-.09,1.52,1.52,0,0,1,.49.07,1,1,0,0,1,.36.2.85.85,0,0,1,.22.32,1.09,1.09,0,0,1,.08.42,1.07,1.07,0,0,1-.06.34,1.71,1.71,0,0,1-.15.33,2.75,2.75,0,0,1-.23.33l-.3.33-.82.87H351v.49Zm2.25.93v0a.67.67,0,0,1,0,.24.51.51,0,0,1-.11.18.48.48,0,0,1-.17.11.57.57,0,0,1-.21,0,.58.58,0,0,1-.22,0,.48.48,0,0,1-.17-.11.51.51,0,0,1-.11-.18.67.67,0,0,1,0-.24v0a.68.68,0,0,1,0-.24.51.51,0,0,1,.11-.18.48.48,0,0,1,.17-.11.61.61,0,0,1,.43,0,.48.48,0,0,1,.17.11.51.51,0,0,1,.11.18A.67.67,0,0,1,350.83,126.54Zm-2,.15v.45h-.28V126h.28v.47h.45V126h.28v1.14h-.28v-.45ZM351,126h.28v.74a.18.18,0,0,0,.05.15.22.22,0,0,0,.15,0,.21.21,0,0,0,.14,0,.19.19,0,0,0,0-.15V126H352v.74a.43.43,0,0,1,0,.18.36.36,0,0,1-.1.13.42.42,0,0,1-.15.08l-.2,0-.2,0a.43.43,0,0,1-.15-.08.37.37,0,0,1-.1-.13.43.43,0,0,1,0-.18Zm-4.8-6a6.92,6.92,0,0,1,7.32-1.58l-.34.71a6.11,6.11,0,0,0-6.08,1.1,6.41,6.41,0,0,0-1-.17Zm1,10.79a3.92,3.92,0,0,1-1.75-1.21,8.2,8.2,0,0,1-1.24-2,10.5,10.5,0,0,1-.85-2.43,5.07,5.07,0,0,1-.07-1.79c0-.18.07-.35.09-.44a2.89,2.89,0,0,1,1.45-1.81,7,7,0,0,1,.81-.35.59.59,0,0,1,.77.31,2,2,0,0,1,.16.35,5.59,5.59,0,0,1,.33,1.43.9.9,0,0,1-.56.94,4.54,4.54,0,0,1-.57.23.77.77,0,0,0-.59.88,3.56,3.56,0,0,0,.27,1.14,7.17,7.17,0,0,0,.7,1.42,1.88,1.88,0,0,0,.6.62.68.68,0,0,0,.68,0c.23-.11.46-.23.69-.33a.87.87,0,0,1,1,.22,3,3,0,0,1,.38.47c.18.28.35.57.51.87a1.22,1.22,0,0,1,.11.33.56.56,0,0,1-.3.67,5,5,0,0,1-1.14.47A2.83,2.83,0,0,1,347.16,130.77Zm8.79-1a6.86,6.86,0,0,1-4.88,2,7,7,0,0,1-1.69-.21,6.45,6.45,0,0,0,.74-.65,6.12,6.12,0,0,0,6-9.49l-.94,1L354,118.92l3.64.77-1,1.13a6.9,6.9,0,0,1-.71,8.92Z" fill="#00aeef"/><path id="_Path_46" data-name="&lt;Path&gt;" d="M350.3,126.2a.21.21,0,0,0-.19.09.42.42,0,0,0-.06.25v0a.42.42,0,0,0,.06.25.22.22,0,0,0,.19.09l.1,0a.22.22,0,0,0,.08-.07.31.31,0,0,0,0-.11.56.56,0,0,0,0-.14v0a.41.41,0,0,0-.07-.25A.22.22,0,0,0,350.3,126.2Z" fill="#00aeef"/><polygon id="_Path_47" data-name="&lt;Path&gt;" points="352 124.3 352.96 124.3 352.96 122.78 352.91 122.86 352 124.3" fill="#00aeef"/><path id="_Path_48" data-name="&lt;Path&gt;" d="M352.62,126.22h-.19v.29h.19a.2.2,0,0,0,.13,0,.13.13,0,0,0,0-.11.13.13,0,0,0,0-.11A.2.2,0,0,0,352.62,126.22Z" fill="#00aeef"/></g><g id="_Group_72" data-name="&lt;Group&gt;" opacity="0.06"><path id="_Compound_Path_9" data-name="&lt;Compound Path&gt;" d="M353,125.6h.61v-.81H354v-.49h-.45V122h-.63l-1.58,2.47,0,.37H353Zm-1-1.3.91-1.44,0-.08v1.53Z" fill="#00aeef"/><path id="_Path_49" data-name="&lt;Path&gt;" d="M353.17,119.12l.34-.71a6.85,6.85,0,0,0-1.33-.35q0,.39-.07.78A6.06,6.06,0,0,1,353.17,119.12Z" fill="#00aeef"/><path id="_Path_50" data-name="&lt;Path&gt;" d="M351.07,131.76a6.9,6.9,0,0,0,5.59-10.95l1-1.13-3.64-.77,1.15,3.53.94-1a6.12,6.12,0,0,1-6,9.49c-.15.15-.3.29-.46.42l-.08.27A7,7,0,0,0,351.07,131.76Z" fill="#00aeef"/><path id="_Compound_Path_10" data-name="&lt;Compound Path&gt;" d="M353,126.61l.07-.07a.3.3,0,0,0,0-.09.43.43,0,0,0,0-.12.33.33,0,0,0,0-.15.29.29,0,0,0-.09-.11.43.43,0,0,0-.15-.07l-.19,0h-.48v1.14h.28v-.39h.18l.21.39h.31l-.26-.46Zm-.2-.14a.2.2,0,0,1-.13,0h-.19v-.29h.19a.2.2,0,0,1,.13,0,.13.13,0,0,1,0,.11A.13.13,0,0,1,352.75,126.47Z" fill="#00aeef"/><path id="_Path_51" data-name="&lt;Path&gt;" d="M353.7,126l-.18,0a.44.44,0,0,0-.14.07.33.33,0,0,0-.09.11.29.29,0,0,0,0,.14.32.32,0,0,0,0,.13.27.27,0,0,0,.08.1l.13.07.19.06.1,0,.07,0,0,0a.11.11,0,0,1,0,0,.1.1,0,0,1,0,0l0,0-.05,0h-.08a.29.29,0,0,1-.17,0,.15.15,0,0,1-.06-.13h-.28a.33.33,0,0,0,0,.17.36.36,0,0,0,.11.12.51.51,0,0,0,.16.07l.18,0,.19,0a.44.44,0,0,0,.14-.06.29.29,0,0,0,.12-.24.35.35,0,0,0,0-.14.29.29,0,0,0-.08-.1l-.13-.08-.19-.06-.1,0-.07,0,0,0a.09.09,0,0,1,0,0,.1.1,0,0,1,0,0l0,0,.05,0h.16l.06,0,0,0a.13.13,0,0,1,0,.06h.28a.32.32,0,0,0,0-.15.32.32,0,0,0-.1-.11.46.46,0,0,0-.15-.07Z" fill="#00aeef"/><path id="_Compound_Path_11" data-name="&lt;Compound Path&gt;" d="M360.88,135.22h-.74V115.56a.39.39,0,0,0-.29-.38l-7.52-2.05c0,1.6,0,3.24-.15,4.92a6.85,6.85,0,0,1,1.33.35l-.34.71a6.06,6.06,0,0,0-1.06-.28A61.37,61.37,0,0,1,351,126h.25v.74a.18.18,0,0,0,.05.15.22.22,0,0,0,.15,0,.21.21,0,0,0,.14,0,.19.19,0,0,0,0-.15V126H352v.74a.43.43,0,0,1,0,.18.36.36,0,0,1-.1.13.42.42,0,0,1-.15.08l-.2,0-.2,0a.43.43,0,0,1-.15-.08.37.37,0,0,1-.1-.13.43.43,0,0,1,0-.18v-.59q-.38,1.8-.88,3.62a.55.55,0,0,1-.14.49q-.15.54-.32,1.09c.16-.13.32-.27.46-.42a6.12,6.12,0,0,0,6-9.49l-.94,1L354,118.92l3.64.77-1,1.13a6.9,6.9,0,0,1-5.59,10.95,7,7,0,0,1-1.49-.16q-.33,1.08-.69,2.16-.62,1.83-1.33,3.58h13.32a.39.39,0,0,0,.39-.39v-1.32A.39.39,0,0,0,360.88,135.22Zm-9.5-10.43,0-.37,1.58-2.47h.63v2.35H354v.49h-.45v.81H353v-.81Zm1.75,2.34h-.31l-.21-.39h-.18v.39h-.28V126h.48l.19,0a.43.43,0,0,1,.15.07.29.29,0,0,1,.09.11.33.33,0,0,1,0,.15.43.43,0,0,1,0,.12.3.3,0,0,1,0,.09l-.07.07-.09.05.26.46Zm.92-1.06a.32.32,0,0,1,.1.11.32.32,0,0,1,0,.15h-.28a.13.13,0,0,0,0-.06l0,0-.06,0h-.16l-.05,0,0,0a.1.1,0,0,0,0,0,.09.09,0,0,0,0,0l0,0,.07,0,.1,0,.19.06.13.08a.29.29,0,0,1,.08.1.35.35,0,0,1,0,.14.29.29,0,0,1-.12.24.44.44,0,0,1-.14.06l-.19,0-.18,0a.51.51,0,0,1-.16-.07.36.36,0,0,1-.11-.12.33.33,0,0,1,0-.17h.28a.15.15,0,0,0,.06.13.29.29,0,0,0,.17,0h.08l.05,0,0,0a.1.1,0,0,0,0,0,.11.11,0,0,0,0,0l0,0-.07,0-.1,0-.19-.06-.13-.07a.27.27,0,0,1-.08-.1.32.32,0,0,1,0-.13.29.29,0,0,1,0-.14.33.33,0,0,1,.09-.11.44.44,0,0,1,.14-.07l.18,0,.19,0A.46.46,0,0,1,354,126.06Z" fill="#00aeef"/><polygon id="_Path_52" data-name="&lt;Path&gt;" points="352.96 122.78 352.91 122.86 352 124.3 352.96 124.3 352.96 122.78" fill="#00aeef"/><path id="_Path_53" data-name="&lt;Path&gt;" d="M352.62,126.22h-.19v.29h.19a.2.2,0,0,0,.13,0,.13.13,0,0,0,0-.11.13.13,0,0,0,0-.11A.2.2,0,0,0,352.62,126.22Z" fill="#00aeef"/></g></g></g><g id="_Group_73" data-name="&lt;Group&gt;"><g id="_Group_74" data-name="&lt;Group&gt;"><path d="M27.61,319.44a.76.76,0,0,0,0-.26.51.51,0,0,0-.16-.22,1.51,1.51,0,0,0-.33-.19,5.17,5.17,0,0,0-.55-.2,6.61,6.61,0,0,1-.72-.28,2.66,2.66,0,0,1-.59-.36,1.61,1.61,0,0,1-.4-.48,1.3,1.3,0,0,1-.15-.63,1.35,1.35,0,0,1,.15-.64,1.43,1.43,0,0,1,.42-.49,2.08,2.08,0,0,1,.65-.31,2.87,2.87,0,0,1,.83-.11,2.6,2.6,0,0,1,.84.13,1.92,1.92,0,0,1,.65.36,1.57,1.57,0,0,1,.41.54,1.63,1.63,0,0,1,.15.69H27.62a.92.92,0,0,0-.06-.32.66.66,0,0,0-.17-.26.79.79,0,0,0-.29-.17,1.25,1.25,0,0,0-.41-.06,1.37,1.37,0,0,0-.39,0,.8.8,0,0,0-.28.14.58.58,0,0,0-.22.46.54.54,0,0,0,.28.46,3.18,3.18,0,0,0,.82.35,5.47,5.47,0,0,1,.8.31,2.37,2.37,0,0,1,.58.39,1.49,1.49,0,0,1,.35.49,1.52,1.52,0,0,1,.12.62,1.44,1.44,0,0,1-.14.65,1.35,1.35,0,0,1-.41.48,1.92,1.92,0,0,1-.64.3,3,3,0,0,1-.83.1,3.22,3.22,0,0,1-.55,0,2.63,2.63,0,0,1-.53-.15,2.27,2.27,0,0,1-.46-.25,1.69,1.69,0,0,1-.37-.35,1.58,1.58,0,0,1-.25-.46,1.73,1.73,0,0,1-.09-.57h1.15a1,1,0,0,0,.08.43.73.73,0,0,0,.22.28.93.93,0,0,0,.35.16,1.9,1.9,0,0,0,.45,0,1.37,1.37,0,0,0,.39,0,.79.79,0,0,0,.27-.13.52.52,0,0,0,.16-.2A.62.62,0,0,0,27.61,319.44Z" fill="#00aeef"/><path d="M34.1,319a2.27,2.27,0,0,1-.19.78,1.79,1.79,0,0,1-.44.61,2,2,0,0,1-.69.4,2.72,2.72,0,0,1-.92.14,2.38,2.38,0,0,1-1-.19,2,2,0,0,1-.72-.53,2.42,2.42,0,0,1-.45-.84,3.63,3.63,0,0,1-.16-1.11v-.37a3.5,3.5,0,0,1,.17-1.11,2.45,2.45,0,0,1,.46-.84,2,2,0,0,1,.73-.54,2.36,2.36,0,0,1,1-.19,2.65,2.65,0,0,1,.92.15,2,2,0,0,1,.68.41,1.85,1.85,0,0,1,.44.62,2.61,2.61,0,0,1,.2.78H33a1.72,1.72,0,0,0-.09-.44.87.87,0,0,0-.19-.32.8.8,0,0,0-.33-.2,1.53,1.53,0,0,0-.48-.07,1,1,0,0,0-.87.42,2.38,2.38,0,0,0-.28,1.31v.37a4,4,0,0,0,.06.76,1.59,1.59,0,0,0,.2.54.87.87,0,0,0,.35.33,1.15,1.15,0,0,0,.52.11,1.58,1.58,0,0,0,.47-.06.79.79,0,0,0,.53-.5A1.51,1.51,0,0,0,33,319Z" fill="#00aeef"/><path d="M39.58,320.9H38.43v-2.38H36.19v2.38H35v-5.56h1.15v2.25h2.24v-2.25h1.15Z" fill="#00aeef"/><path d="M45.34,318.24a3.53,3.53,0,0,1-.17,1.14,2.46,2.46,0,0,1-.48.86,2.1,2.1,0,0,1-.75.54,2.53,2.53,0,0,1-1.92,0,2.13,2.13,0,0,1-.75-.54,2.49,2.49,0,0,1-.49-.86,3.48,3.48,0,0,1-.18-1.14V318a3.54,3.54,0,0,1,.17-1.14,2.53,2.53,0,0,1,.49-.86,2.11,2.11,0,0,1,.75-.54,2.53,2.53,0,0,1,1.92,0,2.1,2.1,0,0,1,.75.54,2.51,2.51,0,0,1,.49.86,3.51,3.51,0,0,1,.17,1.14ZM44.18,318a2.34,2.34,0,0,0-.31-1.33,1.11,1.11,0,0,0-1.79,0,2.35,2.35,0,0,0-.31,1.33v.25a3.25,3.25,0,0,0,.08.77,1.73,1.73,0,0,0,.24.56,1,1,0,0,0,.38.34A1.1,1.1,0,0,0,43,320a1,1,0,0,0,.89-.46,2.39,2.39,0,0,0,.31-1.33Z" fill="#00aeef"/><path d="M50.94,318.24a3.53,3.53,0,0,1-.17,1.14,2.46,2.46,0,0,1-.48.86,2.1,2.1,0,0,1-.75.54,2.53,2.53,0,0,1-1.92,0,2.13,2.13,0,0,1-.75-.54,2.49,2.49,0,0,1-.49-.86,3.48,3.48,0,0,1-.18-1.14V318a3.54,3.54,0,0,1,.17-1.14,2.53,2.53,0,0,1,.49-.86,2.11,2.11,0,0,1,.75-.54,2.53,2.53,0,0,1,1.92,0,2.1,2.1,0,0,1,.75.54,2.51,2.51,0,0,1,.49.86,3.51,3.51,0,0,1,.17,1.14ZM49.78,318a2.34,2.34,0,0,0-.31-1.33,1.11,1.11,0,0,0-1.79,0,2.35,2.35,0,0,0-.31,1.33v.25a3.25,3.25,0,0,0,.08.77,1.73,1.73,0,0,0,.24.56,1,1,0,0,0,.38.34,1.1,1.1,0,0,0,.52.12,1,1,0,0,0,.89-.46,2.39,2.39,0,0,0,.31-1.33Z" fill="#00aeef"/><path d="M53.11,320h2.43v.92H52v-5.56h1.15Z" fill="#00aeef"/></g><g id="_Group_75" data-name="&lt;Group&gt;"><g id="_Group_76" data-name="&lt;Group&gt;"><path id="_Compound_Path_12" data-name="&lt;Compound Path&gt;" d="M63.79,288.41v-3.54l-.22,0H50.24a2.58,2.58,0,0,1-.31,0v-6.27l3,.54v-3.47l-.88-.16c-4.28-.76-6.16-1.55-10.45-2.27a9.73,9.73,0,0,0-3-.16c-2.83.41-10.27,2.21-12.39,2.59v3.47l3-.66v6.44H15.6v3.49h1.24v21.3H15.6v2.15h.56l47.63,0v-2.43H62.72v-21ZM22.74,306.89H20.08v-6.74h2.65Zm0-9.1H20.08V291h2.65Zm5,9.1H25.06v-6.74h2.65Zm0-9.1H25.06V291h2.65Zm11.78-18.55a3.32,3.32,0,1,1-3.26,3.32A3.29,3.29,0,0,1,39.49,279.23Zm4,10.13v6.74H40.88v-6.74ZM33.8,296.1H31.15v-6.74H33.8ZM36,289.36h2.65v6.74H36Zm7.58,21.06h-7.3V300.15h7.3ZM48.4,296.1H45.75v-6.74H48.4Zm6.09,10.78H51.84v-6.74h2.65Zm0-9.1H51.84V291h2.65Zm5,9.1H56.81v-6.74h2.65Zm0-9.1H56.81V291h2.65Z" fill="#00aeef"/><path id="_Compound_Path_13" data-name="&lt;Compound Path&gt;" d="M39.49,285.24a2.69,2.69,0,1,0-2.64-2.69A2.67,2.67,0,0,0,39.49,285.24Zm-.16-2.52v-2.4h.41v2.58h0l-1,1.06-.29-.3Z" fill="#00aeef"/></g><path id="_Compound_Path_14" data-name="&lt;Compound Path&gt;" d="M63.79,288.41v-3.54l-.22,0H52.84a64.4,64.4,0,0,1-6.73,19.8,69.31,69.31,0,0,1-4.34,7.17h22v-2.43H62.72v-21Zm-9.3,18.47H51.84v-6.74h2.65Zm0-9.1H51.84V291h2.65Zm5,9.1H56.81v-6.74h2.65Zm0-9.1H56.81V291h2.65Z" fill="#00aeef" opacity="0.06"/></g></g><g id="_Group_77" data-name="&lt;Group&gt;"><circle id="_Path_54" data-name="&lt;Path&gt;" cx="62.38" cy="267.43" r="12.77" fill="#fff" stroke="#00a651"/><polyline id="_Path_55" data-name="&lt;Path&gt;" points="69.27 262.06 60.83 272.8 55.48 267.46" fill="#fff" stroke="#00a651" stroke-width="2"/></g><g id="_Group_78" data-name="&lt;Group&gt;"><g id="_Group_79" data-name="&lt;Group&gt;"><path d="M181.61,401.35h-1.8v1.86h-.94v-4.55h3v.76h-2v1.18h1.8Z" fill="#00aeef"/><path d="M184.35,402.28H182.7l-.31.94h-1l1.69-4.55H184l1.7,4.55h-1Zm-1.39-.76h1.14l-.57-1.7Z" fill="#00aeef"/><path d="M187.31,398.66l1.17,3.3,1.16-3.3h1.23v4.55h-.94V402l.09-2.15-1.23,3.39h-.64l-1.22-3.39L187,402v1.24h-.94v-4.55Z" fill="#00aeef"/><path d="M192.69,403.21h-.94v-4.55h.94Z" fill="#00aeef"/><path d="M194.49,402.46h2v.75h-2.93v-4.55h.94Z" fill="#00aeef"/><path d="M197.72,400.71l.95-2h1l-1.49,2.9v1.65h-1v-1.65l-1.49-2.9h1Z" fill="#00aeef"/><path d="M179.39,407.9h-1.8v1.86h-.94v-4.55h3V406h-2v1.17h1.8Z" fill="#00aeef"/><path d="M181.85,408.1h-.75v1.67h-.94v-4.55h1.69a2.57,2.57,0,0,1,.71.09,1.48,1.48,0,0,1,.53.26,1.15,1.15,0,0,1,.33.43,1.43,1.43,0,0,1,.12.59,1.65,1.65,0,0,1-.06.45,1.16,1.16,0,0,1-.42.62,1.68,1.68,0,0,1-.34.2l1,1.86v0h-1Zm-.75-.76h.76a1,1,0,0,0,.32,0,.63.63,0,0,0,.23-.14.58.58,0,0,0,.14-.21.77.77,0,0,0,0-.28.69.69,0,0,0-.18-.51.76.76,0,0,0-.56-.18h-.75Z" fill="#00aeef"/><path d="M185.24,409.76h-.94v-4.55h.94Z" fill="#00aeef"/><path d="M188.85,407.79H187V409h2.11v.75h-3v-4.55h3V406H187v1.08h1.8Z" fill="#00aeef"/><path d="M193.41,409.76h-.94l-1.83-3v3h-.94v-4.55h.94l1.83,3v-3h.93Z" fill="#00aeef"/><path d="M194.23,409.76v-4.55h1.4a2.18,2.18,0,0,1,.84.16,1.89,1.89,0,0,1,.66.44,2,2,0,0,1,.43.69,2.48,2.48,0,0,1,.15.89v.21a2.46,2.46,0,0,1-.15.89,2,2,0,0,1-.43.68,1.92,1.92,0,0,1-.66.44,2.22,2.22,0,0,1-.85.16Zm.94-3.79v3h.45a1,1,0,0,0,.85-.37,1.66,1.66,0,0,0,.29-1v-.21a1.65,1.65,0,0,0-.29-1.05,1,1,0,0,0-.84-.36Z" fill="#00aeef"/><path d="M200.75,408.57a.65.65,0,0,0,0-.21.42.42,0,0,0-.13-.18,1.19,1.19,0,0,0-.27-.16,4.13,4.13,0,0,0-.45-.17,5.55,5.55,0,0,1-.59-.22,2.2,2.2,0,0,1-.48-.3,1.31,1.31,0,0,1-.33-.39,1.08,1.08,0,0,1-.12-.52,1.11,1.11,0,0,1,.12-.52,1.19,1.19,0,0,1,.35-.4,1.71,1.71,0,0,1,.53-.26,2.38,2.38,0,0,1,.68-.09,2.15,2.15,0,0,1,.69.1,1.6,1.6,0,0,1,.53.29,1.29,1.29,0,0,1,.34.45,1.34,1.34,0,0,1,.12.56h-.94a.75.75,0,0,0,0-.27.54.54,0,0,0-.14-.21.66.66,0,0,0-.23-.14,1,1,0,0,0-.33,0,1.15,1.15,0,0,0-.32,0,.66.66,0,0,0-.22.11.47.47,0,0,0-.13.17.48.48,0,0,0,0,.21.44.44,0,0,0,.23.38,2.6,2.6,0,0,0,.67.28,4.44,4.44,0,0,1,.66.26,1.93,1.93,0,0,1,.47.32,1.21,1.21,0,0,1,.29.4,1.25,1.25,0,0,1,.1.5,1.18,1.18,0,0,1-.12.53,1.11,1.11,0,0,1-.33.4,1.58,1.58,0,0,1-.52.25,2.49,2.49,0,0,1-.68.09,2.58,2.58,0,0,1-.45,0,2.2,2.2,0,0,1-.43-.12,1.88,1.88,0,0,1-.38-.2,1.36,1.36,0,0,1-.3-.29,1.28,1.28,0,0,1-.2-.38,1.42,1.42,0,0,1-.07-.47h.94a.84.84,0,0,0,.07.35.6.6,0,0,0,.18.23.76.76,0,0,0,.28.13,1.53,1.53,0,0,0,.37,0,1.17,1.17,0,0,0,.32,0,.66.66,0,0,0,.22-.11.43.43,0,0,0,.13-.16A.51.51,0,0,0,200.75,408.57Z" fill="#00aeef"/></g><g id="_Group_80" data-name="&lt;Group&gt;"><g id="_Group_81" data-name="&lt;Group&gt;"><path id="_Path_56" data-name="&lt;Path&gt;" d="M209.1,370.08l-4-1.72v-5.64a.58.58,0,0,0-.58-.58h-3.94a.58.58,0,0,0-.58.58v3.45l-10.57-4.55a1.63,1.63,0,0,0-1.17,0l-19.67,8.47a1.37,1.37,0,1,0,1.08,2.51l19.18-8.26L208,372.59a1.37,1.37,0,0,0,1.08-2.51Z" fill="#00aeef"/><path id="_Compound_Path_15" data-name="&lt;Compound Path&gt;" d="M207.17,393.83h-2.48V373l-15.93-6.74L173,373v20.86h-2.48a.53.53,0,0,0-.53.53v1.13a.53.53,0,0,0,.53.53h36.65a.53.53,0,0,0,.53-.53v-1.13A.53.53,0,0,0,207.17,393.83Zm-9.87-18.76a2.84,2.84,0,1,1-2.84,2.84A2.84,2.84,0,0,1,197.3,375.06Zm-10.74-4.92a1.38,1.38,0,0,1,2.16.16s0,0,.06,0a1.39,1.39,0,0,1,2.38.15,1.49,1.49,0,0,1,.15.47v.31l0,.08a1.31,1.31,0,0,1-.37.72l-2,2,0,0a.18.18,0,0,1-.21,0l-.07-.06-2-2a1.31,1.31,0,0,1-.38-.85A1.33,1.33,0,0,1,186.56,370.15Zm2.3,5.39a3.29,3.29,0,1,1-3.29,3.29A3.29,3.29,0,0,1,188.86,375.53Zm-8.59-.47a2.84,2.84,0,1,1-2.84,2.84A2.84,2.84,0,0,1,180.27,375.06ZM182.59,390h-7v-4.21a4.51,4.51,0,0,1,4.5-4.5h.3a4.51,4.51,0,0,1,3.85,2.18,6,6,0,0,0-1.68,4.15Zm11.65,2.82H183.48v-4.88a5.22,5.22,0,0,1,5.21-5.21H189a5.22,5.22,0,0,1,5.21,5.21Zm7.71-2.82h-7v-2.39a6,6,0,0,0-1.68-4.15,4.51,4.51,0,0,1,3.85-2.18h.3a4.51,4.51,0,0,1,4.5,4.5Z" fill="#00aeef"/></g><g id="_Group_82" data-name="&lt;Group&gt;" opacity="0.06"><path id="_Path_57" data-name="&lt;Path&gt;" d="M209.1,370.08l-4-1.72v-5.64a.58.58,0,0,0-.58-.58h-3.94a.58.58,0,0,0-.58.58v3.45l-1.68-.72q-.17,1.37-.43,2.79L208,372.59a1.37,1.37,0,0,0,1.08-2.51Z" fill="#00aeef"/><path id="_Compound_Path_16" data-name="&lt;Compound Path&gt;" d="M207.17,393.83h-2.48V373l-7.14-3c-.38,1.75-.85,3.55-1.42,5.37a2.84,2.84,0,1,1-1.35,3.89q-.95,2.49-2.13,5a5.19,5.19,0,0,1,1.58,3.73v4.88h-6.33q-1.05,1.65-2.16,3.19h21.42a.53.53,0,0,0,.53-.53v-1.13A.53.53,0,0,0,207.17,393.83ZM201.95,390h-7v-2.39a6,6,0,0,0-1.68-4.15,4.51,4.51,0,0,1,3.85-2.18h.3a4.51,4.51,0,0,1,4.5,4.5Z" fill="#00aeef"/></g></g></g></g></g></svg>