<svg xmlns="http://www.w3.org/2000/svg" viewBox="0 0 218.37 204.67"><title>about-benefits-control</title><g id="Layer_2" data-name="Layer 2"><g id="Layer_1-2" data-name="Layer 1"><g id="_Group_" data-name="&lt;Group&gt;"><path id="_Path_" data-name="&lt;Path&gt;" d="M2.13,168.93l105.61,35.71a.76.76,0,0,0,.51,0l100.93-41.14a.76.76,0,0,0-.09-1.45L110,136.27a.76.76,0,0,0-.42,0L2.13,167.47A.76.76,0,0,0,2.13,168.93Z" fill="#bcbec0"/><path id="_Path_2" data-name="&lt;Path&gt;" d="M109,199.71a9.84,9.84,0,0,1-3-.46L6.87,167.09A9.81,9.81,0,0,1,0,157.71V136a9.8,9.8,0,0,1,6.18-9.14l99.6-35a9.65,9.65,0,0,1,3.58-.68,9.82,9.82,0,0,1,3,.46l99.08,27.14a9.83,9.83,0,0,1,7,9.41v21.73a9.8,9.8,0,0,1-6.18,9.14L112.67,199a9.8,9.8,0,0,1-3.67.71Z" fill="#1b75bc"/><path id="_Path_3" data-name="&lt;Path&gt;" d="M2,136v21.73a7.85,7.85,0,0,0,5.48,7.48l99.15,32.16a7.85,7.85,0,0,0,5.29-.2l99.52-39.93a7.85,7.85,0,0,0,4.93-7.28V128.21a7.85,7.85,0,0,0-5.48-7.48L111.74,93.57a7.85,7.85,0,0,0-5.29.2L6.93,128.69A7.85,7.85,0,0,0,2,136Z" fill="#fff"/><path id="_Path_4" data-name="&lt;Path&gt;" d="M2,136v21.73a7.85,7.85,0,0,0,5.48,7.48l95.88,31.1a2.5,2.5,0,0,0,3.27-2.38V176.49a10.64,10.64,0,0,0-7.47-10.15Z" fill="#bcbec0"/><path id="_Path_5" data-name="&lt;Path&gt;" d="M216.37,128.21v21.73a7.85,7.85,0,0,1-4.93,7.28l-96.09,38.55a2.5,2.5,0,0,1-3.43-2.32V176a10.64,10.64,0,0,1,6.79-9.92Z" fill="#abe1fa"/><path id="_Path_6" data-name="&lt;Path&gt;" d="M113.09,113.79c-10.6,0-19.2,3.41-19.2,7.62v2.18c0,4.21,8.6,7.62,19.2,7.62s19.2-3.41,19.2-7.62v-2.18C132.29,117.2,123.7,113.79,113.09,113.79Z" fill="#44c8f5"/><ellipse id="_Path_7" data-name="&lt;Path&gt;" cx="113.09" cy="121.41" rx="19.2" ry="7.62" fill="#abe1fa"/><path id="_Path_8" data-name="&lt;Path&gt;" d="M36.6,125c-3.85,0-7,1.24-7,2.77v2.79c0,1.53,3.12,2.77,7,2.77s7-1.24,7-2.77v-2.79C43.58,126.28,40.46,125,36.6,125Z" fill="#44c8f5"/><ellipse id="_Path_9" data-name="&lt;Path&gt;" cx="36.6" cy="127.81" rx="6.98" ry="2.77" fill="#abe1fa"/><path id="_Path_10" data-name="&lt;Path&gt;" d="M56.49,130.58c-3.85,0-7,1.24-7,2.77v2.79c0,1.53,3.12,2.77,7,2.77s7-1.24,7-2.77v-2.79C63.47,131.82,60.35,130.58,56.49,130.58Z" fill="#44c8f5"/><ellipse id="_Path_11" data-name="&lt;Path&gt;" cx="56.49" cy="133.35" rx="6.98" ry="2.77" fill="#abe1fa"/><path id="_Path_12" data-name="&lt;Path&gt;" d="M103.89,145.46c-3.85,0-7,1.24-7,2.77V151c0,1.53,3.12,2.77,7,2.77s7-1.24,7-2.77v-2.79C110.87,146.7,107.74,145.46,103.89,145.46Z" fill="#44c8f5"/><ellipse id="_Path_13" data-name="&lt;Path&gt;" cx="103.89" cy="148.23" rx="6.98" ry="2.77" fill="#abe1fa"/><path id="_Path_14" data-name="&lt;Path&gt;" d="M113.09,116.74c8.13,0,14.77,2,15.38,4.64a1.7,1.7,0,0,0,.06-.38c0-2.78-6.91-5-15.44-5s-15.44,2.25-15.44,5a1.7,1.7,0,0,0,.06.38C98.32,118.79,105,116.74,113.09,116.74Z" fill="#00b6f1"/><path id="_Path_15" data-name="&lt;Path&gt;" d="M113.09,126c8.13,0,14.77-2,15.38-4.64-.6-2.6-7.25-4.64-15.38-4.64s-14.77,2-15.38,4.64C98.32,124,105,126,113.09,126Z" fill="#1b75bc"/><path id="_Path_16" data-name="&lt;Path&gt;" d="M113.09,123.78c3.89,0,7.35-1.18,7.35-2.73s-3.47-2.73-7.35-2.73-7.35,1.18-7.35,2.73S109.21,123.78,113.09,123.78Z" fill="#16619d"/><path id="_Path_17" data-name="&lt;Path&gt;" d="M117.88,36.17H108.3l-2,84.54a.36.36,0,0,0,.07.22c2.27,2.87,11.63,2.61,13.45,0a.42.42,0,0,0,.06-.21Z" fill="#fff" stroke="#1b75bc" stroke-width="2"/><circle id="_Path_18" data-name="&lt;Path&gt;" cx="113.09" cy="20.2" r="19.2" fill="#00aeef" stroke="#1b75bc" stroke-width="2"/></g></g></g></svg>