<svg xmlns="http://www.w3.org/2000/svg" xmlns:xlink="http://www.w3.org/1999/xlink" viewBox="0 0 443.7 310.34"><defs><linearGradient id="linear-gradient" x1="259.8" y1="292.16" x2="294.39" y2="292.16" gradientTransform="translate(-247.89)" gradientUnits="userSpaceOnUse"><stop offset="0" stop-color="#fbb040"/><stop offset="1" stop-color="#f47d3b"/></linearGradient></defs><title>about-emergency</title><g id="Layer_2" data-name="Layer 2"><g id="Layer_1-2" data-name="Layer 1"><g id="_Group_" data-name="&lt;Group&gt;"><ellipse id="_Path_" data-name="&lt;Path&gt;" cx="190.92" cy="287.17" rx="169.86" ry="23.17" fill="#064473"/><g id="_Group_2" data-name="&lt;Group&gt;"><path id="_Rectangle_" data-name="&lt;Rectangle&gt;" d="M190.17,0h0a37.57,37.57,0,0,1,37.57,37.57V55.8a23.86,23.86,0,0,1-23.86,23.86H176.46A23.86,23.86,0,0,1,152.6,55.8V37.57A37.57,37.57,0,0,1,190.17,0Z" fill="#5688c7"/><path id="_Path_2" data-name="&lt;Path&gt;" d="M163,122.71,161.17,130c-.68,2.37-1.48,5.29-2.5,8.57L157,143.8c-.61,1.83-1.33,3.72-2,5.71-1.47,4-3.2,8.22-5.23,12.65-1,2.22-2.16,4.45-3.27,6.75l-1.86,3.42c-.62,1.16-1.25,2.31-2,3.45l-2.07,3.47-2.25,3.43c-.74,1.16-1.55,2.29-2.37,3.42s-1.6,2.29-2.49,3.39a123.54,123.54,0,0,1-11.28,12.82,125.53,125.53,0,0,1-12.86,11.18c-4.46,3.4-9,6.47-13.55,9.25s-9,5.21-13.25,7.45-8.34,4.21-12.11,6c-7.53,3.57-13.83,6.35-18.22,8.34l-6.88,3.1a5,5,0,0,1-4.52-8.89l.39-.22,6.62-3.73C52,232.4,58,229.06,65.07,224.91c3.52-2.07,7.25-4.36,11.13-6.84s7.81-5.21,11.74-8.13a147.37,147.37,0,0,0,11.4-9.52,106.92,106.92,0,0,0,10.22-10.84,104.5,104.5,0,0,0,8.5-11.89c.66-1,1.21-2.07,1.82-3.09s1.19-2,1.71-3.11l1.61-3.11,1.47-3.14c.5-1,.95-2.08,1.38-3.13l1.3-3.09c.76-2.11,1.57-4.1,2.24-6.13,1.37-4,2.52-7.9,3.46-11.53.45-1.83.92-3.55,1.3-5.23l1-4.78c.61-3,1-5.45,1.41-7.58l1.22-7.49a12.95,12.95,0,1,1,25.56,4.15q-.09.57-.23,1.11Z" fill="#daf1fd"/><path id="_Path_3" data-name="&lt;Path&gt;" d="M219.76,122.15l1.88,7.32c.68,2.37,1.48,5.29,2.5,8.57l1.68,5.2c.61,1.83,1.33,3.72,2,5.71,1.47,4,3.2,8.22,5.23,12.65,1,2.22,2.16,4.45,3.27,6.75l1.86,3.42c.62,1.16,1.25,2.31,2,3.45l2.07,3.47,2.25,3.43c.74,1.16,1.55,2.29,2.37,3.42s1.6,2.29,2.49,3.39a123.54,123.54,0,0,0,11.28,12.82,125.53,125.53,0,0,0,12.86,11.18c4.46,3.4,9,6.47,13.55,9.25s9,5.21,13.25,7.45,8.34,4.21,12.11,6c7.53,3.57,13.83,6.35,18.22,8.34l6.88,3.1a5,5,0,0,0,4.52-8.89l-.39-.22L335,234.22c-4.21-2.38-10.23-5.72-17.26-9.87-3.52-2.07-7.25-4.36-11.13-6.84s-7.81-5.21-11.74-8.13a147.37,147.37,0,0,1-11.4-9.52A106.92,106.92,0,0,1,273.25,189a104.5,104.5,0,0,1-8.5-11.89c-.66-1-1.21-2.07-1.82-3.09s-1.19-2-1.71-3.11l-1.61-3.11-1.47-3.14c-.5-1-.95-2.08-1.37-3.13l-1.3-3.09c-.76-2.11-1.57-4.1-2.24-6.13-1.37-4-2.52-7.9-3.46-11.53-.45-1.83-.92-3.55-1.3-5.23l-1-4.78c-.61-3-1-5.45-1.41-7.58l-1.22-7.49a12.95,12.95,0,1,0-25.56,4.15q.09.57.23,1.11Z" fill="#daf1fd"/><rect id="_Rectangle_2" data-name="&lt;Rectangle&gt;" x="184.44" y="79.66" width="12.34" height="13.5" fill="#daf1fd"/><ellipse id="_Path_4" data-name="&lt;Path&gt;" cx="189.65" cy="49.54" rx="29.42" ry="35.46" fill="#daf1fd"/><path id="_Path_5" data-name="&lt;Path&gt;" d="M208.22,50.55a7.05,7.05,0,0,1-9.78,0" fill="none" stroke="#414042" stroke-linecap="round" stroke-linejoin="round"/><path id="_Path_6" data-name="&lt;Path&gt;" d="M180.17,50.55a7.05,7.05,0,0,1-9.78,0" fill="none" stroke="#414042" stroke-linecap="round" stroke-linejoin="round"/><path id="_Path_7" data-name="&lt;Path&gt;" d="M170.39,42.52a8.26,8.26,0,0,1,4.89-2,7.25,7.25,0,0,1,3.46,1" fill="none" stroke="#2b3990" stroke-linecap="round" stroke-linejoin="round" stroke-width="2"/><path id="_Path_8" data-name="&lt;Path&gt;" d="M199.87,41.54a7.25,7.25,0,0,1,3.46-1,8.26,8.26,0,0,1,4.89,2" fill="none" stroke="#2b3990" stroke-linecap="round" stroke-linejoin="round" stroke-width="2"/><path id="_Path_9" data-name="&lt;Path&gt;" d="M199.35,70.91l-.14.19a4.54,4.54,0,0,1-.43.53,12.58,12.58,0,0,1-1.84,1.69A12.1,12.1,0,0,1,193.77,75a11.45,11.45,0,0,1-2,.54,14.63,14.63,0,0,1-2.19.2,16,16,0,0,1-2.11-.21,11.82,11.82,0,0,1-2-.55,12.21,12.21,0,0,1-3.16-1.7,12.5,12.5,0,0,1-1.83-1.69,5.25,5.25,0,0,1-.44-.54l-.15-.2a.5.5,0,0,1,.46-.79l.18,0s.37,0,1,.15l2.27.4,1.4.21c.48.07,1,.13,1.47.19s1,.08,1.49.13.81,0,1.56,0h.67l.75,0c.5,0,1-.06,1.49-.12s1-.11,1.47-.18l1.4-.2,2.27-.39.71-.12.27,0,.15,0a.51.51,0,0,1,.47.8Z" fill="#bf747e"/><polygon id="_Path_10" data-name="&lt;Path&gt;" points="162.42 36.1 175.28 22.57 217.94 39.83 217.94 19.51 193.32 7.64 168.29 14.08 162.42 36.1" fill="#5688c7"/><path id="_Path_11" data-name="&lt;Path&gt;" d="M243.48,259.07H142.87l11-114.39-14.71-32.27c3.86-8.16,28.41-14.85,45.28-19.25h12.34c18.68,3.81,40.9,8.68,46.12,17.63L229.47,144Z" fill="#daf1fd"/><path id="_Path_12" data-name="&lt;Path&gt;" d="M150.16,104.16c11.09,11.9,3.71,40.53,3.71,40.53l-11,114.39,100.78-.15L229.47,144c-6.88-24.38-.25-42.38-.25-42.38l-6.45-2.22c0,7.82-14.54,16.9-32.48,16.9s-32.63-7.36-32.63-15.18Z" fill="#44c8f5"/><path id="_Path_13" data-name="&lt;Path&gt;" d="M138.35,268.69l-3.45.22-9.54.67c-8.21.62-20,1.55-33.73,3.26-6.84.86-14.26,1.93-21.48,3.43-1.79.38-3.56.78-5.22,1.21s-3.23.91-4.34,1.31a7.64,7.64,0,0,1-1,.33s0,0,0,0l.11-.08s.23-.17.38-.32l.35-.31c.15-.14.26-.25.43-.42a8.25,8.25,0,0,0,.63-.69l.36-.45q.22-.28.42-.57c.14-.2.25-.38.39-.62s.35-.58.51-.89.3-.61.43-.93.34-.82.48-1.24a12.84,12.84,0,0,0,.36-1.32,15,15,0,0,0,.29-1.58,17.07,17.07,0,0,0,0-3.37,16.16,16.16,0,0,0-.26-1.68,13.39,13.39,0,0,0-.4-1.53,15.49,15.49,0,0,0-1.1-2.55,15.23,15.23,0,0,0-1.16-1.79c-.18-.24-.42-.52-.58-.7s-.29-.33-.44-.49c-.3-.31-.67-.63-.83-.78a8.34,8.34,0,0,0-.66-.52,7.35,7.35,0,0,0-.77-.49l-.26-.13-.11,0c-.11,0-.08,0-.09,0a5,5,0,0,0,1.13.5c.6.22,1.37.45,2.19.67,1.65.44,3.54.85,5.53,1.21,4,.72,8.3,1.28,12.72,1.73,8.86.89,18.15,1.37,27.48,1.6,18.68.45,37.59-.09,55.3-1.13s34.26-2.61,48.41-4.24,25.92-3.32,34.15-4.58S258,249.27,258,249.27a10,10,0,0,1,4.06,19.58l-.1,0s-4.73,1.14-13,3-20.2,4.37-34.58,7-31.21,5.36-49.39,7.65-37.69,4.15-57.46,5c-9.9.41-19.85.57-29.88.23-5-.18-10.06-.48-15.27-1.06-2.61-.29-5.26-.66-8.08-1.2-1.42-.28-2.86-.59-4.44-1a41.62,41.62,0,0,1-5.27-1.77c-.52-.22-1-.43-1.62-.73l-.86-.43-1-.55a25.51,25.51,0,0,1-2.17-1.42c-.42-.32-.89-.69-1.31-1a18.72,18.72,0,0,1-1.44-1.36q-.37-.39-.73-.79c-.25-.29-.57-.68-.83-1a19.44,19.44,0,0,1-3-5.8c-.2-.64-.38-1.28-.52-1.93a18.24,18.24,0,0,1-.31-2.09,21,21,0,0,1-.09-2.14q0-1,.16-2.05a19.56,19.56,0,0,1,.35-2c.14-.57.31-1.15.5-1.71s.41-1.16.62-1.63.41-.87.63-1.3.46-.84.71-1.25.42-.64.63-1,.44-.61.67-.91l.34-.44.29-.33q.58-.67,1.19-1.3c.37-.37.69-.66,1-1l.53-.46.46-.37c.6-.48,1.23-1,1.72-1.28l.79-.54.71-.45a44.73,44.73,0,0,1,4.89-2.58,82.26,82.26,0,0,1,7.77-3c2.4-.8,4.67-1.48,6.89-2.11,8.83-2.46,16.81-4.11,24.2-5.56,14.73-2.83,26.86-4.59,35.36-5.81L131,229c2.24-.29,16.43-1.45,16.43-1.45a20.2,20.2,0,0,1,22.67,17.38c1.46,11.06-19.33,22.21-30.38,23.67C139.25,268.62,138.77,268.66,138.35,268.69Z" fill="#44c8f5"/><path id="_Path_14" data-name="&lt;Path&gt;" d="M241.88,227.45l13,1.57c8.32,1.06,20.19,2.62,34.53,5.09,7.18,1.26,15,2.73,23.35,4.76,4.21,1,8.55,2.19,13.26,3.79a66.58,66.58,0,0,1,7.63,3.09,34,34,0,0,1,4.87,2.86,22.53,22.53,0,0,1,3.32,2.89q.53.58,1,1.19c.15.18.35.45.54.73s.37.54.55.82a15.67,15.67,0,0,1,1.09,2c.18.39.32.72.49,1.18s.31,1,.44,1.44a14.29,14.29,0,0,1,.32,1.5c.08.56.14,1.12.17,1.69a15.27,15.27,0,0,1-.2,3.43c0,.29-.1.57-.16.85l-.2.77c-.15.51-.32,1-.51,1.52a12.48,12.48,0,0,1-.6,1.32c-.21.4-.43.8-.66,1.19a17,17,0,0,1-2.62,3.26c-.21.2-.43.42-.63.6l-.54.46c-.35.28-.78.63-1.08.83l-1,.65c-.34.22-.58.35-.88.53-.6.35-1.1.59-1.61.84-1,.48-1.9.83-2.75,1.15a54.92,54.92,0,0,1-8.72,2.26,137.67,137.67,0,0,1-15.21,1.76c-9.88.64-19.63.68-29.33.45-19.39-.48-38.52-2.07-56.37-4.08s-34.39-4.5-48.51-6.9-25.82-4.72-34-6.41-12.82-2.74-12.82-2.74l-.07-3.16c-5.39-1.21-7.91-5.37-6.7-10.76s5.47-6.66,10.73-5.69c0,0,4.59.86,12.65,2.22s19.58,3.21,33.46,5,30.09,3.66,47.47,5,36,2.16,54.31,1.94c9.16-.12,18.3-.51,26.94-1.4a111.66,111.66,0,0,0,12.15-1.84,28.12,28.12,0,0,0,4.36-1.27c.4-.14.6-.39-.22.15a8.94,8.94,0,0,0-2.55,2.79,9.14,9.14,0,0,0-.46.83c-.14.28-.26.55-.42.94a10,10,0,0,0-.38,1.13q-.08.29-.14.58c-.05.21-.1.43-.14.64a12.41,12.41,0,0,0-.16,2.6,10.24,10.24,0,0,0,.14,1.27c.08.43.13.73.22,1.1a9.72,9.72,0,0,0,.33,1c.12.33.2.54.32.8a13.07,13.07,0,0,0,.69,1.29q.15.25.32.48l.29.39a5.74,5.74,0,0,0,.48.57,8.72,8.72,0,0,0,.8.77c.12.1-.3-.14-.82-.36a41.9,41.9,0,0,0-4.4-1.55c-3.4-1-7.15-1.89-10.84-2.65-7.43-1.51-14.78-2.64-21.58-3.57-13.64-1.84-25.22-2.93-33.31-3.66l-12.78-1.07h-.11a15.56,15.56,0,0,1,2.59-31Z" fill="#44c8f5"/><path id="_Path_15" data-name="&lt;Path&gt;" d="M123.4,230l17.94-1.64a46.27,46.27,0,0,1,20.09,2.7c22.46,8.21,46.09,7.36,70.61-.43a45,45,0,0,1,20.44-1.53l46.16,7.1-49.8,21.89-98.69,7.34L89.89,236.2Z" fill="#1b75bc"/><path id="_Path_16" data-name="&lt;Path&gt;" d="M89.68,242.24l32,13.47,7.69-2.12v-9.27a5.56,5.56,0,0,0-5-5.53l-31.92-3.23A3.77,3.77,0,0,0,89.68,242.24Z" fill="#daf1fd"/><path id="_Path_17" data-name="&lt;Path&gt;" d="M232.11,256.92c17.38,1.32,29.52,1.7,47.87,1.48,9.16-.12,18.3-.51,26.94-1.4a111.66,111.66,0,0,0,12.15-1.84,28.12,28.12,0,0,0,4.36-1.27c.4-.14.6-.39-.22.15l-97.54-17.19s-4.84,11.83,5.5,18.85Z" fill="#1b75bc"/><g id="_Group_3" data-name="&lt;Group&gt;"><path id="_Path_18" data-name="&lt;Path&gt;" d="M223.45,279.87c-17.85-2-34.39-4.5-48.51-6.9s-24.71-5.22-32.88-6.9a45.32,45.32,0,0,1-13.93-5.41" fill="#44c8f5"/><path id="_Path_19" data-name="&lt;Path&gt;" d="M223.45,279.92s-6.07-.61-15.16-1.73-21.17-2.82-33.22-4.79c-3-.49-6-1-9-1.58s-5.85-1.19-8.64-1.8-5.49-1.23-8-1.86-5-1.19-7.19-1.68a46,46,0,0,1-6-1.78,43.2,43.2,0,0,1-4.43-1.93,33.94,33.94,0,0,1-3.66-2.07l.05-.08a33.78,33.78,0,0,0,3.74,1.87,48.75,48.75,0,0,0,10.48,3.26c4.5.89,9.71,2,15.29,3.3,2.79.63,5.68,1.22,8.61,1.83s5.93,1.18,8.93,1.72c12,2.13,24.07,4,33.13,5.23s15.12,2,15.12,2Z" fill="#1b75bc"/></g><path id="_Path_20" data-name="&lt;Path&gt;" d="M129.36,261.39c-7.36.1-14.78.08-22.16-.1-9.33-.23-18.62-.71-27.48-1.6-4.42-.45-8.74-1-12.72-1.73-2-.36-3.88-.76-5.53-1.21l60.19-1Z" fill="#1b75bc"/><path id="_Path_21" data-name="&lt;Path&gt;" d="M301.11,243l-32.56,12L261,252.58l.42-9.26a5.56,5.56,0,0,1,5.24-5.3l32-1.81A3.77,3.77,0,0,1,301.11,243Z" fill="#daf1fd"/><path id="_Path_22" data-name="&lt;Path&gt;" d="M210.92,255.92c14.16-1.63,25.92-3.32,34.15-4.58S258,249.27,258,249.27a10,10,0,0,1,4.06,19.58" fill="#44c8f5"/><path id="_Path_23" data-name="&lt;Path&gt;" d="M309.16,283.5c-9.88.64-19.63.68-29.33.45-19.39-.48-38.52-2.07-56.37-4.08s-34.39-4.5-48.51-6.9-25.33-5.35-33.5-7a40,40,0,0,1-13.38-5.28c-5.39-1.21-7.91-5.37-6.7-10.76s5.47-6.66,10.73-5.69c0,0,4.59.86,12.65,2.22s19.58,3.21,33.46,5,30.09,3.66,47.47,5,36,2.16,54.31,1.94c9.16-.12,18.3-.51,26.94-1.4" fill="#44c8f5"/><path id="_Path_24" data-name="&lt;Path&gt;" d="M132.09,244.21l6.31,1c2,.32,4.45.75,7.24,1.16l9.42,1.32,23.58,3.39c8.64,1.12,17.88,2.18,27.12,3.09s18.5,1.75,27.2,2.35,16.81,1.07,23.78,1.33,12.77.42,16.84.46l6.39.06-1.67,0-4.72.09c-4.07,0-9.88.08-16.86-.1s-15.11-.46-23.82-1-18-1.3-27.24-2.22-18.49-2.06-27.14-3.23c-4.33-.64-8.48-1.32-12.43-1.94L155,248.27l-9.4-1.51c-2.8-.48-5.22-1-7.22-1.34Z" fill="#1b75bc"/><polygon id="_Path_25" data-name="&lt;Path&gt;" points="364.71 241.71 349.25 247.51 339.76 247.52 339.76 236.91 340.59 234.83 365.87 232 364.71 241.71" fill="#daf1fd"/><path id="_Path_26" data-name="&lt;Path&gt;" d="M340.56,236.5c-4.09-2.46-3.11-7.08,0-8.32" fill="none" stroke="#daf1fd" stroke-linecap="round" stroke-linejoin="round" stroke-width="3"/><path id="_Path_27" data-name="&lt;Path&gt;" d="M343.67,236.85c10.87-2.83,7.06-13.41,0-10.67" fill="none" stroke="#daf1fd" stroke-linecap="round" stroke-linejoin="round" stroke-width="3"/><polygon id="_Path_28" data-name="&lt;Path&gt;" points="17.93 248.87 34.9 249.73 44.21 247.92 42.16 237.5 40.94 235.62 14.92 239.56 17.93 248.87" fill="#daf1fd"/><path id="_Path_29" data-name="&lt;Path&gt;" d="M41.29,237.25c3.54-3.2,1.68-7.55-1.64-8.15" fill="none" stroke="#daf1fd" stroke-linecap="round" stroke-linejoin="round" stroke-width="3"/><path id="_Path_30" data-name="&lt;Path&gt;" d="M38.31,238.2c-11.21-.68-9.51-11.8-2.06-10.47" fill="none" stroke="#daf1fd" stroke-linecap="round" stroke-linejoin="round" stroke-width="3"/></g><path id="_Path_31" data-name="&lt;Path&gt;" d="M280,35.83c7.2,0,7.2,8,14.4,8s7.2-8,14.4-8,7.2,8,14.4,8,7.2-8,14.4-8,7.2,8,14.4,8,7.2-8,14.4-8,7.2,8,14.41,8,7.2-8,14.4-8,7.21,8,14.41,8,7.21-8,14.41-8" fill="none" stroke="#00aeef" stroke-linecap="round" stroke-linejoin="round" stroke-width="2"/><path id="_Path_32" data-name="&lt;Path&gt;" d="M298.65,54.76c7.2,0,7.2,8,14.4,8s7.2-8,14.4-8,7.2,8,14.4,8,7.2-8,14.4-8,7.2,8,14.4,8,7.2-8,14.4-8,7.2,8,14.41,8,7.2-8,14.4-8,7.21,8,14.41,8,7.21-8,14.41-8" fill="none" stroke="#00aeef" stroke-linecap="round" stroke-linejoin="round" stroke-width="2"/><ellipse id="_Path_33" data-name="&lt;Path&gt;" cx="23.25" cy="307.28" rx="23.25" ry="3.07" fill="#064473"/><g id="_Group_4" data-name="&lt;Group&gt;"><path id="_Compound_Path_" data-name="&lt;Compound Path&gt;" d="M44.91,284.29c-1.31-3.22-5.29-5.22-9.46-4.74l-.89.13v-2.58a.5.5,0,0,0-.49-.52H12.4a.5.5,0,0,0-.49.52v28.65a1.94,1.94,0,0,0,1.87,2h18.9a1.94,1.94,0,0,0,1.87-2v-3.45c.6.08,1.2.14,1.81.18l.7,0c3.7,0,6.93-1.81,8.17-4.65C47,293.76,46.91,289.2,44.91,284.29Zm-2.47,12.16c-.76,1.74-3.24,2.89-5.89,2.73h0c-.67,0-1.33-.12-2-.22V283c.4-.07.81-.14,1.22-.18a7.79,7.79,0,0,1,.87,0c2.46,0,4.74,1.15,5.43,2.83C43.73,289.67,43.85,293.22,42.44,296.45Z" fill="url(#linear-gradient)"/><polygon id="_Path_34" data-name="&lt;Path&gt;" points="18.15 293.3 18.15 276.48 17.81 276.48 17.81 293.3 15.13 295.55 15.13 301.91 20.83 301.91 20.83 295.55 18.15 293.3" fill="#be1e2d"/><polygon id="_Path_35" data-name="&lt;Path&gt;" points="17.93 292.95 17.93 276.13 17.59 276.13 17.59 292.95 14.9 295.19 14.9 301.55 20.61 301.55 20.61 295.19 17.93 292.95" fill="#fff"/><path id="_Path_36" data-name="&lt;Path&gt;" d="M25.08,264l.12.09a1.61,1.61,0,0,1,.29.32,3,3,0,0,1,.32.58,4.7,4.7,0,0,1,.25.8,8.56,8.56,0,0,1,.15,1.93,18.26,18.26,0,0,1-.17,2c-.18,1.31-.42,2.51-.61,3.53l-.13.71c0,.22-.07.41-.11.58s-.06.3-.08.4,0,.15,0,.15L25,275c-.07-.06-.19-.15-.31-.28a4.33,4.33,0,0,1-.41-.49,5.24,5.24,0,0,1-.43-.7c-.07-.13-.13-.28-.19-.43s-.11-.31-.16-.47a6.54,6.54,0,0,1-.23-1,8.16,8.16,0,0,1,0-2.24,10.72,10.72,0,0,1,.51-2.07q.17-.47.34-.88c.12-.27.23-.52.34-.75l.29-.63c.09-.19.15-.37.21-.52a2.32,2.32,0,0,0,.11-.37C25.07,264,25.08,264,25.08,264Z" fill="#00aeef" opacity="0.45"/><path id="_Path_37" data-name="&lt;Path&gt;" d="M20.41,256.71l.15.16a3.13,3.13,0,0,1,.39.48l.12.18.11.21a3.6,3.6,0,0,1,.23.49,6.06,6.06,0,0,1,.35,1.25,8.85,8.85,0,0,1,.11,1.51,13.27,13.27,0,0,1-.12,1.62c-.14,1.1-.39,2.2-.61,3.25-.11.53-.23,1-.32,1.56s-.18,1-.25,1.48-.12.95-.16,1.4c0,.22,0,.44,0,.66l0,.63c0,.2,0,.4,0,.59s0,.37,0,.54c0,.34,0,.64,0,.9s0,.46,0,.6,0,.22,0,.22l-.15-.16c-.09-.1-.24-.25-.41-.46a8.11,8.11,0,0,1-.54-.79c-.09-.16-.19-.33-.29-.52s-.18-.39-.28-.6-.16-.44-.25-.68-.14-.49-.2-.75a10.08,10.08,0,0,1-.22-1.66,11,11,0,0,1,0-1.77,15.37,15.37,0,0,1,.28-1.77,28.84,28.84,0,0,1,.94-3.21c.17-.49.32-.95.46-1.38s.25-.84.36-1.22c0-.19.09-.38.12-.55l.05-.26,0-.25c0-.08,0-.16,0-.24s0-.15,0-.22l0-.21v-.19c0-.12,0-.23,0-.34v-.26C20.41,256.78,20.41,256.71,20.41,256.71Z" fill="#00aeef" opacity="0.45"/></g></g></g></g></svg>