<svg xmlns="http://www.w3.org/2000/svg" viewBox="0 0 143.72 100"><title>about-feature-notification</title><g id="Layer_2" data-name="Layer 2"><g id="Layer_1-2" data-name="Layer 1"><g id="_Group_" data-name="&lt;Group&gt;"><g id="_Group_2" data-name="&lt;Group&gt;"><path id="_Path_" data-name="&lt;Path&gt;" d="M142.25,24.45c-1.53-3.57-7.44-4.77-18.11-3.64a2.14,2.14,0,0,0-2,2.3,2.25,2.25,0,0,0,2.52,1.82c10.12-1.06,13.08.39,13.36,1,.4.94-1.62,5.12-15.62,13.2C110.48,46,93.86,53.45,75.61,60S39.68,71.54,25.84,73.94C9.59,76.76,5,75,4.6,74c-.3-.69.9-3.78,9.89-9.69a2,2,0,0,0,.53-2.9A2.43,2.43,0,0,0,11.83,61C2.52,67.08-1.23,71.85.35,75.55c1.24,2.88,5.34,4.22,12.46,4A98.05,98.05,0,0,0,26.68,78c14.11-2.45,32.07-7.46,50.58-14.13s35.4-14.2,47.55-21.2C138.44,34.82,144.15,28.86,142.25,24.45Z" fill="#abe1fa"/><path id="_Compound_Path_" data-name="&lt;Compound Path&gt;" d="M25.44,67v0c10.61-1.42,26.74-5.25,47.41-12.77C94.31,46.47,108.81,39,117.37,33.61l1.05-.38a50,50,0,1,0-94,34.17ZM84.92,34c1.36,1.49,2.72,9.4,2.72,11.67s-4.23,4.54-5.9,2.27-2.27-7.72-5.9-5.92S66.31,37.54,65,37.54s-3.18-.45-2.72-3.5S60.87,27.56,60,27.16s-5-.51-8.17-.06-7.26-1.82-7.26-5.18S48.16,18,47.7,16.66,51.79,13,51.79,13s6.35,1.82,6.35-2.72,3.18-4.54,3.18-4.54h8.54s3.71-2.27,4.16,0,4.52,8.62,4.52,8.62,5.46-3.18,6.82-3.18,2.27,5.9,2.27,5.9-2.72,6.35-4.08,4.8-5,0-5,0-3.61,4.73-5,5.43S83.56,32.55,84.92,34Z" fill="#44c8f5"/><path id="_Compound_Path_2" data-name="&lt;Compound Path&gt;" d="M119.17,51.79A290.53,290.53,0,0,1,78.54,69.89c-15.38,5.6-44.72,13.21-44.72,13.21a50,50,0,0,0,87.47-31.85l0-1.25ZM59.68,96.43c-.21-.73-.43-1.46-.63-2.16-.91-3.18,3.63-4.54,3.63-4.54s3.18-.45,3.4-2.72,2-7.41,7-8.93,5.43,3,5.43,3l1.83-3h4.54l2.72-3.84L94.91,76l-1.55,2.07h-3.9l.45,2.57-.45,4.54-4.54-.45L80.84,89l2.27,4.34,3.32,2A47.05,47.05,0,0,1,71.3,97.92,47.76,47.76,0,0,1,59.68,96.43Z" fill="#44c8f5"/></g><g id="_Group_3" data-name="&lt;Group&gt;"><circle id="_Path_2" data-name="&lt;Path&gt;" cx="121.16" cy="24.82" r="22.56" fill="#ed1c24"/><g id="_Group_4" data-name="&lt;Group&gt;"><path d="M127.73,18.1a4.83,4.83,0,0,1-.76,2.68,5.44,5.44,0,0,1-2.08,1.87,6,6,0,0,1,2.4,2,5.14,5.14,0,0,1,.88,3,6,6,0,0,1-.53,2.6,5.27,5.27,0,0,1-1.46,1.87A6.3,6.3,0,0,1,124,33.27a10.51,10.51,0,0,1-5.59,0,6.37,6.37,0,0,1-2.23-1.13,5.32,5.32,0,0,1-1.48-1.87,5.94,5.94,0,0,1-.54-2.6,5.18,5.18,0,0,1,.88-3,5.92,5.92,0,0,1,2.38-2,5.38,5.38,0,0,1-2.08-1.87,4.87,4.87,0,0,1-.75-2.68,5.94,5.94,0,0,1,.49-2.49,5.21,5.21,0,0,1,1.36-1.82,5.87,5.87,0,0,1,2.08-1.12,9.46,9.46,0,0,1,5.29,0,5.94,5.94,0,0,1,2.08,1.12,5.08,5.08,0,0,1,1.36,1.82A6,6,0,0,1,127.73,18.1ZM124,27.37a3.55,3.55,0,0,0-.21-1.24,2.64,2.64,0,0,0-.58-.94,2.55,2.55,0,0,0-.91-.59,3.29,3.29,0,0,0-1.19-.21,3.22,3.22,0,0,0-1.18.21,2.55,2.55,0,0,0-.91.59,2.64,2.64,0,0,0-.59.94,3.55,3.55,0,0,0-.21,1.24,3.49,3.49,0,0,0,.21,1.23,2.64,2.64,0,0,0,.59.94,2.48,2.48,0,0,0,.91.58,3.44,3.44,0,0,0,1.21.2,2.8,2.8,0,0,0,2.1-.78A3,3,0,0,0,124,27.37Zm-.43-9.06a2.86,2.86,0,0,0-.64-1.95,2.61,2.61,0,0,0-3.61,0,2.84,2.84,0,0,0-.64,2,3,3,0,0,0,.64,2,2.54,2.54,0,0,0,3.62,0A3,3,0,0,0,123.6,18.3Z" fill="#fff"/></g></g></g></g></g></svg>