<svg xmlns="http://www.w3.org/2000/svg" xmlns:xlink="http://www.w3.org/1999/xlink" viewBox="0 0 581.73 390.19"><defs><linearGradient id="linear-gradient" x1="290.87" y1="398.39" x2="290.87" y2="378.49" gradientUnits="userSpaceOnUse"><stop offset="0" stop-color="#1a1a1a"/><stop offset="0.12" stop-color="#212121"/><stop offset="1" stop-color="#4d4d4d"/></linearGradient><linearGradient id="linear-gradient-2" x1="228.11" y1="376.94" x2="353.62" y2="376.94" gradientUnits="userSpaceOnUse"><stop offset="0" stop-color="#333132"/><stop offset="0.04" stop-color="#3e3c3d"/><stop offset="0.15" stop-color="#5a5a5a"/><stop offset="0.27" stop-color="#6f6f6f"/><stop offset="0.38" stop-color="#7c7c7c"/><stop offset="0.49" stop-color="gray"/><stop offset="0.57" stop-color="#7a7a7a"/><stop offset="0.67" stop-color="#6a6a6a"/><stop offset="0.79" stop-color="#4e4e4e"/><stop offset="0.92" stop-color="#292929"/><stop offset="1" stop-color="#0d0d0d"/></linearGradient><linearGradient id="linear-gradient-3" x1="294.1" y1="200.54" x2="307.55" y2="200.54" gradientUnits="userSpaceOnUse"><stop offset="0" stop-color="#00aeef"/><stop offset="1" stop-color="#44c8f5"/></linearGradient><linearGradient id="linear-gradient-4" x1="241.43" y1="206.53" x2="303.32" y2="206.53" xlink:href="#linear-gradient-3"/><linearGradient id="linear-gradient-5" x1="239.97" y1="216.49" x2="324.27" y2="216.49" xlink:href="#linear-gradient-3"/><linearGradient id="linear-gradient-6" x1="264.84" y1="187.27" x2="350.25" y2="187.27" xlink:href="#linear-gradient-3"/><linearGradient id="linear-gradient-7" x1="254.76" y1="194.3" x2="347.5" y2="194.3" xlink:href="#linear-gradient-3"/><linearGradient id="linear-gradient-8" x1="290.42" y1="165.08" x2="342.93" y2="165.08" xlink:href="#linear-gradient-3"/><linearGradient id="linear-gradient-9" x1="279.33" y1="174.75" x2="349.47" y2="174.75" xlink:href="#linear-gradient-3"/><linearGradient id="linear-gradient-10" x1="303.56" y1="175.96" x2="304.75" y2="175.96" xlink:href="#linear-gradient-3"/><linearGradient id="linear-gradient-11" x1="248.65" y1="204.2" x2="343.31" y2="204.2" xlink:href="#linear-gradient-3"/><linearGradient id="linear-gradient-12" x1="340.48" y1="238.04" x2="340.5" y2="238.04" xlink:href="#linear-gradient-3"/><linearGradient id="linear-gradient-13" x1="281.35" y1="258.9" x2="286.31" y2="258.9" xlink:href="#linear-gradient-3"/><linearGradient id="linear-gradient-14" x1="240.16" y1="201.86" x2="312.04" y2="201.86" xlink:href="#linear-gradient-3"/><linearGradient id="linear-gradient-15" x1="299.79" y1="229.14" x2="308.13" y2="229.14" xlink:href="#linear-gradient-3"/><linearGradient id="linear-gradient-16" x1="299.79" y1="232.84" x2="311.15" y2="232.84" xlink:href="#linear-gradient-3"/><linearGradient id="linear-gradient-17" x1="268.23" y1="249.51" x2="286.57" y2="249.51" xlink:href="#linear-gradient-3"/><linearGradient id="linear-gradient-18" x1="272.8" y1="253.03" x2="286.57" y2="253.03" xlink:href="#linear-gradient-3"/><linearGradient id="linear-gradient-19" x1="277.39" y1="256.79" x2="286.57" y2="256.79" xlink:href="#linear-gradient-3"/><linearGradient id="linear-gradient-20" x1="239.27" y1="197.56" x2="315.85" y2="197.56" xlink:href="#linear-gradient-3"/><linearGradient id="linear-gradient-21" x1="247.98" y1="219.2" x2="294.71" y2="219.2" xlink:href="#linear-gradient-3"/><linearGradient id="linear-gradient-22" x1="255.72" y1="237.27" x2="286.57" y2="237.27" xlink:href="#linear-gradient-3"/><linearGradient id="linear-gradient-23" x1="249.9" y1="229.52" x2="284.85" y2="229.52" xlink:href="#linear-gradient-3"/><linearGradient id="linear-gradient-24" x1="252.6" y1="231.93" x2="286.57" y2="231.93" xlink:href="#linear-gradient-3"/><linearGradient id="linear-gradient-25" x1="299.79" y1="225.81" x2="303.84" y2="225.81" xlink:href="#linear-gradient-3"/><linearGradient id="linear-gradient-26" x1="259.78" y1="241.4" x2="286.57" y2="241.4" xlink:href="#linear-gradient-3"/><linearGradient id="linear-gradient-27" x1="263.46" y1="246.07" x2="286.57" y2="246.07" xlink:href="#linear-gradient-3"/><linearGradient id="linear-gradient-28" x1="242.17" y1="214.42" x2="328.41" y2="214.42" xlink:href="#linear-gradient-3"/><linearGradient id="linear-gradient-29" x1="246.72" y1="212.03" x2="336.28" y2="212.03" xlink:href="#linear-gradient-3"/><linearGradient id="linear-gradient-30" x1="239.33" y1="216.25" x2="320.18" y2="216.25" xlink:href="#linear-gradient-3"/><linearGradient id="linear-gradient-31" x1="299.79" y1="233.35" x2="315.89" y2="233.35" xlink:href="#linear-gradient-3"/><linearGradient id="linear-gradient-32" x1="242.78" y1="213.54" x2="298.73" y2="213.54" xlink:href="#linear-gradient-3"/><clipPath id="clip-path"><rect id="_Clipping_Path_" data-name="&lt;Clipping Path&gt;" x="113.75" y="93.85" width="49.16" height="60.77" fill="none"/></clipPath><clipPath id="clip-path-2"><rect id="_Clipping_Path_2" data-name="&lt;Clipping Path&gt;" x="143.33" y="114.95" width="53.3" height="48.33" fill="none"/></clipPath><clipPath id="clip-path-3"><rect id="_Clipping_Path_3" data-name="&lt;Clipping Path&gt;" x="166.55" y="133.69" width="5.89" height="1.94" fill="none"/></clipPath><clipPath id="clip-path-4"><rect id="_Clipping_Path_4" data-name="&lt;Clipping Path&gt;" x="208.78" y="0.54" width="103.64" height="83.98" fill="none"/></clipPath><clipPath id="clip-path-5"><rect id="_Clipping_Path_5" data-name="&lt;Clipping Path&gt;" x="246.63" y="38.49" width="74.81" height="53.42" fill="none"/></clipPath></defs><title>about-data-info</title><g style="isolation:isolate"><g id="Layer_2" data-name="Layer 2"><g id="Layer_1-2" data-name="Layer 1"><g id="_Group_" data-name="&lt;Group&gt;"><path id="_Rectangle_" data-name="&lt;Rectangle&gt;" d="M68.27,49.93H513.46a15.36,15.36,0,0,1,15.36,15.36v304a6.61,6.61,0,0,1-6.61,6.61H59.53a6.61,6.61,0,0,1-6.61-6.61v-304A15.36,15.36,0,0,1,68.27,49.93Z" fill="#3b3b3c"/><rect id="_Rectangle_2" data-name="&lt;Rectangle&gt;" x="141.23" y="-17.88" width="299.28" height="455.4" rx="3" ry="3" transform="translate(500.69 -81.05) rotate(90)" fill="#fff"/><g id="_Group_2" data-name="&lt;Group&gt;"><path id="_Path_" data-name="&lt;Path&gt;" d="M581.73,378.92c-11.2,11.2-52.92,11.26-287,11.26-241.8,0-282.92.53-294.72-11.26V373.8H581.73Z" fill="url(#linear-gradient)"/><rect id="_Rectangle_3" data-name="&lt;Rectangle&gt;" y="373.8" width="581.73" height="5.13" fill="#464547"/><path id="_Path_2" data-name="&lt;Path&gt;" d="M353.62,379.05a1064.16,1064.16,0,0,1-125.51,0v-5.23q62.75-1.74,125.51,0Z" fill="url(#linear-gradient-2)"/></g><g id="_Group_3" data-name="&lt;Group&gt;"><path id="_Path_3" data-name="&lt;Path&gt;" d="M305.13,212.79a4.17,4.17,0,0,1,2.18-1.2v0c1.14-8.23-1.57-17.65-11-22.84-1.43-.54-2-.5-2.16-.2s0,.45.26.75a4.59,4.59,0,0,0,1.86,1.41c.06,0,4.89,1.9,7.46,8.86a36.41,36.41,0,0,1,1.43,13.14s0,0,0,.06h0Z" fill="url(#linear-gradient-3)"/><path id="_Path_4" data-name="&lt;Path&gt;" d="M299.79,220.83h0l2.87-4.67v-.08a61.66,61.66,0,0,0,.64-7.81c0-5.58-1.05-10.66-4.7-14.15a15.24,15.24,0,0,0-4.18-3.06,9.12,9.12,0,0,1-1.07-1.1l-.22-.27c-6.28-2.82-11.93,1.17-16.74,3.4C264.21,201.6,253,211.67,245.9,218l-1.27,1.07c-.43.36-3.21,2.9-3.21,2.9l0,.05h0c.17.58.35,1.16.53,1.73h0l.18.57,2.66-2a62.62,62.62,0,0,0,5-3.86c3.59-2.77,7.7-7.1,10.83-9.61,5.57-4.47,10.53-7.5,14.15-10.5,2.49-1.85,4.6-3.93,6.12-4.74,8.34-6,15.78.19,17.62,3.65a20.5,20.5,0,0,1,2.53,10.4,29.73,29.73,0,0,1-1.3,8.52l0,4.61h0v.07Z" fill="url(#linear-gradient-4)"/><path id="_Path_5" data-name="&lt;Path&gt;" d="M308.83,257.55c.46-.56,1.52-1.91,1.53-2,5.77-6.54,14.09-19.66,13.63-40.52.71-7.76.16-14.88-2.9-20.7a27.76,27.76,0,0,0-1.46-3.18q-.64-1.19-1.39-2.33c-.92-2.31-5.8-6.81-6.39-7.23a40.82,40.82,0,0,0-4.55-3.7h0a23.21,23.21,0,0,0-2.1-1.36l-.46-.28h0c-2.33-1.33-4.95-2.6-4.95-2.6a38.38,38.38,0,0,0-4-.88,41.33,41.33,0,0,0-5-.52,42,42,0,0,0-5.18.11,1.24,1.24,0,0,0-.67.06l-.64.07c-.11,0-17.28,2.72-24.27,7-1.74.69-3.27,1.77-5,2.56-4.65,1.8-13.29,9.85-13.66,10.06-.36,1.47-1.15,4.11-1.39,5.62.14,0,10.91-9.51,14.82-12.08A100.82,100.82,0,0,1,267,179a85,85,0,0,1,21.12-4.29c1,0,13-2.71,25.76,13.24,7.29,6.61,8.67,16.27,8,27,0,.32-.12,1.55-.3,3.33,0,.15-.16,1.4-.48,3.93,0,0-1,5.72-5.3,14.06a118.77,118.77,0,0,1-8.61,13.84c-.1.1-.77.82-.72.87l-1.78,2.65c-.41.61-4.73,4.35-4,4a1.79,1.79,0,0,0-.33.41c0,.1.1.19.16.28a3.86,3.86,0,0,0,.85,1h0a44.86,44.86,0,0,0,4.71-4.08c1-1.57,3.32-4.72,5-6.8.79-1.19,2.37-4.36,3.09-5.61,1.67-2.73,5.69-11.29,6.87-13.3-.31,1.17-2.82,7.74-3.19,8.73-4.38,11.63-9.9,17-11.42,18.61-.06,0-2.66,2.63-3.45,3.31l0,0a20.17,20.17,0,0,0,2,.45h-.17l.71.07.07-.07A41.06,41.06,0,0,0,308.83,257.55Z" fill="url(#linear-gradient-5)"/><path id="_Path_6" data-name="&lt;Path&gt;" d="M350.25,206.61v0q-.23-1.3-.44-2.62c-1.56-2.56-2-5.73-3.31-8.41-.08-.21-.17-.42-.26-.62-11.43-21.08-25.88-33.82-47.17-38a51.38,51.38,0,0,0-15.32-1.86c-10.15.1-11.08,1-12.32,1.18a55.42,55.42,0,0,0-6.59,3.62L273,158l6.18-.64c4-.63,18.51-.78,36,6.58,1.18.5,9.09,6,14.11,10.77a57.86,57.86,0,0,1,5.46,5.86h0a51.11,51.11,0,0,1,4.11,5.49v0c11.38,18.09,9.88,33.4,9.88,33.4A55.61,55.61,0,0,0,350.25,206.61Z" fill="url(#linear-gradient-6)"/><path id="_Path_7" data-name="&lt;Path&gt;" d="M347.48,222c0-.65-.1-1.46-.22-2.48h0a17.74,17.74,0,0,1,.07-3.91c.4-2-1.14-7.71-1.9-10.6A65.81,65.81,0,0,0,333,180.57s-8.81-9.44-15.16-13.84l0,0a23.06,23.06,0,0,0-4.44-2.29c-.54-.22-1.09-.43-1.67-.63-1.57-.56-3.28-1.07-5.06-1.54-2.58-.68-5.31-1.28-8-1.8l-1.35-.25c-3.8-.69-7.52-1.24-10.66-1.68h0a31.14,31.14,0,0,0-6.94,0h-.52l-.08.06c-.64.07-2.39.25-2.46.31-1.36.2-2.71.44-4,.71-.08,0-3,.65-4.11.94a3.5,3.5,0,0,0-1.1.28c-3.86,1-6.56,1.94-6.56,1.94a55.84,55.84,0,0,0-6,5.42,62.05,62.05,0,0,1,12.75-5.36,56.87,56.87,0,0,1,34.35-.21c13.87,4.07,27.15,13.33,34.46,26.65,6.44,11.72,9.47,26.2,8.63,41.06a55,55,0,0,0,2.39-5.9,1,1,0,0,0,.08-.28,9.3,9.3,0,0,0,.07-2l0,.07Z" fill="url(#linear-gradient-7)"/><path id="_Path_8" data-name="&lt;Path&gt;" d="M323.05,161.12a94,94,0,0,1,9,6.85c.59.57.92.9.92.9l5.74,5.37a48.36,48.36,0,0,0,4.21,4.81,55.7,55.7,0,0,0-7.5-10.18h0a55.6,55.6,0,0,0-19.34-13.49h0c-.75-.64-3.9-1.45-3.9-1.45h0a55.31,55.31,0,0,0-15.53-2.76h0q-.93,0-1.87,0c-1.46,0-2.91.06-4.34.17,2.76.14,5.73.5,8.85.84C315.1,155.06,320,159.35,323.05,161.12Z" fill="url(#linear-gradient-8)"/><path id="_Path_9" data-name="&lt;Path&gt;" d="M298.83,155.11c1.17.25,2.31.54,3.44.84a65.85,65.85,0,0,1,25.1,12.67,70,70,0,0,1,6,5.52l.58.6a92,92,0,0,1,14.48,20.58q.53,1,1,2c-5-17.05-10.12-19.17-11.94-21.73-1-1.18-3.25-4.19-4-4.81-1.82-1.5-12.6-9.18-16.71-11.57a54.32,54.32,0,0,0-14.64-5.32s-11.28-2-18.29-1.72q-2.31.46-4.55,1.11A82.83,82.83,0,0,1,298.83,155.11Z" fill="url(#linear-gradient-9)"/><path id="_Path_10" data-name="&lt;Path&gt;" d="M304.75,176.3c-.37-.24-.77-.47-1.18-.69Z" fill="url(#linear-gradient-10)"/><path id="_Path_11" data-name="&lt;Path&gt;" d="M341.26,207.4c-.74-2-1.91-7.36-3.1-10.32q-.8-2-1.71-3.88a60.54,60.54,0,0,0-4.2-7.39q-.57-.85-1.16-1.67a4.61,4.61,0,0,1-.37-.52,34.09,34.09,0,0,0-2.5-3.15c-11.54-11.8-28-18.35-38.48-18.54a85.86,85.86,0,0,0-10,.21A63.5,63.5,0,0,0,268,164.49l-.42.13a10.69,10.69,0,0,0-1.83.59l-.1.07c-.69.26-1.44.56-2.29.92a10.27,10.27,0,0,0-1.59.68c-2.4,1-5.12,2.48-7.25,3.68a5.4,5.4,0,0,0-1.22.69c-1.49.85-2.47,1.46-2.47,1.46q-1.15,1.48-2.19,3a51,51,0,0,1,9.37-5.58l3-1.29a68.73,68.73,0,0,1,14.33-3.93,70.62,70.62,0,0,1,16.83-.78,42.16,42.16,0,0,1,8.73,1.55c.69.21,2.31.83,2.48.89a73,73,0,0,1,9.28,4.6,71.25,71.25,0,0,1,10.55,7.49c6.63,5.74,11,11.94,13,18.44a23.51,23.51,0,0,1,1.46,8.74c.08,1.22.12,2.48.13,3.75.08,24.7-3.79,34.78-3.79,34.78-.22.71-.44,1.4-.68,2.07a55.63,55.63,0,0,0,4.42-4.8c0-.2.08-.41.12-.62,0-.38.09-.79.13-1.24h0v-.05c0-.38.07-.78.1-1.2.14-1.62.56-5,1.06-11.5.4-5,.49-17.59.49-17.59A56.52,56.52,0,0,1,341.2,222c0,3.52-.69,15.67-.7,16,1-1.39,1.86-2.83,2.69-4.31,0-.23,0-.46.06-.68.12-1.41.08-12.32-.37-16.59A53.19,53.19,0,0,0,341.26,207.4Z" fill="url(#linear-gradient-11)"/><path id="_Path_12" data-name="&lt;Path&gt;" d="M340.5,238h0l0,0Z" fill="url(#linear-gradient-12)"/><path id="_Path_13" data-name="&lt;Path&gt;" d="M283.78,260.38a2.85,2.85,0,0,0,1.33-.81l.82-1.25.38-1.14-5,3.32A4.4,4.4,0,0,0,283.78,260.38Z" fill="url(#linear-gradient-13)"/><path id="_Path_14" data-name="&lt;Path&gt;" d="M255.59,206.18c8.93-8.33,15.36-12.57,22-15.89,5.09-2.56,7.67-4.67,14.73-4.13,0,0,16.82.94,17.65,25.56v0c.48.13,1,.31,1.54.53l.53.22v0c.19-4.39-1.51-11.88-2.23-13.82-1.27-3.41-3.65-7.24-4.69-8.13-.81-1-5.43-6.83-16-6.25-6,.17-11.13,2.22-15.88,4.85h0c-2.43,1.23-9.86,6.47-13,8.63-6.92,4.77-14.2,15.51-20,18.8q.27,1.47.61,2.92C246.33,216.42,251,210.43,255.59,206.18Z" fill="url(#linear-gradient-14)"/><path id="_Path_15" data-name="&lt;Path&gt;" d="M299.79,237.62c.11-.12,3-4.77,5-8.27a32.36,32.36,0,0,0,2.07-4h0c0-.11.09-.21.12-.32a21.3,21.3,0,0,0,1.19-3.48l-.44-.18a12.25,12.25,0,0,0-2-.66,23,23,0,0,0-1.74,5.07c-.8,2-4.18,8.64-4.18,8.64Z" fill="url(#linear-gradient-15)"/><path id="_Path_16" data-name="&lt;Path&gt;" d="M299.79,243.64a77.91,77.91,0,0,0,7.83-11.26c.13,0,2.34-6.05,3.53-9.61l-1.72-.72c-.22.76-.49,1.66-.62,2.1h0a66,66,0,0,1-3,7.13c-1.39,2.78-5.66,8.31-6,8.82Z" fill="url(#linear-gradient-16)"/><path id="_Path_17" data-name="&lt;Path&gt;" d="M268.23,255.35c.52.29,1.05.56,1.59.83a51.65,51.65,0,0,0,6.46-3.44c3.75-1.93,6.92-5,10.28-7.67h0v-2.21C280.91,246.6,275,251,268.23,255.35Z" fill="url(#linear-gradient-17)"/><path id="_Path_18" data-name="&lt;Path&gt;" d="M272.8,257.57q1.19.51,2.41,1a57.73,57.73,0,0,0,11.36-7.88h0v-3.14h0C286.43,247.56,277.65,255,272.8,257.57Z" fill="url(#linear-gradient-18)"/><path id="_Path_19" data-name="&lt;Path&gt;" d="M279.68,258c-.26.19-.53.37-.8.53l-.35.2-.48.28-.51.27-.16.08c.79.26,1.59.5,2.39.72l6.74-4.54h0c0-.34,0-.71,0-1.11v-.83h0A77.16,77.16,0,0,1,279.68,258Z" fill="url(#linear-gradient-19)"/><path id="_Path_20" data-name="&lt;Path&gt;" d="M245.07,209.69h0a68.34,68.34,0,0,1,9.06-9.75c4.51-3.72,11.3-9.43,17.75-13,5.23-2.26,11.43-4.53,17.94-4.32,20.57-.83,23.66,20.47,23.88,30.48v0l2.16.88v0c0-10.52-2.27-19.89-8.46-27.23-4.68-3.43-7.6-5.83-20.83-6.12-12.94,1.15-27.28,11.63-30,13.51s-6.58,4.26-9.08,6.28c-1,.76-6.75,4.76-8.24,5.67,0,.16,0,.31,0,.47q0,1.23.05,2.44a61.62,61.62,0,0,0,9.33-7.3c-2.39,2.94-7.22,8.71-9.18,9.51q.13,1.6.36,3.18A25.27,25.27,0,0,0,245.07,209.69Z" fill="url(#linear-gradient-20)"/><path id="_Path_21" data-name="&lt;Path&gt;" d="M293,200.59l-.33-.11c-1.66-.49-3.06.91-4.4,3.16-.58,1-1.14,2.09-1.71,3.28-1.89,4-6.81,9.29-6.81,9.29-.9.83-2.08,1.89-3.66,3.27a97.56,97.56,0,0,1-12.64,9.08,129,129,0,0,1-12.85,6.55c-.87.46-1.72.95-2.63,1.35l0,0,0,0,.63,1c.38.51.37.6.5.51l1.49-.66s5.16-2.34,5.71-2.84c1.58-.93,5.25-2.29,13.27-7,3.72-2.19,7.57-6.37,12.33-9.86l-.06,0,.06,0-.79-.24v-1.92c1.5-.12,2.25-.22,3.73-.45l.65-1h0a7.92,7.92,0,0,0,.76-1.16c1.08-2,2.37-4.86,3.52-7.1a13.56,13.56,0,0,1,2.16-3.46c.55-.19,1.07-.1,1.19.64a1.59,1.59,0,0,0,0,.64,8.14,8.14,0,0,1-.41,1.66,3.66,3.66,0,0,0-.16.44,26.5,26.5,0,0,1-1.15,2.59l-.07.15-.16.3h0c-1.37,2.64-3.1,5.73-3.1,5.74h0c.66-.14,1.78-.4,2.71-.62l1.11-.28s.32-1,1.06-3.3l.12-.36a27,27,0,0,0,1.45-5C295,202.31,294.37,201.13,293,200.59Z" fill="url(#linear-gradient-21)"/><path id="_Path_22" data-name="&lt;Path&gt;" d="M268.82,243.13c2.39-1.05,6.57-4.59,6.8-4.75,2.65-1.92,4.82-3.7,4.82-3.7h0a44.84,44.84,0,0,0,6.13-5.56h0v-2.37h0c-3.3,3.39-15.59,14.66-30.85,19.29q.92.91,1.88,1.78l2-.63c.85-.26,2.6-.83,2.63-.86C263.43,245.92,267.92,243.53,268.82,243.13Z" fill="url(#linear-gradient-22)"/><path id="_Path_23" data-name="&lt;Path&gt;" d="M284.85,218.46l-1.66-.51s-8.44,10.55-17.68,14a127.53,127.53,0,0,1-15.61,7.34q.67.92,1.38,1.82c3.16-.71,16.6-5.88,24-12.58C283.11,221.34,284.85,218.46,284.85,218.46Z" fill="url(#linear-gradient-23)"/><path id="_Path_24" data-name="&lt;Path&gt;" d="M286.56,222.53h0c0-.43,0-.81,0-1.14a3.44,3.44,0,0,0-.48-2c-2.86,4.69-9.78,12.11-15.25,14.67a101.66,101.66,0,0,1-18.22,8.57q.76.89,1.56,1.75c1.67-.59,8.82-3.13,10.68-4.26C272.69,235.7,280.56,230.55,286.56,222.53Z" fill="url(#linear-gradient-24)"/><path id="_Path_25" data-name="&lt;Path&gt;" d="M301.52,222.37l-.46.63c-.56,1.6-1,3.39-1.27,4.23V231a41.26,41.26,0,0,0,4-10.44A4,4,0,0,0,301.52,222.37Z" fill="url(#linear-gradient-25)"/><path id="_Path_26" data-name="&lt;Path&gt;" d="M279.76,240.48l0,0c2.06-1.95,4.51-3.69,6.78-5.62h0v-3h0c-1.42,1.43-2.81,2.91-4.26,4.29-.4.32-1,.84-1.77,1.62s-6.55,4.57-7,5c-1,.59-2,1.17-3,1.73a6.87,6.87,0,0,0-1.54.82l0,0,0,0c-4.64,2.44-8.68,4.22-8.68,4.22h0l-.39.14q.84.68,1.71,1.33c3.58-1.5,7-3.31,10.43-5.1A94.36,94.36,0,0,0,279.76,240.48Z" fill="url(#linear-gradient-26)"/><path id="_Path_27" data-name="&lt;Path&gt;" d="M286.57,240.45v-1.91h0c-.32.17-1,.48-1.3.65-.72.36-5.29,3.46-6,3.89l-3.9,2.51-1.89,1.19-.34.21c-3.21,2-9.12,5.16-9.12,5.16a4.81,4.81,0,0,1-.59.26q.89.61,1.8,1.18a74.67,74.67,0,0,0,8.47-4.44C278.32,247,281.7,243.41,286.57,240.45Z" fill="url(#linear-gradient-27)"/><path id="_Path_28" data-name="&lt;Path&gt;" d="M327.1,226.16c2.55-14.4,1.45-26.92-3.92-37.23-.31-.47-5.06-6.57-7.32-9-9.26-9.82-22.38-11.6-22.38-11.6a48.34,48.34,0,0,0-8.82.18c-3.86.64-3.86.64-5.81.91a80.29,80.29,0,0,0-10.95,2.7l-1.59.32s-6.4,2.29-11.76,4.67l-.93.42a74.28,74.28,0,0,0-8.4,5.2,8.64,8.64,0,0,0-.86.87,1.69,1.69,0,0,0-.3.43q-1.05,2.36-1.89,4.82a80.07,80.07,0,0,1,11.51-8.19c3.73-1.86,7.61-3.76,9.76-4.69h0c5-2.16,13.18-3.69,13.18-3.69s8.85-2.31,16.36-1.68l2.73.25a15,15,0,0,1,5.41,1.73c.38.19,3,1.32,3.91,1.65.38.28.8.57,1.24.87l1.3,1c10.86,8.23,13.94,14.78,13.94,14.78h0c7.72,13,5.48,30.1.43,49.45-4.53,10.32-6.16,10.09-8.2,13.36-.58.72-4.62,5.5-4.62,5.5a15.24,15.24,0,0,1-1.73,1.44h.11v.06q2-.46,3.89-1.07l.08-.21c2.21-3.38,7.2-7.2,9.53-12.59C324.23,239.91,325,233.32,327.1,226.16Z" fill="url(#linear-gradient-28)"/><path id="_Path_29" data-name="&lt;Path&gt;" d="M336.27,211.29c0-2,0-4-.15-5.82,0-2.7,0-5.34-1.21-7.39a31.24,31.24,0,0,0-3.38-7.55c-5.77-9.47-16.25-16.84-25.79-21.24a7.91,7.91,0,0,0-1.89-.84l-1.52-.63c-6.17-2.45-16-3-25.92-1.51l-.82.13a68.26,68.26,0,0,0-12.09,3.11l-1.18.44h-.06a53.58,53.58,0,0,0-10.47,5.36h0q-.74.5-1.46,1a24.74,24.74,0,0,0-3.6,2.42v.51a112.87,112.87,0,0,1,13.7-6.88,32.39,32.39,0,0,1,6-1.85c6.93-1.24,18.94-4.2,24-3.62.25,0,5.44.61,5.63.65a3.9,3.9,0,0,0,1.16.25,36,36,0,0,1,6.35,2.16,32,32,0,0,1,3.27,1.4,6.5,6.5,0,0,0,1.15.77c12.21,7.36,15.93,14.79,15.93,14.79a24,24,0,0,1,3.42,6.61c4.82,11,3.09,26.82-.21,41-1,3.86-3.3,11.79-5.35,15.57a49,49,0,0,1-7.54,8.41q2.5-.94,4.88-2.1c2.52-3.2,5.34-5.82,7.16-10.35l2.79-8.76c3-12.58,3.15-23.72,3.25-34.82-1.82-8.9-4.39-11.34-6.33-16.27,3.58,2.88,5.11,6.82,6.32,10.93h0v0q.19.65.37,1.3a21.06,21.06,0,0,1,.46,2.9c1.07,14.5,1.32,39.53-9.25,52.21l-.34.42a55.74,55.74,0,0,0,6.07-4.27,27.75,27.75,0,0,0,2-3.27,149.41,149.41,0,0,0,4.68-34.65C336.26,211.67,336.27,211.48,336.27,211.29Z" fill="url(#linear-gradient-29)"/><path id="_Path_30" data-name="&lt;Path&gt;" d="M318.44,227c1.21-3.16,1.42-8.92,1.42-8.92h0a48.47,48.47,0,0,0-1.31-18.56c-.12-2-1.36-4.6-4.64-9.79-15.86-20.47-40-12.14-47.35-7.68-3.18,1.49-6.28,3.15-9.37,4.83-5.53,3.26-16.75,12.47-17.45,12.62q-.28,2.19-.38,4.43c6.32-5,12.72-9.77,19.26-14.31.13-.42,16.87-11.43,30.09-10.64,3.84-.8,26.46.41,29.14,30a54.37,54.37,0,0,1,.08,9.48,35.75,35.75,0,0,1-.65,4.08s-1.94,6-2.45,7c0,0-4.95,10.11-5,10.13s-9.17,12.49-10.06,13.39v1.78c0,.4,0,.77.05,1.12l.55-.39s4.76-6.67,10.44-14.47A66.81,66.81,0,0,0,318.44,227Z" fill="url(#linear-gradient-30)"/><path id="_Path_31" data-name="&lt;Path&gt;" d="M299.79,249.88c6.78-6.24,13.72-21.92,14.6-24.57v0a32.89,32.89,0,0,0,1.49-5c0-.18-.11-2.37-.08-3.42,0,0-4.56,9.72-4.65,10a81.85,81.85,0,0,1-3.87,8.83A66.44,66.44,0,0,1,299.79,247Z" fill="url(#linear-gradient-31)"/><path id="_Path_32" data-name="&lt;Path&gt;" d="M290.23,193a7.18,7.18,0,0,0-5.73.88h0c-1.3.55-4.14,2.84-6.87,5.2l-.91.8-1.13.91c-.38.24-4.77,3.44-5.21,3.75-4.77,3.34-11.17,9.09-13.76,11.26-3.43,2.48-6.85,5-10.16,7.7q-.19.22-.4.42l-.24.16c-1.78,1.16-3,2-3,2l0,.05h0q.26.68.53,1.36l.13-.11a37.59,37.59,0,0,0,7.82-4.11l1.28-.73,1-.83c3.44-2.38,7.06-5.18,10.49-7.91,3.58-2.68,7-5.25,7-5.4,1.47-1.33,2.92-2.73,4.26-4.17a95,95,0,0,1,11.85-8.86,5.18,5.18,0,0,1,2.89-.9,1.5,1.5,0,0,1,.85.91c-.11.91-.5,1.21-.72,1.27l-.29.08a2,2,0,0,0-.42.07,3.54,3.54,0,0,0-3,1.27l-.13.07a17.52,17.52,0,0,0-4.86,4.05h0l-.33.37a230.83,230.83,0,0,1-32.85,24.5l-.76.37-.18.09A23.26,23.26,0,0,0,244,229.1l0,.05h0q.44,1,.92,2l.4-.26s4.3-2,8.18-4.16c.06,0,2.29-1.3,3.34-2h0a145,145,0,0,0,21.29-16.24c.23-.21.51-.52.79-.82,1.83-1.83,3.22-3.79,4.13-4.57a1.23,1.23,0,0,1,.68.15c-2.57,5-4.09,7.05-15.71,16.49-6.82,4.87-12.9,8.35-13.57,8.76-4.4,2.35-8,4.14-8.3,4.31l-.3.11,0,.05h0q.36.67.74,1.32c3.17-1.4,12-5.1,16.51-8.2,12.38-9.2,17.65-10.86,23-23a3.17,3.17,0,0,1,.11-.34l.08-.24a12.51,12.51,0,0,1,2.55-3.6,5.24,5.24,0,0,1,1.78-.76,5.06,5.06,0,0,1,5.19,2.78l0,.1.14.31a9.27,9.27,0,0,1,.67,3.08v.14c0,.13,0,.27,0,.41a23.28,23.28,0,0,1-1.42,7.63h0c.23-.07,2.78-1,2.78-1a23.55,23.55,0,0,0,.64-5.56C298.72,201.37,297.28,195.23,290.23,193Z" fill="url(#linear-gradient-32)"/></g><g id="_Group_4" data-name="&lt;Group&gt;"><g id="_Group_5" data-name="&lt;Group&gt;" opacity="0.1"><g id="_Clip_Group_" data-name="&lt;Clip Group&gt;"><g clip-path="url(#clip-path)"><path id="_Path_33" data-name="&lt;Path&gt;" d="M140.24,154.62a.64.64,0,0,1-.64-.64V128.83H114.39a.64.64,0,0,1-.64-.64v-1a.64.64,0,0,1,.64-.64h.53v-14.1a.64.64,0,0,1,.64-.64h9.18a8.83,8.83,0,0,1,8.52-6.56h11.28V95.4a1.55,1.55,0,0,1,3.1-.05l4.69,1.92a.64.64,0,0,1,.12,1.12l-4.81,3.31v3.61h6.46a8.82,8.82,0,0,1,8.81,8.81v14.09a.64.64,0,0,1-.64.64H146.73V154a.64.64,0,0,1-.64.64Z" fill="#631710"/></g></g><rect id="_Path_34" data-name="&lt;Path&gt;" x="113.75" y="93.85" width="49.16" height="60.77" fill="none"/></g><path id="_Path_35" data-name="&lt;Path&gt;" d="M139.72,154.13a.64.64,0,0,1-.64-.64V128.35H113.87a.64.64,0,0,1-.64-.64v-1a.64.64,0,0,1,.64-.64h.53V112a.64.64,0,0,1,.64-.64h9.18a8.83,8.83,0,0,1,8.52-6.56H144v-9.9a1.55,1.55,0,0,1,3.1-.05l4.69,1.92a.64.64,0,0,1,.12,1.12l-4.81,3.31v3.61h6.46a8.82,8.82,0,0,1,8.81,8.81v14.09a.64.64,0,0,1-.64.64H146.21v25.14a.64.64,0,0,1-.64.64Z" fill="#631710"/><polygon id="_Path_36" data-name="&lt;Path&gt;" points="145.57 101.49 145.57 94.91 151.57 97.37 145.57 101.49" fill="#da2032"/><path id="_Path_37" data-name="&lt;Path&gt;" d="M153.58,105.45H132.73v21.3h29V113.62a8.17,8.17,0,0,0-8.17-8.17" fill="#ef4136"/><path id="_Path_38" data-name="&lt;Path&gt;" d="M153.58,105.45H132.73v21.3h29V113.62a8.17,8.17,0,0,0-8.17-8.17" fill="#cd372e"/><path id="_Path_39" data-name="&lt;Path&gt;" d="M133.46,110.34v21.3h29V118.51a8.17,8.17,0,0,0-8.17-8.17Z" fill="none"/><path id="_Path_40" data-name="&lt;Path&gt;" d="M132.74,105.45a8.17,8.17,0,0,0-8.17,8.17v13.13h16.34V113.62a8.17,8.17,0,0,0-8.17-8.17" fill="#9c0a0e"/><path id="_Path_41" data-name="&lt;Path&gt;" d="M145.57,115a.91.91,0,0,1-.91-.91V94.91a.91.91,0,1,1,1.82,0v19.23a.91.91,0,0,1-.91.91" fill="#fbb040"/><path id="_Path_42" data-name="&lt;Path&gt;" d="M147.24,114.14a1.67,1.67,0,1,1-1.67-1.67,1.67,1.67,0,0,1,1.67,1.67" fill="#fff"/><path id="_Path_43" data-name="&lt;Path&gt;" d="M146.59,114.14a1,1,0,1,1-1-1,1,1,0,0,1,1,1" fill="#939598"/><rect id="_Path_44" data-name="&lt;Path&gt;" x="115.04" y="112.01" width="22.21" height="14.74" fill="#e1f4fd"/><polygon id="_Path_45" data-name="&lt;Path&gt;" points="115.04 112.01 126.14 119.38 115.04 126.75 137.25 126.75 126.14 119.38 137.25 112.01 115.04 112.01" fill="#cadce5"/><rect id="_Path_46" data-name="&lt;Path&gt;" x="113.87" y="126.75" width="47.89" height="0.96" fill="#cd372e"/><rect id="_Path_47" data-name="&lt;Path&gt;" x="139.72" y="127.71" width="5.85" height="25.78" fill="#cd372e"/><g id="_Group_6" data-name="&lt;Group&gt;" opacity="0.15"><g id="_Clip_Group_2" data-name="&lt;Clip Group&gt;"><g clip-path="url(#clip-path-2)"><path id="_Path_48" data-name="&lt;Path&gt;" d="M144.08,163.28a.75.75,0,0,1-.75-.75V125.2a.75.75,0,0,1,.51-.71l17.07-5.86a.74.74,0,0,1,.24,0l.18,0,2,.51a7.56,7.56,0,0,1,6.76-4.18,7.41,7.41,0,0,1,7.4,7.4c0,.12,0,.25,0,.38l1.57.4,16.6-5.62a.75.75,0,0,1,1,.71V156a.75.75,0,0,1-.51.71l-17,5.6a.77.77,0,0,1-.24,0l-.18,0-17.64-4.43-16.78,5.37a.75.75,0,0,1-.23,0" fill="#6d6e71"/></g></g><rect id="_Path_49" data-name="&lt;Path&gt;" x="143.33" y="114.95" width="53.3" height="48.33" fill="none"/></g><path id="_Path_50" data-name="&lt;Path&gt;" d="M143.49,162.8a.75.75,0,0,1-.75-.75V124.72a.75.75,0,0,1,.51-.71l17.07-5.86a.74.74,0,0,1,.24,0l.18,0,2,.51a7.56,7.56,0,0,1,6.76-4.18,7.41,7.41,0,0,1,7.4,7.4c0,.12,0,.25,0,.38l1.57.4,16.6-5.62a.75.75,0,0,1,1,.71V155.5a.75.75,0,0,1-.51.71l-17,5.6a.77.77,0,0,1-.24,0l-.18,0L160.5,157.4l-16.78,5.37a.75.75,0,0,1-.23,0" fill="#6d6e71"/><polygon id="_Path_51" data-name="&lt;Path&gt;" points="143.49 124.78 143.49 162.1 160.47 156.68 178.31 161.16 195.3 155.55 195.3 117.8 178.49 123.49 160.56 118.92 143.49 124.78" fill="#fff"/><polygon id="_Path_52" data-name="&lt;Path&gt;" points="192.39 121.85 178.6 126.51 160.68 121.95 146.39 126.85 146.39 158.13 160.38 153.66 178.21 158.13 192.39 153.45 192.39 121.85" fill="#f3e9d3"/><polygon id="_Path_53" data-name="&lt;Path&gt;" points="162.84 127.6 170.15 126.21 171.82 129.62 178.4 129.87 179.44 129.87 184.44 126.07 184.94 124.37 178.6 126.51 162.21 122.34 162.84 127.6" fill="#b8cc65"/><polygon id="_Path_54" data-name="&lt;Path&gt;" points="149.61 125.75 155.38 138.83 165.73 137.54 167.99 134.39 169.11 132.82 171.1 130.06 169.39 127.6 159.8 128.89 160.52 132.88 156.8 133.44 156.67 132.29 159.25 131.8 157.67 122.98 149.61 125.75" fill="#b8cc65"/><polygon id="_Path_55" data-name="&lt;Path&gt;" points="146.39 126.85 146.39 131.46 149.82 131.46 147.49 126.48 146.39 126.85" fill="#f8d1b0"/><polygon id="_Path_56" data-name="&lt;Path&gt;" points="146.39 147.27 150.82 147.8 152.8 142.54 149.95 140.38 147.24 145.12 146.76 144.52 149.44 139.95 146.39 137.86 146.39 147.27" fill="#f8d1b0"/><polygon id="_Path_57" data-name="&lt;Path&gt;" points="146.39 158.13 153.83 155.75 153.83 154.43 150.82 150.12 146.39 149.28 146.39 158.13" fill="#b8cc65"/><polygon id="_Path_58" data-name="&lt;Path&gt;" points="160.56 141.33 159.95 144.61 158.75 144.61 159.44 141.33 156.07 141.76 153.23 148.74 155.21 150.81 160.47 149.78 163.4 148.74 164.26 140.81 160.56 141.33" fill="#f8d1b0"/><polygon id="_Path_59" data-name="&lt;Path&gt;" points="166.5 140.81 166.5 143.31 173.92 143.31 173.49 139.95 166.5 140.81" fill="#f8d1b0"/><polygon id="_Path_60" data-name="&lt;Path&gt;" points="166.16 144.95 165.87 148.21 170.21 149.79 174.44 147.37 174.18 144.95 166.16 144.95" fill="#f8d1b0"/><polygon id="_Path_61" data-name="&lt;Path&gt;" points="160.51 152.3 156.17 153.78 156.32 154.95 160.38 153.66 169.9 156.05 169.9 152.09 163.83 151.02 160.51 152.3" fill="#f8d1b0"/><polygon id="_Path_62" data-name="&lt;Path&gt;" points="171.07 152.04 171.07 154.44 179.69 154.44 175.92 149.8 171.07 152.04" fill="#b8cc65"/><polygon id="_Path_63" data-name="&lt;Path&gt;" points="171.07 155.31 171.07 156.34 178.21 158.13 181.71 156.98 180.25 155.31 171.07 155.31" fill="#b8cc65"/><polygon id="_Path_64" data-name="&lt;Path&gt;" points="176.99 149.8 182.59 156.69 191.58 153.72 188.37 148.11 184.49 150.05 182.24 146.68 176.99 149.8" fill="#f8d1b0"/><polygon id="_Path_65" data-name="&lt;Path&gt;" points="183.06 146.17 184.74 149.17 187.85 147.14 186.22 144.39 183.06 146.17" fill="#f8d1b0"/><polygon id="_Path_66" data-name="&lt;Path&gt;" points="179.34 138.83 180.46 141.76 179.44 141.99 178.37 139.13 175.38 139.99 176.66 148.67 185.76 143.62 182.5 138.06 179.34 138.83" fill="#f8d1b0"/><polygon id="_Path_67" data-name="&lt;Path&gt;" points="167.45 137.55 181.02 135.2 179.44 131.94 171.78 131.22 167.45 137.55" fill="#b8cc65"/><polygon id="_Path_68" data-name="&lt;Path&gt;" points="181.27 131.48 185.13 137.86 188.98 135.41 184.9 128.42 181.27 131.48" fill="#f8d1b0"/><polygon id="_Path_69" data-name="&lt;Path&gt;" points="185.76 127.86 189.72 134.9 192.39 133.48 192.39 127.51 189.44 124.59 185.76 127.86" fill="#f8d1b0"/><polygon id="_Path_70" data-name="&lt;Path&gt;" points="192.34 121.86 190.15 123.98 192.39 126.29 192.39 121.85 192.34 121.86" fill="#f8d1b0"/><polygon id="_Path_71" data-name="&lt;Path&gt;" points="185.46 138.83 188.37 143.83 192.39 141.27 192.39 134.48 185.46 138.83" fill="#f8d1b0"/><polygon id="_Path_72" data-name="&lt;Path&gt;" points="188.98 144.59 192.39 150.46 192.39 142.44 188.98 144.59" fill="#f8d1b0"/><polygon id="_Path_73" data-name="&lt;Path&gt;" points="158.63 122.65 159.48 127.98 161.98 127.6 161 122.03 160.68 121.95 158.63 122.65" fill="#b8cc65"/><polygon id="_Path_74" data-name="&lt;Path&gt;" points="146.39 132.05 146.39 136.94 153.23 141.76 153.83 139.99 149.82 132.05 146.39 132.05" fill="#f8d1b0"/><g id="_Group_7" data-name="&lt;Group&gt;" opacity="0.2" style="mix-blend-mode:darken"><polygon id="_Path_75" data-name="&lt;Path&gt;" points="160.68 121.95 160.38 153.66 178.2 158.13 178.6 126.51 160.68 121.95" fill="#231f20"/><rect id="_Path_76" data-name="&lt;Path&gt;" x="160.38" y="121.95" width="18.23" height="36.19" fill="none"/></g><g id="_Group_8" data-name="&lt;Group&gt;" opacity="0.2" style="mix-blend-mode:darken"><g id="_Clip_Group_3" data-name="&lt;Clip Group&gt;"><g clip-path="url(#clip-path-3)"><path id="_Path_77" data-name="&lt;Path&gt;" d="M172.43,134.66c0,.53-1.32,1-2.94,1s-2.94-.43-2.94-1,1.32-1,2.94-1,2.94.43,2.94,1" fill="#231f20"/></g></g><rect id="_Path_78" data-name="&lt;Path&gt;" x="166.55" y="133.69" width="5.89" height="1.94" fill="none"/></g><path id="_Path_79" data-name="&lt;Path&gt;" d="M176.15,121.87c0,5-6.65,12.79-6.65,12.79s-6.3-7.65-6.65-12.79c-.25-3.67,3-6.65,6.65-6.65a6.65,6.65,0,0,1,6.65,6.65" fill="#f7941d"/><path id="_Path_80" data-name="&lt;Path&gt;" d="M176.15,121.87c0,5-6.65,12.79-6.65,12.79s-6.3-7.65-6.65-12.79c-.25-3.67,3-6.65,6.65-6.65a6.65,6.65,0,0,1,6.65,6.65" fill="#fbb040"/><polygon id="_Path_81" data-name="&lt;Path&gt;" points="169.49 135.33 180.81 135.33 180.81 114.21 169.49 113.83 169.49 135.33" fill="none"/><path id="_Path_82" data-name="&lt;Path&gt;" d="M174,121.79a4.61,4.61,0,1,1-4.62-4.62,4.62,4.62,0,0,1,4.62,4.62" fill="#fff"/></g><g id="_Group_9" data-name="&lt;Group&gt;"><g id="_Group_10" data-name="&lt;Group&gt;" opacity="0.1"><g id="_Clip_Group_4" data-name="&lt;Clip Group&gt;"><g clip-path="url(#clip-path-4)"><path id="_Path_83" data-name="&lt;Path&gt;" d="M213,84.52a1.58,1.58,0,0,1-1.59-1.59V74.4A1.59,1.59,0,0,1,213,72.82h2.9V32.91h-5.56a1.59,1.59,0,0,1-.8-3L259.8.76a1.58,1.58,0,0,1,1.59,0L311.63,30a1.59,1.59,0,0,1-.8,3H304.7V72.82h3.48a1.59,1.59,0,0,1,1.59,1.59v8.53a1.59,1.59,0,0,1-1.59,1.59Z" fill="#005b7f"/></g></g><rect id="_Path_84" data-name="&lt;Path&gt;" x="208.78" y="0.54" width="103.64" height="83.98" fill="none"/></g><path id="_Path_85" data-name="&lt;Path&gt;" d="M212.23,83.48a1.34,1.34,0,0,1-1.33-1.33V73.61a1.34,1.34,0,0,1,1.33-1.33h2.9a.25.25,0,0,0,.25-.25V32.12a.25.25,0,0,0-.25-.25h-5.55a1.34,1.34,0,0,1-.67-2.49L259.14.18a1.33,1.33,0,0,1,1.34,0l50.24,29.19a1.34,1.34,0,0,1-.67,2.49h-6.13a.25.25,0,0,0-.25.25V72a.25.25,0,0,0,.25.25h3.48a1.34,1.34,0,0,1,1.34,1.33v8.53a1.34,1.34,0,0,1-1.34,1.33Z" fill="#005b7f"/><polygon id="_Path_86" data-name="&lt;Path&gt;" points="302.32 30.53 310.04 30.53 259.81 1.34 209.57 30.53 216.71 30.53 216.71 73.61 212.23 73.61 212.23 82.14 307.39 82.14 307.39 73.61 302.32 73.61 302.32 30.53" fill="#e1f4fd"/><polygon id="_Path_87" data-name="&lt;Path&gt;" points="209.57 30.53 259.81 1.34 310.04 30.53 209.57 30.53" fill="#fff"/><polygon id="_Path_88" data-name="&lt;Path&gt;" points="259.81 11.37 302.9 30.53 310.04 30.53 259.81 1.33 209.57 30.53 216.71 30.53 259.81 11.37" fill="#ccdde7"/><rect id="_Path_89" data-name="&lt;Path&gt;" x="212.23" y="73.61" width="95.16" height="8.53" fill="#ccdde7"/><rect id="_Path_90" data-name="&lt;Path&gt;" x="214.3" y="73.61" width="91.01" height="6.37" fill="#fff"/><rect id="_Path_91" data-name="&lt;Path&gt;" x="216.71" y="30.53" width="85.61" height="43.08" fill="#fff"/><rect id="_Path_92" data-name="&lt;Path&gt;" x="228.94" y="30.53" width="12.23" height="43.08" fill="#6d6e71"/><rect id="_Path_93" data-name="&lt;Path&gt;" x="253.4" y="30.53" width="12.23" height="43.08" fill="#6d6e71"/><rect id="_Path_94" data-name="&lt;Path&gt;" x="277.86" y="30.53" width="12.23" height="43.08" fill="#6d6e71"/><polygon id="_Path_95" data-name="&lt;Path&gt;" points="300.05 30.53 290.09 30.53 290.09 48.4 300.05 42.5 300.05 73.61 302.32 73.61 302.32 41.16 302.32 30.53 300.05 30.53" fill="#ccdde7"/><polygon id="_Path_96" data-name="&lt;Path&gt;" points="275.59 30.53 265.63 30.53 265.63 48.4 275.59 42.5 275.59 73.61 277.86 73.61 277.86 41.16 277.86 30.53 275.59 30.53" fill="#ccdde7"/><polygon id="_Path_97" data-name="&lt;Path&gt;" points="251.13 30.53 241.17 30.53 241.17 48.4 251.13 42.5 251.13 73.61 253.4 73.61 253.4 41.16 253.4 30.53 251.13 30.53" fill="#ccdde7"/><polygon id="_Path_98" data-name="&lt;Path&gt;" points="226.67 30.53 216.71 30.53 216.71 48.4 226.67 42.5 226.67 73.61 228.94 73.61 228.94 41.16 228.94 30.53 226.67 30.53" fill="#ccdde7"/><polygon id="_Path_99" data-name="&lt;Path&gt;" points="241.17 30.53 231.58 30.53 228.94 30.53 228.94 51.42 228.94 73.61 231.58 73.61 231.58 51.42 241.17 51.42 241.17 30.53" fill="#58595b"/><polygon id="_Path_100" data-name="&lt;Path&gt;" points="265.63 30.53 256.04 30.53 253.4 30.53 253.4 51.42 253.4 73.61 256.04 73.61 256.04 51.42 265.63 51.42 265.63 30.53" fill="#58595b"/><polygon id="_Path_101" data-name="&lt;Path&gt;" points="290.09 30.53 280.5 30.53 277.86 30.53 277.86 51.42 277.86 73.61 280.5 73.61 280.5 51.42 290.09 51.42 290.09 30.53" fill="#58595b"/><path id="_Compound_Path_" data-name="&lt;Compound Path&gt;" d="M245.82,17.84c0-.33.35-.49.7-.49h2.11c1,0,2.06.37,2.06,1.83a1.6,1.6,0,0,1-.88,1.62,1.5,1.5,0,0,1,1.06,1.65v.22c0,1.63-.91,2.22-2.07,2.22h-2.29c-.43,0-.7-.23-.7-.48Zm1.6,2.34h1.08a.64.64,0,0,0,.59-.71c0-.36-.2-.72-.59-.72h-1.08Zm1,3.3c.51,0,.82-.29.82-.95v-.16c0-.7-.31-.95-.82-.95h-1v2.06Z" fill="#005b7f"/><path id="_Compound_Path_2" data-name="&lt;Compound Path&gt;" d="M252.23,24.22a.55.55,0,0,1,0-.11l1.92-6.29c.11-.36.58-.54,1.05-.54s.94.18,1.05.54l1.93,6.29a.48.48,0,0,1,0,.11c0,.38-.59.66-1,.66-.26,0-.46-.08-.53-.3l-.35-1.29h-2.17l-.35,1.29c-.06.22-.27.3-.52.3-.44,0-1-.28-1-.66M256,22.06l-.75-2.76-.75,2.76Z" fill="#005b7f"/><path id="_Path_102" data-name="&lt;Path&gt;" d="M263.41,24.45l-2-3.57v3.5c0,.33-.4.49-.8.49s-.8-.17-.8-.49V17.84c0-.34.4-.49.8-.49.58,0,.79.05,1.19.8l1.67,3.18v-3.5c0-.34.4-.48.8-.48s.8.14.8.48v6.55c0,.33-.4.49-.8.49a.9.9,0,0,1-.9-.43" fill="#005b7f"/><path id="_Path_103" data-name="&lt;Path&gt;" d="M267.25,17.83c0-.34.4-.48.8-.48s.8.14.8.48v2.47l1.93-2.73a.48.48,0,0,1,.42-.23,1,1,0,0,1,.95.82.52.52,0,0,1-.1.31l-1.69,2.12,2.13,3.27a.51.51,0,0,1,.08.27,1,1,0,0,1-1,.8.62.62,0,0,1-.56-.3L269.29,22l-.43.56v1.87c0,.33-.4.49-.8.49s-.8-.17-.8-.49Z" fill="#005b7f"/><g id="_Group_11" data-name="&lt;Group&gt;" opacity="0.1"><g id="_Clip_Group_5" data-name="&lt;Clip Group&gt;"><g clip-path="url(#clip-path-5)"><path id="_Path_104" data-name="&lt;Path&gt;" d="M318.51,72.44l2.38-.76a.79.79,0,0,0,.51-1L318,60a.79.79,0,0,1,0-.24V51.91a.79.79,0,0,0-.79-.79h-1.44a.79.79,0,0,1-.75-.55L311.28,39a.79.79,0,0,0-1-.51L271.07,51.08a.8.8,0,0,1-.24,0H250.91a.79.79,0,0,0-.79.79v5.3a.79.79,0,0,1-.55.75l-2.38.76a.79.79,0,0,0-.51,1l3.41,10.66a.8.8,0,0,1,0,.24V85.13a.79.79,0,0,0,.79.79h3.57a.79.79,0,0,1,.76.55l1.56,4.89a.79.79,0,0,0,1,.51L276.27,86a.8.8,0,0,1,.24,0h40.66a.79.79,0,0,0,.79-.79V73.19a.79.79,0,0,1,.55-.75" fill="#00793f"/></g></g><rect id="_Path_105" data-name="&lt;Path&gt;" x="246.63" y="38.49" width="74.81" height="53.42" fill="none"/></g><rect id="_Path_106" data-name="&lt;Path&gt;" x="249.33" y="50.33" width="67.84" height="34.8" fill="#00793f"/><rect id="_Path_107" data-name="&lt;Path&gt;" x="250.28" y="51.28" width="65.93" height="32.9" fill="#003f22"/><path id="_Path_108" data-name="&lt;Path&gt;" d="M251.24,79.47V56A3.75,3.75,0,0,0,255,52.23H311.5A3.75,3.75,0,0,0,315.26,56V79.47a3.75,3.75,0,0,0-3.75,3.75H255a3.75,3.75,0,0,0-3.75-3.75" fill="#00793f"/><path id="_Path_109" data-name="&lt;Path&gt;" d="M295.62,67.73a12.37,12.37,0,1,1-12.37-12.37,12.37,12.37,0,0,1,12.37,12.37" fill="#003f22"/><path id="_Compound_Path_3" data-name="&lt;Compound Path&gt;" d="M282.67,73.68c-2.13-.05-3.73-1.2-3.73-2.18,0-.49.44-1.23,1-1.23s1.2,1.14,2.74,1.32v-3.5c-1.6-.6-3.41-1.28-3.41-3.54s1.66-3.2,3.41-3.43v-.49c0-.23.26-.44.6-.44s.6.21.6.44v.46c1.14,0,3,.37,3,1.39,0,.4-.28,1.21-.93,1.21-.49,0-.9-.56-2.08-.65v3.1c1.57.58,3.33,1.37,3.33,3.77a3.59,3.59,0,0,1-3.33,3.73v.55c0,.23-.3.44-.6.44s-.6-.21-.6-.44Zm.14-7.94V63.08c-.88.14-1.41.56-1.41,1.23s.6,1.11,1.41,1.42m.91,2.76v3.06A1.44,1.44,0,0,0,285,70.12c0-.86-.56-1.28-1.32-1.62" fill="#00a651"/><rect id="_Path_110" data-name="&lt;Path&gt;" x="249.33" y="47.01" width="67.84" height="34.8" transform="translate(-6.15 89.42) rotate(-17.75)" fill="#00793f"/><rect id="_Path_111" data-name="&lt;Path&gt;" x="250.28" y="47.96" width="65.93" height="32.89" transform="translate(-6.15 89.41) rotate(-17.75)" fill="#003f22"/><path id="_Path_112" data-name="&lt;Path&gt;" d="M256.34,85.35,249.18,63a3.75,3.75,0,0,0,2.43-4.72L305.43,41a3.75,3.75,0,0,0,4.72,2.43l7.16,22.36a3.75,3.75,0,0,0-2.43,4.72L261.06,87.78a3.75,3.75,0,0,0-4.72-2.43" fill="#00793f"/><path id="_Path_113" data-name="&lt;Path&gt;" d="M295,60.64a12.37,12.37,0,1,1-15.55-8,12.37,12.37,0,0,1,15.55,8" fill="#003f22"/><path id="_Compound_Path_4" data-name="&lt;Compound Path&gt;" d="M284.51,70.25c-2,.6-3.92,0-4.22-.94-.15-.47,0-1.31.56-1.47s1.49.72,3,.42l-1.07-3.34c-1.71-.08-3.64-.18-4.33-2.33s.6-3.56,2.21-4.31l-.15-.47c-.07-.22.12-.5.44-.6s.64,0,.7.24l.14.44c1.1-.31,3-.56,3.29.41.12.39.1,1.24-.52,1.44s-1-.26-2.18,0l.94,2.95c1.67.08,3.59.29,4.32,2.57a3.59,3.59,0,0,1-2,4.57l.17.52c.07.22-.15.51-.44.6a.55.55,0,0,1-.7-.24Zm-2.29-7.6-.81-2.53c-.8.4-1.17,1-1,1.6s.91.87,1.78.93M283.94,65l.93,2.92a1.44,1.44,0,0,0,.82-1.78c-.26-.82-.93-1.05-1.75-1.14" fill="#00a651"/><rect id="_Path_114" data-name="&lt;Path&gt;" x="245.55" y="53.93" width="44.75" height="29.53" rx="2.13" ry="2.13" fill="#7c374e"/><g id="_Group_12" data-name="&lt;Group&gt;"><path d="M252.32,63.1a2.82,2.82,0,0,1-1.16.21A2.06,2.06,0,0,1,249,61.08a2.19,2.19,0,0,1,2.3-2.31,2.37,2.37,0,0,1,1,.2l-.14.46a2.07,2.07,0,0,0-.89-.18,1.64,1.64,0,0,0-1.72,1.82,1.6,1.6,0,0,0,1.69,1.77,2.28,2.28,0,0,0,.93-.18Z" fill="#fff"/><path d="M253,58.9a5.9,5.9,0,0,1,1.09-.09,1.8,1.8,0,0,1,1.27.36,1.09,1.09,0,0,1,.35.84,1.16,1.16,0,0,1-.83,1.12v0a1.1,1.1,0,0,1,.65.89,7,7,0,0,0,.34,1.21h-.59a5.74,5.74,0,0,1-.29-1.05c-.13-.61-.37-.84-.88-.86h-.54v1.91H253Zm.57,2h.58c.61,0,1-.33,1-.84s-.41-.82-1-.82a2.36,2.36,0,0,0-.56.05Z" fill="#fff"/><path d="M258.83,61.18h-1.71v1.59H259v.48h-2.48v-4.4h2.38v.48h-1.81v1.39h1.71Z" fill="#fff"/><path d="M259.77,58.9a8.14,8.14,0,0,1,1.21-.09,2.52,2.52,0,0,1,1.78.55,2,2,0,0,1,.62,1.58,2.33,2.33,0,0,1-.63,1.71,2.71,2.71,0,0,1-1.95.63,9.17,9.17,0,0,1-1-.05Zm.57,3.89a3.56,3.56,0,0,0,.58,0A1.69,1.69,0,0,0,262.78,61a1.57,1.57,0,0,0-1.78-1.7,3.22,3.22,0,0,0-.67.06Z" fill="#fff"/><path d="M264.69,58.84v4.4h-.57v-4.4Z" fill="#fff"/><path d="M266.52,59.33h-1.34v-.48h3.26v.48h-1.34v3.92h-.58Z" fill="#fff"/></g><g id="_Group_13" data-name="&lt;Group&gt;"><path d="M274.22,63.1a2.82,2.82,0,0,1-1.16.21,2.06,2.06,0,0,1-2.17-2.23,2.19,2.19,0,0,1,2.3-2.31,2.37,2.37,0,0,1,1,.2l-.14.46a2.07,2.07,0,0,0-.89-.18,1.64,1.64,0,0,0-1.72,1.82,1.6,1.6,0,0,0,1.69,1.77,2.28,2.28,0,0,0,.93-.18Z" fill="#fff"/></g><g id="_Group_14" data-name="&lt;Group&gt;"><path d="M275.74,61.86l-.46,1.38h-.59l1.5-4.4h.69l1.5,4.4h-.61l-.47-1.38Zm1.44-.44-.43-1.27c-.1-.29-.16-.55-.23-.8h0c-.07.26-.14.53-.22.8l-.43,1.27Z" fill="#fff"/><path d="M279,58.9a5.89,5.89,0,0,1,1.09-.09,1.8,1.8,0,0,1,1.27.36,1.1,1.1,0,0,1,.35.84,1.16,1.16,0,0,1-.83,1.12v0a1.1,1.1,0,0,1,.65.89,7,7,0,0,0,.34,1.21h-.59a5.74,5.74,0,0,1-.29-1.05c-.13-.61-.37-.84-.88-.86h-.54v1.91H279Zm.57,2h.58c.61,0,1-.33,1-.84s-.41-.82-1-.82a2.36,2.36,0,0,0-.56.05Z" fill="#fff"/><path d="M282.54,58.9a8.14,8.14,0,0,1,1.21-.09,2.52,2.52,0,0,1,1.78.55,2,2,0,0,1,.62,1.58,2.33,2.33,0,0,1-.63,1.71,2.71,2.71,0,0,1-1.95.63,9.16,9.16,0,0,1-1-.05Zm.57,3.89a3.56,3.56,0,0,0,.58,0A1.69,1.69,0,0,0,285.56,61a1.57,1.57,0,0,0-1.78-1.7,3.22,3.22,0,0,0-.67.06Z" fill="#fff"/></g><path id="_Path_115" data-name="&lt;Path&gt;" d="M288,54.8H285c1,20.44-22.25,23.2-38.61,25.74v.59a1.46,1.46,0,0,0,1.45,1.46H288a1.45,1.45,0,0,0,1.45-1.46V56.26A1.45,1.45,0,0,0,288,54.8" fill="#f05b89"/><path id="_Path_116" data-name="&lt;Path&gt;" d="M285,54.8H247.88a1.45,1.45,0,0,0-1.45,1.45V80.54C262.78,78,286.05,75.24,285,54.8" fill="#f27a9d"/><g id="_Group_15" data-name="&lt;Group&gt;"><path d="M252.32,63.1a2.82,2.82,0,0,1-1.16.21A2.06,2.06,0,0,1,249,61.08a2.19,2.19,0,0,1,2.3-2.31,2.37,2.37,0,0,1,1,.2l-.14.46a2.07,2.07,0,0,0-.89-.18,1.64,1.64,0,0,0-1.72,1.82,1.6,1.6,0,0,0,1.69,1.77,2.28,2.28,0,0,0,.93-.18Z" fill="#fff"/><path d="M253,58.9a5.9,5.9,0,0,1,1.09-.09,1.8,1.8,0,0,1,1.27.36,1.09,1.09,0,0,1,.35.84,1.16,1.16,0,0,1-.83,1.12v0a1.1,1.1,0,0,1,.65.89,7,7,0,0,0,.34,1.21h-.59a5.74,5.74,0,0,1-.29-1.05c-.13-.61-.37-.84-.88-.86h-.54v1.91H253Zm.57,2h.58c.61,0,1-.33,1-.84s-.41-.82-1-.82a2.36,2.36,0,0,0-.56.05Z" fill="#fff"/><path d="M258.83,61.18h-1.71v1.59H259v.48h-2.48v-4.4h2.38v.48h-1.81v1.39h1.71Z" fill="#fff"/><path d="M259.77,58.9a8.14,8.14,0,0,1,1.21-.09,2.52,2.52,0,0,1,1.78.55,2,2,0,0,1,.62,1.58,2.33,2.33,0,0,1-.63,1.71,2.71,2.71,0,0,1-1.95.63,9.17,9.17,0,0,1-1-.05Zm.57,3.89a3.56,3.56,0,0,0,.58,0A1.69,1.69,0,0,0,262.78,61a1.57,1.57,0,0,0-1.78-1.7,3.22,3.22,0,0,0-.67.06Z" fill="#fff"/><path d="M264.69,58.84v4.4h-.57v-4.4Z" fill="#fff"/><path d="M266.52,59.33h-1.34v-.48h3.26v.48h-1.34v3.92h-.58Z" fill="#fff"/></g><g id="_Group_16" data-name="&lt;Group&gt;"><path d="M274.22,63.1a2.82,2.82,0,0,1-1.16.21,2.06,2.06,0,0,1-2.17-2.23,2.19,2.19,0,0,1,2.3-2.31,2.37,2.37,0,0,1,1,.2l-.14.46a2.07,2.07,0,0,0-.89-.18,1.64,1.64,0,0,0-1.72,1.82,1.6,1.6,0,0,0,1.69,1.77,2.28,2.28,0,0,0,.93-.18Z" fill="#fff"/></g><g id="_Group_17" data-name="&lt;Group&gt;"><path d="M275.74,61.86l-.46,1.38h-.59l1.5-4.4h.69l1.5,4.4h-.61l-.47-1.38Zm1.44-.44-.43-1.27c-.1-.29-.16-.55-.23-.8h0c-.07.26-.14.53-.22.8l-.43,1.27Z" fill="#fff"/><path d="M279,58.9a5.89,5.89,0,0,1,1.09-.09,1.8,1.8,0,0,1,1.27.36,1.1,1.1,0,0,1,.35.84,1.16,1.16,0,0,1-.83,1.12v0a1.1,1.1,0,0,1,.65.89,7,7,0,0,0,.34,1.21h-.59a5.74,5.74,0,0,1-.29-1.05c-.13-.61-.37-.84-.88-.86h-.54v1.91H279Zm.57,2h.58c.61,0,1-.33,1-.84s-.41-.82-1-.82a2.36,2.36,0,0,0-.56.05Z" fill="#fff"/><path d="M282.54,58.9a8.14,8.14,0,0,1,1.21-.09,2.52,2.52,0,0,1,1.78.55,2,2,0,0,1,.62,1.58,2.33,2.33,0,0,1-.63,1.71,2.71,2.71,0,0,1-1.95.63,9.16,9.16,0,0,1-1-.05Zm.57,3.89a3.56,3.56,0,0,0,.58,0A1.69,1.69,0,0,0,285.56,61a1.57,1.57,0,0,0-1.78-1.7,3.22,3.22,0,0,0-.67.06Z" fill="#fff"/></g><g id="_Group_18" data-name="&lt;Group&gt;"><path d="M250.71,77.8c0,.91-.34,1.41-.93,1.41s-.87-.49-.88-1.37.39-1.39.93-1.39S250.71,76.95,250.71,77.8Zm-1.45,0c0,.69.21,1.09.54,1.09s.55-.43.55-1.11-.17-1.09-.54-1.09S249.26,77.11,249.26,77.84Z" fill="#fff"/><path d="M252.81,77.8c0,.91-.34,1.41-.93,1.41s-.87-.49-.88-1.37.39-1.39.93-1.39S252.81,76.95,252.81,77.8Zm-1.45,0c0,.69.21,1.09.54,1.09s.55-.43.55-1.11-.17-1.09-.54-1.09S251.36,77.11,251.36,77.84Z" fill="#fff"/><path d="M254.92,77.8c0,.91-.34,1.41-.93,1.41s-.87-.49-.88-1.37.39-1.39.93-1.39S254.92,76.95,254.92,77.8Zm-1.45,0c0,.69.21,1.09.54,1.09s.55-.43.55-1.11-.17-1.09-.54-1.09S253.47,77.11,253.47,77.84Z" fill="#fff"/><path d="M257,77.8c0,.91-.34,1.41-.93,1.41s-.87-.49-.88-1.37.39-1.39.93-1.39S257,76.95,257,77.8Zm-1.45,0c0,.69.21,1.09.54,1.09s.55-.43.55-1.11-.17-1.09-.54-1.09S255.58,77.11,255.58,77.84Z" fill="#fff"/><path d="M260,77.8c0,.91-.34,1.41-.93,1.41s-.87-.49-.88-1.37.39-1.39.93-1.39S260,76.95,260,77.8Zm-1.45,0c0,.69.21,1.09.54,1.09s.55-.43.55-1.11-.17-1.09-.54-1.09S258.55,77.11,258.55,77.84Z" fill="#fff"/><path d="M262.11,77.8c0,.91-.34,1.41-.93,1.41s-.87-.49-.88-1.37.39-1.39.93-1.39S262.11,76.95,262.11,77.8Zm-1.45,0c0,.69.21,1.09.54,1.09s.55-.43.55-1.11-.17-1.09-.54-1.09S260.66,77.11,260.66,77.84Z" fill="#fff"/><path d="M264.22,77.8c0,.91-.34,1.41-.93,1.41s-.87-.49-.88-1.37.39-1.39.93-1.39S264.22,76.95,264.22,77.8Zm-1.45,0c0,.69.21,1.09.54,1.09s.55-.43.55-1.11-.17-1.09-.54-1.09S262.77,77.11,262.77,77.84Z" fill="#fff"/><path d="M266.32,77.8c0,.91-.34,1.41-.93,1.41s-.87-.49-.88-1.37.39-1.39.93-1.39S266.32,76.95,266.32,77.8Zm-1.45,0c0,.69.21,1.09.54,1.09s.55-.43.55-1.11-.17-1.09-.54-1.09S264.87,77.11,264.87,77.84Z" fill="#fff"/><path d="M269.3,77.8c0,.91-.34,1.41-.93,1.41s-.87-.49-.88-1.37.39-1.39.93-1.39S269.3,76.95,269.3,77.8Zm-1.45,0c0,.69.21,1.09.54,1.09s.55-.43.55-1.11-.17-1.09-.54-1.09S267.85,77.11,267.85,77.84Z" fill="#fff"/><path d="M271.41,77.8c0,.91-.34,1.41-.93,1.41s-.87-.49-.88-1.37.39-1.39.93-1.39S271.41,76.95,271.41,77.8Zm-1.45,0c0,.69.21,1.09.54,1.09s.55-.43.55-1.11-.17-1.09-.54-1.09S270,77.11,270,77.84Z" fill="#fff"/><path d="M273.51,77.8c0,.91-.34,1.41-.93,1.41s-.87-.49-.88-1.37.39-1.39.93-1.39S273.51,76.95,273.51,77.8Zm-1.45,0c0,.69.21,1.09.54,1.09s.55-.43.55-1.11-.17-1.09-.54-1.09S272.06,77.11,272.06,77.84Z" fill="#fff"/><path d="M275.62,77.8c0,.91-.34,1.41-.93,1.41s-.87-.49-.88-1.37.39-1.39.93-1.39S275.62,76.95,275.62,77.8Zm-1.45,0c0,.69.21,1.09.54,1.09s.55-.43.55-1.11-.17-1.09-.54-1.09S274.17,77.11,274.17,77.84Z" fill="#fff"/><path d="M278.59,77.8c0,.91-.34,1.41-.93,1.41s-.87-.49-.88-1.37.39-1.39.93-1.39S278.59,76.95,278.59,77.8Zm-1.45,0c0,.69.21,1.09.54,1.09s.55-.43.55-1.11-.17-1.09-.54-1.09S277.15,77.11,277.15,77.84Z" fill="#fff"/><path d="M280.7,77.8c0,.91-.34,1.41-.93,1.41s-.87-.49-.88-1.37.39-1.39.93-1.39S280.7,76.95,280.7,77.8Zm-1.45,0c0,.69.21,1.09.54,1.09s.55-.43.55-1.11-.17-1.09-.54-1.09S279.25,77.11,279.25,77.84Z" fill="#fff"/><path d="M282.81,77.8c0,.91-.34,1.41-.93,1.41s-.87-.49-.88-1.37.39-1.39.93-1.39S282.81,76.95,282.81,77.8Zm-1.45,0c0,.69.21,1.09.54,1.09s.55-.43.55-1.11-.17-1.09-.54-1.09S281.36,77.11,281.36,77.84Z" fill="#fff"/><path d="M284.91,77.8c0,.91-.34,1.41-.93,1.41s-.87-.49-.88-1.37.39-1.39.93-1.39S284.91,76.95,284.91,77.8Zm-1.45,0c0,.69.21,1.09.54,1.09s.55-.43.55-1.11-.17-1.09-.54-1.09S283.46,77.11,283.46,77.84Z" fill="#fff"/></g><path id="_Path_117" data-name="&lt;Path&gt;" d="M285,73.31h-6.74a1.88,1.88,0,0,1-1.88-1.88v-3a1.88,1.88,0,0,1,1.88-1.88H285a1.88,1.88,0,0,1,1.88,1.88v3A1.88,1.88,0,0,1,285,73.31" fill="#fff"/></g><g id="_Group_19" data-name="&lt;Group&gt;"><path id="_Path_118" data-name="&lt;Path&gt;" d="M368.54,99.06,355.4,49.6a2.83,2.83,0,0,1,2-3.46l33.94-9a2.83,2.83,0,0,1,3.46,2L408,88.59a2.83,2.83,0,0,1-2,3.46l-33.94,9a2.83,2.83,0,0,1-3.46-2" fill="#004877"/><path id="_Path_119" data-name="&lt;Path&gt;" d="M387.63,38.82,356.86,47a1.38,1.38,0,0,0-1,1.69L369.4,99.62a1.38,1.38,0,0,0,1.69,1l5.7-1.52c17.11-14,20-40.25,10.83-60.26" fill="#eff9fe"/><path id="_Path_120" data-name="&lt;Path&gt;" d="M392.26,37.6l-4.62,1.23c9.16,20,6.28,46.29-10.83,60.26l29.7-7.89a1.38,1.38,0,0,0,1-1.69L393.95,38.58a1.38,1.38,0,0,0-1.69-1" fill="#e1f4fd"/><path id="_Path_121" data-name="&lt;Path&gt;" d="M393.88,56.39l-30,8a.52.52,0,0,1-.27-1l30-8a.52.52,0,0,1,.27,1" fill="#004877"/><path id="_Path_122" data-name="&lt;Path&gt;" d="M395.26,61.6l-30,8a.52.52,0,0,1-.27-1l30-8a.52.52,0,0,1,.27,1" fill="#004877"/><path id="_Path_123" data-name="&lt;Path&gt;" d="M390.19,42.48l-30,8a.52.52,0,0,1-.27-1l30-8a.52.52,0,0,1,.27,1" fill="#004877"/><path id="_Path_124" data-name="&lt;Path&gt;" d="M391.57,47.68l-30,8a.52.52,0,0,1-.27-1l30-8a.52.52,0,0,1,.27,1" fill="#004877"/><path id="_Path_125" data-name="&lt;Path&gt;" d="M392.74,52l-30,8a.52.52,0,0,1-.27-1l30-8a.52.52,0,0,1,.27,1" fill="#004877"/><path id="_Path_126" data-name="&lt;Path&gt;" d="M396.64,66.8l-30,8a.52.52,0,0,1-.27-1l30-8a.52.52,0,0,1,.27,1" fill="#004877"/><path id="_Path_127" data-name="&lt;Path&gt;" d="M398,72l-30,8a.52.52,0,0,1-.27-1l30-8a.52.52,0,0,1,.27,1" fill="#004877"/><path id="_Path_128" data-name="&lt;Path&gt;" d="M399.41,77.22l-30,8a.52.52,0,0,1-.27-1l30-8a.52.52,0,0,1,.27,1" fill="#004877"/><path id="_Path_129" data-name="&lt;Path&gt;" d="M400.8,82.43l-30,8a.52.52,0,0,1-.27-1l30-8a.52.52,0,0,1,.27,1" fill="#004877"/><path id="_Path_130" data-name="&lt;Path&gt;" d="M402.18,87.63l-30,8a.52.52,0,0,1-.27-1l30-8a.52.52,0,0,1,.27,1" fill="#004877"/><path id="_Path_131" data-name="&lt;Path&gt;" d="M369.17,95.7l-5.61-50.87a2.83,2.83,0,0,1,2.5-3.13L401,37.86a2.83,2.83,0,0,1,3.13,2.5l5.61,50.87a2.83,2.83,0,0,1-2.5,3.13l-34.9,3.85a2.83,2.83,0,0,1-3.13-2.5" fill="#004877"/><path id="_Path_132" data-name="&lt;Path&gt;" d="M397,39l-31.65,3.49A1.38,1.38,0,0,0,364.16,44l5.77,52.37a1.38,1.38,0,0,0,1.53,1.22l5.87-.65c19-11.26,25.77-36.81,19.71-58" fill="#eff9fe"/><path id="_Path_133" data-name="&lt;Path&gt;" d="M401.8,38.46,397,39c6.06,21.15-.7,46.71-19.71,58l30.54-3.37a1.38,1.38,0,0,0,1.22-1.53l-5.77-52.37a1.38,1.38,0,0,0-1.53-1.22" fill="#e1f4fd"/><rect id="_Path_134" data-name="&lt;Path&gt;" x="368.67" y="44.84" width="9.2" height="11.2" transform="translate(-3.28 41.22) rotate(-6.29)" fill="#004877"/><path id="_Path_135" data-name="&lt;Path&gt;" d="M400.59,57.28l-30.82,3.4a.52.52,0,0,1-.11-1l30.82-3.4a.52.52,0,1,1,.11,1" fill="#004877"/><path id="_Path_136" data-name="&lt;Path&gt;" d="M401.18,62.64,370.36,66a.52.52,0,0,1-.11-1l30.82-3.4a.52.52,0,0,1,.11,1" fill="#004877"/><path id="_Path_137" data-name="&lt;Path&gt;" d="M399.57,48.06l-18.36,2a.52.52,0,0,1-.11-1l18.36-2a.52.52,0,0,1,.11,1" fill="#004877"/><path id="_Path_138" data-name="&lt;Path&gt;" d="M401.77,68,371,71.39a.52.52,0,0,1-.11-1L401.66,67a.52.52,0,0,1,.11,1" fill="#004877"/><path id="_Path_139" data-name="&lt;Path&gt;" d="M402.36,73.35l-30.82,3.4a.52.52,0,0,1-.11-1l30.82-3.4a.52.52,0,0,1,.11,1" fill="#004877"/><path id="_Path_140" data-name="&lt;Path&gt;" d="M403,78.71l-30.82,3.4a.52.52,0,0,1-.11-1l30.82-3.4a.52.52,0,0,1,.11,1" fill="#004877"/><path id="_Path_141" data-name="&lt;Path&gt;" d="M403.54,84.06l-30.82,3.4a.52.52,0,0,1-.11-1L403.43,83a.52.52,0,1,1,.11,1" fill="#004877"/><path id="_Path_142" data-name="&lt;Path&gt;" d="M404.13,89.42l-30.82,3.4a.52.52,0,0,1-.11-1L404,88.39a.52.52,0,0,1,.11,1" fill="#004877"/><path id="_Path_143" data-name="&lt;Path&gt;" d="M375.19,93.11l6.43-50.77a2.83,2.83,0,0,1,3.17-2.45l34.84,4.41a2.83,2.83,0,0,1,2.45,3.17l-6.43,50.77a2.83,2.83,0,0,1-3.17,2.45l-34.84-4.41a2.83,2.83,0,0,1-2.45-3.17" fill="#00401c"/><path id="_Path_144" data-name="&lt;Path&gt;" d="M410.88,43.88l-26.93-3.41a1.38,1.38,0,0,0-1.55,1.2l-6.62,52.27a1.38,1.38,0,0,0,1.2,1.55l14.68,1.86c14.3-12.51,21-34.56,19.22-53.46" fill="#007b38"/><path id="_Path_145" data-name="&lt;Path&gt;" d="M420.28,45.08l-9.41-1.19c1.78,18.9-4.92,41-19.22,53.46l21.66,2.74a1.38,1.38,0,0,0,1.55-1.2l6.62-52.27a1.38,1.38,0,0,0-1.2-1.55" fill="#005129"/><path id="_Compound_Path_5" data-name="&lt;Compound Path&gt;" d="M402.46,47.42a15.92,15.92,0,1,0,13.79,17.79,15.93,15.93,0,0,0-13.79-17.79m11.81,16.49-4.83-.61c.44-4.81-.35-9.12-2-12a13.86,13.86,0,0,1,6.83,12.65M401.14,49.53,399.56,62l-5.75-.73c1-6.26,4.16-11.19,7.34-11.79M399.3,64.11l-1.58,12.52c-2.93-1.37-4.72-6.93-4.17-13.25Zm.47,12.78,1.59-12.52,5.75.73c-1,6.26-4.16,11.19-7.34,11.79m1.85-14.58,1.59-12.52c2.93,1.37,4.72,6.93,4.16,13.25ZM396.67,49.9c-2.33,2.42-4.16,6.39-4.93,11.16l-4.83-.61a13.86,13.86,0,0,1,9.76-10.55m-10,12.61,4.83.61c-.44,4.81.34,9.12,2,12a13.86,13.86,0,0,1-6.82-12.65m17.59,14c2.33-2.42,4.16-6.4,4.93-11.16L414,66a13.86,13.86,0,0,1-9.76,10.55" fill="#c0e2ca"/><g id="_Group_20" data-name="&lt;Group&gt;"><path d="M383,80.31a6.88,6.88,0,0,1,1.15.05,1.91,1.91,0,0,1,1.24.55,1.25,1.25,0,0,1,.28,1,1.36,1.36,0,0,1-.48.94,1.92,1.92,0,0,1-1.47.33,2.11,2.11,0,0,1-.47-.1L383,84.93l-.59-.08Zm.31,2.29a2,2,0,0,0,.49.11c.72.09,1.2-.2,1.28-.84s-.32-1-1-1a2.5,2.5,0,0,0-.57,0Z" fill="#c0e2ca"/><path d="M387,84l-.66,1.39-.61-.08,2.15-4.4.72.09,1,4.8-.64-.08-.31-1.51Zm1.57-.27-.28-1.38c-.06-.31-.1-.59-.13-.87h0c-.1.26-.21.54-.34.8l-.62,1.27Z" fill="#c0e2ca"/><path d="M390.23,85.11a2.12,2.12,0,0,0,1,.44c.61.08,1-.2,1.06-.66s-.16-.71-.75-1-1.13-.81-1-1.46a1.33,1.33,0,0,1,1.65-1.06,2.11,2.11,0,0,1,1,.35l-.23.46a1.84,1.84,0,0,0-.84-.33c-.63-.08-.92.27-1,.58s.2.68.8,1,1.09.82,1,1.5-.69,1.26-1.78,1.12a2.4,2.4,0,0,1-1.14-.44Z" fill="#c0e2ca"/><path d="M393.6,85.54a2.11,2.11,0,0,0,1,.44c.61.08,1-.2,1.06-.66s-.16-.71-.75-1-1.13-.81-1-1.46a1.34,1.34,0,0,1,1.65-1.06,2.12,2.12,0,0,1,1,.35l-.23.46a1.84,1.84,0,0,0-.85-.33c-.63-.08-.92.27-1,.58s.2.68.8,1,1.09.82,1,1.5-.69,1.26-1.78,1.12a2.4,2.4,0,0,1-1.14-.44Z" fill="#c0e2ca"/><path d="M397.53,82.15a6.94,6.94,0,0,1,1.15.06,1.91,1.91,0,0,1,1.24.55,1.25,1.25,0,0,1,.28,1,1.37,1.37,0,0,1-.48.94,1.92,1.92,0,0,1-1.47.33,2.06,2.06,0,0,1-.47-.1l-.23,1.84-.59-.08Zm.31,2.29a2,2,0,0,0,.49.11c.72.09,1.2-.2,1.28-.84s-.32-1-1-1a2.49,2.49,0,0,0-.56,0Z" fill="#c0e2ca"/><path d="M404.81,85.31a2.17,2.17,0,0,1-2.45,2.15,2.13,2.13,0,0,1-1.77-2.6A2.2,2.2,0,0,1,403,82.72,2.11,2.11,0,0,1,404.81,85.31Zm-3.58-.38c-.12,1,.3,1.93,1.23,2s1.58-.68,1.72-1.72-.24-1.93-1.23-2.06S401.36,83.92,401.23,84.93Z" fill="#c0e2ca"/><path d="M405.85,83.21a6.22,6.22,0,0,1,1.15,0,1.89,1.89,0,0,1,1.28.54,1.15,1.15,0,0,1,.25.92,1.22,1.22,0,0,1-1,1.06v0a1.16,1.16,0,0,1,.56,1,7.35,7.35,0,0,0,.19,1.31l-.61-.08a5.91,5.91,0,0,1-.17-1.14c-.06-.65-.27-.92-.81-1l-.56-.07-.25,2-.59-.08Zm.33,2.17.61.08a.91.91,0,0,0,1.15-.74c.08-.59-.32-.91-.95-1a2.43,2.43,0,0,0-.59,0Z" fill="#c0e2ca"/><path d="M410.34,84.23l-1.4-.18.06-.51,3.41.43-.06.51-1.41-.18-.52,4.1-.6-.08Z" fill="#c0e2ca"/></g><path id="_Path_146" data-name="&lt;Path&gt;" d="M413.91,103a5.24,5.24,0,0,1-5.23-4.91c-.06-2.14,0-4.32,0-6.43,0-.83,0-1.66,0-2.5V69.48A1.36,1.36,0,0,0,407.24,68a1.22,1.22,0,1,1,.07-2.44h13.35a1.36,1.36,0,0,1,1.22.68,1.09,1.09,0,0,1-.08,1.14,1.55,1.55,0,0,1-1.06.59,1.51,1.51,0,0,0-1.58,1.68v7.64c0,6.61,0,13.45,0,20.18a5.4,5.4,0,0,1-4.34,5.5,5,5,0,0,1-.92.08" fill="#dcf2fd"/><path id="_Compound_Path_6" data-name="&lt;Compound Path&gt;" d="M410.38,65.87h10.28c.78,0,1.25.69.85,1.28a1.2,1.2,0,0,1-.8.44,1.85,1.85,0,0,0-1.9,2c0,9.27,0,18.55,0,27.82a5.06,5.06,0,0,1-4.06,5.16,4.73,4.73,0,0,1-.86.08A4.87,4.87,0,0,1,409,98.1c-.08-3,0-5.94,0-8.91q0-9.86,0-19.71a1.7,1.7,0,0,0-1.74-1.86.89.89,0,0,1-.91-.9.87.87,0,0,1,1-.85h3.07m0-.69h-3.07a1.57,1.57,0,1,0-.1,3.13,1,1,0,0,1,1.1,1.17q0,5,0,10,0,4.85,0,9.7c0,.83,0,1.65,0,2.48,0,2.11,0,4.3,0,6.45a5.52,5.52,0,0,0,5.57,5.25,5.37,5.37,0,0,0,1-.09,5.74,5.74,0,0,0,4.63-5.84c0-6.76,0-13.63,0-20.27q0-3.77,0-7.54c0-.86.38-1.26,1.27-1.33a1.88,1.88,0,0,0,1.31-.74,1.43,1.43,0,0,0,.1-1.49,1.7,1.7,0,0,0-1.52-.87H410.38Z" fill="#054372"/><path id="_Path_147" data-name="&lt;Path&gt;" d="M410.06,80.45h2.87c1,0,1.51-.26,1.51-.7s-.54-.69-1.51-.7h-2.86V75h7.65c0,.17,0,.33,0,.49,0,7.64,0,14.11,0,21.75-.06,3.57-2.49,4.72-4.85,4.3A3.66,3.66,0,0,1,410,98.09c-.15-2.07.11-3.14.11-5.28h2.16c.36,0,.73,0,1.09,0,.69,0,1.12-.32,1.11-.69s-.44-.66-1.13-.68c-.86,0-1.72,0-2.57,0-.59,0-.76-.11-.74-.45,0-.73,0-1.46,0-2.28h2.44c.31,0,.63,0,.93,0,.65-.06,1-.29,1.06-.67s-.41-.67-1.1-.69c-1.06,0-2.12,0-3.26,0V84.57c1,0,2,0,3,0,.77,0,1.25-.25,1.32-.62s-.45-.76-1.3-.77c-1,0-2,0-3.07,0Z" fill="#be1e2d"/><path id="_Path_148" data-name="&lt;Path&gt;" d="M416.61,89.65a.35.35,0,0,1-.35-.35V70.37a.35.35,0,0,1,.69,0V89.3a.35.35,0,0,1-.35.35" fill="#fff"/><path id="_Path_149" data-name="&lt;Path&gt;" d="M411.63,73.2a.52.52,0,0,1-.52-.52V68a.52.52,0,0,1,1,0v4.63a.52.52,0,0,1-.52.52" fill="#fff"/><path id="_Path_150" data-name="&lt;Path&gt;" d="M411.63,95.59a.52.52,0,0,1-.52-.52V74.31a.52.52,0,0,1,1,0V95.07a.52.52,0,0,1-.52.52" fill="#fff"/></g><g id="_Group_21" data-name="&lt;Group&gt;"><path id="_Path_151" data-name="&lt;Path&gt;" d="M256.16,324.17H255a.59.59,0,0,1-.59-.62l.23-6.06v-.2c0-.3.38-.68.38-.68h1.18a1.88,1.88,0,0,1,.33.69s0,.12,0,.12l.24,6.13a.59.59,0,0,1-.59.62" fill="#ebc900"/><path id="_Path_152" data-name="&lt;Path&gt;" d="M260,308.45v12c0,2.26,6.35,4.67,14.19,4.67s14.19-2.42,14.19-4.67v-12Z" fill="#003255"/><polygon id="_Path_153" data-name="&lt;Path&gt;" points="244.91 309.06 276.55 316.25 303.48 309.06 303.48 308.47 276.55 315.66 244.91 308.47 244.91 309.06" fill="#0071a6"/><polygon id="_Path_154" data-name="&lt;Path&gt;" points="303.48 308.47 276.55 315.66 244.91 308.47 271.84 300.69 303.48 308.47" fill="#003255"/><path id="_Path_155" data-name="&lt;Path&gt;" d="M278.57,307.86c0,.75-2,1.36-4.37,1.36s-4.37-.61-4.37-1.36,2-1.36,4.37-1.36,4.37.61,4.37,1.36" fill="#0071a6"/><polygon id="_Path_156" data-name="&lt;Path&gt;" points="270.29 308.47 256.17 311.03 256.17 316.61 254.99 316.61 254.99 310.76 269.82 307.86 270.29 308.47" fill="#ebc900"/><path id="_Path_157" data-name="&lt;Path&gt;" d="M254.72,317.74a1.81,1.81,0,0,0,1.64-.83,3.51,3.51,0,0,0-.19-.3H255s-.38.39-.38.68v.44h.13" fill="#f6d200"/><path id="_Path_158" data-name="&lt;Path&gt;" d="M256.35,315.86c0-.06-.05-.11-.12-.16s.12-.1.12-.16-.36-.32-.8-.32-.8.14-.8.32.05.11.12.16-.12.1-.12.16.05.11.12.16-.12.1-.12.16.05.11.12.16-.12.1-.12.16.36.32.8.32.8-.14.8-.32-.05-.11-.12-.16.12-.1.12-.16-.05-.11-.12-.16.12-.1.12-.16" fill="#ebc900"/><path id="_Path_159" data-name="&lt;Path&gt;" d="M254.86,315.68a1.29,1.29,0,0,0,.7.16c.44,0,.8-.14.8-.32h0a2.94,2.94,0,0,1-1.49.16" fill="#d4b005"/><path id="_Path_160" data-name="&lt;Path&gt;" d="M254.86,316a1.29,1.29,0,0,0,.7.16c.44,0,.8-.14.8-.32h0a2.94,2.94,0,0,1-1.49.16" fill="#d4b005"/><path id="_Path_161" data-name="&lt;Path&gt;" d="M254.86,316.32a1.29,1.29,0,0,0,.7.16c.44,0,.8-.14.8-.32h0a2.94,2.94,0,0,1-1.49.16" fill="#d4b005"/><path id="_Path_162" data-name="&lt;Path&gt;" d="M254.86,316.64a1.29,1.29,0,0,0,.7.16c.44,0,.8-.14.8-.32h0a2.94,2.94,0,0,1-1.49.16" fill="#d4b005"/><path id="_Path_163" data-name="&lt;Path&gt;" d="M255.72,315.24a1.77,1.77,0,0,1-.73,0v.1a1.59,1.59,0,0,0,1.18,0v-.23a2,2,0,0,1-.45.14" fill="#d4b005"/><path id="_Path_164" data-name="&lt;Path&gt;" d="M255.56,315.84a1.37,1.37,0,0,1-.67-.15.32.32,0,0,0-.11.1,1.68,1.68,0,0,0,1.18,0,1.81,1.81,0,0,1-.4,0" fill="#f6d200"/><path id="_Path_165" data-name="&lt;Path&gt;" d="M255.56,316.16a1.37,1.37,0,0,1-.67-.15.32.32,0,0,0-.11.1,1.68,1.68,0,0,0,1.18,0,1.81,1.81,0,0,1-.4,0" fill="#f6d200"/><path id="_Path_166" data-name="&lt;Path&gt;" d="M255.56,316.48a1.37,1.37,0,0,1-.67-.15.32.32,0,0,0-.11.1,1.68,1.68,0,0,0,1.18,0,1.81,1.81,0,0,1-.4,0" fill="#f6d200"/><path id="_Path_167" data-name="&lt;Path&gt;" d="M289.23,330.74a1.41,1.41,0,0,0,.22-.46l9.2-34.4.12,0-9.2,34.4a.27.27,0,0,1,0,.09.82.82,0,0,1-.31.35" fill="#005b7f"/><path id="_Path_168" data-name="&lt;Path&gt;" d="M298.66,295.88a.53.53,0,0,1-.21.28l.08-.31h0Z" fill="#005b7f"/><path id="_Path_169" data-name="&lt;Path&gt;" d="M298.4,296.34l0-.18a.52.52,0,0,0,.21-.28l-9.2,34.4a.62.62,0,0,1-.31.36,1.15,1.15,0,0,0,.19-.39Z" fill="#005b7f"/><path id="_Path_170" data-name="&lt;Path&gt;" d="M289.46,330.27a1.42,1.42,0,0,1-.22.46,1.49,1.49,0,0,1-.32.15,1.14,1.14,0,0,0,.23-.25.62.62,0,0,0,.31-.36" fill="#005b7f"/><path id="_Path_171" data-name="&lt;Path&gt;" d="M288.92,330.89a3.83,3.83,0,0,1-3.31.38l.11-.41a5.81,5.81,0,0,0,3.2,0" fill="#fff"/><path id="_Path_172" data-name="&lt;Path&gt;" d="M298.45,296.16a2.14,2.14,0,0,1-1.13.3l0-.13c.67,0,1.11-.22,1.18-.48Z" fill="#005b7f"/><path id="_Path_173" data-name="&lt;Path&gt;" d="M297.32,296.46v0l-.12,0h.13" fill="#231f20"/><path id="_Path_174" data-name="&lt;Path&gt;" d="M297.35,296.33l0,.13h-.13l0-.13h.13" fill="#005b7f"/><path id="_Path_175" data-name="&lt;Path&gt;" d="M297.36,295.82a.41.41,0,0,0,.2-.24l-.2.74h-.13Z" fill="#005b7f"/><path id="_Path_176" data-name="&lt;Path&gt;" d="M297.55,295.58a.42.42,0,0,1-.2.24l.07-.27Z" fill="#005b7f"/><path id="_Path_177" data-name="&lt;Path&gt;" d="M297.22,296.33l0,.13h0l-.12,0,0-.09h.13" fill="#005b7f"/><path id="_Path_178" data-name="&lt;Path&gt;" d="M297.36,295.82l-.14.51h-.13l.12-.45a.52.52,0,0,0,.15-.07" fill="#005b7f"/><path id="_Path_179" data-name="&lt;Path&gt;" d="M297.43,295.55l-.07.27a.52.52,0,0,1-.15.07l.1-.38Z" fill="#005b7f"/><path id="_Path_180" data-name="&lt;Path&gt;" d="M297.31,295.52c0,.16-.46.26-1.15.23l.27-1c.66.33.92.63.88.77" fill="#a5c3d2"/><path id="_Path_181" data-name="&lt;Path&gt;" d="M288.92,330.89a5.81,5.81,0,0,1-3.2,0l0-.12a5,5,0,0,0,3.4-.09,1.13,1.13,0,0,1-.23.25" fill="#fff"/><path id="_Path_182" data-name="&lt;Path&gt;" d="M289.14,330.64a5,5,0,0,1-3.4.09l0-.12c1.8.46,3.41.18,3.55-.37a1.14,1.14,0,0,1-.19.39" fill="#fff"/><path id="_Path_183" data-name="&lt;Path&gt;" d="M285.78,330.61,295,296.3a5.7,5.7,0,0,0,3.45,0l-9.07,33.9c-.15.54-1.75.82-3.55.37" fill="#fff"/><path id="_Path_184" data-name="&lt;Path&gt;" d="M289.23,330.74c-.61.83-2.14,1.06-3.78.62l.14-.53.12,0-.11.41a3.83,3.83,0,0,0,3.31-.38,1.49,1.49,0,0,0,.32-.15" fill="#005b7f"/><path id="_Path_185" data-name="&lt;Path&gt;" d="M285.62,330.7l.12,0,0,.12-.12,0Z" fill="#005b7f"/><path id="_Path_186" data-name="&lt;Path&gt;" d="M285.66,330.58l.12,0,0,.12-.12,0Z" fill="#005b7f"/><path id="_Path_187" data-name="&lt;Path&gt;" d="M285.66,330.58l9.21-34.43a8.51,8.51,0,0,0,2.31.31h0l.12,0v0a2.15,2.15,0,0,0,1.13-.3l0,.18a5.71,5.71,0,0,1-3.45,0l-9.18,34.3-.12,0" fill="#005b7f"/><path id="_Path_188" data-name="&lt;Path&gt;" d="M289.55,330.39c-.38,1.17-2.1,1.63-4.13,1.09l-.12,0,.18-.66.12,0-.14.53c1.64.44,3.17.21,3.78-.62a.82.82,0,0,0,.31-.35" fill="#005b7f"/><path id="_Path_189" data-name="&lt;Path&gt;" d="M294.87,296.15l-9.21,34.43-.12,0L294.78,296l.12,0a8.57,8.57,0,0,0,2.19.31l0,.09.12,0a8.51,8.51,0,0,1-2.31-.31" fill="#005b7f"/><path id="_Path_190" data-name="&lt;Path&gt;" d="M285.47,330.79l0-.12.12,0,0,.12-.12,0" fill="#005b7f"/><path id="_Path_191" data-name="&lt;Path&gt;" d="M285.5,330.66l0-.12.12,0,0,.12-.12,0" fill="#005b7f"/><path id="_Path_192" data-name="&lt;Path&gt;" d="M285.54,330.54c-1.79-.51-3-1.55-2.9-2.09l.9-3.36.26-.3.06-.06h0l.09-.1.12-.14.12-.15.13-.16.38-.48.12-.15.48-.65.11-.16.56-.85.25-.4.34-.58.16-.28a31.34,31.34,0,0,0,1.51-3.12v0l0-.08.33-.83c.36-.93.68-1.87,1-2.83v0l.13-.44v0l.14-.45v0l.13-.46v0c.09-.32.18-.63.26-1,.65-2.42,1.18-4.89,1.74-7.35.35-1.54.71-3.07,1.12-4.58.1-.39.21-.78.32-1.17h0c.11-.39.23-.77.35-1.16h0q.18-.57.37-1.14h0l.09-.25.07,0a5.76,5.76,0,0,0,2.88.21l-.12.45a8.57,8.57,0,0,1-2.19-.31l-.12,0Z" fill="#ccdde7"/><path id="_Path_193" data-name="&lt;Path&gt;" d="M292,304c-.56,2.46-1.09,4.93-1.74,7.35-.08.32-.17.64-.26,1v0l-.13.46v0l-.12.39c.18-.62.36-1.25.53-1.88.64-2.41,1.18-4.88,1.74-7.32" fill="#a5c3d2"/><path id="_Path_194" data-name="&lt;Path&gt;" d="M289.87,312.79l-.14.45a.11.11,0,0,1,0-.05l.12-.39" fill="#a5c3d2"/><path id="_Path_195" data-name="&lt;Path&gt;" d="M289.73,313.23v0l-.13.44v0c-.3,1-.62,1.9-1,2.83l-.33.83,0,.08v0a31.34,31.34,0,0,1-1.51,3.12,37.14,37.14,0,0,0,3-7.39" fill="#a5c3d2"/><path id="_Path_196" data-name="&lt;Path&gt;" d="M297.21,295.89a5.77,5.77,0,0,1-2.88-.21l-.07,0c0-.08.05-.16.09-.24h.05a9.27,9.27,0,0,0,1.5.28l.36-1.34.14.06c.48.23,1.28.68,1.15,1.13l-.12,0-.12,0c0-.14-.22-.44-.88-.77l-.27,1c.69,0,1.11-.07,1.15-.23Z" fill="#005b7f"/><path id="_Path_197" data-name="&lt;Path&gt;" d="M294.34,295.43l-.09.24a2.2,2.2,0,0,1,.09-.24" fill="#231f20"/><path id="_Path_198" data-name="&lt;Path&gt;" d="M288.6,316.58l-.33.83.33-.83" fill="#a5c3d2"/><path id="_Path_199" data-name="&lt;Path&gt;" d="M286.56,320.9l-.34.58-.25.4-.56.85,0,0c.43-.61.82-1.23,1.19-1.87" fill="#a5c3d2"/><path id="_Path_200" data-name="&lt;Path&gt;" d="M286,321.89l.25-.4-.25.4" fill="#a5c3d2"/><path id="_Path_201" data-name="&lt;Path&gt;" d="M285.41,322.73l-.11.16.07-.11,0,0" fill="#a5c3d2"/><path id="_Path_202" data-name="&lt;Path&gt;" d="M285.37,322.78l-.07.11-.48.65,0,0c.19-.26.39-.52.57-.79" fill="#a5c3d2"/><path id="_Path_203" data-name="&lt;Path&gt;" d="M284.82,323.54l-.12.15.1-.13,0,0" fill="#a5c3d2"/><path id="_Path_204" data-name="&lt;Path&gt;" d="M284.32,324.18l-.13.16h0l.13-.16" fill="#a5c3d2"/><path id="_Path_205" data-name="&lt;Path&gt;" d="M284.19,324.34l-.12.15.12-.15Z" fill="#a5c3d2"/><path id="_Path_206" data-name="&lt;Path&gt;" d="M284.19,324.33l-.12.15-.12.14-.08.08.31-.37" fill="#a5c3d2"/><path id="_Path_207" data-name="&lt;Path&gt;" d="M283.87,324.71l.08-.08-.09.1h0" fill="#a5c3d2"/><path id="_Path_208" data-name="&lt;Path&gt;" d="M283.86,324.72h0l-.06.06.06-.07" fill="#a5c3d2"/><path id="_Path_209" data-name="&lt;Path&gt;" d="M291.72,294c.18-.67,1.87-.78,3.79-.27s3.33,1.46,3.15,2.13l-.12,0c.14-.51-1.09-1.44-3.06-2s-3.5-.33-3.64.18Z" fill="#005b7f"/><path id="_Path_210" data-name="&lt;Path&gt;" d="M294.34,295.43c-1.66-.45-2.57-1.1-2.5-1.37.14-.51,1.66-.71,3.64-.18s3.2,1.46,3.06,2h0c-.07.26-.51.44-1.18.48l.2-.74c.12-.45-.67-.9-1.15-1.13l-.14-.06-.36,1.33a9.19,9.19,0,0,1-1.5-.28h-.05" fill="#ccdde7"/><path id="_Path_211" data-name="&lt;Path&gt;" d="M283.54,325.08l.26-.29-.26.3Z" fill="#a5c3d2"/><path id="_Path_212" data-name="&lt;Path&gt;" d="M283.87,324.71h0l-.06.07-.26.29,8.2-30.64a5.74,5.74,0,0,0,2.52,1.23c0,.08-.06.16-.09.25h0q-.19.57-.37,1.14h0c-.12.39-.24.77-.35,1.16h0c-.11.39-.22.78-.32,1.17-.4,1.51-.76,3-1.11,4.58-.56,2.45-1.09,4.91-1.74,7.32-.17.63-.35,1.26-.53,1.88a.11.11,0,0,0,0,.05,37.14,37.14,0,0,1-3,7.39l-.16.28c-.37.64-.76,1.26-1.19,1.87l-.57.79-.1.13-.38.48-.13.16-.31.37" fill="#fff"/><path id="_Path_213" data-name="&lt;Path&gt;" d="M294.26,295.66a5.74,5.74,0,0,1-2.52-1.23l.1-.38c-.07.27.84.92,2.5,1.37a2.09,2.09,0,0,0-.09.24" fill="#005b7f"/><path id="_Path_214" data-name="&lt;Path&gt;" d="M291.84,294.05l-.1.38a.68.68,0,0,1-.09-.14l.07-.27Z" fill="#005b7f"/><path id="_Path_215" data-name="&lt;Path&gt;" d="M282.64,328.45c-.15.54,1.11,1.59,2.9,2.09l0,.12c-1.85-.52-3.16-1.6-3-2.25l.84-3.13h0l.17-.18h0Z" fill="#005b7f"/><path id="_Path_216" data-name="&lt;Path&gt;" d="M283.54,325.08h0l-.17.18,8.29-31a.68.68,0,0,0,.09.14Z" fill="#005b7f"/><path id="_Path_217" data-name="&lt;Path&gt;" d="M295.51,293.75c-1.92-.51-3.61-.39-3.79.27l-.12,0c.22-.83,2.18-.83,3.95-.36s3.46,1.46,3.24,2.28l-.12,0c.18-.67-1.24-1.62-3.15-2.13" fill="#005b7f"/><path id="_Path_218" data-name="&lt;Path&gt;" d="M291.6,294l.12,0-.07.27a.4.4,0,0,1,0-.31" fill="#005b7f"/><path id="_Path_219" data-name="&lt;Path&gt;" d="M285.47,330.79c-1.86-.52-3.28-1.63-3.08-2.4l.78-2.9.18-.19-.84,3.13c-.17.65,1.13,1.72,3,2.25Z" fill="#005b7f"/><path id="_Path_220" data-name="&lt;Path&gt;" d="M283.17,325.48,291.6,294a.41.41,0,0,0,0,.31l-8.29,31h0l-.18.19" fill="#005b7f"/><path id="_Path_221" data-name="&lt;Path&gt;" d="M294.22,313.29c-.18.69-2,.8-4,.25s-3.54-1.54-3.35-2.23l.56-2.1c-.18.69,1.32,1.68,3.35,2.23s3.83.43,4-.25Z" fill="#ed1c24"/><path id="_Path_222" data-name="&lt;Path&gt;" d="M294.22,313.29c-.18.69-2,.8-4,.25s-3.54-1.54-3.35-2.23l.56-2.1c-.18.69,1.32,1.68,3.35,2.23s3.83.43,4-.25Z" fill="none" stroke="#c8161d" stroke-linecap="round" stroke-linejoin="round" stroke-width="0.5"/><polygon id="_Path_223" data-name="&lt;Path&gt;" points="291.55 320.16 290.5 319.22 289.46 320.16 289.46 312.12 291.55 312.12 291.55 320.16" fill="#ed1c24"/><polygon id="_Path_224" data-name="&lt;Path&gt;" points="291.55 320.16 290.5 319.22 289.46 320.16 289.46 312.12 291.55 312.12 291.55 320.16" fill="none" stroke="#c8161d" stroke-linecap="round" stroke-linejoin="round" stroke-width="0.5"/><path id="_Path_225" data-name="&lt;Path&gt;" d="M291.55,312.12h-2.09v5.39l1.12-2a.67.67,0,0,0,1-.43Z" fill="#c8161d"/><path id="_Path_226" data-name="&lt;Path&gt;" d="M291.55,312.12h-2.09v5.39l1.12-2a.67.67,0,0,0,1-.43Z" fill="none" stroke="#c8161d" stroke-linecap="round" stroke-linejoin="round" stroke-width="0.5"/><polygon id="_Path_227" data-name="&lt;Path&gt;" points="285.98 318.67 287.36 318.38 287.79 319.71 291.81 312.75 290 311.71 285.98 318.67" fill="#ed1c24"/><polygon id="_Path_228" data-name="&lt;Path&gt;" points="285.98 318.67 287.36 318.38 287.79 319.71 291.81 312.75 290 311.71 285.98 318.67" fill="none" stroke="#c8161d" stroke-linecap="round" stroke-linejoin="round" stroke-width="0.5"/><path id="_Path_229" data-name="&lt;Path&gt;" d="M293.31,313.13c0-.11-.05-.25-.22-.39.2-.1.32-.21.32-.32s-.11-.22-.32-.32c.17-.15.26-.28.23-.39s-.17-.19-.39-.23c.13-.19.17-.34.12-.44s-.21-.14-.43-.12c.08-.21.08-.37,0-.45s-.24-.08-.45,0c0-.22,0-.38-.12-.44s-.26,0-.45.13c0-.25-.12-.41-.23-.44s-.25.06-.4.23c-.1-.2-.2-.32-.32-.32s-.23.12-.32.32c-.15-.17-.28-.26-.39-.23s-.19.17-.23.4c-.19-.13-.34-.17-.44-.12s-.14.22-.12.44c-.21-.08-.37-.08-.45,0s-.08.24,0,.46c-.22,0-.38,0-.44.12s0,.26.12.44c-.22,0-.36.12-.39.23s.05.25.23.4c-.2.1-.32.21-.32.32s.12.23.33.32c-.17.15-.26.28-.23.39s.17.19.4.23c-.13.19-.17.34-.12.44s.22.14.44.12c-.08.21-.08.37,0,.45s.24.08.46,0c0,.22,0,.38.12.44s.25,0,.43-.11c0,.2.11.32.22.35s.25-.05.39-.22c.1.2.21.32.32.32s.22-.11.32-.32c.15.17.28.26.39.23s.19-.17.23-.39c.18.13.34.17.44.12s.14-.21.12-.43c.21.08.37.08.45,0s.08-.24,0-.45c.22,0,.38,0,.44-.12s0-.25-.11-.43c.22,0,.36-.12.39-.23" fill="#ebc900"/><path id="_Path_230" data-name="&lt;Path&gt;" d="M293.31,313.13c0-.11-.05-.25-.22-.39.2-.1.32-.21.32-.32s-.11-.22-.32-.32c.17-.15.26-.28.23-.39s-.17-.19-.39-.23c.13-.19.17-.34.12-.44s-.21-.14-.43-.12c.08-.21.08-.37,0-.45s-.24-.08-.45,0c0-.22,0-.38-.12-.44s-.26,0-.45.13c0-.25-.12-.41-.23-.44s-.25.06-.4.23c-.1-.2-.2-.32-.32-.32s-.23.12-.32.32c-.15-.17-.28-.26-.39-.23s-.19.17-.23.4c-.19-.13-.34-.17-.44-.12s-.14.22-.12.44c-.21-.08-.37-.08-.45,0s-.08.24,0,.46c-.22,0-.38,0-.44.12s0,.26.12.44c-.22,0-.36.12-.39.23s.05.25.23.4c-.2.1-.32.21-.32.32s.12.23.33.32c-.17.15-.26.28-.23.39s.17.19.4.23c-.13.19-.17.34-.12.44s.22.14.44.12c-.08.21-.08.37,0,.45s.24.08.46,0c0,.22,0,.38.12.44s.25,0,.43-.11c0,.2.11.32.22.35s.25-.05.39-.22c.1.2.21.32.32.32s.22-.11.32-.32c.15.17.28.26.39.23s.19-.17.23-.39c.18.13.34.17.44.12s.14-.21.12-.43c.21.08.37.08.45,0s.08-.24,0-.45c.22,0,.38,0,.44-.12s0-.25-.11-.43C293.14,313.32,293.28,313.24,293.31,313.13Z" fill="none" stroke="#f7da00" stroke-linecap="round" stroke-linejoin="round" stroke-width="0.5"/><path id="_Path_231" data-name="&lt;Path&gt;" d="M292.81,313a2.22,2.22,0,1,1-1.57-2.72,2.22,2.22,0,0,1,1.57,2.72" fill="#fff200"/><path id="_Path_232" data-name="&lt;Path&gt;" d="M292.71,312.94a2.12,2.12,0,1,1-1.5-2.6,2.12,2.12,0,0,1,1.5,2.6" fill="#ebc900"/><circle id="_Path_233" data-name="&lt;Path&gt;" cx="290.66" cy="312.39" r="2.12" transform="translate(-86.31 512.3) rotate(-75)" fill="none" stroke="#f7da00" stroke-linecap="round" stroke-linejoin="round" stroke-width="0.5"/></g><g id="_Group_22" data-name="&lt;Group&gt;"><path id="_Compound_Path_7" data-name="&lt;Compound Path&gt;" d="M412.14,272.68a3,3,0,0,1-3-3v-29a3,3,0,0,1,3-3h15.28a1.07,1.07,0,0,1,.33-.51v-.06a.83.83,0,0,1-.25-.33.86.86,0,0,1,.27-1l.19-.15a4.73,4.73,0,0,1,.41-.29c.24-.16.48-.3.73-.44a9.91,9.91,0,0,1,1-.47,11.39,11.39,0,0,1,1.21-.43,13.46,13.46,0,0,1,1.4-.34c.47-.09,1-.16,1.5-.21s1-.06,1.47-.06H436l.59,0,.25,0,.56,0a14,14,0,0,1,1.5.23,13.3,13.3,0,0,1,2.61.8,10.38,10.38,0,0,1,1.72.91c.18.12.32.23.43.3l.17.13A.86.86,0,0,1,444,237v0s0,.09,0,.14a1.08,1.08,0,0,1,.34.51h15.41a3,3,0,0,1,3,3v29a3,3,0,0,1-3,3Zm30.12-35a1.08,1.08,0,0,1,.32-.5l-.24-.09-.68-.24-.9-.26a20.37,20.37,0,0,0-2.3-.45c-.41-.05-.85-.1-1.32-.14l-.43,0h-1.26c-.35,0-.7,0-1,0h-.18c-.39,0-.76.05-1.12.1s-.83.11-1.23.18l-.22,0c-.3.06-.59.12-.85.19s-.65.18-.9.26l-.1,0-.56.2-.07,0h0s0,.09,0,.14a1.07,1.07,0,0,1,.33.51Z" fill="#c7eafb"/><path id="_Path_234" data-name="&lt;Path&gt;" d="M428,236.1l.14-.11a4.67,4.67,0,0,1,.42-.3,8,8,0,0,1,.71-.42,9.52,9.52,0,0,1,1-.45,11.27,11.27,0,0,1,1.18-.42,13,13,0,0,1,1.35-.33c.47-.09,1-.16,1.47-.21s1-.07,1.53-.06h.39l.37,0,.77.06a13.74,13.74,0,0,1,1.47.22,12.86,12.86,0,0,1,2.52.77,10,10,0,0,1,1.65.88c.19.12.33.23.43.31l.15.11a.44.44,0,0,1-.44.75h0l-.6-.24-.7-.24-.92-.27a20.89,20.89,0,0,0-2.35-.46c-.43-.06-.88-.1-1.34-.14l-.68,0h-.71c-.47,0-.94,0-1.4,0s-.91.06-1.34.12-.85.11-1.25.19-.77.15-1.1.24-.65.18-.92.26l-.69.24-.45.18-.16.07a.44.44,0,0,1-.44-.75" fill="#003d58"/><path id="_Path_235" data-name="&lt;Path&gt;" d="M428.7,237.38a1.55,1.55,0,0,0,0-.35c0-.4-.13-.72-.29-.72s-.29.32-.29.72a1.59,1.59,0,0,0,0,.35.66.66,0,1,0,.49,0" fill="#ebc900"/><path id="_Path_236" data-name="&lt;Path&gt;" d="M443.54,237.38a1.55,1.55,0,0,0,0-.35c0-.4-.13-.72-.29-.72s-.29.32-.29.72a1.59,1.59,0,0,0,0,.35.66.66,0,1,0,.49,0" fill="#ebc900"/><path id="_Path_237" data-name="&lt;Path&gt;" d="M458.09,272.21h-44.3a4.18,4.18,0,0,1-4.18-4.18V242.34a4.18,4.18,0,0,1,4.18-4.18h44.3a4.18,4.18,0,0,1,4.18,4.18V268a4.18,4.18,0,0,1-4.18,4.18" fill="#e6e7e8"/><path id="_Compound_Path_8" data-name="&lt;Compound Path&gt;" d="M459.74,272.26h-47.6a2.59,2.59,0,0,1-2.59-2.59v-29a2.59,2.59,0,0,1,2.59-2.58h47.6a2.59,2.59,0,0,1,2.59,2.58v29a2.59,2.59,0,0,1-2.59,2.59m-47.6-34.05a2.48,2.48,0,0,0-2.48,2.48v29a2.48,2.48,0,0,0,2.48,2.48h47.6a2.48,2.48,0,0,0,2.48-2.48v-29a2.48,2.48,0,0,0-2.48-2.48Z" fill="#58595b"/><path id="_Path_238" data-name="&lt;Path&gt;" d="M409.61,256.56v13.12a2.53,2.53,0,0,0,2.53,2.53h47.6a2.53,2.53,0,0,0,2.53-2.53V256.56a161.84,161.84,0,0,1-52.67,0" fill="#002c41"/><path id="_Compound_Path_9" data-name="&lt;Compound Path&gt;" d="M459.74,272.26h-47.6a2.59,2.59,0,0,1-2.58-2.59V256.49h.06a161.83,161.83,0,0,0,52.65,0h.06v13.18a2.59,2.59,0,0,1-2.58,2.59m-50.08-15.64v13.06a2.48,2.48,0,0,0,2.48,2.48h47.6a2.48,2.48,0,0,0,2.48-2.48V256.62a161.92,161.92,0,0,1-52.56,0" fill="#58595b"/><path id="_Path_239" data-name="&lt;Path&gt;" d="M459.74,259.52s0,1,0,2.87c0,.91,0,2,0,3.29,0,.64,0,1.31,0,2v.54a1.63,1.63,0,0,1-.07.58,1.38,1.38,0,0,1-.84.87,1.63,1.63,0,0,1-.62.09h-1.85l-2.61,0-5.64,0-12.27,0-12.27,0-5.64,0-2.61,0h-2.15a1.4,1.4,0,0,1-.32-.08,1.38,1.38,0,0,1-.84-.87,1.63,1.63,0,0,1-.07-.58q0-.28,0-.54c0-.71,0-1.39,0-2,0-1.27,0-2.38,0-3.29,0-1.83,0-2.87,0-2.87s0,1,0,2.87c0,.91,0,2,0,3.29,0,.64,0,1.31,0,2q0,.27,0,.54a1.41,1.41,0,0,0,.06.51,1.15,1.15,0,0,0,.71.72,1.36,1.36,0,0,0,.54.06h1.85l2.61,0,5.64,0,12.27,0,12.27,0,5.64,0,2.61,0h1.85a1.38,1.38,0,0,0,.54-.06,1.15,1.15,0,0,0,.71-.72,1.39,1.39,0,0,0,.06-.51v-.54c0-.71,0-1.39,0-2,0-1.27,0-2.38,0-3.29,0-1.83,0-2.87,0-2.87" fill="#006991"/><path id="_Path_240" data-name="&lt;Path&gt;" d="M409.61,240.69v15.87a161.84,161.84,0,0,0,52.67,0V240.69a2.53,2.53,0,0,0-2.53-2.53h-47.6a2.53,2.53,0,0,0-2.53,2.53" fill="#003d58"/><path id="_Path_241" data-name="&lt;Path&gt;" d="M459.74,240.69c0,4.57.11,9.14.13,13.71v.11l-.11,0q-3,.47-5.92.82c-2,.24-4,.42-6,.58q-6,.45-11.95.46T424,255.93c-2-.15-4-.34-6-.58s-4-.51-5.92-.82l-.11,0v-.11c0-4.57.09-9.14.13-13.71,0,4.57.11,9.14.13,13.71l-.11-.13q3,.43,5.92.75c2,.21,4,.39,5.94.54q5.95.43,11.92.41t11.92-.41c2-.14,4-.33,5.94-.54s4-.46,5.92-.75l-.11.13c0-4.57.09-9.14.13-13.71" fill="#007aa4"/><rect id="_Path_242" data-name="&lt;Path&gt;" x="434.3" y="238.15" width="3.28" height="20.53" fill="#002c41"/><path id="_Path_243" data-name="&lt;Path&gt;" d="M436.61,261.72h-1.34a1.39,1.39,0,0,1-1.39-1.39V257a1.39,1.39,0,0,1,1.39-1.39h1.34A1.39,1.39,0,0,1,438,257v3.33a1.39,1.39,0,0,1-1.39,1.39" fill="#ebc900"/><path id="_Compound_Path_10" data-name="&lt;Compound Path&gt;" d="M437.16,261.78h-2.44a.9.9,0,0,1-.9-.9v-4.43a.9.9,0,0,1,.9-.9h2.44a.9.9,0,0,1,.9.9v4.43a.9.9,0,0,1-.9.9m-2.44-6.12a.79.79,0,0,0-.79.79v4.43a.79.79,0,0,0,.79.79h2.44a.79.79,0,0,0,.79-.79v-4.43a.79.79,0,0,0-.79-.79Z" fill="#dba111"/><path id="_Path_244" data-name="&lt;Path&gt;" d="M434.3,260.88s0-.2,0-.54,0-.84,0-1.43v-2a3.52,3.52,0,0,1,0-.58.48.48,0,0,1,.5-.33h2.36a.48.48,0,0,1,.5.33,3.43,3.43,0,0,1,0,.58v2c0,.59,0,1.09,0,1.43s0,.54,0,.54,0-.2,0-.54,0-.84,0-1.43v-2a3.87,3.87,0,0,0,0-.55.38.38,0,0,0-.39-.26h-2.36a.38.38,0,0,0-.39.26,3.76,3.76,0,0,0,0,.55v2c0,.59,0,1.09,0,1.43s0,.54,0,.54" fill="#dba111"/><path id="_Path_245" data-name="&lt;Path&gt;" d="M434.85,258.12a.61.61,0,0,0-.36.07.91.91,0,0,0-.19.5v-2.25a.42.42,0,0,1,.42-.42h2.44a.42.42,0,0,1,.42.42v2.23a1.23,1.23,0,0,0-.22-.42.58.58,0,0,0-.37-.14" fill="#dba111"/><path id="_Path_246" data-name="&lt;Path&gt;" d="M434.85,258.12c-.15,0-.33,0-.41.14a1,1,0,0,0-.12.43h0l0-2.06a2.22,2.22,0,0,1,0-.26.46.46,0,0,1,.13-.25.46.46,0,0,1,.25-.13,2.17,2.17,0,0,1,.26,0h2.32a.46.46,0,0,1,.25.12.47.47,0,0,1,.13.24,1.81,1.81,0,0,1,0,.26c0,.69,0,1.37,0,2.06h0a1.31,1.31,0,0,0-.18-.39.58.58,0,0,0-.39-.17.58.58,0,0,1,.4.16,1.29,1.29,0,0,1,.2.39h0c0-.69,0-1.37,0-2.06a1.8,1.8,0,0,0,0-.25.39.39,0,0,0-.11-.2c-.11-.12-.28-.1-.46-.1H434.9a.45.45,0,0,0-.57.56l0,2.06h0a1.06,1.06,0,0,1,.15-.44.45.45,0,0,1,.42-.13" fill="#dba111"/><path id="_Path_247" data-name="&lt;Path&gt;" d="M434.6,257.59s0-.31,0-.78v-.18a.39.39,0,0,1,.06-.21.42.42,0,0,1,.4-.19h1.84a.42.42,0,0,1,.41.18.4.4,0,0,1,.06.21v.18c0,.47,0,.78,0,.78s0-.31,0-.78c0-.12,0-.25-.06-.34a.33.33,0,0,0-.33-.13H435a.32.32,0,0,0-.32.14.73.73,0,0,0-.05.35c0,.47,0,.78,0,.78" fill="#ebc900"/><path id="_Path_248" data-name="&lt;Path&gt;" d="M434.61,258.81h0a.24.24,0,0,1,.24-.24H437a.24.24,0,0,1,0,.48h-2.17a.24.24,0,0,1-.24-.24" fill="#603913"/><path id="_Compound_Path_11" data-name="&lt;Compound Path&gt;" d="M436.93,259.09h-2c-.21,0-.39-.12-.39-.28s.17-.28.39-.28h2c.21,0,.39.12.39.28s-.17.28-.39.28m-2-.48c-.16,0-.29.09-.29.21s.13.21.29.21h2c.16,0,.29-.09.29-.21s-.13-.21-.29-.21Z" fill="#603913"/></g><g id="_Group_23" data-name="&lt;Group&gt;"><path id="_Path_249" data-name="&lt;Path&gt;" d="M202.81,281a8.61,8.61,0,0,0-6.43,2.88,8.64,8.64,0,0,0-15.07,5.76c0,8.67,12.7,17.92,15.07,17.92s15.07-9.4,15.07-17.92a8.64,8.64,0,0,0-8.64-8.64" fill="#ef5ba1"/><g id="_Group_24" data-name="&lt;Group&gt;"><path id="_Compound_Path_12" data-name="&lt;Compound Path&gt;" d="M196.38,308.09c-2.64,0-15.59-9.45-15.59-18.43a9.15,9.15,0,0,1,15.59-6.51A9.15,9.15,0,0,1,212,289.66C212,298.39,199,308.09,196.38,308.09Zm-6.43-26.57a8.14,8.14,0,0,0-8.13,8.13c0,8.59,12.6,17.41,14.56,17.41s14.56-9.2,14.56-17.41a8.12,8.12,0,0,0-14.18-5.42.53.53,0,0,1-.76,0A8.14,8.14,0,0,0,189.95,281.53Z" fill="#ec008c"/></g><path id="_Path_250" data-name="&lt;Path&gt;" d="M206.21,295.44q0-6.91-4.69-6.91,4.69,0,4.69-6.91,0,6.91,4.69,6.91-4.69,0-4.69,6.91" fill="#fff"/><path id="_Compound_Path_13" data-name="&lt;Compound Path&gt;" d="M206.21,295.44c0-.39,0-.79-.06-1.18,0-.2,0-.39-.06-.59l-.09-.58a10.73,10.73,0,0,0-.28-1.15c0-.19-.13-.37-.2-.55s-.17-.35-.24-.53-.19-.34-.29-.51-.23-.31-.35-.46a4.6,4.6,0,0,0-.42-.4,3,3,0,0,0-.48-.33,2.84,2.84,0,0,0-.52-.25,3.82,3.82,0,0,0-.55-.17c-.19,0-.38-.06-.57-.1l-.58,0v-.17l.58,0c.19,0,.39,0,.57-.1a4,4,0,0,0,.55-.17,2.84,2.84,0,0,0,.52-.25,2.91,2.91,0,0,0,.48-.33,4.45,4.45,0,0,0,.42-.4c.12-.15.24-.3.35-.46s.21-.33.29-.51a5.67,5.67,0,0,0,.23-.54c.06-.19.14-.36.19-.56A10.6,10.6,0,0,0,206,284l.07-.58c0-.19,0-.39,0-.59,0-.39,0-.79,0-1.18h.17c0,.39,0,.79,0,1.18,0,.2,0,.39,0,.59l.07.58a10.6,10.6,0,0,0,.25,1.15c0,.19.13.37.19.56a5.67,5.67,0,0,0,.23.54c.08.18.19.34.29.51s.23.31.35.46a4.45,4.45,0,0,0,.42.4,2.93,2.93,0,0,0,.48.33,2.86,2.86,0,0,0,.52.25,4,4,0,0,0,.55.17c.19,0,.38.06.57.1l.58,0v.17l-.58,0c-.19,0-.39,0-.57.1a3.82,3.82,0,0,0-.55.17,2.86,2.86,0,0,0-.52.25,3,3,0,0,0-.48.33,4.52,4.52,0,0,0-.42.4c-.12.15-.24.3-.35.46s-.21.33-.29.51a5.76,5.76,0,0,0-.24.53c-.06.18-.15.36-.2.55a10.71,10.71,0,0,0-.28,1.15l-.08.58c0,.19,0,.39-.06.59,0,.39,0,.79-.06,1.18m0,0c0-.39,0-.79,0-1.19,0-.2,0-.4,0-.59l.06-.59a10.83,10.83,0,0,1,.24-1.17c0-.19.12-.38.18-.57a5.88,5.88,0,0,1,.23-.55c.08-.18.2-.35.3-.52s.24-.32.37-.48a4.58,4.58,0,0,1,.44-.42,3.12,3.12,0,0,1,.5-.34,3,3,0,0,1,.54-.26,4,4,0,0,1,.58-.18c.19,0,.4-.07.59-.1l.6,0a.08.08,0,0,1,0,.17h0l-.6,0c-.2,0-.4-.05-.59-.1a4,4,0,0,1-.58-.18,3,3,0,0,1-.54-.26,3.16,3.16,0,0,1-.5-.34,4.65,4.65,0,0,1-.44-.42c-.13-.16-.25-.31-.37-.48s-.22-.34-.3-.52a5.83,5.83,0,0,1-.24-.55c-.06-.19-.14-.37-.19-.57a10.94,10.94,0,0,1-.26-1.17l-.08-.59c0-.2,0-.4-.05-.59,0-.4,0-.79,0-1.19a.08.08,0,0,1,.17,0h0c0,.4,0,.79,0,1.19,0,.2,0,.4-.05.59l-.08.59a10.94,10.94,0,0,1-.26,1.17c0,.19-.13.38-.19.57a5.83,5.83,0,0,1-.24.55c-.08.18-.2.35-.3.52s-.24.32-.37.48a4.72,4.72,0,0,1-.44.42,3.16,3.16,0,0,1-.5.34,3,3,0,0,1-.55.26,4,4,0,0,1-.58.18c-.19,0-.4.07-.59.1l-.6,0a.08.08,0,0,1,0-.17h0l.6,0c.2,0,.4.05.59.1a4,4,0,0,1,.58.18,3,3,0,0,1,.55.26,3.12,3.12,0,0,1,.5.34,4.58,4.58,0,0,1,.44.42c.13.16.25.31.37.48s.22.34.3.52a5.41,5.41,0,0,1,.23.55c.06.19.14.38.18.57a10.93,10.93,0,0,1,.24,1.17l.06.59c0,.2,0,.39,0,.59,0,.39,0,.79,0,1.19" fill="#bcbec0"/><path id="_Path_251" data-name="&lt;Path&gt;" d="M203.27,294.79q0-2.34-1.59-2.34,1.59,0,1.59-2.34,0,2.34,1.59,2.34-1.59,0-1.59,2.34" fill="#fff"/><path id="_Compound_Path_14" data-name="&lt;Compound Path&gt;" d="M203.27,294.79a3.59,3.59,0,0,0-.36-1.53,1.71,1.71,0,0,0-.21-.32,1.2,1.2,0,0,0-.29-.24,1.44,1.44,0,0,0-.73-.18v-.17a1.44,1.44,0,0,0,.73-.18,1.26,1.26,0,0,0,.5-.55,3.54,3.54,0,0,0,.28-1.53h.17a3.53,3.53,0,0,0,.28,1.53,1.26,1.26,0,0,0,.5.55,1.44,1.44,0,0,0,.73.18v.17a1.44,1.44,0,0,0-.73.18,1.2,1.2,0,0,0-.29.24,1.72,1.72,0,0,0-.21.32,3.57,3.57,0,0,0-.36,1.53m0,0a3.65,3.65,0,0,1,.21-1.6,1.43,1.43,0,0,1,.56-.62,1.6,1.6,0,0,1,.81-.2.08.08,0,0,1,0,.17,1.6,1.6,0,0,1-.81-.2,1.42,1.42,0,0,1-.56-.62,3.7,3.7,0,0,1-.3-1.6.08.08,0,1,1,.17,0h0a3.7,3.7,0,0,1-.3,1.6,1.42,1.42,0,0,1-.56.62,1.6,1.6,0,0,1-.81.2.08.08,0,0,1,0-.17,1.6,1.6,0,0,1,.81.2,1.42,1.42,0,0,1,.56.62,3.62,3.62,0,0,1,.21,1.6" fill="#bcbec0"/><path id="_Path_252" data-name="&lt;Path&gt;" d="M209.81,287q0-3.08-2.09-3.08,2.09,0,2.09-3.08,0,3.08,2.09,3.08-2.09,0-2.09,3.08" fill="#fff"/><path id="_Compound_Path_15" data-name="&lt;Compound Path&gt;" d="M209.81,287a4.73,4.73,0,0,0-.45-2,2.24,2.24,0,0,0-.28-.42,1.59,1.59,0,0,0-.39-.31,1.62,1.62,0,0,0-.47-.18,2.51,2.51,0,0,0-.5-.06v-.17a2.51,2.51,0,0,0,.5-.05,1.65,1.65,0,0,0,.47-.18,1.67,1.67,0,0,0,.66-.74,4.68,4.68,0,0,0,.37-2h.17a4.68,4.68,0,0,0,.37,2,1.67,1.67,0,0,0,.66.74,1.65,1.65,0,0,0,.47.18,2.51,2.51,0,0,0,.5.05V284a2.51,2.51,0,0,0-.5.06,1.62,1.62,0,0,0-.47.18,1.59,1.59,0,0,0-.39.31,2.2,2.2,0,0,0-.28.42,4.7,4.7,0,0,0-.45,2m0,0a4.78,4.78,0,0,1,.3-2.1,1.84,1.84,0,0,1,.73-.8,1.78,1.78,0,0,1,.51-.2,2.63,2.63,0,0,1,.54-.06.08.08,0,1,1,0,.17h0a2.67,2.67,0,0,1-.54-.06,1.8,1.8,0,0,1-.51-.2,1.84,1.84,0,0,1-.73-.8,4.82,4.82,0,0,1-.39-2.09.08.08,0,1,1,.17,0h0a4.82,4.82,0,0,1-.39,2.09,1.84,1.84,0,0,1-.73.8,1.81,1.81,0,0,1-.51.2,2.67,2.67,0,0,1-.54.06.08.08,0,0,1,0-.17h0a2.63,2.63,0,0,1,.54.06,1.79,1.79,0,0,1,.51.2,1.84,1.84,0,0,1,.73.8,4.76,4.76,0,0,1,.3,2.1" fill="#bcbec0"/><path id="_Path_253" data-name="&lt;Path&gt;" d="M189,304.52q0-3.75-2.55-3.75,2.55,0,2.55-3.75,0,3.75,2.55,3.75-2.55,0-2.55,3.75" fill="#fff"/><path id="_Compound_Path_16" data-name="&lt;Compound Path&gt;" d="M189,304.52a5.77,5.77,0,0,0-.54-2.47,2.7,2.7,0,0,0-.34-.52,2.45,2.45,0,0,0-.22-.21,1.56,1.56,0,0,0-.25-.17,1.45,1.45,0,0,0-.28-.13,2.08,2.08,0,0,0-.3-.09,3,3,0,0,0-.62-.07v-.17a3.09,3.09,0,0,0,.62-.07,2.08,2.08,0,0,0,.3-.09,1.45,1.45,0,0,0,.28-.13,1.52,1.52,0,0,0,.25-.17,2.45,2.45,0,0,0,.22-.21,2.58,2.58,0,0,0,.34-.52,5.72,5.72,0,0,0,.45-2.47h.17a5.72,5.72,0,0,0,.45,2.47,2.58,2.58,0,0,0,.34.52,2.45,2.45,0,0,0,.22.21,1.52,1.52,0,0,0,.25.17,1.47,1.47,0,0,0,.28.13,2.08,2.08,0,0,0,.3.09,3.09,3.09,0,0,0,.62.07v.17a3,3,0,0,0-.62.07,2.08,2.08,0,0,0-.3.09,1.45,1.45,0,0,0-.28.13,1.56,1.56,0,0,0-.25.17,2.45,2.45,0,0,0-.22.21,2.69,2.69,0,0,0-.34.52,5.75,5.75,0,0,0-.54,2.47m0,0a5.82,5.82,0,0,1,.39-2.55,2.63,2.63,0,0,1,.37-.55,2.57,2.57,0,0,1,.24-.23,1.74,1.74,0,0,1,.28-.19,1.69,1.69,0,0,1,.3-.14,2.2,2.2,0,0,1,.32-.1,3.21,3.21,0,0,1,.66-.07.08.08,0,1,1,0,.17h0a3.29,3.29,0,0,1-.66-.07,2.28,2.28,0,0,1-.32-.1,2.12,2.12,0,0,1-.58-.34,2.64,2.64,0,0,1-.24-.23,2.77,2.77,0,0,1-.37-.55,5.87,5.87,0,0,1-.47-2.55.08.08,0,1,1,.17,0h0a5.87,5.87,0,0,1-.47,2.55,2.77,2.77,0,0,1-.37.55,2.64,2.64,0,0,1-.24.23,2.12,2.12,0,0,1-.58.34,2.28,2.28,0,0,1-.32.1,3.29,3.29,0,0,1-.66.07.08.08,0,0,1-.08-.08.08.08,0,0,1,.08-.08h0a3.21,3.21,0,0,1,.66.07,2.2,2.2,0,0,1,.32.1,1.69,1.69,0,0,1,.3.14,1.74,1.74,0,0,1,.28.19,2.57,2.57,0,0,1,.24.23,2.63,2.63,0,0,1,.37.55,5.81,5.81,0,0,1,.39,2.55" fill="#bcbec0"/><path id="_Path_254" data-name="&lt;Path&gt;" d="M186.83,306.72q0-2.34-1.59-2.34,1.59,0,1.59-2.34,0,2.34,1.59,2.34-1.59,0-1.59,2.34" fill="#fff"/><path id="_Compound_Path_17" data-name="&lt;Compound Path&gt;" d="M186.83,306.72a3.58,3.58,0,0,0-.36-1.53,1.7,1.7,0,0,0-.21-.32,1.19,1.19,0,0,0-.29-.23,1.43,1.43,0,0,0-.73-.18v-.17a1.44,1.44,0,0,0,.73-.18,1.25,1.25,0,0,0,.5-.55,3.53,3.53,0,0,0,.28-1.53h.17a3.53,3.53,0,0,0,.28,1.53,1.25,1.25,0,0,0,.5.55,1.44,1.44,0,0,0,.73.18v.17a1.43,1.43,0,0,0-.73.18,1.19,1.19,0,0,0-.29.23,1.7,1.7,0,0,0-.21.32,3.56,3.56,0,0,0-.36,1.53m0,0a3.64,3.64,0,0,1,.21-1.6,1.41,1.41,0,0,1,.56-.62,1.6,1.6,0,0,1,.81-.2.08.08,0,0,1,0,.17,1.6,1.6,0,0,1-.81-.2,1.42,1.42,0,0,1-.56-.62,3.68,3.68,0,0,1-.3-1.6.08.08,0,1,1,.17,0h0a3.68,3.68,0,0,1-.3,1.6,1.42,1.42,0,0,1-.56.62,1.6,1.6,0,0,1-.81.2.08.08,0,0,1,0-.17,1.6,1.6,0,0,1,.81.2,1.42,1.42,0,0,1,.56.62,3.62,3.62,0,0,1,.21,1.6" fill="#bcbec0"/></g><g id="_Group_25" data-name="&lt;Group&gt;"><rect id="_Path_255" data-name="&lt;Path&gt;" x="459.46" y="156.85" width="4.58" height="16.45" fill="#8b5e3c"/><polygon id="_Path_256" data-name="&lt;Path&gt;" points="472.87 201.53 411 201.53 411 176.25 441.94 154.44 472.87 176.25 472.87 201.53" fill="#ffe6cb"/><rect id="_Path_257" data-name="&lt;Path&gt;" x="436.01" y="177.29" width="12.77" height="24.24" fill="#8b5e3c"/><rect id="_Path_258" data-name="&lt;Path&gt;" x="454.18" y="177.98" width="13.7" height="12.47" fill="#86cbea"/><rect id="_Path_259" data-name="&lt;Path&gt;" x="454.18" y="177.98" width="13.7" height="12.47" fill="none" stroke="#13588f" stroke-width="1.5"/><rect id="_Path_260" data-name="&lt;Path&gt;" x="416.92" y="177.98" width="13.7" height="12.47" fill="#86cbea"/><rect id="_Path_261" data-name="&lt;Path&gt;" x="416.92" y="177.98" width="13.7" height="12.47" fill="none" stroke="#13588f" stroke-width="1.5"/><line id="_Path_262" data-name="&lt;Path&gt;" x1="461.03" y1="177.98" x2="461.03" y2="190.45" fill="none" stroke="#13588f" stroke-width="1.5"/><line id="_Path_263" data-name="&lt;Path&gt;" x1="467.87" y1="184.21" x2="454.18" y2="184.21" fill="none" stroke="#13588f" stroke-width="1.5"/><line id="_Path_264" data-name="&lt;Path&gt;" x1="423.77" y1="177.98" x2="423.77" y2="190.45" fill="none" stroke="#13588f" stroke-width="1.5"/><line id="_Path_265" data-name="&lt;Path&gt;" x1="416.92" y1="184.21" x2="430.62" y2="184.21" fill="none" stroke="#13588f" stroke-width="1.5"/><rect id="_Path_266" data-name="&lt;Path&gt;" x="408.31" y="201.53" width="67.25" height="1.69" fill="#c06735"/><polygon id="_Path_267" data-name="&lt;Path&gt;" points="411 176.25 411 178.39 441.94 159.73 472.87 178.39 472.87 176.25 441.94 154.44 411 176.25" fill="#dcc8b2"/><polygon id="_Path_268" data-name="&lt;Path&gt;" points="474.79 178.39 441.94 155.2 409.09 178.39 407.53 176.19 441.94 151.9 476.34 176.19 474.79 178.39" fill="#cd372e"/><rect id="_Path_269" data-name="&lt;Path&gt;" x="458.99" y="155.62" width="5.53" height="2.38" fill="#754c29"/><path id="_Path_270" data-name="&lt;Path&gt;" d="M426.66,204.63a1.72,1.72,0,0,0-1.11-1.46,2.39,2.39,0,0,0-.86-2.69,2.65,2.65,0,0,0-2.52-1.83l-.25,0a3.7,3.7,0,0,0-6.18-1.23,2.07,2.07,0,0,0-2.62,1.61,3.09,3.09,0,0,0-1.51-.41,3.12,3.12,0,0,0-3.12,3.12,3.09,3.09,0,0,0,.46,1.6,2.28,2.28,0,0,0-.45,1.25Z" fill="#009444"/><path id="_Path_271" data-name="&lt;Path&gt;" d="M420.17,204.63a2.44,2.44,0,0,0-2.44-2.44,2.32,2.32,0,0,0-.3,0,3.88,3.88,0,0,0-5.67-1.79,3.08,3.08,0,0,0-5.32.6,3.06,3.06,0,0,0-4.45,3.61Z" fill="#8dc63f"/><path id="_Path_272" data-name="&lt;Path&gt;" d="M419.5,156.77a2.26,2.26,0,0,1-3.31.8,2.29,2.29,0,0,0-1.69,2.76c.42,1.74,4.35,3.71,5,3.57s3.26-3.51,2.79-5.43a2.29,2.29,0,0,0-2.76-1.69" fill="#cd372e"/><path id="_Path_273" data-name="&lt;Path&gt;" d="M427.62,147.82a3.06,3.06,0,0,0-2.48.44,3.08,3.08,0,0,0-5.72.65c-.6,2.35,2.84,7.18,3.67,7.39s6.1-2.14,6.76-4.72a3.09,3.09,0,0,0-2.23-3.75" fill="#cd372e"/></g><g id="_Group_26" data-name="&lt;Group&gt;"><path id="_Path_274" data-name="&lt;Path&gt;" d="M171.55,238.08H131.95c.42-3.78,1.62-10.63,4.8-11.46,1.15-.43,2.16-.75,3.06-1,4.36-1.16,6-.52,6.92-2.61,1.16-2.53.28-2.33-.56-4.38l0-.06-.21-.26a13.51,13.51,0,0,1-2.73-8.63,5.87,5.87,0,0,0,0-1.49,6.83,6.83,0,0,0-.13-.78c-.21-.92-.5-5.6,1.64-7.06a12.61,12.61,0,0,1,7-2.27c3.64.19,7.37,2.44,7.83,3.27,1.26,2.25.73,5.8.68,6.13-.22,1.29-.37,3.07-.5,5a11,11,0,0,1-1.85,5.17,10.18,10.18,0,0,1-.57.9l0,.09c-.84,2-1.72,1.85-.56,4.38.73,1.58,1.85,1.63,4.25,2.07a32.1,32.1,0,0,1,5.81,1.6c3.29,1.35,4.4,7.78,4.77,11.39" fill="#e1f4fd" fill-rule="evenodd"/><g id="_Group_27" data-name="&lt;Group&gt;"><path id="_Compound_Path_18" data-name="&lt;Compound Path&gt;" d="M171.55,238.6H131.95a.51.51,0,0,1-.51-.57c.55-5,1.9-11,5.18-11.9a31.78,31.78,0,0,1,3.06-1c1.42-.38,2.55-.57,3.45-.72,1.89-.32,2.59-.43,3.13-1.61.73-1.59.59-1.83.12-2.63a9.64,9.64,0,0,1-.68-1.33l-.18-.23a14,14,0,0,1-2.83-9,5.76,5.76,0,0,0,0-1.42,6.29,6.29,0,0,0-.12-.72c-.16-.72-.67-5.88,1.85-7.6.62-.43,3.89-2.53,7.32-2.36,3.67.19,7.66,2.46,8.25,3.53,1.39,2.48.76,6.3.74,6.46-.19,1.11-.34,2.68-.49,4.94a11.43,11.43,0,0,1-1.94,5.44,9.83,9.83,0,0,1-.53.85l0,0a9.7,9.7,0,0,1-.69,1.34c-.47.8-.61,1,.12,2.63.55,1.19,1.33,1.33,3.22,1.66l.65.12a32.54,32.54,0,0,1,5.89,1.62c3.54,1.46,4.71,8,5.1,11.82a.51.51,0,0,1-.51.56Zm-39-1H171c-.66-5.74-2.25-9.52-4.39-10.4a31.59,31.59,0,0,0-5.7-1.57l-.64-.11c-2-.35-3.21-.57-4-2.25-.91-2-.67-2.57-.07-3.58a8.69,8.69,0,0,0,.62-1.21,1.74,1.74,0,0,1,.09-.2,9.54,9.54,0,0,0,.54-.86,10.55,10.55,0,0,0,1.79-5c.15-2.29.31-3.9.5-5,0,0,.6-3.62-.62-5.79-.37-.65-4-2.83-7.41-3-3.09-.16-6.12,1.79-6.69,2.18-1.86,1.27-1.62,5.68-1.43,6.53a7.39,7.39,0,0,1,.14.83,6.36,6.36,0,0,1,0,1.64,12.92,12.92,0,0,0,2.63,8.23l.19.24a.51.51,0,0,1,.1.17,8.69,8.69,0,0,0,.63,1.24c.6,1,.85,1.59-.07,3.58-.77,1.67-1.94,1.87-3.9,2.2-.89.15-2,.33-3.36.7a31.61,31.61,0,0,0-3,1C134.85,227.65,133.27,231.45,132.52,237.57Z" fill="#005995"/></g><path id="_Path_275" data-name="&lt;Path&gt;" d="M151.94,241.85v.54a.77.77,0,0,0,.77.77H176a.77.77,0,0,0,.77-.77V231.85c-6.13,7.17-15.63,9.59-24.85,10" fill="#e1f4fd"/><path id="_Path_276" data-name="&lt;Path&gt;" d="M176.79,231.85v-2.6a.77.77,0,0,0-.77-.77H152.71a.77.77,0,0,0-.77.77v12.61c9.23-.41,18.73-2.83,24.85-10" fill="#fff"/><path id="_Compound_Path_19" data-name="&lt;Compound Path&gt;" d="M162.09,240h-7a.19.19,0,0,1-.19-.19v-8.31a.19.19,0,0,1,.19-.19h7a.19.19,0,0,1,.19.19v8.31a.19.19,0,0,1-.19.19m-6.76-.38h6.57v-7.93h-6.57Z" fill="#1b75bc"/><rect id="_Path_277" data-name="&lt;Path&gt;" x="164.37" y="231.48" width="4.99" height="1.25" fill="#1b75bc"/><rect id="_Path_278" data-name="&lt;Path&gt;" x="164.37" y="233.83" width="8.82" height="1.25" fill="#1b75bc"/><rect id="_Path_279" data-name="&lt;Path&gt;" x="164.37" y="236.15" width="10.62" height="1.25" fill="#1b75bc"/><rect id="_Path_280" data-name="&lt;Path&gt;" x="164.37" y="238.54" width="10.62" height="1.25" fill="#1b75bc"/><path id="_Compound_Path_20" data-name="&lt;Compound Path&gt;" d="M176,243.35H152.71a1,1,0,0,1-1-1V229.25a1,1,0,0,1,1-1H176a1,1,0,0,1,1,1v13.14a1,1,0,0,1-1,1m-23.32-14.67a.57.57,0,0,0-.57.57v13.14a.57.57,0,0,0,.57.57H176a.57.57,0,0,0,.57-.57V229.25a.57.57,0,0,0-.57-.57Z" fill="#1b75bc"/><path id="_Path_281" data-name="&lt;Path&gt;" d="M161.72,239.91h-6.2c.07-.59.25-1.66.75-1.79l.48-.15c.68-.18.93-.08,1.08-.41s0-.36-.09-.69h0l0,0a2.11,2.11,0,0,1-.43-1.35.92.92,0,0,0,0-.23,1.17,1.17,0,0,0,0-.12c0-.14-.08-.88.26-1.1a2,2,0,0,1,1.1-.36,2,2,0,0,1,1.23.51,1.73,1.73,0,0,1,.11,1c0,.2-.06.48-.08.78a1.72,1.72,0,0,1-.29.81l-.09.14h0c-.13.32-.27.29-.09.69s.29.26.66.32a5,5,0,0,1,.91.25c.51.21.69,1.22.75,1.78" fill="#1b75bc" fill-rule="evenodd"/></g><g id="_Group_28" data-name="&lt;Group&gt;"><path id="_Path_282" data-name="&lt;Path&gt;" d="M381.65,319H353.72V283a1.11,1.11,0,0,1,1.11-1.11h25.71a1.11,1.11,0,0,1,1.11,1.11Z" fill="#c9cacc"/><path id="_Path_283" data-name="&lt;Path&gt;" d="M381.1,318.48H353.17v-36a1.11,1.11,0,0,1,1.11-1.11H380a1.11,1.11,0,0,1,1.11,1.11Z" fill="#b7292f"/><path id="_Path_284" data-name="&lt;Path&gt;" d="M377.25,317.74H354.62a.55.55,0,0,1-.55-.55V285a.55.55,0,0,1,.55-.55h22.64a.55.55,0,0,1,.55.55v32.19a.55.55,0,0,1-.55.55" fill="#9ccde4"/><path id="_Path_285" data-name="&lt;Path&gt;" d="M377.85,317.19H355.22a.55.55,0,0,1-.55-.55V284.45a.55.55,0,0,1,.55-.55h22.64a.55.55,0,0,1,.55.55v32.19a.55.55,0,0,1-.55.55" fill="#c9e3f0"/><path id="_Path_286" data-name="&lt;Path&gt;" d="M378.66,316.63H356a.55.55,0,0,1-.55-.55V283.89a.55.55,0,0,1,.55-.55h22.64a.55.55,0,0,1,.55.55v32.19a.55.55,0,0,1-.55.55" fill="#f1fafe"/><rect id="_Path_287" data-name="&lt;Path&gt;" x="357.44" y="285.54" width="5.84" height="6.59" fill="#6ebbdb"/><rect id="_Path_288" data-name="&lt;Path&gt;" x="364.52" y="285.54" width="6.79" height="1.17" fill="#6ebbdb"/><rect id="_Path_289" data-name="&lt;Path&gt;" x="364.52" y="287.88" width="12.26" height="1.17" fill="#6ebbdb"/><rect id="_Path_290" data-name="&lt;Path&gt;" x="364.52" y="290.23" width="9.79" height="1.17" fill="#6ebbdb"/><rect id="_Path_291" data-name="&lt;Path&gt;" x="357.44" y="293.61" width="20.36" height="1.17" fill="#6ebbdb"/><rect id="_Path_292" data-name="&lt;Path&gt;" x="357.44" y="296.27" width="20.36" height="1.17" fill="#6ebbdb"/><rect id="_Path_293" data-name="&lt;Path&gt;" x="357.44" y="299.4" width="20.36" height="1.17" fill="#6ebbdb"/><path id="_Path_294" data-name="&lt;Path&gt;" d="M362.92,300.6l-4.53-4.74a1.11,1.11,0,0,0-.8-.34h-4.41v23h22.71V302a1.11,1.11,0,0,0-1.11-1.11H363.72a1.11,1.11,0,0,1-.8-.34" fill="#d71920"/></g></g></g></g></g></svg>