<svg xmlns="http://www.w3.org/2000/svg" viewBox="0 0 80.71 100"><title>about-feature-form</title><g id="Layer_2" data-name="Layer 2"><g id="Layer_1-2" data-name="Layer 1"><g id="_Group_" data-name="&lt;Group&gt;"><g id="_Group_2" data-name="&lt;Group&gt;"><rect id="_Rectangle_" data-name="&lt;Rectangle&gt;" width="70.17" height="89.8" fill="#abe1fa"/></g><g id="_Group_3" data-name="&lt;Group&gt;" opacity="0.6"><polygon id="_Path_" data-name="&lt;Path&gt;" points="80.7 10.2 10.54 10.2 10.54 100 68.5 100 80.7 87.79 80.7 10.2" fill="#00aeef"/></g><g id="_Group_4" data-name="&lt;Group&gt;" opacity="0.5"><path id="_Compound_Path_" data-name="&lt;Compound Path&gt;" d="M18.7,21.31h-.41v-2.7l-.82.3v-.37l1.16-.44h.06Z" fill="#fff"/><path id="_Compound_Path_2" data-name="&lt;Compound Path&gt;" d="M22.79,19.95a2.67,2.67,0,0,1-.07.66,1.17,1.17,0,0,1-.2.43.74.74,0,0,1-.32.24,1.24,1.24,0,0,1-.83,0A.75.75,0,0,1,21,21a1.18,1.18,0,0,1-.2-.43,2.58,2.58,0,0,1-.07-.66v-.49a2.58,2.58,0,0,1,.07-.66,1.14,1.14,0,0,1,.2-.43.74.74,0,0,1,.32-.23,1.27,1.27,0,0,1,.83,0,.74.74,0,0,1,.32.23,1.13,1.13,0,0,1,.2.43,2.63,2.63,0,0,1,.07.66Zm-.41-.55a2.36,2.36,0,0,0,0-.46.88.88,0,0,0-.11-.31.46.46,0,0,0-.19-.17.66.66,0,0,0-.52,0,.45.45,0,0,0-.19.17.91.91,0,0,0-.11.31,2.28,2.28,0,0,0,0,.46V20a2.31,2.31,0,0,0,0,.46,1,1,0,0,0,.12.31.48.48,0,0,0,.19.18.56.56,0,0,0,.26.06A.57.57,0,0,0,22,21a.47.47,0,0,0,.19-.18.93.93,0,0,0,.11-.31,2.48,2.48,0,0,0,0-.46Z" fill="#fff"/><path id="_Compound_Path_3" data-name="&lt;Compound Path&gt;" d="M25.54,21.31h-.41v-2.7l-.82.3v-.37l1.16-.44h.06Z" fill="#fff"/><path id="_Compound_Path_4" data-name="&lt;Compound Path&gt;" d="M29.62,19.95a2.67,2.67,0,0,1-.07.66,1.17,1.17,0,0,1-.2.43.74.74,0,0,1-.32.24,1.24,1.24,0,0,1-.83,0,.75.75,0,0,1-.32-.24,1.18,1.18,0,0,1-.2-.43,2.58,2.58,0,0,1-.07-.66v-.49a2.58,2.58,0,0,1,.07-.66,1.14,1.14,0,0,1,.2-.43.74.74,0,0,1,.32-.23,1.27,1.27,0,0,1,.83,0,.74.74,0,0,1,.32.23,1.13,1.13,0,0,1,.2.43,2.63,2.63,0,0,1,.07.66Zm-.41-.55a2.36,2.36,0,0,0,0-.46.88.88,0,0,0-.11-.31.46.46,0,0,0-.19-.17.66.66,0,0,0-.52,0,.45.45,0,0,0-.19.17.91.91,0,0,0-.11.31,2.28,2.28,0,0,0,0,.46V20a2.31,2.31,0,0,0,0,.46,1,1,0,0,0,.12.31.48.48,0,0,0,.19.18.56.56,0,0,0,.26.06.57.57,0,0,0,.26-.06.47.47,0,0,0,.19-.18.93.93,0,0,0,.11-.31,2.48,2.48,0,0,0,0-.46Z" fill="#fff"/><path id="_Compound_Path_5" data-name="&lt;Compound Path&gt;" d="M32.37,21.31H32v-2.7l-.82.3v-.37l1.16-.44h.06Z" fill="#fff"/><path id="_Compound_Path_6" data-name="&lt;Compound Path&gt;" d="M36.46,19.95a2.67,2.67,0,0,1-.07.66,1.17,1.17,0,0,1-.2.43.74.74,0,0,1-.32.24,1.24,1.24,0,0,1-.83,0,.75.75,0,0,1-.32-.24,1.18,1.18,0,0,1-.2-.43,2.58,2.58,0,0,1-.07-.66v-.49a2.58,2.58,0,0,1,.07-.66,1.14,1.14,0,0,1,.2-.43.74.74,0,0,1,.32-.23,1.27,1.27,0,0,1,.83,0,.74.74,0,0,1,.32.23,1.13,1.13,0,0,1,.2.43,2.63,2.63,0,0,1,.07.66Zm-.41-.55a2.36,2.36,0,0,0,0-.46.88.88,0,0,0-.11-.31.46.46,0,0,0-.19-.17.66.66,0,0,0-.52,0,.45.45,0,0,0-.19.17.91.91,0,0,0-.11.31,2.28,2.28,0,0,0,0,.46V20a2.31,2.31,0,0,0,0,.46,1,1,0,0,0,.12.31.48.48,0,0,0,.19.18.56.56,0,0,0,.26.06.57.57,0,0,0,.26-.06.47.47,0,0,0,.19-.18.93.93,0,0,0,.11-.31,2.48,2.48,0,0,0,0-.46Z" fill="#fff"/><path id="_Compound_Path_7" data-name="&lt;Compound Path&gt;" d="M39.21,21.31h-.41v-2.7l-.82.3v-.37l1.16-.44h.06Z" fill="#fff"/><path id="_Compound_Path_8" data-name="&lt;Compound Path&gt;" d="M43.3,19.95a2.67,2.67,0,0,1-.07.66A1.17,1.17,0,0,1,43,21a.74.74,0,0,1-.32.24,1.24,1.24,0,0,1-.83,0,.75.75,0,0,1-.32-.24,1.18,1.18,0,0,1-.2-.43,2.58,2.58,0,0,1-.07-.66v-.49a2.58,2.58,0,0,1,.07-.66,1.14,1.14,0,0,1,.2-.43.74.74,0,0,1,.32-.23,1.27,1.27,0,0,1,.83,0,.74.74,0,0,1,.32.23,1.13,1.13,0,0,1,.2.43,2.63,2.63,0,0,1,.07.66Zm-.41-.55a2.36,2.36,0,0,0,0-.46.88.88,0,0,0-.11-.31.46.46,0,0,0-.19-.17.66.66,0,0,0-.52,0,.45.45,0,0,0-.19.17.91.91,0,0,0-.11.31,2.28,2.28,0,0,0,0,.46V20a2.31,2.31,0,0,0,0,.46,1,1,0,0,0,.12.31A.48.48,0,0,0,42,21a.56.56,0,0,0,.26.06.57.57,0,0,0,.26-.06.47.47,0,0,0,.19-.18.93.93,0,0,0,.11-.31,2.48,2.48,0,0,0,0-.46Z" fill="#fff"/><path id="_Compound_Path_9" data-name="&lt;Compound Path&gt;" d="M46.05,21.31h-.41v-2.7l-.82.3v-.37L46,18.1h.06Z" fill="#fff"/><path id="_Compound_Path_10" data-name="&lt;Compound Path&gt;" d="M50.14,19.95a2.67,2.67,0,0,1-.07.66,1.17,1.17,0,0,1-.2.43.74.74,0,0,1-.32.24,1.24,1.24,0,0,1-.83,0A.75.75,0,0,1,48.4,21a1.18,1.18,0,0,1-.2-.43,2.58,2.58,0,0,1-.07-.66v-.49a2.58,2.58,0,0,1,.07-.66,1.14,1.14,0,0,1,.2-.43.74.74,0,0,1,.32-.23,1.27,1.27,0,0,1,.83,0,.74.74,0,0,1,.32.23,1.13,1.13,0,0,1,.2.43,2.63,2.63,0,0,1,.07.66Zm-.41-.55a2.36,2.36,0,0,0,0-.46.88.88,0,0,0-.11-.31.46.46,0,0,0-.19-.17.66.66,0,0,0-.52,0,.45.45,0,0,0-.19.17.91.91,0,0,0-.11.31,2.28,2.28,0,0,0,0,.46V20a2.31,2.31,0,0,0,0,.46,1,1,0,0,0,.12.31.48.48,0,0,0,.19.18.56.56,0,0,0,.26.06A.57.57,0,0,0,49.4,21a.47.47,0,0,0,.19-.18.93.93,0,0,0,.11-.31,2.48,2.48,0,0,0,0-.46Z" fill="#fff"/><path id="_Compound_Path_11" data-name="&lt;Compound Path&gt;" d="M52.89,21.31h-.41v-2.7l-.82.3v-.37l1.16-.44h.06Z" fill="#fff"/><path id="_Compound_Path_12" data-name="&lt;Compound Path&gt;" d="M57,19.95a2.67,2.67,0,0,1-.07.66,1.17,1.17,0,0,1-.2.43.74.74,0,0,1-.32.24,1.24,1.24,0,0,1-.83,0,.75.75,0,0,1-.32-.24,1.18,1.18,0,0,1-.2-.43,2.58,2.58,0,0,1-.07-.66v-.49A2.58,2.58,0,0,1,55,18.8a1.14,1.14,0,0,1,.2-.43.74.74,0,0,1,.32-.23,1.27,1.27,0,0,1,.83,0,.74.74,0,0,1,.32.23,1.13,1.13,0,0,1,.2.43,2.63,2.63,0,0,1,.07.66Zm-.41-.55a2.36,2.36,0,0,0,0-.46.88.88,0,0,0-.11-.31.46.46,0,0,0-.19-.17.66.66,0,0,0-.52,0,.45.45,0,0,0-.19.17.91.91,0,0,0-.11.31,2.28,2.28,0,0,0,0,.46V20a2.31,2.31,0,0,0,0,.46,1,1,0,0,0,.12.31.48.48,0,0,0,.19.18A.56.56,0,0,0,56,21a.57.57,0,0,0,.26-.06.47.47,0,0,0,.19-.18.93.93,0,0,0,.11-.31,2.48,2.48,0,0,0,0-.46Z" fill="#fff"/><path id="_Compound_Path_13" data-name="&lt;Compound Path&gt;" d="M59.73,21.31h-.41v-2.7l-.82.3v-.37l1.16-.44h.06Z" fill="#fff"/><path id="_Compound_Path_14" data-name="&lt;Compound Path&gt;" d="M63.82,19.95a2.67,2.67,0,0,1-.07.66,1.17,1.17,0,0,1-.2.43.74.74,0,0,1-.32.24,1.24,1.24,0,0,1-.83,0,.75.75,0,0,1-.32-.24,1.18,1.18,0,0,1-.2-.43,2.58,2.58,0,0,1-.07-.66v-.49a2.58,2.58,0,0,1,.07-.66,1.14,1.14,0,0,1,.2-.43.74.74,0,0,1,.32-.23,1.27,1.27,0,0,1,.83,0,.74.74,0,0,1,.32.23,1.13,1.13,0,0,1,.2.43,2.63,2.63,0,0,1,.07.66Zm-.41-.55a2.36,2.36,0,0,0,0-.46.88.88,0,0,0-.11-.31.46.46,0,0,0-.19-.17.66.66,0,0,0-.52,0,.45.45,0,0,0-.19.17.91.91,0,0,0-.11.31,2.28,2.28,0,0,0,0,.46V20a2.31,2.31,0,0,0,0,.46,1,1,0,0,0,.12.31.48.48,0,0,0,.19.18.56.56,0,0,0,.26.06.57.57,0,0,0,.26-.06.47.47,0,0,0,.19-.18.93.93,0,0,0,.11-.31,2.48,2.48,0,0,0,0-.46Z" fill="#fff"/><path id="_Compound_Path_15" data-name="&lt;Compound Path&gt;" d="M66.57,21.31h-.41v-2.7l-.82.3v-.37l1.16-.44h.06Z" fill="#fff"/><path id="_Compound_Path_16" data-name="&lt;Compound Path&gt;" d="M70.66,19.95a2.67,2.67,0,0,1-.07.66,1.17,1.17,0,0,1-.2.43.74.74,0,0,1-.32.24,1.24,1.24,0,0,1-.83,0,.75.75,0,0,1-.32-.24,1.18,1.18,0,0,1-.2-.43,2.58,2.58,0,0,1-.07-.66v-.49a2.58,2.58,0,0,1,.07-.66,1.14,1.14,0,0,1,.2-.43.74.74,0,0,1,.32-.23,1.27,1.27,0,0,1,.83,0,.74.74,0,0,1,.32.23,1.13,1.13,0,0,1,.2.43,2.63,2.63,0,0,1,.07.66Zm-.41-.55a2.36,2.36,0,0,0,0-.46.88.88,0,0,0-.11-.31.46.46,0,0,0-.19-.17.66.66,0,0,0-.52,0,.45.45,0,0,0-.19.17.91.91,0,0,0-.11.31,2.28,2.28,0,0,0,0,.46V20a2.31,2.31,0,0,0,0,.46,1,1,0,0,0,.12.31.48.48,0,0,0,.19.18.56.56,0,0,0,.26.06.57.57,0,0,0,.26-.06.47.47,0,0,0,.19-.18.93.93,0,0,0,.11-.31,2.48,2.48,0,0,0,0-.46Z" fill="#fff"/><path id="_Compound_Path_17" data-name="&lt;Compound Path&gt;" d="M73.41,21.31H73v-2.7l-.82.3v-.37l1.16-.44h.06Z" fill="#fff"/><path id="_Compound_Path_18" data-name="&lt;Compound Path&gt;" d="M18.7,28.49h-.41v-2.7l-.82.3v-.37l1.16-.44h.06Z" fill="#fff"/><path id="_Compound_Path_19" data-name="&lt;Compound Path&gt;" d="M22.79,27.13a2.67,2.67,0,0,1-.07.66,1.17,1.17,0,0,1-.2.43.75.75,0,0,1-.32.24,1.25,1.25,0,0,1-.83,0,.75.75,0,0,1-.32-.24,1.19,1.19,0,0,1-.2-.43,2.58,2.58,0,0,1-.07-.66v-.49a2.59,2.59,0,0,1,.07-.66,1.14,1.14,0,0,1,.2-.43.75.75,0,0,1,.32-.23,1.27,1.27,0,0,1,.83,0,.75.75,0,0,1,.32.23,1.13,1.13,0,0,1,.2.43,2.63,2.63,0,0,1,.07.66Zm-.41-.56a2.36,2.36,0,0,0,0-.46.88.88,0,0,0-.11-.31.46.46,0,0,0-.19-.17.66.66,0,0,0-.52,0,.45.45,0,0,0-.19.17.91.91,0,0,0-.11.31,2.28,2.28,0,0,0,0,.46v.62a2.32,2.32,0,0,0,0,.46.94.94,0,0,0,.12.31.49.49,0,0,0,.19.18.57.57,0,0,0,.26.06.58.58,0,0,0,.26-.06.48.48,0,0,0,.19-.18.92.92,0,0,0,.11-.31,2.48,2.48,0,0,0,0-.46Z" fill="#fff"/><path id="_Compound_Path_20" data-name="&lt;Compound Path&gt;" d="M25.54,28.49h-.41v-2.7l-.82.3v-.37l1.16-.44h.06Z" fill="#fff"/><path id="_Compound_Path_21" data-name="&lt;Compound Path&gt;" d="M29.62,27.13a2.67,2.67,0,0,1-.07.66,1.17,1.17,0,0,1-.2.43.75.75,0,0,1-.32.24,1.25,1.25,0,0,1-.83,0,.75.75,0,0,1-.32-.24,1.19,1.19,0,0,1-.2-.43,2.58,2.58,0,0,1-.07-.66v-.49a2.59,2.59,0,0,1,.07-.66,1.14,1.14,0,0,1,.2-.43.75.75,0,0,1,.32-.23,1.27,1.27,0,0,1,.83,0,.75.75,0,0,1,.32.23,1.13,1.13,0,0,1,.2.43,2.63,2.63,0,0,1,.07.66Zm-.41-.56a2.36,2.36,0,0,0,0-.46.88.88,0,0,0-.11-.31.46.46,0,0,0-.19-.17.66.66,0,0,0-.52,0,.45.45,0,0,0-.19.17.91.91,0,0,0-.11.31,2.28,2.28,0,0,0,0,.46v.62a2.32,2.32,0,0,0,0,.46.94.94,0,0,0,.12.31.49.49,0,0,0,.19.18.57.57,0,0,0,.26.06.58.58,0,0,0,.26-.06.48.48,0,0,0,.19-.18.92.92,0,0,0,.11-.31,2.48,2.48,0,0,0,0-.46Z" fill="#fff"/><path id="_Compound_Path_22" data-name="&lt;Compound Path&gt;" d="M32.37,28.49H32v-2.7l-.82.3v-.37l1.16-.44h.06Z" fill="#fff"/><path id="_Compound_Path_23" data-name="&lt;Compound Path&gt;" d="M36.46,27.13a2.67,2.67,0,0,1-.07.66,1.17,1.17,0,0,1-.2.43.75.75,0,0,1-.32.24,1.25,1.25,0,0,1-.83,0,.75.75,0,0,1-.32-.24,1.19,1.19,0,0,1-.2-.43,2.58,2.58,0,0,1-.07-.66v-.49a2.59,2.59,0,0,1,.07-.66,1.14,1.14,0,0,1,.2-.43.75.75,0,0,1,.32-.23,1.27,1.27,0,0,1,.83,0,.75.75,0,0,1,.32.23,1.13,1.13,0,0,1,.2.43,2.63,2.63,0,0,1,.07.66Zm-.41-.56a2.36,2.36,0,0,0,0-.46.88.88,0,0,0-.11-.31.46.46,0,0,0-.19-.17.66.66,0,0,0-.52,0,.45.45,0,0,0-.19.17.91.91,0,0,0-.11.31,2.28,2.28,0,0,0,0,.46v.62a2.32,2.32,0,0,0,0,.46A.94.94,0,0,0,35,28a.49.49,0,0,0,.19.18.57.57,0,0,0,.26.06.58.58,0,0,0,.26-.06.48.48,0,0,0,.19-.18.92.92,0,0,0,.11-.31,2.48,2.48,0,0,0,0-.46Z" fill="#fff"/><path id="_Compound_Path_24" data-name="&lt;Compound Path&gt;" d="M39.21,28.49h-.41v-2.7l-.82.3v-.37l1.16-.44h.06Z" fill="#fff"/><path id="_Compound_Path_25" data-name="&lt;Compound Path&gt;" d="M43.3,27.13a2.67,2.67,0,0,1-.07.66,1.17,1.17,0,0,1-.2.43.75.75,0,0,1-.32.24,1.25,1.25,0,0,1-.83,0,.75.75,0,0,1-.32-.24,1.19,1.19,0,0,1-.2-.43,2.58,2.58,0,0,1-.07-.66v-.49a2.59,2.59,0,0,1,.07-.66,1.14,1.14,0,0,1,.2-.43.75.75,0,0,1,.32-.23,1.27,1.27,0,0,1,.83,0,.75.75,0,0,1,.32.23,1.13,1.13,0,0,1,.2.43,2.63,2.63,0,0,1,.07.66Zm-.41-.56a2.36,2.36,0,0,0,0-.46.88.88,0,0,0-.11-.31.46.46,0,0,0-.19-.17.66.66,0,0,0-.52,0,.45.45,0,0,0-.19.17.91.91,0,0,0-.11.31,2.28,2.28,0,0,0,0,.46v.62a2.32,2.32,0,0,0,0,.46.94.94,0,0,0,.12.31.49.49,0,0,0,.19.18.57.57,0,0,0,.26.06.58.58,0,0,0,.26-.06.48.48,0,0,0,.19-.18.92.92,0,0,0,.11-.31,2.48,2.48,0,0,0,0-.46Z" fill="#fff"/><path id="_Compound_Path_26" data-name="&lt;Compound Path&gt;" d="M46.05,28.49h-.41v-2.7l-.82.3v-.37L46,25.29h.06Z" fill="#fff"/><path id="_Compound_Path_27" data-name="&lt;Compound Path&gt;" d="M50.14,27.13a2.67,2.67,0,0,1-.07.66,1.17,1.17,0,0,1-.2.43.75.75,0,0,1-.32.24,1.25,1.25,0,0,1-.83,0,.75.75,0,0,1-.32-.24,1.19,1.19,0,0,1-.2-.43,2.58,2.58,0,0,1-.07-.66v-.49A2.59,2.59,0,0,1,48.2,26a1.14,1.14,0,0,1,.2-.43.75.75,0,0,1,.32-.23,1.27,1.27,0,0,1,.83,0,.75.75,0,0,1,.32.23,1.13,1.13,0,0,1,.2.43,2.63,2.63,0,0,1,.07.66Zm-.41-.56a2.36,2.36,0,0,0,0-.46.88.88,0,0,0-.11-.31.46.46,0,0,0-.19-.17.66.66,0,0,0-.52,0,.45.45,0,0,0-.19.17.91.91,0,0,0-.11.31,2.28,2.28,0,0,0,0,.46v.62a2.32,2.32,0,0,0,0,.46.94.94,0,0,0,.12.31.49.49,0,0,0,.19.18.57.57,0,0,0,.26.06.58.58,0,0,0,.26-.06.48.48,0,0,0,.19-.18.92.92,0,0,0,.11-.31,2.48,2.48,0,0,0,0-.46Z" fill="#fff"/><path id="_Compound_Path_28" data-name="&lt;Compound Path&gt;" d="M52.89,28.49h-.41v-2.7l-.82.3v-.37l1.16-.44h.06Z" fill="#fff"/><path id="_Compound_Path_29" data-name="&lt;Compound Path&gt;" d="M57,27.13a2.67,2.67,0,0,1-.07.66,1.17,1.17,0,0,1-.2.43.75.75,0,0,1-.32.24,1.25,1.25,0,0,1-.83,0,.75.75,0,0,1-.32-.24,1.19,1.19,0,0,1-.2-.43,2.58,2.58,0,0,1-.07-.66v-.49A2.59,2.59,0,0,1,55,26a1.14,1.14,0,0,1,.2-.43.75.75,0,0,1,.32-.23,1.27,1.27,0,0,1,.83,0,.75.75,0,0,1,.32.23,1.13,1.13,0,0,1,.2.43,2.63,2.63,0,0,1,.07.66Zm-.41-.56a2.36,2.36,0,0,0,0-.46.88.88,0,0,0-.11-.31.46.46,0,0,0-.19-.17.66.66,0,0,0-.52,0,.45.45,0,0,0-.19.17.91.91,0,0,0-.11.31,2.28,2.28,0,0,0,0,.46v.62a2.32,2.32,0,0,0,0,.46.94.94,0,0,0,.12.31.49.49,0,0,0,.19.18.57.57,0,0,0,.26.06.58.58,0,0,0,.26-.06.48.48,0,0,0,.19-.18.92.92,0,0,0,.11-.31,2.48,2.48,0,0,0,0-.46Z" fill="#fff"/><path id="_Compound_Path_30" data-name="&lt;Compound Path&gt;" d="M59.73,28.49h-.41v-2.7l-.82.3v-.37l1.16-.44h.06Z" fill="#fff"/><path id="_Compound_Path_31" data-name="&lt;Compound Path&gt;" d="M63.82,27.13a2.67,2.67,0,0,1-.07.66,1.17,1.17,0,0,1-.2.43.75.75,0,0,1-.32.24,1.25,1.25,0,0,1-.83,0,.75.75,0,0,1-.32-.24,1.19,1.19,0,0,1-.2-.43,2.58,2.58,0,0,1-.07-.66v-.49a2.59,2.59,0,0,1,.07-.66,1.14,1.14,0,0,1,.2-.43.75.75,0,0,1,.32-.23,1.27,1.27,0,0,1,.83,0,.75.75,0,0,1,.32.23,1.13,1.13,0,0,1,.2.43,2.63,2.63,0,0,1,.07.66Zm-.41-.56a2.36,2.36,0,0,0,0-.46.88.88,0,0,0-.11-.31.46.46,0,0,0-.19-.17.66.66,0,0,0-.52,0,.45.45,0,0,0-.19.17.91.91,0,0,0-.11.31,2.28,2.28,0,0,0,0,.46v.62a2.32,2.32,0,0,0,0,.46.94.94,0,0,0,.12.31.49.49,0,0,0,.19.18.57.57,0,0,0,.26.06.58.58,0,0,0,.26-.06.48.48,0,0,0,.19-.18.92.92,0,0,0,.11-.31,2.48,2.48,0,0,0,0-.46Z" fill="#fff"/><path id="_Compound_Path_32" data-name="&lt;Compound Path&gt;" d="M66.57,28.49h-.41v-2.7l-.82.3v-.37l1.16-.44h.06Z" fill="#fff"/><path id="_Compound_Path_33" data-name="&lt;Compound Path&gt;" d="M70.66,27.13a2.67,2.67,0,0,1-.07.66,1.17,1.17,0,0,1-.2.43.75.75,0,0,1-.32.24,1.25,1.25,0,0,1-.83,0,.75.75,0,0,1-.32-.24,1.19,1.19,0,0,1-.2-.43,2.58,2.58,0,0,1-.07-.66v-.49a2.59,2.59,0,0,1,.07-.66,1.14,1.14,0,0,1,.2-.43.75.75,0,0,1,.32-.23,1.27,1.27,0,0,1,.83,0,.75.75,0,0,1,.32.23,1.13,1.13,0,0,1,.2.43,2.63,2.63,0,0,1,.07.66Zm-.41-.56a2.36,2.36,0,0,0,0-.46.88.88,0,0,0-.11-.31.46.46,0,0,0-.19-.17.66.66,0,0,0-.52,0,.45.45,0,0,0-.19.17.91.91,0,0,0-.11.31,2.28,2.28,0,0,0,0,.46v.62a2.32,2.32,0,0,0,0,.46.94.94,0,0,0,.12.31.49.49,0,0,0,.19.18.57.57,0,0,0,.26.06.58.58,0,0,0,.26-.06A.48.48,0,0,0,70.1,28a.92.92,0,0,0,.11-.31,2.48,2.48,0,0,0,0-.46Z" fill="#fff"/><path id="_Compound_Path_34" data-name="&lt;Compound Path&gt;" d="M73.41,28.49H73v-2.7l-.82.3v-.37l1.16-.44h.06Z" fill="#fff"/><path id="_Compound_Path_35" data-name="&lt;Compound Path&gt;" d="M18.7,35.68h-.41V33l-.82.3v-.37l1.16-.44h.06Z" fill="#fff"/><path id="_Compound_Path_36" data-name="&lt;Compound Path&gt;" d="M22.79,34.32a2.67,2.67,0,0,1-.07.66,1.17,1.17,0,0,1-.2.43.75.75,0,0,1-.32.24,1.25,1.25,0,0,1-.83,0,.75.75,0,0,1-.32-.24,1.19,1.19,0,0,1-.2-.43,2.58,2.58,0,0,1-.07-.66v-.49a2.59,2.59,0,0,1,.07-.66,1.14,1.14,0,0,1,.2-.43.74.74,0,0,1,.32-.23,1.27,1.27,0,0,1,.83,0,.74.74,0,0,1,.32.23,1.13,1.13,0,0,1,.2.43,2.63,2.63,0,0,1,.07.66Zm-.41-.56a2.36,2.36,0,0,0,0-.46.88.88,0,0,0-.11-.31.46.46,0,0,0-.19-.17.66.66,0,0,0-.52,0,.45.45,0,0,0-.19.17.91.91,0,0,0-.11.31,2.28,2.28,0,0,0,0,.46v.62a2.32,2.32,0,0,0,0,.46.94.94,0,0,0,.12.31.49.49,0,0,0,.19.18.57.57,0,0,0,.26.06.58.58,0,0,0,.26-.06.48.48,0,0,0,.19-.18.92.92,0,0,0,.11-.31,2.48,2.48,0,0,0,0-.46Z" fill="#fff"/><path id="_Compound_Path_37" data-name="&lt;Compound Path&gt;" d="M25.54,35.68h-.41V33l-.82.3v-.37l1.16-.44h.06Z" fill="#fff"/><path id="_Compound_Path_38" data-name="&lt;Compound Path&gt;" d="M29.62,34.32a2.67,2.67,0,0,1-.07.66,1.17,1.17,0,0,1-.2.43.75.75,0,0,1-.32.24,1.25,1.25,0,0,1-.83,0,.75.75,0,0,1-.32-.24,1.19,1.19,0,0,1-.2-.43,2.58,2.58,0,0,1-.07-.66v-.49a2.59,2.59,0,0,1,.07-.66,1.14,1.14,0,0,1,.2-.43.74.74,0,0,1,.32-.23,1.27,1.27,0,0,1,.83,0,.74.74,0,0,1,.32.23,1.13,1.13,0,0,1,.2.43,2.63,2.63,0,0,1,.07.66Zm-.41-.56a2.36,2.36,0,0,0,0-.46.88.88,0,0,0-.11-.31.46.46,0,0,0-.19-.17.66.66,0,0,0-.52,0,.45.45,0,0,0-.19.17.91.91,0,0,0-.11.31,2.28,2.28,0,0,0,0,.46v.62a2.32,2.32,0,0,0,0,.46.94.94,0,0,0,.12.31.49.49,0,0,0,.19.18.57.57,0,0,0,.26.06.58.58,0,0,0,.26-.06.48.48,0,0,0,.19-.18.92.92,0,0,0,.11-.31,2.48,2.48,0,0,0,0-.46Z" fill="#fff"/><path id="_Compound_Path_39" data-name="&lt;Compound Path&gt;" d="M32.37,35.68H32V33l-.82.3v-.37l1.16-.44h.06Z" fill="#fff"/><path id="_Compound_Path_40" data-name="&lt;Compound Path&gt;" d="M36.46,34.32a2.67,2.67,0,0,1-.07.66,1.17,1.17,0,0,1-.2.43.75.75,0,0,1-.32.24,1.25,1.25,0,0,1-.83,0,.75.75,0,0,1-.32-.24,1.19,1.19,0,0,1-.2-.43,2.58,2.58,0,0,1-.07-.66v-.49a2.59,2.59,0,0,1,.07-.66,1.14,1.14,0,0,1,.2-.43.74.74,0,0,1,.32-.23,1.27,1.27,0,0,1,.83,0,.74.74,0,0,1,.32.23,1.13,1.13,0,0,1,.2.43,2.63,2.63,0,0,1,.07.66Zm-.41-.56a2.36,2.36,0,0,0,0-.46A.88.88,0,0,0,35.9,33a.46.46,0,0,0-.19-.17.66.66,0,0,0-.52,0A.45.45,0,0,0,35,33a.91.91,0,0,0-.11.31,2.28,2.28,0,0,0,0,.46v.62a2.32,2.32,0,0,0,0,.46.94.94,0,0,0,.12.31.49.49,0,0,0,.19.18.57.57,0,0,0,.26.06.58.58,0,0,0,.26-.06.48.48,0,0,0,.19-.18.92.92,0,0,0,.11-.31,2.48,2.48,0,0,0,0-.46Z" fill="#fff"/><path id="_Compound_Path_41" data-name="&lt;Compound Path&gt;" d="M39.21,35.68h-.41V33l-.82.3v-.37l1.16-.44h.06Z" fill="#fff"/><path id="_Compound_Path_42" data-name="&lt;Compound Path&gt;" d="M43.3,34.32a2.67,2.67,0,0,1-.07.66,1.17,1.17,0,0,1-.2.43.75.75,0,0,1-.32.24,1.25,1.25,0,0,1-.83,0,.75.75,0,0,1-.32-.24,1.19,1.19,0,0,1-.2-.43,2.58,2.58,0,0,1-.07-.66v-.49a2.59,2.59,0,0,1,.07-.66,1.14,1.14,0,0,1,.2-.43.74.74,0,0,1,.32-.23,1.27,1.27,0,0,1,.83,0,.74.74,0,0,1,.32.23,1.13,1.13,0,0,1,.2.43,2.63,2.63,0,0,1,.07.66Zm-.41-.56a2.36,2.36,0,0,0,0-.46.88.88,0,0,0-.11-.31.46.46,0,0,0-.19-.17.66.66,0,0,0-.52,0,.45.45,0,0,0-.19.17.91.91,0,0,0-.11.31,2.28,2.28,0,0,0,0,.46v.62a2.32,2.32,0,0,0,0,.46.94.94,0,0,0,.12.31.49.49,0,0,0,.19.18.57.57,0,0,0,.26.06.58.58,0,0,0,.26-.06.48.48,0,0,0,.19-.18.92.92,0,0,0,.11-.31,2.48,2.48,0,0,0,0-.46Z" fill="#fff"/><path id="_Compound_Path_43" data-name="&lt;Compound Path&gt;" d="M46.05,35.68h-.41V33l-.82.3v-.37L46,32.47h.06Z" fill="#fff"/><path id="_Compound_Path_44" data-name="&lt;Compound Path&gt;" d="M50.14,34.32a2.67,2.67,0,0,1-.07.66,1.17,1.17,0,0,1-.2.43.75.75,0,0,1-.32.24,1.25,1.25,0,0,1-.83,0,.75.75,0,0,1-.32-.24,1.19,1.19,0,0,1-.2-.43,2.58,2.58,0,0,1-.07-.66v-.49a2.59,2.59,0,0,1,.07-.66,1.14,1.14,0,0,1,.2-.43.74.74,0,0,1,.32-.23,1.27,1.27,0,0,1,.83,0,.74.74,0,0,1,.32.23,1.13,1.13,0,0,1,.2.43,2.63,2.63,0,0,1,.07.66Zm-.41-.56a2.36,2.36,0,0,0,0-.46.88.88,0,0,0-.11-.31.46.46,0,0,0-.19-.17.66.66,0,0,0-.52,0,.45.45,0,0,0-.19.17.91.91,0,0,0-.11.31,2.28,2.28,0,0,0,0,.46v.62a2.32,2.32,0,0,0,0,.46.94.94,0,0,0,.12.31.49.49,0,0,0,.19.18.57.57,0,0,0,.26.06.58.58,0,0,0,.26-.06.48.48,0,0,0,.19-.18.92.92,0,0,0,.11-.31,2.48,2.48,0,0,0,0-.46Z" fill="#fff"/><path id="_Compound_Path_45" data-name="&lt;Compound Path&gt;" d="M52.89,35.68h-.41V33l-.82.3v-.37l1.16-.44h.06Z" fill="#fff"/><path id="_Compound_Path_46" data-name="&lt;Compound Path&gt;" d="M57,34.32a2.67,2.67,0,0,1-.07.66,1.17,1.17,0,0,1-.2.43.75.75,0,0,1-.32.24,1.25,1.25,0,0,1-.83,0,.75.75,0,0,1-.32-.24A1.19,1.19,0,0,1,55,35a2.58,2.58,0,0,1-.07-.66v-.49a2.59,2.59,0,0,1,.07-.66,1.14,1.14,0,0,1,.2-.43.74.74,0,0,1,.32-.23,1.27,1.27,0,0,1,.83,0,.74.74,0,0,1,.32.23,1.13,1.13,0,0,1,.2.43,2.63,2.63,0,0,1,.07.66Zm-.41-.56a2.36,2.36,0,0,0,0-.46.88.88,0,0,0-.11-.31.46.46,0,0,0-.19-.17.66.66,0,0,0-.52,0,.45.45,0,0,0-.19.17.91.91,0,0,0-.11.31,2.28,2.28,0,0,0,0,.46v.62a2.32,2.32,0,0,0,0,.46.94.94,0,0,0,.12.31.49.49,0,0,0,.19.18.57.57,0,0,0,.26.06.58.58,0,0,0,.26-.06.48.48,0,0,0,.19-.18.92.92,0,0,0,.11-.31,2.48,2.48,0,0,0,0-.46Z" fill="#fff"/><path id="_Compound_Path_47" data-name="&lt;Compound Path&gt;" d="M59.73,35.68h-.41V33l-.82.3v-.37l1.16-.44h.06Z" fill="#fff"/><path id="_Compound_Path_48" data-name="&lt;Compound Path&gt;" d="M63.82,34.32a2.67,2.67,0,0,1-.07.66,1.17,1.17,0,0,1-.2.43.75.75,0,0,1-.32.24,1.25,1.25,0,0,1-.83,0,.75.75,0,0,1-.32-.24,1.19,1.19,0,0,1-.2-.43,2.58,2.58,0,0,1-.07-.66v-.49a2.59,2.59,0,0,1,.07-.66,1.14,1.14,0,0,1,.2-.43.74.74,0,0,1,.32-.23,1.27,1.27,0,0,1,.83,0,.74.74,0,0,1,.32.23,1.13,1.13,0,0,1,.2.43,2.63,2.63,0,0,1,.07.66Zm-.41-.56a2.36,2.36,0,0,0,0-.46.88.88,0,0,0-.11-.31.46.46,0,0,0-.19-.17.66.66,0,0,0-.52,0,.45.45,0,0,0-.19.17.91.91,0,0,0-.11.31,2.28,2.28,0,0,0,0,.46v.62a2.32,2.32,0,0,0,0,.46.94.94,0,0,0,.12.31.49.49,0,0,0,.19.18.57.57,0,0,0,.26.06.58.58,0,0,0,.26-.06.48.48,0,0,0,.19-.18.92.92,0,0,0,.11-.31,2.48,2.48,0,0,0,0-.46Z" fill="#fff"/><path id="_Compound_Path_49" data-name="&lt;Compound Path&gt;" d="M66.57,35.68h-.41V33l-.82.3v-.37l1.16-.44h.06Z" fill="#fff"/><path id="_Compound_Path_50" data-name="&lt;Compound Path&gt;" d="M70.66,34.32a2.67,2.67,0,0,1-.07.66,1.17,1.17,0,0,1-.2.43.75.75,0,0,1-.32.24,1.25,1.25,0,0,1-.83,0,.75.75,0,0,1-.32-.24,1.19,1.19,0,0,1-.2-.43,2.58,2.58,0,0,1-.07-.66v-.49a2.59,2.59,0,0,1,.07-.66,1.14,1.14,0,0,1,.2-.43.74.74,0,0,1,.32-.23,1.27,1.27,0,0,1,.83,0,.74.74,0,0,1,.32.23,1.13,1.13,0,0,1,.2.43,2.63,2.63,0,0,1,.07.66Zm-.41-.56a2.36,2.36,0,0,0,0-.46A.88.88,0,0,0,70.1,33a.46.46,0,0,0-.19-.17.66.66,0,0,0-.52,0,.45.45,0,0,0-.19.17.91.91,0,0,0-.11.31,2.28,2.28,0,0,0,0,.46v.62a2.32,2.32,0,0,0,0,.46.94.94,0,0,0,.12.31.49.49,0,0,0,.19.18.57.57,0,0,0,.26.06.58.58,0,0,0,.26-.06.48.48,0,0,0,.19-.18.92.92,0,0,0,.11-.31,2.48,2.48,0,0,0,0-.46Z" fill="#fff"/><path id="_Compound_Path_51" data-name="&lt;Compound Path&gt;" d="M73.41,35.68H73V33l-.82.3v-.37l1.16-.44h.06Z" fill="#fff"/><path id="_Compound_Path_52" data-name="&lt;Compound Path&gt;" d="M18.7,42.86h-.41v-2.7l-.82.3v-.37l1.16-.44h.06Z" fill="#fff"/><path id="_Compound_Path_53" data-name="&lt;Compound Path&gt;" d="M22.79,41.5a2.67,2.67,0,0,1-.07.66,1.17,1.17,0,0,1-.2.43.75.75,0,0,1-.32.24,1.25,1.25,0,0,1-.83,0A.75.75,0,0,1,21,42.6a1.19,1.19,0,0,1-.2-.43,2.58,2.58,0,0,1-.07-.66V41a2.59,2.59,0,0,1,.07-.66,1.14,1.14,0,0,1,.2-.43.74.74,0,0,1,.32-.23,1.27,1.27,0,0,1,.83,0,.74.74,0,0,1,.32.23,1.13,1.13,0,0,1,.2.43,2.63,2.63,0,0,1,.07.66Zm-.41-.56a2.36,2.36,0,0,0,0-.46.88.88,0,0,0-.11-.31A.46.46,0,0,0,22,40a.66.66,0,0,0-.52,0,.45.45,0,0,0-.19.17.91.91,0,0,0-.11.31,2.28,2.28,0,0,0,0,.46v.62a2.32,2.32,0,0,0,0,.46.94.94,0,0,0,.12.31.49.49,0,0,0,.19.18.57.57,0,0,0,.26.06.58.58,0,0,0,.26-.06.48.48,0,0,0,.19-.18.92.92,0,0,0,.11-.31,2.48,2.48,0,0,0,0-.46Z" fill="#fff"/><path id="_Compound_Path_54" data-name="&lt;Compound Path&gt;" d="M25.54,42.86h-.41v-2.7l-.82.3v-.37l1.16-.44h.06Z" fill="#fff"/><path id="_Compound_Path_55" data-name="&lt;Compound Path&gt;" d="M29.62,41.5a2.67,2.67,0,0,1-.07.66,1.17,1.17,0,0,1-.2.43.75.75,0,0,1-.32.24,1.25,1.25,0,0,1-.83,0,.75.75,0,0,1-.32-.24,1.19,1.19,0,0,1-.2-.43,2.58,2.58,0,0,1-.07-.66V41a2.59,2.59,0,0,1,.07-.66,1.14,1.14,0,0,1,.2-.43.74.74,0,0,1,.32-.23,1.27,1.27,0,0,1,.83,0,.74.74,0,0,1,.32.23,1.13,1.13,0,0,1,.2.43,2.63,2.63,0,0,1,.07.66Zm-.41-.56a2.36,2.36,0,0,0,0-.46.88.88,0,0,0-.11-.31.46.46,0,0,0-.19-.17.66.66,0,0,0-.52,0,.45.45,0,0,0-.19.17.91.91,0,0,0-.11.31,2.28,2.28,0,0,0,0,.46v.62a2.32,2.32,0,0,0,0,.46.94.94,0,0,0,.12.31.49.49,0,0,0,.19.18.57.57,0,0,0,.26.06.58.58,0,0,0,.26-.06.48.48,0,0,0,.19-.18.92.92,0,0,0,.11-.31,2.48,2.48,0,0,0,0-.46Z" fill="#fff"/><path id="_Compound_Path_56" data-name="&lt;Compound Path&gt;" d="M32.37,42.86H32v-2.7l-.82.3v-.37l1.16-.44h.06Z" fill="#fff"/><path id="_Compound_Path_57" data-name="&lt;Compound Path&gt;" d="M36.46,41.5a2.67,2.67,0,0,1-.07.66,1.17,1.17,0,0,1-.2.43.75.75,0,0,1-.32.24,1.25,1.25,0,0,1-.83,0,.75.75,0,0,1-.32-.24,1.19,1.19,0,0,1-.2-.43,2.58,2.58,0,0,1-.07-.66V41a2.59,2.59,0,0,1,.07-.66,1.14,1.14,0,0,1,.2-.43A.74.74,0,0,1,35,39.7a1.27,1.27,0,0,1,.83,0,.74.74,0,0,1,.32.23,1.13,1.13,0,0,1,.2.43,2.63,2.63,0,0,1,.07.66Zm-.41-.56a2.36,2.36,0,0,0,0-.46.88.88,0,0,0-.11-.31.46.46,0,0,0-.19-.17.66.66,0,0,0-.52,0,.45.45,0,0,0-.19.17.91.91,0,0,0-.11.31,2.28,2.28,0,0,0,0,.46v.62a2.32,2.32,0,0,0,0,.46.94.94,0,0,0,.12.31.49.49,0,0,0,.19.18.57.57,0,0,0,.26.06.58.58,0,0,0,.26-.06.48.48,0,0,0,.19-.18A.92.92,0,0,0,36,42a2.48,2.48,0,0,0,0-.46Z" fill="#fff"/><path id="_Compound_Path_58" data-name="&lt;Compound Path&gt;" d="M39.21,42.86h-.41v-2.7l-.82.3v-.37l1.16-.44h.06Z" fill="#fff"/><path id="_Compound_Path_59" data-name="&lt;Compound Path&gt;" d="M43.3,41.5a2.67,2.67,0,0,1-.07.66,1.17,1.17,0,0,1-.2.43.75.75,0,0,1-.32.24,1.25,1.25,0,0,1-.83,0,.75.75,0,0,1-.32-.24,1.19,1.19,0,0,1-.2-.43,2.58,2.58,0,0,1-.07-.66V41a2.59,2.59,0,0,1,.07-.66,1.14,1.14,0,0,1,.2-.43.74.74,0,0,1,.32-.23,1.27,1.27,0,0,1,.83,0,.74.74,0,0,1,.32.23,1.13,1.13,0,0,1,.2.43,2.63,2.63,0,0,1,.07.66Zm-.41-.56a2.36,2.36,0,0,0,0-.46.88.88,0,0,0-.11-.31.46.46,0,0,0-.19-.17A.66.66,0,0,0,42,40a.45.45,0,0,0-.19.17.91.91,0,0,0-.11.31,2.28,2.28,0,0,0,0,.46v.62a2.32,2.32,0,0,0,0,.46.94.94,0,0,0,.12.31.49.49,0,0,0,.19.18.57.57,0,0,0,.26.06.58.58,0,0,0,.26-.06.48.48,0,0,0,.19-.18.92.92,0,0,0,.11-.31,2.48,2.48,0,0,0,0-.46Z" fill="#fff"/><path id="_Compound_Path_60" data-name="&lt;Compound Path&gt;" d="M46.05,42.86h-.41v-2.7l-.82.3v-.37L46,39.66h.06Z" fill="#fff"/><path id="_Compound_Path_61" data-name="&lt;Compound Path&gt;" d="M50.14,41.5a2.67,2.67,0,0,1-.07.66,1.17,1.17,0,0,1-.2.43.75.75,0,0,1-.32.24,1.25,1.25,0,0,1-.83,0,.75.75,0,0,1-.32-.24,1.19,1.19,0,0,1-.2-.43,2.58,2.58,0,0,1-.07-.66V41a2.59,2.59,0,0,1,.07-.66,1.14,1.14,0,0,1,.2-.43.74.74,0,0,1,.32-.23,1.27,1.27,0,0,1,.83,0,.74.74,0,0,1,.32.23,1.13,1.13,0,0,1,.2.43,2.63,2.63,0,0,1,.07.66Zm-.41-.56a2.36,2.36,0,0,0,0-.46.88.88,0,0,0-.11-.31.46.46,0,0,0-.19-.17.66.66,0,0,0-.52,0,.45.45,0,0,0-.19.17.91.91,0,0,0-.11.31,2.28,2.28,0,0,0,0,.46v.62a2.32,2.32,0,0,0,0,.46.94.94,0,0,0,.12.31.49.49,0,0,0,.19.18.57.57,0,0,0,.26.06.58.58,0,0,0,.26-.06.48.48,0,0,0,.19-.18A.92.92,0,0,0,49.7,42a2.48,2.48,0,0,0,0-.46Z" fill="#fff"/><path id="_Compound_Path_62" data-name="&lt;Compound Path&gt;" d="M52.89,42.86h-.41v-2.7l-.82.3v-.37l1.16-.44h.06Z" fill="#fff"/><path id="_Compound_Path_63" data-name="&lt;Compound Path&gt;" d="M57,41.5a2.67,2.67,0,0,1-.07.66,1.17,1.17,0,0,1-.2.43.75.75,0,0,1-.32.24,1.25,1.25,0,0,1-.83,0,.75.75,0,0,1-.32-.24,1.19,1.19,0,0,1-.2-.43A2.58,2.58,0,0,1,55,41.5V41a2.59,2.59,0,0,1,.07-.66,1.14,1.14,0,0,1,.2-.43.74.74,0,0,1,.32-.23,1.27,1.27,0,0,1,.83,0,.74.74,0,0,1,.32.23,1.13,1.13,0,0,1,.2.43A2.63,2.63,0,0,1,57,41Zm-.41-.56a2.36,2.36,0,0,0,0-.46.88.88,0,0,0-.11-.31.46.46,0,0,0-.19-.17.66.66,0,0,0-.52,0,.45.45,0,0,0-.19.17.91.91,0,0,0-.11.31,2.28,2.28,0,0,0,0,.46v.62a2.32,2.32,0,0,0,0,.46.94.94,0,0,0,.12.31.49.49,0,0,0,.19.18.57.57,0,0,0,.26.06.58.58,0,0,0,.26-.06.48.48,0,0,0,.19-.18.92.92,0,0,0,.11-.31,2.48,2.48,0,0,0,0-.46Z" fill="#fff"/><path id="_Compound_Path_64" data-name="&lt;Compound Path&gt;" d="M59.73,42.86h-.41v-2.7l-.82.3v-.37l1.16-.44h.06Z" fill="#fff"/><path id="_Compound_Path_65" data-name="&lt;Compound Path&gt;" d="M63.82,41.5a2.67,2.67,0,0,1-.07.66,1.17,1.17,0,0,1-.2.43.75.75,0,0,1-.32.24,1.25,1.25,0,0,1-.83,0,.75.75,0,0,1-.32-.24,1.19,1.19,0,0,1-.2-.43,2.58,2.58,0,0,1-.07-.66V41a2.59,2.59,0,0,1,.07-.66,1.14,1.14,0,0,1,.2-.43.74.74,0,0,1,.32-.23,1.27,1.27,0,0,1,.83,0,.74.74,0,0,1,.32.23,1.13,1.13,0,0,1,.2.43,2.63,2.63,0,0,1,.07.66Zm-.41-.56a2.36,2.36,0,0,0,0-.46.88.88,0,0,0-.11-.31.46.46,0,0,0-.19-.17.66.66,0,0,0-.52,0,.45.45,0,0,0-.19.17.91.91,0,0,0-.11.31,2.28,2.28,0,0,0,0,.46v.62a2.32,2.32,0,0,0,0,.46.94.94,0,0,0,.12.31.49.49,0,0,0,.19.18.57.57,0,0,0,.26.06.58.58,0,0,0,.26-.06.48.48,0,0,0,.19-.18.92.92,0,0,0,.11-.31,2.48,2.48,0,0,0,0-.46Z" fill="#fff"/><path id="_Compound_Path_66" data-name="&lt;Compound Path&gt;" d="M66.57,42.86h-.41v-2.7l-.82.3v-.37l1.16-.44h.06Z" fill="#fff"/><path id="_Compound_Path_67" data-name="&lt;Compound Path&gt;" d="M70.66,41.5a2.67,2.67,0,0,1-.07.66,1.17,1.17,0,0,1-.2.43.75.75,0,0,1-.32.24,1.25,1.25,0,0,1-.83,0,.75.75,0,0,1-.32-.24,1.19,1.19,0,0,1-.2-.43,2.58,2.58,0,0,1-.07-.66V41a2.59,2.59,0,0,1,.07-.66,1.14,1.14,0,0,1,.2-.43.74.74,0,0,1,.32-.23,1.27,1.27,0,0,1,.83,0,.74.74,0,0,1,.32.23,1.13,1.13,0,0,1,.2.43,2.63,2.63,0,0,1,.07.66Zm-.41-.56a2.36,2.36,0,0,0,0-.46.88.88,0,0,0-.11-.31.46.46,0,0,0-.19-.17.66.66,0,0,0-.52,0,.45.45,0,0,0-.19.17.91.91,0,0,0-.11.31,2.28,2.28,0,0,0,0,.46v.62a2.32,2.32,0,0,0,0,.46.94.94,0,0,0,.12.31.49.49,0,0,0,.19.18.57.57,0,0,0,.26.06.58.58,0,0,0,.26-.06.48.48,0,0,0,.19-.18.92.92,0,0,0,.11-.31,2.48,2.48,0,0,0,0-.46Z" fill="#fff"/><path id="_Compound_Path_68" data-name="&lt;Compound Path&gt;" d="M73.41,42.86H73v-2.7l-.82.3v-.37l1.16-.44h.06Z" fill="#fff"/><path id="_Compound_Path_69" data-name="&lt;Compound Path&gt;" d="M18.7,50h-.41v-2.7l-.82.3v-.37l1.16-.44h.06Z" fill="#fff"/><path id="_Compound_Path_70" data-name="&lt;Compound Path&gt;" d="M22.79,48.69a2.67,2.67,0,0,1-.07.66,1.17,1.17,0,0,1-.2.43.75.75,0,0,1-.32.24,1.25,1.25,0,0,1-.83,0,.75.75,0,0,1-.32-.24,1.19,1.19,0,0,1-.2-.43,2.58,2.58,0,0,1-.07-.66V48.2a2.59,2.59,0,0,1,.07-.66,1.14,1.14,0,0,1,.2-.43.74.74,0,0,1,.32-.23,1.27,1.27,0,0,1,.83,0,.74.74,0,0,1,.32.23,1.13,1.13,0,0,1,.2.43,2.63,2.63,0,0,1,.07.66Zm-.41-.56a2.36,2.36,0,0,0,0-.46.88.88,0,0,0-.11-.31A.46.46,0,0,0,22,47.2a.66.66,0,0,0-.52,0,.45.45,0,0,0-.19.17.91.91,0,0,0-.11.31,2.28,2.28,0,0,0,0,.46v.62a2.32,2.32,0,0,0,0,.46.94.94,0,0,0,.12.31.49.49,0,0,0,.19.18.57.57,0,0,0,.26.06A.58.58,0,0,0,22,49.7a.48.48,0,0,0,.19-.18.92.92,0,0,0,.11-.31,2.48,2.48,0,0,0,0-.46Z" fill="#fff"/><path id="_Compound_Path_71" data-name="&lt;Compound Path&gt;" d="M25.54,50h-.41v-2.7l-.82.3v-.37l1.16-.44h.06Z" fill="#fff"/><path id="_Compound_Path_72" data-name="&lt;Compound Path&gt;" d="M29.62,48.69a2.67,2.67,0,0,1-.07.66,1.17,1.17,0,0,1-.2.43A.75.75,0,0,1,29,50a1.25,1.25,0,0,1-.83,0,.75.75,0,0,1-.32-.24,1.19,1.19,0,0,1-.2-.43,2.58,2.58,0,0,1-.07-.66V48.2a2.59,2.59,0,0,1,.07-.66,1.14,1.14,0,0,1,.2-.43.74.74,0,0,1,.32-.23,1.27,1.27,0,0,1,.83,0,.74.74,0,0,1,.32.23,1.13,1.13,0,0,1,.2.43,2.63,2.63,0,0,1,.07.66Zm-.41-.56a2.36,2.36,0,0,0,0-.46.88.88,0,0,0-.11-.31.46.46,0,0,0-.19-.17.66.66,0,0,0-.52,0,.45.45,0,0,0-.19.17.91.91,0,0,0-.11.31,2.28,2.28,0,0,0,0,.46v.62a2.32,2.32,0,0,0,0,.46.94.94,0,0,0,.12.31.49.49,0,0,0,.19.18.57.57,0,0,0,.26.06.58.58,0,0,0,.26-.06.48.48,0,0,0,.19-.18.92.92,0,0,0,.11-.31,2.48,2.48,0,0,0,0-.46Z" fill="#fff"/><path id="_Compound_Path_73" data-name="&lt;Compound Path&gt;" d="M32.37,50H32v-2.7l-.82.3v-.37l1.16-.44h.06Z" fill="#fff"/><path id="_Compound_Path_74" data-name="&lt;Compound Path&gt;" d="M36.46,48.69a2.67,2.67,0,0,1-.07.66,1.17,1.17,0,0,1-.2.43.75.75,0,0,1-.32.24A1.25,1.25,0,0,1,35,50a.75.75,0,0,1-.32-.24,1.19,1.19,0,0,1-.2-.43,2.58,2.58,0,0,1-.07-.66V48.2a2.59,2.59,0,0,1,.07-.66,1.14,1.14,0,0,1,.2-.43.74.74,0,0,1,.32-.23,1.27,1.27,0,0,1,.83,0,.74.74,0,0,1,.32.23,1.13,1.13,0,0,1,.2.43,2.63,2.63,0,0,1,.07.66Zm-.41-.56a2.36,2.36,0,0,0,0-.46.88.88,0,0,0-.11-.31.46.46,0,0,0-.19-.17.66.66,0,0,0-.52,0,.45.45,0,0,0-.19.17.91.91,0,0,0-.11.31,2.28,2.28,0,0,0,0,.46v.62a2.32,2.32,0,0,0,0,.46.94.94,0,0,0,.12.31.49.49,0,0,0,.19.18.57.57,0,0,0,.26.06.58.58,0,0,0,.26-.06.48.48,0,0,0,.19-.18.92.92,0,0,0,.11-.31,2.48,2.48,0,0,0,0-.46Z" fill="#fff"/><path id="_Compound_Path_75" data-name="&lt;Compound Path&gt;" d="M39.21,50h-.41v-2.7l-.82.3v-.37l1.16-.44h.06Z" fill="#fff"/><path id="_Compound_Path_76" data-name="&lt;Compound Path&gt;" d="M43.3,48.69a2.67,2.67,0,0,1-.07.66,1.17,1.17,0,0,1-.2.43.75.75,0,0,1-.32.24,1.25,1.25,0,0,1-.83,0,.75.75,0,0,1-.32-.24,1.19,1.19,0,0,1-.2-.43,2.58,2.58,0,0,1-.07-.66V48.2a2.59,2.59,0,0,1,.07-.66,1.14,1.14,0,0,1,.2-.43.74.74,0,0,1,.32-.23,1.27,1.27,0,0,1,.83,0,.74.74,0,0,1,.32.23,1.13,1.13,0,0,1,.2.43,2.63,2.63,0,0,1,.07.66Zm-.41-.56a2.36,2.36,0,0,0,0-.46.88.88,0,0,0-.11-.31.46.46,0,0,0-.19-.17.66.66,0,0,0-.52,0,.45.45,0,0,0-.19.17.91.91,0,0,0-.11.31,2.28,2.28,0,0,0,0,.46v.62a2.32,2.32,0,0,0,0,.46.94.94,0,0,0,.12.31.49.49,0,0,0,.19.18.57.57,0,0,0,.26.06.58.58,0,0,0,.26-.06.48.48,0,0,0,.19-.18.92.92,0,0,0,.11-.31,2.48,2.48,0,0,0,0-.46Z" fill="#fff"/><path id="_Compound_Path_77" data-name="&lt;Compound Path&gt;" d="M46.05,50h-.41v-2.7l-.82.3v-.37L46,46.84h.06Z" fill="#fff"/><path id="_Compound_Path_78" data-name="&lt;Compound Path&gt;" d="M50.14,48.69a2.67,2.67,0,0,1-.07.66,1.17,1.17,0,0,1-.2.43.75.75,0,0,1-.32.24,1.25,1.25,0,0,1-.83,0,.75.75,0,0,1-.32-.24,1.19,1.19,0,0,1-.2-.43,2.58,2.58,0,0,1-.07-.66V48.2a2.59,2.59,0,0,1,.07-.66,1.14,1.14,0,0,1,.2-.43.74.74,0,0,1,.32-.23,1.27,1.27,0,0,1,.83,0,.74.74,0,0,1,.32.23,1.13,1.13,0,0,1,.2.43,2.63,2.63,0,0,1,.07.66Zm-.41-.56a2.36,2.36,0,0,0,0-.46.88.88,0,0,0-.11-.31.46.46,0,0,0-.19-.17.66.66,0,0,0-.52,0,.45.45,0,0,0-.19.17.91.91,0,0,0-.11.31,2.28,2.28,0,0,0,0,.46v.62a2.32,2.32,0,0,0,0,.46.94.94,0,0,0,.12.31.49.49,0,0,0,.19.18.57.57,0,0,0,.26.06.58.58,0,0,0,.26-.06.48.48,0,0,0,.19-.18.92.92,0,0,0,.11-.31,2.48,2.48,0,0,0,0-.46Z" fill="#fff"/><path id="_Compound_Path_79" data-name="&lt;Compound Path&gt;" d="M52.89,50h-.41v-2.7l-.82.3v-.37l1.16-.44h.06Z" fill="#fff"/><path id="_Compound_Path_80" data-name="&lt;Compound Path&gt;" d="M57,48.69a2.67,2.67,0,0,1-.07.66,1.17,1.17,0,0,1-.2.43.75.75,0,0,1-.32.24,1.25,1.25,0,0,1-.83,0,.75.75,0,0,1-.32-.24,1.19,1.19,0,0,1-.2-.43,2.58,2.58,0,0,1-.07-.66V48.2a2.59,2.59,0,0,1,.07-.66,1.14,1.14,0,0,1,.2-.43.74.74,0,0,1,.32-.23,1.27,1.27,0,0,1,.83,0,.74.74,0,0,1,.32.23,1.13,1.13,0,0,1,.2.43,2.63,2.63,0,0,1,.07.66Zm-.41-.56a2.36,2.36,0,0,0,0-.46.88.88,0,0,0-.11-.31.46.46,0,0,0-.19-.17.66.66,0,0,0-.52,0,.45.45,0,0,0-.19.17.91.91,0,0,0-.11.31,2.28,2.28,0,0,0,0,.46v.62a2.32,2.32,0,0,0,0,.46.94.94,0,0,0,.12.31.49.49,0,0,0,.19.18.57.57,0,0,0,.26.06.58.58,0,0,0,.26-.06.48.48,0,0,0,.19-.18.92.92,0,0,0,.11-.31,2.48,2.48,0,0,0,0-.46Z" fill="#fff"/><path id="_Compound_Path_81" data-name="&lt;Compound Path&gt;" d="M59.73,50h-.41v-2.7l-.82.3v-.37l1.16-.44h.06Z" fill="#fff"/><path id="_Compound_Path_82" data-name="&lt;Compound Path&gt;" d="M63.82,48.69a2.67,2.67,0,0,1-.07.66,1.17,1.17,0,0,1-.2.43.75.75,0,0,1-.32.24,1.25,1.25,0,0,1-.83,0,.75.75,0,0,1-.32-.24,1.19,1.19,0,0,1-.2-.43,2.58,2.58,0,0,1-.07-.66V48.2a2.59,2.59,0,0,1,.07-.66,1.14,1.14,0,0,1,.2-.43.74.74,0,0,1,.32-.23,1.27,1.27,0,0,1,.83,0,.74.74,0,0,1,.32.23,1.13,1.13,0,0,1,.2.43,2.63,2.63,0,0,1,.07.66Zm-.41-.56a2.36,2.36,0,0,0,0-.46.88.88,0,0,0-.11-.31.46.46,0,0,0-.19-.17.66.66,0,0,0-.52,0,.45.45,0,0,0-.19.17.91.91,0,0,0-.11.31,2.28,2.28,0,0,0,0,.46v.62a2.32,2.32,0,0,0,0,.46.94.94,0,0,0,.12.31.49.49,0,0,0,.19.18.57.57,0,0,0,.26.06.58.58,0,0,0,.26-.06.48.48,0,0,0,.19-.18.92.92,0,0,0,.11-.31,2.48,2.48,0,0,0,0-.46Z" fill="#fff"/><path id="_Compound_Path_83" data-name="&lt;Compound Path&gt;" d="M66.57,50h-.41v-2.7l-.82.3v-.37l1.16-.44h.06Z" fill="#fff"/><path id="_Compound_Path_84" data-name="&lt;Compound Path&gt;" d="M70.66,48.69a2.67,2.67,0,0,1-.07.66,1.17,1.17,0,0,1-.2.43.75.75,0,0,1-.32.24,1.25,1.25,0,0,1-.83,0,.75.75,0,0,1-.32-.24,1.19,1.19,0,0,1-.2-.43,2.58,2.58,0,0,1-.07-.66V48.2a2.59,2.59,0,0,1,.07-.66,1.14,1.14,0,0,1,.2-.43.74.74,0,0,1,.32-.23,1.27,1.27,0,0,1,.83,0,.74.74,0,0,1,.32.23,1.13,1.13,0,0,1,.2.43,2.63,2.63,0,0,1,.07.66Zm-.41-.56a2.36,2.36,0,0,0,0-.46.88.88,0,0,0-.11-.31.46.46,0,0,0-.19-.17.66.66,0,0,0-.52,0,.45.45,0,0,0-.19.17.91.91,0,0,0-.11.31,2.28,2.28,0,0,0,0,.46v.62a2.32,2.32,0,0,0,0,.46.94.94,0,0,0,.12.31.49.49,0,0,0,.19.18.57.57,0,0,0,.26.06.58.58,0,0,0,.26-.06.48.48,0,0,0,.19-.18.92.92,0,0,0,.11-.31,2.48,2.48,0,0,0,0-.46Z" fill="#fff"/><path id="_Compound_Path_85" data-name="&lt;Compound Path&gt;" d="M73.41,50H73v-2.7l-.82.3v-.37l1.16-.44h.06Z" fill="#fff"/><path id="_Compound_Path_86" data-name="&lt;Compound Path&gt;" d="M18.7,57.23h-.41v-2.7l-.82.3v-.37L18.63,54h.06Z" fill="#fff"/><path id="_Compound_Path_87" data-name="&lt;Compound Path&gt;" d="M22.79,55.87a2.67,2.67,0,0,1-.07.66,1.17,1.17,0,0,1-.2.43.75.75,0,0,1-.32.24,1.25,1.25,0,0,1-.83,0A.75.75,0,0,1,21,57a1.19,1.19,0,0,1-.2-.43,2.58,2.58,0,0,1-.07-.66v-.49a2.59,2.59,0,0,1,.07-.66,1.14,1.14,0,0,1,.2-.43.74.74,0,0,1,.32-.23,1.27,1.27,0,0,1,.83,0,.74.74,0,0,1,.32.23,1.13,1.13,0,0,1,.2.43,2.63,2.63,0,0,1,.07.66Zm-.41-.56a2.36,2.36,0,0,0,0-.46.88.88,0,0,0-.11-.31.46.46,0,0,0-.19-.17.66.66,0,0,0-.52,0,.45.45,0,0,0-.19.17.91.91,0,0,0-.11.31,2.28,2.28,0,0,0,0,.46v.62a2.32,2.32,0,0,0,0,.46.94.94,0,0,0,.12.31.49.49,0,0,0,.19.18.57.57,0,0,0,.26.06.58.58,0,0,0,.26-.06.48.48,0,0,0,.19-.18.92.92,0,0,0,.11-.31,2.48,2.48,0,0,0,0-.46Z" fill="#fff"/><path id="_Compound_Path_88" data-name="&lt;Compound Path&gt;" d="M25.54,57.23h-.41v-2.7l-.82.3v-.37L25.47,54h.06Z" fill="#fff"/><path id="_Compound_Path_89" data-name="&lt;Compound Path&gt;" d="M29.62,55.87a2.67,2.67,0,0,1-.07.66,1.17,1.17,0,0,1-.2.43.75.75,0,0,1-.32.24,1.25,1.25,0,0,1-.83,0,.75.75,0,0,1-.32-.24,1.19,1.19,0,0,1-.2-.43,2.58,2.58,0,0,1-.07-.66v-.49a2.59,2.59,0,0,1,.07-.66,1.14,1.14,0,0,1,.2-.43.74.74,0,0,1,.32-.23,1.27,1.27,0,0,1,.83,0,.74.74,0,0,1,.32.23,1.13,1.13,0,0,1,.2.43,2.63,2.63,0,0,1,.07.66Zm-.41-.56a2.36,2.36,0,0,0,0-.46.88.88,0,0,0-.11-.31.46.46,0,0,0-.19-.17.66.66,0,0,0-.52,0,.45.45,0,0,0-.19.17.91.91,0,0,0-.11.31,2.28,2.28,0,0,0,0,.46v.62a2.32,2.32,0,0,0,0,.46.94.94,0,0,0,.12.31.49.49,0,0,0,.19.18.57.57,0,0,0,.26.06.58.58,0,0,0,.26-.06.48.48,0,0,0,.19-.18.92.92,0,0,0,.11-.31,2.48,2.48,0,0,0,0-.46Z" fill="#fff"/><path id="_Compound_Path_90" data-name="&lt;Compound Path&gt;" d="M32.37,57.23H32v-2.7l-.82.3v-.37L32.31,54h.06Z" fill="#fff"/><path id="_Compound_Path_91" data-name="&lt;Compound Path&gt;" d="M36.46,55.87a2.67,2.67,0,0,1-.07.66,1.17,1.17,0,0,1-.2.43.75.75,0,0,1-.32.24,1.25,1.25,0,0,1-.83,0,.75.75,0,0,1-.32-.24,1.19,1.19,0,0,1-.2-.43,2.58,2.58,0,0,1-.07-.66v-.49a2.59,2.59,0,0,1,.07-.66,1.14,1.14,0,0,1,.2-.43.74.74,0,0,1,.32-.23,1.27,1.27,0,0,1,.83,0,.74.74,0,0,1,.32.23,1.13,1.13,0,0,1,.2.43,2.63,2.63,0,0,1,.07.66Zm-.41-.56a2.36,2.36,0,0,0,0-.46.88.88,0,0,0-.11-.31.46.46,0,0,0-.19-.17.66.66,0,0,0-.52,0,.45.45,0,0,0-.19.17.91.91,0,0,0-.11.31,2.28,2.28,0,0,0,0,.46v.62a2.32,2.32,0,0,0,0,.46.94.94,0,0,0,.12.31.49.49,0,0,0,.19.18.57.57,0,0,0,.26.06.58.58,0,0,0,.26-.06.48.48,0,0,0,.19-.18.92.92,0,0,0,.11-.31,2.48,2.48,0,0,0,0-.46Z" fill="#fff"/><path id="_Compound_Path_92" data-name="&lt;Compound Path&gt;" d="M39.21,57.23h-.41v-2.7l-.82.3v-.37L39.15,54h.06Z" fill="#fff"/><path id="_Compound_Path_93" data-name="&lt;Compound Path&gt;" d="M43.3,55.87a2.67,2.67,0,0,1-.07.66A1.17,1.17,0,0,1,43,57a.75.75,0,0,1-.32.24,1.25,1.25,0,0,1-.83,0,.75.75,0,0,1-.32-.24,1.19,1.19,0,0,1-.2-.43,2.58,2.58,0,0,1-.07-.66v-.49a2.59,2.59,0,0,1,.07-.66,1.14,1.14,0,0,1,.2-.43.74.74,0,0,1,.32-.23,1.27,1.27,0,0,1,.83,0,.74.74,0,0,1,.32.23,1.13,1.13,0,0,1,.2.43,2.63,2.63,0,0,1,.07.66Zm-.41-.56a2.36,2.36,0,0,0,0-.46.88.88,0,0,0-.11-.31.46.46,0,0,0-.19-.17.66.66,0,0,0-.52,0,.45.45,0,0,0-.19.17.91.91,0,0,0-.11.31,2.28,2.28,0,0,0,0,.46v.62a2.32,2.32,0,0,0,0,.46.94.94,0,0,0,.12.31.49.49,0,0,0,.19.18.57.57,0,0,0,.26.06.58.58,0,0,0,.26-.06.48.48,0,0,0,.19-.18.92.92,0,0,0,.11-.31,2.48,2.48,0,0,0,0-.46Z" fill="#fff"/><path id="_Compound_Path_94" data-name="&lt;Compound Path&gt;" d="M46.05,57.23h-.41v-2.7l-.82.3v-.37L46,54h.06Z" fill="#fff"/><path id="_Compound_Path_95" data-name="&lt;Compound Path&gt;" d="M50.14,55.87a2.67,2.67,0,0,1-.07.66,1.17,1.17,0,0,1-.2.43.75.75,0,0,1-.32.24,1.25,1.25,0,0,1-.83,0A.75.75,0,0,1,48.4,57a1.19,1.19,0,0,1-.2-.43,2.58,2.58,0,0,1-.07-.66v-.49a2.59,2.59,0,0,1,.07-.66,1.14,1.14,0,0,1,.2-.43.74.74,0,0,1,.32-.23,1.27,1.27,0,0,1,.83,0,.74.74,0,0,1,.32.23,1.13,1.13,0,0,1,.2.43,2.63,2.63,0,0,1,.07.66Zm-.41-.56a2.36,2.36,0,0,0,0-.46.88.88,0,0,0-.11-.31.46.46,0,0,0-.19-.17.66.66,0,0,0-.52,0,.45.45,0,0,0-.19.17.91.91,0,0,0-.11.31,2.28,2.28,0,0,0,0,.46v.62a2.32,2.32,0,0,0,0,.46.94.94,0,0,0,.12.31.49.49,0,0,0,.19.18.57.57,0,0,0,.26.06.58.58,0,0,0,.26-.06.48.48,0,0,0,.19-.18.92.92,0,0,0,.11-.31,2.48,2.48,0,0,0,0-.46Z" fill="#fff"/><path id="_Compound_Path_96" data-name="&lt;Compound Path&gt;" d="M52.89,57.23h-.41v-2.7l-.82.3v-.37L52.83,54h.06Z" fill="#fff"/><path id="_Compound_Path_97" data-name="&lt;Compound Path&gt;" d="M57,55.87a2.67,2.67,0,0,1-.07.66,1.17,1.17,0,0,1-.2.43.75.75,0,0,1-.32.24,1.25,1.25,0,0,1-.83,0,.75.75,0,0,1-.32-.24,1.19,1.19,0,0,1-.2-.43,2.58,2.58,0,0,1-.07-.66v-.49a2.59,2.59,0,0,1,.07-.66,1.14,1.14,0,0,1,.2-.43.74.74,0,0,1,.32-.23,1.27,1.27,0,0,1,.83,0,.74.74,0,0,1,.32.23,1.13,1.13,0,0,1,.2.43,2.63,2.63,0,0,1,.07.66Zm-.41-.56a2.36,2.36,0,0,0,0-.46.88.88,0,0,0-.11-.31.46.46,0,0,0-.19-.17.66.66,0,0,0-.52,0,.45.45,0,0,0-.19.17.91.91,0,0,0-.11.31,2.28,2.28,0,0,0,0,.46v.62a2.32,2.32,0,0,0,0,.46.94.94,0,0,0,.12.31.49.49,0,0,0,.19.18.57.57,0,0,0,.26.06.58.58,0,0,0,.26-.06.48.48,0,0,0,.19-.18.92.92,0,0,0,.11-.31,2.48,2.48,0,0,0,0-.46Z" fill="#fff"/><path id="_Compound_Path_98" data-name="&lt;Compound Path&gt;" d="M59.73,57.23h-.41v-2.7l-.82.3v-.37L59.67,54h.06Z" fill="#fff"/><path id="_Compound_Path_99" data-name="&lt;Compound Path&gt;" d="M63.82,55.87a2.67,2.67,0,0,1-.07.66,1.17,1.17,0,0,1-.2.43.75.75,0,0,1-.32.24,1.25,1.25,0,0,1-.83,0,.75.75,0,0,1-.32-.24,1.19,1.19,0,0,1-.2-.43,2.58,2.58,0,0,1-.07-.66v-.49a2.59,2.59,0,0,1,.07-.66,1.14,1.14,0,0,1,.2-.43.74.74,0,0,1,.32-.23,1.27,1.27,0,0,1,.83,0,.74.74,0,0,1,.32.23,1.13,1.13,0,0,1,.2.43,2.63,2.63,0,0,1,.07.66Zm-.41-.56a2.36,2.36,0,0,0,0-.46.88.88,0,0,0-.11-.31.46.46,0,0,0-.19-.17.66.66,0,0,0-.52,0,.45.45,0,0,0-.19.17.91.91,0,0,0-.11.31,2.28,2.28,0,0,0,0,.46v.62a2.32,2.32,0,0,0,0,.46.94.94,0,0,0,.12.31.49.49,0,0,0,.19.18.57.57,0,0,0,.26.06.58.58,0,0,0,.26-.06.48.48,0,0,0,.19-.18.92.92,0,0,0,.11-.31,2.48,2.48,0,0,0,0-.46Z" fill="#fff"/><path id="_Compound_Path_100" data-name="&lt;Compound Path&gt;" d="M66.57,57.23h-.41v-2.7l-.82.3v-.37L66.51,54h.06Z" fill="#fff"/><path id="_Compound_Path_101" data-name="&lt;Compound Path&gt;" d="M70.66,55.87a2.67,2.67,0,0,1-.07.66,1.17,1.17,0,0,1-.2.43.75.75,0,0,1-.32.24,1.25,1.25,0,0,1-.83,0,.75.75,0,0,1-.32-.24,1.19,1.19,0,0,1-.2-.43,2.58,2.58,0,0,1-.07-.66v-.49a2.59,2.59,0,0,1,.07-.66,1.14,1.14,0,0,1,.2-.43.74.74,0,0,1,.32-.23,1.27,1.27,0,0,1,.83,0,.74.74,0,0,1,.32.23,1.13,1.13,0,0,1,.2.43,2.63,2.63,0,0,1,.07.66Zm-.41-.56a2.36,2.36,0,0,0,0-.46.88.88,0,0,0-.11-.31.46.46,0,0,0-.19-.17.66.66,0,0,0-.52,0,.45.45,0,0,0-.19.17.91.91,0,0,0-.11.31,2.28,2.28,0,0,0,0,.46v.62a2.32,2.32,0,0,0,0,.46.94.94,0,0,0,.12.31.49.49,0,0,0,.19.18.57.57,0,0,0,.26.06.58.58,0,0,0,.26-.06.48.48,0,0,0,.19-.18.92.92,0,0,0,.11-.31,2.48,2.48,0,0,0,0-.46Z" fill="#fff"/><path id="_Compound_Path_102" data-name="&lt;Compound Path&gt;" d="M73.41,57.23H73v-2.7l-.82.3v-.37L73.34,54h.06Z" fill="#fff"/><path id="_Compound_Path_103" data-name="&lt;Compound Path&gt;" d="M18.7,64.42h-.41v-2.7l-.82.3v-.37l1.16-.44h.06Z" fill="#fff"/><path id="_Compound_Path_104" data-name="&lt;Compound Path&gt;" d="M22.79,63.06a2.67,2.67,0,0,1-.07.66,1.17,1.17,0,0,1-.2.43.75.75,0,0,1-.32.24,1.25,1.25,0,0,1-.83,0,.75.75,0,0,1-.32-.24,1.19,1.19,0,0,1-.2-.43,2.58,2.58,0,0,1-.07-.66v-.49a2.59,2.59,0,0,1,.07-.66,1.14,1.14,0,0,1,.2-.43.74.74,0,0,1,.32-.23,1.27,1.27,0,0,1,.83,0,.74.74,0,0,1,.32.23,1.13,1.13,0,0,1,.2.43,2.63,2.63,0,0,1,.07.66Zm-.41-.56a2.36,2.36,0,0,0,0-.46.88.88,0,0,0-.11-.31.46.46,0,0,0-.19-.17.66.66,0,0,0-.52,0,.45.45,0,0,0-.19.17.91.91,0,0,0-.11.31,2.28,2.28,0,0,0,0,.46v.62a2.32,2.32,0,0,0,0,.46.94.94,0,0,0,.12.31.49.49,0,0,0,.19.18.57.57,0,0,0,.26.06.58.58,0,0,0,.26-.06.48.48,0,0,0,.19-.18.92.92,0,0,0,.11-.31,2.48,2.48,0,0,0,0-.46Z" fill="#fff"/><path id="_Compound_Path_105" data-name="&lt;Compound Path&gt;" d="M25.54,64.42h-.41v-2.7l-.82.3v-.37l1.16-.44h.06Z" fill="#fff"/><path id="_Compound_Path_106" data-name="&lt;Compound Path&gt;" d="M29.62,63.06a2.67,2.67,0,0,1-.07.66,1.17,1.17,0,0,1-.2.43.75.75,0,0,1-.32.24,1.25,1.25,0,0,1-.83,0,.75.75,0,0,1-.32-.24,1.19,1.19,0,0,1-.2-.43,2.58,2.58,0,0,1-.07-.66v-.49a2.59,2.59,0,0,1,.07-.66,1.14,1.14,0,0,1,.2-.43.74.74,0,0,1,.32-.23,1.27,1.27,0,0,1,.83,0,.74.74,0,0,1,.32.23,1.13,1.13,0,0,1,.2.43,2.63,2.63,0,0,1,.07.66Zm-.41-.56a2.36,2.36,0,0,0,0-.46.88.88,0,0,0-.11-.31.46.46,0,0,0-.19-.17.66.66,0,0,0-.52,0,.45.45,0,0,0-.19.17.91.91,0,0,0-.11.31,2.28,2.28,0,0,0,0,.46v.62a2.32,2.32,0,0,0,0,.46.94.94,0,0,0,.12.31.49.49,0,0,0,.19.18.57.57,0,0,0,.26.06.58.58,0,0,0,.26-.06.48.48,0,0,0,.19-.18.92.92,0,0,0,.11-.31,2.48,2.48,0,0,0,0-.46Z" fill="#fff"/><path id="_Compound_Path_107" data-name="&lt;Compound Path&gt;" d="M32.37,64.42H32v-2.7l-.82.3v-.37l1.16-.44h.06Z" fill="#fff"/><path id="_Compound_Path_108" data-name="&lt;Compound Path&gt;" d="M36.46,63.06a2.67,2.67,0,0,1-.07.66,1.17,1.17,0,0,1-.2.43.75.75,0,0,1-.32.24,1.25,1.25,0,0,1-.83,0,.75.75,0,0,1-.32-.24,1.19,1.19,0,0,1-.2-.43,2.58,2.58,0,0,1-.07-.66v-.49a2.59,2.59,0,0,1,.07-.66,1.14,1.14,0,0,1,.2-.43.74.74,0,0,1,.32-.23,1.27,1.27,0,0,1,.83,0,.74.74,0,0,1,.32.23,1.13,1.13,0,0,1,.2.43,2.63,2.63,0,0,1,.07.66Zm-.41-.56A2.36,2.36,0,0,0,36,62a.88.88,0,0,0-.11-.31.46.46,0,0,0-.19-.17.66.66,0,0,0-.52,0,.45.45,0,0,0-.19.17.91.91,0,0,0-.11.31,2.28,2.28,0,0,0,0,.46v.62a2.32,2.32,0,0,0,0,.46.94.94,0,0,0,.12.31.49.49,0,0,0,.19.18.57.57,0,0,0,.26.06.58.58,0,0,0,.26-.06.48.48,0,0,0,.19-.18.92.92,0,0,0,.11-.31,2.48,2.48,0,0,0,0-.46Z" fill="#fff"/><path id="_Compound_Path_109" data-name="&lt;Compound Path&gt;" d="M39.21,64.42h-.41v-2.7L38,62v-.37l1.16-.44h.06Z" fill="#fff"/><path id="_Compound_Path_110" data-name="&lt;Compound Path&gt;" d="M43.3,63.06a2.67,2.67,0,0,1-.07.66,1.17,1.17,0,0,1-.2.43.75.75,0,0,1-.32.24,1.25,1.25,0,0,1-.83,0,.75.75,0,0,1-.32-.24,1.19,1.19,0,0,1-.2-.43,2.58,2.58,0,0,1-.07-.66v-.49a2.59,2.59,0,0,1,.07-.66,1.14,1.14,0,0,1,.2-.43.74.74,0,0,1,.32-.23,1.27,1.27,0,0,1,.83,0,.74.74,0,0,1,.32.23,1.13,1.13,0,0,1,.2.43,2.63,2.63,0,0,1,.07.66Zm-.41-.56a2.36,2.36,0,0,0,0-.46.88.88,0,0,0-.11-.31.46.46,0,0,0-.19-.17.66.66,0,0,0-.52,0,.45.45,0,0,0-.19.17.91.91,0,0,0-.11.31,2.28,2.28,0,0,0,0,.46v.62a2.32,2.32,0,0,0,0,.46.94.94,0,0,0,.12.31.49.49,0,0,0,.19.18.57.57,0,0,0,.26.06.58.58,0,0,0,.26-.06.48.48,0,0,0,.19-.18.92.92,0,0,0,.11-.31,2.48,2.48,0,0,0,0-.46Z" fill="#fff"/><path id="_Compound_Path_111" data-name="&lt;Compound Path&gt;" d="M46.05,64.42h-.41v-2.7l-.82.3v-.37L46,61.21h.06Z" fill="#fff"/><path id="_Compound_Path_112" data-name="&lt;Compound Path&gt;" d="M50.14,63.06a2.67,2.67,0,0,1-.07.66,1.17,1.17,0,0,1-.2.43.75.75,0,0,1-.32.24,1.25,1.25,0,0,1-.83,0,.75.75,0,0,1-.32-.24,1.19,1.19,0,0,1-.2-.43,2.58,2.58,0,0,1-.07-.66v-.49a2.59,2.59,0,0,1,.07-.66,1.14,1.14,0,0,1,.2-.43.74.74,0,0,1,.32-.23,1.27,1.27,0,0,1,.83,0,.74.74,0,0,1,.32.23,1.13,1.13,0,0,1,.2.43,2.63,2.63,0,0,1,.07.66Zm-.41-.56a2.36,2.36,0,0,0,0-.46.88.88,0,0,0-.11-.31.46.46,0,0,0-.19-.17.66.66,0,0,0-.52,0,.45.45,0,0,0-.19.17.91.91,0,0,0-.11.31,2.28,2.28,0,0,0,0,.46v.62a2.32,2.32,0,0,0,0,.46.94.94,0,0,0,.12.31.49.49,0,0,0,.19.18.57.57,0,0,0,.26.06.58.58,0,0,0,.26-.06.48.48,0,0,0,.19-.18.92.92,0,0,0,.11-.31,2.48,2.48,0,0,0,0-.46Z" fill="#fff"/><path id="_Compound_Path_113" data-name="&lt;Compound Path&gt;" d="M52.89,64.42h-.41v-2.7l-.82.3v-.37l1.16-.44h.06Z" fill="#fff"/><path id="_Compound_Path_114" data-name="&lt;Compound Path&gt;" d="M57,63.06a2.67,2.67,0,0,1-.07.66,1.17,1.17,0,0,1-.2.43.75.75,0,0,1-.32.24,1.25,1.25,0,0,1-.83,0,.75.75,0,0,1-.32-.24,1.19,1.19,0,0,1-.2-.43,2.58,2.58,0,0,1-.07-.66v-.49a2.59,2.59,0,0,1,.07-.66,1.14,1.14,0,0,1,.2-.43.74.74,0,0,1,.32-.23,1.27,1.27,0,0,1,.83,0,.74.74,0,0,1,.32.23,1.13,1.13,0,0,1,.2.43,2.63,2.63,0,0,1,.07.66Zm-.41-.56a2.36,2.36,0,0,0,0-.46.88.88,0,0,0-.11-.31.46.46,0,0,0-.19-.17.66.66,0,0,0-.52,0,.45.45,0,0,0-.19.17.91.91,0,0,0-.11.31,2.28,2.28,0,0,0,0,.46v.62a2.32,2.32,0,0,0,0,.46.94.94,0,0,0,.12.31.49.49,0,0,0,.19.18.57.57,0,0,0,.26.06.58.58,0,0,0,.26-.06.48.48,0,0,0,.19-.18.92.92,0,0,0,.11-.31,2.48,2.48,0,0,0,0-.46Z" fill="#fff"/><path id="_Compound_Path_115" data-name="&lt;Compound Path&gt;" d="M59.73,64.42h-.41v-2.7l-.82.3v-.37l1.16-.44h.06Z" fill="#fff"/><path id="_Compound_Path_116" data-name="&lt;Compound Path&gt;" d="M63.82,63.06a2.67,2.67,0,0,1-.07.66,1.17,1.17,0,0,1-.2.43.75.75,0,0,1-.32.24,1.25,1.25,0,0,1-.83,0,.75.75,0,0,1-.32-.24,1.19,1.19,0,0,1-.2-.43,2.58,2.58,0,0,1-.07-.66v-.49a2.59,2.59,0,0,1,.07-.66,1.14,1.14,0,0,1,.2-.43.74.74,0,0,1,.32-.23,1.27,1.27,0,0,1,.83,0,.74.74,0,0,1,.32.23,1.13,1.13,0,0,1,.2.43,2.63,2.63,0,0,1,.07.66Zm-.41-.56a2.36,2.36,0,0,0,0-.46.88.88,0,0,0-.11-.31.46.46,0,0,0-.19-.17.66.66,0,0,0-.52,0,.45.45,0,0,0-.19.17.91.91,0,0,0-.11.31,2.28,2.28,0,0,0,0,.46v.62a2.32,2.32,0,0,0,0,.46.94.94,0,0,0,.12.31.49.49,0,0,0,.19.18.57.57,0,0,0,.26.06.58.58,0,0,0,.26-.06.48.48,0,0,0,.19-.18.92.92,0,0,0,.11-.31,2.48,2.48,0,0,0,0-.46Z" fill="#fff"/><path id="_Compound_Path_117" data-name="&lt;Compound Path&gt;" d="M66.57,64.42h-.41v-2.7l-.82.3v-.37l1.16-.44h.06Z" fill="#fff"/><path id="_Compound_Path_118" data-name="&lt;Compound Path&gt;" d="M70.66,63.06a2.67,2.67,0,0,1-.07.66,1.17,1.17,0,0,1-.2.43.75.75,0,0,1-.32.24,1.25,1.25,0,0,1-.83,0,.75.75,0,0,1-.32-.24,1.19,1.19,0,0,1-.2-.43,2.58,2.58,0,0,1-.07-.66v-.49a2.59,2.59,0,0,1,.07-.66,1.14,1.14,0,0,1,.2-.43.74.74,0,0,1,.32-.23,1.27,1.27,0,0,1,.83,0,.74.74,0,0,1,.32.23,1.13,1.13,0,0,1,.2.43,2.63,2.63,0,0,1,.07.66Zm-.41-.56a2.36,2.36,0,0,0,0-.46.88.88,0,0,0-.11-.31.46.46,0,0,0-.19-.17.66.66,0,0,0-.52,0,.45.45,0,0,0-.19.17.91.91,0,0,0-.11.31,2.28,2.28,0,0,0,0,.46v.62a2.32,2.32,0,0,0,0,.46.94.94,0,0,0,.12.31.49.49,0,0,0,.19.18.57.57,0,0,0,.26.06.58.58,0,0,0,.26-.06.48.48,0,0,0,.19-.18.92.92,0,0,0,.11-.31,2.48,2.48,0,0,0,0-.46Z" fill="#fff"/><path id="_Compound_Path_119" data-name="&lt;Compound Path&gt;" d="M73.41,64.42H73v-2.7l-.82.3v-.37l1.16-.44h.06Z" fill="#fff"/><path id="_Compound_Path_120" data-name="&lt;Compound Path&gt;" d="M18.7,71.6h-.41V68.9l-.82.3v-.37l1.16-.44h.06Z" fill="#fff"/><path id="_Compound_Path_121" data-name="&lt;Compound Path&gt;" d="M22.79,70.24a2.67,2.67,0,0,1-.07.66,1.17,1.17,0,0,1-.2.43.75.75,0,0,1-.32.24,1.25,1.25,0,0,1-.83,0,.75.75,0,0,1-.32-.24,1.19,1.19,0,0,1-.2-.43,2.58,2.58,0,0,1-.07-.66v-.49a2.59,2.59,0,0,1,.07-.66,1.14,1.14,0,0,1,.2-.43.74.74,0,0,1,.32-.23,1.27,1.27,0,0,1,.83,0,.74.74,0,0,1,.32.23,1.13,1.13,0,0,1,.2.43,2.63,2.63,0,0,1,.07.66Zm-.41-.56a2.36,2.36,0,0,0,0-.46.88.88,0,0,0-.11-.31.46.46,0,0,0-.19-.17.66.66,0,0,0-.52,0,.45.45,0,0,0-.19.17.91.91,0,0,0-.11.31,2.28,2.28,0,0,0,0,.46v.62a2.32,2.32,0,0,0,0,.46.94.94,0,0,0,.12.31.49.49,0,0,0,.19.18.57.57,0,0,0,.26.06.58.58,0,0,0,.26-.06.48.48,0,0,0,.19-.18.92.92,0,0,0,.11-.31,2.48,2.48,0,0,0,0-.46Z" fill="#fff"/><path id="_Compound_Path_122" data-name="&lt;Compound Path&gt;" d="M25.54,71.6h-.41V68.9l-.82.3v-.37l1.16-.44h.06Z" fill="#fff"/><path id="_Compound_Path_123" data-name="&lt;Compound Path&gt;" d="M29.62,70.24a2.67,2.67,0,0,1-.07.66,1.17,1.17,0,0,1-.2.43.75.75,0,0,1-.32.24,1.25,1.25,0,0,1-.83,0,.75.75,0,0,1-.32-.24,1.19,1.19,0,0,1-.2-.43,2.58,2.58,0,0,1-.07-.66v-.49a2.59,2.59,0,0,1,.07-.66,1.14,1.14,0,0,1,.2-.43.74.74,0,0,1,.32-.23,1.27,1.27,0,0,1,.83,0,.74.74,0,0,1,.32.23,1.13,1.13,0,0,1,.2.43,2.63,2.63,0,0,1,.07.66Zm-.41-.56a2.36,2.36,0,0,0,0-.46.88.88,0,0,0-.11-.31.46.46,0,0,0-.19-.17.66.66,0,0,0-.52,0,.45.45,0,0,0-.19.17.91.91,0,0,0-.11.31,2.28,2.28,0,0,0,0,.46v.62a2.32,2.32,0,0,0,0,.46.94.94,0,0,0,.12.31.49.49,0,0,0,.19.18.57.57,0,0,0,.26.06.58.58,0,0,0,.26-.06.48.48,0,0,0,.19-.18.92.92,0,0,0,.11-.31,2.48,2.48,0,0,0,0-.46Z" fill="#fff"/><path id="_Compound_Path_124" data-name="&lt;Compound Path&gt;" d="M32.37,71.6H32V68.9l-.82.3v-.37l1.16-.44h.06Z" fill="#fff"/><path id="_Compound_Path_125" data-name="&lt;Compound Path&gt;" d="M36.46,70.24a2.67,2.67,0,0,1-.07.66,1.17,1.17,0,0,1-.2.43.75.75,0,0,1-.32.24,1.25,1.25,0,0,1-.83,0,.75.75,0,0,1-.32-.24,1.19,1.19,0,0,1-.2-.43,2.58,2.58,0,0,1-.07-.66v-.49a2.59,2.59,0,0,1,.07-.66,1.14,1.14,0,0,1,.2-.43.74.74,0,0,1,.32-.23,1.27,1.27,0,0,1,.83,0,.74.74,0,0,1,.32.23,1.13,1.13,0,0,1,.2.43,2.63,2.63,0,0,1,.07.66Zm-.41-.56a2.36,2.36,0,0,0,0-.46.88.88,0,0,0-.11-.31.46.46,0,0,0-.19-.17.66.66,0,0,0-.52,0,.45.45,0,0,0-.19.17.91.91,0,0,0-.11.31,2.28,2.28,0,0,0,0,.46v.62a2.32,2.32,0,0,0,0,.46.94.94,0,0,0,.12.31.49.49,0,0,0,.19.18.57.57,0,0,0,.26.06.58.58,0,0,0,.26-.06.48.48,0,0,0,.19-.18.92.92,0,0,0,.11-.31,2.48,2.48,0,0,0,0-.46Z" fill="#fff"/><path id="_Compound_Path_126" data-name="&lt;Compound Path&gt;" d="M39.21,71.6h-.41V68.9l-.82.3v-.37l1.16-.44h.06Z" fill="#fff"/><path id="_Compound_Path_127" data-name="&lt;Compound Path&gt;" d="M43.3,70.24a2.67,2.67,0,0,1-.07.66,1.17,1.17,0,0,1-.2.43.75.75,0,0,1-.32.24,1.25,1.25,0,0,1-.83,0,.75.75,0,0,1-.32-.24,1.19,1.19,0,0,1-.2-.43,2.58,2.58,0,0,1-.07-.66v-.49a2.59,2.59,0,0,1,.07-.66,1.14,1.14,0,0,1,.2-.43.74.74,0,0,1,.32-.23,1.27,1.27,0,0,1,.83,0,.74.74,0,0,1,.32.23,1.13,1.13,0,0,1,.2.43,2.63,2.63,0,0,1,.07.66Zm-.41-.56a2.36,2.36,0,0,0,0-.46.88.88,0,0,0-.11-.31.46.46,0,0,0-.19-.17.66.66,0,0,0-.52,0,.45.45,0,0,0-.19.17.91.91,0,0,0-.11.31,2.28,2.28,0,0,0,0,.46v.62a2.32,2.32,0,0,0,0,.46.94.94,0,0,0,.12.31.49.49,0,0,0,.19.18.57.57,0,0,0,.26.06.58.58,0,0,0,.26-.06.48.48,0,0,0,.19-.18.92.92,0,0,0,.11-.31,2.48,2.48,0,0,0,0-.46Z" fill="#fff"/><path id="_Compound_Path_128" data-name="&lt;Compound Path&gt;" d="M46.05,71.6h-.41V68.9l-.82.3v-.37L46,68.39h.06Z" fill="#fff"/><path id="_Compound_Path_129" data-name="&lt;Compound Path&gt;" d="M50.14,70.24a2.67,2.67,0,0,1-.07.66,1.17,1.17,0,0,1-.2.43.75.75,0,0,1-.32.24,1.25,1.25,0,0,1-.83,0,.75.75,0,0,1-.32-.24,1.19,1.19,0,0,1-.2-.43,2.58,2.58,0,0,1-.07-.66v-.49a2.59,2.59,0,0,1,.07-.66,1.14,1.14,0,0,1,.2-.43.74.74,0,0,1,.32-.23,1.27,1.27,0,0,1,.83,0,.74.74,0,0,1,.32.23,1.13,1.13,0,0,1,.2.43,2.63,2.63,0,0,1,.07.66Zm-.41-.56a2.36,2.36,0,0,0,0-.46.88.88,0,0,0-.11-.31.46.46,0,0,0-.19-.17.66.66,0,0,0-.52,0,.45.45,0,0,0-.19.17.91.91,0,0,0-.11.31,2.28,2.28,0,0,0,0,.46v.62a2.32,2.32,0,0,0,0,.46.94.94,0,0,0,.12.31.49.49,0,0,0,.19.18.57.57,0,0,0,.26.06.58.58,0,0,0,.26-.06.48.48,0,0,0,.19-.18.92.92,0,0,0,.11-.31,2.48,2.48,0,0,0,0-.46Z" fill="#fff"/><path id="_Compound_Path_130" data-name="&lt;Compound Path&gt;" d="M52.89,71.6h-.41V68.9l-.82.3v-.37l1.16-.44h.06Z" fill="#fff"/><path id="_Compound_Path_131" data-name="&lt;Compound Path&gt;" d="M57,70.24a2.67,2.67,0,0,1-.07.66,1.17,1.17,0,0,1-.2.43.75.75,0,0,1-.32.24,1.25,1.25,0,0,1-.83,0,.75.75,0,0,1-.32-.24,1.19,1.19,0,0,1-.2-.43,2.58,2.58,0,0,1-.07-.66v-.49a2.59,2.59,0,0,1,.07-.66,1.14,1.14,0,0,1,.2-.43.74.74,0,0,1,.32-.23,1.27,1.27,0,0,1,.83,0,.74.74,0,0,1,.32.23,1.13,1.13,0,0,1,.2.43,2.63,2.63,0,0,1,.07.66Zm-.41-.56a2.36,2.36,0,0,0,0-.46.88.88,0,0,0-.11-.31.46.46,0,0,0-.19-.17.66.66,0,0,0-.52,0,.45.45,0,0,0-.19.17.91.91,0,0,0-.11.31,2.28,2.28,0,0,0,0,.46v.62a2.32,2.32,0,0,0,0,.46.94.94,0,0,0,.12.31.49.49,0,0,0,.19.18.57.57,0,0,0,.26.06.58.58,0,0,0,.26-.06.48.48,0,0,0,.19-.18.92.92,0,0,0,.11-.31,2.48,2.48,0,0,0,0-.46Z" fill="#fff"/><path id="_Compound_Path_132" data-name="&lt;Compound Path&gt;" d="M59.73,71.6h-.41V68.9l-.82.3v-.37l1.16-.44h.06Z" fill="#fff"/><path id="_Compound_Path_133" data-name="&lt;Compound Path&gt;" d="M63.82,70.24a2.67,2.67,0,0,1-.07.66,1.17,1.17,0,0,1-.2.43.75.75,0,0,1-.32.24,1.25,1.25,0,0,1-.83,0,.75.75,0,0,1-.32-.24,1.19,1.19,0,0,1-.2-.43,2.58,2.58,0,0,1-.07-.66v-.49a2.59,2.59,0,0,1,.07-.66,1.14,1.14,0,0,1,.2-.43.74.74,0,0,1,.32-.23,1.27,1.27,0,0,1,.83,0,.74.74,0,0,1,.32.23,1.13,1.13,0,0,1,.2.43,2.63,2.63,0,0,1,.07.66Zm-.41-.56a2.36,2.36,0,0,0,0-.46.88.88,0,0,0-.11-.31.46.46,0,0,0-.19-.17.66.66,0,0,0-.52,0,.45.45,0,0,0-.19.17.91.91,0,0,0-.11.31,2.28,2.28,0,0,0,0,.46v.62a2.32,2.32,0,0,0,0,.46.94.94,0,0,0,.12.31.49.49,0,0,0,.19.18.57.57,0,0,0,.26.06.58.58,0,0,0,.26-.06.48.48,0,0,0,.19-.18.92.92,0,0,0,.11-.31,2.48,2.48,0,0,0,0-.46Z" fill="#fff"/><path id="_Compound_Path_134" data-name="&lt;Compound Path&gt;" d="M66.57,71.6h-.41V68.9l-.82.3v-.37l1.16-.44h.06Z" fill="#fff"/><path id="_Compound_Path_135" data-name="&lt;Compound Path&gt;" d="M70.66,70.24a2.67,2.67,0,0,1-.07.66,1.17,1.17,0,0,1-.2.43.75.75,0,0,1-.32.24,1.25,1.25,0,0,1-.83,0,.75.75,0,0,1-.32-.24,1.19,1.19,0,0,1-.2-.43,2.58,2.58,0,0,1-.07-.66v-.49a2.59,2.59,0,0,1,.07-.66,1.14,1.14,0,0,1,.2-.43.74.74,0,0,1,.32-.23,1.27,1.27,0,0,1,.83,0,.74.74,0,0,1,.32.23,1.13,1.13,0,0,1,.2.43,2.63,2.63,0,0,1,.07.66Zm-.41-.56a2.36,2.36,0,0,0,0-.46.88.88,0,0,0-.11-.31.46.46,0,0,0-.19-.17.66.66,0,0,0-.52,0,.45.45,0,0,0-.19.17.91.91,0,0,0-.11.31,2.28,2.28,0,0,0,0,.46v.62a2.32,2.32,0,0,0,0,.46.94.94,0,0,0,.12.31.49.49,0,0,0,.19.18.57.57,0,0,0,.26.06.58.58,0,0,0,.26-.06.48.48,0,0,0,.19-.18.92.92,0,0,0,.11-.31,2.48,2.48,0,0,0,0-.46Z" fill="#fff"/><path id="_Compound_Path_136" data-name="&lt;Compound Path&gt;" d="M73.41,71.6H73V68.9l-.82.3v-.37l1.16-.44h.06Z" fill="#fff"/><path id="_Compound_Path_137" data-name="&lt;Compound Path&gt;" d="M18.7,78.79h-.41v-2.7l-.82.3V76l1.16-.44h.06Z" fill="#fff"/><path id="_Compound_Path_138" data-name="&lt;Compound Path&gt;" d="M22.79,77.42a2.67,2.67,0,0,1-.07.66,1.17,1.17,0,0,1-.2.43.75.75,0,0,1-.32.24,1.25,1.25,0,0,1-.83,0,.75.75,0,0,1-.32-.24,1.19,1.19,0,0,1-.2-.43,2.58,2.58,0,0,1-.07-.66v-.49a2.59,2.59,0,0,1,.07-.66,1.14,1.14,0,0,1,.2-.43.74.74,0,0,1,.32-.23,1.27,1.27,0,0,1,.83,0,.74.74,0,0,1,.32.23,1.13,1.13,0,0,1,.2.43,2.63,2.63,0,0,1,.07.66Zm-.41-.56a2.36,2.36,0,0,0,0-.46.88.88,0,0,0-.11-.31.46.46,0,0,0-.19-.17.66.66,0,0,0-.52,0,.45.45,0,0,0-.19.17.91.91,0,0,0-.11.31,2.28,2.28,0,0,0,0,.46v.62a2.32,2.32,0,0,0,0,.46.94.94,0,0,0,.12.31.49.49,0,0,0,.19.18.57.57,0,0,0,.26.06.58.58,0,0,0,.26-.06.48.48,0,0,0,.19-.18.92.92,0,0,0,.11-.31,2.48,2.48,0,0,0,0-.46Z" fill="#fff"/><path id="_Compound_Path_139" data-name="&lt;Compound Path&gt;" d="M25.54,78.79h-.41v-2.7l-.82.3V76l1.16-.44h.06Z" fill="#fff"/><path id="_Compound_Path_140" data-name="&lt;Compound Path&gt;" d="M29.62,77.42a2.67,2.67,0,0,1-.07.66,1.17,1.17,0,0,1-.2.43.75.75,0,0,1-.32.24,1.25,1.25,0,0,1-.83,0,.75.75,0,0,1-.32-.24,1.19,1.19,0,0,1-.2-.43,2.58,2.58,0,0,1-.07-.66v-.49a2.59,2.59,0,0,1,.07-.66,1.14,1.14,0,0,1,.2-.43.74.74,0,0,1,.32-.23,1.27,1.27,0,0,1,.83,0,.74.74,0,0,1,.32.23,1.13,1.13,0,0,1,.2.43,2.63,2.63,0,0,1,.07.66Zm-.41-.56a2.36,2.36,0,0,0,0-.46.88.88,0,0,0-.11-.31.46.46,0,0,0-.19-.17.66.66,0,0,0-.52,0,.45.45,0,0,0-.19.17.91.91,0,0,0-.11.31,2.28,2.28,0,0,0,0,.46v.62a2.32,2.32,0,0,0,0,.46.94.94,0,0,0,.12.31.49.49,0,0,0,.19.18.57.57,0,0,0,.26.06.58.58,0,0,0,.26-.06.48.48,0,0,0,.19-.18.92.92,0,0,0,.11-.31,2.48,2.48,0,0,0,0-.46Z" fill="#fff"/><path id="_Compound_Path_141" data-name="&lt;Compound Path&gt;" d="M32.37,78.79H32v-2.7l-.82.3V76l1.16-.44h.06Z" fill="#fff"/><path id="_Compound_Path_142" data-name="&lt;Compound Path&gt;" d="M36.46,77.42a2.67,2.67,0,0,1-.07.66,1.17,1.17,0,0,1-.2.43.75.75,0,0,1-.32.24,1.25,1.25,0,0,1-.83,0,.75.75,0,0,1-.32-.24,1.19,1.19,0,0,1-.2-.43,2.58,2.58,0,0,1-.07-.66v-.49a2.59,2.59,0,0,1,.07-.66,1.14,1.14,0,0,1,.2-.43.74.74,0,0,1,.32-.23,1.27,1.27,0,0,1,.83,0,.74.74,0,0,1,.32.23,1.13,1.13,0,0,1,.2.43,2.63,2.63,0,0,1,.07.66Zm-.41-.56a2.36,2.36,0,0,0,0-.46.88.88,0,0,0-.11-.31.46.46,0,0,0-.19-.17.66.66,0,0,0-.52,0,.45.45,0,0,0-.19.17.91.91,0,0,0-.11.31,2.28,2.28,0,0,0,0,.46v.62a2.32,2.32,0,0,0,0,.46.94.94,0,0,0,.12.31.49.49,0,0,0,.19.18.57.57,0,0,0,.26.06.58.58,0,0,0,.26-.06.48.48,0,0,0,.19-.18.92.92,0,0,0,.11-.31,2.48,2.48,0,0,0,0-.46Z" fill="#fff"/><path id="_Compound_Path_143" data-name="&lt;Compound Path&gt;" d="M39.21,78.79h-.41v-2.7l-.82.3V76l1.16-.44h.06Z" fill="#fff"/><path id="_Compound_Path_144" data-name="&lt;Compound Path&gt;" d="M43.3,77.42a2.67,2.67,0,0,1-.07.66,1.17,1.17,0,0,1-.2.43.75.75,0,0,1-.32.24,1.25,1.25,0,0,1-.83,0,.75.75,0,0,1-.32-.24,1.19,1.19,0,0,1-.2-.43,2.58,2.58,0,0,1-.07-.66v-.49a2.59,2.59,0,0,1,.07-.66,1.14,1.14,0,0,1,.2-.43.74.74,0,0,1,.32-.23,1.27,1.27,0,0,1,.83,0,.74.74,0,0,1,.32.23,1.13,1.13,0,0,1,.2.43,2.63,2.63,0,0,1,.07.66Zm-.41-.56a2.36,2.36,0,0,0,0-.46.88.88,0,0,0-.11-.31.46.46,0,0,0-.19-.17.66.66,0,0,0-.52,0,.45.45,0,0,0-.19.17.91.91,0,0,0-.11.31,2.28,2.28,0,0,0,0,.46v.62a2.32,2.32,0,0,0,0,.46.94.94,0,0,0,.12.31.49.49,0,0,0,.19.18.57.57,0,0,0,.26.06.58.58,0,0,0,.26-.06.48.48,0,0,0,.19-.18.92.92,0,0,0,.11-.31,2.48,2.48,0,0,0,0-.46Z" fill="#fff"/><path id="_Compound_Path_145" data-name="&lt;Compound Path&gt;" d="M46.05,78.79h-.41v-2.7l-.82.3V76L46,75.58h.06Z" fill="#fff"/><path id="_Compound_Path_146" data-name="&lt;Compound Path&gt;" d="M50.14,77.42a2.67,2.67,0,0,1-.07.66,1.17,1.17,0,0,1-.2.43.75.75,0,0,1-.32.24,1.25,1.25,0,0,1-.83,0,.75.75,0,0,1-.32-.24,1.19,1.19,0,0,1-.2-.43,2.58,2.58,0,0,1-.07-.66v-.49a2.59,2.59,0,0,1,.07-.66,1.14,1.14,0,0,1,.2-.43.74.74,0,0,1,.32-.23,1.27,1.27,0,0,1,.83,0,.74.74,0,0,1,.32.23,1.13,1.13,0,0,1,.2.43,2.63,2.63,0,0,1,.07.66Zm-.41-.56a2.36,2.36,0,0,0,0-.46.88.88,0,0,0-.11-.31.46.46,0,0,0-.19-.17.66.66,0,0,0-.52,0,.45.45,0,0,0-.19.17.91.91,0,0,0-.11.31,2.28,2.28,0,0,0,0,.46v.62a2.32,2.32,0,0,0,0,.46.94.94,0,0,0,.12.31.49.49,0,0,0,.19.18.57.57,0,0,0,.26.06.58.58,0,0,0,.26-.06.48.48,0,0,0,.19-.18.92.92,0,0,0,.11-.31,2.48,2.48,0,0,0,0-.46Z" fill="#fff"/><path id="_Compound_Path_147" data-name="&lt;Compound Path&gt;" d="M52.89,78.79h-.41v-2.7l-.82.3V76l1.16-.44h.06Z" fill="#fff"/><path id="_Compound_Path_148" data-name="&lt;Compound Path&gt;" d="M57,77.42a2.67,2.67,0,0,1-.07.66,1.17,1.17,0,0,1-.2.43.75.75,0,0,1-.32.24,1.25,1.25,0,0,1-.83,0,.75.75,0,0,1-.32-.24,1.19,1.19,0,0,1-.2-.43,2.58,2.58,0,0,1-.07-.66v-.49a2.59,2.59,0,0,1,.07-.66,1.14,1.14,0,0,1,.2-.43.74.74,0,0,1,.32-.23,1.27,1.27,0,0,1,.83,0,.74.74,0,0,1,.32.23,1.13,1.13,0,0,1,.2.43,2.63,2.63,0,0,1,.07.66Zm-.41-.56a2.36,2.36,0,0,0,0-.46.88.88,0,0,0-.11-.31.46.46,0,0,0-.19-.17.66.66,0,0,0-.52,0,.45.45,0,0,0-.19.17.91.91,0,0,0-.11.31,2.28,2.28,0,0,0,0,.46v.62a2.32,2.32,0,0,0,0,.46.94.94,0,0,0,.12.31.49.49,0,0,0,.19.18.57.57,0,0,0,.26.06.58.58,0,0,0,.26-.06.48.48,0,0,0,.19-.18.92.92,0,0,0,.11-.31,2.48,2.48,0,0,0,0-.46Z" fill="#fff"/><path id="_Compound_Path_149" data-name="&lt;Compound Path&gt;" d="M59.73,78.79h-.41v-2.7l-.82.3V76l1.16-.44h.06Z" fill="#fff"/><path id="_Compound_Path_150" data-name="&lt;Compound Path&gt;" d="M63.82,77.42a2.67,2.67,0,0,1-.07.66,1.17,1.17,0,0,1-.2.43.75.75,0,0,1-.32.24,1.25,1.25,0,0,1-.83,0,.75.75,0,0,1-.32-.24,1.19,1.19,0,0,1-.2-.43,2.58,2.58,0,0,1-.07-.66v-.49a2.59,2.59,0,0,1,.07-.66,1.14,1.14,0,0,1,.2-.43.74.74,0,0,1,.32-.23,1.27,1.27,0,0,1,.83,0,.74.74,0,0,1,.32.23,1.13,1.13,0,0,1,.2.43,2.63,2.63,0,0,1,.07.66Zm-.41-.56a2.36,2.36,0,0,0,0-.46.88.88,0,0,0-.11-.31.46.46,0,0,0-.19-.17.66.66,0,0,0-.52,0,.45.45,0,0,0-.19.17.91.91,0,0,0-.11.31,2.28,2.28,0,0,0,0,.46v.62a2.32,2.32,0,0,0,0,.46.94.94,0,0,0,.12.31.49.49,0,0,0,.19.18.57.57,0,0,0,.26.06.58.58,0,0,0,.26-.06.48.48,0,0,0,.19-.18.92.92,0,0,0,.11-.31,2.48,2.48,0,0,0,0-.46Z" fill="#fff"/><path id="_Compound_Path_151" data-name="&lt;Compound Path&gt;" d="M66.57,78.79h-.41v-2.7l-.82.3V76l1.16-.44h.06Z" fill="#fff"/><path id="_Compound_Path_152" data-name="&lt;Compound Path&gt;" d="M70.66,77.42a2.67,2.67,0,0,1-.07.66,1.17,1.17,0,0,1-.2.43.75.75,0,0,1-.32.24,1.25,1.25,0,0,1-.83,0,.75.75,0,0,1-.32-.24,1.19,1.19,0,0,1-.2-.43,2.58,2.58,0,0,1-.07-.66v-.49a2.59,2.59,0,0,1,.07-.66,1.14,1.14,0,0,1,.2-.43.74.74,0,0,1,.32-.23,1.27,1.27,0,0,1,.83,0,.74.74,0,0,1,.32.23,1.13,1.13,0,0,1,.2.43,2.63,2.63,0,0,1,.07.66Zm-.41-.56a2.36,2.36,0,0,0,0-.46.88.88,0,0,0-.11-.31.46.46,0,0,0-.19-.17.66.66,0,0,0-.52,0,.45.45,0,0,0-.19.17.91.91,0,0,0-.11.31,2.28,2.28,0,0,0,0,.46v.62a2.32,2.32,0,0,0,0,.46.94.94,0,0,0,.12.31.49.49,0,0,0,.19.18.57.57,0,0,0,.26.06.58.58,0,0,0,.26-.06.48.48,0,0,0,.19-.18.92.92,0,0,0,.11-.31,2.48,2.48,0,0,0,0-.46Z" fill="#fff"/><path id="_Compound_Path_153" data-name="&lt;Compound Path&gt;" d="M73.41,78.79H73v-2.7l-.82.3V76l1.16-.44h.06Z" fill="#fff"/><path id="_Compound_Path_154" data-name="&lt;Compound Path&gt;" d="M18.7,86h-.41v-2.7l-.82.3V83.2l1.16-.44h.06Z" fill="#fff"/><path id="_Compound_Path_155" data-name="&lt;Compound Path&gt;" d="M22.79,84.61a2.67,2.67,0,0,1-.07.66,1.17,1.17,0,0,1-.2.43.75.75,0,0,1-.32.24,1.25,1.25,0,0,1-.83,0A.75.75,0,0,1,21,85.7a1.19,1.19,0,0,1-.2-.43,2.58,2.58,0,0,1-.07-.66v-.49a2.59,2.59,0,0,1,.07-.66A1.14,1.14,0,0,1,21,83a.74.74,0,0,1,.32-.23,1.27,1.27,0,0,1,.83,0,.74.74,0,0,1,.32.23,1.13,1.13,0,0,1,.2.43,2.63,2.63,0,0,1,.07.66Zm-.41-.56a2.36,2.36,0,0,0,0-.46.88.88,0,0,0-.11-.31.46.46,0,0,0-.19-.17.66.66,0,0,0-.52,0,.45.45,0,0,0-.19.17.91.91,0,0,0-.11.31,2.28,2.28,0,0,0,0,.46v.62a2.32,2.32,0,0,0,0,.46.94.94,0,0,0,.12.31.49.49,0,0,0,.19.18.57.57,0,0,0,.26.06.58.58,0,0,0,.26-.06.48.48,0,0,0,.19-.18.92.92,0,0,0,.11-.31,2.48,2.48,0,0,0,0-.46Z" fill="#fff"/><path id="_Compound_Path_156" data-name="&lt;Compound Path&gt;" d="M25.54,86h-.41v-2.7l-.82.3V83.2l1.16-.44h.06Z" fill="#fff"/><path id="_Compound_Path_157" data-name="&lt;Compound Path&gt;" d="M29.62,84.61a2.67,2.67,0,0,1-.07.66,1.17,1.17,0,0,1-.2.43.75.75,0,0,1-.32.24,1.25,1.25,0,0,1-.83,0,.75.75,0,0,1-.32-.24,1.19,1.19,0,0,1-.2-.43,2.58,2.58,0,0,1-.07-.66v-.49a2.59,2.59,0,0,1,.07-.66,1.14,1.14,0,0,1,.2-.43.74.74,0,0,1,.32-.23,1.27,1.27,0,0,1,.83,0,.74.74,0,0,1,.32.23,1.13,1.13,0,0,1,.2.43,2.63,2.63,0,0,1,.07.66Zm-.41-.56a2.36,2.36,0,0,0,0-.46.88.88,0,0,0-.11-.31.46.46,0,0,0-.19-.17.66.66,0,0,0-.52,0,.45.45,0,0,0-.19.17.91.91,0,0,0-.11.31,2.28,2.28,0,0,0,0,.46v.62a2.32,2.32,0,0,0,0,.46.94.94,0,0,0,.12.31.49.49,0,0,0,.19.18.57.57,0,0,0,.26.06.58.58,0,0,0,.26-.06.48.48,0,0,0,.19-.18.92.92,0,0,0,.11-.31,2.48,2.48,0,0,0,0-.46Z" fill="#fff"/><path id="_Compound_Path_158" data-name="&lt;Compound Path&gt;" d="M32.37,86H32v-2.7l-.82.3V83.2l1.16-.44h.06Z" fill="#fff"/><path id="_Compound_Path_159" data-name="&lt;Compound Path&gt;" d="M36.46,84.61a2.67,2.67,0,0,1-.07.66,1.17,1.17,0,0,1-.2.43.75.75,0,0,1-.32.24,1.25,1.25,0,0,1-.83,0,.75.75,0,0,1-.32-.24,1.19,1.19,0,0,1-.2-.43,2.58,2.58,0,0,1-.07-.66v-.49a2.59,2.59,0,0,1,.07-.66,1.14,1.14,0,0,1,.2-.43A.74.74,0,0,1,35,82.8a1.27,1.27,0,0,1,.83,0,.74.74,0,0,1,.32.23,1.13,1.13,0,0,1,.2.43,2.63,2.63,0,0,1,.07.66Zm-.41-.56a2.36,2.36,0,0,0,0-.46.88.88,0,0,0-.11-.31.46.46,0,0,0-.19-.17.66.66,0,0,0-.52,0,.45.45,0,0,0-.19.17.91.91,0,0,0-.11.31,2.28,2.28,0,0,0,0,.46v.62a2.32,2.32,0,0,0,0,.46.94.94,0,0,0,.12.31.49.49,0,0,0,.19.18.57.57,0,0,0,.26.06.58.58,0,0,0,.26-.06.48.48,0,0,0,.19-.18.92.92,0,0,0,.11-.31,2.48,2.48,0,0,0,0-.46Z" fill="#fff"/><path id="_Compound_Path_160" data-name="&lt;Compound Path&gt;" d="M39.21,86h-.41v-2.7l-.82.3V83.2l1.16-.44h.06Z" fill="#fff"/><path id="_Compound_Path_161" data-name="&lt;Compound Path&gt;" d="M43.3,84.61a2.67,2.67,0,0,1-.07.66,1.17,1.17,0,0,1-.2.43.75.75,0,0,1-.32.24,1.25,1.25,0,0,1-.83,0,.75.75,0,0,1-.32-.24,1.19,1.19,0,0,1-.2-.43,2.58,2.58,0,0,1-.07-.66v-.49a2.59,2.59,0,0,1,.07-.66,1.14,1.14,0,0,1,.2-.43.74.74,0,0,1,.32-.23,1.27,1.27,0,0,1,.83,0A.74.74,0,0,1,43,83a1.13,1.13,0,0,1,.2.43,2.63,2.63,0,0,1,.07.66Zm-.41-.56a2.36,2.36,0,0,0,0-.46.88.88,0,0,0-.11-.31.46.46,0,0,0-.19-.17.66.66,0,0,0-.52,0,.45.45,0,0,0-.19.17.91.91,0,0,0-.11.31,2.28,2.28,0,0,0,0,.46v.62a2.32,2.32,0,0,0,0,.46.94.94,0,0,0,.12.31.49.49,0,0,0,.19.18.57.57,0,0,0,.26.06.58.58,0,0,0,.26-.06.48.48,0,0,0,.19-.18.92.92,0,0,0,.11-.31,2.48,2.48,0,0,0,0-.46Z" fill="#fff"/><path id="_Compound_Path_162" data-name="&lt;Compound Path&gt;" d="M46.05,86h-.41v-2.7l-.82.3V83.2L46,82.76h.06Z" fill="#fff"/><path id="_Compound_Path_163" data-name="&lt;Compound Path&gt;" d="M50.14,84.61a2.67,2.67,0,0,1-.07.66,1.17,1.17,0,0,1-.2.43.75.75,0,0,1-.32.24,1.25,1.25,0,0,1-.83,0,.75.75,0,0,1-.32-.24,1.19,1.19,0,0,1-.2-.43,2.58,2.58,0,0,1-.07-.66v-.49a2.59,2.59,0,0,1,.07-.66,1.14,1.14,0,0,1,.2-.43.74.74,0,0,1,.32-.23,1.27,1.27,0,0,1,.83,0,.74.74,0,0,1,.32.23,1.13,1.13,0,0,1,.2.43,2.63,2.63,0,0,1,.07.66Zm-.41-.56a2.36,2.36,0,0,0,0-.46.88.88,0,0,0-.11-.31.46.46,0,0,0-.19-.17.66.66,0,0,0-.52,0,.45.45,0,0,0-.19.17.91.91,0,0,0-.11.31,2.28,2.28,0,0,0,0,.46v.62a2.32,2.32,0,0,0,0,.46.94.94,0,0,0,.12.31.49.49,0,0,0,.19.18.57.57,0,0,0,.26.06.58.58,0,0,0,.26-.06.48.48,0,0,0,.19-.18.92.92,0,0,0,.11-.31,2.48,2.48,0,0,0,0-.46Z" fill="#fff"/><path id="_Compound_Path_164" data-name="&lt;Compound Path&gt;" d="M52.89,86h-.41v-2.7l-.82.3V83.2l1.16-.44h.06Z" fill="#fff"/><path id="_Compound_Path_165" data-name="&lt;Compound Path&gt;" d="M57,84.61a2.67,2.67,0,0,1-.07.66,1.17,1.17,0,0,1-.2.43.75.75,0,0,1-.32.24,1.25,1.25,0,0,1-.83,0,.75.75,0,0,1-.32-.24,1.19,1.19,0,0,1-.2-.43,2.58,2.58,0,0,1-.07-.66v-.49a2.59,2.59,0,0,1,.07-.66,1.14,1.14,0,0,1,.2-.43.74.74,0,0,1,.32-.23,1.27,1.27,0,0,1,.83,0,.74.74,0,0,1,.32.23,1.13,1.13,0,0,1,.2.43,2.63,2.63,0,0,1,.07.66Zm-.41-.56a2.36,2.36,0,0,0,0-.46.88.88,0,0,0-.11-.31.46.46,0,0,0-.19-.17.66.66,0,0,0-.52,0,.45.45,0,0,0-.19.17.91.91,0,0,0-.11.31,2.28,2.28,0,0,0,0,.46v.62a2.32,2.32,0,0,0,0,.46.94.94,0,0,0,.12.31.49.49,0,0,0,.19.18.57.57,0,0,0,.26.06.58.58,0,0,0,.26-.06.48.48,0,0,0,.19-.18.92.92,0,0,0,.11-.31,2.48,2.48,0,0,0,0-.46Z" fill="#fff"/><path id="_Compound_Path_166" data-name="&lt;Compound Path&gt;" d="M59.73,86h-.41v-2.7l-.82.3V83.2l1.16-.44h.06Z" fill="#fff"/><path id="_Compound_Path_167" data-name="&lt;Compound Path&gt;" d="M63.82,84.61a2.67,2.67,0,0,1-.07.66,1.17,1.17,0,0,1-.2.43.75.75,0,0,1-.32.24,1.25,1.25,0,0,1-.83,0,.75.75,0,0,1-.32-.24,1.19,1.19,0,0,1-.2-.43,2.58,2.58,0,0,1-.07-.66v-.49a2.59,2.59,0,0,1,.07-.66,1.14,1.14,0,0,1,.2-.43.74.74,0,0,1,.32-.23,1.27,1.27,0,0,1,.83,0,.74.74,0,0,1,.32.23,1.13,1.13,0,0,1,.2.43,2.63,2.63,0,0,1,.07.66Zm-.41-.56a2.36,2.36,0,0,0,0-.46.88.88,0,0,0-.11-.31.46.46,0,0,0-.19-.17.66.66,0,0,0-.52,0,.45.45,0,0,0-.19.17.91.91,0,0,0-.11.31,2.28,2.28,0,0,0,0,.46v.62a2.32,2.32,0,0,0,0,.46.94.94,0,0,0,.12.31.49.49,0,0,0,.19.18.57.57,0,0,0,.26.06.58.58,0,0,0,.26-.06.48.48,0,0,0,.19-.18.92.92,0,0,0,.11-.31,2.48,2.48,0,0,0,0-.46Z" fill="#fff"/><path id="_Compound_Path_168" data-name="&lt;Compound Path&gt;" d="M66.57,86h-.41v-2.7l-.82.3V83.2l1.16-.44h.06Z" fill="#fff"/><path id="_Compound_Path_169" data-name="&lt;Compound Path&gt;" d="M70.66,84.61a2.67,2.67,0,0,1-.07.66,1.17,1.17,0,0,1-.2.43.75.75,0,0,1-.32.24,1.25,1.25,0,0,1-.83,0,.75.75,0,0,1-.32-.24,1.19,1.19,0,0,1-.2-.43,2.58,2.58,0,0,1-.07-.66v-.49a2.59,2.59,0,0,1,.07-.66,1.14,1.14,0,0,1,.2-.43.74.74,0,0,1,.32-.23,1.27,1.27,0,0,1,.83,0,.74.74,0,0,1,.32.23,1.13,1.13,0,0,1,.2.43,2.63,2.63,0,0,1,.07.66Zm-.41-.56a2.36,2.36,0,0,0,0-.46.88.88,0,0,0-.11-.31.46.46,0,0,0-.19-.17.66.66,0,0,0-.52,0,.45.45,0,0,0-.19.17.91.91,0,0,0-.11.31,2.28,2.28,0,0,0,0,.46v.62a2.32,2.32,0,0,0,0,.46.94.94,0,0,0,.12.31.49.49,0,0,0,.19.18.57.57,0,0,0,.26.06.58.58,0,0,0,.26-.06.48.48,0,0,0,.19-.18.92.92,0,0,0,.11-.31,2.48,2.48,0,0,0,0-.46Z" fill="#fff"/><path id="_Compound_Path_170" data-name="&lt;Compound Path&gt;" d="M73.41,86H73v-2.7l-.82.3V83.2l1.16-.44h.06Z" fill="#fff"/><path id="_Compound_Path_171" data-name="&lt;Compound Path&gt;" d="M18.7,93.15h-.41v-2.7l-.82.3v-.37l1.16-.44h.06Z" fill="#fff"/><path id="_Compound_Path_172" data-name="&lt;Compound Path&gt;" d="M22.79,91.79a2.67,2.67,0,0,1-.07.66,1.17,1.17,0,0,1-.2.43.75.75,0,0,1-.32.24,1.25,1.25,0,0,1-.83,0,.75.75,0,0,1-.32-.24,1.19,1.19,0,0,1-.2-.43,2.58,2.58,0,0,1-.07-.66V91.3a2.59,2.59,0,0,1,.07-.66,1.14,1.14,0,0,1,.2-.43.74.74,0,0,1,.32-.23,1.27,1.27,0,0,1,.83,0,.74.74,0,0,1,.32.23,1.13,1.13,0,0,1,.2.43,2.63,2.63,0,0,1,.07.66Zm-.41-.56a2.36,2.36,0,0,0,0-.46.88.88,0,0,0-.11-.31A.46.46,0,0,0,22,90.3a.66.66,0,0,0-.52,0,.45.45,0,0,0-.19.17.91.91,0,0,0-.11.31,2.28,2.28,0,0,0,0,.46v.62a2.32,2.32,0,0,0,0,.46.94.94,0,0,0,.12.31.49.49,0,0,0,.19.18.57.57,0,0,0,.26.06.58.58,0,0,0,.26-.06.48.48,0,0,0,.19-.18.92.92,0,0,0,.11-.31,2.48,2.48,0,0,0,0-.46Z" fill="#fff"/><path id="_Compound_Path_173" data-name="&lt;Compound Path&gt;" d="M25.54,93.15h-.41v-2.7l-.82.3v-.37l1.16-.44h.06Z" fill="#fff"/><path id="_Compound_Path_174" data-name="&lt;Compound Path&gt;" d="M29.62,91.79a2.67,2.67,0,0,1-.07.66,1.17,1.17,0,0,1-.2.43.75.75,0,0,1-.32.24,1.25,1.25,0,0,1-.83,0,.75.75,0,0,1-.32-.24,1.19,1.19,0,0,1-.2-.43,2.58,2.58,0,0,1-.07-.66V91.3a2.59,2.59,0,0,1,.07-.66,1.14,1.14,0,0,1,.2-.43A.74.74,0,0,1,28.2,90,1.27,1.27,0,0,1,29,90a.74.74,0,0,1,.32.23,1.13,1.13,0,0,1,.2.43,2.63,2.63,0,0,1,.07.66Zm-.41-.56a2.36,2.36,0,0,0,0-.46.88.88,0,0,0-.11-.31.46.46,0,0,0-.19-.17.66.66,0,0,0-.52,0,.45.45,0,0,0-.19.17.91.91,0,0,0-.11.31,2.28,2.28,0,0,0,0,.46v.62a2.32,2.32,0,0,0,0,.46.94.94,0,0,0,.12.31.49.49,0,0,0,.19.18.57.57,0,0,0,.26.06.58.58,0,0,0,.26-.06.48.48,0,0,0,.19-.18.92.92,0,0,0,.11-.31,2.48,2.48,0,0,0,0-.46Z" fill="#fff"/><path id="_Compound_Path_175" data-name="&lt;Compound Path&gt;" d="M32.37,93.15H32v-2.7l-.82.3v-.37l1.16-.44h.06Z" fill="#fff"/><path id="_Compound_Path_176" data-name="&lt;Compound Path&gt;" d="M36.46,91.79a2.67,2.67,0,0,1-.07.66,1.17,1.17,0,0,1-.2.43.75.75,0,0,1-.32.24,1.25,1.25,0,0,1-.83,0,.75.75,0,0,1-.32-.24,1.19,1.19,0,0,1-.2-.43,2.58,2.58,0,0,1-.07-.66V91.3a2.59,2.59,0,0,1,.07-.66,1.14,1.14,0,0,1,.2-.43A.74.74,0,0,1,35,90a1.27,1.27,0,0,1,.83,0,.74.74,0,0,1,.32.23,1.13,1.13,0,0,1,.2.43,2.63,2.63,0,0,1,.07.66Zm-.41-.56a2.36,2.36,0,0,0,0-.46.88.88,0,0,0-.11-.31.46.46,0,0,0-.19-.17.66.66,0,0,0-.52,0,.45.45,0,0,0-.19.17.91.91,0,0,0-.11.31,2.28,2.28,0,0,0,0,.46v.62a2.32,2.32,0,0,0,0,.46.94.94,0,0,0,.12.31.49.49,0,0,0,.19.18.57.57,0,0,0,.26.06.58.58,0,0,0,.26-.06.48.48,0,0,0,.19-.18.92.92,0,0,0,.11-.31,2.48,2.48,0,0,0,0-.46Z" fill="#fff"/><path id="_Compound_Path_177" data-name="&lt;Compound Path&gt;" d="M39.21,93.15h-.41v-2.7l-.82.3v-.37l1.16-.44h.06Z" fill="#fff"/><path id="_Compound_Path_178" data-name="&lt;Compound Path&gt;" d="M43.3,91.79a2.67,2.67,0,0,1-.07.66,1.17,1.17,0,0,1-.2.43.75.75,0,0,1-.32.24,1.25,1.25,0,0,1-.83,0,.75.75,0,0,1-.32-.24,1.19,1.19,0,0,1-.2-.43,2.58,2.58,0,0,1-.07-.66V91.3a2.59,2.59,0,0,1,.07-.66,1.14,1.14,0,0,1,.2-.43.74.74,0,0,1,.32-.23,1.27,1.27,0,0,1,.83,0,.74.74,0,0,1,.32.23,1.13,1.13,0,0,1,.2.43,2.63,2.63,0,0,1,.07.66Zm-.41-.56a2.36,2.36,0,0,0,0-.46.88.88,0,0,0-.11-.31.46.46,0,0,0-.19-.17.66.66,0,0,0-.52,0,.45.45,0,0,0-.19.17.91.91,0,0,0-.11.31,2.28,2.28,0,0,0,0,.46v.62a2.32,2.32,0,0,0,0,.46.94.94,0,0,0,.12.31.49.49,0,0,0,.19.18.57.57,0,0,0,.26.06.58.58,0,0,0,.26-.06.48.48,0,0,0,.19-.18.92.92,0,0,0,.11-.31,2.48,2.48,0,0,0,0-.46Z" fill="#fff"/><path id="_Compound_Path_179" data-name="&lt;Compound Path&gt;" d="M46.05,93.15h-.41v-2.7l-.82.3v-.37L46,89.95h.06Z" fill="#fff"/><path id="_Compound_Path_180" data-name="&lt;Compound Path&gt;" d="M50.14,91.79a2.67,2.67,0,0,1-.07.66,1.17,1.17,0,0,1-.2.43.75.75,0,0,1-.32.24,1.25,1.25,0,0,1-.83,0,.75.75,0,0,1-.32-.24,1.19,1.19,0,0,1-.2-.43,2.58,2.58,0,0,1-.07-.66V91.3a2.59,2.59,0,0,1,.07-.66,1.14,1.14,0,0,1,.2-.43.74.74,0,0,1,.32-.23,1.27,1.27,0,0,1,.83,0,.74.74,0,0,1,.32.23,1.13,1.13,0,0,1,.2.43,2.63,2.63,0,0,1,.07.66Zm-.41-.56a2.36,2.36,0,0,0,0-.46.88.88,0,0,0-.11-.31.46.46,0,0,0-.19-.17.66.66,0,0,0-.52,0,.45.45,0,0,0-.19.17.91.91,0,0,0-.11.31,2.28,2.28,0,0,0,0,.46v.62a2.32,2.32,0,0,0,0,.46.94.94,0,0,0,.12.31.49.49,0,0,0,.19.18.57.57,0,0,0,.26.06.58.58,0,0,0,.26-.06.48.48,0,0,0,.19-.18.92.92,0,0,0,.11-.31,2.48,2.48,0,0,0,0-.46Z" fill="#fff"/><path id="_Compound_Path_181" data-name="&lt;Compound Path&gt;" d="M52.89,93.15h-.41v-2.7l-.82.3v-.37l1.16-.44h.06Z" fill="#fff"/><path id="_Compound_Path_182" data-name="&lt;Compound Path&gt;" d="M57,91.79a2.67,2.67,0,0,1-.07.66,1.17,1.17,0,0,1-.2.43.75.75,0,0,1-.32.24,1.25,1.25,0,0,1-.83,0,.75.75,0,0,1-.32-.24,1.19,1.19,0,0,1-.2-.43,2.58,2.58,0,0,1-.07-.66V91.3a2.59,2.59,0,0,1,.07-.66,1.14,1.14,0,0,1,.2-.43.74.74,0,0,1,.32-.23,1.27,1.27,0,0,1,.83,0,.74.74,0,0,1,.32.23,1.13,1.13,0,0,1,.2.43,2.63,2.63,0,0,1,.07.66Zm-.41-.56a2.36,2.36,0,0,0,0-.46.88.88,0,0,0-.11-.31.46.46,0,0,0-.19-.17.66.66,0,0,0-.52,0,.45.45,0,0,0-.19.17.91.91,0,0,0-.11.31,2.28,2.28,0,0,0,0,.46v.62a2.32,2.32,0,0,0,0,.46.94.94,0,0,0,.12.31.49.49,0,0,0,.19.18.57.57,0,0,0,.26.06.58.58,0,0,0,.26-.06.48.48,0,0,0,.19-.18.92.92,0,0,0,.11-.31,2.48,2.48,0,0,0,0-.46Z" fill="#fff"/><path id="_Compound_Path_183" data-name="&lt;Compound Path&gt;" d="M59.73,93.15h-.41v-2.7l-.82.3v-.37l1.16-.44h.06Z" fill="#fff"/><path id="_Compound_Path_184" data-name="&lt;Compound Path&gt;" d="M63.82,91.79a2.67,2.67,0,0,1-.07.66,1.17,1.17,0,0,1-.2.43.75.75,0,0,1-.32.24,1.25,1.25,0,0,1-.83,0,.75.75,0,0,1-.32-.24,1.19,1.19,0,0,1-.2-.43,2.58,2.58,0,0,1-.07-.66V91.3a2.59,2.59,0,0,1,.07-.66,1.14,1.14,0,0,1,.2-.43.74.74,0,0,1,.32-.23,1.27,1.27,0,0,1,.83,0,.74.74,0,0,1,.32.23,1.13,1.13,0,0,1,.2.43,2.63,2.63,0,0,1,.07.66Zm-.41-.56a2.36,2.36,0,0,0,0-.46.88.88,0,0,0-.11-.31.46.46,0,0,0-.19-.17.66.66,0,0,0-.52,0,.45.45,0,0,0-.19.17.91.91,0,0,0-.11.31,2.28,2.28,0,0,0,0,.46v.62a2.32,2.32,0,0,0,0,.46.94.94,0,0,0,.12.31.49.49,0,0,0,.19.18.57.57,0,0,0,.26.06.58.58,0,0,0,.26-.06.48.48,0,0,0,.19-.18.92.92,0,0,0,.11-.31,2.48,2.48,0,0,0,0-.46Z" fill="#fff"/><path id="_Compound_Path_185" data-name="&lt;Compound Path&gt;" d="M66.57,93.15h-.41v-2.7l-.82.3v-.37l1.16-.44h.06Z" fill="#fff"/><path id="_Compound_Path_186" data-name="&lt;Compound Path&gt;" d="M70.66,91.79a2.67,2.67,0,0,1-.07.66,1.17,1.17,0,0,1-.2.43.75.75,0,0,1-.32.24,1.25,1.25,0,0,1-.83,0,.75.75,0,0,1-.32-.24,1.19,1.19,0,0,1-.2-.43,2.58,2.58,0,0,1-.07-.66V91.3a2.59,2.59,0,0,1,.07-.66,1.14,1.14,0,0,1,.2-.43.74.74,0,0,1,.32-.23,1.27,1.27,0,0,1,.83,0,.74.74,0,0,1,.32.23,1.13,1.13,0,0,1,.2.43,2.63,2.63,0,0,1,.07.66Zm-.41-.56a2.36,2.36,0,0,0,0-.46.88.88,0,0,0-.11-.31.46.46,0,0,0-.19-.17.66.66,0,0,0-.52,0,.45.45,0,0,0-.19.17.91.91,0,0,0-.11.31,2.28,2.28,0,0,0,0,.46v.62a2.32,2.32,0,0,0,0,.46.94.94,0,0,0,.12.31.49.49,0,0,0,.19.18.57.57,0,0,0,.26.06.58.58,0,0,0,.26-.06.48.48,0,0,0,.19-.18.92.92,0,0,0,.11-.31,2.48,2.48,0,0,0,0-.46Z" fill="#fff"/><path id="_Compound_Path_187" data-name="&lt;Compound Path&gt;" d="M73.41,93.15H73v-2.7l-.82.3v-.37l1.16-.44h.06Z" fill="#fff"/></g><g id="_Group_5" data-name="&lt;Group&gt;"><polygon id="_Path_2" data-name="&lt;Path&gt;" points="68.5 100 80.7 87.79 68.5 87.79 68.5 100" fill="#00aeef"/></g></g></g></g></svg>