<svg xmlns="http://www.w3.org/2000/svg" xmlns:xlink="http://www.w3.org/1999/xlink" viewBox="0 0 151.36 171"><defs><linearGradient id="linear-gradient" x1="134.37" y1="144.19" x2="16.99" y2="26.81" gradientUnits="userSpaceOnUse"><stop offset="0" stop-color="#0066b3"/><stop offset="1" stop-color="#00aeef"/></linearGradient></defs><title>about-platform-maintenance</title><g id="Layer_2" data-name="Layer 2"><g id="Layer_1-2" data-name="Layer 1"><g id="_Group_" data-name="&lt;Group&gt;"><path id="_Path_" data-name="&lt;Path&gt;" d="M145,132.28,81.53,168.93a11.71,11.71,0,0,1-11.71,0L6.35,132.28A11.71,11.71,0,0,1,.5,122.15V48.85A11.71,11.71,0,0,1,6.35,38.72L69.83,2.07a11.71,11.71,0,0,1,11.71,0L145,38.72a11.71,11.71,0,0,1,5.85,10.14v73.29A11.71,11.71,0,0,1,145,132.28Z" fill="none" stroke="url(#linear-gradient)"/><g id="_Group_2" data-name="&lt;Group&gt;"><path id="_Path_2" data-name="&lt;Path&gt;" d="M133.71,119.56,56.88,135.88a1.23,1.23,0,0,1-1-.25L25.06,110.38a.31.31,0,0,1,.15-.55l79.71-13a1.23,1.23,0,0,1,1,.27l27.92,21.95A.28.28,0,0,1,133.71,119.56Z" fill="#bcbec0"/><path id="_Path_3" data-name="&lt;Path&gt;" d="M135.18,113.3,106,93.72l-4.43-45.15a2.38,2.38,0,0,0-2.36-2.13H99L23.1,53.53A2.34,2.34,0,0,0,21,56.07l4.5,49.22v1.62a2.36,2.36,0,0,0,.91,1.85l31,23.91a2.35,2.35,0,0,0,1.9.44l75-15.48a2.35,2.35,0,0,0,1.87-2.29v-.1A2.34,2.34,0,0,0,135.18,113.3Z" fill="#0089cf"/><path id="_Path_4" data-name="&lt;Path&gt;" d="M104.8,94.23l.14,0-4.46-45.53a1.26,1.26,0,0,0-.65-1h0a1.26,1.26,0,0,0-.72-.15L23.2,54.6a1.26,1.26,0,0,0-.5.15h0A1.26,1.26,0,0,0,22.06,56l4.55,49.75h0v1.18a1.26,1.26,0,0,0,.49,1l31,23.91a1.26,1.26,0,0,0,1,.24l75-15.48a1.26,1.26,0,0,0,1-1.24v-.1a1.26,1.26,0,0,0-.56-1Z" fill="#fff"/><path id="_Path_5" data-name="&lt;Path&gt;" d="M25.29,55.75l73-6.7a1,1,0,0,1,1.09.89l4.09,41.79a1.42,1.42,0,0,1-1.19,1.54L29.87,104.66a1.42,1.42,0,0,1-1.63-1.27L24,57.29A1.42,1.42,0,0,1,25.29,55.75Z" fill="#b9e5fb"/><path id="_Compound_Path_" data-name="&lt;Compound Path&gt;" d="M29.64,104.94A1.68,1.68,0,0,1,28,103.42l-4.22-46.1a1.68,1.68,0,0,1,1.5-1.82h0l73-6.7a1.26,1.26,0,0,1,1.37,1.13l4.09,41.79a1.68,1.68,0,0,1-1.41,1.82L29.91,104.92ZM25.31,56a1.16,1.16,0,0,0-1,1.26l4.22,46.1a1.16,1.16,0,0,0,1.33,1L102.22,93a1.16,1.16,0,0,0,1-1.26L99.1,50a.74.74,0,0,0-.81-.66l-73,6.7Z" fill="#00aeef"/><path id="_Path_6" data-name="&lt;Path&gt;" d="M85.25,115.11l11.42-2.17a.29.29,0,0,1,.21,0l6,4a.29.29,0,0,1-.1.52l-11.68,2.31a.29.29,0,0,1-.23,0l-5.72-4.14A.29.29,0,0,1,85.25,115.11Z" fill="#d1d3d4"/><path id="_Path_7" data-name="&lt;Path&gt;" d="M58.89,131.76v-.93l.06-.07,75.58-16.06c.23,0,.6.13.6.37,0,0,0,.21,0,.28a1.23,1.23,0,0,1-.22.75,1.43,1.43,0,0,1-.79.48L59.32,132.12A.36.36,0,0,1,58.89,131.76Z" fill="#b9e5fb"/><path id="_Path_8" data-name="&lt;Path&gt;" d="M26.57,105.73v1.18a1.26,1.26,0,0,0,.49,1l31,23.91a.26.26,0,0,0,.41-.2v-.76a.2.2,0,0,0-.08-.16Z" fill="#d1d3d4"/><g id="_Group_3" data-name="&lt;Group&gt;"><path id="_Compound_Path_2" data-name="&lt;Compound Path&gt;" d="M53.61,65.15l-.42.74a1.52,1.52,0,0,0,.38,1.9l9.28,6.74.08.05A4.33,4.33,0,0,0,64,78.29a3.16,3.16,0,0,0,3.37.9L65.2,76.92a1.14,1.14,0,0,1-.08-1.45l1-1.24a.82.82,0,0,1,1.27,0l2.16,2.27a4.34,4.34,0,0,0-1.06-3.77,3.11,3.11,0,0,0-4-.57L64.28,72l-9-7.19A1.09,1.09,0,0,0,53.61,65.15Zm1.7.81a1,1,0,0,1,.24,1.2.69.69,0,0,1-1,.22,1,1,0,0,1-.24-1.2A.69.69,0,0,1,55.3,66Z" fill="#fff"/><path id="_Path_9" data-name="&lt;Path&gt;" d="M75.81,74.43l-.63-3.16-2,.15a10.11,10.11,0,0,0-1.85-3.06l.85-2L69.8,64.52l-1.26,1.72a7.58,7.58,0,0,0-3.16-.75l-.68-2.18L62,63.89l.21,2.28a7.68,7.68,0,0,0-1.84,1.21l2.37,2a5,5,0,0,1,1.64-.68c3-.65,6,1.64,6.71,5.11s-1.2,6.81-4.22,7.46-6-1.64-6.71-5.11A7.28,7.28,0,0,1,60,74l-2.56-1.46a10.58,10.58,0,0,0-.2,2.31l-1.88.68L56,78.69l2-.15a10.09,10.09,0,0,0,1.85,3.06l-.85,2,2.39,1.82,1.26-1.72a7.58,7.58,0,0,0,3.16.75l.68,2.18,2.75-.59L69,83.79a7.86,7.86,0,0,0,2.61-2l1.81,1.05,1.5-2.65-1.55-1.51a10.44,10.44,0,0,0,.54-3.57Z" fill="#fff"/></g><path id="_Path_10" data-name="&lt;Path&gt;" d="M77,76.11a.64.64,0,0,1-.59-.89,27.62,27.62,0,0,0,1.14-3.54c.83-3,1.77-6.46,4.59-6.91a3.72,3.72,0,0,1,.57,0c2.51,0,4.18,2.8,5.66,5.26,1.68,2.8,2.9,4.64,4.58,4.64l.35,0c2-.32,2.76-3.06,3.56-6,.65-2.38,1.38-5,3.05-6.27l.16,1.61c-.91,1.12-1.43,3-2,5-.83,3-1.77,6.46-4.59,6.9a3.69,3.69,0,0,1-.58,0c-2.51,0-4.18-2.8-5.66-5.26C85.6,67.84,84.38,66,82.7,66l-.36,0c-2,.32-2.76,3.07-3.56,6a28.6,28.6,0,0,1-1.2,3.72A.64.64,0,0,1,77,76.11Z" fill="#fff"/><path id="_Path_11" data-name="&lt;Path&gt;" d="M35,85.07c-2.51,0-4.18-2.8-5.66-5.26a16.19,16.19,0,0,0-2.9-4l-.13-1.6c1.7.84,3,3,4.13,4.89,1.68,2.8,2.9,4.64,4.58,4.64l.35,0c2-.32,2.76-3.07,3.56-6s1.77-6.46,4.59-6.9a3.69,3.69,0,0,1,.58,0c2.51,0,4.18,2.79,5.66,5.26,1.68,2.81,2.91,4.64,4.58,4.64l.36,0h.1a.64.64,0,0,1,.63.54.64.64,0,0,1-.53.73,3.72,3.72,0,0,1-.57,0h0c-2.51,0-4.18-2.8-5.66-5.26-1.68-2.8-2.9-4.64-4.58-4.64l-.35,0c-2,.32-2.76,3.07-3.56,6s-1.77,6.46-4.59,6.9A3.69,3.69,0,0,1,35,85.07Z" fill="#fff"/></g></g></g></g></svg>