<svg xmlns="http://www.w3.org/2000/svg" viewBox="0 0 58.23 80.79"><title>about-benefits-2</title><g id="Layer_2" data-name="Layer 2"><g id="Layer_1-2" data-name="Layer 1"><g id="_Group_" data-name="&lt;Group&gt;"><path id="_Path_" data-name="&lt;Path&gt;" d="M1.46,80.79V66.23L26,40c1.67-1.83,3.12-3.54,4.28-5.07a36,36,0,0,0,2.72-4,13.7,13.7,0,0,0,1.3-3,9.35,9.35,0,0,0,.36-2.46A8.08,8.08,0,0,0,33,20a5.72,5.72,0,0,0-4.56-1.67,7.39,7.39,0,0,0-3.15.62,6,6,0,0,0-2.16,1.66,8.24,8.24,0,0,0-1.44,2.79,13.27,13.27,0,0,0-.55,3.94v3.31H0V27.33A28.07,28.07,0,0,1,2,16.8,25.66,25.66,0,0,1,7.82,8a27.72,27.72,0,0,1,9.09-5.88A31.29,31.29,0,0,1,28.74,0,36.8,36.8,0,0,1,40,1.59a24.05,24.05,0,0,1,8.64,4.77,20.46,20.46,0,0,1,5.45,7.78,26.5,26.5,0,0,1,1.8,9.93,25.38,25.38,0,0,1-1.33,8.15,36.88,36.88,0,0,1-3.59,7.51A59.22,59.22,0,0,1,45.55,47c-2,2.36-4.31,4.86-6.8,7.42l-7.59,8H58.23V80.79Z" fill="#bcbec0" opacity="0.3"/><path id="_Compound_Path_" data-name="&lt;Compound Path&gt;" d="M54.92,77.48H4.77v-10L28.44,42.31q2.66-2.91,4.5-5.33a39.17,39.17,0,0,0,3-4.42,16.89,16.89,0,0,0,1.61-3.74A12.59,12.59,0,0,0,38,25.47a11.18,11.18,0,0,0-2.46-7.66,8.89,8.89,0,0,0-7-2.79,10.61,10.61,0,0,0-4.55.93,9.31,9.31,0,0,0-3.32,2.56,11.46,11.46,0,0,0-2,3.89,16.49,16.49,0,0,0-.7,4.93H3.31A24.66,24.66,0,0,1,5.07,18a22.27,22.27,0,0,1,5.08-7.64,24.32,24.32,0,0,1,8-5.18A27.89,27.89,0,0,1,28.74,3.31,33.37,33.37,0,0,1,39,4.74a20.68,20.68,0,0,1,7.46,4.1A17.1,17.1,0,0,1,51,15.37a23.11,23.11,0,0,1,1.56,8.69,22,22,0,0,1-1.16,7.09A33.42,33.42,0,0,1,48.14,38,55.67,55.67,0,0,1,43,44.89q-3,3.49-6.66,7.26L23.46,65.78H54.92Z" fill="#bcbec0"/></g></g></g></svg>