<svg xmlns="http://www.w3.org/2000/svg" xmlns:xlink="http://www.w3.org/1999/xlink" viewBox="0 0 151.36 171"><defs><linearGradient id="linear-gradient" x1="134.37" y1="144.19" x2="16.99" y2="26.81" gradientUnits="userSpaceOnUse"><stop offset="0" stop-color="#0066b3"/><stop offset="1" stop-color="#00aeef"/></linearGradient></defs><title>about-platform-acquisition</title><g id="Layer_2" data-name="Layer 2"><g id="Layer_1-2" data-name="Layer 1"><g id="_Group_" data-name="&lt;Group&gt;"><path id="_Path_" data-name="&lt;Path&gt;" d="M145,132.28,81.53,168.93a11.71,11.71,0,0,1-11.71,0L6.35,132.28A11.71,11.71,0,0,1,.5,122.15V48.85A11.71,11.71,0,0,1,6.35,38.72L69.83,2.07a11.71,11.71,0,0,1,11.71,0L145,38.72a11.71,11.71,0,0,1,5.85,10.14v73.29A11.71,11.71,0,0,1,145,132.28Z" fill="none" stroke="url(#linear-gradient)"/><g id="_Group_2" data-name="&lt;Group&gt;"><path id="_Path_2" data-name="&lt;Path&gt;" d="M126.23,96l.06-.83a.91.91,0,0,0-.44-.85l-4.07-2.22a.91.91,0,0,0-.4-.13l-3.72-.25a.91.91,0,0,0-.4.06l-.45.18-.07-.07c-.07,0-7-4.46-10.47-6.66l-1.05-.65c-4-2.41-8.46-5.14-6.2-11.21.75-2,5.71-5.1,10-7.09.92-.43,2-.85,3.16-1.29,4.42-1.71,9.93-3.83,9.95-8.33,0-6.16-4.7-9-8.25-10.53C102,41,67.29,45.88,52.32,50.31c-6,1.78-16.49,5.63-19.11,11.45a6.68,6.68,0,0,0,.09,5.79c1.63,3.49,8.21,8.8,11.32,10.15a.84.84,0,0,0,.67-1.54c-3.1-1.35-9.15-6.49-10.47-9.32a5,5,0,0,1-.08-4.39C37.18,57,48.18,53.29,52.8,51.92c16.47-4.87,49.83-8.87,60.38-4.19,5,2.22,7.26,5,7.25,9,0,3.35-4.72,5.16-8.87,6.76-1.18.46-2.29.88-3.27,1.34-1.59.74-9.59,4.6-10.87,8-2.74,7.38,3.06,10.91,6.9,13.24l1,.63c3.27,2.05,9.45,6,10.34,6.58v.17l.84,2.12a.41.41,0,0,0,.16.19l1,.61,3.05,2.14a.91.91,0,0,0,.78.17l1.17-.3,2.1,1.35.06-.94h0l-.06.94,3.7-1-2.14-1.19Z" fill="#bcbec0"/><g id="_Group_3" data-name="&lt;Group&gt;"><g id="_Group_4" data-name="&lt;Group&gt;"><path id="_Path_3" data-name="&lt;Path&gt;" d="M122.22,90.9l-3.72-.25a.91.91,0,0,0-.4.06l-1.52.61,0,.55.73,2.28a.91.91,0,0,0,.29.4l4.05,2.84a.91.91,0,0,0,.78.17l3.92-1a.91.91,0,0,0,.69-.82l.13-1.65a.91.91,0,0,0-.44-.85L122.62,91A.91.91,0,0,0,122.22,90.9Z" fill="#58595b"/></g><g id="_Group_5" data-name="&lt;Group&gt;"><path id="_Path_4" data-name="&lt;Path&gt;" d="M117.11,92.38a.84.84,0,0,1-.45-.13c-.07,0-6.95-4.45-10.46-6.65l-1-.63c-3.84-2.33-9.64-5.86-6.9-13.24,1.27-3.43,9.28-7.29,10.87-8,1-.45,2.09-.88,3.27-1.34,4.15-1.6,8.86-3.42,8.87-6.76,0-4-2.22-6.76-7.25-9-10.56-4.67-43.91-.68-60.38,4.19C49,52.16,38,55.92,35.59,61.32a5,5,0,0,0,.08,4.39C37,68.54,43,73.68,46.14,75a.84.84,0,1,1-.67,1.54c-3.11-1.36-9.69-6.66-11.32-10.15a6.68,6.68,0,0,1-.09-5.79c2.62-5.82,13.1-9.67,19.11-11.45,15-4.43,49.71-9.35,61.54-4.12,3.55,1.57,8.27,4.37,8.25,10.53,0,4.5-5.52,6.62-9.95,8.33-1.15.44-2.24.86-3.16,1.29-4.29,2-9.24,5.06-10,7.09-2.26,6.08,2.23,8.81,6.2,11.21l1.05.65c3.52,2.21,10.4,6.62,10.47,6.66a.84.84,0,0,1-.46,1.55Z" fill="#58595b"/></g><g id="_Group_6" data-name="&lt;Group&gt;"><polygon id="_Path_5" data-name="&lt;Path&gt;" points="125.85 97.15 129.13 96.42 129.04 97.69 125.76 98.51 125.85 97.15" fill="#58595b"/></g><g id="_Group_7" data-name="&lt;Group&gt;"><polygon id="_Path_6" data-name="&lt;Path&gt;" points="128.88 96.96 125.81 97.73 123.24 96.16 127.67 96.21 128.88 96.96" fill="#414042"/></g><g id="_Group_8" data-name="&lt;Group&gt;"><path id="_Compound_Path_" data-name="&lt;Compound Path&gt;" d="M125.77,97.08l-.1,1.54,3.45-.86.1-1.44Zm3.27.6-3.28.83.09-1.36,3.27-.74Z" fill="#f1f2f2"/></g><g id="_Group_9" data-name="&lt;Group&gt;"><polygon id="_Path_7" data-name="&lt;Path&gt;" points="125.81 97.73 128.88 96.96 128.87 97.12 125.8 97.91 125.81 97.73" fill="#bcbec0"/></g><g id="_Group_10" data-name="&lt;Group&gt;"><polygon id="_Path_8" data-name="&lt;Path&gt;" points="129.22 96.31 126.35 94.46 122.9 95.23 122.8 96.77 125.67 98.62 125.77 97.08 129.22 96.31" fill="#f1f2f2"/></g><g id="_Group_11" data-name="&lt;Group&gt;"><g id="_Group_12" data-name="&lt;Group&gt;"><path id="_Path_9" data-name="&lt;Path&gt;" d="M125.67,96.87a.19.19,0,0,0,.15,0l3-.67-2.4-1.55s-.1,0,1.09.79l-2.94.66Z" fill="#d1d3d4"/></g><g id="_Group_13" data-name="&lt;Group&gt;"><path id="_Path_10" data-name="&lt;Path&gt;" d="M123.05,95.51,123,96.57a.19.19,0,0,0,.09.18l2.45,1.58.07-1.07a.19.19,0,0,0-.09-.18Z" fill="#d1d3d4"/></g></g><g id="_Group_14" data-name="&lt;Group&gt;"><path id="_Path_11" data-name="&lt;Path&gt;" d="M126.39,93.64l-3.54.46a.94.94,0,0,0-.75.86l-.14,2.14.44-2a.94.94,0,0,1,.62-.66Z" fill="#808285"/></g><g id="_Group_15" data-name="&lt;Group&gt;"><path id="_Path_12" data-name="&lt;Path&gt;" d="M116.55,92.09v.25l.84,2.12a.41.41,0,0,0,.16.19l4,2.44a.18.18,0,0,0,.27-.15v-2a.41.41,0,0,0-.19-.34l-3-1.93-.12-.05Z" fill="#4d4d4f"/></g></g><g id="_Group_16" data-name="&lt;Group&gt;"><path id="_Path_13" data-name="&lt;Path&gt;" d="M117.44,116.37l-50.57,16a.84.84,0,0,1-.82-.18L22.87,92.37a.84.84,0,0,1,.42-1.45l47-8.53a.84.84,0,0,1,.63.14l46.77,32.36A.84.84,0,0,1,117.44,116.37Z" fill="#bcbec0"/></g><g id="_Group_17" data-name="&lt;Group&gt;"><path id="_Path_14" data-name="&lt;Path&gt;" d="M69.53,129.07a4.92,4.92,0,0,1-3.23-1.21L23.76,89.94a4.72,4.72,0,0,1-1.62-3.56v-5.8l1.09-.27,49-11a3.37,3.37,0,0,1,2.86.67l44,35.71v5.44a3.39,3.39,0,0,1-2.4,3.23l-45.74,14.5A4.9,4.9,0,0,1,69.53,129.07Z" fill="#0089cf"/></g><g id="_Group_18" data-name="&lt;Group&gt;"><path id="_Path_15" data-name="&lt;Path&gt;" d="M118.24,106.09,74.56,70.64a2.53,2.53,0,0,0-2.14-.5L23,81.23h0v5.16a3.88,3.88,0,0,0,1.33,2.92l42.53,37.92a4.08,4.08,0,0,0,3.85.83l45.74-14.5a2.53,2.53,0,0,0,1.8-2.42v-5Z" fill="#fff"/></g><g id="_Group_19" data-name="&lt;Group&gt;"><path id="_Path_16" data-name="&lt;Path&gt;" d="M69.83,121.75l48.41-14.94V112a1.42,1.42,0,0,1-1,1.28L70.82,128.18a1.12,1.12,0,0,1-1.44-1.07v-4.76A.62.62,0,0,1,69.83,121.75Z" fill="#b9e5fb"/></g><g id="_Group_20" data-name="&lt;Group&gt;"><g id="_Group_21" data-name="&lt;Group&gt;"><path id="_Path_17" data-name="&lt;Path&gt;" d="M88.73,115.6l15.33-4.53v2.38a.45.45,0,0,1-.3.4L89,118.3a.35.35,0,0,1-.46-.34v-2.17A.2.2,0,0,1,88.73,115.6Z" fill="#808285"/></g><g id="_Group_22" data-name="&lt;Group&gt;"><path id="_Compound_Path_2" data-name="&lt;Compound Path&gt;" d="M88.94,118.52a.57.57,0,0,1-.56-.57v-2.17a.41.41,0,0,1,.29-.39h0l15.6-4.6v2.66a.66.66,0,0,1-.45.61L89.11,118.5Zm-.14-2.73V118a.14.14,0,0,0,.06.12.15.15,0,0,0,.13,0l14.72-4.44a.24.24,0,0,0,.15-.2v-2.1Z" fill="#fff"/></g></g><g id="_Group_23" data-name="&lt;Group&gt;"><path id="_Path_18" data-name="&lt;Path&gt;" d="M23,86.38V82.33l45.07,39.41a.38.38,0,0,1,.13.29l-.07,5.42a.48.48,0,0,1-.8.36L24,89.09A3.4,3.4,0,0,1,23,86.38Z" fill="#d1d3d4"/></g></g></g></g></g></svg>