<svg xmlns="http://www.w3.org/2000/svg" viewBox="0 0 23.37 22.5"><title>about-bullet</title><g id="Layer_2" data-name="Layer 2"><g id="Layer_1-2" data-name="Layer 1"><g id="_Group_" data-name="&lt;Group&gt;"><path id="_Path_" data-name="&lt;Path&gt;" d="M17.19,22.5a2.79,2.79,0,0,1-1.3-.32L11.68,20,7.48,22.17a2.78,2.78,0,0,1-4-2.93l.8-4.69L.84,11.24A2.78,2.78,0,0,1,2.39,6.5l4.7-.68,2.1-4.26a2.78,2.78,0,0,1,5,0l2.1,4.26L21,6.5a2.78,2.78,0,0,1,1.54,4.75l-3.4,3.32.8,4.68a2.78,2.78,0,0,1-2.74,3.25Z" fill="#ebc900" opacity="0.3"/><path id="_Path_2" data-name="&lt;Path&gt;" d="M12.39,2.44l2.39,4.84a.78.78,0,0,0,.59.43l5.34.78a.78.78,0,0,1,.43,1.33l-3.86,3.76a.78.78,0,0,0-.22.69L18,19.58a.78.78,0,0,1-1.13.82L12,17.9a.78.78,0,0,0-.73,0L6.55,20.4a.78.78,0,0,1-1.13-.82l.91-5.31a.78.78,0,0,0-.22-.69L2.24,9.81a.78.78,0,0,1,.43-1.33L8,7.7a.78.78,0,0,0,.59-.43L11,2.44A.78.78,0,0,1,12.39,2.44Z" fill="#ebc900"/></g></g></g></svg>