<svg xmlns="http://www.w3.org/2000/svg" viewBox="0 0 199.69 200"><title>about-data-more-1</title><g id="Layer_2" data-name="Layer 2"><g id="Layer_1-2" data-name="Layer 1"><g id="_Group_" data-name="&lt;Group&gt;"><path id="_Compound_Path_" data-name="&lt;Compound Path&gt;" d="M147.89,68.43H133.52V65.57l6.79-7.23q.76-.84,1.29-1.53a11.22,11.22,0,0,0,.85-1.27,4.83,4.83,0,0,0,.46-1.07,3.59,3.59,0,0,0,.14-1,3.2,3.2,0,0,0-.71-2.2,2.55,2.55,0,0,0-2-.8,3,3,0,0,0-1.3.27,2.67,2.67,0,0,0-1,.73,3.3,3.3,0,0,0-.58,1.12,4.73,4.73,0,0,0-.2,1.41H133.1a7.07,7.07,0,0,1,.5-2.67,6.4,6.4,0,0,1,1.45-2.19,7,7,0,0,1,2.3-1.48,8,8,0,0,1,3-.55,9.57,9.57,0,0,1,2.93.41,5.93,5.93,0,0,1,2.14,1.17,4.91,4.91,0,0,1,1.31,1.87,6.62,6.62,0,0,1,.45,2.49,6.31,6.31,0,0,1-.33,2,9.59,9.59,0,0,1-.94,2,16,16,0,0,1-1.46,2q-.86,1-1.91,2.08l-3.7,3.9h9Z" fill="#fff"/><path id="_Compound_Path_2" data-name="&lt;Compound Path&gt;" d="M161.74,47.23v3.43h-.24a8.65,8.65,0,0,0-2.67.38,6.14,6.14,0,0,0-2,1.09,5.47,5.47,0,0,0-1.38,1.71,6.89,6.89,0,0,0-.7,2.26,5.83,5.83,0,0,1,1.82-1.25,5.92,5.92,0,0,1,2.41-.47,5.66,5.66,0,0,1,2.6.57,5.44,5.44,0,0,1,1.87,1.54,6.78,6.78,0,0,1,1.12,2.26,9.81,9.81,0,0,1,.37,2.74,8,8,0,0,1-.5,2.85,6.52,6.52,0,0,1-3.65,3.8,7.94,7.94,0,0,1-6-.06,6.63,6.63,0,0,1-2.33-1.71A7.84,7.84,0,0,1,151,63.75a10.35,10.35,0,0,1-.53-3.38V58.76a14.38,14.38,0,0,1,.72-4.65,10.41,10.41,0,0,1,2.09-3.64,9.4,9.4,0,0,1,3.36-2.38,11.41,11.41,0,0,1,4.52-.85Zm-4.06,10.5a3.4,3.4,0,0,0-1,.15,3.3,3.3,0,0,0-.86.42,3.38,3.38,0,0,0-.68.62,3.13,3.13,0,0,0-.47.74v1.25a7.33,7.33,0,0,0,.23,1.94,4.18,4.18,0,0,0,.64,1.39,2.61,2.61,0,0,0,1,.83,3,3,0,0,0,1.27.27,2.63,2.63,0,0,0,1.23-.29,2.83,2.83,0,0,0,.94-.79,3.76,3.76,0,0,0,.61-1.2,5.1,5.1,0,0,0,.22-1.52,5.35,5.35,0,0,0-.21-1.53,3.6,3.6,0,0,0-.61-1.21,2.81,2.81,0,0,0-1-.79A2.88,2.88,0,0,0,157.68,57.74Z" fill="#fff"/><path id="_Compound_Path_3" data-name="&lt;Compound Path&gt;" d="M167.3,51.48a4.73,4.73,0,0,1,.3-1.68,3.93,3.93,0,0,1,.87-1.38,4.16,4.16,0,0,1,1.42-.94,5.11,5.11,0,0,1,2-.35,5.26,5.26,0,0,1,2,.35,4.14,4.14,0,0,1,1.43.94,3.85,3.85,0,0,1,.86,1.38,4.83,4.83,0,0,1,.29,1.68v1.11a4.78,4.78,0,0,1-.29,1.66,3.78,3.78,0,0,1-.86,1.37,4.22,4.22,0,0,1-1.42.93,5.15,5.15,0,0,1-2,.35,5.22,5.22,0,0,1-2-.35,4.18,4.18,0,0,1-1.43-.93,3.85,3.85,0,0,1-.87-1.37,4.68,4.68,0,0,1-.3-1.66Zm2.77,1.11a2.41,2.41,0,0,0,.11.72,1.69,1.69,0,0,0,.9,1,1.82,1.82,0,0,0,.79.16,1.79,1.79,0,0,0,.78-.16,1.56,1.56,0,0,0,.55-.43,1.81,1.81,0,0,0,.32-.61,2.38,2.38,0,0,0,.11-.72V51.48a2.44,2.44,0,0,0-.11-.73,1.8,1.8,0,0,0-.32-.62,1.54,1.54,0,0,0-.55-.43,1.87,1.87,0,0,0-.8-.16,1.78,1.78,0,0,0-.78.16,1.62,1.62,0,0,0-.55.43,1.74,1.74,0,0,0-.33.62,2.47,2.47,0,0,0-.11.73Zm2.62,14.26-2-1.09L180.9,49.37l2,1.09Zm4.64-3.57a4.75,4.75,0,0,1,.3-1.67,3.78,3.78,0,0,1,.88-1.38,4.29,4.29,0,0,1,1.43-.93,5.11,5.11,0,0,1,2-.35,5.26,5.26,0,0,1,2,.35,4.19,4.19,0,0,1,1.43.93,3.77,3.77,0,0,1,.86,1.38,4.85,4.85,0,0,1,.29,1.67v1.12a4.77,4.77,0,0,1-.29,1.67,3.87,3.87,0,0,1-.86,1.37,4.08,4.08,0,0,1-1.42.93,5.26,5.26,0,0,1-2,.34,5.33,5.33,0,0,1-2-.34,4.12,4.12,0,0,1-1.44-.93,3.88,3.88,0,0,1-.88-1.37,4.67,4.67,0,0,1-.3-1.67Zm2.77,1.12a2,2,0,0,0,.13.72,1.91,1.91,0,0,0,.37.61,1.79,1.79,0,0,0,.57.42,1.71,1.71,0,0,0,.75.16,2,2,0,0,0,.86-.16,1.41,1.41,0,0,0,.54-.42,1.58,1.58,0,0,0,.28-.61,3.19,3.19,0,0,0,.08-.72V63.28a2.37,2.37,0,0,0-.11-.72,1.76,1.76,0,0,0-.33-.61,1.63,1.63,0,0,0-.56-.42,2,2,0,0,0-1.57,0,1.62,1.62,0,0,0-.56.42,1.78,1.78,0,0,0-.33.61,2.4,2.4,0,0,0-.11.72Z" fill="#fff"/></g><path id="_Path_" data-name="&lt;Path&gt;" d="M184.57,115A86.14,86.14,0,0,0,186,99.29a7.17,7.17,0,1,0-14.34,0,71.78,71.78,0,0,1-1.24,13.18l-12.57-2.22a59,59,0,0,0,1-11,7.65,7.65,0,0,0-15.3,0,43.68,43.68,0,0,1-.8,8.31l-13.49-2.38a29.07,29.07,0,0,0-2-17,7.65,7.65,0,1,0-14,6.23,13.72,13.72,0,0,1,.95,8.15L100,100V.09A100,100,0,1,0,198.4,117.4Z" fill="#6dcff6"/><g id="_Group_2" data-name="&lt;Group&gt;"><path d="M10.31,93l8.52.42-.12,2.52a4.69,4.69,0,0,1-.19,1.16,2.44,2.44,0,0,1-.45.86,1.78,1.78,0,0,1-.72.52,2.38,2.38,0,0,1-1,.14,2.06,2.06,0,0,1-.61-.12,1.83,1.83,0,0,1-.52-.29,1.9,1.9,0,0,1-.4-.44,2.09,2.09,0,0,1-.26-.58,2.14,2.14,0,0,1-.31.67,2,2,0,0,1-.49.5,2.07,2.07,0,0,1-.62.3,2.1,2.1,0,0,1-.71.08,2.56,2.56,0,0,1-1-.25,2.05,2.05,0,0,1-.73-.59,2.44,2.44,0,0,1-.42-.89,3.75,3.75,0,0,1-.1-1.12Zm4.06.92-3.49-.17-.11,2.16a2.65,2.65,0,0,0,.08.85,1.8,1.8,0,0,0,.32.65,1.5,1.5,0,0,0,.54.43,2,2,0,0,0,.74.17,1.91,1.91,0,0,0,.68-.08,1.44,1.44,0,0,0,.56-.33,1.71,1.71,0,0,0,.39-.59,2.57,2.57,0,0,0,.17-.86Zm.6,0-.1,2a2.22,2.22,0,0,0,.36,1.42,1.45,1.45,0,0,0,1.16.55,1.42,1.42,0,0,0,1.23-.45,2.54,2.54,0,0,0,.46-1.53l.09-1.8Z" fill="#fff"/><path d="M11,104.65a2,2,0,0,1-.7-.77,2.77,2.77,0,0,1-.28-1.22,2.56,2.56,0,0,1,.1-.85,1.63,1.63,0,0,1,.4-.67,1.91,1.91,0,0,1,.73-.45,3.56,3.56,0,0,1,1.1-.19l4.06-.13,0,.7-4.07.13a2.64,2.64,0,0,0-.85.14,1.44,1.44,0,0,0-.53.33,1.13,1.13,0,0,0-.28.47,1.79,1.79,0,0,0-.07.57,2.67,2.67,0,0,0,.12.74A1.8,1.8,0,0,0,11,104a1.58,1.58,0,0,0,.41.37,2,2,0,0,0,.51.22l4.58-.15,0,.7-6.34.2,0-.68Z" fill="#fff"/><path d="M12.37,111.15a1.17,1.17,0,0,0,.38-.11.92.92,0,0,0,.34-.29,1.88,1.88,0,0,0,.27-.55,4.28,4.28,0,0,0,.17-.88,7.26,7.26,0,0,1,.16-1,2.68,2.68,0,0,1,.28-.73,1.4,1.4,0,0,1,.45-.48,1.46,1.46,0,0,1,.65-.22,1.5,1.5,0,0,1,.68.08,1.62,1.62,0,0,1,.59.38,2.24,2.24,0,0,1,.44.66A3,3,0,0,1,17,109a3.17,3.17,0,0,1,0,1,2.19,2.19,0,0,1-.32.78,1.72,1.72,0,0,1-.55.52,1.78,1.78,0,0,1-.73.24l-.07-.7a1.14,1.14,0,0,0,.47-.16,1.21,1.21,0,0,0,.38-.36,1.63,1.63,0,0,0,.23-.54,2,2,0,0,0,0-.71,2.19,2.19,0,0,0-.17-.69,1.44,1.44,0,0,0-.31-.44,1,1,0,0,0-.78-.27,1.08,1.08,0,0,0-.37.1.76.76,0,0,0-.29.28,1.91,1.91,0,0,0-.22.54,6.89,6.89,0,0,0-.16.89,7.28,7.28,0,0,1-.19,1,2.53,2.53,0,0,1-.31.73,1.45,1.45,0,0,1-.47.46,1.61,1.61,0,0,1-.65.2,1.57,1.57,0,0,1-.73-.09,1.6,1.6,0,0,1-.6-.41,2.26,2.26,0,0,1-.44-.7,3.72,3.72,0,0,1-.19-2,2.38,2.38,0,0,1,.33-.82,1.76,1.76,0,0,1,.55-.54,1.65,1.65,0,0,1,.69-.24l.07.7a1.21,1.21,0,0,0-.6.26,1.31,1.31,0,0,0-.35.46,1.81,1.81,0,0,0-.15.58,3,3,0,0,0,0,.61,2.39,2.39,0,0,0,.17.69,1.65,1.65,0,0,0,.3.48,1.08,1.08,0,0,0,.39.27A.93.93,0,0,0,12.37,111.15Z" fill="#fff"/><path d="M11.25,114.6l-.11-.69,6.26-1,.11.69Zm7.94-2.1a.47.47,0,0,1,.35.07.46.46,0,0,1,.19.33.46.46,0,0,1-.39.55.46.46,0,0,1-.35-.08.47.47,0,0,1-.19-.33.45.45,0,0,1,.39-.55Z" fill="#fff"/><path d="M17.94,116.09l-1.05.25a2.81,2.81,0,0,1,.56.27,2.3,2.3,0,0,1,.83.89,2.41,2.41,0,0,1,.22.61,2.62,2.62,0,0,1,.05.86,1.53,1.53,0,0,1-.27.71,1.86,1.86,0,0,1-.62.54,3.63,3.63,0,0,1-1,.36l-4,.87-.15-.68,4-.87a2.72,2.72,0,0,0,.78-.28,1.32,1.32,0,0,0,.45-.4,1.09,1.09,0,0,0,.18-.52,2.13,2.13,0,0,0,0-.62,1.76,1.76,0,0,0-.27-.64,1.87,1.87,0,0,0-.44-.46,2.24,2.24,0,0,0-.56-.29,2.8,2.8,0,0,0-.6-.15l-4.24.92-.15-.68,6.2-1.34Z" fill="#fff"/><path d="M13.75,126a2.8,2.8,0,0,1-.1-1.16,2.67,2.67,0,0,1,.36-1,3,3,0,0,1,.77-.84,3.54,3.54,0,0,1,1.14-.56l.24-.07a3.81,3.81,0,0,1,1.33-.17,3.12,3.12,0,0,1,1.14.28,2.66,2.66,0,0,1,.87.64A2.41,2.41,0,0,1,20,124a2.53,2.53,0,0,1,.1,1.09,2.21,2.21,0,0,1-.35.93,2.65,2.65,0,0,1-.74.73,4,4,0,0,1-1.07.49l-.41.12L16.25,123l-.13,0a3,3,0,0,0-.9.43,2.46,2.46,0,0,0-.64.65,2.09,2.09,0,0,0-.32.81,2,2,0,0,0,.06.9,2.28,2.28,0,0,0,.48.89,2.2,2.2,0,0,0,.85.56l-.2.52a3.1,3.1,0,0,1-.52-.23,2.2,2.2,0,0,1-.48-.36,2.62,2.62,0,0,1-.41-.53A3.18,3.18,0,0,1,13.75,126Zm5.69-1.83a1.79,1.79,0,0,0-.36-.66,1.84,1.84,0,0,0-.59-.45,2.3,2.3,0,0,0-.77-.22,3.26,3.26,0,0,0-.9,0l1.08,3.65.07,0a2.84,2.84,0,0,0,.7-.34,2.07,2.07,0,0,0,.53-.52,1.69,1.69,0,0,0,.28-.67A1.67,1.67,0,0,0,19.45,124.15Z" fill="#fff"/><path d="M18,132.83a1.18,1.18,0,0,0,.34-.2.93.93,0,0,0,.25-.37,1.88,1.88,0,0,0,.12-.6,4.25,4.25,0,0,0-.06-.9,7.41,7.41,0,0,1-.09-1,2.72,2.72,0,0,1,.08-.78,1.39,1.39,0,0,1,.31-.58,1.47,1.47,0,0,1,.58-.38,1.49,1.49,0,0,1,.68-.09,1.62,1.62,0,0,1,.67.22,2.24,2.24,0,0,1,.6.53,3,3,0,0,1,.46.82,3.16,3.16,0,0,1,.21,1,2.18,2.18,0,0,1-.11.83,1.71,1.71,0,0,1-.4.64,1.78,1.78,0,0,1-.65.41l-.25-.66a1.13,1.13,0,0,0,.41-.27,1.19,1.19,0,0,0,.27-.44,1.62,1.62,0,0,0,.09-.58,2,2,0,0,0-.14-.69,2.15,2.15,0,0,0-.34-.62,1.44,1.44,0,0,0-.41-.35,1,1,0,0,0-.43-.13,1,1,0,0,0-.4.06,1.08,1.08,0,0,0-.34.2.77.77,0,0,0-.21.35,1.91,1.91,0,0,0-.08.58,6.76,6.76,0,0,0,.07.9,7.36,7.36,0,0,1,.07,1,2.5,2.5,0,0,1-.12.78,1.45,1.45,0,0,1-.34.56,1.61,1.61,0,0,1-.58.36,1.57,1.57,0,0,1-.73.1,1.6,1.6,0,0,1-.69-.24,2.28,2.28,0,0,1-.6-.56,3.4,3.4,0,0,1-.46-.86,3.36,3.36,0,0,1-.23-1.05,2.4,2.4,0,0,1,.12-.88,1.76,1.76,0,0,1,.4-.66,1.66,1.66,0,0,1,.61-.4l.25.66a1.22,1.22,0,0,0-.52.4,1.33,1.33,0,0,0-.22.54,1.81,1.81,0,0,0,0,.6,3,3,0,0,0,.15.59,2.4,2.4,0,0,0,.34.62,1.64,1.64,0,0,0,.42.39,1.08,1.08,0,0,0,.45.17A.93.93,0,0,0,18,132.83Z" fill="#fff"/><path d="M20.53,138.62a1.17,1.17,0,0,0,.32-.22.93.93,0,0,0,.23-.38,1.88,1.88,0,0,0,.08-.6,4.2,4.2,0,0,0-.12-.89,7.49,7.49,0,0,1-.16-1,2.71,2.71,0,0,1,0-.78,1.41,1.41,0,0,1,.27-.6,1.47,1.47,0,0,1,.55-.42,1.5,1.5,0,0,1,.67-.14,1.62,1.62,0,0,1,.69.17,2.23,2.23,0,0,1,.63.48,2.93,2.93,0,0,1,.52.78,3.14,3.14,0,0,1,.28,1,2.18,2.18,0,0,1-.05.84,1.7,1.7,0,0,1-.35.67,1.78,1.78,0,0,1-.61.46l-.3-.64a1.13,1.13,0,0,0,.39-.3,1.21,1.21,0,0,0,.24-.46,1.64,1.64,0,0,0,0-.59,2.08,2.08,0,0,0-.19-.68,2.18,2.18,0,0,0-.38-.59,1.44,1.44,0,0,0-.43-.32,1,1,0,0,0-.43-.1,1,1,0,0,0-.4.09,1.09,1.09,0,0,0-.32.22.77.77,0,0,0-.19.36,1.92,1.92,0,0,0,0,.58,6.79,6.79,0,0,0,.14.89,7.16,7.16,0,0,1,.14,1,2.54,2.54,0,0,1-.06.79,1.46,1.46,0,0,1-.3.58,1.61,1.61,0,0,1-.55.4,1.58,1.58,0,0,1-.72.15,1.61,1.61,0,0,1-.7-.19,2.29,2.29,0,0,1-.64-.52,3.72,3.72,0,0,1-.83-1.86,2.42,2.42,0,0,1,.05-.88,1.77,1.77,0,0,1,.35-.69,1.65,1.65,0,0,1,.58-.45l.3.64a1.22,1.22,0,0,0-.49.44,1.33,1.33,0,0,0-.18.55,1.78,1.78,0,0,0,0,.6,2.91,2.91,0,0,0,.2.58,2.37,2.37,0,0,0,.38.6,1.63,1.63,0,0,0,.44.36,1.08,1.08,0,0,0,.46.13A.93.93,0,0,0,20.53,138.62Z" fill="#fff"/><path d="M21.81,144.57l7.27-4.46,1.25,2a3.82,3.82,0,0,1,.53,1.4,3.28,3.28,0,0,1-.07,1.39,3.59,3.59,0,0,1-.65,1.28,4.49,4.49,0,0,1-1.22,1.06l-.66.41a4.48,4.48,0,0,1-1.5.6,3.55,3.55,0,0,1-1.44,0,3.32,3.32,0,0,1-1.28-.58,4,4,0,0,1-1-1.13ZM28.94,141l-6.23,3.82.85,1.38a3.09,3.09,0,0,0,.85.93,2.67,2.67,0,0,0,1.06.45,3,3,0,0,0,1.19,0,4,4,0,0,0,1.24-.52l.68-.42a4,4,0,0,0,1-.88,3,3,0,0,0,.56-1,2.64,2.64,0,0,0,.07-1.13,3,3,0,0,0-.43-1.15Z" fill="#fff"/><path d="M28.54,154.65a2,2,0,0,1,.27-.31l.36-.32a2.5,2.5,0,0,1-.53-.07,2.47,2.47,0,0,1-.54-.2,2.89,2.89,0,0,1-.53-.35,2.78,2.78,0,0,1-.48-.51,2.48,2.48,0,0,1-.39-.76,1.87,1.87,0,0,1-.08-.74,1.7,1.7,0,0,1,.21-.67,1.83,1.83,0,0,1,1.28-.88,1.8,1.8,0,0,1,.85.09,2.81,2.81,0,0,1,.86.5,4.86,4.86,0,0,1,.83.89l.77,1,.58-.43a1.39,1.39,0,0,0,.61-1,1.73,1.73,0,0,0-.41-1.21,2.24,2.24,0,0,0-.48-.49,1.72,1.72,0,0,0-.54-.27,1.3,1.3,0,0,0-.54,0,1,1,0,0,0-.47.19l-.41-.57a1.46,1.46,0,0,1,.66-.27,1.92,1.92,0,0,1,.77,0,2.54,2.54,0,0,1,.79.37,3,3,0,0,1,.72.71,3.21,3.21,0,0,1,.45.82,2,2,0,0,1,.12.82,1.76,1.76,0,0,1-.24.76,2.23,2.23,0,0,1-.63.67l-2.47,1.82-.27.21-.25.23-.22.24a1.62,1.62,0,0,0-.16.22l-.06,0Zm-.9-2.07a2.45,2.45,0,0,0,.5.51,2.28,2.28,0,0,0,.56.32,2.09,2.09,0,0,0,.59.13,2,2,0,0,0,.58,0l1.12-.83-.71-1a4.4,4.4,0,0,0-.65-.72,2.33,2.33,0,0,0-.65-.41,1.31,1.31,0,0,0-.62-.1,1.12,1.12,0,0,0-.57.22,1.19,1.19,0,0,0-.33.37,1.16,1.16,0,0,0-.15.46,1.35,1.35,0,0,0,.05.52A1.72,1.72,0,0,0,27.64,152.57Z" fill="#fff"/><path d="M37,152.51l-1.25,1,.84,1-.44.37-.84-1-3.25,2.7a1.76,1.76,0,0,0-.37.4.8.8,0,0,0-.13.34.56.56,0,0,0,.05.3,1.24,1.24,0,0,0,.17.27,2.17,2.17,0,0,0,.21.22l.2.18-.42.39a1.63,1.63,0,0,1-.27-.21,3.37,3.37,0,0,1-.29-.3,1.84,1.84,0,0,1-.29-.48,1,1,0,0,1-.07-.51,1.33,1.33,0,0,1,.21-.55,2.61,2.61,0,0,1,.54-.59l3.25-2.71-.75-.9.44-.37.75.9,1.25-1Z" fill="#fff"/><path d="M35.67,162.88a2,2,0,0,1,.23-.34q.15-.19.32-.36a2.5,2.5,0,0,1-.54,0,2.46,2.46,0,0,1-.56-.14,2.89,2.89,0,0,1-.56-.28,2.85,2.85,0,0,1-.54-.45,2.49,2.49,0,0,1-.48-.7,1.88,1.88,0,0,1-.17-.73,1.7,1.7,0,0,1,.13-.69,1.83,1.83,0,0,1,1.16-1,1.81,1.81,0,0,1,.85,0,2.81,2.81,0,0,1,.92.39,4.87,4.87,0,0,1,.93.78l.89.95.52-.49a1.39,1.39,0,0,0,.49-1,1.73,1.73,0,0,0-.55-1.16,2.2,2.2,0,0,0-.54-.43,1.73,1.73,0,0,0-.57-.2,1.3,1.3,0,0,0-.54,0,1,1,0,0,0-.45.25l-.48-.52a1.47,1.47,0,0,1,.62-.35,1.93,1.93,0,0,1,.77,0,2.53,2.53,0,0,1,.83.27,3,3,0,0,1,.8.61,3.19,3.19,0,0,1,.54.76,2,2,0,0,1,.22.8,1.76,1.76,0,0,1-.14.79,2.22,2.22,0,0,1-.54.74L37,162.37l-.24.24-.22.26-.19.26a1.72,1.72,0,0,0-.13.24l-.05,0Zm-1.14-1.95a2.45,2.45,0,0,0,.55.45,2.27,2.27,0,0,0,.6.25,2.08,2.08,0,0,0,.6.06,2,2,0,0,0,.57-.11l1-1-.82-.87a4.39,4.39,0,0,0-.73-.64,2.34,2.34,0,0,0-.69-.33,1.31,1.31,0,0,0-.63,0,1.13,1.13,0,0,0-.54.29,1.18,1.18,0,0,0-.28.4,1.13,1.13,0,0,0-.09.48,1.34,1.34,0,0,0,.12.51A1.7,1.7,0,0,0,34.53,160.93Z" fill="#fff"/><path d="M43.51,166a5,5,0,0,1-1,.86,3.08,3.08,0,0,1-1,.43,2.21,2.21,0,0,1-1,0,2.17,2.17,0,0,1-.92-.52,2.51,2.51,0,0,1-.7-1,2.28,2.28,0,0,1-.11-1.08l-.61.62-.49-.44,6.06-6.65.52.47-2.41,2.65a2.26,2.26,0,0,1,1.11,0,2.38,2.38,0,0,1,1.05.59,2.25,2.25,0,0,1,.61.86,2.16,2.16,0,0,1,.13,1,3,3,0,0,1-.33,1.07,5.11,5.11,0,0,1-.78,1.09Zm-.44-.56a4.82,4.82,0,0,0,.62-.83,2.55,2.55,0,0,0,.32-.84,1.6,1.6,0,0,0-.54-1.52,2.09,2.09,0,0,0-.59-.39,1.76,1.76,0,0,0-.58-.14,1.8,1.8,0,0,0-.56.05,2.5,2.5,0,0,0-.51.19l-1.93,2.11a2.34,2.34,0,0,0-.11.54,1.79,1.79,0,0,0,0,.55,1.82,1.82,0,0,0,.22.54,2.26,2.26,0,0,0,.43.52,1.63,1.63,0,0,0,.74.41,1.67,1.67,0,0,0,.8,0,2.54,2.54,0,0,0,.81-.39,4.67,4.67,0,0,0,.78-.69Z" fill="#fff"/><path d="M46.08,172a2,2,0,0,1,.17-.37q.12-.21.26-.41a2.51,2.51,0,0,1-.53.07,2.47,2.47,0,0,1-.58,0,3,3,0,0,1-.6-.19,2.8,2.8,0,0,1-.6-.36,2.47,2.47,0,0,1-.58-.62,1.87,1.87,0,0,1-.28-.69,1.71,1.71,0,0,1,0-.7,1.83,1.83,0,0,1,1-1.19,1.8,1.8,0,0,1,.84-.15,2.81,2.81,0,0,1,1,.25,4.87,4.87,0,0,1,1,.63l1,.8.44-.57a1.39,1.39,0,0,0,.33-1.1,1.73,1.73,0,0,0-.72-1.06,2.21,2.21,0,0,0-.6-.34,1.71,1.71,0,0,0-.59-.11,1.32,1.32,0,0,0-.53.1,1,1,0,0,0-.4.31l-.55-.44a1.46,1.46,0,0,1,.56-.44,1.92,1.92,0,0,1,.76-.16,2.53,2.53,0,0,1,.86.14,3,3,0,0,1,.88.49,3.18,3.18,0,0,1,.65.67,2,2,0,0,1,.34.75,1.75,1.75,0,0,1,0,.8,2.21,2.21,0,0,1-.42.82l-1.89,2.42-.2.27-.18.29-.14.29a1.66,1.66,0,0,0-.09.26l0,.06Zm-1.43-1.75a2.46,2.46,0,0,0,.62.36,2.27,2.27,0,0,0,.63.15,2.08,2.08,0,0,0,.6,0,2,2,0,0,0,.55-.19l.86-1.1L47,168.7a4.37,4.37,0,0,0-.82-.52,2.34,2.34,0,0,0-.74-.22,1.3,1.3,0,0,0-.62.07,1.12,1.12,0,0,0-.48.37,1.17,1.17,0,0,0-.22.44,1.16,1.16,0,0,0,0,.48,1.35,1.35,0,0,0,.19.48A1.7,1.7,0,0,0,44.65,170.25Z" fill="#fff"/><path d="M52.39,174.42a1.18,1.18,0,0,0,.16-.36.92.92,0,0,0,0-.44,1.87,1.87,0,0,0-.25-.55,4.27,4.27,0,0,0-.57-.69,7.44,7.44,0,0,1-.64-.74,2.7,2.7,0,0,1-.38-.68,1.4,1.4,0,0,1-.08-.65,1.47,1.47,0,0,1,.25-.64,1.5,1.5,0,0,1,.5-.47A1.63,1.63,0,0,1,52,169a2.23,2.23,0,0,1,.79.08,2.93,2.93,0,0,1,.85.4,3.14,3.14,0,0,1,.74.67,2.2,2.2,0,0,1,.39.74,1.71,1.71,0,0,1,0,.75,1.77,1.77,0,0,1-.29.71l-.58-.39a1.15,1.15,0,0,0,.18-.46,1.22,1.22,0,0,0,0-.52,1.64,1.64,0,0,0-.27-.53,2,2,0,0,0-.52-.48,2.17,2.17,0,0,0-.64-.31,1.44,1.44,0,0,0-.54,0,1,1,0,0,0-.42.15,1,1,0,0,0-.29.28,1.09,1.09,0,0,0-.16.35.77.77,0,0,0,0,.41,1.93,1.93,0,0,0,.28.52,6.78,6.78,0,0,0,.58.69,7.23,7.23,0,0,1,.66.8,2.52,2.52,0,0,1,.36.71,1.45,1.45,0,0,1,0,.65,1.61,1.61,0,0,1-.26.63,1.58,1.58,0,0,1-.54.51,1.6,1.6,0,0,1-.7.2,2.28,2.28,0,0,1-.81-.11,3.72,3.72,0,0,1-1.68-1.15,2.37,2.37,0,0,1-.42-.78,1.75,1.75,0,0,1-.06-.77,1.65,1.65,0,0,1,.26-.68l.58.39a1.22,1.22,0,0,0-.19.63,1.32,1.32,0,0,0,.13.57,1.8,1.8,0,0,0,.35.49,3,3,0,0,0,.47.39,2.39,2.39,0,0,0,.64.31,1.63,1.63,0,0,0,.57.08,1.08,1.08,0,0,0,.46-.13A.93.93,0,0,0,52.39,174.42Z" fill="#fff"/><path d="M55.81,178.48a2.79,2.79,0,0,1-.88-.77,2.7,2.7,0,0,1-.46-1,3,3,0,0,1,0-1.14,3.58,3.58,0,0,1,.43-1.19l.12-.22a3.81,3.81,0,0,1,.85-1,3.13,3.13,0,0,1,1-.59,2.67,2.67,0,0,1,1.07-.14,2.41,2.41,0,0,1,1,.31,2.54,2.54,0,0,1,.83.72,2.21,2.21,0,0,1,.39.91,2.64,2.64,0,0,1,0,1,4,4,0,0,1-.43,1.1l-.21.37-3.93-2.23-.07.12a3,3,0,0,0-.35.93,2.47,2.47,0,0,0,0,.92,2.12,2.12,0,0,0,.33.8,2,2,0,0,0,.67.61,2.29,2.29,0,0,0,1,.31,2.2,2.2,0,0,0,1-.18l.22.51a3,3,0,0,1-.53.2,2.22,2.22,0,0,1-.6.07,2.6,2.6,0,0,1-.66-.1A3.12,3.12,0,0,1,55.81,178.48Zm2.84-5.26a1.78,1.78,0,0,0-.72-.23,1.83,1.83,0,0,0-.74.08,2.29,2.29,0,0,0-.71.38,3.25,3.25,0,0,0-.63.65L59.17,176l0-.07a2.82,2.82,0,0,0,.27-.73,2,2,0,0,0,0-.74,1.63,1.63,0,0,0-.85-1.21Z" fill="#fff"/><path d="M59.43,179.82a.5.5,0,0,1,.27-.25.47.47,0,0,1,.39,0,.48.48,0,0,1,.27.29.49.49,0,0,1,0,.37.45.45,0,0,1-.27.24.51.51,0,0,1-.39,0,.49.49,0,0,1-.27-.28A.46.46,0,0,1,59.43,179.82ZM61.87,175a.5.5,0,0,1,.27-.25.47.47,0,0,1,.39,0,.48.48,0,0,1,.27.29.49.49,0,0,1,0,.37.45.45,0,0,1-.27.24.51.51,0,0,1-.39,0,.49.49,0,0,1-.27-.28A.46.46,0,0,1,61.87,175Z" fill="#fff"/><path d="M71.51,182.58a3.8,3.8,0,0,1-.71,1,2.62,2.62,0,0,1-.9.59,2.72,2.72,0,0,1-1.08.17,3.85,3.85,0,0,1-1.24-.28,3.09,3.09,0,0,1-1.13-.73,2.89,2.89,0,0,1-.66-1.1,3.6,3.6,0,0,1-.17-1.37,5.1,5.1,0,0,1,.35-1.55l.39-1a5.12,5.12,0,0,1,.78-1.38,3.55,3.55,0,0,1,1-.9,2.94,2.94,0,0,1,1.24-.36,3.2,3.2,0,0,1,1.36.23,3.75,3.75,0,0,1,1.07.62,2.6,2.6,0,0,1,.67.85,2.71,2.71,0,0,1,.27,1,3.67,3.67,0,0,1-.14,1.2l-.68-.26a3.52,3.52,0,0,0,.11-.95,2,2,0,0,0-.18-.8,2,2,0,0,0-.5-.65,2.89,2.89,0,0,0-.85-.48,2.39,2.39,0,0,0-1.08-.17,2.28,2.28,0,0,0-1,.32,3,3,0,0,0-.83.77,4.74,4.74,0,0,0-.64,1.17l-.39,1a4.83,4.83,0,0,0-.32,1.27,3.12,3.12,0,0,0,.08,1.13,2.24,2.24,0,0,0,.48.91,2.27,2.27,0,0,0,.9.61,2.4,2.4,0,0,0,1.79.11,2.6,2.6,0,0,0,1.25-1.26Z" fill="#fff"/><path d="M76.61,186a2,2,0,0,1-1,.43,2.77,2.77,0,0,1-1.25-.11,2.59,2.59,0,0,1-.78-.36,1.64,1.64,0,0,1-.51-.59,1.92,1.92,0,0,1-.2-.83,3.58,3.58,0,0,1,.17-1.1l1.14-3.9.67.19-1.14,3.91a2.64,2.64,0,0,0-.12.85,1.44,1.44,0,0,0,.15.61,1.14,1.14,0,0,0,.37.41,1.79,1.79,0,0,0,.52.24,2.67,2.67,0,0,0,.74.12,1.78,1.78,0,0,0,.61-.1,1.57,1.57,0,0,0,.48-.27,2,2,0,0,0,.37-.42l1.28-4.4.68.2L77,187l-.65-.19Z" fill="#fff"/><path d="M83.23,186.74a1.19,1.19,0,0,0,0-.39.93.93,0,0,0-.17-.41,1.9,1.9,0,0,0-.44-.42,4.29,4.29,0,0,0-.79-.43,7.41,7.41,0,0,1-.87-.45,2.71,2.71,0,0,1-.61-.49,1.4,1.4,0,0,1-.32-.57,1.48,1.48,0,0,1,0-.69,1.5,1.5,0,0,1,.29-.62,1.63,1.63,0,0,1,.55-.45,2.23,2.23,0,0,1,.77-.22,2.92,2.92,0,0,1,.94.06,3.16,3.16,0,0,1,.94.34,2.19,2.19,0,0,1,.64.54,1.71,1.71,0,0,1,.33.68,1.8,1.8,0,0,1,0,.77l-.69-.15a1.13,1.13,0,0,0,0-.49,1.22,1.22,0,0,0-.22-.47,1.65,1.65,0,0,0-.45-.39,2,2,0,0,0-.66-.25,2.17,2.17,0,0,0-.71,0,1.43,1.43,0,0,0-.52.15,1,1,0,0,0-.5.66,1.08,1.08,0,0,0,0,.39.77.77,0,0,0,.18.37,1.91,1.91,0,0,0,.45.38,6.91,6.91,0,0,0,.79.42,7.24,7.24,0,0,1,.91.5,2.52,2.52,0,0,1,.59.52,1.45,1.45,0,0,1,.29.59,1.6,1.6,0,0,1,0,.68,1.57,1.57,0,0,1-.31.67A1.59,1.59,0,0,1,83,188a2.28,2.28,0,0,1-.8.2,3.39,3.39,0,0,1-1-.07,3.36,3.36,0,0,1-1-.37,2.38,2.38,0,0,1-.68-.57,1.76,1.76,0,0,1-.34-.69,1.64,1.64,0,0,1,0-.73l.69.15a1.22,1.22,0,0,0,.06.65,1.32,1.32,0,0,0,.33.48,1.82,1.82,0,0,0,.5.33,3,3,0,0,0,.58.19,2.39,2.39,0,0,0,.71.05,1.65,1.65,0,0,0,.55-.14,1.09,1.09,0,0,0,.38-.29A.92.92,0,0,0,83.23,186.74Z" fill="#fff"/><path d="M87.7,181l-.24,1.6,1.3.2-.09.57-1.3-.2-.63,4.18a1.73,1.73,0,0,0,0,.54.8.8,0,0,0,.13.34.57.57,0,0,0,.24.19,1.27,1.27,0,0,0,.3.08l.3,0H88l-.06.57a1.62,1.62,0,0,1-.34,0l-.41,0a1.88,1.88,0,0,1-.54-.16,1,1,0,0,1-.39-.33,1.35,1.35,0,0,1-.2-.55,2.63,2.63,0,0,1,0-.8l.63-4.18-1.15-.17.08-.57,1.15.17.24-1.6Z" fill="#fff"/><path d="M89.37,186.06a3.89,3.89,0,0,1,.31-1.25,3,3,0,0,1,.66-1,2.61,2.61,0,0,1,.95-.58,2.74,2.74,0,0,1,1.18-.14,2.79,2.79,0,0,1,1.15.34,2.6,2.6,0,0,1,.83.74,3,3,0,0,1,.48,1.06,3.94,3.94,0,0,1,.09,1.29l0,.19a3.92,3.92,0,0,1-.31,1.25,3,3,0,0,1-.66,1,2.58,2.58,0,0,1-.95.58,3,3,0,0,1-2.32-.21,2.61,2.61,0,0,1-.83-.74,3,3,0,0,1-.48-1.06,3.86,3.86,0,0,1-.09-1.29Zm.68.25a3.48,3.48,0,0,0,.05,1,2.55,2.55,0,0,0,.33.86,2,2,0,0,0,.62.62,2.08,2.08,0,0,0,1.82.16,2,2,0,0,0,.71-.5,2.55,2.55,0,0,0,.48-.79,3.44,3.44,0,0,0,.23-1l0-.19a3.45,3.45,0,0,0-.05-1,2.6,2.6,0,0,0-.33-.86,2,2,0,0,0-.62-.63,1.92,1.92,0,0,0-.89-.29,1.87,1.87,0,0,0-.92.13,2,2,0,0,0-.71.51,2.59,2.59,0,0,0-.48.79,3.42,3.42,0,0,0-.23,1Z" fill="#fff"/><path d="M97.21,183.63l0,1a2.69,2.69,0,0,1,.36-.48,2.12,2.12,0,0,1,.46-.37,2.31,2.31,0,0,1,.56-.24,2.51,2.51,0,0,1,.65-.09,2.32,2.32,0,0,1,1.2.27,1.62,1.62,0,0,1,.72.93,2.64,2.64,0,0,1,.36-.5,2.32,2.32,0,0,1,.48-.4,2.46,2.46,0,0,1,.6-.27,2.59,2.59,0,0,1,.71-.11,2.72,2.72,0,0,1,.88.12,1.58,1.58,0,0,1,.66.41,1.88,1.88,0,0,1,.42.72,3.51,3.51,0,0,1,.16,1.05l.07,4.13h-.7l-.07-4.14a2.63,2.63,0,0,0-.12-.83,1.27,1.27,0,0,0-.32-.52,1.12,1.12,0,0,0-.49-.26,2.39,2.39,0,0,0-.62-.07,1.89,1.89,0,0,0-.78.17,1.9,1.9,0,0,0-.56.4,1.79,1.79,0,0,0-.35.54,1.76,1.76,0,0,0-.14.57l.07,4.19h-.7l-.07-4.19a2.42,2.42,0,0,0-.12-.79,1.27,1.27,0,0,0-.33-.5,1.17,1.17,0,0,0-.49-.27,2.26,2.26,0,0,0-.63-.07,1.83,1.83,0,0,0-.7.14,1.75,1.75,0,0,0-.53.35,1.9,1.9,0,0,0-.36.49,3,3,0,0,0-.22.56l.07,4.35h-.7l-.1-6.34Z" fill="#fff"/><path d="M110.24,189.45a2.79,2.79,0,0,1-1.16-.1,2.68,2.68,0,0,1-1-.54,3,3,0,0,1-.69-.91,3.55,3.55,0,0,1-.35-1.22l0-.25a3.79,3.79,0,0,1,.07-1.34,3.12,3.12,0,0,1,.48-1.07,2.68,2.68,0,0,1,.79-.74,2.42,2.42,0,0,1,1-.34,2.52,2.52,0,0,1,1.09.1,2.21,2.21,0,0,1,.85.51,2.65,2.65,0,0,1,.58.86,3.94,3.94,0,0,1,.29,1.14l0,.42-4.5.5,0,.13a3,3,0,0,0,.26,1,2.46,2.46,0,0,0,.53.75,2.11,2.11,0,0,0,.74.46,2,2,0,0,0,.9.1,2.29,2.29,0,0,0,1-.31,2.19,2.19,0,0,0,.71-.74l.47.28a3,3,0,0,1-.32.47,2.18,2.18,0,0,1-.44.41,2.63,2.63,0,0,1-.59.31A3.15,3.15,0,0,1,110.24,189.45Zm-.79-5.93a1.78,1.78,0,0,0-.72.23,1.84,1.84,0,0,0-.55.5,2.28,2.28,0,0,0-.35.72,3.25,3.25,0,0,0-.13.9l3.78-.42v-.08a2.86,2.86,0,0,0-.21-.75,2.08,2.08,0,0,0-.41-.62,1.64,1.64,0,0,0-1.4-.48Z" fill="#fff"/><path d="M116.13,182.64a2.67,2.67,0,0,0-.47,0,1.87,1.87,0,0,0-.62.21,1.62,1.62,0,0,0-.45.38,1.72,1.72,0,0,0-.29.51,2.5,2.5,0,0,0-.14.61l.74,4.29-.69.12-1.08-6.25.68-.12.18,1a2.1,2.1,0,0,1,.55-.93,1.88,1.88,0,0,1,1-.48l.26,0,.21,0Z" fill="#fff"/><path d="M122.46,187.08l-.7.18-2.1-8.27.7-.18Z" fill="#fff"/><path d="M123.53,180.23l.35,1a2.84,2.84,0,0,1,.21-.58,2.32,2.32,0,0,1,.34-.51,2.29,2.29,0,0,1,.47-.4,2.4,2.4,0,0,1,.59-.28,2.62,2.62,0,0,1,.85-.13,1.54,1.54,0,0,1,.73.2,1.87,1.87,0,0,1,.6.57,3.62,3.62,0,0,1,.45,1l1.24,3.93-.67.21-1.25-3.94a2.72,2.72,0,0,0-.35-.75,1.33,1.33,0,0,0-.44-.41,1.09,1.09,0,0,0-.54-.13,2.11,2.11,0,0,0-.62.11,1.76,1.76,0,0,0-.61.33,1.86,1.86,0,0,0-.41.48,2.23,2.23,0,0,0-.24.58,2.76,2.76,0,0,0-.09.61l1.31,4.14-.67.21-1.91-6Z" fill="#fff"/><path d="M131.84,184.1l-2.08-5.38-1,.38-.21-.54,1-.38-.28-.73a2.65,2.65,0,0,1-.19-.84,1.67,1.67,0,0,1,.12-.72,1.6,1.6,0,0,1,.41-.57,2.19,2.19,0,0,1,.68-.41l.36-.11a2.36,2.36,0,0,1,.37-.06l.16.57-.29.06-.33.11a1.15,1.15,0,0,0-.71.66,1.48,1.48,0,0,0,.07,1.07l.28.73,1.41-.55.21.54-1.41.55,2.08,5.38Z" fill="#fff"/><path d="M133.65,179.91a3.88,3.88,0,0,1-.35-1.24,3,3,0,0,1,.09-1.16,2.62,2.62,0,0,1,.53-1,2.74,2.74,0,0,1,1-.7,2.79,2.79,0,0,1,1.17-.27,2.61,2.61,0,0,1,1.09.23,3,3,0,0,1,.94.68,3.93,3.93,0,0,1,.72,1.08l.08.18a3.94,3.94,0,0,1,.35,1.24,3,3,0,0,1-.09,1.16,2.58,2.58,0,0,1-.53,1,3,3,0,0,1-2.12,1,2.61,2.61,0,0,1-1.09-.23,3,3,0,0,1-.95-.68,3.9,3.9,0,0,1-.72-1.07Zm.72-.12a3.46,3.46,0,0,0,.54.84,2.55,2.55,0,0,0,.72.58,2,2,0,0,0,.84.23,2.08,2.08,0,0,0,1.66-.77,2,2,0,0,0,.37-.79,2.59,2.59,0,0,0,0-.92,3.48,3.48,0,0,0-.29-1l-.08-.18a3.42,3.42,0,0,0-.54-.83,2.59,2.59,0,0,0-.72-.58,2,2,0,0,0-.85-.24,1.93,1.93,0,0,0-.92.19,1.87,1.87,0,0,0-.73.57,2.05,2.05,0,0,0-.36.8,2.61,2.61,0,0,0,0,.92,3.42,3.42,0,0,0,.28.95Z" fill="#fff"/><path d="M141.55,173.22a2.62,2.62,0,0,0-.44.19,1.86,1.86,0,0,0-.52.4,1.61,1.61,0,0,0-.3.5,1.73,1.73,0,0,0-.11.57,2.51,2.51,0,0,0,.07.62l2.07,3.83-.61.33-3-5.58.6-.33.49.88a2.1,2.1,0,0,1,.22-1.06,1.89,1.89,0,0,1,.81-.78l.24-.1.2,0Z" fill="#fff"/><path d="M142.73,171.91l.59.85a2.75,2.75,0,0,1,0-.6,2.18,2.18,0,0,1,.19-.56,2.36,2.36,0,0,1,.34-.5,2.54,2.54,0,0,1,.5-.43,2.32,2.32,0,0,1,1.16-.41,1.62,1.62,0,0,1,1.11.39,2.57,2.57,0,0,1,0-.61,2.33,2.33,0,0,1,.19-.59,2.5,2.5,0,0,1,.36-.55,2.56,2.56,0,0,1,.54-.47,2.72,2.72,0,0,1,.81-.37,1.58,1.58,0,0,1,.77,0,1.87,1.87,0,0,1,.74.38,3.47,3.47,0,0,1,.7.8l2.27,3.45-.59.39-2.28-3.45a2.67,2.67,0,0,0-.55-.64,1.28,1.28,0,0,0-.55-.27,1.11,1.11,0,0,0-.56,0,2.4,2.4,0,0,0-.56.28,1.85,1.85,0,0,0-.82,1.2,1.77,1.77,0,0,0,0,.64,1.8,1.8,0,0,0,.19.56l2.31,3.5-.59.39-2.31-3.5a2.4,2.4,0,0,0-.53-.6,1.26,1.26,0,0,0-.54-.25,1.17,1.17,0,0,0-.56,0,2.26,2.26,0,0,0-.57.28,1.83,1.83,0,0,0-.52.49,1.74,1.74,0,0,0-.26.57,1.86,1.86,0,0,0,0,.61,2.94,2.94,0,0,0,.11.59l2.39,3.63-.59.39-3.49-5.29Z" fill="#fff"/><path d="M158,168.71a2,2,0,0,1-.32-.25c-.12-.11-.23-.22-.34-.35a2.44,2.44,0,0,1,0,.54,2.49,2.49,0,0,1-.18.55,3,3,0,0,1-.32.54,2.84,2.84,0,0,1-.49.5,2.49,2.49,0,0,1-.74.43,1.88,1.88,0,0,1-.74.11,1.7,1.7,0,0,1-.68-.18,1.83,1.83,0,0,1-.94-1.23,1.8,1.8,0,0,1,0-.85,2.79,2.79,0,0,1,.46-.88,4.83,4.83,0,0,1,.85-.87l1-.82-.46-.56a1.39,1.39,0,0,0-1-.56,1.73,1.73,0,0,0-1.19.47,2.22,2.22,0,0,0-.46.51,1.71,1.71,0,0,0-.24.55,1.3,1.3,0,0,0,0,.54,1,1,0,0,0,.21.46l-.55.44a1.47,1.47,0,0,1-.3-.65,1.92,1.92,0,0,1,0-.77,2.55,2.55,0,0,1,.33-.81,3,3,0,0,1,.67-.75,3.21,3.21,0,0,1,.8-.49,2,2,0,0,1,.81-.16,1.75,1.75,0,0,1,.78.2,2.22,2.22,0,0,1,.7.59l1.94,2.38.22.26.24.24.25.2.23.15,0,.05Zm-2,1a2.5,2.5,0,0,0,.49-.52,2.29,2.29,0,0,0,.29-.58,2.06,2.06,0,0,0,.1-.6,2,2,0,0,0-.07-.58l-.88-1.08-.93.76a4.43,4.43,0,0,0-.69.68,2.35,2.35,0,0,0-.38.67,1.31,1.31,0,0,0-.07.63,1.13,1.13,0,0,0,.25.55,1.17,1.17,0,0,0,.38.31,1.15,1.15,0,0,0,.47.13,1.35,1.35,0,0,0,.51-.08A1.72,1.72,0,0,0,155.94,169.71Z" fill="#fff"/><path d="M155.42,160.32l1.1,1.19,1-.89.39.42-1,.89,2.86,3.11a1.74,1.74,0,0,0,.41.35.8.8,0,0,0,.35.11.57.57,0,0,0,.3-.07,1.25,1.25,0,0,0,.26-.18,2.12,2.12,0,0,0,.21-.22l.17-.21.41.4a1.6,1.6,0,0,1-.2.28,3.26,3.26,0,0,1-.29.3,1.87,1.87,0,0,1-.46.32,1,1,0,0,1-.51.09,1.34,1.34,0,0,1-.56-.19,2.64,2.64,0,0,1-.61-.52l-2.86-3.11-.86.79-.39-.42L156,162l-1.1-1.19Z" fill="#fff"/><path d="M157.17,158.36A.47.47,0,0,1,157,158a.46.46,0,0,1,.15-.35.46.46,0,0,1,.68,0,.46.46,0,0,1,.14.33.47.47,0,0,1-.16.35.45.45,0,0,1-.67,0Zm6.34,5.22-.5.5-4.47-4.5.5-.5Z" fill="#fff"/><path d="M162.39,160.14a3.88,3.88,0,0,1-.81-1,3,3,0,0,1-.37-1.1,2.62,2.62,0,0,1,.1-1.11,2.74,2.74,0,0,1,.6-1,2.79,2.79,0,0,1,1-.71A2.6,2.6,0,0,1,164,155a3,3,0,0,1,1.13.25,4,4,0,0,1,1.08.71l.14.13a4,4,0,0,1,.81,1,3,3,0,0,1,.37,1.1,2.59,2.59,0,0,1-.11,1.1,3,3,0,0,1-1.56,1.73,2.6,2.6,0,0,1-1.09.22,3,3,0,0,1-1.13-.25,3.9,3.9,0,0,1-1.08-.71Zm.62-.39a3.46,3.46,0,0,0,.83.56,2.57,2.57,0,0,0,.89.25,2,2,0,0,0,.87-.12,1.92,1.92,0,0,0,.77-.54,1.91,1.91,0,0,0,.45-.82,2,2,0,0,0,0-.87,2.56,2.56,0,0,0-.34-.86,3.45,3.45,0,0,0-.64-.77l-.14-.13a3.4,3.4,0,0,0-.82-.55,2.6,2.6,0,0,0-.89-.25,2,2,0,0,0-.87.12,1.92,1.92,0,0,0-.77.54,1.88,1.88,0,0,0-.45.82,2,2,0,0,0,0,.88,2.59,2.59,0,0,0,.34.86,3.43,3.43,0,0,0,.63.76Z" fill="#fff"/><path d="M165.15,152.3l.87.64a2.84,2.84,0,0,1-.16-.6,2.31,2.31,0,0,1,.14-1.21,2.38,2.38,0,0,1,.33-.56A2.59,2.59,0,0,1,167,150a1.53,1.53,0,0,1,.71-.25,1.86,1.86,0,0,1,.82.13,3.62,3.62,0,0,1,.93.54l3.27,2.52-.42.55L169,150.94a2.75,2.75,0,0,0-.71-.42,1.33,1.33,0,0,0-.6-.08,1.09,1.09,0,0,0-.51.2,2.11,2.11,0,0,0-.44.44,1.77,1.77,0,0,0-.31.62,1.84,1.84,0,0,0-.06.63,2.25,2.25,0,0,0,.14.62,2.77,2.77,0,0,0,.28.55l3.44,2.65-.42.55-5-3.87Z" fill="#fff"/></g><path id="_Path_2" data-name="&lt;Path&gt;" d="M199.68,99.69c0-1.26,0-2.51-.09-3.75,0-.29,0-.58,0-.87-.06-1.26-.15-2.51-.26-3.76,0-.36-.06-.72-.1-1.07q-.17-1.79-.41-3.56-.08-.62-.17-1.25-.25-1.68-.55-3.35c-.09-.5-.19-1-.29-1.49q-.27-1.37-.57-2.72c-.17-.75-.35-1.49-.53-2.23q-.18-.7-.37-1.4-.51-1.92-1.09-3.81l-.05-.16A100.47,100.47,0,0,0,109.05,0a7.16,7.16,0,0,0-2.85.3C104.06.19,101.9.12,99.73.12V34.26c0,.15-.05.29-.07.44a7.16,7.16,0,0,0,.07,1.9v63.47l.23,0a7.33,7.33,0,0,0,14.19,2.5l.09,0a13.76,13.76,0,0,0-.94-8.21,7.65,7.65,0,1,1,14-6.23,29.11,29.11,0,0,1-2.19,27.7,7.15,7.15,0,0,0,10.68,8.33,43.4,43.4,0,0,0,7.85-24.93,7.65,7.65,0,0,1,15.3,0A58.63,58.63,0,0,1,154.34,122a7.15,7.15,0,0,0,11.8,4.88,71.33,71.33,0,0,0,5.55-27.64,7.17,7.17,0,1,1,14.34,0,85.93,85.93,0,0,1-2.37,20,7.17,7.17,0,0,0,14.12.35c.42-2.11.76-4.24,1-6.38v-.11q.27-2,.45-4.09l0-.39q.17-2,.27-4.08c0-.08,0-.15,0-.23.06-1.43.1-2.86.1-4.29C199.69,99.93,199.68,99.81,199.68,99.69Z" fill="#fd0"/><g id="_Group_3" data-name="&lt;Group&gt;"><path id="_Compound_Path_4" data-name="&lt;Compound Path&gt;" d="M135.77,63.84H124.09V61.53l5.51-5.88q.62-.68,1-1.24a9.07,9.07,0,0,0,.69-1,3.92,3.92,0,0,0,.38-.87,2.92,2.92,0,0,0,.11-.78,2.6,2.6,0,0,0-.57-1.79,2.07,2.07,0,0,0-1.64-.65,2.47,2.47,0,0,0-1.06.22,2.17,2.17,0,0,0-.77.6,2.68,2.68,0,0,0-.47.91,3.84,3.84,0,0,0-.16,1.15h-3.39a5.74,5.74,0,0,1,.41-2.17,5.18,5.18,0,0,1,1.18-1.78A5.67,5.67,0,0,1,127.21,47a6.49,6.49,0,0,1,2.46-.44,7.78,7.78,0,0,1,2.38.33,4.81,4.81,0,0,1,1.74,1,4,4,0,0,1,1.07,1.52,5.38,5.38,0,0,1,.36,2,5.11,5.11,0,0,1-.27,1.65,7.75,7.75,0,0,1-.76,1.59A13,13,0,0,1,133,56.25q-.7.81-1.55,1.69l-3,3.17h7.33Z" fill="#fff"/><path id="_Compound_Path_5" data-name="&lt;Compound Path&gt;" d="M147,46.63v2.79h-.2a7,7,0,0,0-2.17.31,5,5,0,0,0-1.66.88A4.45,4.45,0,0,0,141.87,52a5.59,5.59,0,0,0-.57,1.84,4.73,4.73,0,0,1,1.48-1,4.8,4.8,0,0,1,2-.38,4.59,4.59,0,0,1,2.11.46,4.43,4.43,0,0,1,1.52,1.25,5.47,5.47,0,0,1,.91,1.84,8,8,0,0,1,.3,2.23,6.52,6.52,0,0,1-.4,2.31,5.3,5.3,0,0,1-3,3.09,6.45,6.45,0,0,1-4.85,0,5.38,5.38,0,0,1-1.89-1.39A6.37,6.37,0,0,1,138.28,60a8.41,8.41,0,0,1-.43-2.75V56a11.66,11.66,0,0,1,.58-3.78,8.45,8.45,0,0,1,1.7-3,7.64,7.64,0,0,1,2.73-1.93,9.27,9.27,0,0,1,3.68-.69Zm-3.3,8.53a2.76,2.76,0,0,0-.84.12,2.64,2.64,0,0,0-.7.34,2.74,2.74,0,0,0-.56.5,2.56,2.56,0,0,0-.38.6v1a6,6,0,0,0,.19,1.58,3.38,3.38,0,0,0,.52,1.13,2.11,2.11,0,0,0,.81.67,2.41,2.41,0,0,0,1,.22,2.14,2.14,0,0,0,1-.23,2.3,2.3,0,0,0,.77-.64,3.06,3.06,0,0,0,.49-1,4.16,4.16,0,0,0,.18-1.23,4.33,4.33,0,0,0-.17-1.25,2.94,2.94,0,0,0-.5-1,2.29,2.29,0,0,0-.79-.64A2.34,2.34,0,0,0,143.72,55.16Z" fill="#fff"/><path id="_Compound_Path_6" data-name="&lt;Compound Path&gt;" d="M151.54,50.08a3.86,3.86,0,0,1,.24-1.36,3.19,3.19,0,0,1,.71-1.12,3.37,3.37,0,0,1,1.15-.76,4.16,4.16,0,0,1,1.59-.28,4.29,4.29,0,0,1,1.61.28,3.35,3.35,0,0,1,1.16.76,3.12,3.12,0,0,1,.7,1.12,3.92,3.92,0,0,1,.23,1.36V51a3.89,3.89,0,0,1-.23,1.35,3.06,3.06,0,0,1-.7,1.11,3.41,3.41,0,0,1-1.15.75,4.19,4.19,0,0,1-1.6.28,4.24,4.24,0,0,1-1.6-.28,3.39,3.39,0,0,1-1.16-.75,3.13,3.13,0,0,1-.71-1.11,3.83,3.83,0,0,1-.24-1.35Zm2.25.9a1.94,1.94,0,0,0,.09.58,1.38,1.38,0,0,0,.73.84,1.48,1.48,0,0,0,.64.13,1.45,1.45,0,0,0,.63-.13,1.27,1.27,0,0,0,.44-.35,1.48,1.48,0,0,0,.26-.5,1.94,1.94,0,0,0,.09-.58v-.9a2,2,0,0,0-.09-.59,1.48,1.48,0,0,0-.26-.5,1.26,1.26,0,0,0-.45-.35,1.52,1.52,0,0,0-.65-.13,1.45,1.45,0,0,0-.63.13,1.33,1.33,0,0,0-.45.35,1.43,1.43,0,0,0-.27.5,2,2,0,0,0-.09.59Zm2.13,11.59-1.65-.89,8.32-13.32,1.65.89Zm3.77-2.9a3.85,3.85,0,0,1,.24-1.36,3.1,3.1,0,0,1,.71-1.12,3.49,3.49,0,0,1,1.16-.75,4.16,4.16,0,0,1,1.59-.28,4.28,4.28,0,0,1,1.61.28,3.4,3.4,0,0,1,1.17.75,3.07,3.07,0,0,1,.7,1.12,3.94,3.94,0,0,1,.23,1.36v.91a3.87,3.87,0,0,1-.23,1.36,3.14,3.14,0,0,1-.7,1.11,3.31,3.31,0,0,1-1.15.75,4.27,4.27,0,0,1-1.6.27,4.33,4.33,0,0,1-1.6-.27,3.35,3.35,0,0,1-1.17-.75,3.17,3.17,0,0,1-.71-1.11,3.79,3.79,0,0,1-.24-1.36Zm2.25.91a1.65,1.65,0,0,0,.11.58,1.56,1.56,0,0,0,.3.5,1.44,1.44,0,0,0,.46.35,1.39,1.39,0,0,0,.61.13,1.64,1.64,0,0,0,.7-.13,1.14,1.14,0,0,0,.44-.35,1.29,1.29,0,0,0,.23-.5,2.61,2.61,0,0,0,.06-.58v-.91a2,2,0,0,0-.09-.59,1.41,1.41,0,0,0-.27-.5,1.32,1.32,0,0,0-.46-.35,1.64,1.64,0,0,0-1.28,0,1.32,1.32,0,0,0-.46.35,1.43,1.43,0,0,0-.27.5,2,2,0,0,0-.09.59Z" fill="#fff"/></g></g></g></svg>