<?xml version="1.0" encoding="utf-8"?>
<!-- Generator: Adobe Illustrator 19.2.1, SVG Export Plug-In . SVG Version: 6.00 Build 0)  -->
<svg version="1.1" id="Layer_1" xmlns="http://www.w3.org/2000/svg" xmlns:xlink="http://www.w3.org/1999/xlink" x="0px" y="0px"
	 viewBox="0 0 133.4 133.9" style="enable-background:new 0 0 133.4 133.9;" xml:space="preserve">
<style type="text/css">
	.st0{clip-path:url(#SVGID_2_);}
	.st1{fill:url(#SVGID_3_);}
</style>
<title>business-pricing-nostress</title>
<g>
	<defs>
		<path id="SVGID_1_" d="M54.7,63.8c0-0.6,0.5-1.1,1.1-1.1h0H58v-2.2c0-0.6,0.5-1.1,1.1-1.1c0.6,0,1.1,0.5,1.1,1.1v2.2h2.2
			c0.6,0,1.1,0.5,1.1,1.1c0,0.6-0.5,1.1-1.1,1.1h-2.2v2.2c0,0.6-0.5,1.1-1.1,1.1c-0.6,0-1.1-0.5-1.1-1.1v-2.2h-2.2
			C55.2,64.9,54.7,64.4,54.7,63.8L54.7,63.8 M70.3,63.8c0-0.6,0.5-1.1,1.1-1.1h0h2.2v-2.2c0-0.6,0.5-1.1,1.1-1.1
			c0.6,0,1.1,0.5,1.1,1.1v2.2H78c0.6,0,1.1,0.5,1.1,1.1c0,0.6-0.5,1.1-1.1,1.1h-2.3v2.2c0,0.6-0.5,1.1-1.1,1.1
			c-0.6,0-1.1-0.5-1.1-1.1v-2.2h-2.2C70.7,64.9,70.2,64.4,70.3,63.8L70.3,63.8 M25.2,110.1c3-3.6,6.8-6.5,11.6-7.1
			c11-1.4,14.6-5.1,15.8-7.1c0.7-1.2,0.9-2.7,0.5-4c-0.3-0.7-2.6-2.5-3.6-3.2L48,87.5c-5-4.2-7.9-10.4-8.1-16.9
			c-0.3-7.5,2.6-14.9,7.9-20.2c10.2-10.2,26.7-10.2,36.9,0c5.3,5.3,8.2,12.7,7.9,20.2c-0.2,6.5-3.1,12.7-8.1,16.9L83,88.7
			c-1,0.7-3.2,2.5-3.6,3.2c-0.4,1.3-0.2,2.8,0.5,4c1.2,2.1,4.8,5.7,15.8,7.1c4.5,0.6,8.2,3.1,11,6.4l-4.2,3.1
			c-1.1-1.3-2.4-2.4-3.9-3.2c-1.1-0.6-2.3-1-3.6-1.2c-12.6-1.6-17.6-6.2-19.6-9.7c-1.6-2.6-1.9-5.8-0.8-8.6c0.8-1.8,2.7-3.4,5.2-5.2
			l1.3-1c3.8-3.3,6.1-8.1,6.2-13.1c0.2-6.1-2.1-12-6.4-16.4c-8.2-8.1-21.4-8.1-29.6,0c-4.3,4.4-6.6,10.3-6.4,16.4
			c0.1,5,2.4,9.8,6.2,13.1l1.3,1c2.4,1.9,4.4,3.4,5.2,5.2l0,0c1.1,2.8,0.8,6-0.8,8.6c-2,3.5-7,8.1-19.6,9.7l-8,5l-4.3-3 M81.5,45.7
			c-0.3-0.4-0.4-0.9-0.1-1.3l5.5-8.1v-1.5c0-3.6,2.9-6.5,6.5-6.5h12.1c3.6,0,6.5,2.9,6.5,6.5v6.7c0,3.6-2.9,6.5-6.5,6.5H93.7
			c-2.9,0-5.4-1.9-6.2-4.7l-4.3,2.6l-0.6,0.2c-0.3,0-0.6-0.1-0.8-0.3 M19.1,40.1v-6.7c0-3.6,2.9-6.5,6.5-6.5h12.1
			c3.6,0,6.5,2.9,6.5,6.5v1.5l5.5,8.1c0.3,0.5,0.1,1.2-0.4,1.5c-0.3,0.2-0.8,0.2-1.1,0l-4.3-2.6c-0.8,2.8-3.3,4.7-6.2,4.7H25.6
			C22,46.6,19.1,43.6,19.1,40.1 M53.8,30.4v-6.7c0-3.6,2.9-6.5,6.5-6.5l0,0h12.1c3.6,0,6.5,2.9,6.5,6.5l0,0v6.7
			c0,3.6-2.9,6.5-6.5,6.5h-3.7l-1.3,3.4c-0.1,0.4-0.5,0.7-0.9,0.7h-0.1c-0.4,0-0.7-0.3-0.9-0.6l-2-3.5h-3.2
			C56.7,36.9,53.8,33.9,53.8,30.4L53.8,30.4 M0,67c-0.1,36.8,29.6,66.8,66.5,66.9c36.8,0.1,66.8-29.6,66.9-66.4v-1
			c-0.1-36.8-30.1-66.6-67-66.4C29.6,0.1-0.1,30.1,0,67"/>
	</defs>
	<clipPath id="SVGID_2_">
		<use xlink:href="#SVGID_1_"  style="overflow:visible;"/>
	</clipPath>
	<g class="st0">
		
			<linearGradient id="SVGID_3_" gradientUnits="userSpaceOnUse" x1="-411.076" y1="-3243.7083" x2="-410.076" y2="-3243.7083" gradientTransform="matrix(115.5451 -66.71 66.71 115.5451 263894.5625 347471.875)">
			<stop  offset="0" style="stop-color:#008FCA"/>
			<stop  offset="1" style="stop-color:#8ED8F8"/>
		</linearGradient>
		<polygon class="st1" points="-57.8,33.5 100,-57.6 191.1,100.2 33.3,191.3 		"/>
	</g>
</g>
</svg>
