<?xml version="1.0" encoding="utf-8"?>
<!-- Generator: Adobe Illustrator 19.2.1, SVG Export Plug-In . SVG Version: 6.00 Build 0)  -->
<svg version="1.1" id="Layer_1" xmlns="http://www.w3.org/2000/svg" xmlns:xlink="http://www.w3.org/1999/xlink" x="0px" y="0px"
	 viewBox="0 0 146.1 138.3" style="enable-background:new 0 0 146.1 138.3;" xml:space="preserve">
<style type="text/css">
	.st0{clip-path:url(#SVGID_2_);}
	.st1{fill:none;stroke:#DFF3FD;}
	.st2{clip-path:url(#SVGID_4_);}
	.st3{fill:#00AEEF;}
</style>
<title>business-solutions-4</title>
<g>
	<defs>
		<rect id="SVGID_1_" x="-493.1" y="-1872.1" width="985.7" height="3593.3"/>
	</defs>
	<clipPath id="SVGID_2_">
		<use xlink:href="#SVGID_1_"  style="overflow:visible;"/>
	</clipPath>
	<g class="st0">
		<rect x="-493.1" y="-183.5" class="st1" width="985.7" height="588.5"/>
	</g>
</g>
<g>
	<defs>
		<rect id="SVGID_3_" width="146.1" height="138.3"/>
	</defs>
	<clipPath id="SVGID_4_">
		<use xlink:href="#SVGID_3_"  style="overflow:visible;"/>
	</clipPath>
	<g class="st2">
		<path class="st3" d="M98.3,105.6c-4.4,0-7.9-3.5-7.9-7.9s3.5-7.9,7.9-7.9c4.4,0,7.9,3.5,7.9,7.9S102.7,105.6,98.3,105.6
			L98.3,105.6 M98.3,91.7c-3.3,0-6,2.7-6,6s2.7,6,6,6s6-2.7,6-6S101.6,91.7,98.3,91.7"/>
		<path class="st3" d="M54.3,105.6c-4.4,0-7.9-3.5-7.9-7.9s3.5-7.9,7.9-7.9c4.4,0,7.9,3.5,7.9,7.9S58.7,105.6,54.3,105.6L54.3,105.6
			 M54.3,91.7c-3.3,0-6,2.7-6,6s2.7,6,6,6s6-2.7,6-6S57.6,91.7,54.3,91.7"/>
		<path class="st3" d="M102.1,87.1H53.5l-8.4-38.9H27.9V32.6h19.7v5.8h70.6L102.1,87.1z M55.1,85.1h45.6l14.8-44.7H45.6v-5.8H29.8
			v11.7h16.9L55.1,85.1z"/>
		
			<rect x="44.1" y="45.5" transform="matrix(0.8894 -0.4571 0.4571 0.8894 -25.5219 27.9945)" class="st3" width="2" height="42.5"/>
	</g>
</g>
</svg>
