<?xml version="1.0" encoding="utf-8"?>
<!-- Generator: Adobe Illustrator 19.2.1, SVG Export Plug-In . SVG Version: 6.00 Build 0)  -->
<svg version="1.1" id="Layer_1" xmlns="http://www.w3.org/2000/svg" xmlns:xlink="http://www.w3.org/1999/xlink" x="0px" y="0px"
	 viewBox="0 0 146.1 138.3" style="enable-background:new 0 0 146.1 138.3;" xml:space="preserve">
<style type="text/css">
	.st0{fill:#00AEEF;}
	.st1{clip-path:url(#SVGID_2_);}
	.st2{fill:none;}
</style>
<title>business-solutions-7</title>
<path class="st0" d="M115.2,109.7H36.8V96.2h25.4v-19h25.4V52.3h27.3L115.2,109.7z M38.7,107.7h74.6l-0.2-53.8H89.5v24.9H64.1v19
	H38.7v9.7V107.7z"/>
<g>
	<g>
		<defs>
			<rect id="SVGID_1_" width="146.1" height="138.3"/>
		</defs>
		<clipPath id="SVGID_2_">
			<use xlink:href="#SVGID_1_"  style="overflow:visible;"/>
		</clipPath>
		<g class="st1">
			<path class="st0" d="M39.1,89.2c0,2.3-1.8,4.1-4.1,4.1s-4.1-1.8-4.1-4.1c0-2.3,1.8-4.1,4.1-4.1S39.1,86.9,39.1,89.2L39.1,89.2"/>
			<path class="st0" d="M32.3,80.6h1.8v-4.3h-1.6v-1.4c0.8-0.1,1.5-0.4,2.2-0.8h1.6v6.5h1.5v1.8h-5.5V80.6z"/>
			<path class="st0" d="M65.4,66.4c0,2.3-1.8,4.1-4.1,4.1s-4.1-1.8-4.1-4.1c0-2.3,1.8-4.1,4.1-4.1C63.6,62.3,65.4,64.1,65.4,66.4
				L65.4,66.4"/>
			<path class="st0" d="M58.2,58.2c2-1.8,3.5-3.2,3.5-4.3c0.1-0.5-0.3-1-0.9-1.1h-0.1c-0.6,0.1-1.1,0.3-1.4,0.8l-1.2-1.2
				c0.7-0.9,1.8-1.3,2.9-1.3c1.4-0.1,2.7,1,2.8,2.4c0,0.1,0,0.2,0,0.3c0,1.3-1.3,2.8-2.4,3.9h2.8v1.9h-6L58.2,58.2L58.2,58.2z"/>
			<path class="st0" d="M91.7,43.9c0,2.3-1.8,4.1-4.1,4.1s-4.1-1.8-4.1-4.1s1.8-4.1,4.1-4.1C89.9,39.8,91.7,41.6,91.7,43.9
				L91.7,43.9"/>
			<path class="st0" d="M85.4,34.6c0.4,0.5,1.1,0.8,1.7,0.8c0.7,0,1.2-0.3,1.2-0.8s-0.3-1-2.1-1V32c1.4,0,1.8-0.4,1.8-0.9
				c0.1-0.4-0.2-0.7-0.6-0.8c-0.1,0-0.2,0-0.3,0c-0.6,0-1.1,0.3-1.5,0.7l-1.1-1.4c0.7-0.7,1.7-1.1,2.7-1.1c1.8,0,3,0.8,3,2.3
				c0,0.8-0.5,1.5-1.3,1.8l0,0c0.9,0.2,1.6,1,1.6,2c0,1.6-1.5,2.4-3.2,2.4c-1.1,0.1-2.2-0.4-2.9-1.2L85.4,34.6z"/>
			<line class="st2" x1="34.8" y1="89.5" x2="87.7" y2="43.4"/>
			
				<rect x="26.3" y="65.4" transform="matrix(0.7536 -0.6574 0.6574 0.7536 -28.5024 56.7053)" class="st0" width="70.2" height="1.9"/>
		</g>
	</g>
</g>
</svg>
