<?xml version="1.0" encoding="utf-8"?>
<!-- Generator: Adobe Illustrator 19.2.1, SVG Export Plug-In . SVG Version: 6.00 Build 0)  -->
<svg version="1.1" id="Layer_1" xmlns="http://www.w3.org/2000/svg" xmlns:xlink="http://www.w3.org/1999/xlink" x="0px" y="0px"
	 viewBox="0 0 146.1 138.3" style="enable-background:new 0 0 146.1 138.3;" xml:space="preserve">
<style type="text/css">
	.st0{clip-path:url(#SVGID_2_);}
	.st1{fill:none;stroke:#DFF3FD;}
	.st2{clip-path:url(#SVGID_4_);}
	.st3{fill:#00AEEF;}
</style>
<title>business-solutions-10</title>
<g>
	<defs>
		<rect id="SVGID_1_" x="-493.1" y="-2047" width="985.7" height="3593.3"/>
	</defs>
	<clipPath id="SVGID_2_">
		<use xlink:href="#SVGID_1_"  style="overflow:visible;"/>
	</clipPath>
	<g class="st0">
		<rect x="-493.1" y="-358.4" class="st1" width="985.7" height="588.5"/>
	</g>
</g>
<g>
	<defs>
		<rect id="SVGID_3_" width="146.1" height="138.3"/>
	</defs>
	<clipPath id="SVGID_4_">
		<use xlink:href="#SVGID_3_"  style="overflow:visible;"/>
	</clipPath>
	<g class="st2">
		<path class="st3" d="M56.1,58.2C54.4,57,52,57.3,50.8,59L42,70.8l-3.1-4.2c-1.5-1.5-3.9-1.4-5.4,0.1c-1.1,1.2-1.4,2.9-0.6,4.4
			l6.1,8.2l0,0c1.3,1.7,3.7,2,5.3,0.7c0.2-0.2,0.5-0.4,0.7-0.7L55.7,65l0,0l1.1-1.5C58.1,61.8,57.7,59.5,56.1,58.2"/>
		<path class="st3" d="M44.9,47.5c-11.9,0-21.6,9.7-21.6,21.6c0,11.9,9.7,21.6,21.6,21.6S66.5,81,66.5,69.1S56.8,47.5,44.9,47.5
			L44.9,47.5 M44.9,89.4c-11.2,0-20.3-9.1-20.3-20.3s9.1-20.3,20.3-20.3c11.2,0,20.3,9.1,20.3,20.3S56.1,89.4,44.9,89.4
			C44.9,89.4,44.9,89.4,44.9,89.4"/>
		<path class="st3" d="M104.3,77.7L104.3,77.7"/>
		<path class="st3" d="M109.3,65.7c1.4-1.4,1.4-3.7,0-5.1c-1.4-1.4-3.7-1.4-5.1,0l0,0l-3.4,3.4l-1.5-1.5l-1.9-1.9
			c-1.4-1.4-3.7-1.4-5.1,0c-1.4,1.4-1.4,3.7,0,5.1l3.4,3.4l-3.4,3.4c-1.4,1.4-1.4,3.7,0,5.1c1.4,1.4,3.7,1.4,5.1,0l3.4-3.4l3.4,3.4
			c1.4,1.4,3.7,1.4,5.1,0c1.4-1.4,1.4-3.7,0-5.1l0,0l-3.4-3.4L109.3,65.7"/>
		<path class="st3" d="M100.8,47.1c-12.2,0-22,9.8-22,22s9.8,22,22,22s22-9.8,22-22S113,47.1,100.8,47.1L100.8,47.1 M100.8,89.8
			c-11.4,0-20.7-9.3-20.7-20.7c0-11.4,9.3-20.7,20.7-20.7c11.4,0,20.7,9.3,20.7,20.7l0,0C121.5,80.5,112.2,89.8,100.8,89.8"/>
		<path class="st3" d="M73.6,72l-0.3-0.2h-0.8L72.2,72L72,72.3c-0.1,0.1-0.1,0.3-0.1,0.4c0,0.1,0,0.3,0.1,0.4l0.2,0.3l0.3,0.2h0.8
			l0.3-0.2l0.2-0.3c0.1-0.1,0.1-0.3,0.1-0.4c0-0.1,0-0.3-0.1-0.4L73.6,72"/>
		<path class="st3" d="M75,65.4L74.2,65l-1.1-0.2h-1l-0.8,0.4c-0.2,0.2-0.5,0.4-0.6,0.7c-0.1,0.3-0.2,0.7-0.2,1.1h1.7
			c0-0.2,0-0.3,0.1-0.5l0.2-0.3l0.3-0.2h0.4c0.3,0,0.5,0,0.7,0.2c0.1,0.2,0.2,0.5,0.2,0.7c0,0.1,0,0.3-0.1,0.4l-0.2,0.4L73.5,68
			l-0.4,0.3l-0.4,0.5l-0.3,0.5v0.6c0,0.2,0,0.5,0,0.7h1.5c0-0.1,0-0.3,0-0.4V70l0.2-0.3l0.3-0.3l0.5-0.5l0.5-0.5l0.3-0.6
			c0.1-0.2,0.1-0.5,0.1-0.7c0-0.3-0.1-0.7-0.2-1c-0.1-0.3-0.3-0.5-0.5-0.7"/>
	</g>
</g>
</svg>
