<?xml version="1.0" encoding="utf-8"?>
<!-- Generator: Adobe Illustrator 19.2.1, SVG Export Plug-In . SVG Version: 6.00 Build 0)  -->
<svg version="1.1" id="Layer_1" xmlns="http://www.w3.org/2000/svg" xmlns:xlink="http://www.w3.org/1999/xlink" x="0px" y="0px"
	 viewBox="0 0 133.8 134.1" style="enable-background:new 0 0 133.8 134.1;" xml:space="preserve">
<style type="text/css">
	.st0{clip-path:url(#SVGID_2_);}
	.st1{fill:url(#SVGID_3_);}
</style>
<title>business-analytics-1</title>
<g>
	<g>
		<defs>
			<path id="SVGID_1_" d="M9.3,89.1l29.3-2.2l14.6,24c-14.9,7.7-33.3,1.9-41-13.1C10.8,95.1,9.8,92.1,9.3,89.1 M90,58.4h15.7v9.4H90
				V58.4L90,58.4z M8.8,83.9c0-16.1,12.5-29.4,28.6-30.4v29.9L8.8,85.6C8.8,85.1,8.8,84.5,8.8,83.9 M41,84.1V53.5
				c16.8,1,29.6,15.3,28.6,32.1c-0.5,9.5-5.5,18.2-13.4,23.5L41,84.1z M88.3,55.4c-0.6-0.6-1-1.4-1-2.2c0-1.6,1.3-2.9,2.9-2.9
				s2.9,1.3,2.9,2.9c0,1.6-1.3,2.9-2.9,2.9l0,0h-0.5l-9.8,21.7c1.1,1.2,1,3-0.2,4.1s-3,1-4.1-0.2s-1-3,0.2-4.1
				c0.1-0.1,0.2-0.2,0.3-0.2l-7.5-13l-0.8-0.2L66.5,66l-1-1.4l1-1.5c-0.3-0.4-0.5-1-0.5-1.5c0-1.6,1.3-2.9,2.9-2.9s3,1.3,3,2.9
				c0,1.1-0.6,2.1-1.6,2.6L77.7,77h0.9L88.3,55.4z M60,46.6h15.7V56H60.1L60,46.6L60,46.6z M0,67.1c-0.1,36.9,29.9,66.9,66.8,67
				s66.9-29.9,67-66.8c0-13-3.8-25.8-10.9-36.7v8.1h-6.6v61.9h-49c1.3-2.2,2.3-4.5,3.1-6.9h38.9V39H36.8v12.2
				c-2.3,0.2-4.7,0.6-6.9,1.3V38.6h-6.6V28.5h98.3C100.4-1.7,58.8-9,28.6,12.1C10.7,24.6,0.1,45.1,0.1,66.9"/>
		</defs>
		<clipPath id="SVGID_2_">
			<use xlink:href="#SVGID_1_"  style="overflow:visible;"/>
		</clipPath>
		<g class="st0">
			
				<linearGradient id="SVGID_3_" gradientUnits="userSpaceOnUse" x1="-817.3293" y1="3586.6655" x2="-816.3293" y2="3586.6655" gradientTransform="matrix(115.7703 -66.84 -66.84 -115.7703 334364.2813 360699.4375)">
				<stop  offset="0" style="stop-color:#A7D1F0"/>
				<stop  offset="1" style="stop-color:#FFFFFF"/>
			</linearGradient>
			<polygon class="st1" points="-57.8,33.6 100.4,-57.7 191.7,100.5 33.5,191.8 			"/>
		</g>
	</g>
</g>
</svg>
