<?xml version="1.0" encoding="utf-8"?>
<!-- Generator: Adobe Illustrator 19.2.1, SVG Export Plug-In . SVG Version: 6.00 Build 0)  -->
<svg version="1.1" id="Layer_1" xmlns="http://www.w3.org/2000/svg" xmlns:xlink="http://www.w3.org/1999/xlink" x="0px" y="0px"
	 viewBox="0 0 146.1 138.3" style="enable-background:new 0 0 146.1 138.3;" xml:space="preserve">
<style type="text/css">
	.st0{fill:none;}
	.st1{fill:none;stroke:#DFF3FD;}
	.st2{fill:#00AEEF;}
</style>
<title>business-solutions-11</title>
<rect x="-639.8" y="-2047" class="st0" width="985.7" height="3593.3"/>
<g>
	<rect x="-639.8" y="-358.4" class="st1" width="985.7" height="588.5"/>
</g>
<rect x="18.3" y="45.6" class="st0" width="109.5" height="47"/>
<g>
	<path class="st2" d="M82.6,73.5l-1.8-0.6l0,0l1.4,0.4c1.6-9.7,0.5-18.5-0.3-21.3c-1.4-4.7-6.2-7.4-10.9-6
		c-7.8-1.4-11.1,5.2-11.1,11.8c0,3.2,0.4,13.2,0.6,15.6c-2.8,0.9-5.8,3-5.8,5.8v13.3h33.6V79.2c0-2.8-3-4.9-5.8-5.8 M70.3,87.1h-2.4
		l-3.5-6.4h3.3l0.3,0.4l1.2,2l5-7.4l0.3-0.4h3.3L70.3,87.1z"/>
	<path class="st2" d="M69.2,85.1c-0.6-1.2-1.3-2.3-2-3.4h-1l2.4,4.5h1.3l6.3-9.9h-1.1C75.1,76.3,69.4,84.6,69.2,85.1L69.2,85.1
		L69.2,85.1z"/>
	<path class="st2" d="M121.1,73.5l-2.1-0.7l-1.1-1.8c-0.2-0.2-0.4-0.3-0.7-0.3l0,0c-0.2-0.2-0.4-0.2-0.6-0.2l0,0v-2.7l0,0
		c1.6-1.8,2.7-4,3.2-6.4l0,0c0.9-1.9,2-6.9,0.4-10.2c-2.6-5.5-10.1-6.7-15.3-3.9l0,0c-7.9,2.6-6,12.3-4.3,14.3l0,0
		c0.5,2.2,1.6,4.3,3,6.1l0,0v2.6c-0.2,0-0.5,0.1-0.6,0.3l0,0c-0.3,0-0.5,0.1-0.7,0.3l-1.1,1.8H101l-1.9,0.6c-2.8,0.9-6.7,3-6.7,5.8
		v13.3h35.3V79.1c0-2.8-3.9-4.9-6.7-5.8 M126.7,91.5H93.4V79.1c0-2,3.1-3.9,6-4.9l2.3-0.8L102,73v0.5l1.7-2.6h0.8v-4.1l-0.3-0.3
		c-1.4-1.7-2.3-3.7-2.8-5.8h-0.7l0.5-0.5c-0.8-0.9-1.8-4.5-0.9-7.8c0.5-1.9,1.8-3.5,3.5-4.4v0.2l1.4-0.8c1.7-0.9,3.5-1.3,5.4-1.3
		c3.9,0,7.2,1.8,8.6,4.8s0.5,7.6-0.4,9.4l0.5,0.3h-0.6c-0.4,2.2-1.5,4.3-3,6l-0.3,0.3V71h0.9l1.4,1.4l0.5,0.8l2.4,0.8
		c3,1,6,2.9,6,4.9v12.4L126.7,91.5z"/>
	<path class="st2" d="M113,75.7l-5,7.4l-1.2-2l-0.3-0.4h-3.3l3.5,6.4h2.4l7.6-11.8h-3.5L113,75.7z M114.9,76.3l-6.3,9.9h-1.4
		l-2.4-4.5h1.1c0.7,1.1,1.4,2.2,2,3.4l0,0c0.1-0.5,5.9-8.8,5.9-8.8L114.9,76.3L114.9,76.3z"/>
	<path class="st2" d="M46.1,73.5l-2.5-0.8l-1.1-1.8c-0.2-0.2-0.4-0.3-0.7-0.3h-0.1c-0.1-0.2-0.4-0.3-0.7-0.2c0,0,0,0,0,0h-0.1v-0.7
		c2.4,0.5,5.8-1,6.8-6.4s-3.9-19.3-13.9-17l0,0c-8.9-1.3-15.5,15.5-9.6,21.3c0.6,0.6,2.4,2.5,4.9,1.9v-1.9l-0.2-0.3l0.2,0.2l0,0v2.6
		c-0.2-0.1-0.5-0.1-0.7,0.2c0,0,0,0,0,0h-0.1c-0.3,0-0.5,0.1-0.7,0.3l-1.1,1.8L24,73.2c-2.8,0.9-5.8,3-5.8,5.8v13.3h33.6V79
		c0-2.8-3.1-4.9-5.8-5.8 M50.9,91.4H19.3V79c0-2.2,2.6-4,5.2-4.9l2.9-0.9l1.2-2h0.5l0.2-0.3l1,0.3v-3h1.3l-1.3-1.4l0,0l-0.5-0.5
		L29.1,67l-0.4-0.4c-0.2,0.2-0.3,0.4-0.3,0.7v0.5c0,0.1,0,0.3,0,0.5c-1.3-0.1-2.5-0.7-3.3-1.7c-2.7-2.7-2.3-8-0.6-12
		s5.9-8.2,9.5-7.7v-0.8l0,0l0.2,0.8l2.2-0.3c2.8,0.1,5.3,1.4,7,3.6c2.8,3.5,4.1,8,3.5,12.5c-0.9,4.7-3.6,6.1-5.6,5.7l0.4-0.3
		l0.9-0.9L41.2,66l-0.6,0.6l-0.5,0.5v5.5l1.2-1.2l0.2,0.3h0.4l1.1,1.9l2.8,1c2.6,0.9,5.2,2.7,5.2,4.9v12.4L50.9,91.4z M41,67.3
		L41,67.3l0.9-0.8L41,67.3"/>
</g>
<rect class="st0" width="146.1" height="138.3"/>
<g>
	<path class="st2" d="M37.7,75.7l-5,7.4l-1.2-2l-0.3-0.4h-3.3l3.5,6.4h2.4l7.6-11.8h-3.3L37.7,75.7z"/>
</g>
</svg>
