<?xml version="1.0" encoding="utf-8"?>
<!-- Generator: Adobe Illustrator 19.2.1, SVG Export Plug-In . SVG Version: 6.00 Build 0)  -->
<svg version="1.1" id="Layer_1" xmlns="http://www.w3.org/2000/svg" xmlns:xlink="http://www.w3.org/1999/xlink" x="0px" y="0px"
	 viewBox="0 0 250 250.9" style="enable-background:new 0 0 250 250.9;" xml:space="preserve">
<style type="text/css">
	.st0{clip-path:url(#SVGID_2_);}
	.st1{fill:url(#SVGID_3_);}
</style>
<title>business-analytics-3</title>
<g>
	<defs>
		<path id="SVGID_1_" d="M80.7,196.1H164v12.1H80.7V196.1z M80.7,170.4h49.7l-1.5,12.1H80.7V170.4z M154.3,170.4h9.7v12.1h-26.9
			L154.3,170.4z M136.5,149.6l22.2,13.3l-26,18.5L136.5,149.6z M80.8,143.1h55.3l-0.9,1.5l-1.7-0.9l-0.6,4.7l-0.6,0.9h0.4l-0.7,5.6
			H80.7v-12.1L80.8,143.1z M80.8,117.3h70.7l-7.3,12.1H80.7v-12.1H80.8z M137.5,148.1l53.6-90.3l22.2,13.3l-53.6,90.3L137.5,148.1z
			 M192.6,55.4l6.5-10.8c2.7-4.7,8.8-6.4,13.5-3.6c0,0,0.1,0,0.1,0.1l5.2,3.2c4.7,2.7,6.4,8.8,3.6,13.5c0,0,0,0.1-0.1,0.1L215,68.7
			L192.6,55.4z M0.5,121.9c0,40.1,19.3,77.7,51.8,101.1L53,73.2h27.1V90h13.1V65.1h26.9V90h11.6V38h26.9v52h9l-9,15.1H67v115.1
			h110.8v-82.8l15.1-25.6v114.6c35.4-22.9,56.8-62.1,57-104.3v-1.3C247.2,51.8,189-1.8,120,1C54.7,3.7,2.5,56.1,0.1,121.4"/>
	</defs>
	<clipPath id="SVGID_2_">
		<use xlink:href="#SVGID_1_"  style="overflow:visible;"/>
	</clipPath>
	<g class="st0">
		
			<linearGradient id="SVGID_3_" gradientUnits="userSpaceOnUse" x1="-352.8524" y1="-3192.4075" x2="-350.9832" y2="-3192.4075" gradientTransform="matrix(115.7789 -66.845 66.845 115.7789 254261.7188 346204.1875)">
			<stop  offset="0" style="stop-color:#A7D1F0"/>
			<stop  offset="1" style="stop-color:#FFFFFF"/>
		</linearGradient>
		<polygon class="st1" points="-99.3,54.5 187.7,-111.2 349.7,169.4 62.7,335.1 		"/>
	</g>
</g>
</svg>
