<?xml version="1.0" encoding="utf-8"?>
<!-- Generator: Adobe Illustrator 19.2.1, SVG Export Plug-In . SVG Version: 6.00 Build 0)  -->
<svg version="1.1" id="Layer_1" xmlns="http://www.w3.org/2000/svg" xmlns:xlink="http://www.w3.org/1999/xlink" x="0px" y="0px"
	 viewBox="0 0 146.1 138.3" style="enable-background:new 0 0 146.1 138.3;" xml:space="preserve">
<style type="text/css">
	.st0{clip-path:url(#SVGID_2_);}
	.st1{fill:none;stroke:#DFF3FD;}
	.st2{clip-path:url(#SVGID_4_);}
	.st3{fill:#00AEEF;}
</style>
<title>business-solutions-7</title>
<g>
	<defs>
		<rect id="SVGID_1_" x="-54.8" y="-2047" width="985.7" height="3593.3"/>
	</defs>
	<clipPath id="SVGID_2_">
		<use xlink:href="#SVGID_1_"  style="overflow:visible;"/>
	</clipPath>
	<g class="st0">
		<rect x="-54.8" y="-358.4" class="st1" width="985.7" height="588.5"/>
	</g>
</g>
<g>
	<defs>
		<rect id="SVGID_3_" x="29.4" y="37.4" width="84.3" height="57.4"/>
	</defs>
	<clipPath id="SVGID_4_">
		<use xlink:href="#SVGID_3_"  style="overflow:visible;"/>
	</clipPath>
	<g class="st2">
		<path class="st3" d="M84.9,37.5c-4.7,0-9.3,1.2-13.4,3.4c-14-7.5-31.4-2.2-38.8,11.8s-2.2,31.4,11.8,38.8c8.5,4.5,18.6,4.5,27.1,0
			c14,7.5,31.4,2.2,38.8-11.8c7.5-14,2.2-31.4-11.8-38.8C94.4,38.7,89.7,37.5,84.9,37.5 M71.5,87.4l-2.3-1.6l8.5-4
			C76,84,73.9,85.9,71.5,87.4 M81,76.3l-14.6,6.8c-0.9-1-1.7-2.1-2.4-3.2l18.7-8.7c-0.4,1.8-0.9,3.5-1.6,5.1 M62.3,76.8
			c-0.6-1.2-1-2.4-1.4-3.7L83,62.8c0.1,1.1,0.2,2.3,0.2,3.4c0,0.3,0,0.6,0,0.8L62.3,76.8z M60.2,69.5c-0.1-1.1-0.2-2.2-0.2-3.3
			c0-0.3,0-0.6,0-0.9l20.9-9.7c0.6,1.2,1,2.4,1.4,3.7L60.2,69.5z M60.5,61.1c0.4-1.8,0.9-3.5,1.6-5.1l14.6-6.8
			c0.9,1,1.8,2.1,2.5,3.2L60.5,61.1z M65.5,50.5c1.7-2.2,3.8-4,6.2-5.5l2.3,1.6L65.5,50.5z M58.2,91.2c-13.9,0-25.1-11.3-25-25.2
			c0-13.9,11.3-25.1,25.2-25c3.3,0,6.7,0.7,9.7,2C55.3,52.5,52.6,70.4,62,83.2c1.7,2.3,3.8,4.4,6.1,6.1C65,90.6,61.6,91.3,58.2,91.2
			 M85.1,91.2c-3.4,0-6.8-0.7-9.9-2c12.8-9.4,15.5-27.4,6.1-40.1c-1.7-2.3-3.8-4.4-6.1-6.1c12.8-5.4,27.5,0.5,32.9,13.3
			c5.4,12.8-0.5,27.5-13.3,32.9C91.8,90.6,88.4,91.2,85.1,91.2"/>
		<path class="st3" d="M85,37.4c-4.6,0-9.2,1.1-13.3,3.3v4.4l2.1,1.5l-2.1,1v4l4.9-2.3c0.9,1,1.8,2.1,2.5,3.2l-7.3,3.4v4l9.1-4.2
			c0.6,1.2,1,2.4,1.4,3.7l-10.5,4.9v4L83,63.1c0.1,1.1,0.2,2.3,0.2,3.4c0,0.3,0,0.6,0,0.8l-11.5,5.3v4l11-5.1
			c-0.3,1.8-0.9,3.5-1.6,5.1L71.8,81v4l6-2.8c-1.7,2.1-3.7,4-6,5.5v4.4c14,7.4,31.4,2,38.8-12c7.4-14,2-31.4-12-38.8
			c-4.1-2.2-8.7-3.3-13.4-3.3 M85.1,91.8c-3.4,0-6.8-0.7-9.9-2c12.8-9.4,15.5-27.4,6.1-40.1c-1.7-2.3-3.8-4.4-6.1-6.1
			c12.8-5.4,27.5,0.5,32.9,13.3c5.4,12.8-0.5,27.5-13.3,32.9C91.8,91.2,88.4,91.8,85.1,91.8"/>
	</g>
</g>
</svg>
