<?xml version="1.0" encoding="utf-8"?>
<!-- Generator: Adobe Illustrator 19.2.1, SVG Export Plug-In . SVG Version: 6.00 Build 0)  -->
<svg version="1.1" id="Layer_1" xmlns="http://www.w3.org/2000/svg" xmlns:xlink="http://www.w3.org/1999/xlink" x="0px" y="0px"
	 viewBox="0 0 146.1 138.3" style="enable-background:new 0 0 146.1 138.3;" xml:space="preserve">
<style type="text/css">
	.st0{clip-path:url(#SVGID_2_);}
	.st1{fill:none;stroke:#DFF3FD;}
	.st2{clip-path:url(#SVGID_4_);}
	.st3{fill:#00AEEF;}
</style>
<title>business-solutions-9</title>
<g>
	<defs>
		<rect id="SVGID_1_" x="-347.4" y="-2047" width="985.7" height="3593.3"/>
	</defs>
	<clipPath id="SVGID_2_">
		<use xlink:href="#SVGID_1_"  style="overflow:visible;"/>
	</clipPath>
	<g class="st0">
		<rect x="-347.4" y="-358.4" class="st1" width="985.7" height="588.5"/>
	</g>
</g>
<g>
	<defs>
		<rect id="SVGID_3_" width="146.1" height="138.3"/>
	</defs>
	<clipPath id="SVGID_4_">
		<use xlink:href="#SVGID_3_"  style="overflow:visible;"/>
	</clipPath>
	<g class="st2">
		<path class="st3" d="M105.2,64.3c-1.7,0-3.1,1.2-3.4,2.9H80c-0.3-1.3-1-2.5-2-3.4L93.8,48c1.4,0.9,3.2,0.8,4.4-0.4
			c1.4-1.3,1.5-3.5,0.1-4.9c-1.3-1.4-3.5-1.5-4.9-0.1c-0.7,0.7-1.1,1.6-1.1,2.6c0,0.7,0.2,1.4,0.6,2L77,63c-1-0.7-2.2-1.1-3.4-1.2
			V39c1.9-0.3,3.2-2.1,2.8-4c-0.3-1.9-2.1-3.2-4-2.8c-1.9,0.3-3.2,2.1-2.8,4c0.3,1.5,1.4,2.6,2.8,2.8v22.7c-1.2,0.1-2.4,0.5-3.4,1.2
			L53.2,47c1.1-1.6,0.7-3.8-0.9-4.9c-1.6-1.1-3.8-0.7-4.9,0.9s-0.7,3.8,0.9,4.9c1.2,0.8,2.8,0.8,4,0l15.8,15.8c-1,0.9-1.7,2.1-2,3.4
			H44.3c-0.3-1.9-2.1-3.2-4-2.8c-1.9,0.3-3.2,2.1-2.8,4s2.1,3.2,4,2.8c1.5-0.3,2.6-1.4,2.8-2.8H66c0,0.1,0,0.3,0,0.4
			c0,1.4,0.4,2.8,1.2,4L52.3,87.6c-1.6-1.1-3.8-0.7-4.9,0.9c-1.1,1.6-0.7,3.8,0.9,4.9c1.4,1,3.3,0.8,4.5-0.4c1.2-1.2,1.3-3,0.4-4.4
			L68,73.7c1.2,1.2,2.8,2,4.5,2.1v20.7c-1.9,0.3-3.2,2.1-2.8,4c0.3,1.9,2.1,3.2,4,2.8c1.9-0.3,3.2-2.1,2.8-4
			c-0.3-1.5-1.4-2.6-2.8-2.8V75.8c1.7-0.1,3.3-0.9,4.5-2.1L93,88.5c-1.1,1.6-0.7,3.8,0.9,4.9s3.8,0.7,4.9-0.9
			c1.1-1.6,0.7-3.8-0.9-4.9c-0.6-0.4-1.3-0.6-2-0.6c-0.7,0-1.4,0.2-2,0.6L79,72.7c0.8-1.2,1.2-2.6,1.2-4c0-0.1,0-0.3,0-0.4h21.7
			c0.3,1.9,2.1,3.2,4,2.8c1.9-0.3,3.2-2.1,2.8-4c-0.3-1.7-1.8-2.9-3.5-2.9 M94.3,43.3c0.7-1,2.2-1.3,3.2-0.6s1.3,2.2,0.6,3.2
			c-0.2,0.2-0.4,0.4-0.6,0.6c-0.9,0.9-2.3,0.9-3.2,0C93.4,45.7,93.4,44.3,94.3,43.3C94.2,43.4,94.3,43.3,94.3,43.3 M52,46.5
			c-0.9,0.9-2.3,0.9-3.2,0c-1-0.7-1.3-2.2-0.6-3.2s2.2-1.3,3.2-0.6c0.2,0.2,0.4,0.4,0.6,0.6C52.9,44.2,52.9,45.6,52,46.5 M41,69.9
			c-1.3,0-2.3-1-2.3-2.3s1-2.3,2.3-2.3c1.3,0,2.3,1,2.3,2.3S42.3,69.9,41,69.9L41,69.9 M52,92c-0.9,0.9-2.3,0.9-3.2,0
			c-0.9-0.9-0.9-2.3-0.1-3.3c0.9-0.9,2.3-0.9,3.3-0.1C52.9,89.6,52.9,91,52,92C52,92,52,92,52,92 M94.3,88.8c0.7-1,2.2-1.3,3.2-0.6
			s1.3,2.2,0.6,3.2c-0.2,0.2-0.4,0.4-0.6,0.6c-0.9,0.9-2.3,0.9-3.2,0C93.4,91.1,93.4,89.7,94.3,88.8 M75.2,62.3L75.2,62.3l0.5,0.2
			l0,0c1.4,0.6,2.6,1.6,3.3,2.9l-0.5-0.6l-0.7-0.7h-0.2l-1.1-0.8c-0.9-0.6-1.9-1-2.9-1.1h-0.3l1.9,0.3 M70.8,35.7
			c0-1.3,1-2.3,2.3-2.3c1.3,0,2.3,1,2.3,2.3s-1,2.3-2.3,2.3C71.8,38,70.8,37,70.8,35.7L70.8,35.7 M71.7,62.3c0.7,0,1.5,0.1,2.2,0.2
			c0.6,0.1,1.2,0.3,1.8,0.6l2,1.4l0.5,0.6c0.8,0.7,1.3,1.6,1.5,2.6v-0.2c-0.5-0.9-1.1-1.8-1.8-2.5h-0.1l-0.7-0.7
			c-0.9-0.7-1.9-1.2-3-1.5h-0.5c-0.8-0.2-1.6-0.2-2.4-0.2h0.6 M66.4,69.8c0.4-0.3,0.8-0.8,1.1-1.2l-1.1,0.9v-0.3l0,0l1-0.7l1.1-0.8
			c1.1-0.8,2.3-1.3,3.6-1.6c0.9-0.1,1.8,0.1,2.5,0.7c0.7,0.9,1.1,2.1,1,3.3h-0.3c0-1.2-0.4-3.8-2.9-3.7c-0.8,0-1.5,0.2-2.2,0.5
			c-0.8,0.5-1.5,1-2.2,1.6c-0.4,0.4-0.8,0.8-1.1,1.2l0,0l-0.6,0.6v-0.4 M74.3,70.1L74.3,70.1c0-0.5,0-1.1-0.2-1.6
			c-0.1-0.5-0.5-0.9-0.9-1.1L73,67.2h0.2c1,0.5,1.5,1.7,1.3,2.8h-0.3L74.3,70.1z M74.1,71.1c-0.1,0.5-0.3,0.9-0.5,1.3v-0.5l0.2-0.5
			h0.1l0.3-0.2 M74.2,71.8c0-0.2,0.1-0.4,0.2-0.6h0.3v0.4l0,0l-0.3,0.5l-0.6,1v-0.4l0.5-1.1 M74.5,72.3l0.4-0.9l0,0v-0.3h0.2
			l-0.4,1.2l-1,1.4v-0.4l0.7-1.1 M74.6,72.7l0.5-1.1l0.6-1.2c0,0.1,0,0.4,0,0.4l-0.2,0.6l0,0c-0.4,1.1-1,2.1-1.8,3V74
			C74,73.6,74.3,73.1,74.6,72.7 M66.4,70.3c0.7-0.4,1.6-1.7,2.4-2.3l1.6-1l0,0c0.6-0.3,1.2-0.6,1.9-0.6c0.8-0.1,1.5,0.2,2,0.8
			c0.3,0.3,0.5,0.6,0.6,1c0.2,0.5,0.3,1.1,0.3,1.7h-0.3c-0.1-3-2.1-3.1-2.1-3.1c-0.6,0-1.3,0.1-1.8,0.5c-1,0.5-1.9,1.1-2.7,1.9
			c-0.5,0.6-1.1,1.1-1.8,1.6V70 M66.7,70.9L66.7,70.9v-0.2l0,0l0.4-0.4h0.2c1.2-1.1,2.4-2.1,3.7-3c0.6-0.4,1.3-0.6,2-0.4h0.2
			l0.5,0.4c0.4,0.5,0.6,1.1,0.6,1.7c0,0.3,0,0.6-0.1,0.9l0,0l-0.3,0.6l0,0V70c0.1-0.3,0.2-0.7,0.2-1c0-0.5-0.1-0.9-0.3-1.3
			c-0.5-0.7-1.4-0.9-2.1-0.4c0,0,0,0,0,0L71,67.9l-1.7,1.3L68,70.4l-0.6,0.5l-0.3,0.2l0,0 M67.6,72.2L67.6,72.2l1-0.5l1.6-1.1
			c0.8-0.5,1.4-1.2,1.9-2h-0.5l-0.5,0.6H71c-0.8,0.7-1.7,1.4-2.6,2l0,0L68,71.4l-1,0.5h-0.1v-0.2l0,0l0.4-0.2h0.1
			c1.4-0.9,2.8-1.9,4-3l0,0L72,68l0,0l0.4-0.2h0.1v-0.2H72l-1.4,1.1l-0.5,0.5l-0.9,0.7l-1.3,1h-0.3l-1,0.5l0,0v-0.2l0,0L67,71h0.1
			l1.2-0.9l1.7-1.4l0.6-0.5h0.2l0.8-0.6c0.2-0.1,0.5-0.2,0.7-0.1c0.7,0.2,1.1,0.9,1,1.6c0,0.2,0,0.5-0.1,0.7h-0.3
			c0.1-0.3,0.2-0.6,0.2-0.9l0,0c0-0.1,0-0.3-0.1-0.4l0,0c-0.1-0.2-0.4-0.3-0.6-0.3h-0.2l-0.3,0.4l0,0c-0.6,1.5-1.3,1.7-2.8,2.8
			c-0.6,0.4-1.3,0.7-2,1V72 M67.6,72.8l1.9-0.9c0.9-0.4,1.6-1,2.2-1.7h0.2c-0.4,0.4-0.8,0.8-1.2,1.2c-0.9,0.7-1.8,1.2-2.9,1.5
			L67.6,72.8 M72,75v0.2h-0.5l0.6-0.4l0,0L72,75z M72.1,74.5L72.1,74.5l-0.8,0.6l0,0l0.8-0.5l0,0V74.5z M72.1,74L72.1,74l-1.4,1
			h-0.3c0.6-0.4,1.2-0.8,1.7-1.2v0.4L72.1,74z M72.1,73.3c-0.4,0.3-0.8,0.6-1.2,0.9l-0.8,0.4h-0.2l2.2-1.5V73.3L72.1,73.3z
			 M72.1,72.7c-0.6,0.4-1,0.8-1.6,1.1l-1,0.5h-0.1l1.1-0.6h0.3l0.5-0.3l0.7-0.5h0.2v0.2L72.1,72.7z M72.1,72l-0.8,0.7l0,0l-1,0.7
			L69,74l-0.2-0.2l0,0l1.1-0.5h0.2l0.4-0.2l0.9-0.6l0.2-0.2l0.5-0.5v0.4L72.1,72z M72.1,71.3L72.1,71.3L71.4,72l-0.6,0.4L70,73
			l-0.8,0.4h-0.6l-0.2-0.2c1.4-0.5,2.7-1.3,3.8-2.3v0.3L72.1,71.3z M69.5,72.6l-1.3,0.5L68,72.9c0.8-0.3,1.5-0.6,2.2-1
			c0.8-0.4,1.4-1.1,1.9-1.8c0.1,0.1,0.1,0.1,0.1,0.2l0,0c-0.7,0.9-1.6,1.6-2.6,2.1 M72.4,69.3L72.4,69.3l0.4-0.7l0,0v-0.3l0,0v-0.2
			c0,0,0-0.1,0-0.1h-0.1l-0.3,0.4L72,69.3h-0.6v0.2h0.1L70,70.7l-1.6,0.8l-0.7,0.3h-0.3l0.3-0.2l1.6-0.8l1.5-1.1l0.4-0.4
			c0.3-0.3,0.6-0.7,0.8-1.1l0.2-0.4c0-0.2,0.3-0.4,0.5-0.4l0,0c0.2,0.1,0.3,0.3,0.2,0.5l-0.2,0.6l0,0v0.4h-0.5 M75.3,99.1
			c0,1.3-1,2.3-2.3,2.3c-1.3,0-2.3-1-2.3-2.3s1-2.3,2.3-2.3C74.3,96.8,75.3,97.8,75.3,99.1L75.3,99.1 M73.7,74L73.7,74v-0.2l1.2-1.6
			l0.6-1.2l0.3-0.8v-0.5c0-0.4,0-0.8,0-1.2c-0.3-3.6-3.1-3.7-3.5-3.6c-1.3,0.1-2.6,0.5-3.7,1.3l-2.3,1.7V68l2.1-1.5l1.1-0.6
			c0.9-0.5,3.8-1.6,5.8,0.9c0.3,0.3,0.5,0.8,0.6,1.2c0.2,0.7,0.3,1.5,0.2,2.3l0,0c0,0.4-0.1,0.7-0.2,1.1c-0.2,0.6-0.5,1.2-0.9,1.7
			l-1.3,1.8h-0.1 M74.3,75.5H74l0.4-0.4c0.6-0.7,1.1-1.4,1.4-2.3l0.4-1.1l-0.8,1.6L75,74l-0.6,0.8l-0.6,0.5h-0.1l0.5-0.5l0.2-0.3
			h0.2c0.4-0.5,0.7-1.1,1-1.7c0.3-0.5,0.5-1.1,0.6-1.7v-0.9c0.2-1.2-0.2-2.4-1-3.3c-1.6-1.9-3-1.6-3.1-1.6c-0.9,0.1-1.8,0.2-2.6,0.5
			L68,66.6l-1.8,1.5l0.2-0.7c0.5-0.5,1.1-0.9,1.7-1.2l0.6-0.3c0.9-0.4,1.9-0.7,2.9-0.8h1.9l0.6,0.3h0.1l0.3,0.2l0,0l0.6,0.4
			c0.3,0.3,0.6,0.6,0.8,0.9l0.2,0.3l0.2,0.4c0.4,0.8,0.5,1.6,0.4,2.5c0.1,1.8-0.5,3.5-1.7,4.9l-0.2,0.2L74.3,75.5L74.3,75.5
			 M75.1,75.5h-0.5l0.2-0.2l0.6-0.7c0.4-0.5,0.8-1,1-1.6c0.6-2.4,0.9-4.4-0.1-6c-0.4-0.7-1-1.3-1.7-1.8h-0.3L73.8,65l-0.7-0.2h-0.3
			c-0.7,0-1.3,0-2,0.2l-1.6,0.4l0,0L68,66l-1.4,1l0.2-0.6h0.1l1-0.6H68l1.4-0.6h0.2l1.3-0.3h1.8c1,0.2,2,0.7,2.7,1.4l0.9,1.1
			c0.7,1.4,0.8,3,0.5,4.5c-0.2,0.9-0.4,1.7-0.7,2.5c-0.3,0.5-0.7,1-1.2,1.5l0,0 M77.1,74.7l-0.7,0.5l0,0c1.3-1.5,1.3-4.6,1.1-6.3
			v-0.5l0,0c-0.1-0.5-0.4-1-0.8-1.3c0.4,0.6,0.6,1.3,0.8,2c0,1.4-0.1,2.8-0.4,4.2l-0.3,1.1c-0.2,0.5-0.5,0.9-0.9,1.3L75.3,76l0.9-1
			c0.3-0.6,0.5-1.3,0.6-1.9c0.5-1.6,0.5-3.4,0-5c-0.1-0.3-0.2-0.6-0.4-0.8c-0.5-0.8-1.1-1.4-1.9-1.8h-0.1L74,65.3L73.2,65h-0.8
			c-1,0-1.9,0.2-2.9,0.4l-0.7,0.2l-1.7,0.8l0,0l0.4-0.3h0.2l1.3-0.7h0.2l1.5-0.4h0.1c1-0.2,2.1-0.1,3.1,0.2h0.4
			c1.3,0.6,2.3,1.5,3.1,2.6c0.2,0.3,0.3,0.6,0.4,0.9c0.1,0.3,0.1,0.6,0.1,0.9c0,0.2,0,0.5,0,0.7l0,0c0,1.4-0.2,2.8-0.6,4.2l-0.2,0.4
			 M78.8,72.9L78.8,72.9l-0.3,0.5l0,0c0,0,0.1-1.5,0.1-1.9c0-0.5-0.1-1-0.2-1.5c0,0,0,1.5-0.1,2.1s-0.1,1.2-0.1,1.4l0,0v0.2l0,0
			l-0.5,0.6V74c0.4-1.4,0.6-2.8,0.5-4.2c0-0.2,0-0.3,0-0.5c0-0.4-0.1-0.8-0.2-1.1c-0.3-0.9-0.9-1.6-1.6-2.2l-1.3-0.9L74,64.5h-0.3
			l-1.1-0.2h-2l-1.7,0.5L68.5,65l-1.1,0.7l0.3-0.4l0.3-0.2h0.1l0.9-0.4h0.8l1.4-0.3h1.2c1.8,0.2,3.5,1,4.7,2.3l0.3,0.4l0,0v0.2
			l0.5,0.9l0.2,0.5c0.1,0.4,0.3,1,0.4,1.3c0.1,0.4,0.2,0.7,0.2,1.1c0.1,0.5,0.1,1.8,0,2 M79.2,72L79.2,72l-0.3,0.7
			c0.1-1.7-0.2-3.5-1-5c-0.9-1.6-2.4-2.7-4.2-3.2c-1.4-0.4-2.8-0.4-4.2,0l-1.6,0.7l0.7-0.7l0.8-0.2h2.3l1.3,0.2h0.2l1,0.2l0.6,0.2
			H75l0.5,0.3l0,0c0.6,0.5,1.2,1.1,1.8,1.7c0.7,0.9,1.2,1.9,1.5,3c0.1,0.4,0.2,0.9,0.2,1.3c0,0.2,0,0.3,0,0.5l0,0V72l0,0
			c0,0.1,0,0.1,0,0.2 M79.3,70.1c0,0.5-0.1,1.1-0.2,1.6c0-1.5-0.4-2.9-1.2-4.1l0,0l-0.5-0.7l0,0l-0.7-0.7c-0.5-0.5-1.1-0.9-1.7-1.3
			c-1.4-0.6-2.9-0.9-4.4-0.8h-0.8l-1,0.2l0.8-0.4c0.5-0.1,1-0.1,1.5-0.1c0.6,0,1.3,0,1.9,0.2c2.6,0.5,4.3,2.1,5.7,4.6l0,0
			c0.2,0.3,0.2,0.7,0.4,1v0.3l0,0L79.3,70.1z M104.7,71.3c-1.3,0-2.3-1-2.3-2.3s1-2.3,2.3-2.3c1.3,0,2.3,1,2.3,2.3
			S106,71.3,104.7,71.3L104.7,71.3"/>
	</g>
</g>
</svg>
