<?xml version="1.0" encoding="utf-8"?>
<!-- Generator: Adobe Illustrator 19.2.1, SVG Export Plug-In . SVG Version: 6.00 Build 0)  -->
<svg version="1.1" id="Layer_1" xmlns="http://www.w3.org/2000/svg" xmlns:xlink="http://www.w3.org/1999/xlink" x="0px" y="0px"
	 viewBox="0 0 146.1 138.3" style="enable-background:new 0 0 146.1 138.3;" xml:space="preserve">
<style type="text/css">
	.st0{clip-path:url(#SVGID_2_);}
	.st1{fill:none;stroke:#DFF3FD;}
	.st2{fill:#00AEEF;}
	.st3{clip-path:url(#SVGID_4_);}
</style>
<title>business-solutions-1</title>
<g>
	<defs>
		<rect id="SVGID_1_" x="-54.8" y="-1872.1" width="985.7" height="3593.3"/>
	</defs>
	<clipPath id="SVGID_2_">
		<use xlink:href="#SVGID_1_"  style="overflow:visible;"/>
	</clipPath>
	<g class="st0">
		<rect x="-54.8" y="-183.5" class="st1" width="985.7" height="588.5"/>
	</g>
</g>
<path class="st2" d="M15,54.2h116.1V28.9H15V54.2z M129.3,52.4H16.7V30.7h112.6V52.4z"/>
<path class="st2" d="M15,81.8h116.1V56.5H15V81.8z M16.8,58.3h112.5V80H16.7V58.3H16.8z"/>
<path class="st2" d="M15,109.3h116.1V84H15V109.3z M16.8,85.8h112.5v21.7H16.7V85.8H16.8z"/>
<polygon class="st2" points="24.6,39.2 28.1,44.8 29.5,44.8 29.5,36.9 28.1,36.9 28.1,42.6 24.6,36.9 23.2,36.9 23.2,44.8 
	24.6,44.8 "/>
<path class="st2" d="M32.6,42.9h3.1l0.6,1.8h1.4l-3-7.9h-1.2l-3,7.9h1.4L32.6,42.9z M34.1,38.5l1.1,3.3h-2.3L34.1,38.5z"/>
<polygon class="st2" points="39.9,42.2 39.8,38.8 42.1,44.8 43.1,44.8 45.4,38.8 45.3,42.2 45.3,44.8 46.7,44.8 46.7,36.9 
	44.9,36.9 42.6,43 40.4,36.9 38.6,36.9 38.6,44.8 39.9,44.8 "/>
<polygon class="st2" points="53.4,43.7 49.7,43.7 49.7,41.3 52.9,41.3 52.9,40.2 49.7,40.2 49.7,38 53.4,38 53.4,36.9 48.3,36.9 
	48.3,44.8 53.4,44.8 "/>
<polygon class="st2" points="119.1,45.2 121.3,45.2 121.3,41.9 124.2,41.9 124.2,39.9 121.3,39.9 121.3,36.8 119.1,36.8 119.1,39.9 
	116.2,39.9 116.2,41.9 119.1,41.9 "/>
<polygon class="st2" points="24.6,68.9 27.8,68.9 27.8,67.8 24.6,67.8 24.6,65.6 28.3,65.6 28.3,64.5 23.2,64.5 23.2,72.4 
	28.4,72.4 28.4,71.3 24.6,71.3 "/>
<polygon class="st2" points="33.5,70.6 31.3,64.5 29.5,64.5 29.5,72.4 30.9,72.4 30.9,69.8 30.7,66.3 33,72.4 34,72.4 36.4,66.3 
	36.2,69.8 36.2,72.4 37.6,72.4 37.6,64.5 35.8,64.5 "/>
<path class="st2" d="M41.6,64.5l-3,7.9H40l0.6-1.8h3.1l0.6,1.8h1.4l-3-7.9H41.6z M41.1,69.4l1.1-3.3l1.1,3.3H41.1L41.1,69.4z"/>
<rect x="46.8" y="64.5" class="st2" width="1.4" height="7.9"/>
<polygon class="st2" points="51.2,64.5 49.8,64.5 49.8,72.4 54.8,72.4 54.8,71.3 51.2,71.3 "/>
<polygon class="st2" points="121.3,64.3 119.1,64.3 119.1,67.4 116.2,67.4 116.2,69.5 119.1,69.5 119.1,72.8 121.3,72.8 121.3,69.5 
	124.2,69.5 124.2,67.4 121.3,67.4 "/>
<polygon class="st2" points="28.1,97.7 24.6,92.1 23.2,92.1 23.2,100 24.6,100 24.6,94.4 28.1,100 29.5,100 29.5,92.1 28.1,92.1 "/>
<g>
	<defs>
		<rect id="SVGID_3_" width="146.1" height="138.3"/>
	</defs>
	<clipPath id="SVGID_4_">
		<use xlink:href="#SVGID_3_"  style="overflow:visible;"/>
	</clipPath>
	<g class="st3">
		<path class="st2" d="M35.5,97.3c0,0.2,0,0.5-0.1,0.7l-0.3,0.5l-0.5,0.3h-1.3l-0.5-0.3L32.5,98c-0.1-0.2-0.1-0.5-0.1-0.7V92H31v5.3
			c0,0.4,0,0.8,0.2,1.2c0.1,0.3,0.3,0.6,0.6,0.8l0.9,0.5l1.2,0.2l1.1-0.2l0.9-0.5c0.3-0.2,0.5-0.5,0.6-0.8c0.2-0.4,0.2-0.8,0.2-1.2
			V92h-1.2V97.3z"/>
		<polygon class="st2" points="42.4,98.1 40.1,92.1 38.3,92.1 38.3,100 39.7,100 39.7,97.4 39.6,93.9 41.9,100 42.9,100 45.2,93.9 
			45.1,97.4 45.1,100 46.4,100 46.4,92.1 44.6,92.1 		"/>
		<path class="st2" d="M53.3,96.5l-0.4-0.4l-0.6-0.3c0.4-0.1,0.7-0.4,0.9-0.7c0.2-0.3,0.3-0.6,0.3-1c0-0.3-0.1-0.7-0.2-1
			c-0.1-0.3-0.3-0.5-0.5-0.7L51.9,92h-3.8v7.9h4l0.9-0.4c0.2-0.2,0.4-0.4,0.5-0.7c0.1-0.3,0.2-0.7,0.2-1c0-0.2,0-0.4-0.1-0.6
			l-0.2-0.5 M49.5,93.3h1.3c0.4,0,0.7,0.1,1,0.3c0.2,0.2,0.3,0.5,0.3,0.8c0,0.3-0.1,0.6-0.4,0.8c-0.3,0.2-0.6,0.3-1,0.3h-1.3
			L49.5,93.3L49.5,93.3z M52.3,98.3L52,98.7l-0.4,0.2h-2.1v-2.5h1.6c0.6-0.1,1.2,0.3,1.3,0.9c0,0.1,0,0.3,0,0.4
			C52.4,97.9,52.4,98,52.3,98.3"/>
		<polygon class="st2" points="56.4,96.5 59.6,96.5 59.6,95.4 56.4,95.4 56.4,93.2 60.1,93.2 60.1,92.1 55,92.1 55,100 60.2,100 
			60.2,98.9 56.4,98.9 		"/>
		<path class="st2" d="M66.5,95.8c0.3-0.4,0.4-0.8,0.4-1.3c0-0.3-0.1-0.7-0.2-1c-0.1-0.3-0.3-0.5-0.6-0.7l-0.9-0.5L64,92.1h-2.8v7.9
			h1.4v-3h1.6l1.6,3h1.4l-1.8-3.3C65.8,96.5,66.2,96.3,66.5,95.8 M65.1,95.6l-0.5,0.3h-2.1v-2.6h2.1l0.5,0.3l0.3,0.4
			c0.1,0.2,0.1,0.3,0.1,0.5c0,0.2,0,0.3-0.1,0.5l-0.3,0.4"/>
		<polygon class="st2" points="121.3,91.9 119.1,91.9 119.1,95 116.2,95 116.2,97.1 119.1,97.1 119.1,100.3 121.3,100.3 121.3,97.1 
			124.2,97.1 124.2,95 121.3,95 		"/>
	</g>
</g>
</svg>
