<?xml version="1.0" encoding="utf-8"?>
<!-- Generator: Adobe Illustrator 19.2.1, SVG Export Plug-In . SVG Version: 6.00 Build 0)  -->
<svg version="1.1" id="Layer_1" xmlns="http://www.w3.org/2000/svg" xmlns:xlink="http://www.w3.org/1999/xlink" x="0px" y="0px"
	 viewBox="0 0 133.4 133.4" style="enable-background:new 0 0 133.4 133.4;" xml:space="preserve">
<style type="text/css">
	.st0{clip-path:url(#SVGID_2_);}
	.st1{fill:url(#SVGID_3_);}
	.st2{clip-path:url(#SVGID_5_);}
	.st3{fill:url(#SVGID_6_);}
	.st4{clip-path:url(#SVGID_8_);}
	.st5{fill:url(#SVGID_9_);}
	.st6{clip-path:url(#SVGID_11_);}
	.st7{clip-path:url(#SVGID_13_);}
	.st8{clip-path:url(#SVGID_15_);}
	.st9{fill:url(#SVGID_16_);}
	.st10{clip-path:url(#SVGID_18_);}
	.st11{clip-path:url(#SVGID_20_);}
	.st12{clip-path:url(#SVGID_22_);}
	.st13{fill:url(#SVGID_23_);}
	.st14{clip-path:url(#SVGID_25_);}
	.st15{clip-path:url(#SVGID_27_);}
	.st16{clip-path:url(#SVGID_29_);}
	.st17{fill:url(#SVGID_30_);}
	.st18{clip-path:url(#SVGID_32_);}
	.st19{clip-path:url(#SVGID_34_);}
	.st20{clip-path:url(#SVGID_36_);}
	.st21{fill:url(#SVGID_37_);}
	.st22{fill:#00AEEF;}
</style>
<title>business-pricing-nohidden</title>
<g>
	<defs>
		<path id="SVGID_1_" d="M83.2,70.2v3.3c-3.7,0.7-5.8,3.1-5.8,6.1c0,3.3,2.5,5.1,6.2,6.3c2.5,0.9,3.6,1.7,3.6,3S85.9,91,83.9,91
			c-2,0-4-0.5-5.7-1.5l-1,4C79,94.4,81,94.9,83,95v3.3h3.4v-3.5c4-0.7,6.1-3.3,6.1-6.4s-1.6-5-5.8-6.4c-2.9-1.1-4.1-1.8-4.1-3
			c0-1,0.7-1.9,3-1.9c1.7,0,3.4,0.4,5,1.2l1-3.9c-1.6-0.7-3.3-1.1-5-1.1v-3h-3.4L83.2,70.2z"/>
	</defs>
	<clipPath id="SVGID_2_">
		<use xlink:href="#SVGID_1_"  style="overflow:visible;"/>
	</clipPath>
	<g class="st0">
		
			<linearGradient id="SVGID_3_" gradientUnits="userSpaceOnUse" x1="-270.1385" y1="-3238.3599" x2="-269.1385" y2="-3238.3599" gradientTransform="matrix(19.1045 -11.03 11.03 19.1045 40954.9336 58977.6055)">
			<stop  offset="0" style="stop-color:#008FCA"/>
			<stop  offset="1" style="stop-color:#8ED8F8"/>
		</linearGradient>
		<polygon class="st1" points="65,77.2 88.7,63.5 104.7,91.3 81,104.9 		"/>
	</g>
</g>
<g>
	<defs>
		<path id="SVGID_4_" d="M62.9,95.1h4.7c1.9,4.1,5,7.5,8.9,9.8C70.8,104.3,65.8,100.5,62.9,95.1 M57.1,92.4c0.8,0,1.6,0,2.4-0.1
			c0.4,1.1,0.8,2.2,1.3,3.2v2c-1.2,0.1-2.5,0.2-3.8,0.2V92.4L57.1,92.4z M51.1,97.5v-5.3c1.2,0.1,2.5,0.2,3.8,0.2v5.3
			C53.6,97.7,52.3,97.6,51.1,97.5 M45.1,96.7v-5.2c1.2,0.2,2.4,0.4,3.8,0.6v5.3C47.5,97.1,46.3,96.9,45.1,96.7 M61.1,90.2h4.8
			c0.2,0.9,0.5,1.9,0.8,2.8H62C61.6,92.1,61.3,91.1,61.1,90.2 M60.7,88.1c-0.2-0.9-0.2-1.9-0.3-2.8h4.9c0,0.9,0.1,1.9,0.3,2.8H60.7
			L60.7,88.1z M31.2,87.2v-2.2c2.4,2.6,6.4,4.7,11.6,6v5.2C35.8,94.3,31.2,91,31.2,87.2 M60.4,83.1c0-0.9,0.1-1.9,0.3-2.8h4.9
			c-0.1,0.9-0.2,1.9-0.3,2.8H60.4L60.4,83.1z M31.2,79.6c0-0.2,0-0.4,0-0.6c4.1,4.5,13.4,7.5,24.7,7.5c0.8,0,1.6,0,2.4-0.1
			c0.1,1.2,0.3,2.5,0.6,3.7c-1,0-2,0.1-3,0.1C42.2,90.1,31.1,85.4,31.2,79.6 M57,78.9c0.6,0,1.1,0,1.7-0.1c-0.4,1.8-0.5,3.5-0.5,5.3
			H57L57,78.9L57,78.9z M51,84v-5.3c1.2,0.1,2.5,0.2,3.8,0.2v5.3C53.5,84.2,52.3,84.1,51,84 M45,83.1v-5.2c1.2,0.2,2.5,0.4,3.8,0.6
			v5.3C47.5,83.6,46.2,83.4,45,83.1 M61,78.3c0.2-1,0.5-1.9,0.9-2.8h4.8c-0.3,0.9-0.6,1.9-0.8,2.8H61z M31.1,73.7v-2.3
			c2.4,2.6,6.4,4.7,11.6,6v5.2C35.8,80.8,31.1,77.5,31.1,73.7 M31.1,66.1c0-0.2,0-0.4,0-0.6c4.1,4.5,13.4,7.5,24.7,7.5
			c1.7,0,3.4-0.1,5-0.2c-0.1,0.2-0.2,0.4-0.3,0.6h-0.1v0.2c-0.4,1-0.8,2-1.1,3c-1.1,0.1-2.3,0.1-3.4,0.1
			C42.2,76.7,31.1,71.9,31.1,66.1 M51,70.5v-5.3c1.2,0.1,2.5,0.2,3.8,0.2v5.3C53.5,70.7,52.2,70.6,51,70.5 M57,65.4
			c1.3,0,2.5-0.1,3.8-0.2v5.3c-1.2,0.1-2.5,0.2-3.8,0.2V65.4z M45,69.6v-5.2c1.2,0.2,2.5,0.4,3.8,0.6v5.3
			C47.5,70.1,46.2,69.9,45,69.6 M63,65c1.3-0.2,2.6-0.4,3.8-0.6v1c-1.4,1.1-2.7,2.4-3.8,3.9V65L63,65z M76.4,63.6
			c-3.9,2.2-7,5.6-8.9,9.8h-4.7C65.7,67.9,70.7,64.1,76.4,63.6 M67.3,84.2c0-11.4,7.8-20.7,17.5-20.7s17.5,9.3,17.5,20.7
			s-7.8,20.7-17.4,20.7S67.3,95.7,67.3,84.2 M31.2,60.2v-2.3c2.4,2.6,6.4,4.7,11.6,6v5.2C35.8,67.3,31.2,64,31.2,60.2 M80.7,57.9
			v2.3c0,0.5-0.1,1-0.3,1.5c-1.7-0.3-3.3-0.3-5,0C77.4,60.8,79.2,59.5,80.7,57.9 M80.7,52c0,0.2,0,0.4,0,0.6
			c0,5.8-11.1,10.6-24.8,10.6s-24.8-4.7-24.8-10.6c0-0.2,0-0.4,0-0.6c4.1,4.5,13.4,7.5,24.7,7.5S76.5,56.5,80.7,52 M51,57v-5.3
			c1.2,0.1,2.5,0.2,3.8,0.2v5.3C53.5,57.2,52.3,57.2,51,57 M57,51.9c1.3,0,2.5-0.1,3.8-0.2V57c-1.2,0.1-2.5,0.2-3.8,0.2V51.9
			L57,51.9z M45,56.2v-5.2c1.2,0.2,2.4,0.4,3.8,0.6v5.3C47.5,56.6,46.2,56.4,45,56.2 M63,51.5c1.3-0.2,2.6-0.4,3.8-0.6v5.2
			c-1.2,0.3-2.5,0.5-3.8,0.6V51.5L63,51.5z M31.1,46.7v-2.3c2.4,2.6,6.4,4.7,11.6,6v5.2C35.8,53.8,31.1,50.5,31.1,46.7 M69,50.4
			c5.2-1.3,9.3-3.4,11.6-6v2.3c0,3.8-4.6,7.1-11.6,9V50.4L69,50.4z M31.1,39.1c0-5.8,11.1-10.6,24.8-10.6s24.8,4.7,24.8,10.6
			S69.6,49.6,55.9,49.6S31.1,44.9,31.1,39.1 M0,66.7c0,36.8,29.9,66.7,66.7,66.7s66.7-29.9,66.7-66.7S103.5,0,66.7,0c0,0,0,0,0,0
			C29.9,0,0,29.9,0,66.7"/>
	</defs>
	<clipPath id="SVGID_5_">
		<use xlink:href="#SVGID_4_"  style="overflow:visible;"/>
	</clipPath>
	<g class="st2">
		
			<linearGradient id="SVGID_6_" gradientUnits="userSpaceOnUse" x1="-276.4581" y1="-3244.821" x2="-275.4581" y2="-3244.821" gradientTransform="matrix(115.5451 -66.71 66.71 115.5451 248414.3438 356580.7813)">
			<stop  offset="0" style="stop-color:#008FCA"/>
			<stop  offset="1" style="stop-color:#8ED8F8"/>
		</linearGradient>
		<polygon class="st3" points="-57.7,33.4 100.1,-57.7 191.2,100.1 33.4,191.2 		"/>
	</g>
</g>
<g>
	<defs>
		<path id="SVGID_7_" d="M60.7,34.5c-3.3,0-5.4,1-7.1,3.5c-1.3,1.8-2.1,2.5-3.3,2.5c-1,0-2-0.4-2-1.8c0.1-1.1,0.6-2.2,1.5-3
			l-4.1-0.6c-0.8,0.8-1.3,1.9-1.4,3h-3.2l-0.1,2h3.5c0.6,2.2,3.1,3.5,6.3,3.4c2.9,0.1,5.5-1.3,7-3.8c1-1.5,2-2.2,3.4-2.2
			s2.2,0.8,2.1,2c-0.2,1.3-0.8,2.6-1.9,3.4l4.3,0.6l0,0c1-0.9,1.6-2.2,1.8-3.5h3.5l0.1-2h-3.8C66.7,35.7,64.1,34.5,60.7,34.5
			L60.7,34.5"/>
	</defs>
	<clipPath id="SVGID_8_">
		<use xlink:href="#SVGID_7_"  style="overflow:visible;"/>
	</clipPath>
	<g class="st4">
		
			<linearGradient id="SVGID_9_" gradientUnits="userSpaceOnUse" x1="-271.5828" y1="-3240.7239" x2="-270.5828" y2="-3240.7239" gradientTransform="matrix(23.6079 -13.63 13.63 23.6079 50626.7266 72850.6953)">
			<stop  offset="0" style="stop-color:#008FCA"/>
			<stop  offset="1" style="stop-color:#8ED8F8"/>
		</linearGradient>
		<polygon class="st5" points="36.9,36.7 63.5,21.4 75,41.3 48.4,56.7 		"/>
	</g>
</g>
<g>
	<defs>
		<rect id="SVGID_10_" x="0.1" y="0" width="135.8" height="133.4"/>
	</defs>
	<clipPath id="SVGID_11_">
		<use xlink:href="#SVGID_10_"  style="overflow:visible;"/>
	</clipPath>
	<g class="st6">
		<g>
			<defs>
				<path id="SVGID_12_" d="M229.8,21.4l-2.5,4.7l-2.5-4.7c-0.1-0.3-0.4-0.5-0.7-0.4c-0.6-0.1-1.2,0.3-1.4,0.9c0,0.1,0,0.1,0,0.2
					l3.4,5.9c0,0.1,0,0.1,0,0.2v4.1c0.1,0.5,0.6,0.8,1.1,0.7c0.5,0.1,1-0.2,1.1-0.7v-4.1c0-0.1,0-0.2,0.1-0.3l3.4-5.9
					c0-0.1,0-0.1,0-0.2c-0.2-0.6-0.8-0.9-1.4-0.9C230.1,21,229.8,21.1,229.8,21.4"/>
			</defs>
			<clipPath id="SVGID_13_">
				<use xlink:href="#SVGID_12_"  style="overflow:visible;"/>
			</clipPath>
			<g class="st7">
				<g>
					<defs>
						
							<rect id="SVGID_14_" x="220.3" y="19.6" transform="matrix(0.866 -0.5 0.5 0.866 16.8909 117.2397)" width="13.9" height="14.9"/>
					</defs>
					<clipPath id="SVGID_15_">
						<use xlink:href="#SVGID_14_"  style="overflow:visible;"/>
					</clipPath>
					<g class="st8">
						
							<linearGradient id="SVGID_16_" gradientUnits="userSpaceOnUse" x1="-261.351" y1="-3230.9133" x2="-260.351" y2="-3230.9133" gradientTransform="matrix(8.8421 -5.105 5.105 8.8421 19028.8945 27262.7266)">
							<stop  offset="0" style="stop-color:#008FCA"/>
							<stop  offset="1" style="stop-color:#8ED8F8"/>
						</linearGradient>
						<polygon class="st9" points="209,22 232.2,8.6 245.6,32 222.4,45.4 						"/>
					</g>
				</g>
			</g>
		</g>
		<g>
			<defs>
				<rect id="SVGID_17_" x="0.1" y="0" width="135.8" height="133.4"/>
			</defs>
			<clipPath id="SVGID_18_">
				<use xlink:href="#SVGID_17_"  style="overflow:visible;"/>
			</clipPath>
			<g class="st10">
				<g>
					<defs>
						<path id="SVGID_19_" d="M195.2,31.1l-2.2,4l-2.2-4c-0.1-0.3-0.4-0.5-0.7-0.5c-0.6,0-1.2,0.4-1.4,1c0,0.2,0.1,0.3,0.2,0.5
							l2.7,4.6l-2.8,4.6c-0.1,0.1-0.1,0.3-0.1,0.4c0.2,0.6,0.7,1.1,1.4,1.1c0.2,0,0.5-0.1,0.6-0.3l2.4-4.2l2.4,4.2
							c0.1,0.2,0.3,0.3,0.6,0.3c0.7,0,1.2-0.4,1.4-1.1c0-0.1,0-0.3-0.1-0.4l-2.8-4.6l2.7-4.6c0.1-0.1,0.1-0.3,0.2-0.5
							c-0.1-0.6-0.7-1-1.4-1C195.6,30.6,195.4,30.8,195.2,31.1"/>
					</defs>
					<clipPath id="SVGID_20_">
						<use xlink:href="#SVGID_19_"  style="overflow:visible;"/>
					</clipPath>
					<g class="st11">
						<g>
							<defs>
								
									<rect id="SVGID_21_" x="186.2" y="29.3" transform="matrix(0.866 -0.5 0.5 0.866 7.5063 101.4145)" width="13.6" height="14.9"/>
							</defs>
							<clipPath id="SVGID_22_">
								<use xlink:href="#SVGID_21_"  style="overflow:visible;"/>
							</clipPath>
							<g class="st12">
								
									<linearGradient id="SVGID_23_" gradientUnits="userSpaceOnUse" x1="-264.5893" y1="-3235.3271" x2="-263.5893" y2="-3235.3271" gradientTransform="matrix(11.0245 -6.365 6.365 11.0245 23697.2578 34023.6719)">
									<stop  offset="0" style="stop-color:#008FCA"/>
									<stop  offset="1" style="stop-color:#8ED8F8"/>
								</linearGradient>
								<polygon class="st13" points="174.8,31.8 197.8,18.5 211.2,41.6 188.2,54.9 								"/>
							</g>
						</g>
					</g>
				</g>
				<g>
					<defs>
						<rect id="SVGID_24_" x="0.1" y="0" width="135.8" height="133.4"/>
					</defs>
					<clipPath id="SVGID_25_">
						<use xlink:href="#SVGID_24_"  style="overflow:visible;"/>
					</clipPath>
					<g class="st14">
						<g>
							<defs>
								<path id="SVGID_26_" d="M215.6,63.6c0-0.6,0.5-1.1,1.1-1.1c0,0,0,0,0,0h2.2v-2.1c0-0.6,0.5-1.1,1.1-1.1
									c0.6,0,1.1,0.5,1.1,1.1c0,0,0,0,0,0v2.1h2.2c0.6,0,1.1,0.5,1.1,1.1c0,0.6-0.5,1.1-1.1,1.1H221v2.2c0,0.6-0.5,1.1-1.1,1.1
									c-0.6,0-1.1-0.5-1.1-1.1v-2.2h-2.2C216.1,64.7,215.6,64.2,215.6,63.6L215.6,63.6 M231.2,63.6c0-0.6,0.5-1.1,1.1-1.1
									c0,0,0,0,0,0h2.2v-2.1c0-0.6,0.5-1.1,1.1-1.1c0.6,0,1.1,0.5,1.1,1.1c0,0,0,0,0,0v2.1h2.2c0.6,0,1.1,0.5,1.1,1.1
									c0,0.6-0.5,1.1-1.1,1.1c0,0,0,0,0,0h-2.2v2.2c0,0.6-0.5,1.1-1.1,1.1c-0.6,0-1.1-0.5-1.1-1.1v-2.2h-2.2
									C231.7,64.7,231.2,64.2,231.2,63.6L231.2,63.6 M186.2,109.9c3-3.6,6.8-6.5,11.6-7.1c11-1.4,14.6-5.1,15.8-7.1
									c0.8-1.2,1-2.7,0.5-4c-0.3-0.8-2.6-2.5-3.6-3.2c-0.6-0.4-1.1-0.8-1.5-1.2c-5-4.2-7.9-10.3-8.1-16.9
									c-0.3-7.5,2.6-14.9,7.9-20.2c10.2-10.2,26.7-10.2,36.9,0c5.3,5.3,8.2,12.7,7.9,20.2c-0.2,6.5-3.1,12.6-8.1,16.9
									c-0.4,0.3-0.9,0.7-1.5,1.2c-1,0.7-3.2,2.4-3.6,3.2c-0.4,1.3-0.2,2.8,0.5,4c1.2,2.1,4.8,5.7,15.8,7.1c4.5,0.6,8.2,3.1,11,6.4
									c-1.4,1.1-2.8,2.1-4.2,3.1c-1.1-1.3-2.4-2.3-3.9-3.2c-1.1-0.6-2.3-1-3.6-1.2c-12.6-1.6-17.6-6.2-19.6-9.7
									c-1.6-2.6-1.9-5.7-0.8-8.6c0.8-1.8,2.7-3.4,5.2-5.2c0.5-0.4,0.9-0.7,1.3-1c3.8-3.3,6.1-8.1,6.2-13.1
									c0.2-6.1-2.1-12-6.4-16.4c-8.2-8.2-21.5-8.2-29.7,0c-4.3,4.3-6.6,10.3-6.4,16.4c0.1,5.1,2.4,9.8,6.2,13.1
									c0.3,0.3,0.8,0.6,1.3,1c2.4,1.9,4.4,3.4,5.2,5.2l0,0c1.1,2.8,0.8,6-0.8,8.6c-2,3.5-7,8.1-19.6,9.7l-8,5
									C189,112,187.6,111,186.2,109.9 M242.8,45.5c-0.3-0.4-0.4-0.9-0.1-1.3l5.5-8.1v-1.5c0-3.6,2.9-6.5,6.5-6.5h12.1
									c3.6,0,6.5,2.9,6.5,6.5v6.7c0,3.6-2.9,6.5-6.5,6.5h-12.1c-2.9,0-5.4-1.9-6.2-4.7l-4.3,2.6C243.7,46,243.1,45.9,242.8,45.5
									 M180.1,39.8v-6.7c0-3.6,2.9-6.5,6.5-6.5h12.1c3.6,0,6.5,2.9,6.5,6.5v1.5l5.5,8.1c0.3,0.5,0.2,1.2-0.3,1.5
									c-0.3,0.2-0.8,0.2-1.2,0l-4.3-2.6c-0.8,2.8-3.3,4.7-6.2,4.7h-12.2C183,46.3,180.1,43.4,180.1,39.8 M214.8,30.1v-6.7
									c0-3.6,2.9-6.5,6.5-6.5h12.2c3.6,0,6.5,2.9,6.5,6.5v6.7c0,3.6-2.9,6.5-6.5,6.5h-3.8l-1.3,3.4c-0.2,0.4-0.5,0.7-0.9,0.7h-0.1
									c-0.4,0-0.8-0.2-1-0.6l-2-3.5h-3.2C217.6,36.6,214.7,33.7,214.8,30.1 M227.6,0c-36.8,0-66.7,29.9-66.7,66.7
									s29.9,66.7,66.7,66.7s66.7-29.9,66.7-66.7l0,0C294.3,29.8,264.4,0,227.6,0"/>
							</defs>
							<clipPath id="SVGID_27_">
								<use xlink:href="#SVGID_26_"  style="overflow:visible;"/>
							</clipPath>
							<g class="st15">
								<g>
									<defs>
										
											<rect id="SVGID_28_" x="136.5" y="-24.4" transform="matrix(0.866 -0.5 0.5 0.866 -2.8606 122.7569)" width="182.2" height="182.2"/>
									</defs>
									<clipPath id="SVGID_29_">
										<use xlink:href="#SVGID_28_"  style="overflow:visible;"/>
									</clipPath>
									<g class="st16">
										
											<linearGradient id="SVGID_30_" gradientUnits="userSpaceOnUse" x1="-276.4581" y1="-3244.8164" x2="-275.4581" y2="-3244.8164" gradientTransform="matrix(115.5451 -66.71 66.71 115.5451 248574.8906 356580.2188)">
											<stop  offset="0" style="stop-color:#008FCA"/>
											<stop  offset="1" style="stop-color:#8ED8F8"/>
										</linearGradient>
										<polygon class="st17" points="-4.6,4.5 289.9,-165.6 459.9,128.9 165.4,299 										"/>
									</g>
								</g>
							</g>
						</g>
						<g>
							<defs>
								<rect id="SVGID_31_" x="0.1" y="0" width="135.8" height="133.4"/>
							</defs>
							<clipPath id="SVGID_32_">
								<use xlink:href="#SVGID_31_"  style="overflow:visible;"/>
							</clipPath>
							<g class="st18">
								<g>
									<defs>
										<path id="SVGID_33_" d="M257.5,32.3c-0.5,0.2-0.8,0.8-0.6,1.3c0.1,0.3,0.3,0.5,0.6,0.6h4.2l-4.9,8.8
											c-0.1,0.2-0.2,0.5-0.2,0.7c0,0.3,0.2,0.6,0.5,0.6c0,0,0.1,0,0.1,0h6.8c0.5-0.2,0.8-0.8,0.6-1.3c-0.1-0.3-0.3-0.5-0.6-0.6
											h-4.7l4.8-8.8c0.1-0.2,0.2-0.5,0.3-0.8c0-0.3-0.2-0.6-0.5-0.6c0,0-0.1,0-0.1,0L257.5,32.3L257.5,32.3z"/>
									</defs>
									<clipPath id="SVGID_34_">
										<use xlink:href="#SVGID_33_"  style="overflow:visible;"/>
									</clipPath>
									<g class="st19">
										<g>
											<defs>
												
													<rect id="SVGID_35_" x="254" y="31.1" transform="matrix(0.866 -0.5 0.5 0.866 15.7323 135.3941)" width="13" height="14.4"/>
											</defs>
											<clipPath id="SVGID_36_">
												<use xlink:href="#SVGID_35_"  style="overflow:visible;"/>
											</clipPath>
											<g class="st20">
												
													<linearGradient id="SVGID_37_" gradientUnits="userSpaceOnUse" x1="-264.1856" y1="-3233.8953" x2="-263.1856" y2="-3233.8953" gradientTransform="matrix(10.6954 -6.175 6.175 10.6954 23050.0352 32997.8984)">
													<stop  offset="0" style="stop-color:#008FCA"/>
													<stop  offset="1" style="stop-color:#8ED8F8"/>
												</linearGradient>
												<polygon class="st21" points="243.1,33.5 265.2,20.7 278.1,43 256,55.7 												"/>
											</g>
										</g>
									</g>
								</g>
								<path class="st22" d="M34.6,159.4h-2.5l-4.9-8v8h-2.5v-12.1h2.5l4.9,8v-8h2.5V159.4z"/>
								<path class="st22" d="M46.7,153.6c0,0.8-0.1,1.7-0.4,2.5c-0.2,0.7-0.6,1.3-1,1.9c-0.4,0.5-1,0.9-1.6,1.2
									c-1.3,0.5-2.8,0.5-4.2,0c-0.6-0.3-1.2-0.7-1.6-1.2c-0.5-0.5-0.8-1.2-1.1-1.9c-0.3-0.8-0.4-1.6-0.4-2.5v-0.5
									c0-0.8,0.1-1.7,0.4-2.5c0.2-0.7,0.6-1.3,1.1-1.9c0.4-0.5,1-0.9,1.6-1.2c1.3-0.5,2.8-0.5,4.2,0c0.6,0.3,1.2,0.7,1.6,1.2
									c0.5,0.6,0.8,1.2,1.1,1.9c0.3,0.8,0.4,1.6,0.4,2.5L46.7,153.6L46.7,153.6z M44.2,153.1c0.1-1-0.2-2-0.7-2.9
									c-0.8-1.1-2.3-1.3-3.4-0.5c-0.2,0.1-0.4,0.3-0.5,0.5c-0.5,0.9-0.7,1.9-0.7,2.9v0.6c0,0.6,0.1,1.1,0.2,1.7
									c0.1,0.4,0.3,0.8,0.5,1.2c0.2,0.3,0.5,0.6,0.8,0.8c0.3,0.2,0.7,0.3,1.1,0.3c0.8,0,1.5-0.3,1.9-1c0.5-0.9,0.7-1.9,0.7-2.9
									V153.1L44.2,153.1z"/>
								<path class="st22" d="M62.6,159.4h-2.5v-5.2h-4.9v5.2h-2.5v-12.1h2.5v4.9h4.9v-4.9h2.5L62.6,159.4L62.6,159.4z"/>
								<path class="st22" d="M67.4,159.4h-2.5v-12.1h2.5V159.4z"/>
								<path class="st22" d="M69.7,159.4v-12.1h3.7c0.8,0,1.5,0.1,2.2,0.4c0.7,0.3,1.3,0.7,1.8,1.2c0.5,0.5,0.9,1.1,1.1,1.8
									c0.3,0.8,0.4,1.6,0.4,2.4v0.6c0,0.8-0.1,1.6-0.4,2.4c-0.3,0.7-0.6,1.3-1.1,1.8c-0.5,0.5-1.1,0.9-1.8,1.2
									c-0.7,0.3-1.5,0.4-2.3,0.4L69.7,159.4L69.7,159.4z M72.2,149.3v8.1h1.2c0.9,0,1.7-0.3,2.3-1c0.6-0.8,0.8-1.8,0.8-2.8V153
									c0.1-1-0.2-2-0.8-2.8c-0.5-0.7-1.4-1-2.2-1L72.2,149.3L72.2,149.3z"/>
								<path class="st22" d="M80.7,159.4v-12.1h3.7c0.8,0,1.5,0.1,2.2,0.4c0.7,0.3,1.3,0.7,1.8,1.2c0.5,0.5,0.9,1.1,1.1,1.8
									c0.3,0.8,0.4,1.6,0.4,2.4v0.6c0,0.8-0.1,1.6-0.4,2.4c-0.3,0.7-0.6,1.3-1.1,1.8c-0.5,0.5-1.1,0.9-1.8,1.2
									c-0.7,0.3-1.5,0.4-2.3,0.4L80.7,159.4L80.7,159.4z M83.2,149.3v8.1h1.2c0.9,0,1.7-0.3,2.3-1c0.6-0.8,0.8-1.8,0.8-2.8V153
									c0.1-1-0.2-2-0.8-2.8c-0.5-0.7-1.4-1-2.2-1L83.2,149.3L83.2,149.3z"/>
								<path class="st22" d="M99,154.2h-4.8v3.2h5.6v2h-8.1v-12.1h8.1v2h-5.6v2.9H99L99,154.2L99,154.2z"/>
								<path class="st22" d="M111.2,159.4h-2.5l-4.9-8v8h-2.5v-12.1h2.5l4.9,8v-8h2.5V159.4z"/>
								<path class="st22" d="M56.9,174.9h-4.8v4.9h-2.5v-12.1h7.9v2h-5.4v3.1h4.8V174.9L56.9,174.9z"/>
								<path class="st22" d="M66.2,174.6h-4.8v3.2H67v2h-8.1v-12.1H67v2h-5.6v2.9h4.8V174.6L66.2,174.6z"/>
								<path class="st22" d="M75.7,174.6H71v3.2h5.6v2h-8.1v-12.1h8.1v2H71v2.9h4.8L75.7,174.6L75.7,174.6z"/>
								<path class="st22" d="M84.3,176.6c0-0.2,0-0.4-0.1-0.6c-0.1-0.2-0.2-0.3-0.4-0.5c-0.2-0.2-0.5-0.3-0.7-0.4
									c-0.4-0.2-0.8-0.3-1.2-0.4c-0.5-0.2-1.1-0.4-1.6-0.6c-0.5-0.2-0.9-0.5-1.3-0.8c-0.4-0.3-0.6-0.6-0.9-1
									c-0.2-0.4-0.3-0.9-0.3-1.4c0-0.5,0.1-1,0.3-1.4c0.2-0.4,0.5-0.8,0.9-1.1c0.4-0.3,0.9-0.5,1.4-0.7c0.6-0.2,1.2-0.3,1.8-0.3
									c0.6,0,1.2,0.1,1.8,0.3c0.5,0.2,1,0.4,1.4,0.8c0.4,0.3,0.7,0.7,0.9,1.2c0.2,0.5,0.3,1,0.3,1.5h-2.5c0-0.2,0-0.5-0.1-0.7
									c-0.1-0.2-0.2-0.4-0.4-0.6c-0.2-0.2-0.4-0.3-0.6-0.4c-0.3-0.1-0.6-0.1-0.9-0.1c-0.3,0-0.6,0-0.9,0.1
									c-0.2,0.1-0.4,0.2-0.6,0.3c-0.2,0.1-0.3,0.3-0.4,0.4c-0.1,0.2-0.1,0.4-0.1,0.6c0,0.4,0.2,0.8,0.6,1c0.6,0.3,1.2,0.6,1.8,0.8
									c0.6,0.2,1.2,0.4,1.7,0.7c0.5,0.2,0.9,0.5,1.3,0.9c0.3,0.3,0.6,0.7,0.8,1.1c0.2,0.4,0.3,0.9,0.3,1.3c0,0.5-0.1,1-0.3,1.4
									c-0.2,0.4-0.5,0.7-0.9,1c-0.4,0.3-0.9,0.5-1.4,0.7c-0.6,0.2-1.2,0.2-1.8,0.2c-0.4,0-0.8,0-1.2-0.1c-0.4-0.1-0.8-0.2-1.1-0.3
									c-0.4-0.1-0.7-0.3-1-0.5c-0.3-0.2-0.6-0.5-0.8-0.8c-0.2-0.3-0.4-0.6-0.5-1c-0.1-0.4-0.2-0.8-0.2-1.2h2.5
									c0,0.3,0,0.6,0.2,0.9c0.1,0.2,0.3,0.5,0.5,0.6c0.2,0.2,0.5,0.3,0.8,0.3c0.3,0.1,0.7,0.1,1,0.1c0.3,0,0.6,0,0.8-0.1
									c0.2-0.1,0.4-0.2,0.6-0.3c0.1-0.1,0.3-0.3,0.3-0.4C84.3,177,84.3,176.8,84.3,176.6z"/>
							</g>
						</g>
					</g>
				</g>
			</g>
		</g>
	</g>
</g>
</svg>
