<?xml version="1.0" encoding="utf-8"?>
<!-- Generator: Adobe Illustrator 19.2.1, SVG Export Plug-In . SVG Version: 6.00 Build 0)  -->
<svg version="1.1" id="Layer_1" xmlns="http://www.w3.org/2000/svg" xmlns:xlink="http://www.w3.org/1999/xlink" x="0px" y="0px"
	 viewBox="0 0 133.8 133.8" style="enable-background:new 0 0 133.8 133.8;" xml:space="preserve">
<style type="text/css">
	.st0{clip-path:url(#SVGID_2_);}
	.st1{fill:url(#SVGID_3_);}
</style>
<title>business-analytics-2</title>
<g>
	<defs>
		<path id="SVGID_1_" d="M11.1,88.9v-49c0.1-1.4,1.2-2.5,2.6-2.4c0,0,0,0,0,0H78c1.4-0.1,2.5,1,2.6,2.4c0,0,0,0,0,0v49
			c-0.1,1.4-1.2,2.5-2.6,2.4c0,0,0,0,0,0H53v9.3h13.5c1.7,0,3,1.3,3,3v4H22.2v-4c0-1.7,1.3-3,3-3h13.5v-9.3h-25
			C12.3,91.4,11.2,90.3,11.1,88.9C11.1,88.9,11.1,88.9,11.1,88.9 M52.3,26.7c0-1.5,1.5-2.6,3.3-2.6h55.5c1.9,0,3.4,1.2,3.4,2.6v77.4
			c0,1.5-1.5,2.6-3.4,2.6H71.4v-3.2c0-2.8-2.2-5-5-5H54.9v-5.4H78c2.5,0.1,4.5-1.9,4.6-4.4c0,0,0,0,0,0v-49
			c-0.1-2.5-2.1-4.5-4.6-4.4c0,0,0,0,0,0H52.3V26.7L52.3,26.7z M0,66.9c0,36.9,30,66.9,66.9,66.9s66.9-30,66.9-66.9
			C133.8,30,103.8,0,66.9,0c0,0,0,0,0,0C30,0,0,30,0,66.9"/>
	</defs>
	<clipPath id="SVGID_2_">
		<use xlink:href="#SVGID_1_"  style="overflow:visible;"/>
	</clipPath>
	<g class="st0">
		
			<linearGradient id="SVGID_3_" gradientUnits="userSpaceOnUse" x1="-410.1841" y1="-3242.7744" x2="-409.1841" y2="-3242.7744" gradientTransform="matrix(116.3103 -66.845 66.845 116.3103 264482.4688 349859.875)">
			<stop  offset="0" style="stop-color:#A7D1F0"/>
			<stop  offset="1" style="stop-color:#FFFFFF"/>
		</linearGradient>
		<polygon class="st1" points="-56.3,43.3 102.7,-48.1 194,110.8 35,202.2 		"/>
	</g>
</g>
</svg>
