<?xml version="1.0" encoding="utf-8"?>
<!-- Generator: Adobe Illustrator 19.2.1, SVG Export Plug-In . SVG Version: 6.00 Build 0)  -->
<svg version="1.1" id="Layer_1" xmlns="http://www.w3.org/2000/svg" xmlns:xlink="http://www.w3.org/1999/xlink" x="0px" y="0px"
	 viewBox="0 0 146.1 138.3" style="enable-background:new 0 0 146.1 138.3;" xml:space="preserve">
<style type="text/css">
	.st0{fill:none;}
	.st1{fill:none;stroke:#DFF3FD;}
	.st2{fill:#00AEEF;}
	.st3{clip-path:url(#SVGID_2_);}
</style>
<title>business-solutions-4</title>
<rect x="-347.4" y="-1872.1" class="st0" width="985.7" height="3593.3"/>
<g>
	<rect x="-347.4" y="-183.5" class="st1" width="985.7" height="588.5"/>
</g>
<path class="st2" d="M37.1,110.4h51.2V33.8H37.1V110.4z M39.4,36.1h46.7v72H39.4V36.1z"/>
<g>
	<defs>
		<rect id="SVGID_1_" width="146.1" height="138.3"/>
	</defs>
	<clipPath id="SVGID_2_">
		<use xlink:href="#SVGID_1_"  style="overflow:visible;"/>
	</clipPath>
	<g class="st3">
		<path class="st2" d="M91.7,26.3H80.9v-0.6c0-2.9-2.4-5.3-5.3-5.3h0H49.7c-2.9,0-5.3,2.4-5.3,5.3l0,0v0.6H33.7c-2.2,0-4,1.8-4,4
			v84.2h0.1c0.5,2,2.3,3.3,4.3,3.3h57.2c2.4-0.1,4.4-2.1,4.4-4.5v-83C95.7,28.1,93.9,26.3,91.7,26.3 M93.4,113.4
			c0,1.2-1,2.2-2.2,2.2H34.1c-1.2,0-2.2-1-2.2-2.2v-83c0-1,0.8-1.8,1.8-1.8h0h13v-2.8c0-1.7,1.4-3.1,3.1-3.1h25.8
			c1.7,0,3.1,1.4,3.1,3.1v2.8h13.1c0.9,0,1.7,0.8,1.7,1.7c0,0,0,0.1,0,0.1v83H93.4z"/>
		<path class="st2" d="M115.6,99.7V40.5l0,0c-0.6-3.7-4.2-6.2-7.9-5.5c-2.8,0.5-5,2.7-5.5,5.5h-0.1v0.8l0,0v1.1l0,0v57.2h-0.9
			l7.6,12.9l7.6-12.9L115.6,99.7L115.6,99.7z M108.8,36.9c2.1,0,3.9,1.4,4.4,3.4h-8.7C105,38.3,106.8,36.9,108.8,36.9 M104.4,42.9h9
			v54.5h-9V42.9z M108.9,108.1l-3.6-6.1h7.3L108.9,108.1z"/>
		<path class="st2" d="M54.8,81.9c-0.2,0.1-3.9,3.3-5.4,6.8c-0.6-1.4-1.5-2.7-2.6-3.8h-0.1l-1.1,1.3l0,0c1.9,1.6,3.2,5.7,3.2,5.8
			l0,0l1.7-0.3l0,0c-0.2-3.7,5.4-8.4,5.4-8.4H56L54.9,82L54.8,81.9L54.8,81.9z"/>
		<rect x="56.8" y="88.1" class="st2" width="23.6" height="3.5"/>
		<path class="st2" d="M54.8,71.1c-0.2,0.1-3.9,3.3-5.4,6.8c-0.6-1.4-1.5-2.7-2.6-3.8h-0.1l-1.1,1.3l0,0c1.9,1.7,3.2,5.7,3.2,5.8
			l0,0l1.7-0.3l0,0c-0.2-3.7,5.4-8.4,5.4-8.4H56l-1.1-1.3L54.8,71.1L54.8,71.1z"/>
		<rect x="56.8" y="77.3" class="st2" width="23.6" height="3.5"/>
		<path class="st2" d="M54.8,92.6c-0.2,0.1-3.9,3.3-5.4,6.8c-0.6-1.4-1.5-2.7-2.6-3.8h-0.1l-1.1,1.3l0,0c1.9,1.7,3.2,5.7,3.2,5.8
			l0,0l1.7-0.3l0,0c-0.2-3.7,5.4-8.4,5.4-8.4H56l-1.1-1.3L54.8,92.6L54.8,92.6z"/>
		<rect x="56.8" y="98.8" class="st2" width="23.6" height="3.5"/>
		<rect x="72.4" y="39.4" class="st2" width="0.7" height="4.8"/>
		<rect x="67.6" y="39.4" class="st2" width="0.7" height="4.8"/>
		<rect x="53.2" y="39.4" class="st2" width="0.7" height="4.8"/>
		<rect x="62.8" y="39.4" class="st2" width="0.7" height="4.8"/>
		<rect x="58" y="39.4" class="st2" width="0.7" height="4.8"/>
		<path class="st2" d="M51.9,65.6h22.7c0.7,0,1.2-0.5,1.2-1.2V41.8c0-0.7-0.5-1.2-1.2-1.2h-0.4v2.2c0.5,0.7,0.4,1.7-0.4,2.2
			c-0.7,0.5-1.7,0.4-2.2-0.4c-0.4-0.6-0.4-1.3,0-1.9v-2.2h-2.2v2.2c0.2,0.3,0.3,0.6,0.3,0.9c0,0.9-0.7,1.6-1.6,1.6s-1.6-0.7-1.6-1.6
			c0-0.3,0.1-0.6,0.3-0.9v-2.2h-2.2v2.2c0.2,0.3,0.3,0.6,0.3,0.9c0,0.9-0.7,1.6-1.6,1.6s-1.6-0.7-1.6-1.6c0-0.3,0.1-0.7,0.3-1v-2.2
			h-2.2v2.2c0.5,0.7,0.4,1.7-0.4,2.2c-0.7,0.5-1.7,0.4-2.2-0.4c-0.4-0.6-0.4-1.3,0-1.9v-2.2H55v2.2c0.5,0.7,0.4,1.7-0.4,2.2
			c-0.7,0.5-1.7,0.4-2.2-0.4c-0.4-0.6-0.4-1.3,0-1.9v-2.2H52c-0.7,0-1.2,0.5-1.2,1.2v22.6C50.8,65.1,51.3,65.6,51.9,65.6 M53.7,47.5
			H73v15.6H53.5V47.5H53.7z"/>
		<path class="st2" d="M53.9,62.7h18.5V47.9H53.9V62.7z M54.3,48.2h17.8v14.1H54.3L54.3,48.2L54.3,48.2z"/>
		<path class="st2" d="M61.3,54.4c0-0.3,0.9-0.5,0.9-1.5s-1.9-1.5-2.9-1.5s-3,0.7-3,1.3c0,0.3,0.1,0.6,0.4,0.7
			c0.4-0.2,0.8-0.3,1.2-0.4c0.5,0,0.8,0.3,0.9,0.8c0,1.1-1.6,1-1.6,1.5c0,0.4,0.2,0.7,0.5,0.9h0.9c0.6-0.1,1.1,0.4,1.2,1
			c0,0,0,0,0,0c-0.2,0.7-0.9,1.2-1.6,1.1c-0.5,0-1-0.1-1.5-0.2c-0.3-0.1-0.6,0.2-0.7,0.5c0,0,0,0.1,0,0.1c0,0.8,2.1,1,2.6,1
			c3.1,0,4.5-1.6,4.5-3s-2-1.7-2-2.1"/>
		<path class="st2" d="M68.8,56.6c-0.1-0.7-0.1-1.3-0.1-2c0-0.4,0-0.8,0-1.4s0.9-0.7,0.9-1.3s-0.6-0.5-1-0.5s-4.4,0.6-4.4,1.5
			c0,0.2,0.2,0.4,0.4,0.4c0,0,0.1,0,0.1,0h0.4c0.6,0,0.6,0.2,0.6,0.7v1.6c0,1.3-0.2,1.7-0.6,1.7h-0.6c-0.3,0-0.5,0.2-0.5,0.5
			c0,0.8,2.9,0.9,3.3,0.9l2.4-0.2c0.4,0,0.6-0.3,0.7-0.6c0-0.8-1.3,0-1.5-1.1"/>
	</g>
</g>
</svg>
