<svg xmlns="http://www.w3.org/2000/svg" viewBox="0 0 146.1 138.3"><title>business-solutions-12</title><path d="M378.8,187.5v80.7h80.5V187.5H378.8Zm2.3,2.3H457V212H381.1V189.8h0ZM457,265.9H381.1V214.3H457v51.6h0Z" transform="translate(-346 -158.7)" fill="#00aeef"/><path d="M392.7,217.8h-8.8v7.7h8.8v-7.7Zm-1.1,6.6h-6.5V219h6.5v5.4Z" transform="translate(-346 -158.7)" fill="#00aeef"/><path d="M402.7,217.8h-8.8v7.7h8.8v-7.7Zm-1.1,6.6h-6.5V219h6.5v5.4Z" transform="translate(-346 -158.7)" fill="#00aeef"/><path d="M412.7,217.8h-8.8v7.7h8.8v-7.7Zm-1.1,6.6h-6.5V219h6.5v5.4Z" transform="translate(-346 -158.7)" fill="#00aeef"/><path d="M422.6,217.8h-8.8v7.7h8.8v-7.7Zm-1.1,6.6H415V219h6.5v5.4Z" transform="translate(-346 -158.7)" fill="#00aeef"/><path d="M432.6,217.8h-8.8v7.7h8.8v-7.7Zm-1.1,6.6H425V219h6.5v5.4Z" transform="translate(-346 -158.7)" fill="#00aeef"/><path d="M442.5,217.8h-8.8v7.7h8.8v-7.7Zm-1.1,6.6h-6.5V219h6.5v5.4Z" transform="translate(-346 -158.7)" fill="#00aeef"/><path d="M452.5,217.8h-8.8v7.7h8.8v-7.7Zm-1.1,6.6h-6.5V219h6.5v5.4Z" transform="translate(-346 -158.7)" fill="#00aeef"/><path d="M392.7,226.8h-8.8v7.7h8.8v-7.7Zm-1.1,6.6h-6.5V228h6.5v5.4Z" transform="translate(-346 -158.7)" fill="#00aeef"/><path d="M402.7,226.8h-8.8v7.7h8.8v-7.7Zm-1.1,6.6h-6.5V228h6.5v5.4Z" transform="translate(-346 -158.7)" fill="#00aeef"/><rect x="57.9" y="68.1" width="8.8" height="7.71" fill="#00aeef"/><path d="M422.6,226.8h-8.8v7.7h8.8v-7.7Zm-1.1,6.6H415V228h6.5v5.4Z" transform="translate(-346 -158.7)" fill="#00aeef"/><path d="M432.6,226.8h-8.8v7.7h8.8v-7.7Zm-1.1,6.6H425V228h6.5v5.4Z" transform="translate(-346 -158.7)" fill="#00aeef"/><path d="M442.5,226.8h-8.8v7.7h8.8v-7.7Zm-1.1,6.6h-6.5V228h6.5v5.4Z" transform="translate(-346 -158.7)" fill="#00aeef"/><path d="M452.5,226.8h-8.8v7.7h8.8v-7.7Zm-1.1,6.6h-6.5V228h6.5v5.4Z" transform="translate(-346 -158.7)" fill="#00aeef"/><path d="M392.7,235.7h-8.8v7.7h8.8v-7.7Zm-1.1,6.6h-6.5v-5.4h6.5v5.4Z" transform="translate(-346 -158.7)" fill="#00aeef"/><path d="M402.7,235.7h-8.8v7.7h8.8v-7.7Zm-1.1,6.6h-6.5v-5.4h6.5v5.4Z" transform="translate(-346 -158.7)" fill="#00aeef"/><path d="M412.7,235.7h-8.8v7.7h8.8v-7.7Zm-1.1,6.6h-6.5v-5.4h6.5v5.4Z" transform="translate(-346 -158.7)" fill="#00aeef"/><path d="M422.6,235.7h-8.8v7.7h8.8v-7.7Zm-1.1,6.6H415v-5.4h6.5v5.4Z" transform="translate(-346 -158.7)" fill="#00aeef"/><rect x="77.8" y="77" width="8.8" height="7.7" fill="#00aeef"/><path d="M442.5,235.7h-8.8v7.7h8.8v-7.7Zm-1.1,6.6h-6.5v-5.4h6.5v5.4Z" transform="translate(-346 -158.7)" fill="#00aeef"/><path d="M452.5,235.7h-8.8v7.7h8.8v-7.7Zm-1.1,6.6h-6.5v-5.4h6.5v5.4Z" transform="translate(-346 -158.7)" fill="#00aeef"/><path d="M392.7,244.7h-8.8v7.7h8.8v-7.7Zm-1.1,6.6h-6.5v-5.4h6.5v5.4Z" transform="translate(-346 -158.7)" fill="#00aeef"/><path d="M402.7,244.7h-8.8v7.7h8.8v-7.7Zm-1.1,6.6h-6.5v-5.4h6.5v5.4Z" transform="translate(-346 -158.7)" fill="#00aeef"/><path d="M412.7,244.7h-8.8v7.7h8.8v-7.7Zm-1.1,6.6h-6.5v-5.4h6.5v5.4Z" transform="translate(-346 -158.7)" fill="#00aeef"/><path d="M422.6,244.7h-8.8v7.7h8.8v-7.7Zm-1.1,6.6H415v-5.4h6.5v5.4Z" transform="translate(-346 -158.7)" fill="#00aeef"/><path d="M432.6,244.7h-8.8v7.7h8.8v-7.7Zm-1.1,6.6H425v-5.4h6.5v5.4Z" transform="translate(-346 -158.7)" fill="#00aeef"/><path d="M442.5,244.7h-8.8v7.7h8.8v-7.7Zm-1.1,6.6h-6.5v-5.4h6.5v5.4Z" transform="translate(-346 -158.7)" fill="#00aeef"/><path d="M452.5,244.7h-8.8v7.7h8.8v-7.7Zm-1.1,6.6h-6.5v-5.4h6.5v5.4Z" transform="translate(-346 -158.7)" fill="#00aeef"/><path d="M392.7,253.6h-8.8v7.7h8.8v-7.7Zm-7.6,1.1h6.5v5.4h-6.5v-5.4Z" transform="translate(-346 -158.7)" fill="#00aeef"/><path d="M402.7,253.6h-8.8v7.7h8.8v-7.7Zm-1.1,6.6h-6.5v-5.4h6.5v5.4Z" transform="translate(-346 -158.7)" fill="#00aeef"/><rect x="57.9" y="94.9" width="8.8" height="7.71" fill="#00aeef"/><path d="M422.6,253.6h-8.8v7.7h8.8v-7.7Zm-1.1,6.6H415v-5.4h6.5v5.4Z" transform="translate(-346 -158.7)" fill="#00aeef"/><path d="M432.6,253.6h-8.8v7.7h8.8v-7.7Zm-1.1,6.6H425v-5.4h6.5v5.4Z" transform="translate(-346 -158.7)" fill="#00aeef"/><path d="M442.5,253.6h-8.8v7.7h8.8v-7.7Zm-1.1,6.6h-6.5v-5.4h6.5v5.4Z" transform="translate(-346 -158.7)" fill="#00aeef"/><path d="M452.5,253.6h-8.8v7.7h8.8v-7.7Zm-1.1,6.6h-6.5v-5.4h6.5v5.4Z" transform="translate(-346 -158.7)" fill="#00aeef"/><path d="M395.8,200.3l0.6-.6a2.7,2.7,0,0,0,.4-0.8,3.7,3.7,0,0,0,.1-1,3.2,3.2,0,0,0-.3-1.3,2.5,2.5,0,0,0-.7-1,3.3,3.3,0,0,0-1.2-.6l-1.6-.2h-3.8V205h2.1v-3.7h1.7L395,205h2.3l-2.2-4.2,0.8-.4m-1.2-1.7-0.3.5-0.5.3h-2.4v-3.1h1.7a1.7,1.7,0,0,1,1.3.4,1.5,1.5,0,0,1,.4,1.1,1.7,1.7,0,0,1-.1.6" transform="translate(-346 -158.7)" fill="#00aeef"/><polygon points="54.6 41.9 58.7 41.9 58.7 40.2 54.6 40.2 54.6 37.8 59.3 37.8 59.3 36.1 52.5 36.1 52.5 46.3 59.4 46.3 59.4 44.6 54.6 44.6 54.6 41.9" fill="#00aeef"/><path d="M409,196.7l0.5-.3H411l0.5,0.3,0.3,0.5a1.7,1.7,0,0,1,.1.6H414a3,3,0,0,0-.3-1.3,2.9,2.9,0,0,0-.8-1,3.5,3.5,0,0,0-1.2-.7l-1.5-.2-1.5.2-1.2.6a2.6,2.6,0,0,0-.8.9,2.5,2.5,0,0,0-.3,1.2,2.4,2.4,0,0,0,.3,1.2,3,3,0,0,0,.7.9l1.1,0.7,1.3,0.5,1,0.4,0.6,0.4,0.3,0.4a1.5,1.5,0,0,1,.1.5,1.1,1.1,0,0,1-.1.5l-0.3.4-0.5.2h-1.5l-0.6-.3-0.4-.5a1.9,1.9,0,0,1-.1-0.8h-2.1a3.2,3.2,0,0,0,.2,1.1l0.5,0.8,0.7,0.6,0.9,0.5,1,0.3h1l1.5-.2,1.2-.6a2.5,2.5,0,0,0,.7-0.9,2.6,2.6,0,0,0,.3-1.2,2.8,2.8,0,0,0-.2-1.1,2.7,2.7,0,0,0-.6-0.9l-1.1-.7-1.5-.6-1.5-.6a1,1,0,0,1-.5-0.8,1.1,1.1,0,0,1,.1-0.5l0.3-.4" transform="translate(-346 -158.7)" fill="#00aeef"/><polygon points="71.5 41.9 75.6 41.9 75.6 40.2 71.5 40.2 71.5 37.8 76.3 37.8 76.3 36.1 69.4 36.1 69.4 46.3 76.3 46.3 76.3 44.6 71.5 44.6 71.5 41.9" fill="#00aeef"/><path d="M430,200.3l0.6-.6a2.7,2.7,0,0,0,.4-0.8,3.7,3.7,0,0,0,.1-1,3.2,3.2,0,0,0-.3-1.3,2.5,2.5,0,0,0-.7-1,3.3,3.3,0,0,0-1.2-.6l-1.6-.2h-3.8V205h2.1v-3.7h1.7l1.9,3.7h2.3l-2.2-4.2,0.8-.4m-1.1-1.6-0.3.5-0.5.3h-2.4v-3.1h1.7a1.7,1.7,0,0,1,1.3.4,1.5,1.5,0,0,1,.4,1.1,1.8,1.8,0,0,1-.1.6" transform="translate(-346 -158.7)" fill="#00aeef"/><polygon points="90.3 43.8 88 36.1 85.7 36.1 89.2 46.3 91.4 46.3 95 36.1 92.7 36.1 90.3 43.8" fill="#00aeef"/><polygon points="98.1 41.9 102.1 41.9 102.1 40.2 98.1 40.2 98.1 37.8 102.8 37.8 102.8 36.1 96 36.1 96 46.3 102.8 46.3 102.8 44.6 98.1 44.6 98.1 41.9" fill="#00aeef"/><rect width="146.1" height="138.3" fill="none"/></svg>