<?xml version="1.0" encoding="utf-8"?>
<!-- Generator: Adobe Illustrator 19.2.1, SVG Export Plug-In . SVG Version: 6.00 Build 0)  -->
<svg version="1.1" id="Layer_1" xmlns="http://www.w3.org/2000/svg" xmlns:xlink="http://www.w3.org/1999/xlink" x="0px" y="0px"
	 viewBox="0 0 146.1 138.3" style="enable-background:new 0 0 146.1 138.3;" xml:space="preserve">
<style type="text/css">
	.st0{clip-path:url(#SVGID_2_);}
	.st1{fill:none;stroke:#DFF3FD;}
	.st2{clip-path:url(#SVGID_4_);}
	.st3{fill:#00AEEF;}
</style>
<title>business-solutions-5</title>
<g>
	<defs>
		<rect id="SVGID_1_" x="-639.8" y="-1872.1" width="985.7" height="3593.3"/>
	</defs>
	<clipPath id="SVGID_2_">
		<use xlink:href="#SVGID_1_"  style="overflow:visible;"/>
	</clipPath>
	<g class="st0">
		<rect x="-639.8" y="-183.5" class="st1" width="985.7" height="588.5"/>
	</g>
</g>
<g>
	<defs>
		<rect id="SVGID_3_" width="146.1" height="138.3"/>
	</defs>
	<clipPath id="SVGID_4_">
		<use xlink:href="#SVGID_3_"  style="overflow:visible;"/>
	</clipPath>
	<g class="st2">
		<path class="st3" d="M22.2,51.9h-5.6v-4.5c0-1.2,1.2-2,2.2-2.4h0.3c-0.7-1.1-1-2.4-1-3.7c0-2.2,0.9-3.7,2.3-3.9
			c0.5-0.3,1.2-0.5,1.8-0.5c1.5-0.1,2.9,0.7,3.5,2c0.7,2,0.5,4.3-0.6,6.1h0.4c1.2,0.2,2.1,1.2,2.2,2.4v4.5H22.2z M21.5,50.4h4.8
			v-3.1c-0.2-0.5-0.6-0.9-1.2-1l-0.8-0.2l-0.5-0.2l-0.7,0.8v-3.2l0.2-0.2l0.6-0.7l0.8-1.3c0-0.7-0.1-1.4-0.3-2
			c-0.4-0.8-1.3-1.2-2.2-1.1c-0.5,0-0.9,0.1-1.3,0.4h-0.3c-1.1,0.1-1.2,1.8-1.2,2.5v0.2l0.9,1.3l0.6,0.6l0.2,0.2v1.9h-0.6l-0.2,0.2
			L20,45.9l-1,0.3c-0.5,0.1-1,0.5-1.2,1v3.1h3.5L21.5,50.4z"/>
		<path class="st3" d="M41.4,68.4H30.2v-4.5c0-0.9,0.6-1.8,1.5-2.1l-0.2-0.4c-0.2-0.2-0.3-0.4-0.3-0.7c-0.1-0.4,0-0.9,0.2-1.3V59
			c0.1-0.1,0.1-0.2,0-0.3c-0.1-0.3-0.2-0.7-0.2-1c0-0.4,0.1-0.8,0.3-1.2l0,0c0-1.4,1.1-2.6,2.5-2.8c0.5-0.3,1.2-0.5,1.8-0.5
			c1.5-0.1,2.9,0.7,3.5,2l0.2,0.3c0.5,0.4,0.7,1.1,0.7,1.7c0,0.3,0,0.5,0.1,0.8l0.2,0.4c0.2,0.3,0.3,0.7,0.3,1.1
			c0,0.4-0.2,0.8-0.4,1.1c-0.2,0.2-0.2,0.5-0.1,0.7c0.1,0.3,0.1,0.5,0.1,0.8c0.4,0.3,0.7,0.7,0.8,1.2c0.1,0.2,0.1,0.3,0.1,0.5v4.5
			L41.4,68.4z M31.7,66.9H40v-3l0,0c-0.1-0.3-0.3-0.5-0.6-0.6L38.9,63l0.2-0.6c0.1-0.1,0.1-0.3,0-0.4c-0.3-0.7-0.2-1.4,0.2-2v-0.3
			c0-0.2-0.1-0.4-0.2-0.5l-0.3-0.6c-0.1-0.4-0.1-0.9-0.1-1.3c0-0.3-0.1-0.5-0.3-0.7L37.9,56c-0.4-0.8-1.3-1.2-2.2-1.1
			c-0.5,0-0.9,0.1-1.3,0.4l-0.3-0.6l0,0v0.7c-0.3,0-1.1,0.1-1.3,1.6c0,0.2,0,0.3-0.1,0.5c-0.1,0.2-0.2,0.4-0.2,0.6
			c0,0.2,0,0.3,0.1,0.5c0.2,0.3,0.2,0.7,0.1,1.1v0.5c-0.1,0.2-0.1,0.3-0.1,0.5h0.1c0.3,0.5,0.5,1,0.5,1.6v0.5L32.7,63
			c-0.5,0.1-0.9,0.4-1.1,0.9L31.7,66.9L31.7,66.9z"/>
		<path class="st3" d="M41.4,51.9H30.2v-4.5c0-1.2,1.2-2,2.2-2.4l0.5-0.2l0.2-0.3l0.3-0.3V44c-1-0.9-1.5-2.2-1.6-3.5
			c-0.1-1.8,0.7-3,2.2-3.3c0.6-0.5,1.3-0.8,2.1-0.8h0.3c1.4,0,2.7,0.7,3.3,1.9c0.7,1.9,0.3,4-1,5.5l0,0L38.5,44l0.3,0.3l0.2,0.3
			l0.6,0.2c1.1,0.2,2,1.2,2.1,2.3v4.5L41.4,51.9z M31.7,50.4H40v-3.1c-0.2-0.5-0.6-0.8-1.1-0.9L37.8,46l-0.2-0.4l-0.8,0.7v-2.8
			l0.2-0.2l0.4-0.4l0,0c0.9-1.1,1.2-2.6,0.8-3.9c-0.4-0.8-1.3-1.2-2.2-1.1h-0.7l0.4,0.4l-1.4,0.2c-0.6,0.1-1.3,0.4-1.2,1.8
			c0,0.6,0.2,1.2,0.5,1.7l0.7,0.8l0.4,0.4l0.2,0.2v2.1l-0.5-0.2h-0.2l-0.3,0.4l-1,0.3c-0.5,0.1-1,0.5-1.2,1v3.1L31.7,50.4z"/>
		<path class="st3" d="M68.7,51.9H57.5v-4.5c0-1.2,1.2-2,2.2-2.4l0,0c-0.2-0.1-0.4-0.3-0.5-0.5c-0.1-0.2-0.1-0.6,0-0.8
			c0.3-0.5,0.3-1.1,0-1.6C59.1,41.7,59,41.4,59,41c-0.1-1.9,0.8-3.3,2.4-3.5c0.5-0.3,1.1-0.5,1.7-0.6c1.6-0.1,3,0.8,3.6,2.3
			c0.4,0.9,0.4,1.9,0.2,2.8v0.7c-0.1,0.3-0.1,0.7,0,1l0.3,0.4L67,44.6c-0.1,0.2-0.3,0.4-0.5,0.5l0,0c1.1,0.4,2.2,1.2,2.2,2.4V52
			V51.9z M59,50.4h8.2v-3.1c-0.2-0.5-0.7-0.9-1.2-1L65,46l-0.2-0.4L64,46.3v-3.1h0.3l0.3-0.3l0,0l0.7,0.4c0-0.4,0-0.7,0.1-1.1v-0.7
			c0.2-0.7,0.1-1.4-0.2-2.1c-0.5-1.1-1.9-1.6-3.1-1.1c-0.1,0.1-0.2,0.1-0.3,0.2h-0.3c-0.9,0.1-1.3,0.8-1.3,2c0,0.3,0.1,0.5,0.2,0.8
			c0.2,0.6,0.3,1.3,0.2,1.9h0.1l0.3,0.3h0.1l0.5-0.5l0.2,0.2l1.1,1.1h-1.1v0.4l0,0v0.6l-0.6-0.2h-0.1l-0.2,0.4l-1,0.3
			c-0.5,0.1-1,0.5-1.2,1v3.1L59,50.4z"/>
		<path class="st3" d="M76.9,51.9h-5.6v-4.5c0.1-0.9,0.7-1.8,1.6-2.1c-0.1-1.1-0.1-3.2-0.1-4c0-2.7,1.6-4.5,3.9-4.1h0.7
			c1.4,0,2.7,0.9,3.1,2.3c0.4,1.9,0.5,3.9,0.2,5.8c1,0.3,1.6,1.2,1.7,2.2V52h-5.6L76.9,51.9z M76.2,50.4H81v-3.1
			c-0.2-0.5-0.6-0.8-1.1-0.9l-0.6-0.2l0.2-0.6h-0.3c0.3-1.9,0.3-3.9-0.1-5.8c-0.3-0.9-1.3-1.5-2.2-1.2h-0.8c-1.8,0-1.9,2.3-1.9,2.7
			s0.1,3.8,0.2,4.4v0.6l-0.6,0.2c-0.5,0.1-1,0.5-1.2,1v3.1h3.6V50.4z"/>
		<path class="st3" d="M55,51.9H43.8v-4.5c0.1-0.9,0.7-1.8,1.6-2.1c-0.1-1.1-0.1-3.2-0.1-4c0-2.7,1.6-4.5,3.9-4.1h0.7
			c1.4,0,2.7,0.9,3.1,2.3c0.4,1.9,0.5,3.9,0.2,5.8c1,0.3,1.6,1.2,1.7,2.2V52L55,51.9z M45.3,50.4h8.3v-3.1c-0.1-0.4-0.4-0.7-0.8-0.8
			l-1.2-0.4v-1.2h0.3c0.2-1.7,0.2-3.4-0.2-5.1c-0.2-0.8-0.9-1.3-1.7-1.3h-1.3c-1.8,0-1.9,2.3-1.9,2.7s0.1,3.8,0.2,4.4h-0.6l0.2,0.7
			h-0.1c-0.5,0.1-0.9,0.5-1.1,1v3.1L45.3,50.4z"/>
		<path class="st3" d="M55,68.4H43.8v-4.5c0-1.2,1.2-2,2.2-2.4l0.5-0.2l0,0l0.2-0.2h-0.1l-0.3-0.5c-1.1-1.9-1.5-4-0.9-5.3
			c0.4-0.9,1.3-1.5,2.3-1.6c0.5-0.3,1.2-0.5,1.8-0.5c1.5-0.1,3,0.6,3.7,2c0.7,1.7,0.4,3.7-0.6,5.2l-0.2,0.4h-0.3l0.2,0.2h0.6
			c1.2,0.2,2.1,1.2,2.2,2.4v4.5L55,68.4z M45.3,66.9h8.3v-3c-0.2-0.5-0.6-0.9-1.2-1l-0.8-0.2L51,62.5l-0.6,0.6v-1.6h-0.1l-0.9,0.2
			l1-1.2v-0.2l0.3-0.3h0.2l0.5,0.5l-0.2-0.7h0.3c0.6-1.1,0.7-2.3,0.3-3.5c-0.8-1.2-2.4-1.5-3.6-0.8h-0.3c-0.6,0-1.1,0.3-1.3,0.8
			c-0.3,1.2-0.1,2.5,0.6,3.5h0.5l-0.2,0.4l0.4-0.3l0.2,0.2l0.3,0.2v0.2l1.2,1.6l-1.2-0.5v0.5h-0.6l-0.2,0.2l-0.2,0.4l-1,0.3
			c-0.5,0.1-1,0.5-1.2,1v3.1L45.3,66.9z"/>
		<path class="st3" d="M68.7,68.4H57.5v-4.5c0-1.2,1.2-2,2.2-2.4H60l-0.5-0.4c-1-1-1.1-2.8-0.4-4.5s2.2-3,3.7-2.8
			c1.3-0.3,2.7,0.2,3.5,1.3c1,1.2,1.4,2.8,1.2,4.4c-0.1,0.8-0.5,1.6-1.2,2.1h0.2c1.1,0.4,2.2,1.2,2.2,2.4V68.4L68.7,68.4z M59,66.9
			h8.2v-3c-0.2-0.5-0.7-0.9-1.2-1l-1-0.3l-0.2-0.3L64,63.2v-3l0.3-0.2l0.2-0.2l0.7,0.6c0.5-0.2,0.9-0.7,0.9-1.3
			c0.1-1.1-0.2-2.3-0.9-3.2c-0.5-0.7-1.4-1-2.2-0.8l-0.2-0.7l0,0v0.7C61.8,55,61,56,60.5,57c-0.5,0.9-0.4,2,0.1,2.9l0.2,0.2v-0.2
			l0.3,0.3h0.1l0.5-0.5l0.3,0.2l0,0l0.8,1H62v0.4l0,0v0.6l-0.6-0.2h-0.2L61,62.1l-1,0.3c-0.5,0.1-1,0.5-1.2,1v3.1L59,66.9z
			 M62.1,54.3L62.1,54.3z"/>
		<path class="st3" d="M27.7,68.4H16.5v-4.5c0-1.2,1.2-2,2.2-2.4l0.5-0.2l0.3-0.4v-0.3l0,0c-0.9-1-1.5-2.2-1.6-3.5
			c-0.1-1.8,0.7-3,2.2-3.3c0.6-0.5,1.3-0.8,2.1-0.8h0.3c1.4,0,2.7,0.7,3.3,1.9c0.7,1.9,0.3,4-1,5.5l0,0l-0.2,0.3h0.1l0.4,0.5
			l0.5,0.2c1.1,0.4,2.2,1.2,2.2,2.4v4.5L27.7,68.4z M22.3,66.9h3.9v-3c-0.2-0.5-0.7-0.9-1.2-1l-0.9-0.3l-0.6-0.9l0.4,0.2v-0.7h-0.7
			v-1.1l0.3-0.2l0.4-0.4l0,0c0.9-1.1,1.2-2.6,0.8-3.9c-0.4-0.8-1.3-1.2-2.2-1.1h-0.8l0.3,0.4l-1.2,0.2c-0.6,0.1-1.3,0.4-1.2,1.8
			c0.1,0.7,0.3,1.3,0.7,1.9l0.5,0.6l0.4,0.4l0.3,0.2v2l-0.6-0.2l-0.4,0.6l-1,0.3c-0.5,0.1-1,0.5-1.2,1v3.1h3.1l-0.3-1L22.3,66.9z"/>
		<path class="st3" d="M82.5,68.4H71.3v-4.5c0.1-0.9,0.7-1.8,1.6-2.1c-0.1-0.7-0.2-3.1-0.2-4c0-2.7,1.6-4.5,3.9-4.1h0.7
			c1.4,0,2.7,0.9,3.1,2.3c0.5,1.9,0.6,3.9,0.2,5.8c1,0.3,1.6,1.2,1.7,2.2v4.5L82.5,68.4z M72.8,66.9h8.3v-3c-0.2-0.5-0.6-0.9-1.2-1
			l-2-0.6v-1.5h1.5c0.2-1.5,0.2-3-0.2-4.5C79,55.5,78.3,55,77.5,55h-1.3c-1.8,0-1.9,2.3-1.9,2.7s0,2.3,0.1,3.2H76v1.4l-2,0.6
			c-0.5,0.1-1,0.5-1.2,1L72.8,66.9L72.8,66.9z"/>
		<path class="st3" d="M68.7,101.7H57.5v-4.5c0-1.2,1.2-2,2.2-2.4H60l0.5-0.6c-0.2-0.3-0.4-0.6-0.6-1c-0.6-1.1-0.7-2.4-0.4-3.6
			c0.2-1,0.9-1.8,1.8-2.2c0.6-0.3,1.3-0.5,2-0.5c1.3-0.1,2.6,0.7,3.2,1.9c0.5,1.4,0.5,2.9-0.1,4.2c-0.2,0.4-0.4,0.8-0.7,1.2l0,0v0.2
			h0.1l0.2,0.2h0.4c1.2,0.2,2.1,1.2,2.2,2.4v4.5L68.7,101.7z M59,100.2h8.2v-3.1c-0.2-0.5-0.6-0.9-1.2-1l-0.9-0.3l-0.3-0.4v-0.2
			h-0.6v-1.8l0.2-0.2c0.3-0.3,0.5-0.6,0.6-0.9h0.1c0.4-0.9,0.4-2,0.1-2.9c-0.4-0.7-1.1-1.1-1.9-1.1c-0.5,0-0.9,0.1-1.3,0.3h-0.1
			c-0.5,0.2-0.8,0.6-0.9,1.1c-0.2,0.8-0.1,1.7,0.2,2.5l-0.3,0.3h0.3c0.1,0.3,0.3,0.6,0.5,0.9l0.2,0.2v1.8h-0.6l-0.2,0.3v0.2
			l-0.8,0.3c-0.5,0.1-1,0.5-1.2,1v3.1L59,100.2z"/>
		<path class="st3" d="M41.6,85.1H29.9v-4.5c0-1.4,1.9-2.2,2.4-2.4h0.3l0.2-0.4H33c-0.4-0.5-0.6-1.1-0.8-1.7c-0.5-0.9-0.7-2-0.4-3
			c0.3-1,1-1.8,2-2.1c0.6-0.3,1.3-0.5,2-0.5c1.4-0.1,2.8,0.7,3.4,2c0.5,1.9,0.1,3.8-1,5.4l0.2,0.2l0.2,0.3H39c0.7,0.2,2.4,1,2.4,2.4
			v4.5L41.6,85.1z M31.4,83.6h8.8v-3.1c-0.3-0.5-0.8-0.9-1.4-1l-0.9-0.3l-0.2-0.4l0,0l-0.2-0.2H37v-1.8l0.2-0.2
			c0.4-0.4,0.6-0.9,0.7-1.5v-0.2c0.3-0.7,0.3-1.5,0.1-2.3c-0.4-0.7-1.2-1.2-2.1-1.1c-0.5,0-0.9,0.1-1.3,0.3h-0.1
			c-0.5,0.1-1,0.6-1.1,1.1c-0.2,0.6-0.1,1.3,0.2,1.9l-0.4,0.3h0.5c0.1,0.5,0.4,1.1,0.7,1.5l0.2,0.2v1.8h-0.2v0.3h-0.5l-0.2,0.4
			l-0.9,0.3c-0.6,0.1-1.1,0.5-1.4,1v3.1L31.4,83.6z"/>
		<path class="st3" d="M28,101.7H16.3v-4.5c0-1.5,1.9-2.2,2.4-2.4H19l0.2-0.4h0.2c-0.4-0.5-0.6-1.1-0.8-1.7c-0.5-0.9-0.7-2-0.4-3
			c0.3-1,1-1.8,2-2.1c0.6-0.3,1.3-0.5,2-0.5c1.4-0.1,2.8,0.7,3.4,2c0.5,1.9,0.1,3.8-1,5.4l0.2,0.2l0.2,0.4h0.4
			c0.7,0.2,2.4,1,2.4,2.4v4.5L28,101.7z M17.8,100.2h8.8v-3.1c-0.3-0.5-0.8-0.9-1.4-1l-0.9-0.3l-0.2-0.4l0,0v-0.2h-0.5v-1.8l0.2-0.2
			c0.4-0.4,0.6-0.9,0.7-1.5v-0.2c0.3-0.7,0.3-1.5,0.1-2.3c-0.4-0.7-1.2-1.2-2.1-1.1c-0.5,0-0.9,0.1-1.3,0.3h-0.1
			c-0.5,0.1-1,0.6-1.1,1.1c-0.2,0.6-0.1,1.3,0.2,1.9l-0.4,0.3h0.5c0.1,0.5,0.4,1.1,0.7,1.5l0.2,0.2v1.8H21v0.3h-0.5l-0.3,0.3
			l-0.8,0.3c-0.6,0.1-1.1,0.5-1.4,1v3.1L17.8,100.2z"/>
		<path class="st3" d="M69,85.1H57.3v-4.5c0-1.4,1.9-2.2,2.4-2.4H60l0.2-0.4l0.2-0.2l0,0c-0.4-0.5-0.6-1.1-0.8-1.7
			c-0.5-0.9-0.7-2-0.4-3c0.3-1,1-1.8,2-2.1c0.6-0.3,1.3-0.5,2-0.5c1.4-0.1,2.8,0.7,3.4,2c0.5,1.9,0.1,3.8-1,5.4l0.2,0.2l0.2,0.3h0.4
			c0.7,0.2,2.4,1,2.4,2.4v4.5L69,85.1z M58.8,83.6h8.8v-3.1c-0.3-0.5-0.8-0.9-1.4-1l-0.9-0.3L65,78.7L64.3,79v-2.2l0.2-0.2
			c0.4-0.4,0.6-0.9,0.7-1.5v-0.2c0.3-0.7,0.3-1.5,0.1-2.3c-0.4-0.7-1.2-1.2-2.1-1.1c-0.5,0-0.9,0.1-1.3,0.3h-0.1
			c-0.5,0.1-1,0.6-1.1,1.1c-0.2,0.6-0.1,1.3,0.2,1.9l-0.4,0.3H61c0.1,0.5,0.4,1.1,0.7,1.5l0.2,0.2v1.8h-0.6L61,79.1h-0.1l-0.8,0.3
			c-0.6,0.1-1.1,0.5-1.4,1L58.8,83.6L58.8,83.6z M65,78.3l-0.2,0.2H65v-0.3V78.3z"/>
		<path class="st3" d="M82.7,101.7H71v-4.5c0-1.4,1.9-2.2,2.4-2.4h0.3l0.2-0.4l0.2-0.2l0,0c-0.4-0.5-0.6-1.1-0.8-1.7
			c-0.5-0.9-0.7-2-0.4-3c0.3-1,1-1.8,2-2.1c0.6-0.3,1.3-0.5,2-0.5c1.4-0.1,2.8,0.7,3.4,2c0.5,1.9,0.1,3.8-1,5.4l0.2,0.2l0.2,0.4h0.5
			c0.7,0.2,2.4,1,2.4,2.4v4.5L82.7,101.7z M72.5,100.2h8.7v-3.1c-0.3-0.5-0.8-0.9-1.4-1l-0.9-0.3l-0.2-0.4l0,0v-0.2h-0.5v-1.8
			l0.2-0.2c0.4-0.4,0.6-0.9,0.7-1.5v-0.2c0.3-0.7,0.3-1.5,0.1-2.3c-0.4-0.7-1.2-1.2-2.1-1.1c-0.5,0-0.9,0.1-1.3,0.3h-0.1
			c-0.5,0.1-1,0.6-1.1,1.1c-0.2,0.6-0.1,1.3,0.2,1.9l-0.4,0.3h0.5c0.1,0.5,0.4,1.1,0.7,1.5l0.2,0.2v1.8h-0.2v0.3h-0.5v0.3L74.9,96
			l-0.8,0.3c-0.6,0.1-1.1,0.5-1.4,1v3.1L72.5,100.2z"/>
		<path class="st3" d="M55.3,85.1H43.6v-4.5c0.1-1.2,1-2.2,2.2-2.4l0.6-0.2l0.2-0.2h0.2c-0.4-0.5-0.6-1.1-0.8-1.7
			c-0.6-0.9-0.7-2.1-0.4-3.1c0.3-1,1-1.7,2-2l0,0c0.6-0.3,1.2-0.4,1.9-0.4c1.4-0.1,2.8,0.7,3.4,2c0.4,1.1,0.4,2.4-0.1,3.5
			c-0.2,0.7-0.5,1.3-0.9,1.8l0,0l0.3,0.3h0.1l0.6,0.2c1.4,0.4,2.2,1.3,2.2,2.4v4.5L55.3,85.1z M45.1,83.6h8.8v-3.1
			c0-0.6-0.9-0.9-1.2-1l-1-0.3V79l-0.2-0.2l-0.2-0.2h-0.5v-1.8l0.2-0.2c0.4-0.4,0.6-0.9,0.7-1.5h0.4l-0.4-0.2
			c0.3-0.7,0.3-1.5,0.1-2.3c-0.4-0.7-1.2-1.2-2.1-1.1c-0.5,0-0.9,0.1-1.3,0.3h-0.2c-0.5,0.2-0.9,0.6-1.1,1.1
			c-0.2,0.6-0.1,1.3,0.2,1.9l-0.4,0.3h0.5c0.1,0.5,0.4,1.1,0.7,1.5l0.2,0.2v1.8h-0.5l-0.3,0.3l-0.3,0.3l-1,0.3
			c-0.3,0.1-1.2,0.4-1.2,1L45.1,83.6L45.1,83.6z"/>
		<path class="st3" d="M41.6,101.7H29.9v-4.5c0.1-1.2,1.1-2.3,2.3-2.4h0.6l0.2-0.3l0.2-0.2l0,0c-0.4-0.5-0.6-1-0.8-1.6
			c-0.5-1-0.6-2.1-0.3-3.1c0.3-1,1-1.7,1.9-2.1c0.6-0.3,1.3-0.5,2-0.5c1.3-0.1,2.6,0.7,3.2,1.9c0.6,1.2,0.6,2.7,0,3.9
			c-0.2,0.5-0.4,1.1-0.8,1.5h0.1l0.3,0.3h0.6c1.2,0.2,2.1,1.2,2.2,2.4v4.5V101.7z M31.4,100.2h8.8v-3.1c-0.2-0.5-0.6-0.8-1.1-0.9
			L38,95.9h-0.1l-0.4-0.5H37v-1.8l0.2-0.2c0.3-0.4,0.6-0.8,0.7-1.3h0.3l-0.3-0.2c0.4-0.8,0.4-1.8,0-2.6c-0.4-0.7-1.1-1.1-1.9-1.1
			c-0.5,0-0.9,0.1-1.3,0.3h-0.1c-0.5,0.2-0.9,0.6-1,1.1c-0.2,0.7-0.1,1.4,0.2,2h0.1c0.1,0.5,0.4,1,0.7,1.4l0.2,0.2V95h-0.5l-0.4,0.5
			h-0.4l-0.8,0.2c-0.5,0.1-1,0.5-1.1,1v3.1L31.4,100.2z"/>
		<path class="st3" d="M28,85.1H16.3v-4.5c0.1-1.2,1-2.2,2.2-2.4l0.7-0.2l0.4-0.4l0,0v-0.2c-0.4-0.5-0.6-1.1-0.8-1.7
			c-0.4-0.9-0.5-1.9-0.3-2.8v-0.2c0-0.2,0-0.4,0.1-0.6c0.1-0.2,0.2-0.4,0.3-0.5H19c0.1-0.2,0.3-0.4,0.5-0.6l0.6-0.3h0.2l0.6-0.3h2.3
			l0.5,0.3h0.4l0.5,0.3c0.2,0.2,0.4,0.4,0.5,0.6h0.1c0.2,0.2,0.4,0.4,0.5,0.7v0.5l0,0c0.2,1,0.1,2.1-0.3,3c-0.2,0.7-0.5,1.3-0.9,1.9
			l0,0l0.3,0.3h0.4l0.6,0.2c1.4,0.4,2.2,1.3,2.2,2.4V85.1L28,85.1z M17.8,83.6h8.8v-3.1c0-0.6-0.9-0.9-1.2-1l-1-0.3V79l-0.2-0.2
			L24,78.6h-0.5v-1.8l0.2-0.2c0.4-0.4,0.6-0.9,0.7-1.5h0.5l-0.4-0.2c0.3-0.7,0.3-1.4,0.2-2.1v-0.2l0,0l-0.2-0.2l-0.3-0.3v-0.2h-0.5
			l-0.4-0.2h-1.7l-0.4,0.2h-0.4l-0.2,0.2l-0.2,0.3l-0.2,0.2h-0.1v0.5c-0.1,0.6-0.1,1.2,0.1,1.8l-0.4,0.3h0.5
			c0.1,0.5,0.4,1.1,0.7,1.5l0.2,0.2v1.8h-0.5L20.4,79l-0.3,0.3l-1,0.3c-0.3,0.1-1.2,0.4-1.2,1v3.1L17.8,83.6z"/>
		<path class="st3" d="M55.2,101.7H43.5v-4.5c0.1-1.2,1-2.2,2.2-2.4l0.7-0.2l0.3-0.4l0,0c-0.4-0.5-0.6-1.2-0.8-1.8
			c-0.4-0.9-0.5-1.9-0.3-2.8v-0.2c0-0.2,0-0.4,0.1-0.6c0.1-0.2,0.2-0.4,0.3-0.5h0.1c0.1-0.2,0.3-0.4,0.5-0.6l0.6-0.3h0.2l0.6-0.3
			h2.3l0.5,0.3h0.4l0.5,0.3c0.2,0.2,0.4,0.4,0.5,0.6h0.1c0.2,0.2,0.4,0.4,0.5,0.7v0.5l0,0c0.2,1,0.1,2.1-0.3,3
			c-0.2,0.7-0.5,1.3-0.9,1.9l0,0l0.3,0.3H52l0.6,0.2c1.4,0.4,2.2,1.3,2.2,2.4v4.5L55.2,101.7z M45,100.2h8.8v-3.1
			c-0.2-0.5-0.6-0.9-1.2-1l-1-0.3v-0.2l-0.2-0.2l-0.2-0.2h-0.5v-1.8l0.2-0.2c0.4-0.4,0.6-0.9,0.7-1.5h0.5l-0.4-0.2
			c0.3-0.7,0.3-1.4,0.2-2.1v-0.2l0,0L51.7,89l-0.3-0.3v-0.2h-0.5l-0.4-0.2h-1.7l-0.4,0.2H48l-0.2,0.2L47.6,89l-0.2,0.2h-0.1v0.5
			c-0.1,0.6-0.1,1.2,0.1,1.8h0.1c0.1,0.5,0.4,1.1,0.7,1.5l0.2,0.2V95h-0.5l-0.3,0.3l-0.3,0.3l-1,0.3c-0.3,0.1-1.2,0.4-1.2,1v3.1
			L45,100.2z"/>
		<path class="st3" d="M82.7,85.1H71v-4.5c0.1-1.2,1-2.2,2.2-2.4l1-0.3v-0.5l-0.6-1c-0.6-1.1-0.8-2.3-0.5-3.5c0.2-1,0.8-1.8,1.7-2.2
			h0.3c0.5-0.3,1.1-0.4,1.7-0.4c1.3-0.1,2.6,0.7,3.2,1.9c0.5,1.4,0.5,3-0.2,4.3c-0.1,0.4-0.3,0.8-0.6,1.1V78l1,0.3
			c1.4,0.4,2.2,1.3,2.2,2.4v4.5L82.7,85.1z M72.5,83.6h8.8v-3.1c0-0.6-0.9-0.9-1.2-1L78,78.9v-2.1l0.2-0.2c0.3-0.3,0.5-0.6,0.6-0.9
			h0.4l-0.3-0.2c0.4-0.9,0.4-2,0.1-2.9c-0.4-0.7-1.1-1.1-1.9-1.1l-1.2,0.3h-0.3c-0.5,0.2-0.8,0.6-0.9,1.1c-0.2,0.8-0.1,1.6,0.2,2.4
			l-0.5,0.4l0.6-0.2c0.1,0.3,0.3,0.6,0.5,0.9l0.2,0.2v2.1l-0.5,0.2h-0.4l-1.2,0.3c-0.3,0.1-1.2,0.4-1.2,1v3.1L72.5,83.6z"/>
		<path class="st3" d="M115.8,51.6h-10.5v-4.2c0-1,1-1.7,1.9-2l0.6-0.2l0.2-0.3c-0.4,0-0.8-0.2-1.1-0.5c-0.1-0.1-0.1-0.4,0-0.5
			c0.3-0.6,0.3-1.3,0-1.9c-0.1-0.3-0.2-0.7-0.2-1c-0.1-1.8,0.7-3,2.2-3.2c0.5-0.3,1-0.5,1.6-0.5c1.4-0.1,2.7,0.7,3.3,2
			c0.4,0.9,0.4,1.8,0.2,2.7v0.7c-0.1,0.4-0.1,0.9,0.1,1.3l0.2,0.2v0.3c-0.3,0.3-0.6,0.5-1,0.5l0.2,0.3l0.6,0.2c1,0.2,1.7,1,1.9,2
			v4.2L115.8,51.6z M106.1,50.9h9v-3.5c-0.2-0.7-0.7-1.1-1.4-1.3l-0.8-0.3l-0.3-0.5h-0.2l-0.4,0.3v-1.8h0.1l0.4-0.4l0,0l0.6,0.4l0,0
			l-0.3-0.2l0.3,0.2l0,0l-0.4,0.4h0.7c-0.2-0.5-0.2-1.1-0.1-1.6v-0.7c0.2-0.8,0.1-1.6-0.2-2.3c-0.6-1.3-2.1-1.9-3.4-1.4
			c-0.2,0.1-0.3,0.2-0.5,0.3H109c-1.1,0.1-1.7,1-1.6,2.4c0,0.3,0.1,0.6,0.2,0.9c0.3,0.7,0.3,1.6,0,2.3h0.8v-0.2c0-0.1,0-0.2,0.1-0.3
			l0.2,0.2l0.3-0.3h0.2l0.4,0.5h-0.4v0.9h-0.5l-0.3,0.5l-0.9,0.3c-0.7,0.2-1.2,0.6-1.4,1.3v3.5V50.9z"/>
		<path class="st3" d="M124.4,51.5h-5.3v-4.2c0.1-0.9,0.8-1.7,1.7-1.9c-0.1-1-0.2-3.4-0.2-4.2s0.9-3.8,3-3.8h1.3
			c1.3,0,2.4,0.9,2.8,2.1c0.4,2,0.5,4,0.2,6c0.9,0.2,1.7,1,1.8,1.9v4.2L124.4,51.5L124.4,51.5z M124,50.8h4.8v-3.5
			c-0.2-0.7-0.7-1.2-1.4-1.3l-0.5-0.2l0.2-0.7l0,0c0.3-1.8,0.3-3.7-0.1-5.5c-0.3-0.9-1.1-1.6-2.1-1.6h-1.3c-1.7,0-2.3,1.7-2.3,3.1
			s0.1,3.8,0.2,4.4v0.3h-0.3c-0.7,0.1-1.2,0.6-1.4,1.3v3.5h4.2L124,50.8z"/>
		<path class="st3" d="M102.1,51.5H91.7v-4.2c0.1-0.9,0.8-1.7,1.7-1.9c-0.1-1-0.2-3.4-0.2-4.2s0.9-3.8,3-3.8h1.3
			c1.3,0,2.4,0.9,2.8,2.1c0.4,2,0.5,4,0.2,6c0.9,0.2,1.7,1,1.8,1.9v4.2L102.1,51.5z M92.4,50.8h9v-3.5c-0.1-0.6-0.5-1-1.1-1.2l0,0
			l-0.8-0.3v-0.6h0.2c0.3-1.9,0.3-3.8-0.1-5.6c-0.3-0.9-1.1-1.6-2.1-1.6h-1.3c-1.7,0-2.3,1.7-2.3,3.1s0.1,3.8,0.2,4.4h-0.3v0.3
			c-0.7,0.1-1.2,0.6-1.4,1.3v3.5V50.8z"/>
		<path class="st3" d="M102.1,68.1H91.7v-4.2c0-1,1-1.7,1.9-2l0.6-0.2h0.1l0.3-0.4h0.3V61h-0.7v-0.2c-1.3-2.1-1.3-4-0.9-4.9
			c0.4-0.8,1.2-1.4,2.1-1.4c0.5-0.3,1.1-0.5,1.7-0.5c1.4-0.1,2.7,0.6,3.4,1.8c0.9,2-0.1,4.1-0.6,4.9v0.2h-0.7v0.3l0,0l0.2,0.2
			l0.2,0.2l0,0l0.2,0.2h0.1l0.6,0.2c1,0.2,1.8,1,1.9,2v4.2L102.1,68.1z M92.4,67.4h9v-3.5c-0.2-0.7-0.7-1.2-1.4-1.3l-1.2-0.4V62l0,0
			l-0.2-0.3l-0.4,0.4v-1.3h-0.3l0.3-0.4l0,0l0.2-0.2l0.2-0.2l0.2,0.2v-0.3h0.4c0.7-1.2,0.9-2.7,0.4-4c-0.9-1.4-2.7-1.8-4.1-1h-0.1
			c-0.7,0-1.3,0.4-1.6,1c-0.4,0.7-0.2,2.3,0.7,4H95v0.2h0.2l0.2,0.2h0.1V61h-0.1v0.7h-0.2l-0.3,0.4l-0.2,0.3l-0.9,0.3
			c-0.7,0.1-1.2,0.6-1.4,1.3L92.4,67.4L92.4,67.4z"/>
		<path class="st3" d="M115.8,68.1h-10.5v-4.2c0-1,1-1.7,1.9-2l0.6-0.2l0.2-0.3c-0.3-0.1-0.6-0.3-0.9-0.6c-0.9-0.9-1-2.5-0.3-4.1
			s1.8-2.8,3.4-2.6c1.2-0.3,2.5,0.2,3.2,1.2c0.9,1.1,1.4,2.6,1.2,4.1c-0.1,0.9-0.6,1.7-1.5,2.1l0.2,0.3l0.6,0.2c1,0.2,1.7,1,1.9,2
			L115.8,68.1L115.8,68.1z M106.1,67.4h9v-3.5c-0.2-0.7-0.7-1.1-1.4-1.3l-0.8-0.3l-0.3-0.5h-0.2v-0.2h0.1v-0.2h-0.3v-0.2h-0.3v-0.9
			h0.1l0.2-0.2l0.5,0.5l-0.2,0.2c0.5,0,1.1-0.4,1.3-1.6c0.2-1.3-0.2-2.5-1-3.5c-0.5-0.6-1.2-1-2-1h-0.6v-0.3l0,0v0.4
			c-1-0.2-2.1,0.7-2.7,2.2s-0.6,2.6,0.2,3.3c0.2,0.2,0.5,0.4,0.8,0.5l0,0c0-0.1,0-0.2,0.1-0.3l0.2,0.2l0.3-0.3h0.1l0.4,0.5h-0.4v0.9
			h-0.5l-0.3,0.5l-0.9,0.3c-0.7,0.1-1.2,0.6-1.4,1.3V67.4z"/>
		<path class="st3" d="M129.6,68.1h-10.4v-4.2c0.1-0.9,0.8-1.7,1.7-1.9v-0.3c-0.1-0.7-0.1-3-0.1-4s0.9-3.8,3-3.8h1.3
			c1.3,0,2.4,0.9,2.8,2.1c0.5,1.9,0.5,3.8,0.2,5.7v0.2c0.9,0.2,1.7,1,1.8,1.9V68L129.6,68.1z M119.9,67.4h9v-3.5
			c-0.2-0.7-0.7-1.2-1.4-1.3l-1.7-0.5v-0.9h1.4c0.3-1.7,0.2-3.4-0.2-5.1c-0.3-0.9-1.1-1.6-2.1-1.6h-1.3c-1.7,0-2.3,1.7-2.3,3.1
			s0.1,2.7,0.1,3.6h1.5v0.7l-1.7,0.6c-0.7,0.1-1.2,0.6-1.4,1.3v3.5L119.9,67.4z"/>
		<path class="st3" d="M115.8,101.3h-10.5v-4.2c0-1,1-1.7,1.9-2l0.5-0.2h0.1l0.2-0.3v-0.2h0.2v-0.5c-0.3-0.3-0.5-0.7-0.6-1.1
			c-0.5-1-0.7-2.2-0.4-3.3c0.2-0.9,0.8-1.6,1.6-1.9c0.6-0.3,1.2-0.4,1.8-0.4c1.2-0.1,2.4,0.6,2.9,1.7c0.5,1.3,0.5,2.7-0.1,3.9
			c-0.2,0.4-0.4,0.8-0.7,1.2v0.4l0.2,0.2h0.3l0.2,0.2h0.5c1,0.2,1.8,1,1.9,2v4.2L115.8,101.3z M106.1,100.6h9v-3.5
			c-0.2-0.7-0.7-1.2-1.4-1.3l-0.7-0.2l-0.2-0.3l-0.2-0.3h-0.4v-1.3h0c0.3-0.3,0.6-0.7,0.7-1.1l0,0c0.5-1,0.5-2.2,0.1-3.3
			c-0.4-0.8-1.3-1.3-2.2-1.3c-0.5,0-1,0.1-1.5,0.4c-0.6,0.2-1.1,0.8-1.2,1.4c-0.2,0.9-0.1,1.9,0.3,2.7h0.1c0.1,0.4,0.3,0.7,0.6,1
			h0.1v1.3h-0.4l-0.2,0.3l-0.2,0.3h-0.2l-0.7,0.2c-0.7,0.1-1.2,0.6-1.4,1.3v3.5V100.6z"/>
		<path class="st3" d="M116.1,84.8h-11v-4.2c0-1,1.1-1.7,2.2-2l0.5-0.2l0.3-0.4l0.3-0.3v-0.4c-0.4-0.5-0.6-1.1-0.8-1.7
			c-0.5-0.9-0.6-1.9-0.3-2.8c0.2-0.9,0.9-1.6,1.8-1.8c0.6-0.3,1.2-0.4,1.8-0.4c1.3-0.1,2.5,0.6,3.1,1.8c0.4,1,0.3,2.2-0.1,3.2
			c-0.1,0.7-0.4,1.4-0.9,1.9v0.4l0.3,0.2l0.3,0.4l0.5,0.2c0.5,0.2,2.2,0.8,2.2,2v4.2L116.1,84.8z M105.9,84.1h9.5v-3.5
			c0-0.5-0.9-1-1.7-1.3l-0.7-0.2l-0.3-0.5h-0.5v-1.3l0,0c0.4-0.5,0.7-1.1,0.8-1.7l0,0c0.3-0.8,0.4-1.7,0.1-2.6
			c-0.5-0.9-1.4-1.4-2.4-1.3c-0.5,0-1,0.1-1.5,0.4c-0.7,0.2-1.2,0.7-1.4,1.4c-0.2,0.7-0.2,1.5,0.2,2.2l-0.2,0.2h0.4
			c0.1,0.6,0.4,1.1,0.8,1.6h0.1v1.3h-0.5l-0.4,0.6h0l-0.6,0.2c-0.8,0.3-1.7,0.8-1.7,1.3v3.5V84.1z"/>
		<path class="st3" d="M129.8,101.3h-11v-4.2c0-1,1.1-1.7,2.2-2l0.5-0.2l0.3-0.4l0.3-0.3v-0.3c-0.4-0.5-0.6-1.1-0.8-1.7
			c-0.5-0.9-0.6-1.9-0.3-2.8c0.2-0.9,0.9-1.6,1.8-1.8c0.6-0.3,1.2-0.4,1.8-0.4c1.3-0.1,2.5,0.6,3.1,1.8c0.4,1,0.3,2.2-0.1,3.2
			c-0.1,0.7-0.4,1.4-0.9,1.9v0.4l0.3,0.2l0.3,0.4l0.5,0.2c0.5,0.2,2.2,0.8,2.2,2v4.2L129.8,101.3z M119.6,100.6h9.5v-3.5
			c0-0.5-0.9-1-1.7-1.3l-0.7-0.2l-0.3-0.5h-0.5v-1.3h0.1c0.4-0.5,0.7-1.1,0.8-1.7l0,0c0.3-0.8,0.4-1.7,0.1-2.6
			c-0.5-0.9-1.4-1.4-2.4-1.3c-0.5,0-1,0.1-1.5,0.4c-0.7,0.2-1.2,0.7-1.4,1.4c-0.2,0.7-0.2,1.5,0.2,2.2l-0.2,0.2h0.3
			c0.1,0.6,0.4,1.1,0.8,1.6h0.1v1.3h-0.2v0.2h-0.3l-0.2,0.4l-0.3,0.2l-0.5,0.2c-0.8,0.3-1.7,0.8-1.7,1.3v3.5L119.6,100.6z"/>
		<path class="st3" d="M102.4,84.8h-11v-4.2c0-0.9,0.7-1.7,2-2l0.7-0.2h0.1l0.4-0.4h0.1v-0.4c-0.4-0.5-0.6-1.1-0.8-1.7
			c-0.5-0.8-0.7-1.9-0.4-2.8c0.3-0.9,0.9-1.5,1.8-1.8c0.6-0.3,1.2-0.4,1.8-0.4c1.3-0.1,2.5,0.6,3.1,1.7c0.4,1,0.3,2.2-0.1,3.2
			c-0.1,0.7-0.5,1.3-0.9,1.8V78h0l0.3,0.3l0.2,0.2l0.7,0.2c1.2,0.4,1.9,1.1,1.9,2L102.4,84.8L102.4,84.8z M92.2,84.1h9.5v-3.5
			c0-0.8-1-1.2-1.4-1.3L99.4,79h-0.2L99,78.8l-0.3-0.3h-0.3v-1.3h0.1c0.4-0.5,0.7-1.1,0.8-1.7l0,0c0.3-0.8,0.4-1.7,0.1-2.6
			C98.9,72,98,71.5,97,71.6c-0.5,0-1,0.1-1.4,0.3h-0.2c-0.7,0.2-1.2,0.7-1.4,1.3c-0.2,0.7-0.1,1.5,0.3,2.2h0.1
			c0.1,0.6,0.4,1.1,0.8,1.6h0.1v1.3H95l-0.4,0.4l-0.2,0.2l-0.9,0.3c-0.4,0.1-1.4,0.5-1.4,1.3V84L92.2,84.1z"/>
		<path class="st3" d="M102.3,101.3h-11v-4.2c0-0.9,0.7-1.7,2-2l0.7-0.2h0.2l0.4-0.4h0.1v-0.6c-0.4-0.5-0.7-1.1-0.9-1.8
			c-0.4-0.8-0.5-1.7-0.3-2.6v-0.2c0-0.2,0-0.3,0.1-0.5l0.3-0.4H94v-0.2c0.1-0.2,0.2-0.4,0.4-0.5l0.5-0.2h0.4l0.5-0.3h2.1l0.4,0.2
			h0.5l0.4,0.2l0.4,0.4h0.2c0.2,0.2,0.3,0.4,0.4,0.6V89l0,0c0.2,0.9,0.1,1.9-0.2,2.8c-0.1,0.7-0.4,1.4-0.9,1.9v0.4h0.1l0.3,0.4
			l0.2,0.2l0.7,0.2c1.2,0.4,1.9,1.1,1.9,2v4.2L102.3,101.3z M92.1,100.6h9.5v-3.5c0-0.8-1-1.2-1.4-1.3l-0.9-0.3h-0.1L99,95.3
			L98.7,95h-0.3v-1.3h0.1c0.4-0.5,0.7-1.1,0.8-1.7l0,0c0.3-0.7,0.3-1.5,0.2-2.3v-0.4L99.3,89l-0.2-0.3v-0.2l-0.2-0.2h-0.7l-0.4-0.2
			h-1.9l-0.3,0.2l-0.3,0.2h-0.5l-0.2,0.3l-0.2,0.3l-0.2,0.2v0.8c-0.1,0.7-0.1,1.4,0.2,2h0.1c0.1,0.6,0.4,1.2,0.8,1.7h0.1v1.3h-0.3
			l-0.4,0.4l-0.2,0.2L93.6,96c-0.4,0.1-1.4,0.5-1.4,1.3v3.5L92.1,100.6z"/>
		<path class="st3" d="M129.9,84.8h-11v-4.2c0-0.9,0.7-1.7,2-2l1.1-0.3h0.1v-0.9c-0.2-0.3-0.4-0.6-0.6-1c-0.5-1-0.6-2.1-0.4-3.2
			c0.1-0.9,0.7-1.6,1.5-2h0.3c0.5-0.2,1-0.4,1.6-0.4c1.2-0.1,2.4,0.6,2.9,1.7c0.5,1.3,0.4,2.8-0.2,4l0,0c-0.2,0.4-0.4,0.8-0.7,1.1
			v0.8l1.3,0.4c1.2,0.4,1.9,1.1,1.9,2V85L129.9,84.8z M119.7,84.1h9.5v-3.5c0-0.8-1-1.2-1.4-1.3l-1.8-0.5v-1.6h0.1
			c0.3-0.3,0.5-0.7,0.6-1.1l0,0c0.5-1,0.5-2.2,0.1-3.3c-0.4-0.8-1.3-1.3-2.2-1.3c-0.4,0-0.9,0.1-1.3,0.3H123c-0.6,0.3-1,0.8-1.1,1.5
			c-0.2,0.9-0.1,1.8,0.3,2.6h0c0.1,0.4,0.3,0.7,0.6,1h0.1v1.7h-0.7l-1.2,0.3c-0.4,0.1-1.4,0.5-1.4,1.3v3.5L119.7,84.1z"/>
		<polygon class="st3" points="87.6,70.1 90,70.1 90,71.8 87.6,71.8 87.6,74.5 85.8,74.5 85.8,71.8 83.5,71.8 83.5,70.1 85.8,70.1 
			85.8,67.6 87.6,67.6 		"/>
	</g>
</g>
</svg>
