<?xml version="1.0" encoding="utf-8"?>
<!-- Generator: Adobe Illustrator 19.2.1, SVG Export Plug-In . SVG Version: 6.00 Build 0)  -->
<svg version="1.1" id="Layer_1" xmlns="http://www.w3.org/2000/svg" xmlns:xlink="http://www.w3.org/1999/xlink" x="0px" y="0px"
	 viewBox="0 0 146.1 138.3" style="enable-background:new 0 0 146.1 138.3;" xml:space="preserve">
<style type="text/css">
	.st0{clip-path:url(#SVGID_2_);}
	.st1{fill:none;stroke:#DFF3FD;}
	.st2{clip-path:url(#SVGID_4_);}
	.st3{fill:#00AEEF;}
</style>
<title>business-solutions-6</title>
<g>
	<defs>
		<rect id="SVGID_1_" x="-785.3" y="-1872.1" width="985.7" height="3593.3"/>
	</defs>
	<clipPath id="SVGID_2_">
		<use xlink:href="#SVGID_1_"  style="overflow:visible;"/>
	</clipPath>
	<g class="st0">
		<rect x="-785.3" y="-183.5" class="st1" width="985.7" height="588.5"/>
	</g>
</g>
<g>
	<defs>
		<rect id="SVGID_3_" width="146.1" height="138.3"/>
	</defs>
	<clipPath id="SVGID_4_">
		<use xlink:href="#SVGID_3_"  style="overflow:visible;"/>
	</clipPath>
	<g class="st2">
		<path class="st3" d="M111.8,73.4L111.8,73.4l-0.5-0.9l0,0L95.5,45.2h-45l-0.2,0.3L34.1,73.4h0.1c1,1.1,15.7,15.8,32.5,0l0,0
			l-0.3-0.6l-0.2-0.3l0,0L51,46.2h20.9c0,0.1-0.2,2.1-2.8,32.8c-0.2,4.3-2.1,17.3-3.6,17.7H49.1c-1.2,0-2.2,1-2.2,2.2
			c0,1.2,1,2.2,2.2,2.2h48.3c1.2,0,2.2-1,2.2-2.2c0-1.2-1-2.2-2.2-2.2h-17C78.9,96.3,77,83.2,76.8,79c-2.6-30.8-2.7-32.7-2.8-32.8
			h20.8L79.6,72.5l-0.5,0.9l0,0C96,89.2,110.7,74.5,111.8,73.4L111.8,73.4 M65.2,72.5H35.9l14.6-25.3L65.2,72.5z M80.7,72.5
			l14.7-25.3l14.7,25.3H80.7"/>
	</g>
</g>
</svg>
