<?xml version="1.0" encoding="utf-8"?>
<!-- Generator: Adobe Illustrator 19.2.1, SVG Export Plug-In . SVG Version: 6.00 Build 0)  -->
<svg version="1.1" id="Layer_1" xmlns="http://www.w3.org/2000/svg" xmlns:xlink="http://www.w3.org/1999/xlink" x="0px" y="0px"
	 viewBox="0 0 146.1 138.3" style="enable-background:new 0 0 146.1 138.3;" xml:space="preserve">
<style type="text/css">
	.st0{fill:none;}
	.st1{fill:none;stroke:#DFF3FD;}
	.st2{fill:#00ADEE;}
</style>
<title>business-solutions-2</title>
<rect x="-201.4" y="-1872.1" class="st0" width="985.7" height="3593.3"/>
<g>
	<rect x="-201.4" y="-183.5" class="st1" width="985.7" height="588.5"/>
</g>
<path class="st2" d="M63.4,35.9v-4h-5v4c-11.6,1.2-21,10.4-22.3,22h-3.7v5H36c1,11.9,10.5,21.4,22.4,22.6v3.4h5v-3.4
	c11.9-1.2,21.3-10.7,22.4-22.6h3.7v-5h-3.7C84.4,46.3,75,37,63.4,35.9z M87.8,61.3h-3.6l0,0.8c-0.7,11.7-10,21.1-21.6,21.9L61.7,84
	v3.3H60V84L59.2,84c-11.7-0.8-21-10.2-21.6-21.9l0-0.8H34v-1.7h3.6l0.1-0.8c0.9-11.4,10.2-20.5,21.6-21.3l0.8-0.1v-3.9h1.7v3.9
	l0.8,0.1c11.4,0.8,20.7,10,21.6,21.3l0.1,0.8h3.6V61.3z"/>
<path class="st2" d="M71,62c-0.6,4.5-4.1,8.1-8.6,8.8l-0.7,0.1v8.2l0.9-0.1c8.9-0.9,15.9-8,16.6-16.9l0.1-0.9h-8.2L71,62z
	 M77.5,62.9c-1,7.4-6.7,13.3-14.1,14.4v-5c4.6-1,8.3-4.7,9.2-9.4H77.5z"/>
<path class="st2" d="M70.9,58.9l0.1,0.7h8.2l-0.1-0.9c-1-8.6-7.9-15.4-16.5-16.3l-0.9-0.1v8.2l0.7,0.1
	C66.7,51.3,70.2,54.6,70.9,58.9z M63.4,44.1c7.1,1.1,12.8,6.7,14,13.8h-5c-1.1-4.4-4.6-7.8-9-8.8V44.1z"/>
<path class="st2" d="M42.6,58.6l-0.1,0.9h8.2l0.1-0.7c0.8-4.3,4.2-7.6,8.5-8.3l0.7-0.1v-8.2l-0.9,0.1C50.5,43.2,43.5,50,42.6,58.6z
	 M58.4,49.1c-4.4,1-8,4.4-9,8.8h-5c1.2-7.1,6.9-12.7,14-13.8V49.1z"/>
<path class="st2" d="M50.7,62l-0.1-0.7h-8.2l0.1,0.9c0.7,8.9,7.7,16,16.6,16.9l0.9,0.1v-8.2l-0.7-0.1C54.8,70.1,51.3,66.5,50.7,62z
	 M58.4,77.3c-7.4-1.1-13.1-7-14.1-14.4h4.9c0.9,4.7,4.5,8.4,9.2,9.4V77.3z"/>
<path class="st2" d="M128.3,106.8l-6.6-13.3c-0.6-1.2-2.1-2.4-3.5-2.6l-12-2.4c-0.9-0.2-1.8,0.1-2.5,0.6v0l0,0l0,0l0,0l-0.1-0.1l0,0
	l0.4-0.4l0,0l0.1-0.1l-0.8,0.1l-0.1-0.1l0,0l0,0l-0.1-0.1l0,0L103,88l0.5-0.5l-0.8,0.1l0,0l0,0l-0.1-0.1l0,0l-0.1-0.1l0,0l-0.1-0.1
	l0.4-0.4l0,0l0.1-0.1l-0.8,0.1l0,0l0,0l-0.1-0.1l-0.1-0.1l0,0l0,0l-0.1-0.1l0.4-0.4l0,0l0.1-0.1l-0.8,0.1l0,0l0,0l-0.1-0.2l0,0
	l0-0.1l0,0l-0.1-0.1l0.5-0.5l-0.8,0.1l0,0l0,0l-0.1-0.1l0,0l0-0.1l0,0l0-0.1l0,0l-0.1-0.1l0.5-0.5l-0.8,0.1l-0.1-0.1l0,0l0,0l0-0.1
	l0,0l-0.1-0.1l0.4-0.4l0,0l0.1-0.1l-0.8,0.1l0,0l0-0.1c0,0,0,0,0,0l0-0.1l0,0c0,0,0,0,0-0.1l0-0.1c0,0,0,0,0,0l0-0.1l0,0l0.3-0.2
	l-0.2-0.2l0.1-0.1l-0.2,0v0c0,0,0,0,0,0l0,0c0,0,0,0,0,0v-0.1c0,0,0,0,0,0l0,0c0,0,0,0,0,0l0,0l0,0l0-0.4c0,0,0,0,0,0v-0.1l0.3-0.2
	l-0.3-0.2c0,0,0,0,0,0l0,0c0,0,0,0,0,0l0-0.1l0,0l0-0.1c0,0,0,0,0,0l0,0l0-0.1c0,0,0,0,0,0l0,0l0-0.2l0,0l0-0.1c0,0,0,0,0,0l0-0.1
	c0,0,0,0,0,0l0-0.1v0l0.3-0.2l-0.3-0.2l0-0.1c0,0,0,0,0,0l0-0.1c0,0,0,0,0,0l0-0.1c0,0,0,0,0,0l0-0.1c0,0,0,0,0,0l0,0c0,0,0,0,0,0
	l0-0.1l0,0l0-0.1c0,0,0,0,0,0l0,0l0,0l0-0.1l0.4-0.2l-0.4-0.2l0,0c0,0,0,0,0,0l0,0l0-0.2l0,0l0,0l0,0l0-0.1l0,0l0-0.1l0,0l0,0l0-0.1
	c0,0,0,0,0,0l0,0l0,0l0,0l0,0l0,0c0,0,0,0,0,0l0,0l0-0.1l0.4-0.3l-0.6-0.1l0,0l0,0l0-0.1l0,0l0-0.1l0-0.1c0,0,0,0,0,0l0,0l0,0
	l-0.1-0.1l0,0l0,0l0-0.1l0,0l0.5-0.5l-0.8,0.1l0,0l0,0l-0.1-0.1l0,0L99,76.7l0,0l-0.1-0.1l0,0l-0.1,0v0l0,0l0,0l0.5-0.8l-1.1,0.5
	l-0.2,0l0,0h0l0,0l0,0l0,0c2.1-4.9,3.3-10.3,3.3-16c0-22.3-18.1-40.4-40.4-40.4c-22.3,0-40.4,18.1-40.4,40.4
	c0,22.3,18.1,40.4,40.4,40.4c14.5,0,27.2-7.7,34.4-19.2l0.7-0.2h0l0.1,0l0.1,0.1l0,0l0,0l0,0l0,0l0.1,0.1l-0.4,0.5l0,0L95.8,82
	l0.8-0.2h0l0,0l0,0l0,0l0,0l0.1,0.1l0,0l0.1,0.1l-0.4,0.5l0,0l-0.1,0.1l0.8-0.2h0.1l0,0l0,0l0.1,0.1l0,0l0.2,0.1L97.3,83l0,0
	l-0.2,0.2l0.8-0.1l0,0l0,0l0.1,0.1l0,0l0,0l0,0l0,0l0,0l0.1,0.1l0,0l-0.5,0.5l0.8-0.1l0,0l0,0l0,0l0.1,0.1l0,0l0,0.1v0l0,0l0,0l0,0
	l-0.1,0l0,0l-0.2,0.1l0.2,0.2l-0.1,0.1l0,0l-0.2,0.2l0.4,0l0,0c0,0,0,0,0,0l0,0c0,0,0,0,0,0l0,0.1c0,0,0,0,0,0l0,0.1c0,0,0,0,0,0
	l0,0.1c0,0,0,0,0,0l0,0l-0.1,0l0,0.1l0,0l0,0.2l0,0l0,0l-0.3,0.2l0.4,0.2c0,0,0,0,0,0c0,0,0,0,0,0.1l0,0.1c0,0,0,0,0,0l0,0
	c0,0,0,0,0,0l0,0.1c0,0,0,0,0,0l0,0.1c0,0,0,0,0,0l0,0.1l0,0l0,0.2c0,0,0,0,0,0l0,0c0,0,0,0,0,0l0,0l0,0l-0.3,0.2l0,0l-0.1,0
	l0.4,0.2l0,0.1l0,0l0,0.1l0,0l0,0l0,0l0,0.1l0,0l0,0.1l0,0l0,0.1l0,0.1l0,0l0,0l0,0l-0.4,0.4l0,0L98.5,88l0.7,0l0,0l0,0.1l0,0l0,0
	l0,0.1h0l0,0.1l0,0l0,0l0,0l0,0l0,0l0,0.1h0h0l-0.6,0.6l1-0.2l0,0l0,0l0,0.1l0.1,0.1l0,0l0.1,0.1l0,0l0,0l0,0h0l0,0L99.6,90l1-0.4v0
	l0.1,0l0,0l0.1,0.1l0,0l0.1,0v0l0,0l-0.5,0.7l1.1-0.5l0.1,0l0.1,0v0l0.1,0v0l0.1,0l-0.1,0.2h0l-0.3,0.5l1.1-0.5l0.1,0v0l0,0
	l-5.3,10.8c-0.6,1.2-0.6,3.1,0,4.3l6.6,13.3c0.4,0.9,1.4,1.5,2.4,1.5c0.4,0,0.8-0.1,1.2-0.3l19.7-9.8
	C128.4,109.6,128.9,108.1,128.3,106.8z M97.4,77.5l0.6-0.2l0.1,0.1l0.1,0.1l-0.2,0.2l0.1,0l-0.1,0.1l0,0l-0.1,0.2l0.7-0.1l0,0.1
	c0,0,0,0,0,0l0,0.1l0,0l0.1,0.2l-0.4,0.3l0.5,0.1l0,0.1l0,0l0,0.1l0,0l0,0.1l0,0l0,0.2l0,0l0,0l0,0.1c0,0,0,0,0,0l0,0l-0.3,0.2l0,0
	l-0.1,0l0.4,0.2l0,0.1c0,0,0,0,0,0l0,0.1c0,0,0,0,0,0l0,0c0,0,0,0,0,0l0,0.1c0,0,0,0,0,0l0,0l0,0l0,0.2l0,0c0,0,0,0,0,0l0,0.1
	l-0.3,0.2l0.3,0.2c0,0,0,0,0,0l0,0c0,0,0,0,0,0l0,0c0,0,0,0,0,0l0,0.1c0,0,0,0,0,0l0,0.1c0,0,0,0,0,0l0,0c0,0,0,0,0,0l0,0.1
	c0,0,0,0,0,0l0,0l0,0l0,0.1l0,0l0,0.2l-0.1,0l0,0l-0.2,0.1l0.3,0.2l0,0.1c0,0,0,0,0,0v0l-0.3,0.1l0,0l0,0l0,0l0-0.1l0,0l-0.1-0.1
	l0,0l-0.1-0.1l0,0l0,0l0.5-0.5l-0.9,0.2l-0.1-0.1l0,0l-0.2-0.1l0,0l-0.1-0.1l0.4-0.5l0,0l0.1-0.1l-0.9,0.2l0,0l0,0l0,0l0,0L97,80.6
	l0,0l-0.1-0.1l0,0l0,0l-0.1-0.1l0.4-0.5l0,0l0.1-0.1l-0.9,0.3l0,0l0,0L96.2,80v0l-0.1,0l0,0l-0.1,0c0.1-0.1,0.1-0.2,0.2-0.4l0.2-0.3
	l-0.1,0C96.7,78.7,97.1,78.1,97.4,77.5z M99.8,86.3C99.8,86.3,99.8,86.3,99.8,86.3L99.8,86.3L99.8,86.3L99.8,86.3l0.5-0.1l0,0l0,0
	l0,0l0.1,0.1l0,0l0.1,0.1l0,0l0.1,0.1l-0.3,0.3l0,0l-0.2,0.2l0.7-0.1l0,0l0,0.1l0,0l0,0.1l0,0l0.1,0.1l0,0l0.1,0.1l0,0l0,0l-0.4,0.4
	l0,0l-0.1,0.1l0.7-0.1l0.1,0.1l0,0l0,0l0.1,0.1l0,0l0.1,0.1l0,0l-0.2,0.2l-0.4,0.1l-0.2,0l0,0l0,0l0,0c0,0,0,0,0,0l0,0l0,0l0,0l0,0
	l0,0l0.5-0.5l-0.9,0.1l-0.1-0.2l0,0l0-0.1l0,0l0.3-0.3l0,0l0.1-0.1l-0.6-0.1l0,0l0,0l0,0l0-0.1l0,0l0-0.2l0,0l0,0l0,0l0,0l0-0.2l0,0
	l0.3-0.2L99.8,86.3L99.8,86.3z M99.8,85.9l0-0.3c0,0,0,0,0,0l0,0l0,0l0.1-0.1l0,0l0,0l0.1,0.2l0,0L99.8,85.9L99.8,85.9L99.8,85.9
	L99.8,85.9L99.8,85.9z M94.6,79L94.6,79C94.7,79,94.7,79.1,94.6,79L94.6,79L94.6,79L94.6,79L94.6,79L94.6,79
	C94.6,79,94.6,79,94.6,79z M101.5,88.9L101.5,88.9l0.2-0.3l0.4,0l0.1,0.1l0,0l0,0.1l0,0l0,0l-0.4,0.2l-0.1,0L101.5,88.9
	C101.6,88.9,101.6,88.9,101.5,88.9L101.5,88.9L101.5,88.9L101.5,88.9L101.5,88.9L101.5,88.9C101.5,88.9,101.5,88.9,101.5,88.9z
	 M103.3,90.7l-0.1,0.1L103.3,90.7L103.3,90.7z M90.1,78.5L90.1,78.5L90.1,78.5c-6.2,9.7-16.9,16.1-29.2,16.1
	c-19,0-34.5-15.5-34.5-34.5c0-19,15.5-34.5,34.5-34.5c19,0,34.5,15.5,34.5,34.5C95.4,66.8,93.4,73.1,90.1,78.5z M105.5,92.2
	c0.1,0,0.2-0.1,0.3-0.1l0.1,0l0-0.1l0.1-0.1l0.1,0l0,0l0.1,0l0-0.3l0-0.1c0.1,0.3,0,0.6-0.3,0.8C105.8,92.3,105.6,92.3,105.5,92.2
	C105.5,92.2,105.5,92.2,105.5,92.2z M106,91.1L106,91.1C106,91.1,106,91.1,106,91.1L106,91.1z M60.9,98.9
	c-21.4,0-38.8-17.4-38.8-38.8c0-21.4,17.4-38.8,38.8-38.8c21.4,0,38.8,17.4,38.8,38.8c0,5.8-1.3,11.3-3.6,16.2L96,76l0,0l0-0.1
	l-0.5,0.9l-0.1,0.1h0l-0.1,0.1h0L95.3,77l0,0l-0.1,0.1l-0.1,0.1h0L95,77.2h0l-0.1,0.1c0,0,0,0,0,0l0,0h0l-0.1,0.1l0,0l-0.1,0.1
	l-0.1-0.2l-0.2,0.4l-0.1,0.1l-0.1,0.1c0,0,0,0,0,0l0,0h0L94,78.2c0,0,0,0,0,0l0,0h0l0,0l0,0c0,0,0,0,0,0l-0.1,0.1c0,0,0,0,0,0l0,0h0
	l0,0l0,0c0,0,0,0,0,0l0,0l0,0l-0.1,0.1l-0.1,0l-0.2-0.1l0.4-0.7l-1.1,0.6l0,0l0,0h0l-0.1,0h0l0,0l-0.1,0c0,0,0,0,0,0l-0.1,0l0,0
	c0,0,0,0,0,0l0,0c0,0,0,0,0,0l0.4-0.7l-0.1,0.1l0-0.1l-0.2,0.1c2.9-5.2,4.6-11.2,4.6-17.6c0-19.9-16.2-36.2-36.2-36.2
	c-19.9,0-36.2,16.2-36.2,36.2c0,19.9,16.2,36.2,36.2,36.2c12.9,0,24.3-6.8,30.7-17l0.1,0l0,0l0,0l0,0l0,0l0,0l0.2,0l0,0l0,0
	l-0.3,0.5h0l-0.1,0.1l0.9-0.5l0.1,0l0.1,0h0l0,0l0,0l0.1,0l0,0l0.1,0l-0.2,0.2l0,0l0,0h0l-0.1,0.1l0,0l-0.1,0.2l-0.1,0.1
	c0,0,0,0,0,0l0,0l-0.1-0.1l-0.1,0.3l0,0.1L92,80.7c0,0,0,0,0,0l0,0l-0.1,0.2c0,0,0,0,0,0l0,0h0l-0.1,0.2c0,0,0,0,0,0h0l-0.1,0.1l0,0
	l-0.1,0.1h0l-0.1,0.2l-0.1,0.1c0,0,0,0,0,0l0,0h0l-0.1,0.2c0,0,0,0.1-0.1,0.1l-0.3,0.4l0.1,0.1l0,0l0,0v0l0.2,0.1l0,0l0.5,0.3l0,0
	l0,0l0.1-0.4l0-0.1l0.1-0.2l0,0l0,0l0.1-0.2l0.1-0.1c0,0,0,0,0,0l0,0l0,0l0.1-0.1l0,0l0,0l0,0l0-0.1c0,0,0,0,0,0l0,0l0,0l0.1-0.1
	l0,0l0.1-0.2c0,0,0,0,0,0l0.1,0.1l0.1-0.4l0-0.1l0,0c0,0,0,0,0,0L93,81c0,0,0,0,0,0h0l0.1-0.2l0,0l0,0h0l0.1-0.2c0,0,0,0,0,0l0,0
	l0,0c0,0,0,0,0,0l0,0l0,0l0,0l0.5-0.2C87.1,91.4,74.9,98.9,60.9,98.9z M126.8,109.5l-19.7,9.8c-0.9,0.4-2,0-2.4-0.8L98,105.2
	c-0.5-1-0.5-2.6,0-3.6l5.1-10.5l0.3-0.1l-0.4,0.5l1-0.4l0,0l0,0l0,0l0.1,0.1l-0.3,0.3l0,0l-0.2,0.2l0.2-0.1l0,0l0,0l0,0l0,0l0.3-0.1
	c0,0.2,0.1,0.4,0.1,0.6c0.2,0.5,0.7,0.8,1.3,0.8c0.2,0,0.4-0.1,0.6-0.2c0.7-0.4,1-1.2,0.7-2c-0.2-0.3-0.5-0.6-0.8-0.7l0.1-0.2
	l-0.3,0.1c-0.3-0.1-0.6,0-0.9,0.1l-0.1,0l0,0l-0.1,0l0.2-0.3l0.1-0.1l0,0l0.2-0.3l-0.8,0.4l-0.2,0l0,0l0,0l0,0l0-0.1l0,0l0,0l0,0
	l-0.1-0.1c0.4-0.3,0.9-0.4,1.4-0.4c0.1,0,0.3,0,0.4,0l12,2.4c1.1,0.2,2.4,1.2,2.9,2.2l6.6,13.3C128,108,127.6,109.1,126.8,109.5z"/>
<path class="st2" d="M107.2,108L107.2,108c0.6-0.6,0.6-1.5,0.3-2c-0.7-1.3-2-1.1-3.4-0.3l-2.4,1.3l3.5,6.6l2.6-1.4
	c1.4-0.8,2.3-2,1.6-3.3C109,107.9,108.2,107.7,107.2,108z M104.9,108.6l-0.7-1.3l0.6-0.3c0.6-0.3,0.9-0.3,1.1,0.1
	c0.2,0.4,0.1,0.8-0.5,1.1L104.9,108.6z M107,110.8l-0.7,0.4l-0.8-1.4l0.7-0.4c0.7-0.4,1.1-0.3,1.4,0.2
	C107.9,110,107.7,110.5,107,110.8z"/>
<path class="st2" d="M113.4,100.8l-1.7,0.9l1.9,3.6c0.6,1.2,0.5,1.8-0.2,2.1c-0.7,0.4-1.2,0.1-1.8-1.1l-1.9-3.6l-1.7,0.9l1.8,3.4
	c1.2,2.2,2.6,2.8,4.5,1.9c1.8-1,2.1-2.5,0.9-4.7L113.4,100.8z"/>
<path class="st2" d="M119.5,97.5l-1.8,1l0.2,1.6c0.1,0.6,0.2,1.1,0.3,1.7l0,0c-0.4-0.4-0.8-0.8-1.3-1.2l-1.2-1.1l-1.9,1l4.3,3.3
	l1.2,2.3l1.7-0.9l-1.2-2.3L119.5,97.5z"/>
</svg>
