<svg xmlns="http://www.w3.org/2000/svg" viewBox="0 0 605.76 63.27"><title>qudy-logo</title><g id="Layer_2" data-name="Layer 2"><g id="Layer_1-2" data-name="Layer 1"><path d="M124.89,0H16A15.39,15.39,0,0,0,4.72,4.74,15.74,15.74,0,0,0,0,16.28V46.58A15.74,15.74,0,0,0,4.72,58.12,15.38,15.38,0,0,0,16,62.86H124.89a15.39,15.39,0,0,0,11.3-4.74,15.74,15.74,0,0,0,4.73-11.54V16.28a15.74,15.74,0,0,0-4.73-11.54A15.4,15.4,0,0,0,124.89,0m4.52,45.77A7,7,0,0,1,127.15,51a7.46,7.46,0,0,1-5.34,2.17H76.21V25.68H64.7V53.2H19.1A7.44,7.44,0,0,1,13.76,51a7,7,0,0,1-2.26-5.26V17.09a7,7,0,0,1,2.26-5.26A7.45,7.45,0,0,1,19.1,9.66h102.7a7.47,7.47,0,0,1,5.34,2.17,7,7,0,0,1,2.26,5.26Z" fill="#fff"/><path d="M286.13,46.22a7,7,0,0,1-2.26,5.24,7.48,7.48,0,0,1-5.34,2.16H175.83a7.46,7.46,0,0,1-5.34-2.16,7,7,0,0,1-2.26-5.24V.62h-11.5V47.19a15.47,15.47,0,0,0,4.72,11.33,15.37,15.37,0,0,0,11.3,4.74H281.61a15.38,15.38,0,0,0,11.3-4.74,15.48,15.48,0,0,0,4.72-11.33V.62h-11.5Z" fill="#fff"/><path d="M438.54.62H313V63.27h125.5A16.13,16.13,0,0,0,454.77,47V16.84A15.67,15.67,0,0,0,450,5.34,15.68,15.68,0,0,0,438.54.62M443.27,46a7.41,7.41,0,0,1-2.16,5.32,7,7,0,0,1-5.24,2.25H324.54V10.27H435.87a7.16,7.16,0,0,1,5.24,2.15,7.08,7.08,0,0,1,2.16,5.21Z" fill="#fff"/><path d="M594.26.62V18.4A6.8,6.8,0,0,1,592,23.55a7.53,7.53,0,0,1-5.34,2.12H484a7.53,7.53,0,0,1-5.34-2.12,6.8,6.8,0,0,1-2.26-5.16V.62h-11.5V19.4a15.18,15.18,0,0,0,4.72,11.34,15.64,15.64,0,0,0,11.3,4.59h48.68V62.86h11.5V35.33h48.68A15.64,15.64,0,0,0,601,30.74a15.19,15.19,0,0,0,4.72-11.34V.62Z" fill="#fff"/><rect x="370.02" y="26.19" width="27.53" height="11.5" fill="#fff"/></g></g></svg>