<svg xmlns="http://www.w3.org/2000/svg" xmlns:xlink="http://www.w3.org/1999/xlink" viewBox="0 0 155.78 28.77"><defs><clipPath id="a" transform="translate(-804.34 -717.33)"><rect x="804.34" y="729.82" width="155.78" height="16.27" fill="none"/></clipPath></defs><title>qudy-stamp</title><path d="M804.71,724.77l1.28-7.34h2a2.58,2.58,0,0,1,1.21.29,2.34,2.34,0,0,1,.82.74,2.83,2.83,0,0,1,.43,1.06,3.86,3.86,0,0,1,0,1.24l-0.1.67a4.37,4.37,0,0,1-.41,1.32,3.87,3.87,0,0,1-.77,1.06,3.42,3.42,0,0,1-1.09.71,3.48,3.48,0,0,1-1.36.25h-2Zm1.8-6.81-1.09,6.29h1.31a2.84,2.84,0,0,0,1.13-.22,2.88,2.88,0,0,0,.9-0.6,3.21,3.21,0,0,0,.63-0.89,3.84,3.84,0,0,0,.34-1.1l0.1-.69a3.63,3.63,0,0,0,0-1,2.4,2.4,0,0,0-.3-0.88,1.8,1.8,0,0,0-.62-0.63,2,2,0,0,0-1-.26h-1.42Z" transform="translate(-804.34 -717.33)" fill="#231f20"/><path d="M815.87,721.25h-3.33l-0.52,3h3.83l-0.09.52h-4.45l1.28-7.34H817l-0.1.53h-3.8l-0.48,2.77H816Z" transform="translate(-804.34 -717.33)" fill="#231f20"/><path d="M821.42,722.93a1.19,1.19,0,0,0,0-.45,1.08,1.08,0,0,0-.17-0.36,1.28,1.28,0,0,0-.28-0.27,2.47,2.47,0,0,0-.36-0.21l-0.4-.17-0.41-.14Q819.4,721.2,819,721a2.93,2.93,0,0,1-.68-0.4,1.76,1.76,0,0,1-.47-0.57,1.48,1.48,0,0,1-.14-0.8,1.81,1.81,0,0,1,.46-1.09,2.1,2.1,0,0,1,.45-0.38,2.81,2.81,0,0,1,.54-0.26,3.38,3.38,0,0,1,1.19-.2,2.6,2.6,0,0,1,.89.17,2.07,2.07,0,0,1,.71.44,1.88,1.88,0,0,1,.45.69,2,2,0,0,1,.11.89h-0.61a1.73,1.73,0,0,0-.07-0.68A1.32,1.32,0,0,0,821,718a2.07,2.07,0,0,0-.68-0.13,2.76,2.76,0,0,0-.67.07,2.09,2.09,0,0,0-.61.25,1.65,1.65,0,0,0-.47.44,1.28,1.28,0,0,0-.23.63,1,1,0,0,0,.1.61,1.32,1.32,0,0,0,.39.42,2.54,2.54,0,0,0,.55.29l0.58,0.2a7.53,7.53,0,0,1,.78.3,2.81,2.81,0,0,1,.68.42,1.8,1.8,0,0,1,.46.6,1.62,1.62,0,0,1,.13.83,1.92,1.92,0,0,1-.15.62,1.84,1.84,0,0,1-.32.5,2.13,2.13,0,0,1-.46.38,2.85,2.85,0,0,1-.55.26,3.34,3.34,0,0,1-.6.15,3.65,3.65,0,0,1-.62,0,3.1,3.1,0,0,1-.94-0.15,2.35,2.35,0,0,1-.78-0.42,1.83,1.83,0,0,1-.51-0.68,2,2,0,0,1-.14-0.94h0.62a1.57,1.57,0,0,0,.09.73,1.32,1.32,0,0,0,.37.52,1.66,1.66,0,0,0,.58.31,2.53,2.53,0,0,0,.73.11,2.92,2.92,0,0,0,.69-0.07,2.18,2.18,0,0,0,.64-0.25,1.62,1.62,0,0,0,.49-0.44A1.32,1.32,0,0,0,821.42,722.93Z" transform="translate(-804.34 -717.33)" fill="#231f20"/><path d="M823.79,724.77h-0.62l1.28-7.34h0.62Z" transform="translate(-804.34 -717.33)" fill="#231f20"/><path d="M831.09,723.9a2,2,0,0,1-.53.48,3,3,0,0,1-.66.3,4.07,4.07,0,0,1-.72.16,5.18,5.18,0,0,1-.71,0,2.39,2.39,0,0,1-.83-0.14,2.16,2.16,0,0,1-.64-0.38,2.19,2.19,0,0,1-.47-0.56,2.85,2.85,0,0,1-.29-0.69,3.54,3.54,0,0,1-.13-0.77,4.22,4.22,0,0,1,0-.81l0.14-.89a5.27,5.27,0,0,1,.2-0.85,4.47,4.47,0,0,1,.34-0.79,3.81,3.81,0,0,1,.48-0.68,3,3,0,0,1,.62-0.53,2.81,2.81,0,0,1,.75-0.34,3,3,0,0,1,.89-0.11,2.75,2.75,0,0,1,.91.16,2,2,0,0,1,.7.43,2,2,0,0,1,.46.68,2.51,2.51,0,0,1,.18.9h-0.6a1.74,1.74,0,0,0-.46-1.19,1.7,1.7,0,0,0-1.21-.45,2.15,2.15,0,0,0-1,.22,2.46,2.46,0,0,0-.78.62,3.31,3.31,0,0,0-.53.89,4.56,4.56,0,0,0-.29,1l-0.14.91a4,4,0,0,0,0,.65,3.61,3.61,0,0,0,.07.64,2.53,2.53,0,0,0,.19.58,1.78,1.78,0,0,0,.34.48,1.53,1.53,0,0,0,.49.33,1.74,1.74,0,0,0,.67.13,4.45,4.45,0,0,0,.53,0,3,3,0,0,0,.53-0.1,2.73,2.73,0,0,0,.5-0.2,1.92,1.92,0,0,0,.43-0.31l0.33-1.9H828.9l0.09-.52h2.53Z" transform="translate(-804.34 -717.33)" fill="#231f20"/><path d="M838,724.77h-0.59l-3-6.29-1.09,6.29h-0.62l1.28-7.34h0.59l3,6.3,1.09-6.3h0.61Z" transform="translate(-804.34 -717.33)" fill="#231f20"/><path d="M844.37,721.25H841l-0.52,3h3.83l-0.09.52h-4.45l1.28-7.34h4.42l-0.1.53h-3.8l-0.48,2.77h3.33Z" transform="translate(-804.34 -717.33)" fill="#231f20"/><path d="M845.56,724.77l1.28-7.34h2a2.58,2.58,0,0,1,1.21.29,2.34,2.34,0,0,1,.82.74,2.83,2.83,0,0,1,.43,1.06,3.86,3.86,0,0,1,0,1.24l-0.1.67a4.37,4.37,0,0,1-.41,1.32,3.87,3.87,0,0,1-.77,1.06,3.42,3.42,0,0,1-1.09.71,3.48,3.48,0,0,1-1.36.25h-2Zm1.8-6.81-1.09,6.29h1.31a2.84,2.84,0,0,0,1.13-.22,2.88,2.88,0,0,0,.9-0.6,3.21,3.21,0,0,0,.63-0.89,3.84,3.84,0,0,0,.34-1.1l0.1-.69a3.63,3.63,0,0,0,0-1,2.4,2.4,0,0,0-.3-0.88,1.8,1.8,0,0,0-.62-0.63,2,2,0,0,0-1-.26h-1.42Z" transform="translate(-804.34 -717.33)" fill="#231f20"/><path d="M854.65,724.77l1.28-7.34H858a3.39,3.39,0,0,1,.84.12,1.84,1.84,0,0,1,.67.34,1.43,1.43,0,0,1,.43.58,2,2,0,0,1,0,1.42,1.82,1.82,0,0,1-.3.46,2,2,0,0,1-.43.36,2.7,2.7,0,0,1-.53.25,1.45,1.45,0,0,1,.49.25,1.51,1.51,0,0,1,.34.4,1.62,1.62,0,0,1,.19.5,2,2,0,0,1,0,.55,2.21,2.21,0,0,1-.26.92,2.15,2.15,0,0,1-.58.66,2.45,2.45,0,0,1-.8.4,3.26,3.26,0,0,1-.95.13h-2.46Zm1.23-3.53-0.52,3h1.76a2.47,2.47,0,0,0,.71-0.1,1.92,1.92,0,0,0,.6-0.3,1.62,1.62,0,0,0,.44-0.49,1.76,1.76,0,0,0,.22-0.69,1.49,1.49,0,0,0,0-.6,1.08,1.08,0,0,0-.26-0.44,1.17,1.17,0,0,0-.44-0.28,1.82,1.82,0,0,0-.58-0.11h-1.88Zm0.09-.52h1.61a2.64,2.64,0,0,0,.66-0.09,1.75,1.75,0,0,0,.56-0.26,1.51,1.51,0,0,0,.41-0.45,1.53,1.53,0,0,0,.2-0.63,1.35,1.35,0,0,0-.06-0.61,1,1,0,0,0-.29-0.41,1.24,1.24,0,0,0-.48-0.23A2.79,2.79,0,0,0,858,718h-1.53Z" transform="translate(-804.34 -717.33)" fill="#231f20"/><path d="M863.3,721.42l2.86-4h0.75L863.52,722,863,724.77h-0.62l0.49-2.8-1.76-4.54h0.69Z" transform="translate(-804.34 -717.33)" fill="#231f20"/><g clip-path="url(#a)"><path d="M836.45,729.82h-28a4,4,0,0,0-2.9,1.22,4,4,0,0,0-1.22,3v7.79a4,4,0,0,0,1.22,3,4,4,0,0,0,2.9,1.22h28a4,4,0,0,0,2.91-1.22,4,4,0,0,0,1.21-3V734a4,4,0,0,0-1.21-3,4,4,0,0,0-2.91-1.22m1.16,11.77a1.81,1.81,0,0,1-.58,1.35,1.92,1.92,0,0,1-1.37.56H823.94v-7.08h-3v7.08H809.25a1.91,1.91,0,0,1-1.37-.56,1.8,1.8,0,0,1-.58-1.35v-7.38a1.8,1.8,0,0,1,.58-1.35,1.92,1.92,0,0,1,1.37-.56h26.41a1.92,1.92,0,0,1,1.37.56,1.81,1.81,0,0,1,.58,1.35v7.38Z" transform="translate(-804.34 -717.33)" fill="#231f20"/><path d="M877.92,741.71a1.79,1.79,0,0,1-.58,1.35,1.92,1.92,0,0,1-1.37.56H849.56a1.92,1.92,0,0,1-1.37-.56,1.79,1.79,0,0,1-.58-1.35V730h-3v12a4.16,4.16,0,0,0,4.12,4.13h28a4.16,4.16,0,0,0,4.12-4.13V730h-3v11.73Z" transform="translate(-804.34 -717.33)" fill="#231f20"/><path d="M917.12,730H884.84v16.11h32.28a4.15,4.15,0,0,0,4.17-4.17v-7.76a4.15,4.15,0,0,0-4.17-4.17m1.22,11.68a1.91,1.91,0,0,1-.55,1.37,1.8,1.8,0,0,1-1.35.58H887.8V732.47h28.63a1.84,1.84,0,0,1,1.35.55,1.82,1.82,0,0,1,.55,1.34v7.31Z" transform="translate(-804.34 -717.33)" fill="#231f20"/><path d="M957.16,730v4.57a1.75,1.75,0,0,1-.58,1.33,1.94,1.94,0,0,1-1.37.55H928.8a1.94,1.94,0,0,1-1.37-.55,1.74,1.74,0,0,1-.58-1.33V730h-3v4.83a3.9,3.9,0,0,0,1.22,2.92,4,4,0,0,0,2.91,1.18h12.52V746h3v-7.08H956a4,4,0,0,0,2.91-1.18,3.9,3.9,0,0,0,1.21-2.92V730h-3Z" transform="translate(-804.34 -717.33)" fill="#231f20"/><rect x="95.16" y="19.23" width="7.08" height="2.96" fill="#231f20"/></g></svg>