<svg xmlns="http://www.w3.org/2000/svg" viewBox="0 0 100 154.26"><title>regit-logo-t</title><g id="Layer_2" data-name="Layer 2"><g id="Layer_1-2" data-name="Layer 1"><g id="_Group_" data-name="&lt;Group&gt;"><g id="_Group_2" data-name="&lt;Group&gt;"><path id="_Path_" data-name="&lt;Path&gt;" d="M78,113.56a3.33,3.33,0,0,0,2.49-1.14,3.89,3.89,0,0,0,1.08-2.77,2.44,2.44,0,0,0-.69-1.83,2.56,2.56,0,0,0-1.87-.67,3.21,3.21,0,0,0-2.36,1.21,4,4,0,0,0-1.11,2.83,2.28,2.28,0,0,0,.69,1.7A2.45,2.45,0,0,0,78,113.56Z" fill="#00aeef"/><path id="_Compound_Path_" data-name="&lt;Compound Path&gt;" d="M99.91,110a.64.64,0,0,0-.38-.08H96.34l1.06-2.47q2.25-5.26,2.25-7.57a1.62,1.62,0,0,0-.36-1.16,1.34,1.34,0,0,0-1-.38,3.24,3.24,0,0,0-2.44,1.38Q94,102,91.74,110.06H87.61a2.25,2.25,0,0,0-1.69.58,2.64,2.64,0,0,0-.57,1.89.9.9,0,0,0,1.1,1.1H90.3c-.61,1.29-1.31,3-2.08,5h0A7.68,7.68,0,0,1,86.9,121q-2.5,2.45-3.78,3.55c-1,.84-3.89,3.19-3.89,3.19q-5.36,4.53-6.44,4.54a.6.6,0,0,1-.38-.13.43.43,0,0,1-.16-.34,3.35,3.35,0,0,1,.41-1.28L78.6,117.1H74q-.78,1.66-1.44,3.22a77.39,77.39,0,0,1-7.85,7.29h0a82.62,82.62,0,0,0-9.19,8.5,118.85,118.85,0,0,1,5.85-12.48H56.49A25.08,25.08,0,0,1,51,131.3a6,6,0,0,1-3.66,1.81,1.52,1.52,0,0,1-1.25-.66,4,4,0,0,1-.5-2.32,9,9,0,0,1,3-6.91q3-2.77,8.4-2.77a17.68,17.68,0,0,1,2.75.25,8.59,8.59,0,0,0,1.32.19.42.42,0,0,0,.5-.47,11.69,11.69,0,0,0-.22-1.52,14.52,14.52,0,0,1-.25-1.77,15.56,15.56,0,0,0-3.41-.34q-8.29,0-12.71,3.86a12.57,12.57,0,0,0-3.78,5.48.26.26,0,0,0,0,.06l-.12.36a2,2,0,0,1-.5.68l-.28.25A36.19,36.19,0,0,1,34,132.4a9.38,9.38,0,0,1-4.36,1.15,3.93,3.93,0,0,1-2.52-.64,3,3,0,0,1-.92-2.08,30.7,30.7,0,0,0,6.73-1.69,13.68,13.68,0,0,0,5.47-3.74A7,7,0,0,0,40.1,121a4,4,0,0,0-1.33-3.07,5.27,5.27,0,0,0-3.7-1.22,14.35,14.35,0,0,0-8.54,3.13,12.92,12.92,0,0,0-4.78,6.37,3.12,3.12,0,0,1-1.06,1.41l-.19.16q-5.1,4.6-6.29,4.6a.34.34,0,0,1-.25-.09.38.38,0,0,1-.09-.28,2.34,2.34,0,0,1,.22-.81l.47-1.06c.42-1,.87-2,1.38-3q2.85-6.16,2.85-7.35a2.06,2.06,0,0,0-.84-1.75,6.18,6.18,0,0,0-3.69-.84l-1,0H12l0-.25c0-.42.06-.71.06-.88a2.79,2.79,0,0,0-.7-2,2.53,2.53,0,0,0-1.92-.74,2.93,2.93,0,0,0-2.24.92,3.63,3.63,0,0,0-.87,2.58,5.39,5.39,0,0,0,.82,2.6,33.36,33.36,0,0,1-3.43,4.85A23.42,23.42,0,0,1,0,127.61v4.54a45,45,0,0,0,6-5.54,29.75,29.75,0,0,0,4.25-5.75,11.4,11.4,0,0,1,1.52-.12A2,2,0,0,1,13,121a.9.9,0,0,1,.38.74q0,1-2.3,5.66-3.15,6.38-3.15,7.94a2,2,0,0,0,.78,1.44,2.75,2.75,0,0,0,1.88.69A11.77,11.77,0,0,0,15.19,136a25.13,25.13,0,0,0,6-4.34,6.45,6.45,0,0,0,1.8,3.86q1.91,1.86,5.88,1.86a12.16,12.16,0,0,0,5.24-1.1,33,33,0,0,0,6.48-4.7,7.59,7.59,0,0,0,1.45,4,4.41,4.41,0,0,0,3.47,1.92,5.79,5.79,0,0,0,3.08-.94A17.12,17.12,0,0,0,52.36,133,18.74,18.74,0,0,1,51,136.72,50,50,0,0,1,47.61,142q-4.91,7-4.91,10.2a2.1,2.1,0,0,0,.53,1.5,1.89,1.89,0,0,0,1.44.56,3.58,3.58,0,0,0,2.6-1.28q1.62-1.72,4.16-7.76L52.77,142q2.22-2.15,3.8-3.49t6-4.81l2.09-1.63.5-.39.25-.19v0l3.54-3q-2.88,5.72-2.88,7.16a1.61,1.61,0,0,0,.67,1.27,3,3,0,0,0,1.92.55,10.55,10.55,0,0,0,4.46-1.11,39.16,39.16,0,0,0,6.93-4.81v0a34.2,34.2,0,0,0,3.53-3.32c.46-.5.92-1,1.38-1.38q-.72,1.81-1.25,3.1l-.63,1.44a16.51,16.51,0,0,0-1.37,4.22,1.68,1.68,0,0,0,.67,1.3,2.71,2.71,0,0,0,1.83.58q5.47,0,13.17-5.91V127a38,38,0,0,1-3.69,2.77A42.27,42.27,0,0,1,89,132.52a2.89,2.89,0,0,1-1.13.34.39.39,0,0,1-.31-.14.51.51,0,0,1-.13-.36,3.77,3.77,0,0,1,.34-1.28l7.1-17.52h3.22a1.9,1.9,0,0,0,.85-.16.71.71,0,0,0,.31-.34l.41-1.31a5.7,5.7,0,0,0,.31-1.47A.29.29,0,0,0,99.91,110ZM30.09,122.26a6.28,6.28,0,0,1,3.66-1.66,1.41,1.41,0,0,1,1.08.45,1.7,1.7,0,0,1,.42,1.2,3.2,3.2,0,0,1-1.44,2.44q-2,1.69-7.38,2.69A13.41,13.41,0,0,1,30.09,122.26Z" fill="#00aeef"/></g></g><path id="_Path_2" data-name="&lt;Path&gt;" d="M59.34,55.56a3.76,3.76,0,0,1,2-1.08v0c1-7.42-1.42-15.9-9.93-20.58-1.29-.49-1.84-.45-2-.18s0,.41.23.68a4.13,4.13,0,0,0,1.67,1.27c.05,0,4.4,1.72,6.72,8a32.8,32.8,0,0,1,1.29,11.84v.05h0Z" fill="#00aeef"/><path id="_Path_3" data-name="&lt;Path&gt;" d="M54.53,62.81h0l2.59-4.21v-.08a55.56,55.56,0,0,0,.58-7c0-5-.95-9.6-4.23-12.75A13.74,13.74,0,0,0,49.71,36a8.17,8.17,0,0,1-1-1l-.2-.25c-5.66-2.54-10.75,1.05-15.08,3.07C22.48,45.48,12.35,54.56,6,60.28l-1.14,1c-.39.33-2.89,2.61-2.89,2.61v0h0c.15.52.31,1,.48,1.56h0L2.6,66,5,64.16a56.42,56.42,0,0,0,4.53-3.47c3.24-2.49,6.94-6.4,9.76-8.66,5-4,9.49-6.76,12.75-9.46,2.25-1.67,4.15-3.54,5.52-4.28,7.52-5.39,14.22.17,15.88,3.29a18.47,18.47,0,0,1,2.28,9.37,26.79,26.79,0,0,1-1.17,7.68l0,4.15h0v.06Z" fill="#00aeef"/><path id="_Path_4" data-name="&lt;Path&gt;" d="M62.68,95.89c.42-.51,1.37-1.72,1.38-1.76,5.2-5.9,12.7-17.71,12.28-36.51.64-7,.14-13.41-2.61-18.65a25,25,0,0,0-1.31-2.86Q71.84,35,71.16,34c-.83-2.08-5.23-6.14-5.75-6.52a36.79,36.79,0,0,0-4.1-3.33h0a20.92,20.92,0,0,0-1.89-1.23L59,22.69h0c-2.1-1.2-4.46-2.35-4.46-2.35a34.57,34.57,0,0,0-3.61-.79,37.23,37.23,0,0,0-4.55-.47,37.93,37.93,0,0,0-4.67.1,1.11,1.11,0,0,0-.61.06l-.58.06c-.1,0-15.57,2.45-21.86,6.28-1.57.62-2.95,1.59-4.47,2.31C10,29.52,2.22,36.76,1.89,37,1.56,38.28.85,40.66.64,42,.76,42,10.47,33.45,14,31.14a90.82,90.82,0,0,1,11-6,76.62,76.62,0,0,1,19-3.87c.86,0,11.67-2.44,23.21,11.93,6.57,6,7.81,14.66,7.25,24.3,0,.29-.11,1.4-.27,3,0,.13-.14,1.26-.43,3.54A47.76,47.76,0,0,1,69,76.69a107,107,0,0,1-7.76,12.47c-.09.09-.69.74-.65.78L59,92.34c-.37.55-4.26,3.92-3.64,3.64a1.61,1.61,0,0,0-.3.37l.14.25a3.48,3.48,0,0,0,.77.89h0a40.41,40.41,0,0,0,4.25-3.68c.87-1.42,3-4.26,4.51-6.12.71-1.07,2.14-3.93,2.78-5.05,1.5-2.46,5.13-10.17,6.19-12-.28,1.05-2.54,7-2.87,7.86C66.92,89,62,93.78,60.58,95.27c-.06,0-2.4,2.37-3.11,3l0,0a18.17,18.17,0,0,0,1.81.41H59.1l.64.07.07-.06A37,37,0,0,0,62.68,95.89Z" fill="#00aeef"/><path id="_Path_5" data-name="&lt;Path&gt;" d="M100,50v0q-.2-1.17-.39-2.36c-1.41-2.31-1.77-5.16-3-7.58-.07-.19-.15-.38-.23-.56C86.09,20.49,73.07,9,53.89,5.23a46.3,46.3,0,0,0-13.8-1.68c-9.14.09-10,.87-11.1,1.07A49.93,49.93,0,0,0,23,7.88l7.32-1.69,5.57-.58c3.62-.56,16.68-.7,32.47,5.93a84.37,84.37,0,0,1,12.71,9.7A52.14,52.14,0,0,1,86,26.53h0a46,46,0,0,1,3.7,4.95v0c10.25,16.3,8.9,30.1,8.9,30.1A50.1,50.1,0,0,0,100,50Z" fill="#00aeef"/><path id="_Path_6" data-name="&lt;Path&gt;" d="M97.5,63.83c0-.58-.09-1.31-.19-2.24h0a16,16,0,0,1,.07-3.53c.36-1.76-1-6.95-1.71-9.55a59.3,59.3,0,0,0-11.23-22S76.5,18,70.77,14.06l0,0a20.78,20.78,0,0,0-4-2.06c-.48-.19-1-.38-1.5-.57-1.42-.5-3-1-4.56-1.39-2.32-.61-4.78-1.15-7.24-1.62l-1.21-.23C48.8,7.54,45.45,7,42.62,6.66h0a28.06,28.06,0,0,0-6.26,0H35.9l-.07.05c-.57.06-2.16.23-2.21.28-1.22.18-2.44.4-3.62.64-.07,0-2.66.58-3.7.85a3.15,3.15,0,0,0-1,.25c-3.47.91-5.91,1.75-5.91,1.75A50.32,50.32,0,0,0,14,15.35a55.91,55.91,0,0,1,11.49-4.83,51.24,51.24,0,0,1,30.95-.19c12.5,3.67,24.46,12,31.05,24C93.24,44.9,96,58,95.22,71.34A49.57,49.57,0,0,0,97.38,66a.87.87,0,0,0,.07-.25A8.37,8.37,0,0,0,97.51,64l0,.07Z" fill="#00aeef"/><path id="_Path_7" data-name="&lt;Path&gt;" d="M75.49,9a84.73,84.73,0,0,1,8.11,6.17c.54.51.83.81.83.81l5.17,4.84a43.57,43.57,0,0,0,3.8,4.34A50.18,50.18,0,0,0,86.65,16h0A50.1,50.1,0,0,0,69.22,3.83h0A14.8,14.8,0,0,0,65.7,2.52h0A49.84,49.84,0,0,0,51.69,0h0L50,0c-1.32,0-2.62.06-3.91.16,2.49.13,5.16.45,8,.76C68.32,3.55,72.76,7.41,75.49,9Z" fill="#00aeef"/><path id="_Path_8" data-name="&lt;Path&gt;" d="M53.67,3.59c1,.23,2.08.48,3.1.76A59.34,59.34,0,0,1,79.38,15.77a63.12,63.12,0,0,1,5.42,5l.52.54a82.9,82.9,0,0,1,13,18.54q.47.9.94,1.82c-4.52-15.37-9.11-17.27-10.76-19.58-.9-1.07-2.93-3.77-3.61-4.33C83.29,16.38,73.58,9.46,69.88,7.31A48.94,48.94,0,0,0,56.69,2.52S46.53.71,40.2,1q-2.08.41-4.1,1A74.63,74.63,0,0,1,53.67,3.59Z" fill="#00aeef"/><path id="_Path_9" data-name="&lt;Path&gt;" d="M59,22.69c-.34-.22-.7-.42-1.07-.62Z" fill="#00aeef"/><path id="_Path_10" data-name="&lt;Path&gt;" d="M91.9,50.71c-.66-1.8-1.72-6.63-2.79-9.3q-.72-1.78-1.54-3.49a54.55,54.55,0,0,0-3.79-6.66q-.51-.77-1-1.51a4.16,4.16,0,0,1-.34-.47,30.72,30.72,0,0,0-2.25-2.84C69.75,15.82,54.95,9.92,45.47,9.75a77.36,77.36,0,0,0-9,.19A57.22,57.22,0,0,0,25.9,12l-.38.12a9.63,9.63,0,0,0-1.65.53l-.09.06c-.62.23-1.3.51-2.06.83a9.26,9.26,0,0,0-1.44.61c-2.16.93-4.61,2.24-6.53,3.31a4.86,4.86,0,0,0-1.1.62c-1.34.77-2.23,1.31-2.23,1.31q-1,1.34-2,2.75a45.92,45.92,0,0,1,8.45-5L19.59,16a61.92,61.92,0,0,1,12.91-3.54,63.63,63.63,0,0,1,15.17-.7,38,38,0,0,1,7.86,1.4c.63.19,2.08.74,2.23.8a65.81,65.81,0,0,1,8.36,4.15,64.17,64.17,0,0,1,9.51,6.75c6,5.17,9.9,10.76,11.71,16.62a21.18,21.18,0,0,1,1.31,7.87c.07,1.1.1,2.23.11,3.38.07,22.26-3.41,31.34-3.41,31.34-.2.64-.4,1.27-.61,1.87a50.13,50.13,0,0,0,4-4.32c0-.18.07-.37.11-.56,0-.34.08-.71.12-1.11h0v0c0-.34.06-.7.09-1.08.13-1.46.5-4.53,1-10.37.36-4.55.44-15.85.44-15.85a50.93,50.93,0,0,1,1.4,11.31c0,3.17-.62,14.12-.63,14.4.87-1.26,1.68-2.55,2.43-3.89,0-.21,0-.41.06-.62.11-1.27.07-11.11-.33-14.95A47.93,47.93,0,0,0,91.9,50.71Z" fill="#00aeef"/><path id="_Path_11" data-name="&lt;Path&gt;" d="M91.21,78.3h0l0,0Z" fill="#00aeef"/><path id="_Path_12" data-name="&lt;Path&gt;" d="M40.11,98.44a2.57,2.57,0,0,0,1.2-.73L42,96.59l.34-1-4.46,3A4,4,0,0,0,40.11,98.44Z" fill="#00aeef"/><path id="_Path_13" data-name="&lt;Path&gt;" d="M14.7,49.61c8-7.51,13.84-11.33,19.8-14.32,4.59-2.3,6.91-4.21,13.27-3.73,0,0,15.15.85,15.91,23v0c.43.12.89.28,1.39.47l.48.19v0a45.38,45.38,0,0,0-2-12.45c-1.14-3.08-3.29-6.53-4.23-7.32-.73-.87-4.9-6.16-14.45-5.63a31,31,0,0,0-14.31,4.37h0c-2.19,1.11-8.88,5.83-11.71,7.78C12.6,46.32,6,56,.8,59q.24,1.33.55,2.63C6.37,58.84,10.61,53.44,14.7,49.61Z" fill="#00aeef"/><path id="_Path_14" data-name="&lt;Path&gt;" d="M54.53,77.94c.1-.11,2.69-4.3,4.46-7.46a29.17,29.17,0,0,0,1.87-3.64h0c0-.1.08-.19.11-.29A19.19,19.19,0,0,0,62,63.41l-.4-.17a11,11,0,0,0-1.78-.6,20.69,20.69,0,0,0-1.57,4.57C57.57,69,54.53,75,54.53,75Z" fill="#00aeef"/><path id="_Path_15" data-name="&lt;Path&gt;" d="M54.53,83.36a70.2,70.2,0,0,0,7.06-10.15c.11,0,2.11-5.45,3.18-8.66l-1.55-.65c-.2.69-.44,1.49-.56,1.89h0a59.42,59.42,0,0,1-2.72,6.42,83.5,83.5,0,0,1-5.39,7.95Z" fill="#00aeef"/><path id="_Path_16" data-name="&lt;Path&gt;" d="M26.09,93.91c.47.26.95.5,1.43.75a46.54,46.54,0,0,0,5.83-3.1c3.38-1.74,6.23-4.5,9.27-6.91h0v-2C37.52,86,32.2,90,26.09,93.91Z" fill="#00aeef"/><path id="_Path_17" data-name="&lt;Path&gt;" d="M30.21,95.91q1.07.46,2.17.87a52,52,0,0,0,10.23-7.1h0V86.86h0C42.5,86.9,34.58,93.6,30.21,95.91Z" fill="#00aeef"/><path id="_Path_18" data-name="&lt;Path&gt;" d="M36.41,96.26c-.23.17-.47.33-.72.48l-.31.18-.43.25-.46.24-.14.07c.71.23,1.43.45,2.16.65L42.58,94h0c0-.31,0-.64,0-1v-.75h0A69.51,69.51,0,0,1,36.41,96.26Z" fill="#00aeef"/><path id="_Path_19" data-name="&lt;Path&gt;" d="M5.22,52.77h0A61.57,61.57,0,0,1,13.39,44c4.07-3.35,10.18-8.49,16-11.68,4.71-2,10.3-4.08,16.16-3.89,18.54-.75,21.32,18.45,21.52,27.47v0l1.94.79v0c0-9.48-2-17.93-7.62-24.54-4.22-3.09-6.85-5.25-18.77-5.51C31,27.67,18,37.11,15.6,38.8s-5.93,3.84-8.18,5.66c-.9.68-6.08,4.29-7.42,5.11,0,.14,0,.28,0,.42q0,1.1,0,2.2a55.53,55.53,0,0,0,8.4-6.58C6.3,48.27,1.95,53.47.18,54.19Q.3,55.63.5,57.05A22.77,22.77,0,0,0,5.22,52.77Z" fill="#00aeef"/><path id="_Path_20" data-name="&lt;Path&gt;" d="M48.42,44.57l-.3-.1c-1.5-.45-2.76.82-4,2.84-.52.87-1,1.88-1.54,3-1.7,3.59-6.13,8.37-6.13,8.37-.81.74-1.88,1.7-3.3,3a87.91,87.91,0,0,1-11.39,8.18,116.23,116.23,0,0,1-11.58,5.9c-.78.42-1.55.85-2.37,1.21l0,0h0l.57.87c.34.46.34.54.45.46l1.34-.59s4.65-2.11,5.15-2.56c1.43-.84,4.73-2.06,12-6.3,3.36-2,6.82-5.74,11.11-8.88l-.05,0,.05,0-.72-.22V57.93c1.35-.11,2-.2,3.37-.4l.58-.88h0a7.13,7.13,0,0,0,.68-1c1-1.83,2.14-4.38,3.17-6.39a12.22,12.22,0,0,1,1.95-3.12c.5-.17,1-.09,1.07.58a1.43,1.43,0,0,0,0,.57,7.33,7.33,0,0,1-.37,1.49,3.3,3.3,0,0,0-.14.39,23.87,23.87,0,0,1-1,2.33l-.07.13-.14.27h0C45.56,54.24,44,57,44,57h0c.59-.12,1.6-.36,2.45-.56l1-.25s.29-.92,1-3l.11-.33a24.32,24.32,0,0,0,1.31-4.54C50.2,46.12,49.65,45.05,48.42,44.57Z" fill="#00aeef"/><path id="_Path_21" data-name="&lt;Path&gt;" d="M26.63,82.9c2.15-.95,5.92-4.13,6.12-4.28,2.39-1.73,4.34-3.33,4.34-3.33h0a40.41,40.41,0,0,0,5.52-5h0V68.13h0c-3,3.05-14,13.21-27.79,17.38q.83.82,1.69,1.6l1.83-.56c.76-.23,2.35-.75,2.37-.77C21.77,85.42,25.82,83.26,26.63,82.9Z" fill="#00aeef"/><path id="_Path_22" data-name="&lt;Path&gt;" d="M41.07,60.67l-1.5-.46s-7.6,9.5-15.93,12.6A114.91,114.91,0,0,1,9.58,79.42q.61.83,1.25,1.64c2.85-.64,15-5.3,21.59-11.34C39.51,63.27,41.07,60.67,41.07,60.67Z" fill="#00aeef"/><path id="_Path_23" data-name="&lt;Path&gt;" d="M42.61,64.34h0c0-.39,0-.73,0-1a3.1,3.1,0,0,0-.43-1.76c-2.58,4.23-8.81,10.91-13.74,13.22A91.61,91.61,0,0,1,12,82.5q.69.8,1.41,1.57c1.51-.54,8-2.82,9.62-3.84C30.11,76.21,37.2,71.57,42.61,64.34Z" fill="#00aeef"/><path id="_Path_24" data-name="&lt;Path&gt;" d="M56.09,64.19l-.42.57c-.5,1.44-.89,3.06-1.14,3.81V72a37.18,37.18,0,0,0,3.65-9.41A3.59,3.59,0,0,0,56.09,64.19Z" fill="#00aeef"/><path id="_Path_25" data-name="&lt;Path&gt;" d="M36.48,80.51l0,0c1.86-1.75,4.06-3.32,6.11-5.06h0V72.69h0c-1.28,1.29-2.54,2.62-3.83,3.86-.36.29-.87.75-1.6,1.46s-5.9,4.12-6.34,4.53c-.9.53-1.83,1.06-2.74,1.56a6.19,6.19,0,0,0-1.39.74h0l0,0c-4.18,2.2-7.82,3.8-7.82,3.8h0l-.35.12q.76.61,1.54,1.2c3.23-1.35,6.31-3,9.4-4.6A85,85,0,0,0,36.48,80.51Z" fill="#00aeef"/><path id="_Path_26" data-name="&lt;Path&gt;" d="M42.62,80.49V78.77h0c-.29.15-.93.43-1.17.59-.65.33-4.77,3.11-5.37,3.5l-3.51,2.26-1.7,1.08-.31.19C27.65,88.14,22.33,91,22.33,91a4.34,4.34,0,0,1-.53.24q.8.55,1.62,1.07a67.29,67.29,0,0,0,7.63-4C35.18,86.4,38.23,83.15,42.62,80.49Z" fill="#00aeef"/><path id="_Path_27" data-name="&lt;Path&gt;" d="M79.14,67.61c2.3-13,1.31-24.25-3.53-33.54-.28-.43-4.56-5.92-6.6-8.09-8.34-8.85-20.16-10.45-20.16-10.45a43.56,43.56,0,0,0-7.94.16c-3.48.58-3.48.58-5.24.82a72.34,72.34,0,0,0-9.87,2.43l-1.43.28s-5.77,2.07-10.59,4.2l-.84.38a66.92,66.92,0,0,0-7.57,4.68,7.78,7.78,0,0,0-.78.78,1.52,1.52,0,0,0-.27.39Q3.37,31.77,2.62,34A72.15,72.15,0,0,1,13,26.61c3.36-1.68,6.86-3.39,8.79-4.23h0a69.62,69.62,0,0,1,11.87-3.32s8-2.08,14.74-1.51l2.46.23a13.53,13.53,0,0,1,4.87,1.56c.34.17,2.69,1.19,3.52,1.49.34.25.72.51,1.12.78l1.17.87c9.79,7.42,12.56,13.31,12.56,13.31h0c7,11.73,4.94,27.12.39,44.56-4.08,9.3-5.55,9.1-7.39,12-.52.65-4.16,5-4.16,5a13.73,13.73,0,0,1-1.56,1.29h.1v.05q1.78-.42,3.51-1l.07-.19c2-3,6.49-6.49,8.59-11.35C76.55,80,77.28,74.06,79.14,67.61Z" fill="#00aeef"/><path id="_Path_28" data-name="&lt;Path&gt;" d="M87.4,54.21c0-1.81,0-3.57-.14-5.25,0-2.43,0-4.81-1.09-6.66a28.15,28.15,0,0,0-3-6.8C77.94,27,68.5,20.33,59.9,16.36a7.13,7.13,0,0,0-1.71-.76L56.82,15c-5.56-2.21-14.45-2.72-23.35-1.36l-.74.12a61.5,61.5,0,0,0-10.89,2.8l-1.07.4h-.05a48.28,48.28,0,0,0-9.44,4.83h0q-.67.45-1.31.91a22.29,22.29,0,0,0-3.25,2.18v.46a101.7,101.7,0,0,1,12.35-6.2,29.21,29.21,0,0,1,5.39-1.66c6.25-1.12,17.06-3.78,21.65-3.26.23,0,4.9.55,5.07.59a3.51,3.51,0,0,0,1,.23A32.45,32.45,0,0,1,57.93,17a28.86,28.86,0,0,1,2.94,1.26,5.86,5.86,0,0,0,1,.69c11,6.63,14.35,13.33,14.35,13.33a21.63,21.63,0,0,1,3.09,6c4.34,9.91,2.79,24.16-.19,36.93-.93,3.48-3,10.63-4.82,14a44.17,44.17,0,0,1-6.79,7.58q2.25-.84,4.39-1.9c2.27-2.88,4.81-5.24,6.46-9.33l2.51-7.9c2.68-11.33,2.83-21.37,2.93-31.37-1.64-8-4-10.22-5.71-14.66,3.23,2.6,4.6,6.15,5.69,9.85h0q.17.58.34,1.17a19,19,0,0,1,.41,2.62c1,13.07,1.19,35.62-8.34,47l-.31.38A50.23,50.23,0,0,0,81.4,88.9a25,25,0,0,0,1.78-2.95A134.62,134.62,0,0,0,87.4,54.73C87.4,54.55,87.4,54.38,87.4,54.21Z" fill="#00aeef"/><path id="_Path_29" data-name="&lt;Path&gt;" d="M71.34,68.38c1.09-2.85,1.28-8,1.28-8h0a43.68,43.68,0,0,0-1.18-16.72c-.11-1.83-1.23-4.14-4.18-8.82-14.29-18.44-36-10.94-42.67-6.92-2.87,1.35-5.66,2.84-8.44,4.36C11.15,35.17,1,43.47.4,43.61q-.25,2-.35,4c5.69-4.48,11.46-8.8,17.36-12.89.12-.38,15.2-10.3,27.12-9.59,3.46-.72,23.84.37,26.26,27a49,49,0,0,1,.07,8.54,32.21,32.21,0,0,1-.59,3.68s-1.75,5.45-2.2,6.3c0,0-4.46,9.11-4.47,9.13S55.34,91,54.53,91.83v1.6c0,.36,0,.69,0,1l.5-.35s4.29-6,9.41-13A60.2,60.2,0,0,0,71.34,68.38Z" fill="#00aeef"/><path id="_Path_30" data-name="&lt;Path&gt;" d="M54.53,89c6.11-5.63,12.36-19.75,13.16-22.14h0A29.63,29.63,0,0,0,69,62.28c0-.16-.1-2.14-.07-3.08,0,0-4.11,8.76-4.19,9a73.76,73.76,0,0,1-3.48,8,59.86,59.86,0,0,1-6.76,10.2Z" fill="#00aeef"/><path id="_Path_31" data-name="&lt;Path&gt;" d="M45.92,37.77a6.47,6.47,0,0,0-5.17.79h0a37,37,0,0,0-6.19,4.69l-.82.72-1,.82c-.34.21-4.3,3.1-4.7,3.38-4.3,3-10.06,8.19-12.4,10.15-3.09,2.24-6.17,4.49-9.16,6.94l-.36.38-.22.14c-1.6,1-2.73,1.76-2.73,1.76l0,0h0q.23.61.47,1.22l.12-.1a33.87,33.87,0,0,0,7-3.7L12,64.36l.94-.75c3.1-2.15,6.36-4.67,9.46-7.13s6.28-4.73,6.31-4.87c1.33-1.2,2.63-2.46,3.84-3.76a85.61,85.61,0,0,1,10.68-8,4.67,4.67,0,0,1,2.6-.81,1.36,1.36,0,0,1,.77.82c-.1.82-.45,1.09-.65,1.14l-.26.07a1.81,1.81,0,0,0-.38.06,3.19,3.19,0,0,0-2.71,1.15l-.11.06A15.79,15.79,0,0,0,38.06,46h0l-.29.33A208,208,0,0,1,8.16,68.42l-.68.33-.16.08a21,21,0,0,0-3,1.43l0,0h0q.4.89.83,1.77l.36-.24s3.87-1.8,7.37-3.75c.06,0,2.06-1.18,3-1.79h0A130.68,130.68,0,0,0,35,51.68c.2-.19.46-.47.71-.74,1.65-1.65,2.9-3.41,3.72-4.11a1.11,1.11,0,0,1,.61.14c-2.32,4.54-3.69,6.36-14.16,14.86-6.14,4.39-11.63,7.52-12.22,7.89-4,2.12-7.17,3.73-7.48,3.89L6,73.7l0,0H6q.32.6.67,1.19c2.86-1.26,10.78-4.59,14.87-7.39,11.16-8.29,15.9-9.79,20.71-20.74a2.84,2.84,0,0,1,.1-.31l.07-.21A11.28,11.28,0,0,1,44.68,43a4.72,4.72,0,0,1,1.61-.69A4.56,4.56,0,0,1,51,44.86L51,45l.12.28a8.36,8.36,0,0,1,.6,2.77v.12c0,.12,0,.24,0,.37a21,21,0,0,1-1.28,6.87h0c.21-.07,2.51-.92,2.51-.92a21.22,21.22,0,0,0,.58-5C53.57,45.28,52.27,39.74,45.92,37.77Z" fill="#00aeef"/></g></g></svg>