<svg xmlns="http://www.w3.org/2000/svg" viewBox="0 0 90 50.28"><title>regit-light</title><path d="M439.83,369.79a3,3,0,0,0,2.24-1,3.5,3.5,0,0,0,1-2.49,2.2,2.2,0,0,0-.62-1.65,2.31,2.31,0,0,0-1.69-.61,2.89,2.89,0,0,0-2.13,1.08,3.63,3.63,0,0,0-1,2.55,2.05,2.05,0,0,0,.62,1.53A2.2,2.2,0,0,0,439.83,369.79Z" transform="translate(-369.59 -356.14)" fill="#fff"/><path d="M459.51,366.63a0.57,0.57,0,0,0-.34-0.07H456.3l1-2.22q2-4.73,2-6.81a1.46,1.46,0,0,0-.32-1,1.21,1.21,0,0,0-.91-0.34,2.92,2.92,0,0,0-2.2,1.24q-1.66,2-3.69,9.26h-3.72a2,2,0,0,0-1.52.52,2.39,2.39,0,0,0-.51,1.7,0.81,0.81,0,0,0,1,1h3.46c-0.55,1.16-1.18,2.68-1.87,4.53h0a6.87,6.87,0,0,1-1.19,2.13q-2.25,2.21-3.4,3.2c-0.87.75-3.5,2.87-3.5,2.87q-4.83,4.08-5.8,4.08a0.53,0.53,0,0,1-.34-0.11,0.37,0.37,0,0,1-.14-0.31,3,3,0,0,1,.37-1.15L440.34,373h-4.17q-0.7,1.49-1.29,2.9a69.81,69.81,0,0,1-7.07,6.56h0a74.19,74.19,0,0,0-8.28,7.65,106.81,106.81,0,0,1,5.26-11.23h-4.36a22.6,22.6,0,0,1-5,6.9,5.43,5.43,0,0,1-3.29,1.63,1.36,1.36,0,0,1-1.13-.59,3.58,3.58,0,0,1-.45-2.09,8.11,8.11,0,0,1,2.72-6.22q2.72-2.5,7.56-2.5a15.93,15.93,0,0,1,2.48.23,7.66,7.66,0,0,0,1.18.17A0.38,0.38,0,0,0,425,376a10.11,10.11,0,0,0-.2-1.37,13.43,13.43,0,0,1-.23-1.59,13.94,13.94,0,0,0-3.07-.31q-7.46,0-11.44,3.48a11.32,11.32,0,0,0-3.4,4.93,0.22,0.22,0,0,0,0,.06c0,0.11-.07.21-0.1,0.32a1.85,1.85,0,0,1-.45.61l-0.25.23a32.56,32.56,0,0,1-5.69,4.43,8.44,8.44,0,0,1-3.93,1,3.53,3.53,0,0,1-2.27-.58,2.71,2.71,0,0,1-.83-1.87,27.61,27.61,0,0,0,6.05-1.52,12.31,12.31,0,0,0,4.93-3.36,6.32,6.32,0,0,0,1.58-4,3.59,3.59,0,0,0-1.2-2.76,4.75,4.75,0,0,0-3.34-1.1,12.92,12.92,0,0,0-7.69,2.81,11.62,11.62,0,0,0-4.3,5.74,2.81,2.81,0,0,1-1,1.27l-0.18.14q-4.59,4.14-5.66,4.14a0.31,0.31,0,0,1-.23-0.08,0.34,0.34,0,0,1-.08-0.25,2.13,2.13,0,0,1,.2-0.73l0.42-1q0.56-1.32,1.24-2.73,2.56-5.55,2.56-6.62a1.85,1.85,0,0,0-.76-1.58,5.55,5.55,0,0,0-3.32-.76l-0.93,0H380.4l0-.23q0.06-.56.06-0.79a2.52,2.52,0,0,0-.63-1.82,2.28,2.28,0,0,0-1.73-.66,2.63,2.63,0,0,0-2,.83,3.27,3.27,0,0,0-.78,2.32,4.83,4.83,0,0,0,.74,2.34,30.06,30.06,0,0,1-3.08,4.36,21.12,21.12,0,0,1-3.39,3v4.08a40.6,40.6,0,0,0,5.41-5,26.7,26.7,0,0,0,3.83-5.18,10.46,10.46,0,0,1,1.37-.11,1.82,1.82,0,0,1,1.11.27,0.81,0.81,0,0,1,.34.66q0,0.87-2.07,5.1-2.83,5.74-2.83,7.15a1.75,1.75,0,0,0,.7,1.3,2.47,2.47,0,0,0,1.69.62,10.57,10.57,0,0,0,4.12-1.3,22.65,22.65,0,0,0,5.43-3.91,5.82,5.82,0,0,0,1.62,3.48q1.72,1.68,5.29,1.68a10.94,10.94,0,0,0,4.72-1,29.7,29.7,0,0,0,5.83-4.23,6.84,6.84,0,0,0,1.31,3.62,4,4,0,0,0,3.12,1.73,5.22,5.22,0,0,0,2.77-.84,15.4,15.4,0,0,0,3.36-3.29,17,17,0,0,1-1.22,3.36,45.73,45.73,0,0,1-3.05,4.74q-4.42,6.28-4.42,9.18a1.88,1.88,0,0,0,.48,1.35,1.7,1.7,0,0,0,1.29.51,3.22,3.22,0,0,0,2.34-1.15q1.46-1.55,3.74-7l1.21-2.87q2-1.93,3.42-3.14t5.42-4.33l1.89-1.46,0.45-.35,0.23-.17v0l3.18-2.74q-2.59,5.15-2.59,6.45a1.44,1.44,0,0,0,.6,1.14,2.68,2.68,0,0,0,1.73.49,9.48,9.48,0,0,0,4-1,35.32,35.32,0,0,0,6.24-4.32v0a30.93,30.93,0,0,0,3.18-3q0.62-.68,1.24-1.24-0.65,1.63-1.13,2.79l-0.56,1.3a14.8,14.8,0,0,0-1.24,3.8,1.52,1.52,0,0,0,.6,1.17,2.44,2.44,0,0,0,1.65.52q4.93,0,11.85-5.32v-4a34.12,34.12,0,0,1-3.32,2.49,37.84,37.84,0,0,1-4.22,2.44,2.61,2.61,0,0,1-1,.3,0.36,0.36,0,0,1-.28-0.13,0.46,0.46,0,0,1-.11-0.32,3.39,3.39,0,0,1,.31-1.15L455,369.79h2.9a1.71,1.71,0,0,0,.76-0.14,0.64,0.64,0,0,0,.28-0.31l0.37-1.18a5,5,0,0,0,.28-1.32A0.26,0.26,0,0,0,459.51,366.63Zm-62.83,11a5.66,5.66,0,0,1,3.29-1.49,1.27,1.27,0,0,1,1,.41,1.53,1.53,0,0,1,.38,1.08,2.89,2.89,0,0,1-1.29,2.2q-1.83,1.52-6.64,2.42A12.09,12.09,0,0,1,396.68,377.62Z" transform="translate(-369.59 -356.14)" fill="#fff"/></svg>