<svg xmlns="http://www.w3.org/2000/svg" xmlns:xlink="http://www.w3.org/1999/xlink" viewBox="0 0 384.17 209.32"><defs><clipPath id="clip-path"><rect width="384.77" height="209.32" fill="none"/></clipPath></defs><title>Regit The Advantage</title><g id="Layer_2" data-name="Layer 2"><g id="Layer_1-2" data-name="Layer 1"><g clip-path="url(#clip-path)"><path d="M292.42,56.84a12.48,12.48,0,0,0,9.32-4.28,14.56,14.56,0,0,0,4-10.37,9.15,9.15,0,0,0-2.58-6.85,9.63,9.63,0,0,0-7-2.52q-4.69,0-8.85,4.51a15.15,15.15,0,0,0-4.16,10.61,8.55,8.55,0,0,0,2.58,6.39,9.15,9.15,0,0,0,6.68,2.52" fill="#00aeef"/><path d="M374.35,43.66a2.36,2.36,0,0,0-1.41-.29H361l4-9.26q8.44-19.69,8.44-28.36a6.07,6.07,0,0,0-1.35-4.33A5,5,0,0,0,368.25,0q-4.81,0-9.14,5.16-6.92,8.32-15.36,38.56H328.29q-4.22,0-6.33,2.17T319.85,53a4.54,4.54,0,0,0,.88,3.23,4.54,4.54,0,0,0,3.22.88h14.42c-2.3,4.84-4.9,11.15-7.79,18.86h0s-2.14,6.1-5,8.86Q316.26,94,311.47,98.1c-3.63,3.13-14.59,12-14.59,12q-20.09,17-24.14,17a2.2,2.2,0,0,1-1.41-.47,1.57,1.57,0,0,1-.59-1.29,12.42,12.42,0,0,1,1.53-4.81l22.26-50.4H277.18q-2.93,6.21-5.39,12.07a290.37,290.37,0,0,1-29.42,27.31v0q-15.18,11.64-34.46,31.86a444.59,444.59,0,0,1,21.92-46.77H211.67Q202.29,113.34,191,123.3q-7.85,6.8-13.71,6.8a5.69,5.69,0,0,1-4.69-2.47q-1.88-2.46-1.88-8.69A33.75,33.75,0,0,1,182.07,93q11.31-10.4,31.47-10.4a66.33,66.33,0,0,1,10.32.94,31.89,31.89,0,0,0,4.92.7,1.57,1.57,0,0,0,1.87-1.75,41.91,41.91,0,0,0-.82-5.69,55.42,55.42,0,0,1-.94-6.62,58.07,58.07,0,0,0-12.78-1.28q-31.06,0-47.64,14.47a47.11,47.11,0,0,0-14.15,20.54.83.83,0,0,0-.08.24c-.15.44-.3.89-.43,1.34a7.73,7.73,0,0,1-1.87,2.54l-1,.94Q135,123.36,127.22,127.43a35.2,35.2,0,0,1-16.35,4.3q-6.56,0-9.43-2.4T98,121.54q16.64-2.7,25.2-6.33,13.95-5.86,20.51-14t6.56-16.58a14.94,14.94,0,0,0-5-11.49q-5-4.57-13.89-4.57-16.06,0-32,11.72C90.38,87,84.47,95,81.47,104.17c0,0-.51,2.26-4,5.3l-.73.59q-19.1,17.23-23.56,17.23a1.26,1.26,0,0,1-.94-.35,1.43,1.43,0,0,1-.35-1.05,8.84,8.84,0,0,1,.82-3l1.76-4q2.34-5.51,5.16-11.37Q70.32,84.39,70.32,79.93a7.7,7.7,0,0,0-3.17-6.56q-4.1-3.17-13.83-3.17l-3.87.11H45l.12-.93q.24-2.34.24-3.28a10.49,10.49,0,0,0-2.64-7.56,9.49,9.49,0,0,0-7.19-2.75,11,11,0,0,0-8.38,3.46q-3.24,3.46-3.24,9.67,0,4.33,3.06,9.73A125.1,125.1,0,0,1,14.13,96.81,88,88,0,0,1,0,109.47v17a168.55,168.55,0,0,0,22.5-20.75Q33.17,94,38.44,84.15a43.53,43.53,0,0,1,5.68-.47,7.55,7.55,0,0,1,4.62,1.11,3.39,3.39,0,0,1,1.42,2.76q0,3.63-8.61,21.21-11.79,23.91-11.79,29.77,0,2.81,2.93,5.39a10.27,10.27,0,0,0,7,2.58q6,0,17.17-5.42,10.84-5.25,22.62-16.27,1.29,9.13,6.75,14.48,7.15,7,22,7a45.48,45.48,0,0,0,19.63-4.12q8.59-4,24.26-17.59c.66,6.29,2.46,11.33,5.45,15.08q5.74,7.21,13,7.21a21.73,21.73,0,0,0,11.54-3.52q5.69-3.52,14-13.71a70.69,70.69,0,0,1-5.1,14q-3,5.92-12.72,19.75Q160,189.52,160,201.59a7.85,7.85,0,0,0,2,5.63,7.07,7.07,0,0,0,5.39,2.11q5.16,0,9.73-4.81,6.09-6.45,15.59-29.07l5-12q8.32-8,14.24-13.07t22.57-18l7.85-6.09,1.88-1.46.94-.73V124l13.24-11.41q-10.78,21.45-10.78,26.84a6,6,0,0,0,2.52,4.75q2.52,2.05,7.21,2.05a39.49,39.49,0,0,0,16.7-4.15q8.85-4.15,26-18V124a129.18,129.18,0,0,0,13.24-12.46q2.58-2.82,5.16-5.16-2.7,6.8-4.69,11.6l-2.35,5.39q-5.16,12.54-5.16,15.82a6.33,6.33,0,0,0,2.52,4.86,10.16,10.16,0,0,0,6.86,2.17q20.5,0,49.34-22.15V107.36a141.58,141.58,0,0,1-13.83,10.38,157.52,157.52,0,0,1-17.58,10.15,10.88,10.88,0,0,1-4.22,1.27,1.5,1.5,0,0,1-1.17-.53,2,2,0,0,1-.47-1.35,14.19,14.19,0,0,1,1.29-4.8l26.61-65.63h12.07a7.12,7.12,0,0,0,3.17-.59A2.68,2.68,0,0,0,372,55L373.53,50a21,21,0,0,0,1.17-5.51,1.08,1.08,0,0,0-.35-.88M112.75,89.42q7.85-6.21,13.71-6.21a5.3,5.3,0,0,1,4,1.7,6.38,6.38,0,0,1,1.58,4.51q0,4.81-5.39,9.14Q119.08,104.9,99,108.65q5.86-13,13.71-19.22" fill="#00aeef"/></g><path d="M116.93,165.23h-6.87V183.9h-4.62V165.23H98.68v-3.74h18.26Z" fill="#00aeef"/><path d="M137.81,183.9h-4.62v-9.61h-9v9.61h-4.62V161.49h4.62v9.08h9v-9.08h4.62Z" fill="#00aeef"/><path d="M155.33,174.19h-8.87v6h10.41v3.71h-15V161.49h15v3.74H146.46v5.34h8.87Z" fill="#00aeef"/><g clip-path="url(#clip-path)"><path d="M217.82,179.28h-8.1l-1.54,4.62h-4.91l8.34-22.41h4.28l8.39,22.41h-4.91ZM211,175.54h5.6l-2.82-8.39Z" fill="#00aeef"/><path d="M226.38,183.9V161.49h6.9a10.78,10.78,0,0,1,4.15.78,9.35,9.35,0,0,1,3.23,2.19,10,10,0,0,1,2.1,3.38,12.14,12.14,0,0,1,.75,4.37v1a12.19,12.19,0,0,1-.75,4.36,9.79,9.79,0,0,1-2.11,3.37,9.39,9.39,0,0,1-3.26,2.18,11,11,0,0,1-4.17.77ZM231,165.23v15h2.23a5,5,0,0,0,4.17-1.81,8.15,8.15,0,0,0,1.43-5.17v-1a8.13,8.13,0,0,0-1.42-5.18,5,5,0,0,0-4.14-1.76Z" fill="#00aeef"/><path d="M254.83,178.34l5.08-16.86h5.14l-7.81,22.41h-4.82l-7.77-22.41h5.13Z" fill="#00aeef"/><path d="M278.68,179.28h-8.1L269,183.9h-4.91l8.34-22.41h4.28l8.39,22.41h-4.91Zm-6.85-3.74h5.6l-2.82-8.39Z" fill="#00aeef"/><path d="M305.47,183.9h-4.62l-9-14.75V183.9h-4.62V161.49h4.62l9,14.78V161.49h4.6Z" fill="#00aeef"/><path d="M325.94,165.23h-6.87V183.9h-4.62V165.23h-6.77v-3.74h18.26Z" fill="#00aeef"/><path d="M339.39,179.28h-8.1l-1.54,4.62h-4.91l8.34-22.41h4.28l8.39,22.41h-4.91Zm-6.85-3.74h5.6l-2.82-8.39Z" fill="#00aeef"/><path d="M365.4,181.07a7.47,7.47,0,0,1-1.09,1,8.25,8.25,0,0,1-1.74,1,12.81,12.81,0,0,1-2.47.79,15.21,15.21,0,0,1-3.27.32,10.6,10.6,0,0,1-4-.72,8.31,8.31,0,0,1-3.07-2.1,9.57,9.57,0,0,1-2-3.4,14,14,0,0,1-.7-4.62V172a14.69,14.69,0,0,1,.67-4.63,9.64,9.64,0,0,1,1.89-3.41,8,8,0,0,1,3-2.11,10,10,0,0,1,3.86-.72,11.68,11.68,0,0,1,3.78.55,7.42,7.42,0,0,1,2.66,1.53,7,7,0,0,1,1.67,2.35,10.4,10.4,0,0,1,.79,3h-4.5a6.58,6.58,0,0,0-.43-1.53,3.49,3.49,0,0,0-.8-1.17,3.43,3.43,0,0,0-1.25-.75,5.4,5.4,0,0,0-1.78-.26,4.09,4.09,0,0,0-3.6,1.79,9.42,9.42,0,0,0-1.23,5.32v1.35a8.86,8.86,0,0,0,1.34,5.33,4.59,4.59,0,0,0,3.93,1.8,8.5,8.5,0,0,0,1.45-.11,6.15,6.15,0,0,0,1.05-.27,3.63,3.63,0,0,0,.73-.35,3.07,3.07,0,0,0,.48-.38v-3.86h-4.2v-3.4h8.82Z" fill="#00aeef"/><path d="M382.63,174.19h-8.87v6h10.41v3.71h-15V161.49h15v3.74H373.76v5.34h8.87Z" fill="#00aeef"/></g></g></g></svg>