<svg xmlns="http://www.w3.org/2000/svg" viewBox="0 0 221.6 332.24"><title>regit-logo</title><path d="M86.92,549.43a6.14,6.14,0,0,0,4.59-2.11,7.16,7.16,0,0,0,2-5.11,4.51,4.51,0,0,0-1.27-3.38,4.74,4.74,0,0,0-3.46-1.24,5.93,5.93,0,0,0-4.36,2.22,7.45,7.45,0,0,0-2,5.22,4.21,4.21,0,0,0,1.27,3.14,4.51,4.51,0,0,0,3.29,1.24" transform="translate(75.61 -292.26)" fill="#00aeef"/><path d="M127.26,542.94a1.17,1.17,0,0,0-.69-0.14h-5.89l2-4.56q4.16-9.69,4.16-14a3,3,0,0,0-.66-2.14,2.48,2.48,0,0,0-1.87-.69q-2.37,0-4.5,2.54-3.4,4.1-7.56,19h-7.62a4.16,4.16,0,0,0-3.12,1.07,4.88,4.88,0,0,0-1,3.49,1.66,1.66,0,0,0,2,2h7.1c-1.13,2.39-2.41,5.49-3.84,9.29h0a14.09,14.09,0,0,1-2.44,4.36q-4.61,4.52-7,6.55c-1.79,1.54-7.18,5.88-7.18,5.88Q79.23,584,77.23,584a1.08,1.08,0,0,1-.69-0.23,0.76,0.76,0,0,1-.29-0.64,6.11,6.11,0,0,1,.75-2.36L88,556H79.42Q78,559,76.77,561.9a143,143,0,0,1-14.48,13.44h0a152.31,152.31,0,0,0-17,15.69,219.2,219.2,0,0,1,10.79-23H47.17Q42.55,577.25,37,582.15q-3.87,3.35-6.75,3.35A2.79,2.79,0,0,1,28,584.28Q27,583.07,27,580a16.61,16.61,0,0,1,5.57-12.76q5.57-5.12,15.49-5.12a32.59,32.59,0,0,1,5.08.46,15.76,15.76,0,0,0,2.42.34,0.78,0.78,0,0,0,.92-0.86,20.62,20.62,0,0,0-.4-2.8,27.8,27.8,0,0,1-.46-3.26,28.56,28.56,0,0,0-6.29-.63q-15.29,0-23.46,7.13a23.21,23.21,0,0,0-7,10.11,0.45,0.45,0,0,0,0,.12c-0.07.22-.15,0.44-0.21,0.66a3.79,3.79,0,0,1-.92,1.25l-0.51.46q-7.81,7.07-11.67,9.08a17.32,17.32,0,0,1-8.05,2.12q-3.23,0-4.64-1.18a5.57,5.57,0,0,1-1.7-3.84A56.6,56.6,0,0,0,3.6,578.17q6.87-2.89,10.1-6.9a13,13,0,0,0,3.23-8.17,7.36,7.36,0,0,0-2.45-5.66,9.74,9.74,0,0,0-6.84-2.25q-7.91,0-15.75,5.77a23.82,23.82,0,0,0-8.82,11.76,5.77,5.77,0,0,1-2,2.61l-0.36.29q-9.41,8.48-11.6,8.48a0.63,0.63,0,0,1-.46-0.17,0.71,0.71,0,0,1-.17-0.52,4.34,4.34,0,0,1,.4-1.5l0.87-2q1.15-2.71,2.54-5.6,5.25-11.37,5.25-13.56A3.79,3.79,0,0,0-24,557.57Q-26,556-30.79,556l-1.9.06h-2.19l0.06-.46q0.12-1.15.12-1.62a5.16,5.16,0,0,0-1.3-3.72,4.67,4.67,0,0,0-3.54-1.36,5.39,5.39,0,0,0-4.12,1.7,6.69,6.69,0,0,0-1.6,4.76,9.91,9.91,0,0,0,1.51,4.79,61.62,61.62,0,0,1-6.32,8.95,43.36,43.36,0,0,1-7,6.23v8.37A83.23,83.23,0,0,0-46,573.5a54.72,54.72,0,0,0,7.85-10.62,21.38,21.38,0,0,1,2.8-.23,3.72,3.72,0,0,1,2.27.55,1.67,1.67,0,0,1,.7,1.36q0,1.79-4.24,10.45-5.8,11.77-5.8,14.66a3.59,3.59,0,0,0,1.44,2.66,5.07,5.07,0,0,0,3.46,1.27q2.94,0,8.45-2.67a46.43,46.43,0,0,0,11.13-8A11.93,11.93,0,0,0-14.58,590q3.52,3.44,10.85,3.43a22.43,22.43,0,0,0,9.67-2q4.23-2,11.95-8.66a14,14,0,0,0,2.68,7.43q2.82,3.55,6.4,3.55A10.69,10.69,0,0,0,32.65,592q2.8-1.73,6.9-6.75a34.78,34.78,0,0,1-2.51,6.9,93.73,93.73,0,0,1-6.26,9.72q-9.06,12.87-9.06,18.81a3.86,3.86,0,0,0,1,2.77,3.47,3.47,0,0,0,2.65,1,6.59,6.59,0,0,0,4.79-2.37q3-3.18,7.67-14.31l2.48-5.89q4.1-4,7-6.43t11.11-8.88l3.86-3,0.93-.72,0.46-.36v0l6.52-5.62q-5.31,10.56-5.31,13.21a3,3,0,0,0,1.24,2.34,5.5,5.5,0,0,0,3.55,1,19.44,19.44,0,0,0,8.22-2q4.36-2,12.78-8.86v0a63.39,63.39,0,0,0,6.52-6.14q1.27-1.38,2.54-2.54-1.33,3.35-2.31,5.71l-1.15,2.65q-2.54,6.18-2.54,7.79A3.11,3.11,0,0,0,95,592.39a5,5,0,0,0,3.38,1.07q10.1,0,24.29-10.91V574.3a70,70,0,0,1-6.81,5.11,77.54,77.54,0,0,1-8.66,5,5.35,5.35,0,0,1-2.08.63,0.74,0.74,0,0,1-.58-0.26,1,1,0,0,1-.23-0.66,7,7,0,0,1,.63-2.37L118,549.43H124a3.51,3.51,0,0,0,1.56-.29,1.32,1.32,0,0,0,.58-0.64l0.75-2.42a10.36,10.36,0,0,0,.58-2.71,0.54,0.54,0,0,0-.17-0.43M-1.54,565.47q3.86-3.06,6.75-3.06a2.61,2.61,0,0,1,2,.84A3.13,3.13,0,0,1,8,565.47q0,2.37-2.65,4.5-3.75,3.12-13.62,5,2.88-6.41,6.75-9.46" transform="translate(75.61 -292.26)" fill="#00aeef"/><path d="M55.89,415.4a8.32,8.32,0,0,1,4.34-2.4v-0.08c2.27-16.44-3.14-35.24-22-45.61-2.85-1.08-4.08-1-4.32-.41a1.78,1.78,0,0,0,.51,1.5,9.15,9.15,0,0,0,3.71,2.81c0.11,0,9.76,3.8,14.9,17.7,2.21,6.65,3.38,15.2,2.86,26.23,0,0,0,.07,0,0.11h0v0s0,0.08,0,.11" transform="translate(75.61 -292.26)" fill="#00aeef"/><path d="M45.24,431.45h0L51,422.13l0-.17a122.92,122.92,0,0,0,1.28-15.59c0.1-11.14-2.1-21.28-9.38-28.26A30.43,30.43,0,0,0,34.54,372a18.33,18.33,0,0,1-2.13-2.2c-0.15-.17-0.3-0.35-0.45-0.55-12.55-5.62-23.81,2.33-33.43,6.8-24.34,17-46.78,37.11-60.9,49.8L-64.89,428c-0.85.73-6.4,5.79-6.4,5.79l0,0.1,0,0q0.5,1.74,1.06,3.46l0,0,0.36,1.14,5.31-4a125,125,0,0,0,10-7.7c7.17-5.53,15.37-14.17,21.62-19.19,11.13-8.94,21-15,28.26-21,5-3.7,9.19-7.85,12.23-9.47,16.66-11.94,31.51.37,35.19,7.29,3.92,6.75,5.07,14.24,5.05,20.77a59.38,59.38,0,0,1-2.6,17l0,9.2v0.13Z" transform="translate(75.61 -292.26)" fill="#00aeef"/><path d="M63.29,504.76c0.92-1.13,3-3.81,3.05-3.9C77.87,487.8,94.49,461.61,93.57,420c1.41-15.5.31-29.71-5.78-41.34a55.6,55.6,0,0,0-2.91-6.34c-0.85-1.59-1.78-3.14-2.79-4.65C80.24,363,70.51,354,69.34,353.19a81.4,81.4,0,0,0-9.08-7.39h0a45.93,45.93,0,0,0-4.2-2.72l-0.91-.55h0c-4.64-2.66-9.88-5.2-9.88-5.2a76.88,76.88,0,0,0-8-1.76,82.54,82.54,0,0,0-10.08-1,84,84,0,0,0-10.35.21,2.46,2.46,0,0,0-1.34.12L14.2,335C14,335-20.3,340.47-34.25,349c-3.47,1.38-6.54,3.53-9.9,5.11-9.29,3.6-26.53,19.66-27.27,20.09-0.72,2.93-2.29,8.22-2.77,11.23,0.27-.09,21.79-19,29.59-24.12,0.18-.55,16.3-9.8,24.47-13.32C-6.83,343.64,7,340.31,22,339.38c1.91-.09,25.87-5.41,51.43,26.43C88,379,90.78,398.3,89.54,419.65c0,0.64-.24,3.1-0.61,6.66,0,0.29-.31,2.79-1,7.84,0,0-1.93,11.43-10.59,28.07a237.07,237.07,0,0,1-17.2,27.64,9.31,9.31,0,0,0-1.43,1.74l-3.55,5.29c-0.81,1.23-9.45,8.68-8.06,8.06a3.55,3.55,0,0,0-.66.83c0.1,0.19.21,0.37,0.32,0.55a7.7,7.7,0,0,0,1.7,2l0,0c2.31-1.69,9.07-7.42,9.41-8.15,1.94-3.14,6.63-9.44,10-13.57,1.57-2.37,4.74-8.71,6.17-11.2,3.33-5.45,11.36-22.54,13.72-26.56-0.61,2.33-5.63,15.45-6.37,17.43-8.75,23.23-19.76,33.87-22.8,37.16-0.13,0-5.31,5.26-6.89,6.61l0,0a40.08,40.08,0,0,0,4,.91H55.36c0.1,0,1,.13,1.42.15l0.15-.14a82,82,0,0,0,6.36-6.19" transform="translate(75.61 -292.26)" fill="#00aeef"/><path d="M146,403.06v0q-0.45-2.6-.87-5.22c-3.12-5.12-3.93-11.44-6.61-16.79-0.16-.42-0.34-0.83-0.52-1.25-22.83-42.09-51.67-67.54-94.19-75.9-3.25-.64-11.93-3.9-30.59-3.72-20.26.2-22.13,1.92-24.6,2.36a110.79,110.79,0,0,0-13.16,7.23L-8.32,306,4,304.7c8-1.25,37-1.55,72,13.15,2.36,1,18.14,12,28.18,21.5a115.57,115.57,0,0,1,10.9,11.71h0a102.17,102.17,0,0,1,8.21,11l0,0C146,398.18,143,428.75,143,428.75a111,111,0,0,0,3-25.68" transform="translate(75.61 -292.26)" fill="#00aeef"/><path d="M140.46,433.72c-0.06-1.29-.19-2.91-0.43-5h0a35.37,35.37,0,0,1,.15-7.81c0.8-3.9-2.29-15.39-3.79-21.17a131.43,131.43,0,0,0-24.89-48.72c-0.09-.1-17.58-18.85-30.28-27.64l-0.06,0a46,46,0,0,0-8.87-4.57c-1.07-.43-2.18-0.85-3.33-1.26-3.14-1.11-6.55-2.14-10.11-3.08-5.14-1.36-10.6-2.55-16-3.59l-2.69-.5c-7.59-1.39-15-2.48-21.29-3.35A62.13,62.13,0,0,0,5,307h-1l-0.15.12c-1.27.13-4.78,0.5-4.9,0.62-2.71.4-5.41,0.89-8,1.42-0.16,0-5.9,1.3-8.21,1.87a7,7,0,0,0-2.2.56c-7.7,2-13.09,3.88-13.09,3.88a111.39,111.39,0,0,0-12,10.83,123.88,123.88,0,0,1,25.45-10.7c16.67-5,38.68-9.21,68.58-.43,27.7,8.14,54.2,26.63,68.81,53.22,12.85,23.4,18.9,52.32,17.24,82a110,110,0,0,0,4.77-11.79,1.92,1.92,0,0,0,.16-0.55,18.63,18.63,0,0,0,.13-4l0,0.15s0-.15,0-0.42" transform="translate(75.61 -292.26)" fill="#00aeef"/><path d="M91.68,312.22c6.06,3.53,18,13.67,18,13.68,1.19,1.13,1.83,1.79,1.83,1.79L123,338.41s5.55,7.16,8.41,9.61a111.26,111.26,0,0,0-15-20.33h0a111,111,0,0,0-38.62-26.93l0,0c-1.49-1.29-7.79-2.9-7.79-2.9h0a110.48,110.48,0,0,0-31-5.51h0q-1.86-.06-3.74-0.06c-2.92,0-5.8.12-8.66,0.35,5.52,0.29,11.44,1,17.68,1.68,31.59,5.84,41.41,14.4,47.47,17.93" transform="translate(75.61 -292.26)" fill="#00aeef"/><path d="M43.32,300.23c2.33,0.51,4.61,1.07,6.86,1.67a131.48,131.48,0,0,1,50.11,25.31,139.46,139.46,0,0,1,12,11l1.15,1.2a183.69,183.69,0,0,1,28.91,41.09c0.7,1.33,1.39,2.68,2.08,4-10-34.05-20.2-38.27-23.84-43.4-2-2.36-6.49-8.36-8-9.6-3.64-3-25.16-18.33-33.37-23.11S57.88,299.31,50,297.84c0,0-22.52-4-36.53-3.44q-4.62.92-9.09,2.22a165.37,165.37,0,0,1,38.93,3.62" transform="translate(75.61 -292.26)" fill="#00aeef"/><path d="M55.14,342.54c-0.75-.48-1.54-0.94-2.36-1.38l2.36,1.38" transform="translate(75.61 -292.26)" fill="#00aeef"/><path d="M128,404.63c-1.47-4-3.82-14.69-6.19-20.6q-1.59-4-3.41-7.74A120.86,120.86,0,0,0,110,361.54c-0.76-1.13-1.53-2.24-2.32-3.34a9.37,9.37,0,0,1-.75-1,67.78,67.78,0,0,0-5-6.28c-23-23.56-55.83-36.64-76.84-37a171.11,171.11,0,0,0-20,.43,126.85,126.85,0,0,0-23.38,4.64l-0.84.26a21.23,21.23,0,0,0-3.66,1.18l-0.19.13c-1.37.52-2.88,1.13-4.57,1.84a20.45,20.45,0,0,0-3.18,1.36c-4.78,2.07-10.22,5-14.47,7.34a10.82,10.82,0,0,0-2.43,1.38c-3,1.71-4.94,2.91-4.94,2.91q-2.29,3-4.38,6.08a101.73,101.73,0,0,1,18.72-11.13l6-2.58a137.21,137.21,0,0,1,28.62-7.86A141,141,0,0,1,30,318.31a84.13,84.13,0,0,1,17.42,3.1c1.39,0.42,4.62,1.65,4.95,1.78a145.8,145.8,0,0,1,18.53,9.19,142,142,0,0,1,21.07,15C105.25,358.81,114,371.18,118,384.17a46.93,46.93,0,0,1,2.91,17.45c0.15,2.43.23,4.94,0.25,7.5,0.16,49.32-7.56,69.45-7.56,69.45-0.43,1.42-.89,2.8-1.36,4.14a110.91,110.91,0,0,0,8.81-9.58c0.09-.41.17-0.82,0.25-1.23,0.09-.75.17-1.58,0.26-2.47h0v-0.11c0.07-.76.14-1.55,0.2-2.39,0.28-3.24,1.11-10,2.13-23,0.79-10.08,1-35.13,1-35.13,2.77,10.49,3.08,22.27,3.1,25.05,0.05,7-1.37,31.29-1.4,31.9,1.92-2.78,3.72-5.65,5.38-8.61,0-.45.08-0.91,0.12-1.37,0.24-2.81.17-24.61-.74-33.12a106.22,106.22,0,0,0-3.25-18" transform="translate(75.61 -292.26)" fill="#00aeef"/><path d="M126.53,465.79h0l0,0.06Z" transform="translate(75.61 -292.26)" fill="#00aeef"/><path d="M13.27,510.42a5.69,5.69,0,0,0,2.66-1.61l1.63-2.49L18.32,504l-9.89,6.62a8.79,8.79,0,0,0,4.84-.25" transform="translate(75.61 -292.26)" fill="#00aeef"/><path d="M-43,402.21c17.82-16.63,30.67-25.1,43.88-31.73,10.17-5.1,15.31-9.32,29.42-8.26,0,0,33.58,1.87,35.25,51,0,0,0,0,0,.06,0.95,0.27,2,.61,3.08,1l1.06,0.43s0,0,0-.05c0.37-8.76-3-23.73-4.45-27.59-2.53-6.82-7.28-14.46-9.37-16.22-1.62-1.93-10.85-13.64-32-12.48-12,.35-22.23,4.44-31.7,9.68l0,0c-4.84,2.46-19.69,12.92-25.94,17.24-13.82,9.53-28.36,31-40,37.54q0.53,2.94,1.22,5.83c11.1-6.12,20.5-18.09,29.58-26.56" transform="translate(75.61 -292.26)" fill="#00aeef"/><path d="M45.24,465c0.22-.23,6-9.53,9.89-16.52a64.49,64.49,0,0,0,4.14-8.07h0c0.09-.21.17-0.43,0.24-0.64a42.38,42.38,0,0,0,2.38-7L61,432.42a24.42,24.42,0,0,0-3.95-1.32,45.81,45.81,0,0,0-3.48,10.12c-1.61,4-8.34,17.25-8.34,17.25V465Z" transform="translate(75.61 -292.26)" fill="#00aeef"/><path d="M45.24,477A155.5,155.5,0,0,0,60.88,454.5c0.25,0.08,4.68-12.09,7-19.19l-3.44-1.44c-0.44,1.52-1,3.31-1.24,4.19h0a131.35,131.35,0,0,1-6,14.23c-2.77,5.54-11.29,16.6-12,17.62V477Z" transform="translate(75.61 -292.26)" fill="#00aeef"/><path d="M-17.79,500.37c1,0.57,2.1,1.12,3.17,1.66a103.21,103.21,0,0,0,12.91-6.87c7.49-3.86,13.81-10,20.54-15.31h0s0-4.42,0-4.42c-11.29,7.49-23.08,16.29-36.62,24.95" transform="translate(75.61 -292.26)" fill="#00aeef"/><path d="M-8.66,504.81q2.37,1,4.8,1.94A115.24,115.24,0,0,0,18.83,491h0v-6.26h0c-0.25.07-17.8,14.92-27.48,20.05" transform="translate(75.61 -292.26)" fill="#00aeef"/><path d="M5.08,505.58c-0.52.38-1.05,0.73-1.59,1.07L2.8,507c-0.32.19-.63,0.38-1,0.55l-1,.53-0.32.16c1.58,0.52,3.17,1,4.78,1.44l13.46-9.07h0c0-.68.06-1.42,0.06-2.21v-1.67h0a154.07,154.07,0,0,1-13.74,8.79" transform="translate(75.61 -292.26)" fill="#00aeef"/><path d="M-64,409.21h0s9.08-12,18.09-19.46,22.56-18.82,35.44-25.89c10.44-4.52,22.82-9,35.82-8.62C66.4,353.59,72.56,396.12,73,416.11c0,0,0,0,0,.06l4.3,1.75v-0.05c-0.05-21-4.53-39.72-16.89-54.38-9.35-6.86-15.18-11.64-41.59-12.21C-7,353.57-35.64,374.49-41,378.25s-13.14,8.52-18.12,12.55c-2,1.52-13.48,9.5-16.44,11.33,0,0.31,0,.62,0,0.93q0,2.45.11,4.87c4.21-2.37,13.64-9.69,18.62-14.58-4.77,5.87-14.41,17.4-18.34,19q0.27,3.21.71,6.35c3.81-2.81,7.61-5.75,10.48-9.49" transform="translate(75.61 -292.26)" fill="#00aeef"/><path d="M31.68,391c-0.21-.08-0.43-0.16-0.66-0.23-3.32-1-6.12,1.81-8.79,6.3-1.15,1.93-2.27,4.17-3.41,6.56-3.77,8-13.59,18.55-13.59,18.55-1.79,1.65-4.16,3.77-7.31,6.54a194.63,194.63,0,0,1-25.24,18.13A257.57,257.57,0,0,1-53,460c-1.73.92-3.44,1.89-5.24,2.69l0.07,0.1-0.07,0q0.62,1,1.26,1.93c0.75,1,.75,1.19,1,1l3-1.31s10.3-4.68,11.41-5.67c3.16-1.87,10.48-4.57,26.49-14C-7.64,440.41,0,432.05,9.53,425.09l-0.12,0L9.53,425c-0.49-.16-1.59-0.48-1.59-0.48v-3.83c3-.24,4.5-0.44,7.46-0.9l1.29-2v0a15.78,15.78,0,0,0,1.51-2.32c2.15-4,4.74-9.7,7-14.17,1.72-3.37,3.26-6.07,4.32-6.9,1.1-.37,2.14-0.21,2.38,1.27a3.17,3.17,0,0,0,.08,1.27,16.29,16.29,0,0,1-.81,3.31,7.29,7.29,0,0,0-.32.87,53,53,0,0,1-2.3,5.17l-0.15.29-0.32.61v0c-2.74,5.28-6.19,11.45-6.2,11.47l0.08,0c1.32-.28,3.55-0.79,5.42-1.24l2.22-.55s0.64-2,2.12-6.6l0.24-.73a53.83,53.83,0,0,0,2.9-10.07c0.77-5-.46-7.33-3.2-8.41" transform="translate(75.61 -292.26)" fill="#00aeef"/><path d="M-16.59,476c4.76-2.1,13.12-9.16,13.57-9.49,5.3-3.83,9.62-7.39,9.62-7.39h0A89.59,89.59,0,0,0,18.83,448h0v-4.74h0C12.24,450-12.3,472.52-42.76,481.77q1.83,1.81,3.75,3.55l4.06-1.25c1.69-.52,5.2-1.66,5.26-1.71,2.34-.8,11.31-5.58,13.11-6.37" transform="translate(75.61 -292.26)" fill="#00aeef"/><path d="M15.4,426.72l-3.32-1s-16.85,21.06-35.31,27.92c-11.39,6.68-28.31,13.62-31.16,14.65q1.35,1.84,2.76,3.63c6.31-1.42,33.14-11.75,47.84-25.12,15.72-14.31,19.18-20.05,19.18-20.05" transform="translate(75.61 -292.26)" fill="#00aeef"/><path d="M18.82,434.85h0c0-.86,0-1.61,0-2.28a6.87,6.87,0,0,0-1-3.9C12.13,438-1.68,452.83-12.62,458-24.56,465.35-35.82,470-49,475.08q1.52,1.78,3.12,3.49c3.34-1.19,17.62-6.25,21.32-8.51,15.67-8.91,31.38-19.19,43.37-35.2" transform="translate(75.61 -292.26)" fill="#00aeef"/><path d="M48.69,434.52l-0.92,1.26c-1.11,3.19-2,6.77-2.53,8.44v7.61C48,447.42,52,437.27,53.32,431c-1.77.4-3.19,1.56-4.63,3.55" transform="translate(75.61 -292.26)" fill="#00aeef"/><path d="M5.24,470.69l0.05,0c4.11-3.89,9-7.37,13.53-11.21h0v-6.09h0c-2.83,2.86-5.62,5.8-8.5,8.56-0.79.63-1.94,1.67-3.54,3.23-1.53,1.32-13.07,9.12-14,10-2,1.18-4,2.34-6.08,3.45a13.72,13.72,0,0,0-3.08,1.63l0,0-0.09.06c-9.26,4.87-17.33,8.43-17.33,8.43h0l-0.78.27q1.68,1.36,3.4,2.66c7.15-3,14-6.6,20.84-10.19,0.07,0,11.66-7.32,15.66-10.84" transform="translate(75.61 -292.26)" fill="#00aeef"/><path d="M18.83,470.64v-3.82h0c-0.64.34-2.06,0.95-2.6,1.3-1.44.72-10.57,6.9-11.9,7.76,0,0-4.23,2.74-7.79,5-1.5,1-2.87,1.83-3.77,2.39l-0.69.42c-6.41,3.9-18.22,10.3-18.22,10.3a9.49,9.49,0,0,1-1.18.53q1.77,1.22,3.6,2.36A149.06,149.06,0,0,0-6.8,488c9.16-4.3,15.91-11.5,25.63-17.39" transform="translate(75.61 -292.26)" fill="#00aeef"/><path d="M99.76,442.1c5.09-28.75,2.9-53.74-7.83-74.33-0.62-.94-10.09-13.12-14.62-17.93-18.49-19.62-44.68-23.17-44.68-23.17A96.49,96.49,0,0,0,15,327c-7.7,1.28-7.7,1.28-11.61,1.81a160.44,160.44,0,0,0-21.86,5.38l-3.17.63s-12.79,4.58-23.48,9.31L-47,345a148.16,148.16,0,0,0-16.77,10.38,17.18,17.18,0,0,0-1.72,1.73A3.34,3.34,0,0,0-66,358q-2.1,4.71-3.77,9.63a159.83,159.83,0,0,1,23-16.36c7.44-3.72,15.19-7.51,19.49-9.37h0c10-4.32,26.31-7.36,26.31-7.36s17.66-4.61,32.67-3.36c2,0.17,3.84.33,5.44,0.5a30,30,0,0,1,10.8,3.45c0.75,0.38,6,2.63,7.81,3.3,0.75,0.55,1.59,1.13,2.48,1.74s1.69,1.23,2.59,1.92c21.69,16.44,27.83,29.5,27.83,29.5h0c15.42,26,10.94,60.09.86,98.74-9,20.61-12.31,20.16-16.37,26.67-1.15,1.43-9.23,11-9.23,11a30.54,30.54,0,0,1-3.46,2.87h0.22v0.11q3.94-.93,7.77-2.14c0.05-.14.1-0.27,0.15-0.42C73,501.6,82.95,494,87.6,483.2c6.44-13.66,8-26.81,12.16-41.1" transform="translate(75.61 -292.26)" fill="#00aeef"/><path d="M118.08,412.39c0.05-4,0-7.92-.3-11.63,0.09-5.38,0-10.66-2.42-14.76a62.39,62.39,0,0,0-6.74-15.08C97.1,352,76.18,337.31,57.13,328.53a15.82,15.82,0,0,0-3.78-1.68c-1-.43-2-0.86-3-1.26-12.32-4.89-32-6-51.75-3l-1.64.26A136.26,136.26,0,0,0-27.22,329c-0.8.29-1.58,0.59-2.37,0.89l-0.07,0,0,0a106.92,106.92,0,0,0-20.92,10.7l0,0h0q-1.48,1-2.91,2a49.35,49.35,0,0,0-7.2,4.83v1a225.42,225.42,0,0,1,27.36-13.73,64.57,64.57,0,0,1,11.94-3.69c13.84-2.47,37.81-8.39,48-7.22,0.51,0.06,10.87,1.22,11.24,1.3a7.76,7.76,0,0,0,2.31.5A71.75,71.75,0,0,1,52.78,330c2.27,1.13,4.52,1.49,6.52,2.79a13.08,13.08,0,0,0,2.29,1.54c24.37,14.69,31.8,29.53,31.8,29.53a47.92,47.92,0,0,1,6.84,13.19c9.62,22,6.18,53.55-.43,81.85-2.07,7.71-6.59,23.55-10.69,31.09a97.87,97.87,0,0,1-15,16.8q5-1.87,9.74-4.2c5-6.39,10.66-11.62,14.31-20.67l5.57-17.5c5.93-25.12,6.28-47.35,6.5-69.52-3.63-17.77-8.77-22.64-12.65-32.48,7.15,5.76,10.2,13.63,12.61,21.82h0v0q0.38,1.3.75,2.6a42.13,42.13,0,0,1,.92,5.8c2.14,29,2.64,78.94-18.47,104.26l-0.68.84a111.13,111.13,0,0,0,12.12-8.53,55.3,55.3,0,0,0,3.94-6.54,298.31,298.31,0,0,0,9.34-69.19c0-.38,0-0.76,0-1.14" transform="translate(75.61 -292.26)" fill="#00aeef"/><path d="M82.49,443.8C84.9,437.49,85.32,426,85.32,426h0q2.15-20.32-2.63-37.06c-0.25-4.05-2.72-9.18-9.27-19.55C41.72,328.52-6.49,345.14-21.16,354c-6.36,3-12.54,6.29-18.7,9.65-11,6.5-33.45,24.9-34.85,25.21q-0.56,4.38-.77,8.85c12.62-9.92,25.4-19.5,38.47-28.57,0.26-.83,33.68-22.83,60.09-21.26,7.67-1.61,52.83.81,58.2,59.82a108.64,108.64,0,0,1,.16,18.93,71.54,71.54,0,0,1-1.3,8.15s-3.87,12.07-4.88,14c0,0-9.88,20.2-9.91,20.23S47,494,45.24,495.76v3.56c0,0.79,0,1.54.11,2.24,0.38-.25.74-0.51,1.1-0.78,0,0,9.5-13.31,20.84-28.89,9.21-13.07,15.16-27.3,15.2-28.1" transform="translate(75.61 -292.26)" fill="#00aeef"/><path d="M45.24,489.45c13.53-12.47,27.4-43.77,29.15-49.06v0c1.61-4.69,3-9,3-10.08,0-.35-0.22-4.73-0.15-6.83,0,0-9.1,19.42-9.28,20-1.07,3.52-5,12.22-7.72,17.63a132.69,132.69,0,0,1-15,22.6v5.77Z" transform="translate(75.61 -292.26)" fill="#00aeef"/><path d="M26.16,376a14.34,14.34,0,0,0-11.45,1.76h0c-2.59,1.1-8.27,5.66-13.71,10.39l-1.82,1.59-2.25,1.82c-0.75.47-9.53,6.86-10.41,7.48C-23,405.67-35.8,417.14-41,421.48c-6.85,5-13.68,10-20.29,15.38-0.26.29-.52,0.57-0.79,0.85l-0.48.31c-3.55,2.32-6,3.91-6,3.91l0,0.11,0,0q0.51,1.36,1.05,2.71c0.08-.08.18-0.15,0.27-0.23,4.48-1.51,9.84-4.46,15.61-8.2l2.56-1.45,2.08-1.66c6.87-4.76,14.1-10.34,21-15.8,7.16-5.35,13.92-10.47,14-10.78,2.94-2.66,5.82-5.46,8.5-8.33,7.67-7,14.81-11.74,23.66-17.7,1.63-.91,3.84-2.06,5.77-1.8a3,3,0,0,1,1.7,1.82c-0.22,1.81-1,2.41-1.43,2.54l-0.57.16a4.11,4.11,0,0,0-.84.14c-2.58-.26-4.4.92-6,2.54l-0.25.13a35,35,0,0,0-9.71,8.09h0L8.06,395c-20.33,18.86-51.22,40.5-65.59,48.92l-1.51.74-0.36.18A46.4,46.4,0,0,0-66.12,448l0,0.1,0,0q0.88,2,1.83,3.92l0.8-.52s8.59-4,16.34-8.3c0.13,0,4.57-2.6,6.67-4h0c14.75-9.55,27.73-18.72,42.51-32.43,0.45-.42,1-1,1.58-1.64,3.65-3.65,6.42-7.56,8.25-9.12a2.46,2.46,0,0,1,1.35.3c-5.13,10.06-8.17,14.08-31.37,32.93C-31.75,439-43.9,445.93-45.23,446.74c-8.78,4.7-15.89,8.27-16.57,8.61l-0.59.22,0.06,0.11-0.06,0c0.48,0.89,1,1.76,1.47,2.64,6.33-2.79,23.9-10.18,33-16.38,24.72-18.38,35.24-21.69,45.89-46a6.38,6.38,0,0,1,.22-0.68l0.15-.47a25,25,0,0,1,5.1-7.18A10.49,10.49,0,0,1,27,386.13a10.11,10.11,0,0,1,10.36,5.55l0.1,0.2c0.1,0.2.19,0.4,0.28,0.61A18.51,18.51,0,0,1,39,398.65c0,0.09,0,.18,0,0.27,0,0.27,0,.54,0,0.82A46.46,46.46,0,0,1,36.24,415h0c0.46-.15,5.56-2,5.56-2a47,47,0,0,0,1.28-11.1c0-9.21-2.9-21.47-17-25.85" transform="translate(75.61 -292.26)" fill="#00aeef"/><rect width="221.6" height="332.24" fill="none"/></svg>