<svg xmlns="http://www.w3.org/2000/svg" xmlns:xlink="http://www.w3.org/1999/xlink" viewBox="0 0 103.55 57.85"><defs><clipPath id="a" transform="translate(-25.37 -742.99)"><rect x="25.37" y="742.99" width="103.55" height="57.85" fill="none"/></clipPath></defs><title>regit-business-logo</title><g clip-path="url(#a)"><path d="M106.18,758.7a3.45,3.45,0,0,0,2.58-1.18,4,4,0,0,0,1.12-2.87,2.53,2.53,0,0,0-.71-1.89,2.67,2.67,0,0,0-1.94-.7,3.33,3.33,0,0,0-2.44,1.25,4.18,4.18,0,0,0-1.15,2.93,2.36,2.36,0,0,0,.71,1.77,2.52,2.52,0,0,0,1.85.7" transform="translate(-25.37 -742.99)" fill="#00aeef"/><path d="M128.82,755.06a0.65,0.65,0,0,0-.39-0.08h-3.3l1.1-2.56q2.33-5.44,2.33-7.84a1.68,1.68,0,0,0-.37-1.2,1.38,1.38,0,0,0-1.05-.39,3.35,3.35,0,0,0-2.53,1.43q-1.91,2.3-4.24,10.66h-4.27a2.34,2.34,0,0,0-1.75.6,2.75,2.75,0,0,0-.58,2,0.93,0.93,0,0,0,1.13,1.13h4c-0.63,1.34-1.35,3.08-2.15,5.21h0a7.91,7.91,0,0,1-1.37,2.45q-2.58,2.54-3.91,3.68c-1,.86-4,3.3-4,3.3q-5.55,4.69-6.67,4.7a0.61,0.61,0,0,1-.39-0.13,0.43,0.43,0,0,1-.16-0.36,3.43,3.43,0,0,1,.42-1.33l6.15-13.93H102q-0.81,1.72-1.49,3.34a80,80,0,0,1-8.13,7.55h0a85.41,85.41,0,0,0-9.52,8.8,122.83,122.83,0,0,1,6.06-12.92h-5a26,26,0,0,1-5.7,7.94,6.25,6.25,0,0,1-3.79,1.88,1.57,1.57,0,0,1-1.3-.68,4.12,4.12,0,0,1-.52-2.4,9.32,9.32,0,0,1,3.13-7.16q3.13-2.87,8.7-2.87a18.28,18.28,0,0,1,2.85.26,8.73,8.73,0,0,0,1.36.19,0.44,0.44,0,0,0,.52-0.49,11.61,11.61,0,0,0-.23-1.57,15.49,15.49,0,0,1-.26-1.83,16,16,0,0,0-3.53-.35q-8.58,0-13.17,4A13,13,0,0,0,68,771.71a0.2,0.2,0,0,0,0,.07c0,0.12-.08.25-0.12,0.37a2.13,2.13,0,0,1-.52.7l-0.29.26a37.48,37.48,0,0,1-6.55,5.09A9.72,9.72,0,0,1,56,779.4a4.07,4.07,0,0,1-2.61-.66,3.13,3.13,0,0,1-1-2.15,31.77,31.77,0,0,0,7-1.75A14.16,14.16,0,0,0,65.08,771a7.27,7.27,0,0,0,1.81-4.58,4.13,4.13,0,0,0-1.38-3.18,5.47,5.47,0,0,0-3.84-1.26,14.86,14.86,0,0,0-8.84,3.24,13.37,13.37,0,0,0-5,6.6,3.23,3.23,0,0,1-1.1,1.46l-0.2.16q-5.28,4.76-6.51,4.76a0.35,0.35,0,0,1-.26-0.1,0.4,0.4,0,0,1-.1-0.29,2.46,2.46,0,0,1,.23-0.84l0.49-1.1q0.65-1.52,1.42-3.14,2.95-6.38,2.95-7.61a2.13,2.13,0,0,0-.87-1.81,6.39,6.39,0,0,0-3.82-.87l-1.07,0H37.81l0-.26c0-.43.07-0.73,0.07-0.91a2.9,2.9,0,0,0-.73-2.09,2.62,2.62,0,0,0-2-.76,3,3,0,0,0-2.32,1A3.76,3.76,0,0,0,32,762a5.56,5.56,0,0,0,.85,2.69,34.53,34.53,0,0,1-3.55,5,24.29,24.29,0,0,1-3.9,3.5v4.7a46.61,46.61,0,0,0,6.22-5.73,30.73,30.73,0,0,0,4.41-6,12,12,0,0,1,1.57-.13,2.08,2.08,0,0,1,1.28.31,0.93,0.93,0,0,1,.39.76q0,1-2.38,5.86-3.26,6.61-3.26,8.23a2,2,0,0,0,.81,1.49,2.83,2.83,0,0,0,1.94.71,12.17,12.17,0,0,0,4.74-1.5,26.06,26.06,0,0,0,6.25-4.49,6.69,6.69,0,0,0,1.86,4q2,1.93,6.09,1.93a12.57,12.57,0,0,0,5.42-1.14,34.13,34.13,0,0,0,6.71-4.86,7.86,7.86,0,0,0,1.51,4.17,4.56,4.56,0,0,0,3.6,2,6,6,0,0,0,3.19-1,17.72,17.72,0,0,0,3.87-3.79,19.48,19.48,0,0,1-1.41,3.87,52.58,52.58,0,0,1-3.51,5.46q-5.09,7.22-5.09,10.56a2.17,2.17,0,0,0,.55,1.55,2,2,0,0,0,1.49.58,3.7,3.7,0,0,0,2.69-1.33q1.68-1.78,4.31-8l1.39-3.3q2.3-2.22,3.93-3.61t6.24-5l2.17-1.68,0.52-.4,0.26-.2v0l3.66-3.15q-3,5.93-3,7.42a1.66,1.66,0,0,0,.7,1.31,3.09,3.09,0,0,0,2,.57,10.91,10.91,0,0,0,4.62-1.15,40.75,40.75,0,0,0,7.17-5v0a35.81,35.81,0,0,0,3.66-3.44q0.71-.78,1.43-1.43-0.75,1.88-1.29,3.21l-0.65,1.49a17.07,17.07,0,0,0-1.43,4.37,1.75,1.75,0,0,0,.7,1.34,2.8,2.8,0,0,0,1.89.6q5.67,0,13.63-6.12v-4.63a39.08,39.08,0,0,1-3.82,2.87,43.49,43.49,0,0,1-4.86,2.8,3,3,0,0,1-1.17.35,0.41,0.41,0,0,1-.32-0.15,0.54,0.54,0,0,1-.13-0.37,3.93,3.93,0,0,1,.36-1.33l7.35-18.14H127a2,2,0,0,0,.88-0.16,0.74,0.74,0,0,0,.32-0.36l0.42-1.36a5.83,5.83,0,0,0,.32-1.52,0.3,0.3,0,0,0-.1-0.24M56.53,767.7A6.51,6.51,0,0,1,60.32,766a1.46,1.46,0,0,1,1.12.47,1.76,1.76,0,0,1,.44,1.25,3.32,3.32,0,0,1-1.49,2.53Q58.28,772,52.74,773a13.92,13.92,0,0,1,3.79-5.31" transform="translate(-25.37 -742.99)" fill="#00aeef"/></g><path d="M84.12,793.86v-6.07h2.13a4.09,4.09,0,0,1,.95.1,2,2,0,0,1,.71.31,1.36,1.36,0,0,1,.44.52,1.67,1.67,0,0,1,.15.74,1.5,1.5,0,0,1-.05.4,1.28,1.28,0,0,1-.43.66,1.39,1.39,0,0,1-.39.22,1.33,1.33,0,0,1,.46.2,1.25,1.25,0,0,1,.49.7,1.66,1.66,0,0,1,.06.43,1.6,1.6,0,0,1-.57,1.33,2.56,2.56,0,0,1-1.62.45H84.12Zm1.25-3.53h0.93a1.13,1.13,0,0,0,.71-0.2,0.68,0.68,0,0,0,.23-0.55A0.7,0.7,0,0,0,87,789a1.26,1.26,0,0,0-.76-0.18H85.37v1.53Zm0,0.88v1.64h1.07a1.28,1.28,0,0,0,.42-0.06,0.82,0.82,0,0,0,.29-0.17,0.66,0.66,0,0,0,.17-0.25,0.85,0.85,0,0,0,.06-0.31,1.16,1.16,0,0,0,0-.35,0.67,0.67,0,0,0-.16-0.27,0.69,0.69,0,0,0-.28-0.17,1.28,1.28,0,0,0-.41-0.06H85.37Z" transform="translate(-25.37 -742.99)" fill="#00aeef"/><path d="M94.58,787.79v4a2.31,2.31,0,0,1-.18.93,1.88,1.88,0,0,1-.48.67,2.06,2.06,0,0,1-.74.41,3.24,3.24,0,0,1-1.87,0,2.06,2.06,0,0,1-.74-0.41,1.86,1.86,0,0,1-.48-0.67,2.33,2.33,0,0,1-.17-0.93v-4h1.25v4a1.16,1.16,0,0,0,.29.87,1.28,1.28,0,0,0,1.58,0,1.17,1.17,0,0,0,.28-0.87v-4h1.26Z" transform="translate(-25.37 -742.99)" fill="#00aeef"/><path d="M99.17,792.27a0.85,0.85,0,0,0,0-.29,0.56,0.56,0,0,0-.18-0.24,1.62,1.62,0,0,0-.36-0.21,5.83,5.83,0,0,0-.6-0.22,7.26,7.26,0,0,1-.79-0.3,2.86,2.86,0,0,1-.65-0.39,1.75,1.75,0,0,1-.44-0.52A1.43,1.43,0,0,1,96,789.4a1.47,1.47,0,0,1,.16-0.69,1.57,1.57,0,0,1,.46-0.54,2.27,2.27,0,0,1,.71-0.34,3.15,3.15,0,0,1,.9-0.12,2.85,2.85,0,0,1,.92.14,2.09,2.09,0,0,1,.7.39,1.72,1.72,0,0,1,.45.59,1.77,1.77,0,0,1,.16.75H99.18a1,1,0,0,0-.06-0.35,0.72,0.72,0,0,0-.19-0.28,0.86,0.86,0,0,0-.31-0.18,1.36,1.36,0,0,0-.44-0.06,1.5,1.5,0,0,0-.43.05,0.87,0.87,0,0,0-.3.15,0.64,0.64,0,0,0-.18.23,0.65,0.65,0,0,0-.06.28,0.59,0.59,0,0,0,.31.5,3.48,3.48,0,0,0,.9.38,5.87,5.87,0,0,1,.87.34,2.59,2.59,0,0,1,.63.43,1.62,1.62,0,0,1,.38.53,1.66,1.66,0,0,1,.13.67,1.58,1.58,0,0,1-.16.71,1.47,1.47,0,0,1-.44.53,2.1,2.1,0,0,1-.69.33,3.35,3.35,0,0,1-.91.11,3.51,3.51,0,0,1-.6-0.05,2.88,2.88,0,0,1-.57-0.16,2.48,2.48,0,0,1-.51-0.27,1.87,1.87,0,0,1-.41-0.38,1.74,1.74,0,0,1-.27-0.5,1.89,1.89,0,0,1-.1-0.62H97a1.11,1.11,0,0,0,.09.47,0.8,0.8,0,0,0,.24.31,1,1,0,0,0,.38.17,2.07,2.07,0,0,0,.49.05,1.52,1.52,0,0,0,.42-0.05,0.87,0.87,0,0,0,.3-0.14,0.57,0.57,0,0,0,.17-0.22A0.66,0.66,0,0,0,99.17,792.27Z" transform="translate(-25.37 -742.99)" fill="#00aeef"/><path d="M103,793.86h-1.25v-6.07H103v6.07Z" transform="translate(-25.37 -742.99)" fill="#00aeef"/><path d="M109.55,793.86h-1.25l-2.44-4v4h-1.25v-6.07h1.25l2.44,4v-4h1.25v6.07Z" transform="translate(-25.37 -742.99)" fill="#00aeef"/><path d="M114.71,791.23h-2.4v1.63h2.82v1h-4.07v-6.07h4.06v1h-2.81v1.45h2.4v1Z" transform="translate(-25.37 -742.99)" fill="#00aeef"/><path d="M119.43,792.27a0.85,0.85,0,0,0,0-.29,0.56,0.56,0,0,0-.18-0.24,1.62,1.62,0,0,0-.36-0.21,5.83,5.83,0,0,0-.6-0.22,7.26,7.26,0,0,1-.79-0.3,2.86,2.86,0,0,1-.65-0.39,1.75,1.75,0,0,1-.44-0.52,1.43,1.43,0,0,1-.16-0.69,1.47,1.47,0,0,1,.16-0.69,1.57,1.57,0,0,1,.46-0.54,2.27,2.27,0,0,1,.71-0.34,3.15,3.15,0,0,1,.9-0.12,2.85,2.85,0,0,1,.92.14,2.09,2.09,0,0,1,.7.39,1.72,1.72,0,0,1,.45.59,1.77,1.77,0,0,1,.16.75h-1.25a1,1,0,0,0-.06-0.35,0.72,0.72,0,0,0-.19-0.28,0.86,0.86,0,0,0-.31-0.18,1.36,1.36,0,0,0-.44-0.06,1.5,1.5,0,0,0-.43.05,0.87,0.87,0,0,0-.3.15,0.64,0.64,0,0,0-.18.23,0.65,0.65,0,0,0-.06.28,0.59,0.59,0,0,0,.31.5,3.48,3.48,0,0,0,.9.38,5.87,5.87,0,0,1,.87.34,2.59,2.59,0,0,1,.63.43,1.62,1.62,0,0,1,.38.53,1.66,1.66,0,0,1,.13.67,1.58,1.58,0,0,1-.16.71,1.47,1.47,0,0,1-.44.53,2.1,2.1,0,0,1-.69.33,3.35,3.35,0,0,1-.91.11,3.51,3.51,0,0,1-.6-0.05,2.88,2.88,0,0,1-.57-0.16,2.48,2.48,0,0,1-.51-0.27,1.87,1.87,0,0,1-.41-0.38,1.74,1.74,0,0,1-.27-0.5,1.89,1.89,0,0,1-.1-0.62h1.26a1.11,1.11,0,0,0,.09.47,0.8,0.8,0,0,0,.24.31,1,1,0,0,0,.38.17,2.07,2.07,0,0,0,.49.05,1.52,1.52,0,0,0,.42-0.05,0.87,0.87,0,0,0,.3-0.14,0.57,0.57,0,0,0,.17-0.22A0.66,0.66,0,0,0,119.43,792.27Z" transform="translate(-25.37 -742.99)" fill="#00aeef"/><path d="M125.1,792.27a0.85,0.85,0,0,0,0-.29,0.56,0.56,0,0,0-.18-0.24,1.62,1.62,0,0,0-.36-0.21,5.83,5.83,0,0,0-.6-0.22,7.26,7.26,0,0,1-.79-0.3,2.86,2.86,0,0,1-.65-0.39,1.75,1.75,0,0,1-.44-0.52,1.43,1.43,0,0,1-.16-0.69,1.47,1.47,0,0,1,.16-0.69,1.57,1.57,0,0,1,.46-0.54,2.27,2.27,0,0,1,.71-0.34,3.15,3.15,0,0,1,.9-0.12,2.85,2.85,0,0,1,.92.14,2.09,2.09,0,0,1,.7.39,1.72,1.72,0,0,1,.45.59,1.77,1.77,0,0,1,.16.75h-1.25a1,1,0,0,0-.06-0.35,0.72,0.72,0,0,0-.19-0.28,0.86,0.86,0,0,0-.31-0.18,1.36,1.36,0,0,0-.44-0.06,1.5,1.5,0,0,0-.43.05,0.87,0.87,0,0,0-.3.15,0.64,0.64,0,0,0-.18.23,0.65,0.65,0,0,0-.06.28,0.59,0.59,0,0,0,.31.5,3.48,3.48,0,0,0,.9.38,5.87,5.87,0,0,1,.87.34,2.59,2.59,0,0,1,.63.43,1.62,1.62,0,0,1,.38.53,1.66,1.66,0,0,1,.13.67,1.58,1.58,0,0,1-.16.71,1.47,1.47,0,0,1-.44.53,2.1,2.1,0,0,1-.69.33,3.35,3.35,0,0,1-.91.11,3.51,3.51,0,0,1-.6-0.05,2.88,2.88,0,0,1-.57-0.16,2.48,2.48,0,0,1-.51-0.27,1.87,1.87,0,0,1-.41-0.38,1.74,1.74,0,0,1-.27-0.5,1.89,1.89,0,0,1-.1-0.62H123a1.11,1.11,0,0,0,.09.47,0.8,0.8,0,0,0,.24.31,1,1,0,0,0,.38.17,2.07,2.07,0,0,0,.49.05,1.52,1.52,0,0,0,.42-0.05,0.87,0.87,0,0,0,.3-0.14,0.57,0.57,0,0,0,.17-0.22A0.66,0.66,0,0,0,125.1,792.27Z" transform="translate(-25.37 -742.99)" fill="#00aeef"/></svg>