<svg xmlns="http://www.w3.org/2000/svg" viewBox="0 0 20.81 16.91"><title>soc-twitter</title><g id="Layer_2" data-name="Layer 2"><g id="Layer_1-2" data-name="Layer 1"><g id="_Group_" data-name="&lt;Group&gt;"><path id="_Compound_Path_" data-name="&lt;Compound Path&gt;" d="M20.81,2a8.52,8.52,0,0,1-2.45.67A4.28,4.28,0,0,0,20.23.31a8.54,8.54,0,0,1-2.71,1,4.27,4.27,0,0,0-7.27,3.89A12.12,12.12,0,0,1,1.45.78a4.27,4.27,0,0,0,1.32,5.7A4.24,4.24,0,0,1,.84,5.95s0,0,0,.05a4.27,4.27,0,0,0,3.42,4.19,4.28,4.28,0,0,1-1.93.07,4.27,4.27,0,0,0,4,3A8.56,8.56,0,0,1,1,15.05,8.63,8.63,0,0,1,0,15a12.08,12.08,0,0,0,6.54,1.92A12.06,12.06,0,0,0,18.69,4.76q0-.28,0-.55A8.66,8.66,0,0,0,20.81,2Zm0,0" fill="#fff"/></g></g></g></svg>