<svg xmlns="http://www.w3.org/2000/svg" viewBox="0 0 26.57 16.91"><title>soc-google</title><g id="Layer_2" data-name="Layer 2"><g id="Layer_1-2" data-name="Layer 1"><g id="_Group_" data-name="&lt;Group&gt;"><path id="_Path_" data-name="&lt;Path&gt;" d="M8.46,7.25v2.9h4.8a4.57,4.57,0,0,1-4.8,3.65,5.34,5.34,0,0,1,0-10.68,4.76,4.76,0,0,1,3.37,1.3l2.3-2.21A8.1,8.1,0,0,0,8.46,0a8.46,8.46,0,0,0,0,16.91c4.88,0,8.12-3.43,8.12-8.26a7.8,7.8,0,0,0-.13-1.4Z" fill="#fff"/><path id="_Path_2" data-name="&lt;Path&gt;" d="M26.57,7.25H24.16V4.83H21.74V7.25H19.33V9.66h2.42v2.42h2.42V9.66h2.42Z" fill="#fff"/></g></g></g></svg>