<svg xmlns="http://www.w3.org/2000/svg" viewBox="0 0 17.7 16.91"><title>soc-linkedin</title><g id="Layer_2" data-name="Layer 2"><g id="Layer_1-2" data-name="Layer 1"><g id="_Group_" data-name="&lt;Group&gt;"><path id="_Compound_Path_" data-name="&lt;Compound Path&gt;" d="M17.7,10.37v6.54H13.9v-6.1c0-1.53-.55-2.58-1.92-2.58A2.08,2.08,0,0,0,10,9.61a2.6,2.6,0,0,0-.13.92v6.37H6.12s.05-10.34,0-11.41H9.91V7.12l0,0h0v0a3.77,3.77,0,0,1,3.42-1.88c2.5,0,4.37,1.63,4.37,5.13ZM2.15,0a2,2,0,1,0,0,3.94h0A2,2,0,1,0,2.15,0ZM.23,16.91H4V5.5H.23Zm0,0" fill="#fff"/></g></g></g></svg>