<svg xmlns="http://www.w3.org/2000/svg" viewBox="0 0 27.2 22.1"><defs><style>.a{fill:#ffffff;}</style></defs><title>social-twitter</title><path class="a" d="M510.8,3194.7a11.1,11.1,0,0,1-3.2.9,5.6,5.6,0,0,0,2.5-3.1,11.2,11.2,0,0,1-3.5,1.4,5.6,5.6,0,0,0-9.5,5.1,15.8,15.8,0,0,1-11.5-5.8,5.6,5.6,0,0,0,1.7,7.4,5.5,5.5,0,0,1-2.5-.7h0a5.6,5.6,0,0,0,4.5,5.5l-1.5.2h-1.1a5.6,5.6,0,0,0,5.2,3.9,11.2,11.2,0,0,1-6.9,2.4h-1.3a15.9,15.9,0,0,0,24.4-13.4c0-.2,0-0.5,0-0.7a11.3,11.3,0,0,0,2.8-2.9" transform="translate(-483.6 -3192.1)"/></svg>