<svg xmlns="http://www.w3.org/2000/svg" viewBox="0 0 31.6 20.1"><defs><style>.a{fill:#00aeef;}</style></defs><title>social-google</title><path class="a" d="M569.3,3203.3a10,10,0,0,1,10-9.5,10.2,10.2,0,0,1,6.7,2.5l-2.5,2.6c-2.3-1.6-5.5-2-7.8-.2a6.4,6.4,0,0,0-.3,10c3.1,2.8,8.8,1.4,9.7-2.8h-5.7c0-1.1,0-2.3,0-3.4h9.6a11.5,11.5,0,0,1-1.8,7.8c-2.5,3.5-7.5,4.5-11.4,3a10.1,10.1,0,0,1-6.4-9.9m25.9-3.8c0,1,0,1.9,0,2.9h-2.9v2.9h2.9c0,1,0,1.9,0,2.9H598c0-1,0-1.9,0-2.9h2.9v-2.9H598c0-1,0-1.9,0-2.9h-2.9" transform="translate(-569.3 -3193.8)"/></svg>