<svg xmlns="http://www.w3.org/2000/svg" viewBox="0 0 35 35"><defs><style>.a{fill:#ffffff;}</style></defs><title>social-linkedin</title><path class="a" d="M554.7,3184.8H524.9a2.6,2.6,0,0,0-2.6,2.5v29.9a2.6,2.6,0,0,0,2.6,2.5h29.8a2.6,2.6,0,0,0,2.6-2.5v-29.9a2.6,2.6,0,0,0-2.6-2.5m-22,29.8h-5.2v-16.7h5.2v16.7Zm-2.6-19a3,3,0,1,1,3-3,3,3,0,0,1-3,3m22,19h-5.2v-8.1c0-1.9,0-4.4-2.7-4.4s-3.1,2.1-3.1,4.3v8.3h-5.2v-16.7h5v2.3H541a5.5,5.5,0,0,1,4.9-2.7c5.3,0,6.2,3.5,6.2,8v9.2Z" transform="translate(-522.3 -3184.8)"/></svg>