<svg xmlns="http://www.w3.org/2000/svg" viewBox="0 0 672.43 356.42"><title>under-construction</title><g id="Layer_2" data-name="Layer 2"><g id="Layer_1-2" data-name="Layer 1"><g id="_Group_" data-name="&lt;Group&gt;"><g id="_Group_2" data-name="&lt;Group&gt;"><polygon id="_Path_" data-name="&lt;Path&gt;" points="671.33 332.27 1.28 332.27 123.2 257.38 569.12 257.38 671.33 332.27" fill="#fff"/><path id="_Compound_Path_" data-name="&lt;Compound Path&gt;" d="M672.43,332.63H0L123.1,257H569.23l.1.07ZM2.56,331.91H670.23L569,257.75H123.3Z" fill="#1b75bc"/></g><g id="_Group_3" data-name="&lt;Group&gt;"><g id="_Group_4" data-name="&lt;Group&gt;"><rect id="_Rectangle_" data-name="&lt;Rectangle&gt;" x="178.87" y="207.97" width="7.16" height="56.97" transform="translate(-22.22 18.94) rotate(-5.6)" fill="#fff"/><path id="_Compound_Path_2" data-name="&lt;Compound Path&gt;" d="M181.66,265.52a.36.36,0,0,1-.36-.33l-5.56-56.7a.36.36,0,0,1,.32-.39l7.13-.7a.37.37,0,0,1,.39.32l5.56,56.7a.36.36,0,0,1-.32.39l-7.13.7Zm-5.17-56.73,5.49,56,6.41-.63-5.49-56Z" fill="#1b75bc"/></g><g id="_Group_5" data-name="&lt;Group&gt;"><rect id="_Rectangle_2" data-name="&lt;Rectangle&gt;" x="178.87" y="207.97" width="7.16" height="56.97" transform="translate(-22.22 18.94) rotate(-5.6)" fill="#abe1fa"/></g><g id="_Group_6" data-name="&lt;Group&gt;"><rect id="_Path_2" data-name="&lt;Path&gt;" x="181.41" y="209.38" width="1.99" height="0.36" transform="translate(-19.58 18.8) rotate(-5.6)" fill="#1b75bc"/></g><g id="_Group_7" data-name="&lt;Group&gt;"><rect id="_Path_3" data-name="&lt;Path&gt;" x="182.11" y="216.57" width="1.99" height="0.36" transform="translate(-20.27 18.9) rotate(-5.6)" fill="#1b75bc"/></g><g id="_Group_8" data-name="&lt;Group&gt;"><rect id="_Path_4" data-name="&lt;Path&gt;" x="182.82" y="223.75" width="1.99" height="0.36" transform="translate(-20.97 19) rotate(-5.6)" fill="#1b75bc"/></g><g id="_Group_9" data-name="&lt;Group&gt;"><rect id="_Path_5" data-name="&lt;Path&gt;" x="183.52" y="230.94" width="1.99" height="0.36" transform="translate(-21.67 19.11) rotate(-5.6)" fill="#1b75bc"/></g><g id="_Group_10" data-name="&lt;Group&gt;"><rect id="_Path_6" data-name="&lt;Path&gt;" x="184.23" y="238.13" width="1.99" height="0.36" transform="translate(-22.37 19.21) rotate(-5.6)" fill="#1b75bc"/></g><g id="_Group_11" data-name="&lt;Group&gt;"><rect id="_Path_7" data-name="&lt;Path&gt;" x="184.93" y="245.31" width="1.99" height="0.36" transform="translate(-23.07 19.31) rotate(-5.6)" fill="#1b75bc"/></g></g><g id="_Group_12" data-name="&lt;Group&gt;"><path id="_Path_8" data-name="&lt;Path&gt;" d="M529.84,270.49H466.47a7,7,0,0,0-7,7h0a7,7,0,0,0,5.5,6.83v0l33.81,7.33v-7.2h31.06Q524.76,278.55,529.84,270.49Z" fill="#c7eafb"/><path id="_Compound_Path_3" data-name="&lt;Compound Path&gt;" d="M499.14,292.12l-34.56-7.49v0a7.35,7.35,0,0,1,1.88-14.45h64l-.35.55c-3.32,5.27-3.33,9.7,0,13.55l.51.6H499.14Zm-33.78-8.06,33.06,7.16v-7.12h30.67c-2.89-3.8-2.85-8.25.11-13.26H466.47a6.63,6.63,0,0,0-1.42,13.1l.32.07Z" fill="#1b75bc"/></g><g id="_Group_13" data-name="&lt;Group&gt;"><path id="_Path_9" data-name="&lt;Path&gt;" d="M529.64,262.44h39.48l-37-6.63H468.76a7,7,0,0,0-7,7h0a7,7,0,0,0,5.5,6.83v0L501.08,277v-7.2h31.06A9.61,9.61,0,0,1,529.64,262.44Z" fill="#00aeef"/><path id="_Compound_Path_4" data-name="&lt;Compound Path&gt;" d="M501.44,277.43l-34.56-7.49v0a7.35,7.35,0,0,1,1.88-14.45h63.37l37,6.64-.06.72H530a9.34,9.34,0,0,0,2.44,6.75l.51.6H501.44Zm-33.78-8.06,33.06,7.16v-7.12h30.67a9.84,9.84,0,0,1-2.1-7l0-.33h35.75l-33-5.92H468.76a6.63,6.63,0,0,0-1.42,13.1l.32.07Z" fill="#1b75bc"/></g><g id="_Group_14" data-name="&lt;Group&gt;"><path id="_Path_10" data-name="&lt;Path&gt;" d="M441.53,117.1a6.56,6.56,0,0,0-6.56-6.56H232.59A6.56,6.56,0,0,0,226,117.1V231.45H441.53Z" fill="#1b75bc"/><path id="_Compound_Path_5" data-name="&lt;Compound Path&gt;" d="M441.89,231.81H225.66V117.1a6.93,6.93,0,0,1,6.92-6.92H435a6.93,6.93,0,0,1,6.92,6.92Zm-215.51-.72H441.17v-114a6.21,6.21,0,0,0-6.2-6.2H232.59a6.21,6.21,0,0,0-6.2,6.2Z" fill="#1b75bc"/></g><g id="_Group_15" data-name="&lt;Group&gt;"><rect id="_Rectangle_3" data-name="&lt;Rectangle&gt;" x="277.98" y="67.94" width="111.6" height="205.87" transform="translate(504.66 -162.9) rotate(90)" fill="#44c8f5"/></g><g id="_Group_16" data-name="&lt;Group&gt;"><path id="_Path_11" data-name="&lt;Path&gt;" d="M358.16,271.95H309.39c4.3-5.84,7.91-14,7.94-25.81h32.88C350.16,257.91,353.68,266.11,358.16,271.95Z" fill="#fff"/><path id="_Compound_Path_6" data-name="&lt;Compound Path&gt;" d="M358.89,272.31H308.68l.42-.57c5.2-7.07,7.85-15.68,7.87-25.6v-.36h33.61v.36c-.05,10.11,2.6,18.72,7.87,25.59Zm-48.8-.72h47.34c-5-6.82-7.57-15.26-7.58-25.09H317.69C317.61,256.16,315.05,264.59,310.1,271.59Z" fill="#1b75bc"/></g><g id="_Group_17" data-name="&lt;Group&gt;"><rect id="_Rectangle_4" data-name="&lt;Rectangle&gt;" x="305.38" y="271.95" width="57.21" height="1.78" rx="0.89" ry="0.89" fill="#fff"/><path id="_Compound_Path_7" data-name="&lt;Compound Path&gt;" d="M361.7,274.09H306.27a1.25,1.25,0,1,1,0-2.51H361.7a1.25,1.25,0,1,1,0,2.51Zm-55.43-1.78a.53.53,0,1,0,0,1.06H361.7a.53.53,0,1,0,0-1.06Z" fill="#1b75bc"/></g><g id="_Group_18" data-name="&lt;Group&gt;"><g id="_Group_19" data-name="&lt;Group&gt;"><path id="_Path_12" data-name="&lt;Path&gt;" d="M406.84,297.46c.15,0,.22-.08.15-.14l-13.8-12.1a1.48,1.48,0,0,0-.78-.18H277.22a1.65,1.65,0,0,0-.81.18l-15.84,12.1c-.08.06,0,.11.12.14a.5.5,0,0,0,.35.86H406.49a.5.5,0,0,0,.35-.86Z" fill="#fff"/><path id="_Compound_Path_8" data-name="&lt;Compound Path&gt;" d="M406.49,298.68H261a.86.86,0,0,1-.82-1.14.43.43,0,0,1,0-.1l0-.22.22-.2,15.84-12.1a1.94,1.94,0,0,1,1-.25h115.2a1.78,1.78,0,0,1,1,.27l14,12.24,0,.27a.43.43,0,0,1,0,.11.87.87,0,0,1,0,.24A.87.87,0,0,1,406.49,298.68Zm-145.21-1.46.1,0-.45.47a.14.14,0,0,0,0,.1.14.14,0,0,0,.14.14H406.49a.14.14,0,0,0,.1-.24l-.48-.47.21,0L393,285.48a1.5,1.5,0,0,0-.54-.09H277.22a1.52,1.52,0,0,0-.59.11Z" fill="#1b75bc"/></g><g id="_Group_20" data-name="&lt;Group&gt;"><g id="_Group_21" data-name="&lt;Group&gt;"><path id="_Path_13" data-name="&lt;Path&gt;" d="M385,285.75h5.86a1.45,1.45,0,0,1,.78.18l.74.68c.11.1-.07.18-.4.18h-6a1.34,1.34,0,0,1-.76-.18l-.64-.68C384.54,285.83,384.72,285.75,385,285.75Z" fill="#00aeef"/></g><g id="_Group_22" data-name="&lt;Group&gt;"><path id="_Path_14" data-name="&lt;Path&gt;" d="M376.85,285.75h5.86a1.29,1.29,0,0,1,.75.18l.63.68c.09.1-.1.18-.43.18h-6a1.19,1.19,0,0,1-.73-.18l-.53-.68C376.34,285.83,376.53,285.75,376.85,285.75Z" fill="#00aeef"/></g><g id="_Group_23" data-name="&lt;Group&gt;"><path id="_Path_15" data-name="&lt;Path&gt;" d="M368.67,285.75h5.86a1.14,1.14,0,0,1,.72.18l.51.68c.07.1-.13.18-.46.18h-6a1,1,0,0,1-.7-.18l-.41-.68C368.14,285.83,368.35,285.75,368.67,285.75Z" fill="#00aeef"/></g><g id="_Group_24" data-name="&lt;Group&gt;"><path id="_Path_16" data-name="&lt;Path&gt;" d="M360.48,285.75h5.86a1,1,0,0,1,.69.18l.4.68c.06.1-.16.18-.49.18h-6c-.33,0-.63-.08-.67-.18l-.3-.68C359.93,285.83,360.16,285.75,360.48,285.75Z" fill="#00aeef"/></g><g id="_Group_25" data-name="&lt;Group&gt;"><path id="_Path_17" data-name="&lt;Path&gt;" d="M352.29,285.75h5.86c.32,0,.61.08.65.18l.28.68c0,.1-.19.18-.52.18h-6c-.33,0-.61-.08-.64-.18l-.18-.68C351.73,285.83,352,285.75,352.29,285.75Z" fill="#00aeef"/></g><g id="_Group_26" data-name="&lt;Group&gt;"><path id="_Path_18" data-name="&lt;Path&gt;" d="M344.11,285.75H350c.32,0,.6.08.62.18l.17.68c0,.1-.22.18-.55.18h-6c-.33,0-.6-.08-.61-.18l-.07-.68C343.53,285.83,343.79,285.75,344.11,285.75Z" fill="#00aeef"/></g><g id="_Group_27" data-name="&lt;Group&gt;"><path id="_Path_19" data-name="&lt;Path&gt;" d="M335.92,285.75h5.86c.32,0,.59.08.59.18l.05.68c0,.1-.25.18-.58.18h-6c-.33,0-.59-.08-.58-.18l0-.68C335.33,285.83,335.6,285.75,335.92,285.75Z" fill="#00aeef"/></g><g id="_Group_28" data-name="&lt;Group&gt;"><path id="_Path_20" data-name="&lt;Path&gt;" d="M327.73,285.75h5.86c.32,0,.57.08.56.18l-.07.68c0,.1-.28.18-.61.18h-6c-.33,0-.57-.08-.55-.18l.16-.68C327.13,285.83,327.41,285.75,327.73,285.75Z" fill="#00aeef"/></g><g id="_Group_29" data-name="&lt;Group&gt;"><path id="_Path_21" data-name="&lt;Path&gt;" d="M319.54,285.75h5.86c.32,0,.56.08.53.18l-.18.68c0,.1-.31.18-.64.18h-6c-.33,0-.56-.08-.52-.18l.28-.68C318.93,285.83,319.22,285.75,319.54,285.75Z" fill="#00aeef"/></g><g id="_Group_30" data-name="&lt;Group&gt;"><path id="_Path_22" data-name="&lt;Path&gt;" d="M311.36,285.75h5.86c.32,0,.55.08.5.18l-.3.68c0,.1-.34.18-.67.18h-6c-.33,0-.55-.08-.49-.18l.4-.68A1,1,0,0,1,311.36,285.75Z" fill="#00aeef"/></g><g id="_Group_31" data-name="&lt;Group&gt;"><path id="_Path_23" data-name="&lt;Path&gt;" d="M303.17,285.75H309c.32,0,.53.08.47.18l-.41.68a1,1,0,0,1-.7.18h-6c-.33,0-.53-.08-.46-.18l.51-.68A1.14,1.14,0,0,1,303.17,285.75Z" fill="#00aeef"/></g><g id="_Group_32" data-name="&lt;Group&gt;"><path id="_Path_24" data-name="&lt;Path&gt;" d="M295,285.75h5.86c.32,0,.52.08.44.18l-.53.68a1.19,1.19,0,0,1-.73.18h-6c-.33,0-.52-.08-.43-.18l.63-.68A1.29,1.29,0,0,1,295,285.75Z" fill="#00aeef"/></g><g id="_Group_33" data-name="&lt;Group&gt;"><path id="_Path_25" data-name="&lt;Path&gt;" d="M286.8,285.75h5.86c.32,0,.5.08.41.18l-.64.68a1.34,1.34,0,0,1-.76.18h-6c-.33,0-.51-.08-.4-.18l.74-.68A1.45,1.45,0,0,1,286.8,285.75Z" fill="#00aeef"/></g><g id="_Group_34" data-name="&lt;Group&gt;"><path id="_Path_26" data-name="&lt;Path&gt;" d="M278.61,285.75h5.86c.32,0,.49.08.38.18l-.76.68a1.51,1.51,0,0,1-.79.18h-6c-.33,0-.49-.08-.37-.18l.86-.68A1.63,1.63,0,0,1,278.61,285.75Z" fill="#00aeef"/></g><g id="_Group_35" data-name="&lt;Group&gt;"><path id="_Path_27" data-name="&lt;Path&gt;" d="M382.9,287.15h9.52a1.5,1.5,0,0,1,.79.18l1.33,1.22c.11.1-.08.18-.42.18H384.3a1.34,1.34,0,0,1-.77-.18l-1.07-1.22C382.37,287.23,382.57,287.15,382.9,287.15Z" fill="#00aeef"/></g><g id="_Group_36" data-name="&lt;Group&gt;"><path id="_Path_28" data-name="&lt;Path&gt;" d="M374.58,287.15h5.79a1.27,1.27,0,0,1,.75.18l1,1.22c.08.1-.12.18-.46.18h-6a1.19,1.19,0,0,1-.74-.18l-.86-1.22C374,287.23,374.25,287.15,374.58,287.15Z" fill="#00aeef"/></g><g id="_Group_37" data-name="&lt;Group&gt;"><path id="_Path_29" data-name="&lt;Path&gt;" d="M366.44,287.15h5.79a1.12,1.12,0,0,1,.72.18l.84,1.22c.07.1-.15.18-.49.18h-6c-.34,0-.66-.08-.71-.18l-.66-1.22C365.89,287.23,366.11,287.15,366.44,287.15Z" fill="#00aeef"/></g><g id="_Group_38" data-name="&lt;Group&gt;"><path id="_Path_30" data-name="&lt;Path&gt;" d="M358.3,287.15h5.79c.33,0,.64.08.69.18l.64,1.22c.05.1-.18.18-.52.18h-6c-.34,0-.65-.08-.68-.18l-.46-1.22C357.73,287.23,358,287.15,358.3,287.15Z" fill="#00aeef"/></g><g id="_Group_39" data-name="&lt;Group&gt;"><path id="_Path_31" data-name="&lt;Path&gt;" d="M350.15,287.15h5.79c.33,0,.63.08.66.18l.44,1.22c0,.1-.21.18-.55.18h-6c-.34,0-.63-.08-.66-.18l-.26-1.22C349.57,287.23,349.82,287.15,350.15,287.15Z" fill="#00aeef"/></g><g id="_Group_40" data-name="&lt;Group&gt;"><path id="_Path_32" data-name="&lt;Path&gt;" d="M342,287.15h5.79c.33,0,.61.08.63.18l.24,1.22c0,.1-.24.18-.58.18h-6c-.34,0-.62-.08-.63-.18l-.06-1.22C341.42,287.23,341.68,287.15,342,287.15Z" fill="#00aeef"/></g><g id="_Group_41" data-name="&lt;Group&gt;"><path id="_Path_33" data-name="&lt;Path&gt;" d="M333.87,287.15h5.79c.33,0,.6.08.6.18l0,1.22c0,.1-.27.18-.61.18h-6c-.34,0-.61-.08-.6-.18l.14-1.22C333.26,287.23,333.54,287.15,333.87,287.15Z" fill="#00aeef"/></g><g id="_Group_42" data-name="&lt;Group&gt;"><path id="_Path_34" data-name="&lt;Path&gt;" d="M325.72,287.15h5.79c.33,0,.59.08.57.18l-.17,1.22c0,.1-.3.18-.64.18h-6c-.34,0-.59-.08-.57-.18l.34-1.22C325.1,287.23,325.39,287.15,325.72,287.15Z" fill="#00aeef"/></g><g id="_Group_43" data-name="&lt;Group&gt;"><path id="_Path_35" data-name="&lt;Path&gt;" d="M317.58,287.15h5.79c.33,0,.57.08.54.18l-.37,1.22c0,.1-.33.18-.67.18h-6c-.34,0-.58-.08-.54-.18l.54-1.22C316.95,287.23,317.25,287.15,317.58,287.15Z" fill="#00aeef"/></g><g id="_Group_44" data-name="&lt;Group&gt;"><path id="_Path_36" data-name="&lt;Path&gt;" d="M309.44,287.15h5.79c.33,0,.56.08.51.18l-.57,1.22c0,.1-.36.18-.7.18h-6c-.34,0-.57-.08-.51-.18l.74-1.22A1.06,1.06,0,0,1,309.44,287.15Z" fill="#00aeef"/></g><g id="_Group_45" data-name="&lt;Group&gt;"><path id="_Path_37" data-name="&lt;Path&gt;" d="M301.29,287.15h5.79c.33,0,.55.08.48.18l-.77,1.22a1.12,1.12,0,0,1-.73.18h-6c-.34,0-.55-.08-.48-.18l.94-1.22A1.19,1.19,0,0,1,301.29,287.15Z" fill="#00aeef"/></g><g id="_Group_46" data-name="&lt;Group&gt;"><path id="_Path_38" data-name="&lt;Path&gt;" d="M293.15,287.15h5.79c.33,0,.53.08.46.18l-1,1.22a1.26,1.26,0,0,1-.76.18h-6c-.34,0-.54-.08-.45-.18l1.14-1.22A1.34,1.34,0,0,1,293.15,287.15Z" fill="#00aeef"/></g><g id="_Group_47" data-name="&lt;Group&gt;"><path id="_Path_39" data-name="&lt;Path&gt;" d="M285,287.15h5.79c.33,0,.52.08.43.18l-1.17,1.22a1.41,1.41,0,0,1-.79.18h-6c-.34,0-.53-.08-.42-.18l1.34-1.22A1.5,1.5,0,0,1,285,287.15Z" fill="#00aeef"/></g><g id="_Group_48" data-name="&lt;Group&gt;"><path id="_Path_40" data-name="&lt;Path&gt;" d="M276.86,287.15h5.79c.33,0,.51.08.4.18l-1.37,1.22a1.58,1.58,0,0,1-.82.18h-6c-.34,0-.52-.08-.39-.18l1.54-1.22A1.67,1.67,0,0,1,276.86,287.15Z" fill="#00aeef"/></g><g id="_Group_49" data-name="&lt;Group&gt;"><path id="_Path_41" data-name="&lt;Path&gt;" d="M388.46,289.09h6a1.56,1.56,0,0,1,.82.18l1.33,1.22c.11.1-.09.18-.44.18H390a1.47,1.47,0,0,1-.81-.18L388,289.27C387.92,289.17,388.12,289.09,388.46,289.09Z" fill="#00aeef"/></g><g id="_Group_50" data-name="&lt;Group&gt;"><path id="_Path_42" data-name="&lt;Path&gt;" d="M380,289.09h6a1.4,1.4,0,0,1,.79.18l1.13,1.22c.09.1-.12.18-.47.18h-6.23a1.31,1.31,0,0,1-.78-.18l-1-1.22C379.41,289.17,379.63,289.09,380,289.09Z" fill="#00aeef"/></g><g id="_Group_51" data-name="&lt;Group&gt;"><path id="_Path_43" data-name="&lt;Path&gt;" d="M371.48,289.09h6a1.24,1.24,0,0,1,.76.18l.93,1.22c.08.1-.15.18-.5.18h-6.23a1.17,1.17,0,0,1-.75-.18l-.76-1.22C370.9,289.17,371.13,289.09,371.48,289.09Z" fill="#00aeef"/></g><g id="_Group_52" data-name="&lt;Group&gt;"><path id="_Path_44" data-name="&lt;Path&gt;" d="M363,289.09h6a1.1,1.1,0,0,1,.73.18l.73,1.22c.06.1-.18.18-.53.18h-6.23c-.35,0-.68-.08-.72-.18l-.56-1.22C362.4,289.17,362.64,289.09,363,289.09Z" fill="#00aeef"/></g><g id="_Group_53" data-name="&lt;Group&gt;"><path id="_Path_45" data-name="&lt;Path&gt;" d="M354.49,289.09h6c.34,0,.66.08.7.18l.53,1.22c0,.1-.21.18-.56.18H355c-.35,0-.66-.08-.69-.18l-.36-1.22C353.89,289.17,354.14,289.09,354.49,289.09Z" fill="#00aeef"/></g><g id="_Group_54" data-name="&lt;Group&gt;"><path id="_Path_46" data-name="&lt;Path&gt;" d="M346,289.09h6c.34,0,.64.08.67.18l.33,1.22c0,.1-.24.18-.59.18h-6.23c-.35,0-.65-.08-.66-.18l-.15-1.22C345.38,289.17,345.65,289.09,346,289.09Z" fill="#00aeef"/></g><g id="_Group_55" data-name="&lt;Group&gt;"><path id="_Path_47" data-name="&lt;Path&gt;" d="M337.5,289.09h6c.34,0,.63.08.64.18l.13,1.22c0,.1-.27.18-.62.18h-6.23c-.35,0-.64-.08-.63-.18l0-1.22C336.87,289.17,337.16,289.09,337.5,289.09Z" fill="#00aeef"/></g><g id="_Group_56" data-name="&lt;Group&gt;"><path id="_Path_48" data-name="&lt;Path&gt;" d="M329,289.09h6c.34,0,.62.08.61.18l-.07,1.22c0,.1-.3.18-.65.18H328.7c-.35,0-.62-.08-.6-.18l.25-1.22C328.37,289.17,328.66,289.09,329,289.09Z" fill="#00aeef"/></g><g id="_Group_57" data-name="&lt;Group&gt;"><path id="_Path_49" data-name="&lt;Path&gt;" d="M320.51,289.09h6c.34,0,.6.08.58.18l-.28,1.22c0,.1-.33.18-.68.18h-6.23c-.35,0-.61-.08-.57-.18l.45-1.22C319.86,289.17,320.17,289.09,320.51,289.09Z" fill="#00aeef"/></g><g id="_Group_58" data-name="&lt;Group&gt;"><path id="_Path_50" data-name="&lt;Path&gt;" d="M312,289.09h6c.34,0,.59.08.55.18l-.48,1.22c0,.1-.36.18-.71.18h-6.23c-.35,0-.6-.08-.54-.18l.65-1.22C311.35,289.17,311.67,289.09,312,289.09Z" fill="#00aeef"/></g><g id="_Group_59" data-name="&lt;Group&gt;"><path id="_Path_51" data-name="&lt;Path&gt;" d="M303.52,289.09h6c.34,0,.58.08.52.18l-.68,1.22c-.06.1-.39.18-.74.18h-6.23c-.35,0-.58-.08-.51-.18l.85-1.22A1.19,1.19,0,0,1,303.52,289.09Z" fill="#00aeef"/></g><g id="_Group_60" data-name="&lt;Group&gt;"><path id="_Path_52" data-name="&lt;Path&gt;" d="M295,289.09h6c.34,0,.56.08.49.18l-.88,1.22a1.25,1.25,0,0,1-.77.18h-6.23c-.35,0-.57-.08-.49-.18l1.05-1.22A1.33,1.33,0,0,1,295,289.09Z" fill="#00aeef"/></g><g id="_Group_61" data-name="&lt;Group&gt;"><path id="_Path_53" data-name="&lt;Path&gt;" d="M286.53,289.09h6c.34,0,.55.08.46.18L292,290.49a1.41,1.41,0,0,1-.8.18h-6.23c-.35,0-.56-.08-.46-.18l1.25-1.22A1.49,1.49,0,0,1,286.53,289.09Z" fill="#00aeef"/></g><g id="_Group_62" data-name="&lt;Group&gt;"><path id="_Path_54" data-name="&lt;Path&gt;" d="M274.44,289.09h9.43c.34,0,.54.08.43.18L283,290.49a1.57,1.57,0,0,1-.83.18h-9.72c-.35,0-.54-.08-.41-.18l1.54-1.22A1.74,1.74,0,0,1,274.44,289.09Z" fill="#00aeef"/></g><g id="_Group_63" data-name="&lt;Group&gt;"><path id="_Path_55" data-name="&lt;Path&gt;" d="M384.72,291h11.88a1.62,1.62,0,0,1,.84.18l1.33,1.22c.11.1-.1.18-.47.18H386.08a1.43,1.43,0,0,1-.82-.18l-1-1.22C384.15,291.11,384.37,291,384.72,291Z" fill="#00aeef"/></g><g id="_Group_64" data-name="&lt;Group&gt;"><path id="_Path_56" data-name="&lt;Path&gt;" d="M375.78,291h6.34a1.36,1.36,0,0,1,.79.18l1,1.22c.08.1-.15.18-.52.18h-6.53a1.28,1.28,0,0,1-.79-.18l-.83-1.22C375.19,291.11,375.42,291,375.78,291Z" fill="#00aeef"/></g><g id="_Group_65" data-name="&lt;Group&gt;"><path id="_Path_57" data-name="&lt;Path&gt;" d="M366.89,291h6.34a1.21,1.21,0,0,1,.76.18l.8,1.22c.07.1-.18.18-.55.18h-6.53c-.37,0-.7-.08-.76-.18l-.63-1.22C366.28,291.11,366.53,291,366.89,291Z" fill="#00aeef"/></g><g id="_Group_66" data-name="&lt;Group&gt;"><path id="_Path_58" data-name="&lt;Path&gt;" d="M358,291h6.34c.36,0,.68.08.73.18l.6,1.22c0,.1-.21.18-.58.18h-6.53c-.37,0-.69-.08-.73-.18l-.42-1.22C357.38,291.11,357.64,291,358,291Z" fill="#00aeef"/></g><g id="_Group_67" data-name="&lt;Group&gt;"><path id="_Path_59" data-name="&lt;Path&gt;" d="M349.11,291h6.34c.36,0,.67.08.7.18l.39,1.22c0,.1-.24.18-.61.18h-6.53c-.37,0-.68-.08-.7-.18l-.22-1.22C348.48,291.11,348.75,291,349.11,291Z" fill="#00aeef"/></g><g id="_Group_68" data-name="&lt;Group&gt;"><path id="_Path_60" data-name="&lt;Path&gt;" d="M340.21,291h6.34c.36,0,.66.08.67.18l.19,1.22c0,.1-.27.18-.64.18h-6.53c-.37,0-.66-.08-.67-.18l0-1.22C339.57,291.11,339.86,291,340.21,291Z" fill="#00aeef"/></g><g id="_Group_69" data-name="&lt;Group&gt;"><path id="_Path_61" data-name="&lt;Path&gt;" d="M331.32,291h6.34c.36,0,.64.08.64.18v1.22c0,.1-.3.18-.66.18H331.1c-.37,0-.65-.08-.64-.18l.19-1.22C330.67,291.11,331,291,331.32,291Z" fill="#00aeef"/></g><g id="_Group_70" data-name="&lt;Group&gt;"><path id="_Path_62" data-name="&lt;Path&gt;" d="M322.43,291h6.34c.36,0,.63.08.61.18l-.21,1.22c0,.1-.33.18-.69.18h-6.53c-.37,0-.64-.08-.61-.18l.39-1.22C321.76,291.11,322.08,291,322.43,291Z" fill="#00aeef"/></g><g id="_Group_71" data-name="&lt;Group&gt;"><path id="_Path_63" data-name="&lt;Path&gt;" d="M313.54,291h6.34c.36,0,.62.08.58.18l-.42,1.22c0,.1-.36.18-.72.18H312.8c-.37,0-.62-.08-.58-.18l.59-1.22C312.86,291.11,313.19,291,313.54,291Z" fill="#00aeef"/></g><g id="_Group_72" data-name="&lt;Group&gt;"><path id="_Path_64" data-name="&lt;Path&gt;" d="M304.65,291H311c.36,0,.6.08.55.18l-.62,1.22c-.05.1-.39.18-.75.18h-6.53c-.37,0-.61-.08-.55-.18l.79-1.22A1.2,1.2,0,0,1,304.65,291Z" fill="#00aeef"/></g><g id="_Group_73" data-name="&lt;Group&gt;"><path id="_Path_65" data-name="&lt;Path&gt;" d="M295.76,291h6.34c.36,0,.59.08.52.18l-.82,1.22a1.27,1.27,0,0,1-.78.18h-6.53c-.37,0-.6-.08-.52-.18l1-1.22A1.35,1.35,0,0,1,295.76,291Z" fill="#00aeef"/></g><g id="_Group_74" data-name="&lt;Group&gt;"><path id="_Path_66" data-name="&lt;Path&gt;" d="M286.87,291h6.34c.36,0,.58.08.49.18l-1,1.22a1.42,1.42,0,0,1-.81.18h-6.53c-.37,0-.58-.08-.49-.18l1.2-1.22A1.51,1.51,0,0,1,286.87,291Z" fill="#00aeef"/></g><g id="_Group_75" data-name="&lt;Group&gt;"><path id="_Path_67" data-name="&lt;Path&gt;" d="M272,291h12.34c.36,0,.56.08.46.18l-1.23,1.22a1.59,1.59,0,0,1-.84.18H270c-.37,0-.56-.08-.44-.18l1.54-1.22A1.81,1.81,0,0,1,272,291Z" fill="#00aeef"/></g><g id="_Group_76" data-name="&lt;Group&gt;"><path id="_Path_68" data-name="&lt;Path&gt;" d="M382.55,293H398.7a1.69,1.69,0,0,1,.86.18l1.33,1.22c.11.1-.11.18-.49.18H383.79a1.43,1.43,0,0,1-.83-.18l-.95-1.22C381.94,293,382.18,293,382.55,293Z" fill="#00aeef"/></g><g id="_Group_77" data-name="&lt;Group&gt;"><path id="_Path_69" data-name="&lt;Path&gt;" d="M373.05,293h6.68a1.35,1.35,0,0,1,.8.18l.92,1.22c.07.1-.17.18-.55.18H374a1.27,1.27,0,0,1-.8-.18l-.74-1.22C372.43,293,372.68,293,373.05,293Z" fill="#00aeef"/></g><g id="_Group_78" data-name="&lt;Group&gt;"><path id="_Path_70" data-name="&lt;Path&gt;" d="M363.71,293h6.68a1.2,1.2,0,0,1,.77.18l.71,1.22c.06.1-.2.18-.58.18h-6.88c-.38,0-.72-.08-.77-.18l-.53-1.22C363.07,293,363.34,293,363.71,293Z" fill="#00aeef"/></g><g id="_Group_79" data-name="&lt;Group&gt;"><path id="_Path_71" data-name="&lt;Path&gt;" d="M354.36,293H361c.37,0,.7.08.74.18l.5,1.22c0,.1-.23.18-.61.18H354.8c-.38,0-.71-.08-.73-.18l-.33-1.22C353.71,293,354,293,354.36,293Z" fill="#00aeef"/></g><g id="_Group_80" data-name="&lt;Group&gt;"><path id="_Path_72" data-name="&lt;Path&gt;" d="M345,293h6.68c.37,0,.69.08.71.18l.3,1.22c0,.1-.26.18-.64.18h-6.88c-.38,0-.69-.08-.7-.18l-.12-1.22C344.35,293,344.65,293,345,293Z" fill="#00aeef"/></g><g id="_Group_81" data-name="&lt;Group&gt;"><path id="_Path_73" data-name="&lt;Path&gt;" d="M335.67,293h6.68c.37,0,.67.08.68.18l.09,1.22c0,.1-.29.18-.67.18h-6.88c-.38,0-.68-.08-.67-.18l.08-1.22C335,293,335.3,293,335.67,293Z" fill="#00aeef"/></g><g id="_Group_82" data-name="&lt;Group&gt;"><path id="_Path_74" data-name="&lt;Path&gt;" d="M326.32,293H333c.37,0,.66.08.65.18l-.11,1.22c0,.1-.32.18-.7.18H326c-.38,0-.67-.08-.64-.18l.29-1.22C325.64,293,326,293,326.32,293Z" fill="#00aeef"/></g><g id="_Group_83" data-name="&lt;Group&gt;"><path id="_Path_75" data-name="&lt;Path&gt;" d="M317,293h6.68c.37,0,.65.08.62.18l-.32,1.22c0,.1-.35.18-.73.18h-6.88c-.38,0-.65-.08-.61-.18l.5-1.22C316.28,293,316.61,293,317,293Z" fill="#00aeef"/></g><g id="_Group_84" data-name="&lt;Group&gt;"><path id="_Path_76" data-name="&lt;Path&gt;" d="M307.63,293h6.68c.37,0,.63.08.59.18l-.52,1.22c0,.1-.38.18-.76.18h-6.88c-.38,0-.64-.08-.58-.18l.7-1.22A1.2,1.2,0,0,1,307.63,293Z" fill="#00aeef"/></g><g id="_Group_85" data-name="&lt;Group&gt;"><path id="_Path_77" data-name="&lt;Path&gt;" d="M298.28,293H305c.37,0,.62.08.56.18l-.73,1.22a1.26,1.26,0,0,1-.79.18h-6.88c-.38,0-.63-.08-.55-.18l.91-1.22A1.34,1.34,0,0,1,298.28,293Z" fill="#00aeef"/></g><g id="_Group_86" data-name="&lt;Group&gt;"><path id="_Path_78" data-name="&lt;Path&gt;" d="M288.94,293h6.68c.37,0,.61.08.53.18l-.94,1.22a1.42,1.42,0,0,1-.82.18h-6.88c-.38,0-.61-.08-.52-.18l1.11-1.22A1.51,1.51,0,0,1,288.94,293Z" fill="#00aeef"/></g><g id="_Group_87" data-name="&lt;Group&gt;"><path id="_Path_79" data-name="&lt;Path&gt;" d="M269.6,293H286c.37,0,.59.08.5.18l-1.15,1.22a1.59,1.59,0,0,1-.86.18H267.62c-.38,0-.59-.08-.46-.18l1.54-1.22A1.88,1.88,0,0,1,269.6,293Z" fill="#00aeef"/></g><g id="_Group_88" data-name="&lt;Group&gt;"><path id="_Path_80" data-name="&lt;Path&gt;" d="M384.07,294.9h7a1.58,1.58,0,0,1,.86.18l.48.52c.09.1-.15.18-.54.18h-7.08a1.47,1.47,0,0,1-.84-.18l-.4-.52C383.45,295,383.69,294.9,384.07,294.9Z" fill="#00aeef"/></g><g id="_Group_89" data-name="&lt;Group&gt;"><path id="_Path_81" data-name="&lt;Path&gt;" d="M394.66,295.78h7.08a1.79,1.79,0,0,1,.9.18l.57.52c.11.1-.12.18-.52.18H395.5a1.66,1.66,0,0,1-.88-.18l-.49-.52C394,295.86,394.27,295.78,394.66,295.78Z" fill="#00aeef"/></g><g id="_Group_90" data-name="&lt;Group&gt;"><path id="_Path_82" data-name="&lt;Path&gt;" d="M384.77,295.78h7.08a1.61,1.61,0,0,1,.87.18l.48.52c.09.1-.15.18-.55.18h-7.19a1.49,1.49,0,0,1-.85-.18l-.4-.52C384.13,295.86,384.38,295.78,384.77,295.78Z" fill="#00aeef"/></g><g id="_Group_91" data-name="&lt;Group&gt;"><path id="_Path_83" data-name="&lt;Path&gt;" d="M374.88,295.78H382a1.44,1.44,0,0,1,.84.18l.39.52c.07.1-.18.18-.58.18h-7.19a1.33,1.33,0,0,1-.82-.18l-.32-.52C374.22,295.86,374.49,295.78,374.88,295.78Z" fill="#00aeef"/></g><g id="_Group_92" data-name="&lt;Group&gt;"><path id="_Path_84" data-name="&lt;Path&gt;" d="M366.66,294.9h4.9a1.26,1.26,0,0,1,.8.18l.82,1.4c.06.1-.21.18-.61.18h-5.06c-.39,0-.75-.08-.8-.18l-.66-1.4C366,295,366.28,294.9,366.66,294.9Z" fill="#00aeef"/></g><g id="_Group_93" data-name="&lt;Group&gt;"><path id="_Path_85" data-name="&lt;Path&gt;" d="M354.85,294.9h9.05c.38,0,.73.08.77.18l.63,1.4c0,.1-.24.18-.63.18h-9.33c-.39,0-.73-.08-.76-.18l-.37-1.4C354.18,295,354.47,294.9,354.85,294.9Z" fill="#00aeef"/></g><g id="_Group_94" data-name="&lt;Group&gt;"><path id="_Path_86" data-name="&lt;Path&gt;" d="M306.54,294.9h45.61c.38,0,.71.08.73.18l.34,1.4c0,.1-.27.18-.67.18h-47c-.39,0-.67-.08-.61-.18l.8-1.4A1.25,1.25,0,0,1,306.54,294.9Z" fill="#00aeef"/></g><g id="_Group_95" data-name="&lt;Group&gt;"><path id="_Path_87" data-name="&lt;Path&gt;" d="M295,294.9h8.77c.38,0,.64.08.58.18l-.84,1.4a1.33,1.33,0,0,1-.82.18h-9c-.39,0-.65-.08-.57-.18l1.09-1.4A1.44,1.44,0,0,1,295,294.9Z" fill="#00aeef"/></g><g id="_Group_96" data-name="&lt;Group&gt;"><path id="_Path_88" data-name="&lt;Path&gt;" d="M286.66,294.9h5.6c.38,0,.63.08.55.18l-1.12,1.4a1.52,1.52,0,0,1-.86.18h-5.77c-.39,0-.64-.08-.55-.18l1.29-1.4A1.58,1.58,0,0,1,286.66,294.9Z" fill="#00aeef"/></g><g id="_Group_97" data-name="&lt;Group&gt;"><path id="_Path_89" data-name="&lt;Path&gt;" d="M276.92,294.9h7c.38,0,.61.08.52.18l-1.32,1.4a1.66,1.66,0,0,1-.88.18H275c-.39,0-.62-.08-.52-.18l1.53-1.4A1.76,1.76,0,0,1,276.92,294.9Z" fill="#00aeef"/></g><g id="_Group_98" data-name="&lt;Group&gt;"><path id="_Path_90" data-name="&lt;Path&gt;" d="M267.18,294.9h7c.38,0,.6.08.49.18l-1.56,1.4a1.85,1.85,0,0,1-.91.18H265c-.39,0-.61-.08-.49-.18l1.77-1.4A2,2,0,0,1,267.18,294.9Z" fill="#00aeef"/></g></g></g><g id="_Group_99" data-name="&lt;Group&gt;"><path id="_Path_91" data-name="&lt;Path&gt;" d="M232.59,246.13H435a6.56,6.56,0,0,0,6.56-6.56v-8.12H226v8.12A6.56,6.56,0,0,0,232.59,246.13Z" fill="#fff"/><path id="_Compound_Path_9" data-name="&lt;Compound Path&gt;" d="M435,246.5H232.59a6.93,6.93,0,0,1-6.92-6.92v-8.48H441.89v8.48A6.93,6.93,0,0,1,435,246.5ZM226.38,231.81v7.76a6.21,6.21,0,0,0,6.2,6.2H435a6.21,6.21,0,0,0,6.2-6.2v-7.76Z" fill="#1b75bc"/></g><g id="_Group_100" data-name="&lt;Group&gt;"><path id="_Path_92" data-name="&lt;Path&gt;" d="M566.82,291.82H500.21a7.35,7.35,0,0,1-7.35-7.35h0a7.35,7.35,0,0,1,7.35-7.35h66.61Q561.48,285.6,566.82,291.82Z" fill="#fff"/><path id="_Compound_Path_10" data-name="&lt;Compound Path&gt;" d="M566.82,292.18H500.21a7.71,7.71,0,0,1,0-15.41h66.61a.36.36,0,0,1,.31.55c-3.5,5.55-3.51,10.21,0,14.26a.36.36,0,0,1-.27.6Zm-66.61-14.69a7,7,0,0,0,0,14h65.85c-3.06-4-3-8.69.11-14Z" fill="#1b75bc"/></g><g id="_Group_101" data-name="&lt;Group&gt;"><line id="_Path_93" data-name="&lt;Path&gt;" x1="538.94" y1="282.24" x2="558.59" y2="282.24" fill="#c7eafb"/><rect id="_Path_94" data-name="&lt;Path&gt;" x="538.94" y="281.88" width="19.65" height="0.72" fill="#1b75bc"/></g><g id="_Group_102" data-name="&lt;Group&gt;"><line id="_Path_95" data-name="&lt;Path&gt;" x1="503.72" y1="285.03" x2="531.89" y2="285.03" fill="#c7eafb"/><rect id="_Path_96" data-name="&lt;Path&gt;" x="503.72" y="284.67" width="28.18" height="0.72" fill="#1b75bc"/></g><g id="_Group_103" data-name="&lt;Group&gt;"><line id="_Path_97" data-name="&lt;Path&gt;" x1="521.14" y1="287.94" x2="564.17" y2="287.94" fill="#c7eafb"/><path id="_Path_98" data-name="&lt;Path&gt;" d="M564.17,288.3h-43a.36.36,0,1,1,0-.72h43a.36.36,0,0,1,0,.72Z" fill="#1b75bc"/></g><g id="_Group_104" data-name="&lt;Group&gt;"><path id="_Path_99" data-name="&lt;Path&gt;" d="M569.11,277.13H502.51a7.35,7.35,0,0,1-7.35-7.35h0a7.35,7.35,0,0,1,7.35-7.35h66.61Q563.78,270.9,569.11,277.13Z" fill="#fff"/><path id="_Compound_Path_11" data-name="&lt;Compound Path&gt;" d="M569.12,277.49H502.51a7.71,7.71,0,0,1,0-15.41h66.61a.36.36,0,0,1,.31.55c-3.5,5.55-3.51,10.21,0,14.26a.36.36,0,0,1-.27.6ZM502.51,262.8a7,7,0,0,0,0,14h65.85c-3.06-4-3-8.69.11-14Z" fill="#1b75bc"/></g><g id="_Group_105" data-name="&lt;Group&gt;"><line id="_Path_100" data-name="&lt;Path&gt;" x1="541.23" y1="267.55" x2="560.88" y2="267.55" fill="#c7eafb"/><rect id="_Path_101" data-name="&lt;Path&gt;" x="541.23" y="267.19" width="19.65" height="0.72" fill="#1b75bc"/></g><g id="_Group_106" data-name="&lt;Group&gt;"><line id="_Path_102" data-name="&lt;Path&gt;" x1="506.01" y1="270.34" x2="534.19" y2="270.34" fill="#c7eafb"/><rect id="_Path_103" data-name="&lt;Path&gt;" x="506.01" y="269.98" width="28.18" height="0.72" fill="#1b75bc"/></g><g id="_Group_107" data-name="&lt;Group&gt;"><line id="_Path_104" data-name="&lt;Path&gt;" x1="523.44" y1="273.25" x2="566.47" y2="273.25" fill="#c7eafb"/><path id="_Path_105" data-name="&lt;Path&gt;" d="M566.47,273.61h-43a.36.36,0,1,1,0-.72h43a.36.36,0,1,1,0,.72Z" fill="#1b75bc"/></g><g id="_Group_108" data-name="&lt;Group&gt;"><path id="_Path_106" data-name="&lt;Path&gt;" d="M525,250.24h32.76l-30.69-5.5H474.46a5.8,5.8,0,0,0-5.8,5.8h0a5.8,5.8,0,0,0,4.56,5.66v0l28.06,6.08v-6h25.78A8,8,0,0,1,525,250.24Z" fill="#778e9a"/><path id="_Compound_Path_12" data-name="&lt;Compound Path&gt;" d="M501.64,262.77l-28.82-6.25v0a6.16,6.16,0,0,1,1.64-12.1h52.59l30.75,5.51-.06.72H525.32a7.7,7.7,0,0,0,2,5.5l.51.6h-26.2Zm-28-6.81,27.3,5.92V256H526.3a8.2,8.2,0,0,1-1.68-5.77l0-.33h29L527,245.09H474.46a5.44,5.44,0,0,0-1.16,10.75l.32.07Z" fill="#1b75bc"/></g><g id="_Group_109" data-name="&lt;Group&gt;"><path id="_Path_107" data-name="&lt;Path&gt;" d="M557.74,262.44H502.46a6.1,6.1,0,0,1-6.1-6.1h0a6.1,6.1,0,0,1,6.1-6.1h55.28Q553.31,257.27,557.74,262.44Z" fill="#fff"/><path id="_Compound_Path_13" data-name="&lt;Compound Path&gt;" d="M558.53,262.8H502.46a6.46,6.46,0,0,1,0-12.91h55.93l-.35.55c-2.89,4.58-2.9,8.43,0,11.76ZM502.46,250.6a5.73,5.73,0,0,0,0,11.47H557c-2.46-3.3-2.43-7.15.11-11.47Z" fill="#1b75bc"/></g><g id="_Group_110" data-name="&lt;Group&gt;"><line id="_Path_108" data-name="&lt;Path&gt;" x1="534.6" y1="254.49" x2="550.91" y2="254.49" fill="#c7eafb"/><path id="_Path_109" data-name="&lt;Path&gt;" d="M550.91,254.85H534.6a.36.36,0,0,1,0-.72h16.31a.36.36,0,0,1,0,.72Z" fill="#1b75bc"/></g><g id="_Group_111" data-name="&lt;Group&gt;"><line id="_Path_110" data-name="&lt;Path&gt;" x1="505.37" y1="256.81" x2="528.76" y2="256.81" fill="#c7eafb"/><rect id="_Path_111" data-name="&lt;Path&gt;" x="505.37" y="256.44" width="23.38" height="0.72" fill="#1b75bc"/></g><g id="_Group_112" data-name="&lt;Group&gt;"><line id="_Path_112" data-name="&lt;Path&gt;" x1="519.83" y1="259.22" x2="555.55" y2="259.22" fill="#c7eafb"/><path id="_Path_113" data-name="&lt;Path&gt;" d="M555.55,259.58H519.83a.36.36,0,0,1,0-.72h35.71a.36.36,0,1,1,0,.72Z" fill="#1b75bc"/></g><g id="_Group_113" data-name="&lt;Group&gt;"><rect id="_Rectangle_5" data-name="&lt;Rectangle&gt;" x="142.23" y="46.93" width="58.9" height="63.6" fill="#fff"/><path id="_Compound_Path_14" data-name="&lt;Compound Path&gt;" d="M201.49,110.9H141.87V46.57h59.62Zm-58.9-.72h58.18V47.3H142.59Z" fill="#1b75bc"/></g><g id="_Group_114" data-name="&lt;Group&gt;"><rect id="_Rectangle_6" data-name="&lt;Rectangle&gt;" x="135.08" y="39.31" width="72.44" height="7.63" fill="#1b75bc"/><path id="_Compound_Path_15" data-name="&lt;Compound Path&gt;" d="M207.89,47.3H134.72V38.95h73.17Zm-72.44-.72h71.72v-6.9H135.44Z" fill="#1b75bc"/></g><g id="_Group_115" data-name="&lt;Group&gt;"><g id="_Group_116" data-name="&lt;Group&gt;"><path d="M160.08,51.74l2,5,2-5h1.05V57.9h-.81V55.5l.08-2.59-2,5h-.62l-2-5,.08,2.58v2.4H159V51.74Z" fill="#00aeef"/></g><g id="_Group_117" data-name="&lt;Group&gt;"><path d="M169.3,57.9a.85.85,0,0,1-.07-.21q0-.13,0-.27a2.08,2.08,0,0,1-.25.22,1.77,1.77,0,0,1-.3.18,1.71,1.71,0,0,1-.35.12,1.76,1.76,0,0,1-.4,0,1.82,1.82,0,0,1-.64-.11,1.48,1.48,0,0,1-.49-.29,1.27,1.27,0,0,1-.31-.43,1.29,1.29,0,0,1-.11-.53,1.41,1.41,0,0,1,.14-.65,1.3,1.3,0,0,1,.41-.47,2,2,0,0,1,.65-.29,3.44,3.44,0,0,1,.85-.1h.78v-.36a.88.88,0,0,0-.25-.65,1,1,0,0,0-.72-.24,1.29,1.29,0,0,0-.4.06,1,1,0,0,0-.31.16.74.74,0,0,0-.2.23.56.56,0,0,0-.07.28h-.79a1,1,0,0,1,.13-.49,1.43,1.43,0,0,1,.37-.43,1.94,1.94,0,0,1,.57-.31,2.21,2.21,0,0,1,.75-.12,2.37,2.37,0,0,1,.69.1,1.47,1.47,0,0,1,.54.29,1.33,1.33,0,0,1,.35.48,1.65,1.65,0,0,1,.13.67V56.9a3.15,3.15,0,0,0,0,.49,1.84,1.84,0,0,0,.12.44v.07Zm-1.3-.6a1.3,1.3,0,0,0,.4-.06,1.49,1.49,0,0,0,.34-.15,1.26,1.26,0,0,0,.26-.22,1.07,1.07,0,0,0,.18-.25v-.94h-.65a2.1,2.1,0,0,0-1,.21.68.68,0,0,0-.36.63.86.86,0,0,0,.06.31.65.65,0,0,0,.17.25.83.83,0,0,0,.28.17A1.07,1.07,0,0,0,168,57.3Z" fill="#00aeef"/></g><g id="_Group_118" data-name="&lt;Group&gt;"><path d="M173.4,54l-.19,0H173a1.14,1.14,0,0,0-.66.18,1.08,1.08,0,0,0-.38.48V57.9h-.78V53.32H172v.53a1.38,1.38,0,0,1,.44-.45,1.21,1.21,0,0,1,.65-.17l.19,0,.15,0Z" fill="#00aeef"/></g><g id="_Group_119" data-name="&lt;Group&gt;"><path d="M175.88,57.34a1.18,1.18,0,0,0,.4-.07,1.13,1.13,0,0,0,.34-.19,1,1,0,0,0,.24-.28.88.88,0,0,0,.11-.35h.74a1.37,1.37,0,0,1-.17.58,1.7,1.7,0,0,1-.4.49,2,2,0,0,1-.57.33,1.89,1.89,0,0,1-.69.12,2.05,2.05,0,0,1-.9-.18,1.82,1.82,0,0,1-.64-.5,2.11,2.11,0,0,1-.38-.73,3,3,0,0,1-.12-.88v-.18a3,3,0,0,1,.12-.88,2.11,2.11,0,0,1,.38-.73,1.83,1.83,0,0,1,.63-.5,2,2,0,0,1,.9-.18,2,2,0,0,1,.73.13,1.75,1.75,0,0,1,.57.35,1.6,1.6,0,0,1,.37.53,1.82,1.82,0,0,1,.15.66H177a1.19,1.19,0,0,0-.1-.4,1,1,0,0,0-.22-.32,1,1,0,0,0-.33-.22,1.1,1.1,0,0,0-.43-.08,1.15,1.15,0,0,0-.6.14,1.14,1.14,0,0,0-.39.38,1.59,1.59,0,0,0-.21.53,3,3,0,0,0-.06.59v.18a3,3,0,0,0,.06.6,1.59,1.59,0,0,0,.2.53,1.12,1.12,0,0,0,.39.38A1.17,1.17,0,0,0,175.88,57.34Z" fill="#00aeef"/></g><g id="_Group_120" data-name="&lt;Group&gt;"><path d="M179.36,53.87a1.76,1.76,0,0,1,.59-.47,1.71,1.71,0,0,1,.77-.17,1.89,1.89,0,0,1,.61.09,1.11,1.11,0,0,1,.46.29,1.35,1.35,0,0,1,.29.52,2.46,2.46,0,0,1,.1.76v3h-.78v-3a1.53,1.53,0,0,0-.06-.45.75.75,0,0,0-.18-.31.69.69,0,0,0-.29-.17,1.3,1.3,0,0,0-.4-.06,1.13,1.13,0,0,0-.67.2,1.38,1.38,0,0,0-.45.53V57.9h-.78V51.4h.78Z" fill="#00aeef"/></g></g><g id="_Group_121" data-name="&lt;Group&gt;"><g id="_Group_122" data-name="&lt;Group&gt;"><path d="M175.77,100.11h-7V73.21l-8.33,2.58V70.12L175,64.91h.75Z" fill="#00aeef"/></g></g><g id="_Group_123" data-name="&lt;Group&gt;"><path id="_Compound_Path_16" data-name="&lt;Compound Path&gt;" d="M333.72,74.46a37.23,37.23,0,1,1,37.23-37.23A37.27,37.27,0,0,1,333.72,74.46Zm0-70.85a33.62,33.62,0,1,0,33.62,33.62A33.66,33.66,0,0,0,333.72,3.61Z" fill="#00aeef"/></g><g id="_Group_124" data-name="&lt;Group&gt;"><path id="_Path_114" data-name="&lt;Path&gt;" d="M333.72,10.63a.36.36,0,0,1-.36-.36V6.15a.36.36,0,1,1,.72,0v4.11A.36.36,0,0,1,333.72,10.63Z" fill="#1b75bc"/></g><g id="_Group_125" data-name="&lt;Group&gt;"><path id="_Path_115" data-name="&lt;Path&gt;" d="M306.75,37.59h-4.11a.36.36,0,0,1,0-.72h4.11a.36.36,0,0,1,0,.72Z" fill="#1b75bc"/></g><g id="_Group_126" data-name="&lt;Group&gt;"><path id="_Path_116" data-name="&lt;Path&gt;" d="M333.72,68.68a.36.36,0,0,1-.36-.36V64.2a.36.36,0,1,1,.72,0v4.11A.36.36,0,0,1,333.72,68.68Z" fill="#1b75bc"/></g><g id="_Group_127" data-name="&lt;Group&gt;"><path id="_Path_117" data-name="&lt;Path&gt;" d="M364.8,37.59h-4.11a.36.36,0,0,1,0-.72h4.11a.36.36,0,0,1,0,.72Z" fill="#1b75bc"/></g><g id="_Group_128" data-name="&lt;Group&gt;"><path id="_Path_118" data-name="&lt;Path&gt;" d="M333.78,38.32H316.36a1.08,1.08,0,0,1,0-2.17h16.33V13.63a1.08,1.08,0,1,1,2.17,0v23.6A1.08,1.08,0,0,1,333.78,38.32Z" fill="#1b75bc"/></g><g id="_Group_129" data-name="&lt;Group&gt;"><circle id="_Path_119" data-name="&lt;Path&gt;" cx="333.78" cy="37.23" r="2.08" fill="#fff"/><path id="_Compound_Path_17" data-name="&lt;Compound Path&gt;" d="M333.78,40a2.8,2.8,0,1,1,2.8-2.8A2.8,2.8,0,0,1,333.78,40Zm0-4.15a1.36,1.36,0,1,0,1.35,1.36A1.36,1.36,0,0,0,333.78,35.88Z" fill="#1b75bc"/></g><g id="_Group_130" data-name="&lt;Group&gt;"><path id="_Path_120" data-name="&lt;Path&gt;" d="M437.59,286.09H428.4A5.89,5.89,0,0,0,422.5,292h0a4.6,4.6,0,0,0,3.7,4.52,39.65,39.65,0,0,0,17.23-.41,2.39,2.39,0,0,0,1.83-2.32h0A7.68,7.68,0,0,0,437.59,286.09Z" fill="#fff"/><path id="_Compound_Path_18" data-name="&lt;Compound Path&gt;" d="M433.88,297.62a40.11,40.11,0,0,1-7.74-.76,5,5,0,0,1-4-4.87,6.26,6.26,0,0,1,6.25-6.25h9.19a8.05,8.05,0,0,1,8,8,2.74,2.74,0,0,1-2.11,2.67A40.59,40.59,0,0,1,433.88,297.62Zm-5.48-11.16a5.54,5.54,0,0,0-5.53,5.53,4.24,4.24,0,0,0,3.41,4.17,39.49,39.49,0,0,0,17.08-.41,2,2,0,0,0,1.55-2,7.33,7.33,0,0,0-7.32-7.32Z" fill="#1b75bc"/></g><g id="_Group_131" data-name="&lt;Group&gt;"><path id="_Path_121" data-name="&lt;Path&gt;" d="M147.8,299.88a79.7,79.7,0,0,1-9.85-.54c-3.94-.52-4.48-1.16-4.48-1.77a.74.74,0,0,1,0-.08.86.86,0,0,1-.34-.63l-1.8-26.57a1.14,1.14,0,0,1-.6-.9L129,243.69v0a1,1,0,0,1,.44-.79l-.19-2.93-.26-3.83a1.07,1.07,0,0,1-.55-.87v-2.49c0-.71.71-1.52,5.95-2.19a111.58,111.58,0,0,1,13.38-.71,111.56,111.56,0,0,1,13.38.71c5.24.67,5.95,1.48,5.95,2.19v2.49a1.14,1.14,0,0,1-.62.92l-.21,3.33-.18,3.38a1,1,0,0,1,.45.79v0l-1.71,25.67a1.09,1.09,0,0,1-.52.85l-1.73,27.09h-.33a1.17,1.17,0,0,1-.16.16.74.74,0,0,1,0,.08c0,.62-.54,1.26-4.48,1.77A79.71,79.71,0,0,1,147.8,299.88Z" fill="#1b75bc"/></g><g id="_Group_132" data-name="&lt;Group&gt;"><path d="M166.63,232.77c0-1.33-8.43-2.4-18.84-2.4S129,231.44,129,232.77h0v2.49c0,.2.19.4.53.58h0l0,.41.25,3.68h0l.21,3.21c-.3.17-.46.35-.46.54l1.71,25.68c0,.22.21.43.58.63l1.82,26.84c0,.17.17.33.47.48a.37.37,0,0,0-.14.26c0,1,6.19,1.82,13.84,1.82s13.84-.81,13.84-1.82a.37.37,0,0,0-.14-.26c.31-.15.47-.31.47-.48h.18L163.86,270c.33-.19.51-.39.51-.59l1.71-25.68c0-.19-.17-.37-.47-.54l.2-3.66.23-3.59c.39-.2.6-.41.6-.62v-2.49Zm-37.46.37h0Zm6.77,1.5h0Zm-3.15-.41-.1,0Zm-1.89-.39-.1,0Z" fill="#1b75bc"/></g><g id="_Group_133" data-name="&lt;Group&gt;"><ellipse id="_Path_122" data-name="&lt;Path&gt;" cx="147.8" cy="297.57" rx="13.84" ry="1.82" fill="#8bd7f8"/></g><g id="_Group_134" data-name="&lt;Group&gt;"><path id="_Path_123" data-name="&lt;Path&gt;" d="M129.45,235.22l4.18,61.6c0,1,6.34,1.86,14.17,1.86s14.17-.83,14.17-1.86h.18l3.94-61.6Z" fill="#fff"/></g><g id="_Group_135" data-name="&lt;Group&gt;"><ellipse id="_Path_124" data-name="&lt;Path&gt;" cx="147.8" cy="243.67" rx="17.79" ry="2.34" fill="#fff"/></g><g id="_Group_136" data-name="&lt;Group&gt;"><polygon id="_Path_125" data-name="&lt;Path&gt;" points="165.81 239.47 165.58 243.68 130.01 243.68 129.77 239.93 165.81 239.47" fill="#fff"/></g><g id="_Group_137" data-name="&lt;Group&gt;"><path id="_Path_126" data-name="&lt;Path&gt;" d="M129.52,236.29c2,1.08,9.45,1.87,18.28,1.87s16.08-.78,18.21-1.84l0-.44c-2.1,1.07-9.47,1.85-18.24,1.85s-16.31-.81-18.31-1.89Z" fill="#1b75bc"/></g><g id="_Group_138" data-name="&lt;Group&gt;"><ellipse id="_Path_127" data-name="&lt;Path&gt;" cx="147.8" cy="232.77" rx="18.84" ry="2.4" fill="#7ed3f7"/></g><g id="_Group_139" data-name="&lt;Group&gt;"><path id="_Path_128" data-name="&lt;Path&gt;" d="M147.8,235.17c-10.4,0-18.84-1.08-18.84-2.4v2.49c0,1.37,8.43,2.48,18.84,2.48s18.84-1.11,18.84-2.48v-2.49C166.63,234.1,158.2,235.17,147.8,235.17Z" fill="#44c8f5"/></g><g id="_Group_140" data-name="&lt;Group&gt;"><ellipse id="_Path_129" data-name="&lt;Path&gt;" cx="147.8" cy="269.36" rx="16.57" ry="2.4" fill="#1b75bc"/></g><g id="_Group_141" data-name="&lt;Group&gt;"><polygon id="_Path_130" data-name="&lt;Path&gt;" points="164.37 269.36 166.08 243.68 129.51 243.68 131.22 269.36 164.37 269.36" fill="#1b75bc"/></g><g id="_Group_142" data-name="&lt;Group&gt;"><ellipse id="_Path_131" data-name="&lt;Path&gt;" cx="147.8" cy="297.57" rx="13.84" ry="1.82" fill="#8bd7f8"/></g><g id="_Group_143" data-name="&lt;Group&gt;"><path id="_Path_132" data-name="&lt;Path&gt;" d="M129.45,235.22l4.18,61.6c0,1,6.34,1.86,14.17,1.86s14.17-.83,14.17-1.86h.18l3.94-61.6Z" fill="#fff"/></g><g id="_Group_144" data-name="&lt;Group&gt;"><ellipse id="_Path_133" data-name="&lt;Path&gt;" cx="147.8" cy="243.67" rx="17.79" ry="2.34" fill="#fff"/></g><g id="_Group_145" data-name="&lt;Group&gt;"><polygon id="_Path_134" data-name="&lt;Path&gt;" points="165.81 239.47 165.58 243.68 130.01 243.68 129.77 239.93 165.81 239.47" fill="#fff"/></g><g id="_Group_146" data-name="&lt;Group&gt;"><path id="_Path_135" data-name="&lt;Path&gt;" d="M129.52,236.29c2,1.08,9.45,1.87,18.28,1.87s16.08-.78,18.21-1.84l0-.44c-2.1,1.07-9.47,1.85-18.24,1.85s-16.31-.81-18.31-1.89Z" fill="#1b75bc"/></g><g id="_Group_147" data-name="&lt;Group&gt;"><ellipse id="_Path_136" data-name="&lt;Path&gt;" cx="147.8" cy="232.77" rx="18.84" ry="2.4" fill="#7ed3f7"/></g><g id="_Group_148" data-name="&lt;Group&gt;"><path id="_Path_137" data-name="&lt;Path&gt;" d="M147.8,235.17c-10.4,0-18.84-1.08-18.84-2.4v2.49c0,1.37,8.43,2.48,18.84,2.48s18.84-1.11,18.84-2.48v-2.49C166.63,234.1,158.2,235.17,147.8,235.17Z" fill="#44c8f5"/></g><g id="_Group_149" data-name="&lt;Group&gt;"><ellipse id="_Path_138" data-name="&lt;Path&gt;" cx="147.8" cy="297.57" rx="13.84" ry="1.82" fill="#8bd7f8"/></g><g id="_Group_150" data-name="&lt;Group&gt;"><path id="_Path_139" data-name="&lt;Path&gt;" d="M129.45,235.22l4.18,61.6c0,1,6.34,1.86,14.17,1.86s14.17-.83,14.17-1.86h.18l3.94-61.6Z" fill="#fff"/></g><g id="_Group_151" data-name="&lt;Group&gt;"><ellipse id="_Path_140" data-name="&lt;Path&gt;" cx="147.8" cy="243.67" rx="17.79" ry="2.34" fill="#fff"/></g><g id="_Group_152" data-name="&lt;Group&gt;"><polygon id="_Path_141" data-name="&lt;Path&gt;" points="165.81 239.47 165.58 243.68 130.01 243.68 129.77 239.93 165.81 239.47" fill="#fff"/></g><g id="_Group_153" data-name="&lt;Group&gt;"><path id="_Path_142" data-name="&lt;Path&gt;" d="M129.45,235.22l4.18,61.6c0,1,6.34,1.86,14.17,1.86s14.17-.83,14.17-1.86h.18l3.94-61.6Z" fill="#fff"/></g><g id="_Group_154" data-name="&lt;Group&gt;"><path id="_Path_143" data-name="&lt;Path&gt;" d="M129.52,236.29c2,1.08,9.45,1.87,18.28,1.87s16.08-.78,18.21-1.84l0-.44c-2.1,1.07-9.47,1.85-18.24,1.85s-16.31-.81-18.31-1.89Z" fill="#1b75bc"/></g><g id="_Group_155" data-name="&lt;Group&gt;"><path id="_Path_144" data-name="&lt;Path&gt;" d="M147.8,230.26c-10.4,0-18.84,1.11-18.84,2.48v2.53c0,1.37,8.43,2.48,18.84,2.48s18.84-1.11,18.84-2.48v-2.53C166.63,231.37,158.2,230.26,147.8,230.26Z" fill="#44c8f5"/></g><g id="_Group_156" data-name="&lt;Group&gt;"><ellipse id="_Path_145" data-name="&lt;Path&gt;" cx="147.8" cy="232.77" rx="18.84" ry="2.4" fill="#7ed3f7"/></g><g id="_Group_157" data-name="&lt;Group&gt;"><ellipse id="_Path_146" data-name="&lt;Path&gt;" cx="147.8" cy="243.67" rx="18.28" ry="2.4" fill="#1b75bc"/></g><g id="_Group_158" data-name="&lt;Group&gt;"><ellipse id="_Path_147" data-name="&lt;Path&gt;" cx="147.8" cy="269.36" rx="16.57" ry="2.4" fill="#1b75bc"/></g><g id="_Group_159" data-name="&lt;Group&gt;"><path id="_Path_148" data-name="&lt;Path&gt;" d="M147.8,235.17c-10.4,0-18.84-1.08-18.84-2.4v2.49c0,1.37,8.43,2.48,18.84,2.48s18.84-1.11,18.84-2.48v-2.49C166.63,234.1,158.2,235.17,147.8,235.17Z" fill="#44c8f5"/></g><g id="_Group_160" data-name="&lt;Group&gt;"><path id="_Path_149" data-name="&lt;Path&gt;" d="M147.8,230.26c-10.4,0-18.84,1.11-18.84,2.48v0c0-1.33,8.43-2.4,18.84-2.4s18.84,1.08,18.84,2.4v0C166.63,231.37,158.2,230.26,147.8,230.26Z" fill="#44c8f5"/></g><g id="_Group_161" data-name="&lt;Group&gt;"><polygon id="_Path_150" data-name="&lt;Path&gt;" points="164.37 269.36 166.08 243.68 129.51 243.68 131.22 269.36 164.37 269.36" fill="#1b75bc"/></g><g id="_Group_162" data-name="&lt;Group&gt;"><ellipse id="_Path_151" data-name="&lt;Path&gt;" cx="147.8" cy="243.67" rx="17.79" ry="2.34" fill="#fff"/></g><g id="_Group_163" data-name="&lt;Group&gt;"><polygon id="_Path_152" data-name="&lt;Path&gt;" points="165.81 239.47 165.58 243.68 130.01 243.68 129.77 239.93 165.81 239.47" fill="#fff"/></g><g id="_Group_164" data-name="&lt;Group&gt;"><circle id="_Path_153" data-name="&lt;Path&gt;" cx="147.76" cy="257.38" r="7.56" fill="#fff"/></g><g id="_Group_165" data-name="&lt;Group&gt;"><path id="_Path_154" data-name="&lt;Path&gt;" d="M149.16,232.13l2.85-31a.22.22,0,0,0-.08-.2,1.39,1.39,0,0,0-1.66-.1.17.17,0,0,0,0,.11l-2.86,31.17a.23.23,0,0,0,.15.24,2.24,2.24,0,0,0,1.54-.06A.23.23,0,0,0,149.16,232.13Z" fill="#1b75bc"/></g><g id="_Group_166" data-name="&lt;Group&gt;"><g id="_Group_167" data-name="&lt;Group&gt;"><path id="_Path_155" data-name="&lt;Path&gt;" d="M207.93,222.66l-1.75-.3a.92.92,0,0,0-1.07.75l-.41,2.38-.63,3.61-5.31,30.49,3.57.62,5.31-30.49.63-3.61.41-2.38A.92.92,0,0,0,207.93,222.66Z" fill="#fff"/><path id="_Compound_Path_19" data-name="&lt;Compound Path&gt;" d="M202.63,260.62l-4.28-.74L204.76,223a1.29,1.29,0,0,1,1.48-1l1.75.31a1.28,1.28,0,0,1,1,1.49Zm-3.44-1.33,2.86.5,6.29-36.12a.56.56,0,0,0-.46-.65h0l-1.75-.31a.57.57,0,0,0-.65.46Z" fill="#1b75bc"/></g><g id="_Group_168" data-name="&lt;Group&gt;"><g id="_Group_169" data-name="&lt;Group&gt;"><rect id="_Path_156" data-name="&lt;Path&gt;" x="187.73" y="242.84" width="30.95" height="3.62" transform="translate(-72.67 402.88) rotate(-80.13)" fill="#1b75bc"/></g><g id="_Group_170" data-name="&lt;Group&gt;"><path id="_Path_157" data-name="&lt;Path&gt;" d="M207.93,222.66l-1.75-.3a.92.92,0,0,0-1.07.75l-.41,2.38,3.57.62.41-2.38A.92.92,0,0,0,207.93,222.66Z" fill="#00aeef"/></g><g id="_Group_171" data-name="&lt;Group&gt;"><rect id="_Path_158" data-name="&lt;Path&gt;" x="204.34" y="225.79" width="3.66" height="3.62" transform="translate(-53.41 391.68) rotate(-80.13)" fill="#fff"/></g></g></g><g id="_Group_172" data-name="&lt;Group&gt;"><g id="_Group_173" data-name="&lt;Group&gt;"><rect id="_Path_159" data-name="&lt;Path&gt;" x="191.17" y="225.67" width="3.62" height="34.5" transform="translate(-15.21 12.9) rotate(-3.68)" fill="#1b75bc"/></g><g id="_Group_174" data-name="&lt;Group&gt;"><path id="_Path_160" data-name="&lt;Path&gt;" d="M192.43,222.77l-1.56.1a.81.81,0,0,0-.76.86l.14,2.11,3.17-.2-.14-2.11A.81.81,0,0,0,192.43,222.77Z" fill="#00aeef"/></g><g id="_Group_175" data-name="&lt;Group&gt;"><polygon id="_Path_161" data-name="&lt;Path&gt;" points="194.91 231.27 194.6 226.42 194.02 225.08 189.8 225.35 189.83 225.92 193.68 225.67 194.11 226.51 194.41 231.3 194.91 231.27" fill="#1b75bc"/></g></g><g id="_Group_176" data-name="&lt;Group&gt;"><path id="_Path_162" data-name="&lt;Path&gt;" d="M203.78,289.79a49.49,49.49,0,0,1-22,0,3.59,3.59,0,0,1-2.78-3.51V246.13h27.53v40.15A3.59,3.59,0,0,1,203.78,289.79Z" fill="#fff"/><path id="_Compound_Path_20" data-name="&lt;Compound Path&gt;" d="M192.8,291.38a50.39,50.39,0,0,1-11.06-1.24,4,4,0,0,1-3.06-3.87V246.13a.36.36,0,0,1,.36-.36h27.53a.36.36,0,0,1,.36.36v40.15a4,4,0,0,1-3.06,3.87h0A50.38,50.38,0,0,1,192.8,291.38Zm-13.4-44.89v39.79a3.25,3.25,0,0,0,2.5,3.16,49.35,49.35,0,0,0,21.81,0h0a3.25,3.25,0,0,0,2.5-3.16V246.5Z" fill="#1b75bc"/></g><g id="_Group_177" data-name="&lt;Group&gt;"><rect id="_Rectangle_7" data-name="&lt;Rectangle&gt;" x="2.56" y="331.91" width="667.67" height="14.09" fill="#fff"/><path id="_Compound_Path_21" data-name="&lt;Compound Path&gt;" d="M670.73,346.49H2.06V331.41H670.73Zm-667.67-1H669.73V332.41H3.06Z" fill="#1b75bc"/></g><g id="_Group_178" data-name="&lt;Group&gt;"><rect id="_Rectangle_8" data-name="&lt;Rectangle&gt;" x="24.77" y="346.01" width="623.24" height="9.91" fill="#7ed3f7"/><path id="_Compound_Path_22" data-name="&lt;Compound Path&gt;" d="M648.51,356.42H24.27V345.51H648.51Zm-623.24-1H647.51v-8.91H25.27Z" fill="#1b75bc"/></g><g id="_Group_179" data-name="&lt;Group&gt;"><rect id="_Rectangle_9" data-name="&lt;Rectangle&gt;" x="459.12" y="37.59" width="101.77" height="152.89" fill="#fff" stroke="#1b75bc" stroke-miterlimit="10"/><path id="_Path_163" data-name="&lt;Path&gt;" d="M557.2,115.08H462.8V60.57c36.5-.64,69.22,2.67,94.41,13.89Z" fill="#00aeef"/><path id="_Path_164" data-name="&lt;Path&gt;" d="M557.2,115.08H462.8v-36c27-8.41,58.57-11,94.41-8.25Z" fill="#71d0f6"/><rect id="_Path_165" data-name="&lt;Path&gt;" x="462.8" y="132.32" width="22.1" height="11.8" fill="#abe1fa"/><rect id="_Path_166" data-name="&lt;Path&gt;" x="486.9" y="132.32" width="22.1" height="11.8" fill="#abe1fa"/><rect id="_Path_167" data-name="&lt;Path&gt;" x="511" y="132.32" width="22.1" height="11.8" fill="#abe1fa"/><rect id="_Path_168" data-name="&lt;Path&gt;" x="535.1" y="132.32" width="22.1" height="11.8" fill="#abe1fa"/><rect id="_Path_169" data-name="&lt;Path&gt;" x="462.8" y="146.12" width="22.1" height="11.8" fill="#abe1fa"/><rect id="_Path_170" data-name="&lt;Path&gt;" x="486.9" y="146.12" width="22.1" height="11.8" fill="#abe1fa"/><rect id="_Path_171" data-name="&lt;Path&gt;" x="511" y="146.12" width="22.1" height="11.8" fill="#abe1fa"/><rect id="_Path_172" data-name="&lt;Path&gt;" x="535.1" y="146.12" width="22.1" height="11.8" fill="#abe1fa"/><rect id="_Path_173" data-name="&lt;Path&gt;" x="462.8" y="159.92" width="22.1" height="11.8" fill="#abe1fa"/><rect id="_Path_174" data-name="&lt;Path&gt;" x="486.9" y="159.92" width="22.1" height="11.8" fill="#abe1fa"/><rect id="_Path_175" data-name="&lt;Path&gt;" x="511" y="159.92" width="22.1" height="11.8" fill="#abe1fa"/><rect id="_Path_176" data-name="&lt;Path&gt;" x="535.1" y="159.92" width="22.1" height="11.8" fill="#abe1fa"/><rect id="_Path_177" data-name="&lt;Path&gt;" x="462.8" y="173.71" width="22.1" height="11.8" fill="#abe1fa"/><rect id="_Path_178" data-name="&lt;Path&gt;" x="486.9" y="173.71" width="22.1" height="11.8" fill="#abe1fa"/><rect id="_Path_179" data-name="&lt;Path&gt;" x="511" y="173.71" width="22.1" height="11.8" fill="#abe1fa"/><rect id="_Path_180" data-name="&lt;Path&gt;" x="535.1" y="173.71" width="22.1" height="11.8" fill="#abe1fa"/><path id="_Path_181" data-name="&lt;Path&gt;" d="M557.74,115.08H462.8V85.39c35.08-2.54,68.25-2.16,94.94,8.13Z" fill="#c7eafb"/><circle id="_Path_182" data-name="&lt;Path&gt;" cx="535.1" cy="52.3" r="4.72" fill="#00aeef"/><rect id="_Rectangle_10" data-name="&lt;Rectangle&gt;" x="462.8" y="43.12" width="94.94" height="71.96" fill="none" stroke="#1b75bc" stroke-miterlimit="10"/></g><path id="_Compound_Path_23" data-name="&lt;Compound Path&gt;" d="M299.46,147V163a9.17,9.17,0,0,1-.7,3.69,7.46,7.46,0,0,1-1.92,2.68,8.18,8.18,0,0,1-2.93,1.63,12.89,12.89,0,0,1-7.43,0,8.18,8.18,0,0,1-2.93-1.63,7.38,7.38,0,0,1-1.91-2.68A9.27,9.27,0,0,1,281,163V147h5V163a4.6,4.6,0,0,0,1.14,3.46,5.09,5.09,0,0,0,6.28,0,4.65,4.65,0,0,0,1.12-3.46V147Z" fill="#2b3990"/><path id="_Compound_Path_24" data-name="&lt;Compound Path&gt;" d="M323.16,171.19h-5l-9.68-15.88v15.88h-5V147h5l9.7,15.92V147h5Z" fill="#2b3990"/><path id="_Compound_Path_25" data-name="&lt;Compound Path&gt;" d="M327.51,171.19V147h7.43a11.64,11.64,0,0,1,4.47.84,10.09,10.09,0,0,1,3.48,2.35,10.76,10.76,0,0,1,2.26,3.64,13.09,13.09,0,0,1,.81,4.71v1.09a13.14,13.14,0,0,1-.81,4.7,10.55,10.55,0,0,1-2.27,3.63,10.12,10.12,0,0,1-3.51,2.35,11.81,11.81,0,0,1-4.49.83Zm5-20.11v16.11h2.4a5.39,5.39,0,0,0,4.49-1.95,8.78,8.78,0,0,0,1.54-5.56v-1.13A8.76,8.76,0,0,0,339.4,153a5.39,5.39,0,0,0-4.46-1.9Z" fill="#2b3990"/><path id="_Compound_Path_26" data-name="&lt;Compound Path&gt;" d="M364.1,160.73h-9.55v6.47h11.21v4H349.57V147h16.15v4H354.55v5.75h9.55Z" fill="#2b3990"/><path id="_Compound_Path_27" data-name="&lt;Compound Path&gt;" d="M377.61,162.35h-4v8.84h-5V147h9a13.69,13.69,0,0,1,3.75.47,7.86,7.86,0,0,1,2.8,1.39,6.11,6.11,0,0,1,1.76,2.28,7.6,7.6,0,0,1,.61,3.15,8.73,8.73,0,0,1-.3,2.38A6.2,6.2,0,0,1,384,160a9,9,0,0,1-1.79,1.06l5.22,9.86v.23h-5.34Zm-4-4h4a5.19,5.19,0,0,0,1.72-.26,3.3,3.3,0,0,0,1.23-.73,3.05,3.05,0,0,0,.74-1.13,4.11,4.11,0,0,0,.25-1.47,3.65,3.65,0,0,0-1-2.69,4,4,0,0,0-3-1h-4Z" fill="#2b3990"/><path id="_Compound_Path_28" data-name="&lt;Compound Path&gt;" d="M255.11,192a7.27,7.27,0,0,1-.61,2.49,5.8,5.8,0,0,1-1.42,1.95,6.47,6.47,0,0,1-2.19,1.27,8.73,8.73,0,0,1-2.94.46,7.63,7.63,0,0,1-3.07-.59,6.27,6.27,0,0,1-2.31-1.7,7.72,7.72,0,0,1-1.45-2.69,11.59,11.59,0,0,1-.51-3.55v-1.17a11.28,11.28,0,0,1,.52-3.55,7.87,7.87,0,0,1,1.48-2.7,6.45,6.45,0,0,1,2.33-1.71,7.55,7.55,0,0,1,3.05-.6,8.48,8.48,0,0,1,2.94.47,6.31,6.31,0,0,1,2.17,1.31,5.94,5.94,0,0,1,1.39,2,8.36,8.36,0,0,1,.63,2.51h-3.66a5.53,5.53,0,0,0-.28-1.4,2.75,2.75,0,0,0-.62-1,2.54,2.54,0,0,0-1-.63,4.84,4.84,0,0,0-1.54-.21,3.11,3.11,0,0,0-2.77,1.35,7.6,7.6,0,0,0-.91,4.18v1.2a12.87,12.87,0,0,0,.2,2.42,5.1,5.1,0,0,0,.63,1.73,2.78,2.78,0,0,0,1.12,1,3.66,3.66,0,0,0,1.67.35,5.08,5.08,0,0,0,1.5-.2,2.54,2.54,0,0,0,1.7-1.59,4.84,4.84,0,0,0,.29-1.39Z" fill="#2b3990"/><path id="_Compound_Path_29" data-name="&lt;Compound Path&gt;" d="M272.11,189.4a11.31,11.31,0,0,1-.55,3.66A7.88,7.88,0,0,1,270,195.8a6.71,6.71,0,0,1-2.39,1.73,8.07,8.07,0,0,1-6.13,0,6.84,6.84,0,0,1-2.4-1.73,7.94,7.94,0,0,1-1.57-2.74,11.12,11.12,0,0,1-.56-3.66v-.78a11.21,11.21,0,0,1,.56-3.65,8,8,0,0,1,1.56-2.76,6.71,6.71,0,0,1,2.39-1.74,8.06,8.06,0,0,1,6.13,0,6.71,6.71,0,0,1,2.39,1.74,8,8,0,0,1,1.56,2.76,11.24,11.24,0,0,1,.56,3.65Zm-3.71-.8a7.48,7.48,0,0,0-1-4.25,3.53,3.53,0,0,0-5.71,0,7.48,7.48,0,0,0-1,4.25v.8a10.32,10.32,0,0,0,.26,2.46,5.48,5.48,0,0,0,.76,1.79,3.29,3.29,0,0,0,1.21,1.1,3.54,3.54,0,0,0,1.65.37,3.22,3.22,0,0,0,2.84-1.46,7.61,7.61,0,0,0,1-4.26Z" fill="#2b3990"/><path id="_Compound_Path_30" data-name="&lt;Compound Path&gt;" d="M289.23,197.89h-3.66l-7.13-11.69v11.69h-3.66V180.11h3.66l7.14,11.72V180.11h3.65Z" fill="#2b3990"/><path id="_Compound_Path_31" data-name="&lt;Compound Path&gt;" d="M301.64,193.22a2.44,2.44,0,0,0-.13-.84,1.63,1.63,0,0,0-.52-.69,4.76,4.76,0,0,0-1.06-.62,16.87,16.87,0,0,0-1.75-.65,21.26,21.26,0,0,1-2.3-.88,8.43,8.43,0,0,1-1.89-1.15,5.13,5.13,0,0,1-1.28-1.53,4.18,4.18,0,0,1-.47-2,4.31,4.31,0,0,1,.48-2,4.58,4.58,0,0,1,1.35-1.57,6.66,6.66,0,0,1,2.08-1,9.18,9.18,0,0,1,2.64-.36,8.35,8.35,0,0,1,2.69.41,6.17,6.17,0,0,1,2.06,1.14,5.05,5.05,0,0,1,1.32,1.74,5.19,5.19,0,0,1,.46,2.2h-3.66a3,3,0,0,0-.18-1,2.11,2.11,0,0,0-.54-.82A2.55,2.55,0,0,0,300,183a4,4,0,0,0-1.29-.19,4.4,4.4,0,0,0-1.25.16,2.52,2.52,0,0,0-.88.44,1.85,1.85,0,0,0-.53.66,1.87,1.87,0,0,0-.18.81,1.73,1.73,0,0,0,.9,1.47,10.09,10.09,0,0,0,2.63,1.11,17.38,17.38,0,0,1,2.56,1,7.63,7.63,0,0,1,1.84,1.25,4.75,4.75,0,0,1,1.12,1.56,4.87,4.87,0,0,1,.38,2,4.6,4.6,0,0,1-.46,2.09,4.31,4.31,0,0,1-1.3,1.54,6.16,6.16,0,0,1-2,1,9.78,9.78,0,0,1-2.66.34,10.27,10.27,0,0,1-1.76-.15,8.43,8.43,0,0,1-1.68-.47,7.23,7.23,0,0,1-1.48-.79,5.45,5.45,0,0,1-1.19-1.12,5.08,5.08,0,0,1-.79-1.47,5.52,5.52,0,0,1-.29-1.83h3.67a3.26,3.26,0,0,0,.26,1.37,2.32,2.32,0,0,0,.71.91,3,3,0,0,0,1.1.51,6.07,6.07,0,0,0,1.44.16,4.42,4.42,0,0,0,1.23-.15,2.53,2.53,0,0,0,.87-.42,1.67,1.67,0,0,0,.51-.64A2,2,0,0,0,301.64,193.22Z" fill="#2b3990"/><path id="_Compound_Path_32" data-name="&lt;Compound Path&gt;" d="M321.17,183.08h-5.44v14.81h-3.66V183.08h-5.37v-3h14.48Z" fill="#2b3990"/><path id="_Compound_Path_33" data-name="&lt;Compound Path&gt;" d="M329.84,191.38h-2.92v6.51h-3.66V180.11h6.6a10.08,10.08,0,0,1,2.76.35,5.79,5.79,0,0,1,2.06,1,4.5,4.5,0,0,1,1.29,1.68,5.59,5.59,0,0,1,.45,2.32,6.43,6.43,0,0,1-.22,1.75,4.56,4.56,0,0,1-1.64,2.44,6.62,6.62,0,0,1-1.32.78l3.85,7.26v.17h-3.93Zm-2.92-3h3a3.82,3.82,0,0,0,1.26-.19,2.43,2.43,0,0,0,.9-.54,2.25,2.25,0,0,0,.54-.83,3,3,0,0,0,.18-1.08,2.68,2.68,0,0,0-.71-2,3,3,0,0,0-2.19-.72h-2.94Z" fill="#2b3990"/><path id="_Compound_Path_34" data-name="&lt;Compound Path&gt;" d="M352.67,180.11v11.73a6.75,6.75,0,0,1-.51,2.72,5.49,5.49,0,0,1-1.42,2,6,6,0,0,1-2.15,1.2,9.49,9.49,0,0,1-5.47,0,6,6,0,0,1-2.16-1.2,5.43,5.43,0,0,1-1.41-2,6.82,6.82,0,0,1-.51-2.72V180.11h3.66v11.73a3.39,3.39,0,0,0,.84,2.55,3.75,3.75,0,0,0,4.63,0,3.42,3.42,0,0,0,.82-2.55V180.11Z" fill="#2b3990"/><path id="_Compound_Path_35" data-name="&lt;Compound Path&gt;" d="M369.62,192a7.27,7.27,0,0,1-.61,2.49,5.8,5.8,0,0,1-1.42,1.95,6.47,6.47,0,0,1-2.19,1.27,8.73,8.73,0,0,1-2.94.46,7.63,7.63,0,0,1-3.07-.59,6.27,6.27,0,0,1-2.31-1.7,7.72,7.72,0,0,1-1.45-2.69,11.59,11.59,0,0,1-.51-3.55v-1.17a11.28,11.28,0,0,1,.52-3.55,7.87,7.87,0,0,1,1.48-2.7,6.45,6.45,0,0,1,2.33-1.71,7.55,7.55,0,0,1,3.05-.6,8.48,8.48,0,0,1,2.94.47,6.31,6.31,0,0,1,2.17,1.31,5.94,5.94,0,0,1,1.39,2,8.36,8.36,0,0,1,.63,2.51H366a5.53,5.53,0,0,0-.28-1.4,2.75,2.75,0,0,0-.62-1,2.54,2.54,0,0,0-1-.63,4.84,4.84,0,0,0-1.54-.21,3.11,3.11,0,0,0-2.77,1.35,7.6,7.6,0,0,0-.91,4.18v1.2A12.87,12.87,0,0,0,359,192a5.1,5.1,0,0,0,.63,1.73,2.78,2.78,0,0,0,1.12,1,3.66,3.66,0,0,0,1.67.35,5.08,5.08,0,0,0,1.5-.2,2.54,2.54,0,0,0,1.7-1.59A4.84,4.84,0,0,0,366,192Z" fill="#2b3990"/><path id="_Compound_Path_36" data-name="&lt;Compound Path&gt;" d="M385.05,183.08h-5.44v14.81h-3.66V183.08h-5.37v-3h14.48Z" fill="#2b3990"/><path id="_Compound_Path_37" data-name="&lt;Compound Path&gt;" d="M391,197.89h-3.66V180.11H391Z" fill="#2b3990"/><path id="_Compound_Path_38" data-name="&lt;Compound Path&gt;" d="M409,189.4a11.31,11.31,0,0,1-.55,3.66,7.88,7.88,0,0,1-1.54,2.74,6.71,6.71,0,0,1-2.39,1.73,8.07,8.07,0,0,1-6.13,0,6.84,6.84,0,0,1-2.4-1.73,7.94,7.94,0,0,1-1.57-2.74,11.12,11.12,0,0,1-.56-3.66v-.78a11.21,11.21,0,0,1,.56-3.65,8,8,0,0,1,1.56-2.76,6.71,6.71,0,0,1,2.39-1.74,8.06,8.06,0,0,1,6.13,0,6.71,6.71,0,0,1,2.39,1.74,8,8,0,0,1,1.56,2.76,11.24,11.24,0,0,1,.56,3.65Zm-3.71-.8a7.48,7.48,0,0,0-1-4.25,3.53,3.53,0,0,0-5.71,0,7.48,7.48,0,0,0-1,4.25v.8a10.32,10.32,0,0,0,.26,2.46,5.48,5.48,0,0,0,.76,1.79,3.29,3.29,0,0,0,1.21,1.1,3.54,3.54,0,0,0,1.65.37,3.22,3.22,0,0,0,2.84-1.46,7.61,7.61,0,0,0,1-4.26Z" fill="#2b3990"/><path id="_Compound_Path_39" data-name="&lt;Compound Path&gt;" d="M426.14,197.89h-3.66l-7.13-11.69v11.69h-3.66V180.11h3.66l7.14,11.72V180.11h3.65Z" fill="#2b3990"/><path id="_Compound_Path_40" data-name="&lt;Compound Path&gt;" d="M298.63,145.8v15.93a9.17,9.17,0,0,1-.7,3.69A7.46,7.46,0,0,1,296,168.1a8.18,8.18,0,0,1-2.93,1.63,12.89,12.89,0,0,1-7.43,0,8.18,8.18,0,0,1-2.93-1.63,7.38,7.38,0,0,1-1.91-2.68,9.27,9.27,0,0,1-.69-3.69V145.8h5v15.93a4.6,4.6,0,0,0,1.14,3.46,5.09,5.09,0,0,0,6.28,0,4.65,4.65,0,0,0,1.12-3.46V145.8Z" fill="#fff"/><path id="_Compound_Path_41" data-name="&lt;Compound Path&gt;" d="M322.34,169.94h-5l-9.68-15.88v15.88h-5V145.8h5l9.7,15.92V145.8h5Z" fill="#fff"/><path id="_Compound_Path_42" data-name="&lt;Compound Path&gt;" d="M326.68,169.94V145.8h7.43a11.64,11.64,0,0,1,4.47.84,10.09,10.09,0,0,1,3.48,2.35,10.76,10.76,0,0,1,2.26,3.64,13.09,13.09,0,0,1,.81,4.71v1.09a13.14,13.14,0,0,1-.81,4.7,10.55,10.55,0,0,1-2.27,3.63,10.12,10.12,0,0,1-3.51,2.35,11.81,11.81,0,0,1-4.49.83Zm5-20.11v16.11h2.4a5.39,5.39,0,0,0,4.49-1.95,8.78,8.78,0,0,0,1.54-5.56v-1.13a8.76,8.76,0,0,0-1.53-5.58,5.39,5.39,0,0,0-4.46-1.9Z" fill="#fff"/><path id="_Compound_Path_43" data-name="&lt;Compound Path&gt;" d="M363.27,159.48h-9.55v6.47h11.21v4H348.75V145.8h16.15v4H353.72v5.75h9.55Z" fill="#fff"/><path id="_Compound_Path_44" data-name="&lt;Compound Path&gt;" d="M376.78,161.11h-4v8.84h-5V145.8h9a13.69,13.69,0,0,1,3.75.47,7.86,7.86,0,0,1,2.8,1.39,6.11,6.11,0,0,1,1.76,2.28,7.6,7.6,0,0,1,.61,3.15,8.73,8.73,0,0,1-.3,2.38,6.2,6.2,0,0,1-2.22,3.31,9,9,0,0,1-1.79,1.06l5.22,9.86v.23h-5.34Zm-4-4h4a5.19,5.19,0,0,0,1.72-.26,3.3,3.3,0,0,0,1.23-.73,3.05,3.05,0,0,0,.74-1.13,4.11,4.11,0,0,0,.25-1.47,3.65,3.65,0,0,0-1-2.69,4,4,0,0,0-3-1h-4Z" fill="#fff"/><path id="_Compound_Path_45" data-name="&lt;Compound Path&gt;" d="M254.5,191a7.27,7.27,0,0,1-.61,2.49,5.8,5.8,0,0,1-1.42,1.95,6.47,6.47,0,0,1-2.19,1.27,8.73,8.73,0,0,1-2.94.46,7.63,7.63,0,0,1-3.07-.59,6.27,6.27,0,0,1-2.31-1.7,7.72,7.72,0,0,1-1.45-2.69,11.59,11.59,0,0,1-.51-3.55v-1.17a11.28,11.28,0,0,1,.52-3.55,7.87,7.87,0,0,1,1.48-2.7,6.45,6.45,0,0,1,2.33-1.71,7.55,7.55,0,0,1,3.05-.6,8.48,8.48,0,0,1,2.94.47,6.31,6.31,0,0,1,2.17,1.31,5.94,5.94,0,0,1,1.39,2,8.36,8.36,0,0,1,.63,2.51h-3.66a5.53,5.53,0,0,0-.28-1.4,2.75,2.75,0,0,0-.62-1,2.54,2.54,0,0,0-1-.63,4.84,4.84,0,0,0-1.54-.21,3.11,3.11,0,0,0-2.77,1.35,7.6,7.6,0,0,0-.91,4.18v1.2a12.87,12.87,0,0,0,.2,2.42,5.1,5.1,0,0,0,.63,1.73,2.78,2.78,0,0,0,1.12,1,3.66,3.66,0,0,0,1.67.35,5.08,5.08,0,0,0,1.5-.2,2.54,2.54,0,0,0,1.7-1.59,4.84,4.84,0,0,0,.29-1.39Z" fill="#fff"/><path id="_Compound_Path_46" data-name="&lt;Compound Path&gt;" d="M271.5,188.48a11.31,11.31,0,0,1-.55,3.66,7.88,7.88,0,0,1-1.54,2.74,6.71,6.71,0,0,1-2.39,1.73,8.07,8.07,0,0,1-6.13,0,6.84,6.84,0,0,1-2.4-1.73,7.94,7.94,0,0,1-1.57-2.74,11.12,11.12,0,0,1-.56-3.66v-.78a11.21,11.21,0,0,1,.56-3.65,8,8,0,0,1,1.56-2.76,6.71,6.71,0,0,1,2.39-1.74,8.06,8.06,0,0,1,6.13,0,6.71,6.71,0,0,1,2.39,1.74,8,8,0,0,1,1.56,2.76,11.24,11.24,0,0,1,.56,3.65Zm-3.71-.8a7.48,7.48,0,0,0-1-4.25,3.53,3.53,0,0,0-5.71,0,7.48,7.48,0,0,0-1,4.25v.8a10.32,10.32,0,0,0,.26,2.46,5.48,5.48,0,0,0,.76,1.79,3.29,3.29,0,0,0,1.21,1.1,3.54,3.54,0,0,0,1.65.37,3.22,3.22,0,0,0,2.84-1.46,7.61,7.61,0,0,0,1-4.26Z" fill="#fff"/><path id="_Compound_Path_47" data-name="&lt;Compound Path&gt;" d="M288.62,197H285l-7.13-11.69V197h-3.66V179.19h3.66L285,190.91V179.19h3.65Z" fill="#fff"/><path id="_Compound_Path_48" data-name="&lt;Compound Path&gt;" d="M301,192.3a2.44,2.44,0,0,0-.13-.84,1.63,1.63,0,0,0-.52-.69,4.76,4.76,0,0,0-1.06-.62,16.87,16.87,0,0,0-1.75-.65,21.26,21.26,0,0,1-2.3-.88,8.43,8.43,0,0,1-1.89-1.15,5.13,5.13,0,0,1-1.28-1.53,4.18,4.18,0,0,1-.47-2,4.31,4.31,0,0,1,.48-2,4.58,4.58,0,0,1,1.35-1.57,6.66,6.66,0,0,1,2.08-1,9.18,9.18,0,0,1,2.64-.36,8.35,8.35,0,0,1,2.69.41,6.17,6.17,0,0,1,2.06,1.14,5.05,5.05,0,0,1,1.32,1.74,5.19,5.19,0,0,1,.46,2.2H301a3,3,0,0,0-.18-1,2.11,2.11,0,0,0-.54-.82,2.55,2.55,0,0,0-.92-.53,4,4,0,0,0-1.29-.19,4.4,4.4,0,0,0-1.25.16,2.52,2.52,0,0,0-.88.44,1.85,1.85,0,0,0-.53.66,1.87,1.87,0,0,0-.18.81,1.73,1.73,0,0,0,.9,1.47,10.09,10.09,0,0,0,2.63,1.11,17.38,17.38,0,0,1,2.56,1,7.63,7.63,0,0,1,1.84,1.25,4.75,4.75,0,0,1,1.12,1.56,4.87,4.87,0,0,1,.38,2,4.6,4.6,0,0,1-.46,2.09,4.31,4.31,0,0,1-1.3,1.54,6.16,6.16,0,0,1-2,1,9.78,9.78,0,0,1-2.66.34,10.27,10.27,0,0,1-1.76-.15,8.43,8.43,0,0,1-1.68-.47,7.23,7.23,0,0,1-1.48-.79,5.45,5.45,0,0,1-1.19-1.12,5.08,5.08,0,0,1-.79-1.47,5.52,5.52,0,0,1-.29-1.83h3.67a3.26,3.26,0,0,0,.26,1.37,2.32,2.32,0,0,0,.71.91,3,3,0,0,0,1.1.51,6.07,6.07,0,0,0,1.44.16,4.42,4.42,0,0,0,1.23-.15,2.53,2.53,0,0,0,.87-.42,1.67,1.67,0,0,0,.51-.64A2,2,0,0,0,301,192.3Z" fill="#fff"/><path id="_Compound_Path_49" data-name="&lt;Compound Path&gt;" d="M320.56,182.16h-5.44V197h-3.66V182.16h-5.37v-3h14.48Z" fill="#fff"/><path id="_Compound_Path_50" data-name="&lt;Compound Path&gt;" d="M329.23,190.46h-2.92V197h-3.66V179.19h6.6a10.08,10.08,0,0,1,2.76.35,5.79,5.79,0,0,1,2.06,1,4.5,4.5,0,0,1,1.29,1.68,5.59,5.59,0,0,1,.45,2.32,6.43,6.43,0,0,1-.22,1.75,4.56,4.56,0,0,1-1.64,2.44,6.62,6.62,0,0,1-1.32.78l3.85,7.26V197h-3.93Zm-2.92-3h3a3.82,3.82,0,0,0,1.26-.19,2.43,2.43,0,0,0,.9-.54,2.25,2.25,0,0,0,.54-.83,3,3,0,0,0,.18-1.08,2.68,2.68,0,0,0-.71-2,3,3,0,0,0-2.19-.72h-2.94Z" fill="#fff"/><path id="_Compound_Path_51" data-name="&lt;Compound Path&gt;" d="M352.06,179.19v11.73a6.75,6.75,0,0,1-.51,2.72,5.49,5.49,0,0,1-1.42,2,6,6,0,0,1-2.15,1.2,9.49,9.49,0,0,1-5.47,0,6,6,0,0,1-2.16-1.2,5.43,5.43,0,0,1-1.41-2,6.82,6.82,0,0,1-.51-2.72V179.19h3.66v11.73a3.39,3.39,0,0,0,.84,2.55,3.75,3.75,0,0,0,4.63,0,3.42,3.42,0,0,0,.82-2.55V179.19Z" fill="#fff"/><path id="_Compound_Path_52" data-name="&lt;Compound Path&gt;" d="M369,191a7.27,7.27,0,0,1-.61,2.49,5.8,5.8,0,0,1-1.42,1.95,6.47,6.47,0,0,1-2.19,1.27,8.73,8.73,0,0,1-2.94.46,7.63,7.63,0,0,1-3.07-.59,6.27,6.27,0,0,1-2.31-1.7,7.72,7.72,0,0,1-1.45-2.69,11.59,11.59,0,0,1-.51-3.55v-1.17A11.28,11.28,0,0,1,355,184a7.87,7.87,0,0,1,1.48-2.7,6.45,6.45,0,0,1,2.33-1.71,7.55,7.55,0,0,1,3.05-.6,8.48,8.48,0,0,1,2.94.47,6.31,6.31,0,0,1,2.17,1.31,5.94,5.94,0,0,1,1.39,2,8.36,8.36,0,0,1,.63,2.51h-3.66a5.53,5.53,0,0,0-.28-1.4,2.75,2.75,0,0,0-.62-1,2.54,2.54,0,0,0-1-.63,4.84,4.84,0,0,0-1.54-.21,3.11,3.11,0,0,0-2.77,1.35,7.6,7.6,0,0,0-.91,4.18v1.2a12.87,12.87,0,0,0,.2,2.42,5.1,5.1,0,0,0,.63,1.73,2.78,2.78,0,0,0,1.12,1,3.66,3.66,0,0,0,1.67.35,5.08,5.08,0,0,0,1.5-.2,2.54,2.54,0,0,0,1.7-1.59,4.84,4.84,0,0,0,.29-1.39Z" fill="#fff"/><path id="_Compound_Path_53" data-name="&lt;Compound Path&gt;" d="M384.44,182.16H379V197h-3.66V182.16H370v-3h14.48Z" fill="#fff"/><path id="_Compound_Path_54" data-name="&lt;Compound Path&gt;" d="M390.42,197h-3.66V179.19h3.66Z" fill="#fff"/><path id="_Compound_Path_55" data-name="&lt;Compound Path&gt;" d="M408.42,188.48a11.31,11.31,0,0,1-.55,3.66,7.88,7.88,0,0,1-1.54,2.74,6.71,6.71,0,0,1-2.39,1.73,8.07,8.07,0,0,1-6.13,0,6.84,6.84,0,0,1-2.4-1.73,7.94,7.94,0,0,1-1.57-2.74,11.12,11.12,0,0,1-.56-3.66v-.78a11.21,11.21,0,0,1,.56-3.65,8,8,0,0,1,1.56-2.76,6.71,6.71,0,0,1,2.39-1.74,8.06,8.06,0,0,1,6.13,0,6.71,6.71,0,0,1,2.39,1.74,8,8,0,0,1,1.56,2.76,11.24,11.24,0,0,1,.56,3.65Zm-3.71-.8a7.48,7.48,0,0,0-1-4.25,3.53,3.53,0,0,0-5.71,0,7.48,7.48,0,0,0-1,4.25v.8a10.32,10.32,0,0,0,.26,2.46,5.48,5.48,0,0,0,.76,1.79,3.29,3.29,0,0,0,1.21,1.1,3.54,3.54,0,0,0,1.65.37,3.22,3.22,0,0,0,2.84-1.46,7.61,7.61,0,0,0,1-4.26Z" fill="#fff"/><path id="_Compound_Path_56" data-name="&lt;Compound Path&gt;" d="M425.53,197h-3.66l-7.13-11.69V197h-3.66V179.19h3.66l7.14,11.72V179.19h3.65Z" fill="#fff"/></g></g></g></svg>