<svg xmlns="http://www.w3.org/2000/svg" viewBox="0 0 362.5 358.6"><title>works-use</title><line x1="101.7" y1="170.6" x2="309.4" y2="170.3" fill="none" stroke="#fff" stroke-miterlimit="10" stroke-width="6.39" stroke-dasharray="11.18 5.43"/><line x1="266" y1="109.6" x2="204.8" y2="170.3" fill="none" stroke="#fff" stroke-miterlimit="10" stroke-width="6.39" stroke-dasharray="11.18 5.43"/><line x1="145.1" y1="109.6" x2="205.5" y2="169.6" fill="none" stroke="#fff" stroke-miterlimit="10" stroke-width="6.39" stroke-dasharray="11.18 5.43"/><line x1="205.4" y1="67.3" x2="205.5" y2="169.6" fill="none" stroke="#fff" stroke-miterlimit="10" stroke-width="6.39" stroke-dasharray="11.18 5.43"/><path d="M353.8,380.3a48.1,48.1,0,1,1-48.1-47.8,47.9,47.9,0,0,1,48.1,47.8" transform="translate(-100.9 -210)" fill="#fff"/><path d="M305.7,412.2a31.9,31.9,0,1,1,32.1-31.9A32,32,0,0,1,305.7,412.2Z" transform="translate(-100.9 -210)" fill="none" stroke="#00aeef" stroke-miterlimit="10" stroke-width="3.2" stroke-dasharray="11.18 5.43"/><path d="M305.7,399.4a19.1,19.1,0,1,1,19.2-19.1,19.2,19.2,0,0,1-19.2,19.1" transform="translate(-100.9 -210)" fill="#1f293a"/><path d="M202.6,380.6A26.6,26.6,0,1,1,176,354.1a26.5,26.5,0,0,1,26.6,26.5" transform="translate(-100.9 -210)" fill="#fcfdfc"/><path d="M306.3,224.4a26.5,26.5,0,0,1,26.6,26.5" transform="translate(-100.9 -210)" fill="#fcfdfc"/><path d="M332.9,250.9a26.6,26.6,0,1,1-26.6-26.5" transform="translate(-100.9 -210)" fill="#fcfdfc"/><path d="M463.4,380.3a26.6,26.6,0,1,1-26.6-26.5,26.5,26.5,0,0,1,26.6,26.5" transform="translate(-100.9 -210)" fill="#fcfdfc"/><path d="M398.9,307.1a18.5,18.5,0,1,1-18.5-18.4,18.5,18.5,0,0,1,18.5,18.4" transform="translate(-100.9 -210)" fill="#fcfdfc"/><path d="M251,307.1a18.5,18.5,0,1,1-18.5-18.4A18.5,18.5,0,0,1,251,307.1" transform="translate(-100.9 -210)" fill="#fcfdfc"/><path d="M225.6,483.1a13,13,0,1,1-13-12.9,12.9,12.9,0,0,1,13,12.9" transform="translate(-100.9 -210)" fill="#292f3a"/><path d="M422.7,441.6a8.8,8.8,0,1,1-8.8-8.8,8.8,8.8,0,0,1,8.8,8.8" transform="translate(-100.9 -210)" fill="#292f3a"/><path d="M367.5,528.7l0.2-6.8s17.1-5.2,17.4-26.2,3.5-43.1-3.7-54.8c-2.3-3.8-13-8.7-17.6,2.8,0,0-8.5-22.5-22.5-2.9,0,0-9.4-22.7-24.9-2.5,0,0,.7-45-2.3-59.6-0.8-3.8-4-10.5-12.4-9.2s-8.8,9-9.4,22.4,2.8,75.7,2.8,75.7-9.4-10.6-12.6-18.3-27.8-6.7-21.2,4.7,29.7,55.3,38.6,64.8l13,4.8v5.3h54.8Z" transform="translate(-100.9 -210)" fill="#fed5b4" fill-rule="evenodd"/><path d="M263.8,445.4s6,2.3,7.6,5.8,4.9,9,5.7,10.7-3,8.9-9.8,3.1c0,0-13.5-16.2-3.5-19.6" transform="translate(-100.9 -210)" fill="#e6b69e" fill-rule="evenodd"/><path d="M313.4,380.7c0.6,6.1-3.2,11.5-8.6,12s-10.3-3.9-10.9-10,3.2-11.5,8.6-12,10.3,3.9,10.9,10" transform="translate(-100.9 -210)" fill="#e6b69e" fill-rule="evenodd"/><rect x="188.6" y="318.7" width="100.2" height="39.91" fill="#252e3c"/><path d="M190.7,247.8h17.5a2.9,2.9,0,0,1,2.9,3.7l-6.4,24.4a5.3,5.3,0,0,1-5.3,4H164.8a3,3,0,0,1-3-3.9c2.2-7.9,4.2-15.9,6.3-23.8a5.4,5.4,0,0,1,5.6-4.4h17Z" transform="translate(-100.9 -210)" fill="#fff"/><path d="M160.9,273.2v-4.5q0-15.8,0-31.6c0-1.5.7-2.1,2.2-2.1h12a2.7,2.7,0,0,1,2.8,1.9c0.4,0.9.7,1.8,1.1,2.7a0.7,0.7,0,0,0,.8.5h19a4,4,0,0,1,4.3,4.4c0,0.6,0,1.2,0,1.9H173.2a6.5,6.5,0,0,0-6.7,5.2c-2,7.6-5.4,21.7-5.4,21.8h-0.1Z" transform="translate(-100.9 -210)" fill="#fff"/><path d="M194.5,259.8c-13.7,0-25.6,4.8-31.5,11.7l-1.2,4.5a3,3,0,0,0,3,3.9h34.6a5.3,5.3,0,0,0,5.3-4l3.8-14.3A55,55,0,0,0,194.5,259.8Z" transform="translate(-100.9 -210)" fill="#070707" opacity="0.1"/><path d="M160.9,273.2v-4.5q0-15.8,0-31.6c0-1.5.7-2.1,2.2-2.1h12a2.7,2.7,0,0,1,2.8,1.9c0.4,0.9.7,1.8,1.1,2.7a0.7,0.7,0,0,0,.8.5h19a4,4,0,0,1,4.3,4.4c0,0.6,0,1.2,0,1.9H173.2a6.5,6.5,0,0,0-6.7,5.2c-2,7.6-5.4,21.7-5.4,21.8h-0.1Z" transform="translate(-100.9 -210)" fill="#070707" opacity="0.12"/><path d="M104.3,335.6a13,13,0,0,0,18.4.9l21-30.2c5.3-4.8-4.6-13.5-9.9-8.7l-28.7,19.5a13.1,13.1,0,0,0-.9,18.4m39.8-78a37,37,0,1,1,37,37,37.1,37.1,0,0,1-37-37m-10.6,0A47.6,47.6,0,1,0,181.1,210a47.6,47.6,0,0,0-47.6,47.6" transform="translate(-100.9 -210)" fill="#8ed8f8"/><path d="M418.4,247.4a18.6,18.6,0,1,1-18.6-18.5,18.5,18.5,0,0,1,18.6,18.5" transform="translate(-100.9 -210)" fill="#292f3a"/><path d="M453.3,301.2a9.6,9.6,0,1,1-9.6-9.6,9.6,9.6,0,0,1,9.6,9.6" transform="translate(-100.9 -210)" fill="#292f3a"/></svg>