<svg xmlns="http://www.w3.org/2000/svg" xmlns:xlink="http://www.w3.org/1999/xlink" viewBox="0 0 171.07 162.74"><defs><clipPath id="a" transform="translate(-528.11 -1421.79)"><rect x="528.12" y="1421.79" width="171.07" height="162.09" fill="none"/></clipPath><clipPath id="b" transform="translate(-528.11 -1421.79)"><rect x="601.01" y="1499.17" width="32.05" height="48.97" fill="none"/></clipPath><clipPath id="c" transform="translate(-528.11 -1421.79)"><rect x="601.01" y="1499.18" width="32.05" height="48.97" fill="none"/></clipPath><clipPath id="d" transform="translate(-528.11 -1421.79)"><rect x="622.38" y="1513.58" width="2.44" height="5.37" fill="none"/></clipPath><clipPath id="e" transform="translate(-528.11 -1421.79)"><rect x="622.38" y="1513.58" width="2.44" height="5.38" fill="none"/></clipPath><clipPath id="f" transform="translate(-528.11 -1421.79)"><rect x="609.47" y="1519.52" width="3.51" height="5.41" fill="none"/></clipPath><clipPath id="g" transform="translate(-528.11 -1421.79)"><rect x="609.47" y="1519.52" width="3.51" height="5.41" fill="none"/></clipPath><clipPath id="h" transform="translate(-528.11 -1421.79)"><rect x="622.38" y="1525.49" width="2.44" height="5.38" fill="none"/></clipPath><clipPath id="i" transform="translate(-528.11 -1421.79)"><rect x="622.38" y="1525.49" width="2.44" height="5.38" fill="none"/></clipPath><clipPath id="j" transform="translate(-528.11 -1421.79)"><rect x="586.52" y="1503.79" width="9.27" height="6.76" fill="none"/></clipPath><clipPath id="k" transform="translate(-528.11 -1421.79)"><rect x="586.52" y="1503.79" width="9.27" height="6.76" fill="none"/></clipPath><clipPath id="l" transform="translate(-528.11 -1421.79)"><rect x="594.13" y="1507.72" width="0.32" height="0.63" fill="none"/></clipPath><clipPath id="m" transform="translate(-528.11 -1421.79)"><rect x="594.13" y="1507.73" width="0.32" height="0.62" fill="none"/></clipPath><clipPath id="n" transform="translate(-528.11 -1421.79)"><rect x="592.76" y="1505.67" width="0.63" height="0.69" fill="none"/></clipPath><clipPath id="o" transform="translate(-528.11 -1421.79)"><rect x="592.76" y="1505.68" width="0.63" height="0.69" fill="none"/></clipPath><clipPath id="p" transform="translate(-528.11 -1421.79)"><rect x="592.41" y="1507.83" width="0.24" height="0.35" fill="none"/></clipPath><clipPath id="q" transform="translate(-528.11 -1421.79)"><rect x="592.41" y="1507.84" width="0.24" height="0.35" fill="none"/></clipPath><clipPath id="r" transform="translate(-528.11 -1421.79)"><rect x="593.25" y="1507.72" width="0.31" height="0.25" fill="none"/></clipPath><clipPath id="s" transform="translate(-528.11 -1421.79)"><rect x="593.25" y="1507.72" width="0.31" height="0.25" fill="none"/></clipPath><clipPath id="t" transform="translate(-528.11 -1421.79)"><rect x="614.24" y="1473" width="6.16" height="9.86" fill="none"/></clipPath><clipPath id="u" transform="translate(-528.11 -1421.79)"><rect x="614.24" y="1473" width="6.16" height="9.86" fill="none"/></clipPath><clipPath id="v" transform="translate(-528.11 -1421.79)"><rect x="643.06" y="1509.19" width="3.99" height="1.63" fill="none"/></clipPath><clipPath id="w" transform="translate(-528.11 -1421.79)"><rect x="643.06" y="1509.2" width="3.99" height="1.63" fill="none"/></clipPath><clipPath id="z" transform="translate(-528.11 -1421.79)"><rect x="645.04" y="1502.39" width="2.91" height="7.5" fill="none"/></clipPath><clipPath id="aa" transform="translate(-528.11 -1421.79)"><rect x="645.04" y="1502.39" width="2.91" height="7.5" fill="none"/></clipPath><clipPath id="ab" transform="translate(-528.11 -1421.79)"><rect x="573.28" y="1501.03" width="9.64" height="0.9" fill="none"/></clipPath><clipPath id="ac" transform="translate(-528.11 -1421.79)"><rect x="573.28" y="1501.03" width="9.64" height="0.9" fill="none"/></clipPath><clipPath id="ad" transform="translate(-528.11 -1421.79)"><rect x="578.37" y="1494.93" width="1.72" height="4.72" fill="none"/></clipPath><clipPath id="ae" transform="translate(-528.11 -1421.79)"><rect x="578.37" y="1494.93" width="1.72" height="4.72" fill="none"/></clipPath><clipPath id="af" transform="translate(-528.11 -1421.79)"><rect x="657.72" y="1499.12" width="4.22" height="2.77" fill="none"/></clipPath><clipPath id="ag" transform="translate(-528.11 -1421.79)"><rect x="657.72" y="1499.12" width="4.22" height="2.77" fill="none"/></clipPath></defs><title>works-share</title><g clip-path="url(#a)"><path d="M605.07,1560.76a9.6,9.6,0,0,1-13.52-1.16l-6.82-8.1a9.58,9.58,0,0,1,1.17-13.5l5.73-4.82a9.6,9.6,0,0,1,13.52,1.16l6.82,8.1a9.58,9.58,0,0,1-1.17,13.5Z" transform="translate(-528.11 -1421.79)" fill="#fed6a9"/><path d="M597.22,1537.48c-1.73,1.45-4.13,1.45-5.36,0s-0.82-3.81.92-5.27l17.85-15c1.73-1.45,4.13-1.45,5.35,0s0.81,3.81-.92,5.27Z" transform="translate(-528.11 -1421.79)" fill="#fcf3d0"/><path d="M604,1541.72c-1.13.95-3,.54-4.26-0.92s-1.3-3.4-.18-4.35l9.33-7.84c1.13-.95,3-0.54,4.26.92s1.3,3.41.18,4.35Z" transform="translate(-528.11 -1421.79)" fill="#fed6a9"/><path d="M609.09,1547.78c-1.12.94-3,.52-4.25-0.93s-1.31-3.4-.19-4.34l9.25-7.77c1.12-.94,3-0.52,4.25.93s1.31,3.4.19,4.34Z" transform="translate(-528.11 -1421.79)" fill="#fcf3d0"/><path d="M612.9,1553.2c-0.87.74-2.36,0.41-3.32-.73s-1-2.66-.15-3.39l7.23-6.08c0.88-.73,2.36-0.41,3.32.73s1,2.66.15,3.39Z" transform="translate(-528.11 -1421.79)" fill="#fcf3d0"/><polygon points="62.05 147.01 46.55 128.6 51.21 124.68 66.71 143.09 62.05 147.01" fill="#231f20"/><path d="M579.68,1551.65a1.54,1.54,0,1,0-2.16-.19,1.53,1.53,0,0,0,2.16.19" transform="translate(-528.11 -1421.79)" fill="#e6e7e8"/><polyline points="0 162.74 45.62 126.57 63.89 148.26 46.41 162.74" fill="#231f20"/><path d="M631.83,1491.94H602.25c-1.49,0-2.69,1.5-2.69,3.35v59.41c0,1.85,1.21,3.35,2.69,3.35h29.58c1.49,0,2.69-1.5,2.69-3.35v-59.41c0-1.85-1.2-3.35-2.69-3.35m0.93,56.12h-31.7v-48.39h31.7v48.39Z" transform="translate(-528.11 -1421.79)" fill="#d2d3d4"/><path d="M631.83,1491.94H602.25c-1.49,0-2.69,1.5-2.69,3.35v59.41c0,1.85,1.21,3.35,2.69,3.35h29.58c1.49,0,2.69-1.5,2.69-3.35v-59.41c0-1.85-1.2-3.35-2.69-3.35m0.93,56.12h-31.7v-48.39h31.7v48.39Z" transform="translate(-528.11 -1421.79)" fill="#fff"/><path d="M620,1552.84a3,3,0,1,0-3,3,3,3,0,0,0,3-3" transform="translate(-528.11 -1421.79)" fill="#fff"/><rect x="72.95" y="77.87" width="31.7" height="48.39" fill="#f2f3f2"/><rect x="72.9" y="77.39" width="32.05" height="48.97" fill="#2075bc"/><g opacity="0.4"><g clip-path="url(#b)"><g clip-path="url(#c)"><polygon points="72.9 126.36 72.9 77.39 104.95 77.39 72.9 126.36" fill="#29aae1"/></g></g></g><rect x="641.23" y="1563.75" width="16.81" height="4.96" transform="translate(-1259.19 -839.81) rotate(-31.99)" fill="#fed6a9"/><path d="M656.48,1551.63a8.35,8.35,0,0,1-2.66,11.51L646,1568a8.37,8.37,0,0,1-11.53-2.65l-3.46-5.53a8.35,8.35,0,0,1,2.66-11.51l7.83-4.89A8.37,8.37,0,0,1,653,1546.1Z" transform="translate(-528.11 -1421.79)" fill="#fed6a9"/><path d="M635.41,1555.56a3,3,0,1,1-5.1,3.18l-10.79-17.23a3,3,0,1,1,5.1-3.18Z" transform="translate(-528.11 -1421.79)" fill="#fed6a9"/><path d="M642.15,1563.27a3.7,3.7,0,0,1-2.8,6.85L624.27,1564a3.7,3.7,0,0,1,2.8-6.85Z" transform="translate(-528.11 -1421.79)" fill="#fed6a9"/><path d="M639.9,1550.21c0.68,1.09.09,2.69-1.32,3.57s-3.1.71-3.78-.38l-5.63-9c-0.68-1.09-.09-2.69,1.31-3.57s3.1-.71,3.78.38Z" transform="translate(-528.11 -1421.79)" fill="#fed6a9"/><path d="M645.75,1546.58c0.68,1.08.08,2.67-1.32,3.55s-3.1.72-3.77-.36l-5.59-8.93c-0.68-1.08-.08-2.67,1.32-3.55s3.1-.72,3.77.36Z" transform="translate(-528.11 -1421.79)" fill="#fed6a9"/><path d="M650.9,1544a2.43,2.43,0,0,1-4,2.49l-4.37-7a2.43,2.43,0,0,1,4-2.49Z" transform="translate(-528.11 -1421.79)" fill="#fed6a9"/><rect x="640.8" y="1566.13" width="20.99" height="5.31" transform="translate(-1260.35 -838.46) rotate(-31.99)" fill="#231f20"/><path d="M645.51,1572.42a1.34,1.34,0,1,0-.43,1.85,1.34,1.34,0,0,0,.43-1.85" transform="translate(-528.11 -1421.79)" fill="#e6e7e8"/><polyline points="118.48 162.74 113.82 155.35 134.8 142.25 148.05 162.74" fill="#231f20"/><path d="M594.7,1540.34A3.93,3.93,0,0,1,589,1535l11.37-12.19a3.93,3.93,0,0,1,5.74,5.35Z" transform="translate(-528.11 -1421.79)" fill="#fed6a9"/><path d="M624.82,1516.28a2.7,2.7,0,1,1-2.7-2.7,2.7,2.7,0,0,1,2.7,2.7" transform="translate(-528.11 -1421.79)" fill="#fff"/><g opacity="0.1"><g clip-path="url(#d)"><g clip-path="url(#e)"><path d="M622.38,1513.58a3,3,0,0,1,0,5.38,2.7,2.7,0,0,0,0-5.38" transform="translate(-528.11 -1421.79)" fill="#070707"/></g></g></g><path d="M614.87,1522.23a2.7,2.7,0,1,1-2.7-2.7,2.7,2.7,0,0,1,2.7,2.7" transform="translate(-528.11 -1421.79)" fill="#fff"/><g opacity="0.1"><g clip-path="url(#f)"><g clip-path="url(#g)"><path d="M611.09,1522.23a2.7,2.7,0,0,1,1.89-2.58,2.7,2.7,0,1,0,0,5.16,2.7,2.7,0,0,1-1.89-2.58" transform="translate(-528.11 -1421.79)" fill="#070707"/></g></g></g><line x1="84.08" y1="100.49" x2="93.92" y2="94.44" fill="none" stroke="#fff" stroke-miterlimit="10" stroke-width="1.6"/><path d="M624.82,1528.17a2.7,2.7,0,1,0-2.7,2.7,2.7,2.7,0,0,0,2.7-2.7" transform="translate(-528.11 -1421.79)" fill="#fff"/><line x1="84.08" y1="100.38" x2="93.92" y2="106.44" fill="none" stroke="#fff" stroke-miterlimit="10" stroke-width="1.6"/><g opacity="0.1"><g clip-path="url(#h)"><g clip-path="url(#i)"><path d="M622.38,1525.49a3,3,0,0,1,0,5.38,2.7,2.7,0,0,0,0-5.38" transform="translate(-528.11 -1421.79)" fill="#070707"/></g></g></g><path d="M560.11,1494.83A20.81,20.81,0,1,1,580.91,1474a20.83,20.83,0,0,1-20.81,20.81" transform="translate(-528.11 -1421.79)" fill="#ef4237"/><path d="M560.11,1453.61A20.41,20.41,0,1,1,539.7,1474a20.43,20.43,0,0,1,20.41-20.41m0-.8a21.21,21.21,0,1,0,21.2,21.21,21.21,21.21,0,0,0-21.2-21.21" transform="translate(-528.11 -1421.79)" fill="#dededd"/><path d="M559.91,1489.14a11.46,11.46,0,0,1-9.35-5,0.4,0.4,0,0,1,0-.45c1.8-2.78,3.4-3.23,6.53-3.23h6.4c3.18,0,4.45.23,6.17,2.81a0.4,0.4,0,0,1,0,.45c-0.86,1.26-4.1,5.37-9.63,5.37h-0.11Z" transform="translate(-528.11 -1421.79)" fill="#d8aa40"/><path d="M563.48,1480.91c3,0,4.19.17,5.84,2.63a11.53,11.53,0,0,1-9.3,5.2h-0.11a11,11,0,0,1-9-4.78c1.64-2.54,3-3,6.19-3h6.4m0-.8h-6.4c-3.22,0-5,.49-6.86,3.41a0.8,0.8,0,0,0,0,.89,11.85,11.85,0,0,0,9.67,5.13H560c5.73,0,9.07-4.24,10-5.55a0.8,0.8,0,0,0,0-.9c-1.82-2.72-3.3-3-6.51-3" transform="translate(-528.11 -1421.79)" fill="#e5e5e5"/><path d="M560.18,1483.33h0a3,3,0,0,1-3-3.08l0.05-3.69a3,3,0,0,1,6.08.09l-0.05,3.69a3,3,0,0,1-3.08,3" transform="translate(-528.11 -1421.79)" fill="#e0bc91"/><path d="M560.18,1481.49h0a3,3,0,0,1-3-3.08l0.05-3.69a3,3,0,1,1,6.08.09l-0.05,3.69a3,3,0,0,1-3.08,3" transform="translate(-528.11 -1421.79)" fill="#d1a884"/><path d="M560.25,1479.65h0a7.24,7.24,0,0,1-7.22-7.22v-4.64a7.22,7.22,0,0,1,14.43,0v4.64a7.24,7.24,0,0,1-7.22,7.22" transform="translate(-528.11 -1421.79)" fill="#f3cc9c"/><path d="M560.77,1475.88h-0.68a2,2,0,0,0-2,2v0.08a4,4,0,0,0,4.59-.12,2,2,0,0,0-2-1.91" transform="translate(-528.11 -1421.79)" fill="#f3cc9c"/><path d="M555.84,1469.27a0.2,0.2,0,0,1-.13-0.34,2,2,0,0,1,2.39-.16,0.2,0.2,0,1,1-.2.34,1.64,1.64,0,0,0-1.93.1,0.19,0.19,0,0,1-.13.05" transform="translate(-528.11 -1421.79)" fill="#9d4b3d"/><path d="M564.81,1469.27a0.19,0.19,0,0,1-.13-0.05,1.63,1.63,0,0,0-1.93-.11,0.2,0.2,0,1,1-.2-0.34,2,2,0,0,1,2.39.16,0.2,0.2,0,0,1,0,.28,0.19,0.19,0,0,1-.14.06" transform="translate(-528.11 -1421.79)" fill="#9d4b3d"/><path d="M557.43,1470.13a0.56,0.56,0,1,1-.56-0.56,0.56,0.56,0,0,1,.56.56" transform="translate(-528.11 -1421.79)" fill="#465c66"/><path d="M564.34,1470.13a0.56,0.56,0,1,1-.56-0.56,0.56,0.56,0,0,1,.56.56" transform="translate(-528.11 -1421.79)" fill="#465c66"/><polyline points="31.85 48.97 31.85 52 33.2 52" fill="none" stroke="#e2b68e" stroke-linecap="round" stroke-linejoin="round" stroke-width="0.8"/><path d="M562.13,1476.37a0.17,0.17,0,0,0-.16-0.17h-3.1a0.17,0.17,0,0,0-.16.17,0.17,0.17,0,0,0,.05.12,0.17,0.17,0,0,0,0,.1,2.43,2.43,0,0,0,1.61.72h0a2.23,2.23,0,0,0,1.62-.79h0a0.17,0.17,0,0,0,.09-0.15" transform="translate(-528.11 -1421.79)" fill="#d85d36"/><path d="M559.9,1476.9a2.26,2.26,0,0,1-.66-0.36h2.31a1.66,1.66,0,0,1-1.64.36" transform="translate(-528.11 -1421.79)" fill="#fff"/><path d="M552.5,1465.29s-1.34,8.78-1.31,11.46a1.27,1.27,0,0,0,.72,1.18c2.15,1.09,4.48-.59,4.48-0.59s-3-.44-2.48-11.81c-0.38-.08-1.42-0.24-1.42-0.24" transform="translate(-528.11 -1421.79)" fill="#9d4b3d"/><path d="M567.51,1463.9a33.38,33.38,0,0,1,1.27,6.29c0.28,2.73.44,5.9-.1,7-1.7,2-4.91.28-4.91,0.28s3.14-.93,2.67-12.31a3.65,3.65,0,0,0,1.07-1.22" transform="translate(-528.11 -1421.79)" fill="#9d4b3d"/><path d="M552.16,1467.55s14.49,0.24,15.38-3.47c-0.08-2-1.19-3-2.72-3.87a10.75,10.75,0,0,0-7.95-.27c-2.09.81-4.45,3.18-4.71,7.62" transform="translate(-528.11 -1421.79)" fill="#9d4b3d"/><path d="M616.83,1463.8A20.81,20.81,0,1,1,637.64,1443a20.83,20.83,0,0,1-20.81,20.81" transform="translate(-528.11 -1421.79)" fill="#2dabe2"/><path d="M616.83,1422.59A20.41,20.41,0,1,1,596.43,1443a20.43,20.43,0,0,1,20.41-20.41m0-.8A21.21,21.21,0,1,0,638,1443a21.21,21.21,0,0,0-21.21-21.21" transform="translate(-528.11 -1421.79)" fill="#dededd"/><path d="M616.6,1460.05a13.47,13.47,0,0,1-11-5.82,0.4,0.4,0,0,1,0-.45c2.11-3.25,4-3.78,7.65-3.78h7.56c3.73,0,5.21.27,7.23,3.29a0.4,0.4,0,0,1,0,.45c-1,1.48-4.82,6.32-11.32,6.32H616.6Z" transform="translate(-528.11 -1421.79)" fill="#9d4b3d"/><path d="M620.82,1450.4c3.55,0,4.95.19,6.9,3.11-1.77,2.59-5.54,6.14-11,6.14h-0.13a13,13,0,0,1-10.66-5.65c1.94-3,3.6-3.6,7.32-3.6h7.56m0-.8h-7.56c-3.75,0-5.8.57-8,4a0.8,0.8,0,0,0,0,.89,13.86,13.86,0,0,0,11.31,6h0.14c6.69,0,10.6-5,11.65-6.49a0.8,0.8,0,0,0,0-.89c-2.12-3.17-3.76-3.46-7.57-3.46" transform="translate(-528.11 -1421.79)" fill="#e5e5e5"/><path d="M616.92,1453.26h0a3.6,3.6,0,0,1-3.54-3.64l0.06-4.36a3.59,3.59,0,0,1,7.18.1l-0.06,4.36a3.6,3.6,0,0,1-3.64,3.54" transform="translate(-528.11 -1421.79)" fill="#e0bc91"/><path d="M616.92,1451.09h0a3.6,3.6,0,0,1-3.54-3.64l0.06-4.36a3.59,3.59,0,0,1,7.18.1l-0.06,4.36a3.6,3.6,0,0,1-3.64,3.54" transform="translate(-528.11 -1421.79)" fill="#d1a884"/><path d="M617,1448.92h0a8.55,8.55,0,0,1-8.53-8.53v-5.48a8.53,8.53,0,1,1,17.05,0v5.48a8.55,8.55,0,0,1-8.53,8.53" transform="translate(-528.11 -1421.79)" fill="#f3cc9c"/><path d="M612.81,1427.5s1.44,4.73,8,4.08c-0.15-.09-2.81-2.15-3.16-2.57a8.48,8.48,0,0,0,4.16.46c-0.49-.69-3.62-5.21-9-2" transform="translate(-528.11 -1421.79)" fill="#efeae8"/><path d="M624.87,1431.64a12.92,12.92,0,0,1-.76,4.72c-0.87,2.11,1.14,5.36.76,6.72,1.22-1.25,3.49-6.1,0-11.44" transform="translate(-528.11 -1421.79)" fill="#efeae8"/><path d="M609.13,1431.64a12.87,12.87,0,0,0,.76,4.72c0.87,2.11-1.14,5.36-.76,6.72-1.23-1.25-3.49-6.1,0-11.44" transform="translate(-528.11 -1421.79)" fill="#efeae8"/><path d="M619.8,1433.07h-5.34a0.22,0.22,0,1,1,0-.43h5.34a0.22,0.22,0,0,1,0,.43" transform="translate(-528.11 -1421.79)" fill="#e2b68e"/><path d="M619.8,1434.06h-5.34a0.22,0.22,0,1,1,0-.43h5.34a0.22,0.22,0,0,1,0,.43" transform="translate(-528.11 -1421.79)" fill="#e2b68e"/><path d="M617.93,1443.19h-1.45a4.16,4.16,0,0,0-4.14,4.14v0.16a8.47,8.47,0,0,0,9.74-.26,4.16,4.16,0,0,0-4.14-4.05" transform="translate(-528.11 -1421.79)" fill="#eee9e8"/><path d="M617.61,1444.46H616.8a2.31,2.31,0,0,0-2.31,2.31v0.09a4.72,4.72,0,0,0,5.42-.14,2.32,2.32,0,0,0-2.31-2.26" transform="translate(-528.11 -1421.79)" fill="#f3cc9c"/><path d="M619.8,1435.05h-5.34a0.22,0.22,0,1,1,0-.43h5.34a0.22,0.22,0,0,1,0,.43" transform="translate(-528.11 -1421.79)" fill="#e2b68e"/><path d="M620.86,1440.17a0.19,0.19,0,0,1,0-.37,1.46,1.46,0,0,0,.89-0.46,0.18,0.18,0,0,1,.26,0,0.19,0.19,0,0,1,0,.26,1.81,1.81,0,0,1-1.15.61h0" transform="translate(-528.11 -1421.79)" fill="#e2b68e"/><path d="M621.31,1441.06a0.09,0.09,0,0,1-.09-0.08,0.09,0.09,0,0,1,.08-0.1,1,1,0,0,0,.65-0.31,0.09,0.09,0,0,1,.13,0,0.09,0.09,0,0,1,0,.13,1.21,1.21,0,0,1-.78.39h0Z" transform="translate(-528.11 -1421.79)" fill="#e2b68e"/><path d="M612.83,1440.17h0a1.79,1.79,0,0,1-1.15-.61,0.19,0.19,0,0,1,0-.26,0.19,0.19,0,0,1,.26,0,1.46,1.46,0,0,0,.89.46,0.19,0.19,0,0,1,0,.37" transform="translate(-528.11 -1421.79)" fill="#e2b68e"/><path d="M612.37,1441.06h0a1.2,1.2,0,0,1-.78-0.39,0.09,0.09,0,0,1,.15-0.11,1,1,0,0,0,.65.31,0.09,0.09,0,0,1,.08.1,0.09,0.09,0,0,1-.09.08" transform="translate(-528.11 -1421.79)" fill="#e2b68e"/><path d="M617.2,1446.78h0a2.67,2.67,0,0,1-1.73-.74,0.17,0.17,0,0,1,0-.24,0.17,0.17,0,0,1,.24,0,2.53,2.53,0,0,0,.94.55,2,2,0,0,0,2.06-.62,0.17,0.17,0,0,1,.24,0,0.17,0.17,0,0,1,0,.24,2.45,2.45,0,0,1-1.75.81" transform="translate(-528.11 -1421.79)" fill="#a1887f"/><path d="M611.79,1436.66a0.24,0.24,0,0,1-.17-0.07,0.23,0.23,0,0,1,0-.33,2.42,2.42,0,0,1,2.83-.18,0.23,0.23,0,0,1-.23.4,1.94,1.94,0,0,0-2.28.12,0.23,0.23,0,0,1-.16.06" transform="translate(-528.11 -1421.79)" fill="#eee9e8"/><path d="M622.38,1436.66a0.23,0.23,0,0,1-.16-0.06,1.93,1.93,0,0,0-2.28-.12,0.23,0.23,0,1,1-.23-0.4,2.41,2.41,0,0,1,2.82.18,0.23,0.23,0,0,1-.16.4" transform="translate(-528.11 -1421.79)" fill="#eee9e8"/><path d="M613.68,1437.68A0.66,0.66,0,1,1,613,1437a0.66,0.66,0,0,1,.66.66" transform="translate(-528.11 -1421.79)" fill="#465c66"/><path d="M621.83,1437.68a0.66,0.66,0,1,1-.66-0.66,0.66,0.66,0,0,1,.66.66" transform="translate(-528.11 -1421.79)" fill="#465c66"/><polyline points="88.55 16.62 88.55 20.21 90.15 20.21" fill="none" stroke="#e2b68e" stroke-linecap="round" stroke-linejoin="round" stroke-width="0.8"/><path d="M678,1494.83A20.81,20.81,0,1,1,698.79,1474,20.83,20.83,0,0,1,678,1494.83" transform="translate(-528.11 -1421.79)" fill="#b12624"/><path d="M678,1453.61A20.41,20.41,0,1,1,657.57,1474,20.43,20.43,0,0,1,678,1453.61m0-.8A21.21,21.21,0,1,0,699.19,1474,21.21,21.21,0,0,0,678,1452.81" transform="translate(-528.11 -1421.79)" fill="#dededd"/><path d="M677.75,1491a13.32,13.32,0,0,1-11-5.82,0.4,0.4,0,0,1,0-.45c2.1-3.25,4-3.78,7.65-3.78H682c3.73,0,5.21.27,7.23,3.29a0.4,0.4,0,0,1,0,.43c-2.86,4.73-5.75,6.33-11.46,6.33h0Z" transform="translate(-528.11 -1421.79)" fill="#01a99d"/><path d="M682,1481.4c3.55,0,4.95.19,6.9,3.11-2.62,4.34-5.26,6.14-11.12,6.14h0a12.88,12.88,0,0,1-10.66-5.65c1.94-3,3.6-3.6,7.32-3.6H682m0-.8h-7.56c-3.75,0-5.8.57-8,4a0.8,0.8,0,0,0,0,.89,13.71,13.71,0,0,0,11.31,6c5.81,0,8.89-1.71,11.8-6.53a0.8,0.8,0,0,0,0-.86c-2.12-3.17-3.76-3.46-7.57-3.46" transform="translate(-528.11 -1421.79)" fill="#e5e5e5"/><path d="M678.07,1484.26h0a3.4,3.4,0,0,1-3.35-3.44l0.06-4.12a3.39,3.39,0,0,1,6.79.1l-0.06,4.12a3.41,3.41,0,0,1-3.44,3.35" transform="translate(-528.11 -1421.79)" fill="#e0bc91"/><path d="M678.07,1482.2h0a3.4,3.4,0,0,1-3.35-3.44l0.06-4.12a3.39,3.39,0,0,1,6.79.1l-0.06,4.12a3.41,3.41,0,0,1-3.44,3.34" transform="translate(-528.11 -1421.79)" fill="#d1a884"/><path d="M678.5,1480.15h-0.7a7.73,7.73,0,0,1-7.71-7.7v-5.88a7.73,7.73,0,0,1,7.71-7.71h0.7a7.73,7.73,0,0,1,7.7,7.71v5.88a7.73,7.73,0,0,1-7.7,7.7" transform="translate(-528.11 -1421.79)" fill="#f3cc9c"/><path d="M678.72,1475.94H678a2.19,2.19,0,0,0-2.18,2.18v0.09a4.46,4.46,0,0,0,5.13-.13,2.19,2.19,0,0,0-2.18-2.13" transform="translate(-528.11 -1421.79)" fill="#f3cc9c"/><path d="M673.22,1468.56a0.22,0.22,0,0,1-.15-0.38,2.29,2.29,0,0,1,2.67-.17,0.22,0.22,0,1,1-.22.38,1.83,1.83,0,0,0-2.15.12,0.22,0.22,0,0,1-.15.06" transform="translate(-528.11 -1421.79)" fill="#465c66"/><path d="M683.23,1468.56a0.22,0.22,0,0,1-.15-0.06,1.82,1.82,0,0,0-2.15-.12,0.22,0.22,0,1,1-.22-0.38,2.29,2.29,0,0,1,2.67.17,0.22,0.22,0,0,1-.15.38" transform="translate(-528.11 -1421.79)" fill="#465c66"/><path d="M675,1469.53a0.63,0.63,0,1,1-.63-0.63,0.63,0.63,0,0,1,.63.63" transform="translate(-528.11 -1421.79)" fill="#465c66"/><path d="M682.7,1469.53a0.63,0.63,0,1,1-.63-0.63,0.63,0.63,0,0,1,.63.63" transform="translate(-528.11 -1421.79)" fill="#465c66"/><polyline points="149.71 48.43 149.71 51.82 151.22 51.82" fill="none" stroke="#e2b68e" stroke-linecap="round" stroke-linejoin="round" stroke-width="0.8"/><path d="M680.08,1476.55a0.17,0.17,0,0,0-.17-0.17h-3.16a0.17,0.17,0,0,0-.17.17,0.16,0.16,0,0,0,.05.12,0.17,0.17,0,0,0,0,.1,2.53,2.53,0,0,0,1.64.7h0a2.32,2.32,0,0,0,1.65-.76h0a0.17,0.17,0,0,0,.09-0.15" transform="translate(-528.11 -1421.79)" fill="#a1887f"/><path d="M677.8,1477.06a2.36,2.36,0,0,1-.68-0.35h2.35a1.76,1.76,0,0,1-1.68.35" transform="translate(-528.11 -1421.79)" fill="#fff"/><path d="M686.29,1462.05a7.51,7.51,0,0,0,.66-0.56,5.2,5.2,0,0,0-.46-0.73,6.31,6.31,0,0,0,.36-0.79,5.75,5.75,0,0,0-.73-0.47,6.1,6.1,0,0,0,0-.87,6,6,0,0,0-.86-0.13,5.55,5.55,0,0,0-.36-0.79,6.7,6.7,0,0,0-.83.24,5,5,0,0,0-.65-0.56c-0.47,0-.47.49-0.95,0.49s-0.47-.49-0.95-0.49-0.47.49-.95,0.49-0.47-.49-0.95-0.49-0.47.49-.95,0.49-0.47-.49-0.95-0.49-0.47.49-.95,0.49-0.47-.49-0.95-0.49-0.47.49-.95,0.49c-0.23,0-.47-0.48-0.67-0.46a7,7,0,0,0-.57.59c-0.22,0-.57-0.37-0.76-0.3a6.14,6.14,0,0,0-.4.71c-0.2.11-.65-0.2-0.81-0.08a5.71,5.71,0,0,0-.18.8c-0.17.16-.68,0-0.8,0.17a3.69,3.69,0,0,0,.07.82c-0.19.35-.56,0.08-0.7,0.37-0.06,0,.24.38,0.18,0.42a2.74,2.74,0,0,0-.9,2.22v5.81h1.93v-3.43a1.72,1.72,0,0,1,1.72-1.72h9.88a1.72,1.72,0,0,1,1.72,1.72v3.43h1.93v-5.81a2.12,2.12,0,0,0-.23-1.08" transform="translate(-528.11 -1421.79)" fill="#dc7f27"/><path d="M669.86,1471.84h0a1,1,0,0,1-1-1V1469a1,1,0,0,1,2.05,0v1.86a1,1,0,0,1-1,1" transform="translate(-528.11 -1421.79)" fill="#f3cc9c"/><path d="M686.1,1471.84h0a1,1,0,0,1-1-1V1469a1,1,0,0,1,2.05,0v1.86a1,1,0,0,1-1,1" transform="translate(-528.11 -1421.79)" fill="#f3cc9c"/><polygon points="150.41 53.32 150.41 53.31 149.99 53.31 149.99 53.32 147.55 53.73 147.66 54.4 149.92 54.03 150.48 54.03 152.75 54.4 152.85 53.73 150.41 53.32" fill="#dc7f27"/><line x1="41.08" y1="71.07" x2="71.22" y2="91.62" fill="none" stroke="#fff" stroke-miterlimit="10" stroke-width="1.6" stroke-dasharray="1.6 1.6"/><path d="M598.11,1507.17a7.54,7.54,0,1,1-7.54-7.53,7.54,7.54,0,0,1,7.54,7.53" transform="translate(-528.11 -1421.79)" fill="#2075bc"/><path d="M592.78,1506.37a0.6,0.6,0,1,0-.6-0.6,0.6,0.6,0,0,0,.6.6" transform="translate(-528.11 -1421.79)" fill="#fff"/><polygon points="64.3 86.39 64.53 86.39 64.42 86.05 64.3 86.39" fill="#fff"/><path d="M589.48,1508.28a0.42,0.42,0,0,0,0-.25,0.39,0.39,0,0,0,0-.25,0.17,0.17,0,0,0-.14-0.06H589.2v0.62h0.14a0.16,0.16,0,0,0,.14-0.06" transform="translate(-528.11 -1421.79)" fill="#fff"/><path d="M595,1504.1h-8.84a0.46,0.46,0,0,0-.46.46v5.21a0.46,0.46,0,0,0,.46.46H595a0.46,0.46,0,0,0,.46-0.46v-5.21a0.46,0.46,0,0,0-.46-0.46m-2.22.87a0.79,0.79,0,1,1-.79.79,0.79,0.79,0,0,1,.79-0.79m1,3.54h-0.22l-0.19-.38h-0.13v0.38h-0.19v-1h0.37a0.29,0.29,0,0,1,.31.29,0.26,0.26,0,0,1-.17.25Zm-2.35-.86a0.35,0.35,0,0,1,.26-0.1,0.34,0.34,0,0,1,.35.3h-0.19a0.16,0.16,0,0,0-.16-0.14,0.15,0.15,0,0,0-.12,0,0.8,0.8,0,0,0,0,.54,0.15,0.15,0,0,0,.12.05,0.16,0.16,0,0,0,.16-0.14H592a0.34,0.34,0,0,1-.35.3,0.35,0.35,0,0,1-.26-0.1,0.82,0.82,0,0,1,0-.76m-1.55-.1h0.19v1H589.9v-1Zm-0.88,0h0.35a0.35,0.35,0,0,1,.25.09,0.48,0.48,0,0,1,.1.38,0.5,0.5,0,0,1-.1.39,0.35,0.35,0,0,1-.25.09H589v-1Zm-2.46.1a0.35,0.35,0,0,1,.26-0.1,0.34,0.34,0,0,1,.35.3H587a0.16,0.16,0,0,0-.16-0.14,0.15,0.15,0,0,0-.12,0,0.78,0.78,0,0,0,0,.54,0.15,0.15,0,0,0,.12.05,0.16,0.16,0,0,0,.16-0.14h0.19a0.34,0.34,0,0,1-.35.3,0.35,0.35,0,0,1-.26-0.1,0.82,0.82,0,0,1,0-.76m1.56,1.74h-1.61v-0.49h1.61v0.49Zm-0.07-.88h-0.21l-0.19-.38h-0.13v0.38h-0.19v-1h0.37a0.29,0.29,0,0,1,.31.29,0.26,0.26,0,0,1-.17.25Zm0.1-2.44a0.38,0.38,0,0,1-.38.38h-1a0.38,0.38,0,0,1-.38-0.38h1.16a0.08,0.08,0,0,0,.08-0.08,0.08,0.08,0,0,0-.08-0.08h-1.16v-0.29h1.16a0.08,0.08,0,1,0,0-.16h-1.16a0.38,0.38,0,0,1,.38-0.38h1a0.38,0.38,0,0,1,.38.38v0.6Zm0.05,1.49h0.63v0.17h-0.44v0.22h0.38v0.17h-0.38v0.23h0.44v0.17H588.2v-1Zm2.09,1.83h-1.61v-0.49h1.61v0.49Zm0.38-.88h-0.19v-0.79h-0.25v-0.17h0.69v0.17h-0.25v0.79Zm1.79,0.88h-1.61v-0.49h1.61v0.49Zm0.29-.88-0.06-.17h-0.34l-0.06.17h-0.19l0.35-1h0.15l0.35,1h-0.19Zm1.88,0.88H593v-0.49h1.61v0.49Zm-0.1-1a0.35,0.35,0,0,1-.25.09h-0.34v-1h0.34a0.35,0.35,0,0,1,.25.09,0.48,0.48,0,0,1,.1.38,0.5,0.5,0,0,1-.1.39m-0.56-1.86a0.8,0.8,0,0,1-.5-0.18l0.12-.15a0.6,0.6,0,1,0,0-.93l-0.12-.15a0.79,0.79,0,1,1,.5,1.41" transform="translate(-528.11 -1421.79)" fill="#fff"/><path d="M587.69,1507.72h-0.18V1508h0.18a0.13,0.13,0,1,0,0-.25" transform="translate(-528.11 -1421.79)" fill="#fff"/><path d="M593.43,1507.72h-0.18V1508h0.18a0.13,0.13,0,1,0,0-.25" transform="translate(-528.11 -1421.79)" fill="#fff"/><path d="M594.27,1507.72h-0.14v0.62h0.14a0.17,0.17,0,0,0,.14-0.06,0.43,0.43,0,0,0,0-.26,0.4,0.4,0,0,0,0-.25,0.17,0.17,0,0,0-.14-0.06" transform="translate(-528.11 -1421.79)" fill="#fff"/><path d="M595.61,1504a0.62,0.62,0,0,0-.47-0.24H586a0.64,0.64,0,0,0-.48.23,0.75,0.75,0,0,0-.19.49v5.32a0.75,0.75,0,0,0,.19.49,0.64,0.64,0,0,0,.48.23h9.1a0.65,0.65,0,0,0,.48-0.23,0.75,0.75,0,0,0,.19-0.49v-5.32a0.77,0.77,0,0,0-.18-0.48m0,5.81a0.56,0.56,0,0,1-.5.55H586a0.56,0.56,0,0,1-.5-0.55v-5.32a0.56,0.56,0,0,1,.5-0.55h9.12a0.54,0.54,0,0,1,.48.55v5.32Z" transform="translate(-528.11 -1421.79)" fill="#fff"/><g opacity="0.1"><g clip-path="url(#j)"><g clip-path="url(#k)"><path d="M594.58,1505.77a0.6,0.6,0,0,1-1,.47l-0.12.15a0.81,0.81,0,0,0,.5.18,0.79,0.79,0,0,0,0-1.59h0l-0.18.23a0.58,0.58,0,0,1,.22,0,0.61,0.61,0,0,1,.6.6" transform="translate(-528.11 -1421.79)" fill="#070707"/><path d="M594.54,1507.65a0.35,0.35,0,0,0-.25-0.09h-0.35v1h0.35a0.35,0.35,0,0,0,.25-0.09,0.5,0.5,0,0,0,.1-0.39,0.48,0.48,0,0,0-.1-0.38m-0.13.64a0.17,0.17,0,0,1-.14.06h-0.14v-0.62h0.14a0.17,0.17,0,0,1,.14.06,0.39,0.39,0,0,1,0,.25,0.42,0.42,0,0,1,0,.26" transform="translate(-528.11 -1421.79)" fill="#070707"/><path d="M595.45,1509.77v-5.21a0.46,0.46,0,0,0-.46-0.46h-0.47c-0.18.29-.38,0.58-0.6,0.87h0a0.79,0.79,0,1,1-.5,1.41l0.12-.15a0.6,0.6,0,1,0,.38-1.07,0.56,0.56,0,0,0-.22,0l-0.23.29a0.78,0.78,0,0,1,0,.27,0.8,0.8,0,0,1-.79.8l-0.19,0a17,17,0,0,1-1.92,1.69v0.29h-0.19v-0.15l-0.54.38-0.24.16h0.58v0.49h-1.37a16.7,16.7,0,0,1-1.63.84H595a0.46,0.46,0,0,0,.46-0.46m-2.39-2.21h0.37a0.29,0.29,0,0,1,.31.29,0.26,0.26,0,0,1-.18.25l0.21,0.41h-0.21l-0.19-.38h-0.13v0.38h-0.19v-1Zm-1.62.1a0.35,0.35,0,0,1,.26-0.1,0.34,0.34,0,0,1,.35.3h-0.19a0.16,0.16,0,0,0-.16-0.14,0.15,0.15,0,0,0-.12,0,0.8,0.8,0,0,0,0,.54,0.15,0.15,0,0,0,.12,0,0.16,0.16,0,0,0,.16-0.13H592a0.34,0.34,0,0,1-.35.3,0.35,0.35,0,0,1-.26-0.11,0.82,0.82,0,0,1,0-.76m1,1.74h-1.61v-0.49h1.61v0.49Zm0.29-.88-0.06-.17h-0.34l-0.06.17h-0.2l0.35-1h0.15l0.35,1h-0.19Zm1.88,0.88H593v-0.49h1.61v0.49Zm-0.09-1a0.35,0.35,0,0,1-.25.09h-0.35v-1h0.35a0.35,0.35,0,0,1,.25.09,0.48,0.48,0,0,1,.1.38,0.5,0.5,0,0,1-.1.39" transform="translate(-528.11 -1421.79)" fill="#070707"/><path d="M595.14,1503.79h-0.42l-0.1.17h0.52a0.54,0.54,0,0,1,.48.55v5.33a0.56,0.56,0,0,1-.5.55h-8.18l-0.42.17h8.6a0.65,0.65,0,0,0,.48-0.23,0.76,0.76,0,0,0,.19-0.49v-5.33a0.78,0.78,0,0,0-.18-0.48,0.62,0.62,0,0,0-.47-0.24" transform="translate(-528.11 -1421.79)" fill="#070707"/></g></g></g><g opacity="0.1"><g clip-path="url(#l)"><g clip-path="url(#m)"><path d="M594.41,1507.78a0.17,0.17,0,0,0-.14-0.06h-0.14v0.62h0.14a0.17,0.17,0,0,0,.14-0.06,0.42,0.42,0,0,0,0-.26,0.4,0.4,0,0,0,0-.25" transform="translate(-528.11 -1421.79)" fill="#070707"/></g></g></g><g opacity="0.1"><g clip-path="url(#n)"><g clip-path="url(#o)"><path d="M593.38,1505.68q-0.29.35-.62,0.69h0a0.6,0.6,0,0,0,.6-0.6,0.64,0.64,0,0,0,0-.09" transform="translate(-528.11 -1421.79)" fill="#070707"/></g></g></g><g opacity="0.1"><g clip-path="url(#p)"><g clip-path="url(#q)"><polygon points="64.3 86.39 64.53 86.39 64.42 86.05 64.3 86.39" fill="#070707"/></g></g></g><g opacity="0.1"><g clip-path="url(#r)"><g clip-path="url(#s)"><path d="M593.43,1507.72h-0.18V1508h0.18a0.13,0.13,0,1,0,0-.25" transform="translate(-528.11 -1421.79)" fill="#070707"/></g></g></g><line x1="88.55" y1="42.26" x2="88.55" y2="70.73" fill="none" stroke="#fff" stroke-miterlimit="10" stroke-width="1.6" stroke-dasharray="1.6 1.6"/><path d="M624.37,1477.93a7.53,7.53,0,1,1-7.53-7.53,7.53,7.53,0,0,1,7.53,7.53" transform="translate(-528.11 -1421.79)" fill="#2075bc"/><path d="M614.83,1474.85a1.07,1.07,0,0,1,0-.11l0-.09,0,0.09-0.06.24h0.16Z" transform="translate(-528.11 -1421.79)" fill="#fff"/><path d="M618.11,1474.69h0v0.17h0a0.09,0.09,0,0,0,.11-0.09q0-.08-0.1-0.08" transform="translate(-528.11 -1421.79)" fill="#fff"/><path d="M616.71,1474.85a0.1,0.1,0,0,0,0-.07,0.07,0.07,0,0,0-.08-0.08H616.6v0.17h0a0.1,0.1,0,0,0,.07,0" transform="translate(-528.11 -1421.79)" fill="#fff"/><path d="M617.38,1474.69c-0.1,0-.15.07-0.15,0.22s0.05,0.22.15,0.22a0.13,0.13,0,0,0,.11-0.05,0.29,0.29,0,0,0,0-.16,0.3,0.3,0,0,0,0-.17,0.13,0.13,0,0,0-.11-0.05" transform="translate(-528.11 -1421.79)" fill="#fff"/><path d="M614.09,1474.7H614v0.17h0a0.1,0.1,0,0,0,.07,0,0.1,0.1,0,0,0,0-.07,0.07,0.07,0,0,0-.08-0.08" transform="translate(-528.11 -1421.79)" fill="#fff"/><path d="M620.05,1473h0l-6.39.61a0.38,0.38,0,0,0-.35.36v0a0.22,0.22,0,0,0,0,.06v8.59a0.2,0.2,0,0,0,.2.2h6a0.2,0.2,0,0,0,.2-0.2v-0.47H620a0.38,0.38,0,0,0,.35-0.36v-8.5a0.33,0.33,0,0,0-.35-0.32m-6,2.28h-0.2v-0.75h0.26a0.31,0.31,0,0,1,.21.06,0.22,0.22,0,0,1,.07.18,0.25,0.25,0,0,1-.07.19,0.3,0.3,0,0,1-.21.07H614v0.25Zm1.56,0.87c0.09,0,.13,0,0.1.11a5,5,0,0,0-.22.93,0.25,0.25,0,0,1-.2.2,5.13,5.13,0,0,0-.93.22c-0.09,0-.14,0-0.11-0.1a2.39,2.39,0,0,1,1.35-1.35m-1.19-.87,0.24-.75h0.27l0.25,0.75h-0.22l0-.14h-0.24l0,0.14H614.4Zm1.1-.24,0,0-0.1,0-0.11-.06a0.21,0.21,0,0,1-.05-0.07,0.24,0.24,0,0,1,0-.09,0.19,0.19,0,0,1,.08-0.16,0.33,0.33,0,0,1,.21-0.06,0.58,0.58,0,0,1,.24.06l-0.06.15a0.47,0.47,0,0,0-.18,0h-0.06a0,0,0,0,0,0,0,0,0,0,0,0,0,0l0.12,0.06a0.32,0.32,0,0,1,.13.09,0.2,0.2,0,0,1,0,.13,0.23,0.23,0,0,1,0,.13,0.24,0.24,0,0,1-.1.08,0.4,0.4,0,0,1-.16,0H615.3l-0.11,0v-0.18l0.12,0,0.12,0,0.07,0a0.05,0.05,0,0,0,0,0,0,0,0,0,0,0,0m0.59,0,0,0-0.1,0-0.11-.06a0.21,0.21,0,0,1-.05-0.07,0.22,0.22,0,0,1,0-.09,0.19,0.19,0,0,1,.08-0.16,0.33,0.33,0,0,1,.21-0.06,0.56,0.56,0,0,1,.24.06l-0.06.15a0.47,0.47,0,0,0-.18,0H616a0,0,0,0,0,0,0,0,0,0,0,0,0,0l0.12,0.06a0.34,0.34,0,0,1,.13.09,0.2,0.2,0,0,1,0,.13,0.22,0.22,0,0,1,0,.13,0.22,0.22,0,0,1-.1.08,0.38,0.38,0,0,1-.15,0h-0.12l-0.11,0v-0.18l0.12,0,0.11,0,0.07,0a0,0,0,0,0,0,0,0,0,0,0,0,0,0m-0.08,1.13a0.33,0.33,0,0,1,.25-0.18h0.39a0.34,0.34,0,0,1,.25.18,4.36,4.36,0,0,1,.27,1,0.13,0.13,0,0,1-.15.16l-0.56,0-0.56,0a0.13,0.13,0,0,1-.15-0.16,4.16,4.16,0,0,1,.27-1m0.39-.9v-0.75h0.26a0.32,0.32,0,0,1,.21.06,0.22,0.22,0,0,1,.07.18,0.25,0.25,0,0,1-.07.19,0.3,0.3,0,0,1-.21.07H616.6v0.25h-0.2Zm2.1,0h-0.23l-0.16-.27h-0.05v0.27h-0.2v-0.75h0.24c0.2,0,.31.07,0.31,0.22a0.22,0.22,0,0,1-.13.2Zm0.16,2.23c0,0.09,0,.13-0.11.1a5.13,5.13,0,0,0-.93-0.22,0.25,0.25,0,0,1-.2-0.2,5,5,0,0,0-.22-0.93c0-.09,0-0.14.1-0.11a2.39,2.39,0,0,1,1.35,1.35m-1-2.32a0.42,0.42,0,0,1-.54,0,0.49,0.49,0,0,1,0-.57,0.36,0.36,0,0,1,.27-0.1,0.36,0.36,0,0,1,.27.1,0.41,0.41,0,0,1,.09.29,0.4,0.4,0,0,1-.09.29m-1.79,2.39,0.59,0,0.59,0a0.21,0.21,0,0,1,.19.19c0,0.19,0,.39,0,0.59s0,0.4,0,.59a0.21,0.21,0,0,1-.19.19l-0.59,0-0.59,0a0.21,0.21,0,0,1-.19-0.19c0-.19,0-0.39,0-0.59s0-.4,0-0.59a0.21,0.21,0,0,1,.19-0.19m1.3,2a4.34,4.34,0,0,1-.27,1,0.33,0.33,0,0,1-.25.18h-0.38a0.33,0.33,0,0,1-.25-0.18,4.18,4.18,0,0,1-.27-1,0.13,0.13,0,0,1,.15-0.16l0.56,0,0.56,0a0.13,0.13,0,0,1,.15.16m-3.07-1a1.74,1.74,0,0,1,0-.19,1.79,1.79,0,0,1,0-.19,0.33,0.33,0,0,1,.17-0.25,4.18,4.18,0,0,1,1-.27,0.13,0.13,0,0,1,.16.15c0,0.19,0,.38,0,0.56s0,0.38,0,.56a0.13,0.13,0,0,1-.16.15,4.19,4.19,0,0,1-1-.27,0.33,0.33,0,0,1-.17-0.25m0.26,0.56a5,5,0,0,0,.93.22,0.25,0.25,0,0,1,.2.2,5,5,0,0,0,.22.93c0,0.09,0,.14-0.1.11a2.38,2.38,0,0,1-1.35-1.35c0-.09,0-0.13.11-0.1m3.91,3.13h-3.61v-0.47h3.61v0.47Zm0.41-3a2.39,2.39,0,0,1-1.35,1.35c-0.09,0-.13,0-0.1-0.11a5,5,0,0,0,.22-0.93,0.25,0.25,0,0,1,.2-0.2,5,5,0,0,0,.93-0.22c0.09,0,.14,0,0.11.1m0.15-.67a0.33,0.33,0,0,1-.18.25,4.28,4.28,0,0,1-1,.27,0.13,0.13,0,0,1-.16-0.15c0-.19,0-0.38,0-0.56s0-.38,0-0.56a0.13,0.13,0,0,1,.16-0.15,4.15,4.15,0,0,1,1,.27,0.33,0.33,0,0,1,.18.25c0,0.07,0,.13,0,0.19s0,0.13,0,.19m0.25-3.86h-0.18v0.58h-0.2v-0.58H618.5v-0.16h0.57v0.16Zm1,7.12a0.09,0.09,0,0,1-.08.07h-0.38v-7.83a0.2,0.2,0,0,0-.2-0.2h-5.36l6-.59h0a0,0,0,0,1,.05,0v8.5Z" transform="translate(-528.11 -1421.79)" fill="#fff"/><g opacity="0.1"><g clip-path="url(#t)"><g clip-path="url(#u)"><path d="M620.05,1473h0l-0.68.06q0,0.15,0,.3l0.73-.07h0a0,0,0,0,1,.05,0v8.5a0.09,0.09,0,0,1-.08.07h-0.38v-7.83a0.2,0.2,0,0,0-.2-0.2h-0.19a14,14,0,0,1-.85,3.15,2.34,2.34,0,0,1,.26.48c0,0.09,0,.13-0.11.1l-0.35-.11-0.11.24a3.54,3.54,0,0,1,.54.18,0.33,0.33,0,0,1,.18.25c0,0.06,0,.13,0,0.19s0,0.13,0,.19a0.33,0.33,0,0,1-.18.25,4.29,4.29,0,0,1-1,.27,0.13,0.13,0,0,1-.16-0.13l-0.33.57a0.37,0.37,0,0,1,0,0,4.33,4.33,0,0,1-.27,1,0.33,0.33,0,0,1-.25.18h-0.31a12.32,12.32,0,0,1-.9,1.05h2.82v0.47H615c-0.24.22-.48,0.42-0.72,0.6h5.2a0.2,0.2,0,0,0,.2-0.2v-0.47H620a0.38,0.38,0,0,0,.35-0.36v-8.5a0.33,0.33,0,0,0-.35-0.32m-1.39,6.23a2.39,2.39,0,0,1-1.35,1.35c-0.09,0-.13,0-0.1-0.11a5,5,0,0,0,.22-0.93,0.25,0.25,0,0,1,.2-0.2,5,5,0,0,0,.93-0.22c0.09,0,.14,0,0.11.1" transform="translate(-528.11 -1421.79)" fill="#070707"/></g></g></g><line x1="105.41" y1="94.59" x2="139.45" y2="70.57" fill="none" stroke="#fff" stroke-miterlimit="10" stroke-width="1.6" stroke-dasharray="1.6 1.6"/><path d="M652.59,1506.61a7.53,7.53,0,1,1-7.54-7.53,7.54,7.54,0,0,1,7.54,7.53" transform="translate(-528.11 -1421.79)" fill="#2075bc"/><g opacity="0.9"><g clip-path="url(#v)"><g clip-path="url(#w)"><g opacity="0.4"><g clip-path="url(#v)"><g clip-path="url(#w)"><path d="M645.06,1510.83c-1,0-2-.28-2-0.81s1-.81,2-0.81,2,0.28,2,.81-1,.81-2,0.81" transform="translate(-528.11 -1421.79)" fill="#c7c6c6"/></g></g></g></g></g></g><path d="M645.07,1502.4h0a2.9,2.9,0,0,0-2.89,2.81,2.93,2.93,0,0,0,.08.78,2.69,2.69,0,0,0,.12.43,7.58,7.58,0,0,0,1.17,2c0.31,0.4.95,1.47,1.51,1.47s1.29-1.18,1.61-1.61a7.45,7.45,0,0,0,1.07-1.87,2.8,2.8,0,0,0,.12-0.44,2.9,2.9,0,0,0-2.8-3.59m1.32,3.57a1.53,1.53,0,0,1-1.08.76l-0.25,0-0.28,0a1.52,1.52,0,1,1,1.61-.75" transform="translate(-528.11 -1421.79)" fill="#fff"/><g opacity="0.1"><g clip-path="url(#z)"><g clip-path="url(#aa)"><path d="M645.07,1502.39h0v1.31h0a1.52,1.52,0,0,1,.25,3l-0.25,0h0v3.16h0c0.6,0,1.29-1.19,1.61-1.61a7.51,7.51,0,0,0,1.07-1.86,2.94,2.94,0,0,0,.12-0.44,2.89,2.89,0,0,0-2.8-3.59" transform="translate(-528.11 -1421.79)" fill="#070707"/></g></g></g><path d="M585.64,1498.43a7.53,7.53,0,1,1-7.54-7.53,7.54,7.54,0,0,1,7.54,7.53" transform="translate(-528.11 -1421.79)" fill="#2075bc"/><path d="M577.66,1499.93h0a0.62,0.62,0,0,0,.53-0.29l0,0a1.62,1.62,0,0,0,.27-0.75,0.14,0.14,0,1,0-.26,0,1.78,1.78,0,0,1-.13.47,1.12,1.12,0,0,1-.57.53l-0.07,0v0.08h0.15Z" transform="translate(-528.11 -1421.79)" fill="#fff"/><path d="M576.83,1498.48a1.49,1.49,0,0,0,.58-0.2,0.73,0.73,0,0,0,.35-0.47,1.75,1.75,0,0,0,0-.3,0.54,0.54,0,0,1,.22-0.44,0.26,0.26,0,0,1,.46.17,1.2,1.2,0,0,1-.05.64,1.65,1.65,0,0,1-.71.86,2.54,2.54,0,0,1-1.41.39H576.2l0.17,0.26h0l0.23,0a2.68,2.68,0,0,0,1.2-.41,1.84,1.84,0,0,0,.89-1.34,1.1,1.1,0,0,0-.05-0.57,0.49,0.49,0,0,0-.39-0.33,0.57,0.57,0,0,0-.42.11,0.8,0.8,0,0,0-.35.73,0.51,0.51,0,0,1-.28.5,1.29,1.29,0,0,1-.26.1,2.74,2.74,0,0,1-.9.07H576l0,0.27a3.41,3.41,0,0,0,.82,0" transform="translate(-528.11 -1421.79)" fill="#fff"/><path d="M576.64,1498a0.93,0.93,0,0,0,.75-0.59c0-.1.07-0.2,0.11-0.3s0.07-.22.12-0.32a0.32,0.32,0,0,1,.31-0.19l0.27,0a1.45,1.45,0,0,1,1,.56,2.14,2.14,0,0,1,.4,1.08c0,0.09,0,.19,0,0.29h0l0.21-.41a0.07,0.07,0,0,0,0,0c0-.15-0.06-0.29-0.11-0.44a1.9,1.9,0,0,0-.64-1,1.79,1.79,0,0,0-1.11-.38,0.62,0.62,0,0,0-.62.4c0,0.07-.06.15-0.09,0.23s-0.09.27-.15,0.4a0.61,0.61,0,0,1-.42.35,1.5,1.5,0,0,1-.5,0H576l0,0.27a2.3,2.3,0,0,0,.65,0" transform="translate(-528.11 -1421.79)" fill="#fff"/><path d="M577.31,1495.52a4.12,4.12,0,0,1,.7,0,3.12,3.12,0,0,1,1.08.35,2.34,2.34,0,0,1,.89.86s0,0,.07,0,0,0,0-.05,0-.17,0-0.26a0.28,0.28,0,0,0-.08-0.18,5,5,0,0,0-.39-0.37,3.28,3.28,0,0,0-2-.67h0l-0.33.24h0Z" transform="translate(-528.11 -1421.79)" fill="#fff"/><path d="M577.18,1498.56a2.73,2.73,0,0,1-1.06.12H576l0.08,0.26,0,0a2.86,2.86,0,0,0,1.17-.16,1.44,1.44,0,0,0,1-1.45,0.13,0.13,0,1,0-.27,0,1.2,1.2,0,0,1,0,.38,1.17,1.17,0,0,1-.79.83" transform="translate(-528.11 -1421.79)" fill="#fff"/><path d="M576.54,1497.47a0.67,0.67,0,0,0,.59-0.49c0-.08,0-0.17.05-0.25a0.64,0.64,0,0,1,.42-0.52,1,1,0,0,1,.49-0.06,0.14,0.14,0,1,0,0-.27,1.33,1.33,0,0,0-.43,0,0.9,0.9,0,0,0-.69.53,1.69,1.69,0,0,0-.09.36,0.42,0.42,0,0,1-.35.4,1.51,1.51,0,0,1-.28,0h-0.12l-0.07.26a1.35,1.35,0,0,0,.46,0" transform="translate(-528.11 -1421.79)" fill="#fff"/><path d="M578.68,1496a0.14,0.14,0,1,0-.11.25,2.46,2.46,0,0,1,1.33,1.4l0,0.12v0l0.09-.41a0.07,0.07,0,0,0,0,0,2.7,2.7,0,0,0-1.36-1.29" transform="translate(-528.11 -1421.79)" fill="#fff"/><path d="M579.19,1499.09l0.21-.26a0.16,0.16,0,0,0,0-.14c0-.18,0-0.37-0.09-0.55a3.28,3.28,0,0,0-.26-0.76,0.15,0.15,0,0,0-.09-0.09,0.13,0.13,0,0,0-.14,0,0.13,0.13,0,0,0,0,.15,3.33,3.33,0,0,1,.31,1.11c0,0.16,0,.32,0,0.48" transform="translate(-528.11 -1421.79)" fill="#fff"/><path d="M576.68,1496.8a0.92,0.92,0,0,0,.1-0.24,1.29,1.29,0,0,0,0-.46,0,0,0,0,1,0-.06l0.12,0,0.32-.08a0.14,0.14,0,0,0,.11-0.16,0.14,0.14,0,0,0-.16-0.1l-0.1,0a0.17,0.17,0,0,0-.1.06,4.13,4.13,0,0,0-.44.55,0.34,0.34,0,0,0-.07.17,0.55,0.55,0,0,1,0,.1,0.31,0.31,0,0,1-.17.21l0,0-0.12.27a0.53,0.53,0,0,0,.49-0.25" transform="translate(-528.11 -1421.79)" fill="#fff"/><path d="M578.88,1499.38a0.09,0.09,0,0,0,0,0,2.93,2.93,0,0,0,.09-1.1,0.13,0.13,0,0,0-.27,0s0,0.06,0,.1a2.53,2.53,0,0,1-.18,1.17l-0.05.12h0l0.36-.26" transform="translate(-528.11 -1421.79)" fill="#fff"/><path d="M578,1499.35a0.13,0.13,0,0,0,0-.2,0.14,0.14,0,0,0-.2,0l-0.11.12a1,1,0,0,1-.52.22l-0.55.07a1.33,1.33,0,0,0,.36.22h0l0.3-.05a1.18,1.18,0,0,0,.69-0.41" transform="translate(-528.11 -1421.79)" fill="#fff"/><path d="M579.14,1495.37l0.49,0.28,0.06,0,0,0,0,0a1.66,1.66,0,0,0-.37-0.41l-0.14-.09a0.13,0.13,0,0,0-.19.07,0.14,0.14,0,0,0,.08.18" transform="translate(-528.11 -1421.79)" fill="#fff"/><path d="M578.3,1495.08a2.54,2.54,0,0,1,.51.15,0.13,0.13,0,0,0,.18-0.07,0.14,0.14,0,0,0-.07-0.18,0.76,0.76,0,0,0-.41-0.05l-0.27,0c0,0.09,0,.09.07,0.11" transform="translate(-528.11 -1421.79)" fill="#fff"/><path d="M574.16,1501.79a0.54,0.54,0,0,1-.74,0,1.18,1.18,0,0,1,0-1.1,0.53,0.53,0,0,1,.74,0,1.17,1.17,0,0,1,0,1.1m-0.2-.94a0.24,0.24,0,0,0-.35,0,1.16,1.16,0,0,0,0,.77,0.24,0.24,0,0,0,.35,0,1.13,1.13,0,0,0,0-.77" transform="translate(-528.11 -1421.79)" fill="#fff"/><polygon points="46.72 79 46.72 79.34 47.27 79.34 47.27 79.58 46.72 79.58 46.72 80.14 46.45 80.14 46.45 78.76 47.36 78.76 47.36 79 46.72 79" fill="#fff"/><polygon points="47.86 79 47.86 79.34 48.41 79.34 48.41 79.58 47.86 79.58 47.86 80.14 47.59 80.14 47.59 78.76 48.5 78.76 48.5 79 47.86 79" fill="#fff"/><rect x="48.73" y="78.76" width="0.27" height="1.38" fill="#fff"/><path d="M577.9,1501.94a0.51,0.51,0,0,1-.37-0.15,1.18,1.18,0,0,1,0-1.1,0.51,0.51,0,0,1,.37-0.15,0.48,0.48,0,0,1,.51.44h-0.27a0.23,0.23,0,0,0-.23-0.2,0.22,0.22,0,0,0-.17.07,0.54,0.54,0,0,0-.07.39,0.54,0.54,0,0,0,.07.39,0.22,0.22,0,0,0,.17.07,0.23,0.23,0,0,0,.23-0.19h0.27a0.49,0.49,0,0,1-.51.43" transform="translate(-528.11 -1421.79)" fill="#fff"/><polygon points="50.52 80.13 50.52 78.76 51.43 78.76 51.43 79 50.79 79 50.79 79.32 51.33 79.32 51.33 79.56 50.79 79.56 50.79 79.89 51.43 79.89 51.43 80.13 50.52 80.13" fill="#fff"/><rect x="52.14" y="78.76" width="0.27" height="1.38" fill="#fff"/><rect x="52.7" y="79.85" width="0.29" height="0.29" fill="#fff"/><path d="M582.25,1501.79a0.5,0.5,0,0,1-.36.13h-0.5v-1.37h0.5a0.5,0.5,0,0,1,.36.13,0.69,0.69,0,0,1,.14.55,0.72,0.72,0,0,1-.14.56m-0.19-.92a0.24,0.24,0,0,0-.2-0.08h-0.2v0.9h0.2a0.24,0.24,0,0,0,.2-0.08,0.61,0.61,0,0,0,.06-0.37,0.57,0.57,0,0,0-.06-0.36" transform="translate(-528.11 -1421.79)" fill="#fff"/><rect x="54.52" y="79.85" width="0.29" height="0.29" fill="#fff"/><g opacity="0.16"><g clip-path="url(#ab)"><g clip-path="url(#ac)"><path d="M574,1501.23a0.53,0.53,0,0,1-.07.39,0.23,0.23,0,0,1-.17.07,0.23,0.23,0,0,1-.17-0.07,0.54,0.54,0,0,1-.07-0.39c0-.08,0-0.15,0-0.2h-0.27c0,0.06,0,.13,0,0.2a0.7,0.7,0,0,0,.14.55,0.51,0.51,0,0,0,.37.15,0.5,0.5,0,0,0,.37-0.15,0.7,0.7,0,0,0,.14-0.55c0-.07,0-0.14,0-0.2H574c0,0.05,0,.11,0,0.2" transform="translate(-528.11 -1421.79)" fill="#070707"/><polygon points="46.45 80.13 46.72 80.13 46.72 79.57 47.27 79.57 47.27 79.33 46.72 79.33 46.72 79.24 46.45 79.24 46.45 80.13" fill="#070707"/><polygon points="47.59 80.13 47.86 80.13 47.86 79.57 48.41 79.57 48.41 79.33 47.86 79.33 47.86 79.24 47.59 79.24 47.59 80.13" fill="#070707"/><rect x="48.73" y="79.24" width="0.27" height="0.89" fill="#070707"/><path d="M577.39,1501.23a0.7,0.7,0,0,0,.13.55,0.51,0.51,0,0,0,.37.15,0.49,0.49,0,0,0,.51-0.44h-0.27a0.24,0.24,0,0,1-.4.12,0.54,0.54,0,0,1-.07-0.39c0-.08,0-0.15,0-0.2H577.4c0,0.06,0,.13,0,0.2" transform="translate(-528.11 -1421.79)" fill="#070707"/><polygon points="50.52 80.13 51.43 80.13 51.43 79.89 50.79 79.89 50.79 79.56 51.33 79.56 51.33 79.31 50.79 79.31 50.79 79.24 50.52 79.24 50.52 80.13" fill="#070707"/><rect x="52.14" y="79.24" width="0.27" height="0.89" fill="#070707"/><rect x="52.7" y="79.84" width="0.29" height="0.29" fill="#070707"/><path d="M582.12,1501.23a0.62,0.62,0,0,1-.06.37,0.24,0.24,0,0,1-.2.08h-0.2V1501h-0.27v0.89h0.5a0.5,0.5,0,0,0,.36-0.13,0.71,0.71,0,0,0,.14-0.56c0-.07,0-0.13,0-0.19h-0.27c0,0.05,0,.11,0,0.19" transform="translate(-528.11 -1421.79)" fill="#070707"/><rect x="54.52" y="79.84" width="0.29" height="0.29" fill="#070707"/></g></g></g><g opacity="0.14"><g clip-path="url(#ad)"><g clip-path="url(#ae)"><path d="M578.43,1498.69h-0.06v0.76a1.86,1.86,0,0,0,.17-0.59,0.14,0.14,0,0,0-.11-0.17" transform="translate(-528.11 -1421.79)" fill="#070707"/><path d="M579.71,1497.67a1.9,1.9,0,0,0-.64-1,1.72,1.72,0,0,0-.71-0.33v0.28a1.42,1.42,0,0,1,.8.52,2.15,2.15,0,0,1,.4,1.08c0,0.09,0,.19,0,0.29h0l0.21-.41a0.06,0.06,0,0,0,0,0c0-.15-0.06-0.29-0.1-0.44" transform="translate(-528.11 -1421.79)" fill="#070707"/><path d="M580.09,1496.74c0-.08,0-0.17,0-0.26a0.27,0.27,0,0,0-.08-0.18c-0.13-.12-0.25-0.26-0.38-0.37a3,3,0,0,0-1.24-.58v0.28a2.94,2.94,0,0,1,.73.28,2.31,2.31,0,0,1,.89.86s0,0,.07,0,0,0,0-.05" transform="translate(-528.11 -1421.79)" fill="#070707"/><path d="M578.69,1496a0.14,0.14,0,1,0-.11.25,2.46,2.46,0,0,1,1.33,1.39l0.05,0.12v0l0.09-.41a0.09,0.09,0,0,0,0,0,2.7,2.7,0,0,0-1.36-1.29" transform="translate(-528.11 -1421.79)" fill="#070707"/><path d="M579.36,1498.14a3.25,3.25,0,0,0-.26-0.75,0.15,0.15,0,0,0-.09-0.09,0.13,0.13,0,0,0-.14,0,0.14,0.14,0,0,0,0,.16,3.33,3.33,0,0,1,.31,1.11c0,0.16,0,.31,0,0.48l0.21-.26a0.17,0.17,0,0,0,0-.14c0-.18,0-0.37-0.09-0.55" transform="translate(-528.11 -1421.79)" fill="#070707"/><path d="M578.86,1498.12a0.13,0.13,0,0,0-.12.14s0,0.06,0,.1a2.55,2.55,0,0,1-.18,1.17l-0.05.12h0l0.36-.26a0.1,0.1,0,0,0,0,0,2.93,2.93,0,0,0,.08-1.1,0.13,0.13,0,0,0-.14-0.12" transform="translate(-528.11 -1421.79)" fill="#070707"/><path d="M579.14,1495.37l0.49,0.28,0.06,0,0,0,0,0a1.64,1.64,0,0,0-.37-0.41l-0.14-.09a0.13,0.13,0,0,0-.19.07,0.14,0.14,0,0,0,.08.18" transform="translate(-528.11 -1421.79)" fill="#070707"/><path d="M579,1495.17a0.14,0.14,0,0,0-.07-0.18,0.75,0.75,0,0,0-.41-0.05l-0.15,0v0.14a2.4,2.4,0,0,1,.45.14,0.13,0.13,0,0,0,.18-0.07" transform="translate(-528.11 -1421.79)" fill="#070707"/></g></g></g><path d="M666,1498.18a7.53,7.53,0,1,1-7.54-7.53,7.54,7.54,0,0,1,7.54,7.53" transform="translate(-528.11 -1421.79)" fill="#2075bc"/><path d="M661.69,1500.13c-0.2-.19-0.4-0.37-0.61-0.55a2.42,2.42,0,0,0-.41-0.27,0.7,0.7,0,0,0-.84.08c-0.16.13-.3,0.28-0.45,0.42a0.55,0.55,0,0,1-.53.15,1.52,1.52,0,0,1-.61-0.34,5.86,5.86,0,0,1-.88-0.93,2.89,2.89,0,0,1-.49-0.82,0.63,0.63,0,0,1,.24-0.83,3.43,3.43,0,0,0,.39-0.32,0.72,0.72,0,0,0,.21-0.86,4.46,4.46,0,0,0-.6-1,1.44,1.44,0,0,0-.21-0.23,0.48,0.48,0,0,0-.67,0,6,6,0,0,0-.54.46,2.33,2.33,0,0,0-.68,1.75c0,0.08,0,.22,0,0.36a4.1,4.1,0,0,0,.49,1.36,8.48,8.48,0,0,0,1.24,1.67,6.61,6.61,0,0,0,1.43,1.21,3.17,3.17,0,0,0,1.64.51,2.3,2.3,0,0,0,1.17-.31,4.05,4.05,0,0,0,.77-0.64,0.45,0.45,0,0,0,.07-0.59,1,1,0,0,0-.16-0.22" transform="translate(-528.11 -1421.79)" fill="#fff"/><path d="M660.19,1498.31a1.25,1.25,0,0,0-1.6-1.85l0,0.25a1,1,0,0,1,1.31,1.52Z" transform="translate(-528.11 -1421.79)" fill="#fff"/><path d="M660.9,1498.53a1.91,1.91,0,0,0-2.43-2.8l0,0.28a1.65,1.65,0,0,1,2.11,2.44Z" transform="translate(-528.11 -1421.79)" fill="#fff"/><path d="M661.13,1495.88a2.21,2.21,0,0,1,.1,2.77l0.26,0.08a2.47,2.47,0,0,0-3.13-3.62l0,0.28a2.21,2.21,0,0,1,2.72.49" transform="translate(-528.11 -1421.79)" fill="#fff"/><g opacity="0.1"><g clip-path="url(#af)"><g clip-path="url(#ag)"><path d="M661.86,1500.35a1,1,0,0,0-.16-0.22c-0.2-.19-0.4-0.37-0.61-0.55a2.47,2.47,0,0,0-.41-0.27,0.7,0.7,0,0,0-.84.08c-0.16.13-.3,0.28-0.46,0.42a0.55,0.55,0,0,1-.53.15,1.52,1.52,0,0,1-.61-0.34,4.66,4.66,0,0,1-.52-0.5,17.11,17.11,0,0,0,.15,2l0.34,0.22a3.18,3.18,0,0,0,1.64.51,2.27,2.27,0,0,0,1.17-.31,4,4,0,0,0,.77-0.64,0.45,0.45,0,0,0,.07-0.59" transform="translate(-528.11 -1421.79)" fill="#070707"/></g></g></g></g></svg>