<svg xmlns="http://www.w3.org/2000/svg" viewBox="0 0 368.36 264.77"><title>help-intro-business-home</title><g id="Layer_2" data-name="Layer 2"><g id="Layer_1-2" data-name="Layer 1"><g id="_Group_" data-name="&lt;Group&gt;"><line id="_Path_" data-name="&lt;Path&gt;" x1="184.44" y1="46.09" x2="184.44" y2="218.68" fill="none" stroke="#ffc71e" stroke-linecap="round" stroke-linejoin="round" stroke-width="2"/><rect id="_Rectangle_" data-name="&lt;Rectangle&gt;" x="161.9" y="1" width="45.09" height="45.09" rx="22.55" ry="22.55" fill="none" stroke="#ffc71e" stroke-linecap="round" stroke-linejoin="round" stroke-width="2"/><rect id="_Rectangle_2" data-name="&lt;Rectangle&gt;" x="161.9" y="218.68" width="45.09" height="45.09" rx="22.55" ry="22.55" fill="none" stroke="#ffc71e" stroke-linecap="round" stroke-linejoin="round" stroke-width="2"/><rect id="_Rectangle_3" data-name="&lt;Rectangle&gt;" x="57.97" y="14.28" width="45.09" height="45.09" rx="22.55" ry="22.55" fill="none" stroke="#ffc71e" stroke-linecap="round" stroke-linejoin="round" stroke-width="2"/><rect id="_Rectangle_4" data-name="&lt;Rectangle&gt;" x="1" y="110.5" width="45.09" height="45.09" rx="22.55" ry="22.55" fill="none" stroke="#ffc71e" stroke-linecap="round" stroke-linejoin="round" stroke-width="2"/><rect id="_Rectangle_5" data-name="&lt;Rectangle&gt;" x="322.27" y="110.5" width="45.09" height="45.09" rx="22.55" ry="22.55" fill="none" stroke="#ffc71e" stroke-linecap="round" stroke-linejoin="round" stroke-width="2"/><rect id="_Rectangle_6" data-name="&lt;Rectangle&gt;" x="265.82" y="14.28" width="45.09" height="45.09" rx="22.55" ry="22.55" fill="none" stroke="#ffc71e" stroke-linecap="round" stroke-linejoin="round" stroke-width="2"/><rect id="_Rectangle_7" data-name="&lt;Rectangle&gt;" x="57.97" y="204.88" width="45.09" height="45.09" rx="22.55" ry="22.55" fill="none" stroke="#ffc71e" stroke-linecap="round" stroke-linejoin="round" stroke-width="2"/><rect id="_Rectangle_8" data-name="&lt;Rectangle&gt;" x="265.82" y="204.88" width="45.09" height="45.09" rx="22.55" ry="22.55" fill="none" stroke="#ffc71e" stroke-linecap="round" stroke-linejoin="round" stroke-width="2"/><polyline id="_Path_2" data-name="&lt;Path&gt;" points="288.37 60.05 288.37 89.24 259.18 89.24 109.71 175.53 80.52 175.53 80.52 204.72" fill="none" stroke="#ffc71e" stroke-linecap="round" stroke-linejoin="round" stroke-width="2"/><polyline id="_Path_3" data-name="&lt;Path&gt;" points="80.52 60.05 80.52 89.24 109.71 89.24 259.18 175.53 288.37 175.53 288.37 204.72" fill="none" stroke="#ffc71e" stroke-linecap="round" stroke-linejoin="round" stroke-width="2"/><circle id="_Path_4" data-name="&lt;Path&gt;" cx="288.36" cy="89.21" r="2.5" fill="#fff" stroke="#ffc71e" stroke-linecap="round" stroke-linejoin="round" stroke-width="2"/><circle id="_Path_5" data-name="&lt;Path&gt;" cx="259.2" cy="89.21" r="2.5" fill="#fff" stroke="#ffc71e" stroke-linecap="round" stroke-linejoin="round" stroke-width="2"/><circle id="_Path_6" data-name="&lt;Path&gt;" cx="109.8" cy="89.21" r="2.5" fill="#fff" stroke="#ffc71e" stroke-linecap="round" stroke-linejoin="round" stroke-width="2"/><circle id="_Path_7" data-name="&lt;Path&gt;" cx="80.63" cy="89.21" r="2.5" fill="#fff" stroke="#ffc71e" stroke-linecap="round" stroke-linejoin="round" stroke-width="2"/><circle id="_Path_8" data-name="&lt;Path&gt;" cx="288.36" cy="175.5" r="2.5" fill="#fff" stroke="#ffc71e" stroke-linecap="round" stroke-linejoin="round" stroke-width="2"/><circle id="_Path_9" data-name="&lt;Path&gt;" cx="259.2" cy="175.5" r="2.5" fill="#fff" stroke="#ffc71e" stroke-linecap="round" stroke-linejoin="round" stroke-width="2"/><circle id="_Path_10" data-name="&lt;Path&gt;" cx="109.8" cy="175.5" r="2.5" fill="#fff" stroke="#ffc71e" stroke-linecap="round" stroke-linejoin="round" stroke-width="2"/><circle id="_Path_11" data-name="&lt;Path&gt;" cx="80.63" cy="175.5" r="2.5" fill="#fff" stroke="#ffc71e" stroke-linecap="round" stroke-linejoin="round" stroke-width="2"/><g id="_Group_2" data-name="&lt;Group&gt;"><g id="_Group_3" data-name="&lt;Group&gt;"><g id="_Group_4" data-name="&lt;Group&gt;"><path id="_Path_12" data-name="&lt;Path&gt;" d="M27.82,131.53h-.9a1.81,1.81,0,0,1-1.81-1.81v-.58a4.57,4.57,0,0,0,.87-1.63c0-.1.11-.15.18-.22a1.12,1.12,0,0,0,.15-1.35c0-.06-.1-.12-.1-.2,0-.53,0-1.06,0-1.59a2.65,2.65,0,0,0-.65-1.78,2.52,2.52,0,0,0-1.37-.71,4.55,4.55,0,0,0-2,0,2.38,2.38,0,0,0-1.4.95,2.74,2.74,0,0,0-.43,1.43c0,.54,0,1.08,0,1.62,0,.11-.08.18-.12.27a1.12,1.12,0,0,0,.26,1.37.53.53,0,0,1,.15.3,4.37,4.37,0,0,0,.82,1.46v.6a1.81,1.81,0,0,1-1.81,1.81h-.9a4.84,4.84,0,0,0-2.71,2.71v.9a.9.9,0,0,0,.9.9H29.62a.9.9,0,0,0,.9-.9v-.9A4.84,4.84,0,0,0,27.82,131.53Z" fill="#00aeef"/></g><g id="_Group_5" data-name="&lt;Group&gt;"><polygon id="_Path_13" data-name="&lt;Path&gt;" points="34.69 141.24 31.96 138.07 14.98 138.07 12.26 141.24 11.62 140.69 14.59 137.22 32.35 137.22 35.33 140.69 34.69 141.24" fill="#00aeef"/></g><g id="_Group_6" data-name="&lt;Group&gt;"><rect id="_Path_14" data-name="&lt;Path&gt;" x="22.87" y="137.65" width="0.85" height="2.83" fill="#00aeef"/></g><g id="_Group_7" data-name="&lt;Group&gt;"><path id="_Compound_Path_" data-name="&lt;Compound Path&gt;" d="M36.18,144.5a2.36,2.36,0,1,1,2.36-2.36A2.37,2.37,0,0,1,36.18,144.5Zm0-3.88a1.52,1.52,0,1,0,1.52,1.52A1.52,1.52,0,0,0,36.18,140.62Z" fill="#00aeef"/></g><g id="_Group_8" data-name="&lt;Group&gt;"><path id="_Compound_Path_2" data-name="&lt;Compound Path&gt;" d="M23.3,144.5a2.36,2.36,0,1,1,2.36-2.36A2.37,2.37,0,0,1,23.3,144.5Zm0-3.88a1.52,1.52,0,1,0,1.52,1.52A1.52,1.52,0,0,0,23.3,140.62Z" fill="#00aeef"/></g><g id="_Group_9" data-name="&lt;Group&gt;"><path id="_Compound_Path_3" data-name="&lt;Compound Path&gt;" d="M10.91,144.5a2.36,2.36,0,1,1,2.36-2.36A2.37,2.37,0,0,1,10.91,144.5Zm0-3.88a1.52,1.52,0,1,0,1.52,1.52A1.52,1.52,0,0,0,10.91,140.62Z" fill="#00aeef"/></g></g></g><g id="_Group_10" data-name="&lt;Group&gt;"><g id="_Group_11" data-name="&lt;Group&gt;"><path id="_Compound_Path_4" data-name="&lt;Compound Path&gt;" d="M88.29,31.16v-6a.82.82,0,0,0-.45-.74.84.84,0,0,0-.86.05c-6,4.13-9.4,4.66-11.72,4.66H68.62a4.77,4.77,0,0,0-4.76,4.76v1.77a4.77,4.77,0,0,0,4.76,4.76H71.8l3.46,8.38a.83.83,0,0,0,.77.52.89.89,0,0,0,.32-.06.84.84,0,0,0,.46-1.09l-3.2-7.74h1.64c8.08,0,11.39,4.28,11.54,4.48a.83.83,0,0,0,1.5-.49v-6a3.72,3.72,0,0,0,0-7.25Zm-22.77,4.5V33.9a3.1,3.1,0,0,1,3.1-3.1h2.91v8H68.62a3.1,3.1,0,0,1-3.1-3.1Zm21.1,6.74c-1.85-1.52-5.48-3.65-11.38-3.65H73.19v-8h2.06c2.38,0,5.8-.49,11.38-4.08Zm1.67-5.75V32.91a2.05,2.05,0,0,1,0,3.75Zm0,0" fill="#00aeef"/><path id="_Compound_Path_5" data-name="&lt;Compound Path&gt;" d="M96.35,34H93.09a.84.84,0,0,0,0,1.67h3.26a.84.84,0,0,0,0-1.67Zm0,0" fill="#00aeef"/><path id="_Compound_Path_6" data-name="&lt;Compound Path&gt;" d="M91.93,32.2a.84.84,0,0,0,.78.53,1,1,0,0,0,.31-.05l3.16-1.24a.83.83,0,0,0-.61-1.55L92.4,31.12a.83.83,0,0,0-.47,1.08Zm0,0" fill="#00aeef"/><path id="_Compound_Path_7" data-name="&lt;Compound Path&gt;" d="M96.17,38.13,93,36.89a.83.83,0,1,0-.61,1.55l3.16,1.24a.82.82,0,0,0,.31.05.84.84,0,0,0,.78-.53.83.83,0,0,0-.47-1.08Zm0,0" fill="#00aeef"/></g></g><g id="_Group_12" data-name="&lt;Group&gt;"><g id="_Group_13" data-name="&lt;Group&gt;"><path id="_Path_15" data-name="&lt;Path&gt;" d="M178.27,17.52a.77.77,0,0,1-.77-.77V11.81a.77.77,0,1,1,1.53,0v4.94A.77.77,0,0,1,178.27,17.52Z" fill="#00aeef"/><path id="_Compound_Path_8" data-name="&lt;Compound Path&gt;" d="M172.09,36a.77.77,0,0,1-.77-.77v-21a.77.77,0,0,1,.77-.77H175V15h-2.18v7.11H196V15h-2.18V13.52h2.95a.77.77,0,0,1,.77.77v21a.77.77,0,0,1-.77.77Zm19.29-1.53H196V29.87h-4.64Zm-12.35,0h4.73l0-.83h0v-3.8H179Zm6.23-.76v.76h4.59V29.87h-4.59v3.88Zm-12.4.76h4.64V29.87h-4.64Zm18.53-6.18H196V23.69h-4.64Zm-6.12,0h4.59V23.69h-4.59Zm-6.23,0h4.7V23.69H179Zm-6.18,0h4.64V23.69h-4.64Z" fill="#00aeef"/><rect id="_Path_16" data-name="&lt;Path&gt;" x="181.5" y="13.52" width="5.89" height="1.53" fill="#00aeef"/><path id="_Path_17" data-name="&lt;Path&gt;" d="M190.62,17.52a.77.77,0,0,1-.77-.77V11.81a.77.77,0,1,1,1.53,0v4.94A.77.77,0,0,1,190.62,17.52Z" fill="#00aeef"/></g></g><g id="_Group_14" data-name="&lt;Group&gt;"><g id="_Group_15" data-name="&lt;Group&gt;"><path id="_Compound_Path_9" data-name="&lt;Compound Path&gt;" d="M286.6,44.63h-.08a.69.69,0,0,1-.47-.19.73.73,0,0,1-.26-.64l.47-4.16a.66.66,0,0,1,.16-.43L296.12,28l2.09-2.37a1.92,1.92,0,0,1,1.41-.6,1.82,1.82,0,0,1,1.23.45l1.86,1.71a1.85,1.85,0,0,1,.64,1.28,1.89,1.89,0,0,1-.46,1.36l-1.47,1.67L291.13,43.39a.74.74,0,0,1-.37.22l-4.13,1Zm.79-1.69,1.69-.39-1.52-1.35Zm.61-3.3,2.53,2.23,9.3-10.73L297.3,28.9ZM299.59,26.5a.38.38,0,0,0-.3.17l-1,1.12L300.82,30l1-1.13a.48.48,0,0,0,.09-.31.37.37,0,0,0-.16-.28l-1.88-1.69A.5.5,0,0,0,299.59,26.5Z" fill="#00aeef"/><path id="_Path_18" data-name="&lt;Path&gt;" d="M274.79,48.58a1.43,1.43,0,0,1-1.43-1.43V27.77a1.43,1.43,0,0,1,1.43-1.43h17.32a.73.73,0,1,1,0,1.46H274.83V47.16H296.2V40.63a.71.71,0,0,1,1.24-.49.64.64,0,0,1,.18.48v6.54a1.43,1.43,0,0,1-1.43,1.43Z" fill="#00aeef"/><path id="_Path_19" data-name="&lt;Path&gt;" d="M277.51,34.6a.74.74,0,0,1-.73-.73.72.72,0,0,1,.73-.73h3.65a.73.73,0,0,1,0,1.46Z" fill="#00aeef"/><path id="_Path_20" data-name="&lt;Path&gt;" d="M277.51,31.07a.73.73,0,1,1,0-1.46h9a.73.73,0,1,1,0,1.46Z" fill="#00aeef"/><path id="_Path_21" data-name="&lt;Path&gt;" d="M277.67,38.1a.73.73,0,1,1,0-1.46h6.6a.73.73,0,1,1,0,1.46Z" fill="#00aeef"/><path id="_Path_22" data-name="&lt;Path&gt;" d="M277.67,41.63a.73.73,0,1,1,0-1.46h2.14a.73.73,0,1,1,0,1.46Z" fill="#00aeef"/><path id="_Path_23" data-name="&lt;Path&gt;" d="M277.67,45.12a.73.73,0,1,1,0-1.46h4a.73.73,0,0,1,0,1.46Z" fill="#00aeef"/></g></g><path id="_Compound_Path_10" data-name="&lt;Compound Path&gt;" d="M277.14,230.07a1.17,1.17,0,0,1-1.17-1,12.43,12.43,0,0,1,2.26-9,12.55,12.55,0,0,1,17.21-3l.53-.73a.38.38,0,0,1,.66.09l1.39,3.62a.38.38,0,0,1-.23.48l-.14,0-3.87-.19a.38.38,0,0,1-.29-.6l.52-.7a10.1,10.1,0,0,0-13.8,2.43,10,10,0,0,0-.76,1.24h3.16a.23.23,0,0,1,.2.34,1.8,1.8,0,0,0-.16,1.36,1.6,1.6,0,0,0,1,1,3,3,0,0,0,2.47-.19l2.37-1.33a.16.16,0,0,1,.21,0l5,6.06.61.74a1,1,0,0,1-.1,1.42l-.12.09a1,1,0,0,1-1.24-.15l-.08-.08h0a1,1,0,0,1-.43,1,1,1,0,0,1-1.28-.15l-.08-.07h0a1,1,0,0,1-.43,1,1,1,0,0,1-1.28-.14l-.08-.07h0a1,1,0,0,1-1.57,1l.1-.17a1.82,1.82,0,0,0-.25-2.2,1.77,1.77,0,0,0-1-.49,13.07,13.07,0,0,1-2.25-2,1.74,1.74,0,0,0-.7-1,1.85,1.85,0,0,0-2.4.39l-.64.79h-3.2Zm5.69-.46a.88.88,0,0,0-1.12.22l-.67.82a.84.84,0,0,0,.12,1.19h0l.1.08a.84.84,0,0,0,.94.07,0,0,0,0,1,.06,0,.85.85,0,0,0,.31.83l.08.07a.85.85,0,0,0,.91.09,0,0,0,0,1,.06,0,.85.85,0,0,0,.32.76l.06,0a.86.86,0,0,0,.92.09,0,0,0,0,1,.07,0v0a.85.85,0,0,0,.31.54l0,0a.86.86,0,0,0,1.21-.15l.07-.1.12-.22a.89.89,0,0,0-.15-1.11.86.86,0,0,0-.93-.15,0,0,0,0,1,0,0h0a.85.85,0,0,0-1.16-.84c-.13,0-.1-.09-.1-.09a.85.85,0,0,0-1.19-1.07c-.1,0-.08-.07-.08-.07A.84.84,0,0,0,282.83,229.61Zm17.51-5.77-.08-.25h0a1.18,1.18,0,0,0-1.12-.8h-2.78a3,3,0,0,1-1.07-.2l-5.22-2a3.26,3.26,0,0,0-3.14.45l-3.28,2.49a.62.62,0,0,0,.16,1,2.06,2.06,0,0,0,1.83-.09l2.79-1.56a.51.51,0,0,1,.63.12l6.09,7.4a.15.15,0,0,0,.22,0h0l.25-.21a.71.71,0,0,1,.45-.16h2a10.06,10.06,0,0,1-15.79,5.37l.56-.69a.38.38,0,0,0-.25-.62l-3.86-.39a.38.38,0,0,0-.4.51l1.19,3.69a.38.38,0,0,0,.65.1l.57-.7a12.51,12.51,0,0,0,19.62-13.49Z" fill="#00aeef"/><g id="_Group_16" data-name="&lt;Group&gt;"><g id="_Group_17" data-name="&lt;Group&gt;"><g id="_Group_18" data-name="&lt;Group&gt;"><path id="_Compound_Path_11" data-name="&lt;Compound Path&gt;" d="M80.52,236.58a9.15,9.15,0,1,1,9.15-9.15A9.16,9.16,0,0,1,80.52,236.58Zm0-17.47a8.32,8.32,0,1,0,8.32,8.32A8.32,8.32,0,0,0,80.52,219.11Z" fill="#00aeef"/></g><g id="_Group_19" data-name="&lt;Group&gt;"><path id="_Path_24" data-name="&lt;Path&gt;" d="M89.88,232.16a.42.42,0,0,1-.38-.59,9.73,9.73,0,0,0,.52-1.39,9.9,9.9,0,0,0,.39-2.76.42.42,0,0,1,.84,0,10.66,10.66,0,0,1-1,4.51A.42.42,0,0,1,89.88,232.16Z" fill="#00aeef"/></g><g id="_Group_20" data-name="&lt;Group&gt;"><path id="_Path_25" data-name="&lt;Path&gt;" d="M71,223.79a.41.41,0,0,1-.16,0,.42.42,0,0,1-.22-.55c.14-.32.29-.63.45-.93a10.8,10.8,0,0,1,.7-1.12.42.42,0,0,1,.68.49,9.86,9.86,0,0,0-.65,1c-.15.28-.29.57-.42.86A.42.42,0,0,1,71,223.79Z" fill="#00aeef"/></g><g id="_Group_21" data-name="&lt;Group&gt;"><path id="_Path_26" data-name="&lt;Path&gt;" d="M80.52,238.18" fill="#00aeef"/></g><g id="_Group_22" data-name="&lt;Group&gt;"><path id="_Path_27" data-name="&lt;Path&gt;" d="M90.09,223.94a.42.42,0,0,1-.39-.26l-.19-.44-.21-.43a.42.42,0,1,1,.74-.39l.23.47.21.47a.42.42,0,0,1-.39.58Z" fill="#00aeef"/></g><g id="_Group_23" data-name="&lt;Group&gt;"><path id="_Path_28" data-name="&lt;Path&gt;" d="M70.5,221.09a.42.42,0,0,1-.35-.65,12.52,12.52,0,0,1,5.5-4.53,12.35,12.35,0,0,1,2.35-.73,12.67,12.67,0,0,1,5,0,12.43,12.43,0,0,1,4.47,1.88.42.42,0,1,1-.47.69A11.6,11.6,0,0,0,82.87,216a11.84,11.84,0,0,0-4.7,0A11.62,11.62,0,0,0,74,217.76a11.73,11.73,0,0,0-3.15,3.15A.42.42,0,0,1,70.5,221.09Z" fill="#00aeef"/></g><g id="_Group_24" data-name="&lt;Group&gt;"><path id="_Path_29" data-name="&lt;Path&gt;" d="M72,236.39a.42.42,0,0,1-.3-.12,12.5,12.5,0,0,1-2.68-4,12.4,12.4,0,0,1-.73-2.35,12.62,12.62,0,0,1,0-5,.42.42,0,1,1,.82.17,11.66,11.66,0,0,0,3.18,10.6.42.42,0,0,1-.3.71Z" fill="#00aeef"/></g><g id="_Group_25" data-name="&lt;Group&gt;"><path id="_Path_30" data-name="&lt;Path&gt;" d="M80.52,239.93a12.57,12.57,0,0,1-2.52-.25,12.44,12.44,0,0,1-2.35-.73.42.42,0,1,1,.33-.77,11.64,11.64,0,0,0,2.19.68,11.84,11.84,0,0,0,4.7,0,11.64,11.64,0,0,0,2.19-.68.42.42,0,1,1,.33.77,12.44,12.44,0,0,1-2.35.73A12.57,12.57,0,0,1,80.52,239.93Z" fill="#00aeef"/></g><g id="_Group_26" data-name="&lt;Group&gt;"><path id="_Path_31" data-name="&lt;Path&gt;" d="M89.06,236.39a.42.42,0,0,1-.3-.71,11.68,11.68,0,0,0,2.5-3.71,11.64,11.64,0,0,0,.68-2.19,11.77,11.77,0,0,0,.24-2.35.42.42,0,0,1,.84,0,12.47,12.47,0,0,1-3.66,8.84A.42.42,0,0,1,89.06,236.39Z" fill="#00aeef"/></g><g id="_Group_27" data-name="&lt;Group&gt;"><path id="_Path_32" data-name="&lt;Path&gt;" d="M91.65,223.14a.42.42,0,0,1-.38-.26,11.66,11.66,0,0,0-1.08-2,.42.42,0,1,1,.69-.47A12.51,12.51,0,0,1,92,222.56a.42.42,0,0,1-.22.55A.41.41,0,0,1,91.65,223.14Z" fill="#00aeef"/></g><g id="_Group_28" data-name="&lt;Group&gt;"><path id="_Path_33" data-name="&lt;Path&gt;" d="M87.81,220.54a.42.42,0,0,1-.3-.12,9.88,9.88,0,0,0-3.15-2.12,10,10,0,0,0-7.7,0,9.88,9.88,0,0,0-3.15,2.12.42.42,0,0,1-.59-.59,10.7,10.7,0,0,1,3.41-2.3,10.81,10.81,0,0,1,8.35,0,10.7,10.7,0,0,1,3.41,2.3.42.42,0,0,1-.3.71Z" fill="#00aeef"/></g><g id="_Group_29" data-name="&lt;Group&gt;"><path id="_Path_34" data-name="&lt;Path&gt;" d="M76.5,237.33a.41.41,0,0,1-.16,0,10.72,10.72,0,0,1-6.55-9.89.42.42,0,0,1,.84,0,9.91,9.91,0,0,0,6,9.12.42.42,0,0,1-.16.8Z" fill="#00aeef"/></g><g id="_Group_30" data-name="&lt;Group&gt;"><path id="_Path_35" data-name="&lt;Path&gt;" d="M84.53,237.33a.42.42,0,0,1-.16-.8,9.87,9.87,0,0,0,3.15-2.12.42.42,0,1,1,.59.59,10.69,10.69,0,0,1-3.41,2.3A.41.41,0,0,1,84.53,237.33Z" fill="#00aeef"/></g><path id="_Compound_Path_12" data-name="&lt;Compound Path&gt;" d="M80.52,219.84a7.59,7.59,0,1,0,7.59,7.59A7.59,7.59,0,0,0,80.52,219.84Zm.08,1.34a1.27,1.27,0,1,1-1.36,1.28A1.29,1.29,0,0,1,80.6,221.18Zm2.11,11.71H78.47v-.75l.86-.19c0-.77,0-1.74,0-2.41v-.8c0-.88,0-1.38,0-2l-1-.14v-.62l3.34-1.07.27.18,0,2.32v2.16c0,.67,0,1.66,0,2.45l.8.16Z" fill="#00aeef"/></g></g><path id="_Compound_Path_13" data-name="&lt;Compound Path&gt;" d="M199.43,241.87a7.11,7.11,0,0,0-8.26-6.55h0a9,9,0,0,0-16.29,3.58h-.14a5.28,5.28,0,0,0-5.27,4.89,5.34,5.34,0,0,0,5.42,5.67h6.94v1a.52.52,0,0,0,.52.51h4.22a.52.52,0,0,0,.52-.51v-1h5.09A7.18,7.18,0,0,0,199.43,241.87ZM190,244.66h-2.94a.26.26,0,0,0-.26.26v5.59a.26.26,0,0,1-.26.26h-4.22a.26.26,0,0,1-.26-.26v-5.59a.26.26,0,0,0-.26-.26h-2.94a.26.26,0,0,1-.18-.44l5.57-5.57a.26.26,0,0,1,.36,0l5.57,5.57A.26.26,0,0,1,190,244.66Z" fill="#00aeef"/><line id="_Path_36" data-name="&lt;Path&gt;" x1="46.61" y1="133.04" x2="322.27" y2="133.04" fill="none" stroke="#ffc71e" stroke-linecap="round" stroke-linejoin="round" stroke-width="2"/><circle id="_Path_37" data-name="&lt;Path&gt;" cx="184.44" cy="129.97" r="49.21" fill="#ffc71e"/><g id="_Group_31" data-name="&lt;Group&gt;"><rect id="_Rectangle_9" data-name="&lt;Rectangle&gt;" x="154.98" y="120.33" width="58.91" height="34.61" fill="#a5bae0"/><rect id="_Rectangle_10" data-name="&lt;Rectangle&gt;" x="158.04" y="102.68" width="52.7" height="6.36" fill="#294d7b"/><g id="_Group_32" data-name="&lt;Group&gt;"><polygon id="_Path_38" data-name="&lt;Path&gt;" points="158.04 109.04 165.4 109.04 162.71 120.33 154.02 120.33 158.04 109.04" fill="#5688c7"/><polygon id="_Path_39" data-name="&lt;Path&gt;" points="165.4 109.04 172.75 109.04 171.4 120.33 162.71 120.33 165.4 109.04" fill="#fff"/><polygon id="_Path_40" data-name="&lt;Path&gt;" points="172.75 109.04 180.1 109.04 180.1 120.33 171.4 120.33 172.75 109.04" fill="#5688c7"/><rect id="_Path_41" data-name="&lt;Path&gt;" x="180.1" y="109.04" width="8.69" height="11.29" fill="#fff"/><polygon id="_Path_42" data-name="&lt;Path&gt;" points="188.79 109.04 196.14 109.04 197.48 120.33 188.79 120.33 188.79 109.04" fill="#5688c7"/><polygon id="_Path_43" data-name="&lt;Path&gt;" points="196.14 109.04 203.49 109.04 206.17 120.33 197.48 120.33 196.14 109.04" fill="#fff"/><polygon id="_Path_44" data-name="&lt;Path&gt;" points="203.49 109.04 210.84 109.04 214.86 120.33 206.17 120.33 203.49 109.04" fill="#5688c7"/><path id="_Path_45" data-name="&lt;Path&gt;" d="M206.17,123.84v-3.5h8.69v3.5a4.35,4.35,0,0,1-8.69,0Z" fill="#14426f"/><path id="_Path_46" data-name="&lt;Path&gt;" d="M197.48,123.84v-3.5h8.69v3.5a4.35,4.35,0,1,1-8.69,0Z" fill="#e6e7e8"/><path id="_Path_47" data-name="&lt;Path&gt;" d="M188.79,123.84v-3.5h8.69v3.5a4.35,4.35,0,0,1-8.69,0Z" fill="#14426f"/><path id="_Path_48" data-name="&lt;Path&gt;" d="M180.1,123.84v-3.5h8.69v3.5a4.35,4.35,0,0,1-8.69,0Z" fill="#e6e7e8"/><path id="_Path_49" data-name="&lt;Path&gt;" d="M171.4,123.84v-3.5h8.69v3.5a4.35,4.35,0,0,1-8.69,0Z" fill="#14426f"/><path id="_Path_50" data-name="&lt;Path&gt;" d="M162.71,123.84v-3.5h8.69v3.5a4.35,4.35,0,0,1-8.69,0Z" fill="#e6e7e8"/><path id="_Path_51" data-name="&lt;Path&gt;" d="M154,123.84v-3.5h8.69v3.5a4.35,4.35,0,0,1-8.69,0Z" fill="#14426f"/></g><rect id="_Rectangle_11" data-name="&lt;Rectangle&gt;" x="191.36" y="131.79" width="13.8" height="23.15" fill="#565759"/><rect id="_Rectangle_12" data-name="&lt;Rectangle&gt;" x="192.71" y="148.96" width="11.1" height="5.03" fill="#aba8a9"/><rect id="_Rectangle_13" data-name="&lt;Rectangle&gt;" x="192.71" y="133.04" width="11.1" height="15.06" fill="#f3f4f4"/><rect id="_Rectangle_14" data-name="&lt;Rectangle&gt;" x="159.71" y="131.79" width="24.73" height="13.31" fill="#565759"/><rect id="_Rectangle_15" data-name="&lt;Rectangle&gt;" x="160.97" y="133.04" width="22.22" height="10.81" fill="#f3f4f4"/><rect id="_Rectangle_16" data-name="&lt;Rectangle&gt;" x="152.84" y="154.94" width="63.19" height="2.32" fill="#555659"/></g><circle id="_Path_52" data-name="&lt;Path&gt;" cx="77.04" cy="114.71" r="5.67" fill="#ffc71e"/><circle id="_Path_53" data-name="&lt;Path&gt;" cx="124.91" cy="75.41" r="5.67" fill="#ffc71e"/><circle id="_Path_54" data-name="&lt;Path&gt;" cx="108.26" cy="64.44" r="10.98" fill="#ffc71e"/><circle id="_Path_55" data-name="&lt;Path&gt;" cx="229.53" cy="75.13" r="3.29" fill="#ffc71e"/><circle id="_Path_56" data-name="&lt;Path&gt;" cx="295.67" cy="110.37" r="7.69" fill="#ffc71e"/><circle id="_Path_57" data-name="&lt;Path&gt;" cx="322.09" cy="174.72" r="5.61" fill="#ffc71e"/><circle id="_Path_58" data-name="&lt;Path&gt;" cx="244.17" cy="189.61" r="11.6" fill="#ffc71e"/><circle id="_Path_59" data-name="&lt;Path&gt;" cx="160.6" cy="206.82" r="5.61" fill="#ffc71e"/><circle id="_Path_60" data-name="&lt;Path&gt;" cx="50.33" cy="164.87" r="4.23" fill="#ffc71e"/><g id="_Group_33" data-name="&lt;Group&gt;"><rect id="_Path_61" data-name="&lt;Path&gt;" x="330.93" y="131.75" width="6.96" height="16.22" rx="1" ry="1" fill="#00aeef"/><rect id="_Path_62" data-name="&lt;Path&gt;" x="341.34" y="135.55" width="6.96" height="12.43" rx="1" ry="1" fill="#00aeef"/><rect id="_Path_63" data-name="&lt;Path&gt;" x="351.74" y="126.76" width="6.96" height="21.21" rx="1" ry="1" fill="#00aeef"/><path id="_Path_64" data-name="&lt;Path&gt;" d="M334,127a1.72,1.72,0,0,0,1.52-.92l7.39,2.64s0,.06,0,.08a1.73,1.73,0,1,0,3.33-.67l8.17-6.75a1.71,1.71,0,0,0,.87.24,1.73,1.73,0,1,0-1.73-1.73,1.71,1.71,0,0,0,.18.76l-8.12,6.71a1.72,1.72,0,0,0-2.35.41L335.67,125A1.73,1.73,0,1,0,334,127Z" fill="#00aeef"/></g></g></g></g></svg>