<svg xmlns="http://www.w3.org/2000/svg" viewBox="0 0 90 90"><title>intro-cando-use</title><g id="Layer_2" data-name="Layer 2"><g id="Layer_1-2" data-name="Layer 1"><g id="_Group_" data-name="&lt;Group&gt;"><g id="_Group_2" data-name="&lt;Group&gt;"><circle id="_Path_" data-name="&lt;Path&gt;" cx="45" cy="45" r="45" fill="#00aeef"/><g id="_Group_3" data-name="&lt;Group&gt;"><circle id="_Path_2" data-name="&lt;Path&gt;" cx="45" cy="45" r="39.07" fill="none" stroke="#fff" stroke-dasharray="2 1"/></g></g><g id="_Group_4" data-name="&lt;Group&gt;"><g id="_Group_5" data-name="&lt;Group&gt;"><path id="_Compound_Path_" data-name="&lt;Compound Path&gt;" d="M31.94,44.65V42.48h3.8v2.17Zm5.65,0V42.47h3.8v2.17Zm5.65,0V42.46H47v2.17Zm5.65,0V42.46h3.8v2.17Zm5.65,0V42.45h3.8v2.17Zm5.65,0V42.44H64v2.17Zm5.65,0V42.43H66V44.6Z" fill="#fff"/></g><g id="_Group_6" data-name="&lt;Group&gt;"><path id="_Compound_Path_2" data-name="&lt;Compound Path&gt;" d="M49.63,44.29,48.1,42.75l2-2,1.53,1.54ZM53,41l-1.53-1.54,2.7-2.68,1.53,1.54Zm4-4-1.53-1.54,2.7-2.68,1.53,1.54Z" fill="#fff"/></g><g id="_Group_7" data-name="&lt;Group&gt;"><path id="_Compound_Path_3" data-name="&lt;Compound Path&gt;" d="M48.21,44.17,46.32,42.3l1.53-1.54,1.89,1.88ZM45,41l-2.7-2.68,1.53-1.54,2.7,2.68Zm-4-4-2.7-2.68,1.53-1.54,2.7,2.68Z" fill="#fff"/></g><g id="_Group_8" data-name="&lt;Group&gt;"><path id="_Compound_Path_4" data-name="&lt;Compound Path&gt;" d="M47.89,41.72v-3.8h2.17v3.8Zm0-5.65v-3.8h2.17v3.8Zm0-5.65v-3.8h2.17v3.8Z" fill="#fff"/></g><g id="_Group_9" data-name="&lt;Group&gt;"><path id="_Path_3" data-name="&lt;Path&gt;" d="M56.75,43.52a7.89,7.89,0,1,1-7.89-7.85,7.87,7.87,0,0,1,7.89,7.85" fill="#fff"/></g><g id="_Group_10" data-name="&lt;Group&gt;"><path id="_Compound_Path_5" data-name="&lt;Compound Path&gt;" d="M48.86,49.29A5.81,5.81,0,0,1,45,47.85l.72-.82a4.73,4.73,0,0,0,3.12,1.18Zm1-.09-.19-1.07a4.72,4.72,0,0,0,2.87-1.7l.85.68A5.81,5.81,0,0,1,49.87,49.21Zm-6.11-2.94a5.75,5.75,0,0,1-.55-4.07l1.06.25a4.67,4.67,0,0,0,.44,3.3Zm10.62-.93-1-.34a4.67,4.67,0,0,0-.15-3.33l1-.43a5.75,5.75,0,0,1,.18,4.1Zm-9.45-4.4-.9-.6a5.81,5.81,0,0,1,3.33-2.39l.28,1A4.73,4.73,0,0,0,44.93,40.93Zm7.36-.64a4.72,4.72,0,0,0-3-1.45l.09-1.08a5.81,5.81,0,0,1,3.7,1.78Z" fill="#00aeef"/></g><g id="_Group_11" data-name="&lt;Group&gt;"><path id="_Path_4" data-name="&lt;Path&gt;" d="M48.86,46.66A3.14,3.14,0,1,1,52,43.52a3.15,3.15,0,0,1-3.16,3.14" fill="#00aeef"/></g><g id="_Group_12" data-name="&lt;Group&gt;"><path id="_Path_5" data-name="&lt;Path&gt;" d="M31.93,43.57a4.37,4.37,0,1,1-4.37-4.34,4.35,4.35,0,0,1,4.37,4.34" fill="#fcfdfc"/></g><g id="_Group_13" data-name="&lt;Group&gt;"><path id="_Path_6" data-name="&lt;Path&gt;" d="M49,17.93a4.35,4.35,0,0,1,4.36,4.34" fill="#fcfdfc"/></g><g id="_Group_14" data-name="&lt;Group&gt;"><path id="_Path_7" data-name="&lt;Path&gt;" d="M53.33,22.27A4.37,4.37,0,1,1,49,17.93" fill="#fcfdfc"/></g><g id="_Group_15" data-name="&lt;Group&gt;"><path id="_Path_8" data-name="&lt;Path&gt;" d="M74.75,43.52a4.37,4.37,0,1,1-4.37-4.34,4.35,4.35,0,0,1,4.37,4.34" fill="#fcfdfc"/></g><g id="_Group_16" data-name="&lt;Group&gt;"><path id="_Path_9" data-name="&lt;Path&gt;" d="M64.17,31.5a3,3,0,1,1-3-3,3,3,0,0,1,3,3" fill="#fcfdfc"/></g><g id="_Group_17" data-name="&lt;Group&gt;"><path id="_Path_10" data-name="&lt;Path&gt;" d="M39.88,31.5a3,3,0,1,1-3-3,3,3,0,0,1,3,3" fill="#fcfdfc"/></g><g id="_Group_18" data-name="&lt;Group&gt;"><path id="_Path_11" data-name="&lt;Path&gt;" d="M35.72,60.39a2.13,2.13,0,1,1-2.13-2.12,2.12,2.12,0,0,1,2.13,2.12" fill="#fff"/></g><g id="_Group_19" data-name="&lt;Group&gt;"><path id="_Path_12" data-name="&lt;Path&gt;" d="M68.07,53.57a1.45,1.45,0,1,1-1.45-1.44,1.44,1.44,0,0,1,1.45,1.44" fill="#fff"/></g><g id="_Group_20" data-name="&lt;Group&gt;"><path id="_Path_13" data-name="&lt;Path&gt;" d="M59,67.88l0-1.12a4.4,4.4,0,0,0,2.85-4.31c0-3.46.57-7.07-.61-9a1.62,1.62,0,0,0-2.9.46s-1.4-3.7-3.7-.48c0,0-1.54-3.73-4.08-.41,0,0,.12-7.38-.38-9.78a1.77,1.77,0,0,0-2-1.52c-1.38.2-1.44,1.47-1.55,3.67s.46,12.42.46,12.42a15.07,15.07,0,0,1-2.08-3c-.54-1.26-4.57-1.1-3.49.77s4.87,9.08,6.33,10.64L50,67v.86Z" fill="#fff" fill-rule="evenodd"/></g><g id="_Group_21" data-name="&lt;Group&gt;"><path id="_Path_14" data-name="&lt;Path&gt;" d="M42,54.21s1,.38,1.25.95.81,1.48.94,1.76-.49,1.46-1.62.52c0,0-2.22-2.66-.58-3.22" fill="#fff" fill-rule="evenodd"/></g><g id="_Group_22" data-name="&lt;Group&gt;"><path id="_Path_15" data-name="&lt;Path&gt;" d="M50.13,43.58a1.62,1.62,0,1,1-1.79-1.65,1.72,1.72,0,0,1,1.79,1.65" fill="#fff" fill-rule="evenodd"/></g><g id="_Group_23" data-name="&lt;Group&gt;"><rect id="_Path_16" data-name="&lt;Path&gt;" x="46.2" y="67.88" width="16.45" height="6.55" fill="#fff"/></g><g id="_Group_24" data-name="&lt;Group&gt;"><g id="_Group_25" data-name="&lt;Group&gt;"><g id="_Group_26" data-name="&lt;Group&gt;"><g id="_Group_27" data-name="&lt;Group&gt;"><path id="_Path_17" data-name="&lt;Path&gt;" d="M30,21.77h2.87a.47.47,0,0,1,.48.6l-1.06,4a.88.88,0,0,1-.87.66H25.74a.5.5,0,0,1-.5-.65c.35-1.3.69-2.61,1-3.91a.89.89,0,0,1,.92-.72H30Z" fill="#fff"/></g><g id="_Group_28" data-name="&lt;Group&gt;"><path id="_Path_18" data-name="&lt;Path&gt;" d="M25.1,25.94V25.2q0-2.6,0-5.19c0-.25.12-.34.36-.34h2a.45.45,0,0,1,.46.31c.06.14.12.29.17.44s.06.09.13.09h3.12a.66.66,0,0,1,.71.72v.31H27.12a1.07,1.07,0,0,0-1.11.85c-.33,1.24-.88,3.56-.89,3.58Z" fill="#fff"/></g></g><g id="_Group_29" data-name="&lt;Group&gt;" opacity="0.1"><path id="_Path_19" data-name="&lt;Path&gt;" d="M30.61,23.75a6.88,6.88,0,0,0-5.16,1.92l-.2.73a.5.5,0,0,0,.5.65h5.67a.88.88,0,0,0,.87-.66L32.91,24A9,9,0,0,0,30.61,23.75Z" fill="#fff"/></g></g><g id="_Group_30" data-name="&lt;Group&gt;" opacity="0.12"><path id="_Path_20" data-name="&lt;Path&gt;" d="M25.1,25.94V25.2q0-2.6,0-5.19c0-.25.12-.34.36-.34h2a.45.45,0,0,1,.46.31c.06.14.12.29.17.44s.06.09.13.09h3.12a.66.66,0,0,1,.71.72v.31H27.12a1.07,1.07,0,0,0-1.11.85c-.33,1.24-.88,3.56-.89,3.58Z" fill="#fff"/></g></g><g id="_Group_31" data-name="&lt;Group&gt;"><path id="_Compound_Path_6" data-name="&lt;Compound Path&gt;" d="M15.8,36.19a2.14,2.14,0,0,0,3,.14l3.46-4.95c.87-.79-.76-2.22-1.63-1.43l-4.7,3.21a2.14,2.14,0,0,0-.15,3m6.54-12.8a6.08,6.08,0,1,1,6.08,6.08,6.09,6.09,0,0,1-6.08-6.08m-1.74,0a7.82,7.82,0,1,0,7.82-7.82,7.82,7.82,0,0,0-7.82,7.82" fill="#fff"/></g><g id="_Group_32" data-name="&lt;Group&gt;"><path id="_Path_21" data-name="&lt;Path&gt;" d="M67.37,21.7a3.05,3.05,0,1,1-3.05-3,3,3,0,0,1,3.05,3" fill="#fff"/></g><g id="_Group_33" data-name="&lt;Group&gt;"><path id="_Path_22" data-name="&lt;Path&gt;" d="M73.09,30.54A1.58,1.58,0,1,1,71.51,29a1.57,1.57,0,0,1,1.58,1.57" fill="#fff"/></g></g></g></g></g></svg>