<?xml version="1.0" encoding="utf-8"?>
<!-- Generator: Adobe Illustrator 19.0.0, SVG Export Plug-In . SVG Version: 6.00 Build 0)  -->
<svg version="1.1" baseProfile="basic" id="Layer_1"
	 xmlns="http://www.w3.org/2000/svg" xmlns:xlink="http://www.w3.org/1999/xlink" x="0px" y="0px" viewBox="0 0 91 91"
	 xml:space="preserve">
<g id="XMLID_28_">
	<circle id="XMLID_152_" fill="#00AEEF" cx="42.7" cy="45.5" r="1.7"/>
	<circle id="XMLID_154_" fill="#00AEEF" cx="55.9" cy="29" r="1.3"/>
	<path id="XMLID_160_" fill="#00AEEF" d="M54.3,33.9c-0.7-0.7-1.7-0.7-2.4,0l-5.3,5.3c-2.4-1.5-5.4-1.5-7.7,0l-5.3-5.3
		c-0.7-0.7-1.7-0.7-2.4,0c-0.7,0.7-0.7,1.7,0,2.4l5.3,5.3C35,44,35,47,36.5,49.4l-5.3,5.3c-0.7,0.7-0.7,1.7,0,2.4
		c0.7,0.7,1.7,0.7,2.4,0l5.3-5.3c2.4,1.5,5.4,1.5,7.7,0l5.3,5.3c0.7,0.7,1.7,0.7,2.4,0c0.7-0.7,0.7-1.7,0-2.4L49,49.4
		c1.5-2.4,1.5-5.4,0-7.7l5.3-5.3C54.9,35.7,54.9,34.6,54.3,33.9z M45.6,48.3c-1.6,1.6-4.1,1.6-5.6,0s-1.6-4.1,0-5.6s4.1-1.6,5.6,0
		C47.1,44.2,47.1,46.8,45.6,48.3z"/>
	<path id="XMLID_161_" fill="#00AEEF" d="M63.6,37c-0.7,0-1.3,0.6-1.3,1.3v14.5c0,0.7,0.6,1.3,1.3,1.3c0.7,0,1.3-0.6,1.3-1.3V38.2
		C64.9,37.5,64.3,37,63.6,37z"/>
	<circle id="XMLID_169_" fill="#00AEEF" cx="59.8" cy="29" r="1.3"/>
	<path id="XMLID_172_" fill="#00AEEF" d="M45.5,0.5c-24.9,0-45,20.1-45,45c0,24.9,20.1,45,45,45c24.9,0,45-20.1,45-45
		C90.5,20.6,70.4,0.5,45.5,0.5z M70.4,63.8c0,0.9-0.8,1.7-1.7,1.7h-42c-0.9,0-1.7-0.8-1.7-1.7v-6.3h-3.6c-0.5,0-0.8-0.4-0.8-0.8
		v-6.8c0-0.5,0.4-0.8,0.8-0.8H25V42h-3.6c-0.5,0-0.8-0.4-0.8-0.8v-6.8c0-0.5,0.4-0.8,0.8-0.8H25v-6.3c0-0.9,0.8-1.7,1.7-1.7h42
		c0.9,0,1.7,0.8,1.7,1.7V63.8z"/>
	<circle id="XMLID_173_" fill="#00AEEF" cx="63.6" cy="29" r="1.3"/>
</g>
<g id="XMLID_1769_">
	<path id="XMLID_69_" fill="#FFFFFF" d="M45.5,85.1l-0.5,0l0-1l0.5,0c0.5,0,1,0,1.5,0l0,1C46.5,85.1,46,85.1,45.5,85.1z M44,85
		c-0.7,0-1.3-0.1-2-0.1l0.1-1c0.7,0.1,1.3,0.1,2,0.1L44,85z M48.1,85L48,84c0.7,0,1.3-0.1,2-0.2l0.1,1C49.4,84.9,48.7,84.9,48.1,85z
		 M41,84.8c-0.7-0.1-1.3-0.2-2-0.3l0.2-1c0.6,0.1,1.3,0.2,1.9,0.3L41,84.8z M51.1,84.7l-0.1-1c0.7-0.1,1.3-0.2,1.9-0.3l0.2,1
		C52.4,84.5,51.7,84.6,51.1,84.7z M38,84.4c-0.7-0.1-1.3-0.3-2-0.4l0.2-1c0.6,0.2,1.3,0.3,1.9,0.4L38,84.4z M54.1,84.1l-0.2-1
		c0.6-0.1,1.3-0.3,1.9-0.5l0.3,1C55.4,83.8,54.7,84,54.1,84.1z M35.1,83.7c-0.7-0.2-1.3-0.4-1.9-0.6l0.3-0.9
		c0.6,0.2,1.2,0.4,1.9,0.6L35.1,83.7z M57,83.4l-0.3-1c0.6-0.2,1.3-0.4,1.9-0.6l0.3,0.9C58.3,83,57.6,83.2,57,83.4z M32.2,82.8
		c-0.6-0.2-1.3-0.5-1.9-0.7l0.4-0.9c0.6,0.3,1.2,0.5,1.8,0.7L32.2,82.8z M59.9,82.4l-0.4-0.9c0.6-0.2,1.2-0.5,1.8-0.8l0.4,0.9
		C61.1,81.9,60.5,82.1,59.9,82.4z M29.3,81.6c-0.6-0.3-1.2-0.6-1.8-0.9l0.5-0.9c0.6,0.3,1.2,0.6,1.8,0.9L29.3,81.6z M62.6,81.2
		l-0.4-0.9c0.6-0.3,1.2-0.6,1.8-0.9l0.5,0.9C63.8,80.6,63.2,80.9,62.6,81.2z M26.6,80.3c-0.6-0.3-1.2-0.7-1.8-1l0.5-0.9
		c0.6,0.3,1.1,0.7,1.7,1L26.6,80.3z M65.3,79.8l-0.5-0.9c0.6-0.3,1.1-0.7,1.7-1l0.5,0.8C66.5,79.1,65.9,79.4,65.3,79.8z M24,78.7
		c-0.6-0.4-1.1-0.7-1.7-1.1l0.6-0.8c0.5,0.4,1.1,0.8,1.6,1.1L24,78.7z M67.9,78.2l-0.6-0.8c0.5-0.4,1.1-0.8,1.6-1.2l0.6,0.8
		C69,77.4,68.4,77.8,67.9,78.2z M21.5,77c-0.5-0.4-1.1-0.8-1.6-1.3l0.6-0.8c0.5,0.4,1,0.8,1.5,1.2L21.5,77z M70.3,76.3l-0.6-0.8
		c0.5-0.4,1-0.8,1.5-1.3l0.7,0.7C71.3,75.5,70.8,75.9,70.3,76.3z M19.2,75.1c-0.5-0.4-1-0.9-1.5-1.4l0.7-0.7
		c0.5,0.5,0.9,0.9,1.4,1.3L19.2,75.1z M72.6,74.4l-0.7-0.7c0.5-0.4,0.9-0.9,1.4-1.4l0.7,0.7C73.5,73.4,73.1,73.9,72.6,74.4z M17,73
		c-0.5-0.5-0.9-1-1.4-1.5l0.8-0.7c0.4,0.5,0.9,1,1.3,1.5L17,73z M74.7,72.2L74,71.5c0.4-0.5,0.9-1,1.3-1.5l0.8,0.6
		C75.6,71.2,75.2,71.7,74.7,72.2z M15,70.7c-0.4-0.5-0.8-1-1.2-1.6l0.8-0.6c0.4,0.5,0.8,1,1.2,1.5L15,70.7z M76.7,69.9l-0.8-0.6
		c0.4-0.5,0.8-1,1.2-1.6l0.8,0.6C77.5,68.8,77.1,69.4,76.7,69.9z M13.2,68.3c-0.4-0.5-0.8-1.1-1.1-1.7l0.8-0.5
		c0.4,0.6,0.7,1.1,1.1,1.6L13.2,68.3z M78.4,67.4l-0.8-0.6c0.4-0.5,0.7-1.1,1.1-1.7l0.9,0.5C79.2,66.3,78.8,66.9,78.4,67.4z
		 M11.5,65.8c-0.3-0.6-0.7-1.2-1-1.8l0.9-0.5c0.3,0.6,0.6,1.2,1,1.7L11.5,65.8z M80,64.9l-0.9-0.5c0.3-0.6,0.6-1.2,0.9-1.7l0.9,0.4
		C80.7,63.7,80.4,64.3,80,64.9z M10.1,63.1c-0.3-0.6-0.6-1.2-0.9-1.8l0.9-0.4c0.3,0.6,0.5,1.2,0.8,1.8L10.1,63.1z M81.4,62.2
		l-0.9-0.4c0.3-0.6,0.5-1.2,0.8-1.8l0.9,0.4C82,60.9,81.7,61.5,81.4,62.2z M8.8,60.4c-0.3-0.6-0.5-1.3-0.7-1.9L9,58.1
		c0.2,0.6,0.4,1.2,0.7,1.8L8.8,60.4z M82.6,59.3L81.6,59c0.2-0.6,0.4-1.2,0.6-1.9l1,0.3C83,58.1,82.8,58.7,82.6,59.3z M7.8,57.5
		c-0.2-0.6-0.4-1.3-0.6-1.9l1-0.3c0.2,0.6,0.3,1.3,0.5,1.9L7.8,57.5z M83.5,56.5l-1-0.3c0.2-0.6,0.3-1.3,0.5-1.9l1,0.2
		C83.9,55.2,83.7,55.8,83.5,56.5z M7,54.6c-0.2-0.7-0.3-1.3-0.4-2l1-0.2c0.1,0.6,0.3,1.3,0.4,1.9L7,54.6z M84.3,53.5l-1-0.2
		c0.1-0.6,0.2-1.3,0.3-1.9l1,0.2C84.5,52.2,84.4,52.9,84.3,53.5z M6.4,51.6c-0.1-0.7-0.2-1.3-0.3-2l1-0.1c0.1,0.7,0.2,1.3,0.3,2
		L6.4,51.6z M84.8,50.5l-1-0.1c0.1-0.7,0.1-1.3,0.2-2l1,0.1C84.9,49.2,84.8,49.9,84.8,50.5z M6,48.6c-0.1-0.7-0.1-1.3-0.1-2l1,0
		c0,0.7,0.1,1.3,0.1,2L6,48.6z M85,47.5l-1-0.1c0-0.7,0-1.3,0-2v-0.1h1v0.1C85.1,46.2,85.1,46.9,85,47.5z M5.9,45.6L5.9,45.6
		c0-0.7,0-1.4,0-2l1,0c0,0.6,0,1.3,0,1.9L5.9,45.6z M84.1,44.4c0-0.7-0.1-1.3-0.1-2l1-0.1c0.1,0.7,0.1,1.3,0.1,2L84.1,44.4z M7,42.6
		l-1-0.1c0-0.7,0.1-1.3,0.2-2l1,0.1C7.1,41.3,7.1,42,7,42.6z M83.9,41.4c-0.1-0.7-0.2-1.3-0.3-2l1-0.2c0.1,0.7,0.2,1.3,0.3,2
		L83.9,41.4z M7.4,39.7l-1-0.1c0.1-0.7,0.2-1.3,0.4-2l1,0.2C7.6,38.4,7.5,39,7.4,39.7z M83.4,38.5c-0.1-0.6-0.3-1.3-0.4-1.9l1-0.2
		c0.2,0.7,0.3,1.3,0.4,2L83.4,38.5z M7.9,36.8l-1-0.2c0.2-0.7,0.3-1.3,0.5-2l1,0.3C8.2,35.5,8.1,36.1,7.9,36.8z M82.8,35.6
		c-0.2-0.6-0.4-1.3-0.6-1.9l1-0.3c0.2,0.6,0.4,1.3,0.6,1.9L82.8,35.6z M8.7,33.9l-1-0.3c0.2-0.6,0.4-1.3,0.7-1.9l0.9,0.3
		C9.1,32.7,8.9,33.3,8.7,33.9z M81.9,32.8c-0.2-0.6-0.4-1.2-0.7-1.8l0.9-0.4c0.3,0.6,0.5,1.3,0.7,1.9L81.9,32.8z M9.7,31.1l-0.9-0.4
		c0.3-0.6,0.5-1.2,0.8-1.9l0.9,0.4C10.2,29.9,9.9,30.5,9.7,31.1z M80.9,30c-0.3-0.6-0.5-1.2-0.8-1.8l0.9-0.4
		c0.3,0.6,0.6,1.2,0.9,1.8L80.9,30z M10.9,28.4L10,28c0.3-0.6,0.6-1.2,0.9-1.8l0.9,0.5C11.5,27.3,11.2,27.9,10.9,28.4z M79.6,27.4
		c-0.3-0.6-0.6-1.2-1-1.7l0.9-0.5c0.3,0.6,0.7,1.2,1,1.8L79.6,27.4z M12.3,25.8l-0.9-0.5c0.3-0.6,0.7-1.2,1.1-1.7l0.8,0.6
		C13,24.7,12.6,25.3,12.3,25.8z M78.1,24.8c-0.4-0.6-0.7-1.1-1.1-1.6l0.8-0.6c0.4,0.5,0.8,1.1,1.1,1.7L78.1,24.8z M13.9,23.4
		l-0.8-0.6c0.4-0.6,0.8-1.1,1.2-1.6l0.8,0.6C14.7,22.3,14.3,22.8,13.9,23.4z M76.4,22.4c-0.4-0.5-0.8-1-1.2-1.5l0.8-0.6
		c0.4,0.5,0.8,1,1.2,1.6L76.4,22.4z M15.7,21l-0.8-0.6c0.4-0.5,0.9-1,1.3-1.5l0.7,0.7C16.5,20,16.1,20.5,15.7,21z M74.5,20.1
		c-0.4-0.5-0.9-1-1.3-1.4l0.7-0.7c0.5,0.5,0.9,1,1.4,1.5L74.5,20.1z M17.7,18.8l-0.7-0.7c0.5-0.5,0.9-1,1.4-1.4l0.7,0.7
		C18.6,17.9,18.1,18.3,17.7,18.8z M72.5,18c-0.5-0.5-0.9-0.9-1.4-1.3l0.7-0.7c0.5,0.4,1,0.9,1.5,1.4L72.5,18z M19.8,16.8L19.1,16
		c0.5-0.4,1-0.9,1.5-1.3l0.6,0.8C20.8,15.9,20.3,16.3,19.8,16.8z M70.3,16c-0.5-0.4-1-0.8-1.5-1.2l0.6-0.8c0.5,0.4,1.1,0.8,1.6,1.3
		L70.3,16z M22.1,14.9l-0.6-0.8c0.5-0.4,1.1-0.8,1.6-1.2l0.6,0.8C23.1,14.1,22.6,14.5,22.1,14.9z M68,14.2c-0.5-0.4-1.1-0.8-1.6-1.1
		l0.5-0.8c0.6,0.4,1.1,0.7,1.7,1.1L68,14.2z M24.5,13.2l-0.5-0.8c0.6-0.4,1.1-0.7,1.7-1.1l0.5,0.9C25.6,12.5,25,12.8,24.5,13.2z
		 M65.5,12.5c-0.6-0.3-1.1-0.7-1.7-1l0.5-0.9c0.6,0.3,1.2,0.7,1.8,1L65.5,12.5z M27,11.6l-0.5-0.9c0.6-0.3,1.2-0.6,1.8-0.9l0.4,0.9
		C28.2,11,27.6,11.3,27,11.6z M63,11.1c-0.6-0.3-1.2-0.6-1.8-0.8l0.4-0.9c0.6,0.3,1.2,0.6,1.8,0.9L63,11.1z M29.6,10.3l-0.4-0.9
		c0.6-0.3,1.2-0.5,1.9-0.8l0.4,0.9C30.8,9.8,30.2,10.1,29.6,10.3z M60.3,9.9c-0.6-0.3-1.2-0.5-1.8-0.7l0.3-0.9
		c0.6,0.2,1.3,0.5,1.9,0.7L60.3,9.9z M32.4,9.2L32,8.3c0.6-0.2,1.3-0.4,1.9-0.6l0.3,1C33.6,8.8,33,9,32.4,9.2z M57.5,8.8
		c-0.6-0.2-1.3-0.4-1.9-0.6l0.3-1c0.7,0.2,1.3,0.4,1.9,0.6L57.5,8.8z M35.2,8.3l-0.3-1c0.6-0.2,1.3-0.3,2-0.5l0.2,1
		C36.4,8,35.8,8.2,35.2,8.3z M54.7,8c-0.6-0.2-1.3-0.3-1.9-0.4l0.2-1c0.7,0.1,1.3,0.3,2,0.4L54.7,8z M38,7.6l-0.2-1
		c0.7-0.1,1.3-0.2,2-0.3l0.1,1C39.3,7.4,38.7,7.5,38,7.6z M51.8,7.4c-0.6-0.1-1.3-0.2-2-0.3l0.1-1c0.7,0.1,1.3,0.2,2,0.3L51.8,7.4z
		 M41,7.2l-0.1-1c0.7-0.1,1.3-0.1,2-0.2l0.1,1C42.3,7.1,41.6,7.1,41,7.2z M48.8,7.1C48.2,7,47.5,7,46.9,7l0-1c0.7,0,1.3,0.1,2,0.1
		L48.8,7.1z M43.9,7l0-1c0.5,0,1.1,0,1.6,0l0.4,0l0,1l-0.4,0C45,6.9,44.4,6.9,43.9,7z"/>
</g>
<rect id="_x3C_Slice_x3E_" x="0.5" y="0.3" fill="none" width="91" height="91"/>
</svg>
