<svg xmlns="http://www.w3.org/2000/svg" viewBox="0 0 543.96 223.85"><title>intro-business-interactions</title><g id="Layer_2" data-name="Layer 2"><g id="Layer_1-2" data-name="Layer 1"><rect id="_Rectangle_" data-name="&lt;Rectangle&gt;" x="0.35" y="0.35" width="543.26" height="223.15" fill="none" stroke="#a7a9ac" stroke-miterlimit="10" stroke-width="0.7"/><g id="_Group_" data-name="&lt;Group&gt;"><path id="_Path_" data-name="&lt;Path&gt;" d="M280.57,128.83a12,12,0,0,0-1.94.16h0a15.07,15.07,0,0,0-27.24,6h-.23a8.83,8.83,0,0,0-8.81,8.18,8.93,8.93,0,0,0,9.06,9.49h28.91a11.9,11.9,0,1,0,.28-23.79Z" fill="#eff9fe"/><path id="_Path_2" data-name="&lt;Path&gt;" d="M263.85,154.53a.16.16,0,0,1-.16-.16V145a.7.7,0,0,0-.7-.7h-4.92a.16.16,0,0,1-.11-.27l9.31-9.31a.16.16,0,0,1,.22,0l9.31,9.31a.16.16,0,0,1-.11.27h-4.92a.7.7,0,0,0-.7.7v9.34a.16.16,0,0,1-.16.16Z" fill="#fff"/><line id="_Path_3" data-name="&lt;Path&gt;" x1="351.15" y1="24.98" x2="351.15" y2="93.92" fill="none" stroke="#a7a9ac" stroke-miterlimit="10" stroke-width="0.7"/><line id="_Path_4" data-name="&lt;Path&gt;" x1="184.7" y1="24.98" x2="184.7" y2="93.92" fill="none" stroke="#a7a9ac" stroke-miterlimit="10" stroke-width="0.7"/><line id="_Path_5" data-name="&lt;Path&gt;" x1="351.15" y1="122.87" x2="351.15" y2="191.81" fill="none" stroke="#a7a9ac" stroke-miterlimit="10" stroke-width="0.7"/><line id="_Path_6" data-name="&lt;Path&gt;" x1="184.7" y1="122.87" x2="184.7" y2="191.81" fill="none" stroke="#a7a9ac" stroke-miterlimit="10" stroke-width="0.7"/><line id="_Path_7" data-name="&lt;Path&gt;" x1="20.15" y1="104.29" x2="523.81" y2="104.29" fill="none" stroke="#a7a9ac" stroke-miterlimit="10" stroke-width="0.7"/><g id="_Group_2" data-name="&lt;Group&gt;"><path d="M47,85.42H42.78L41.9,88h-2L44,77.08h1.69L49.85,88h-2ZM43.31,83.9h3.15l-1.58-4.51Z" fill="#00aeef"/><path d="M50.57,83.85a6,6,0,0,1,.22-1.68,3.94,3.94,0,0,1,.63-1.31,2.82,2.82,0,0,1,2.33-1.14,2.84,2.84,0,0,1,1.18.23,2.61,2.61,0,0,1,.89.66V76.48h1.81V88H56l-.09-.84a2.71,2.71,0,0,1-.92.73,2.85,2.85,0,0,1-1.25.26,2.78,2.78,0,0,1-1.32-.31,3,3,0,0,1-1-.85,4.06,4.06,0,0,1-.63-1.3A5.68,5.68,0,0,1,50.57,84Zm1.81.16a4.85,4.85,0,0,0,.1,1,2.61,2.61,0,0,0,.32.83,1.65,1.65,0,0,0,.56.56,1.6,1.6,0,0,0,.84.21,1.72,1.72,0,0,0,1-.27,2,2,0,0,0,.62-.72V82.18a1.85,1.85,0,0,0-.63-.71,1.75,1.75,0,0,0-1-.26,1.6,1.6,0,0,0-.84.21,1.68,1.68,0,0,0-.57.57,2.69,2.69,0,0,0-.32.84,4.85,4.85,0,0,0-.1,1Z" fill="#00aeef"/><path d="M62.39,85.65l1.71-5.78H66L63.17,88H61.6l-2.82-8.08h1.88Z" fill="#00aeef"/><path d="M70.56,88.1A4.15,4.15,0,0,1,69,87.8,3.54,3.54,0,0,1,67.73,87,3.59,3.59,0,0,1,67,85.74a4.37,4.37,0,0,1-.27-1.55v-.3A5,5,0,0,1,67,82.17a3.94,3.94,0,0,1,.78-1.31A3.42,3.42,0,0,1,68.92,80a3.52,3.52,0,0,1,1.44-.29,3.67,3.67,0,0,1,1.53.29,2.88,2.88,0,0,1,1.08.82,3.55,3.55,0,0,1,.63,1.26,5.84,5.84,0,0,1,.21,1.6v.78H68.52a2.9,2.9,0,0,0,.2.87,2.11,2.11,0,0,0,.44.68,2,2,0,0,0,.65.45,2.11,2.11,0,0,0,.85.16,2.42,2.42,0,0,0,1.17-.27,2.73,2.73,0,0,0,.86-.74l1,.93a3.33,3.33,0,0,1-.48.56,3.29,3.29,0,0,1-.67.49,3.87,3.87,0,0,1-.87.34A4.2,4.2,0,0,1,70.56,88.1Zm-.22-6.92a1.53,1.53,0,0,0-1.21.52,2.71,2.71,0,0,0-.59,1.46H72V83a3.27,3.27,0,0,0-.12-.69,1.75,1.75,0,0,0-.29-.59,1.39,1.39,0,0,0-.5-.41A1.7,1.7,0,0,0,70.35,81.18Z" fill="#00aeef"/><path d="M79.44,81.53l-.36,0-.38,0a2,2,0,0,0-1.07.25,1.56,1.56,0,0,0-.61.7V88H75.21V79.87h1.73l0,.9a2.35,2.35,0,0,1,.76-.77,2,2,0,0,1,1.06-.28l.35,0a1.45,1.45,0,0,1,.29.07Z" fill="#00aeef"/><path d="M83.23,77.91v2h1.43v1.34H83.23v4.51a1.38,1.38,0,0,0,.06.45.58.58,0,0,0,.17.27.62.62,0,0,0,.27.13,1.58,1.58,0,0,0,.34,0l.36,0,.27,0v1.4l-.5.12a3.64,3.64,0,0,1-.69.06,2.79,2.79,0,0,1-.83-.12,1.65,1.65,0,0,1-.66-.39,1.81,1.81,0,0,1-.44-.7,3.13,3.13,0,0,1-.16-1.06V81.22H80.09V79.87h1.33v-2Z" fill="#00aeef"/><path d="M86,77.78a1,1,0,0,1,.27-.69,1,1,0,0,1,.76-.28,1,1,0,0,1,.76.28,1,1,0,0,1,.27.69.93.93,0,0,1-.27.68,1,1,0,0,1-.76.27,1,1,0,0,1-.76-.27A.94.94,0,0,1,86,77.78ZM88,88H86.16V79.87H88Z" fill="#00aeef"/><path d="M94.48,85.76a1,1,0,0,0-.06-.36.75.75,0,0,0-.25-.31,2,2,0,0,0-.53-.27,6.15,6.15,0,0,0-.88-.24,7.91,7.91,0,0,1-1.18-.34,3.66,3.66,0,0,1-.91-.49,2.12,2.12,0,0,1-.59-.68,1.83,1.83,0,0,1-.21-.9,2.11,2.11,0,0,1,.22-.94,2.33,2.33,0,0,1,.62-.78,3.11,3.11,0,0,1,1-.53,4,4,0,0,1,1.29-.2,4.32,4.32,0,0,1,1.35.2,3.08,3.08,0,0,1,1,.54,2.33,2.33,0,0,1,.86,1.83H94.39a1.19,1.19,0,0,0-.09-.45,1.12,1.12,0,0,0-.27-.39,1.3,1.3,0,0,0-.44-.27,1.73,1.73,0,0,0-.62-.1,1.87,1.87,0,0,0-.6.09,1.33,1.33,0,0,0-.42.22.89.89,0,0,0-.25.32.93.93,0,0,0-.08.38.82.82,0,0,0,.07.36.73.73,0,0,0,.27.28,2.18,2.18,0,0,0,.51.23,7.56,7.56,0,0,0,.81.21,9.57,9.57,0,0,1,1.26.35,3.55,3.55,0,0,1,.94.49,2,2,0,0,1,.59.69,2,2,0,0,1,.2.94,2.11,2.11,0,0,1-.23,1,2.27,2.27,0,0,1-.66.77,3.21,3.21,0,0,1-1,.5A4.73,4.73,0,0,1,93,88.1a4.23,4.23,0,0,1-1.47-.24,3.36,3.36,0,0,1-1.07-.62,2.56,2.56,0,0,1-.65-.86,2.34,2.34,0,0,1-.22-1h1.76a1.39,1.39,0,0,0,.17.63,1.26,1.26,0,0,0,.38.41,1.58,1.58,0,0,0,.52.23,2.51,2.51,0,0,0,.6.07,1.83,1.83,0,0,0,1.09-.27A.84.84,0,0,0,94.48,85.76Z" fill="#00aeef"/><path d="M101.4,88.1a4.15,4.15,0,0,1-1.61-.3A3.54,3.54,0,0,1,98.57,87a3.59,3.59,0,0,1-.77-1.24,4.37,4.37,0,0,1-.27-1.55v-.3a5,5,0,0,1,.28-1.73,3.94,3.94,0,0,1,.78-1.31A3.42,3.42,0,0,1,99.75,80a3.52,3.52,0,0,1,1.44-.29,3.67,3.67,0,0,1,1.53.29,2.88,2.88,0,0,1,1.08.82,3.55,3.55,0,0,1,.63,1.26,5.84,5.84,0,0,1,.21,1.6v.78H99.36a2.9,2.9,0,0,0,.2.87A2.11,2.11,0,0,0,100,86a2,2,0,0,0,.65.45,2.11,2.11,0,0,0,.85.16,2.42,2.42,0,0,0,1.17-.27,2.73,2.73,0,0,0,.86-.74l1,.93a3.33,3.33,0,0,1-.48.56,3.29,3.29,0,0,1-.67.49,3.87,3.87,0,0,1-.87.34A4.2,4.2,0,0,1,101.4,88.1Zm-.22-6.92a1.53,1.53,0,0,0-1.21.52,2.71,2.71,0,0,0-.59,1.46h3.46V83a3.27,3.27,0,0,0-.12-.69,1.75,1.75,0,0,0-.29-.59,1.39,1.39,0,0,0-.5-.41A1.7,1.7,0,0,0,101.18,81.18Z" fill="#00aeef"/><path d="M107.75,79.87l.05.84a2.79,2.79,0,0,1,1-.73,3.25,3.25,0,0,1,1.35-.26,2.88,2.88,0,0,1,1.32.29,2,2,0,0,1,.9.94,2.9,2.9,0,0,1,2.48-1.24,3.46,3.46,0,0,1,1.12.17,2,2,0,0,1,.83.53,2.42,2.42,0,0,1,.52.93,4.49,4.49,0,0,1,.18,1.37V88h-1.81V82.71a2.25,2.25,0,0,0-.1-.74,1.09,1.09,0,0,0-.29-.46,1.06,1.06,0,0,0-.46-.24,2.44,2.44,0,0,0-.6-.07,1.51,1.51,0,0,0-1,.33,1.75,1.75,0,0,0-.55.87.74.74,0,0,0,0,.08s0,.05,0,.08V88h-1.81V82.73a2.2,2.2,0,0,0-.1-.72,1.14,1.14,0,0,0-.29-.47,1.12,1.12,0,0,0-.46-.26,2.16,2.16,0,0,0-.6-.08,1.76,1.76,0,0,0-1,.24,1.63,1.63,0,0,0-.59.65V88H106V79.87Z" fill="#00aeef"/><path d="M122.9,88.1a4.15,4.15,0,0,1-1.61-.3,3.54,3.54,0,0,1-1.22-.82,3.59,3.59,0,0,1-.77-1.24A4.37,4.37,0,0,1,119,84.2v-.3a5,5,0,0,1,.28-1.73,3.94,3.94,0,0,1,.78-1.31,3.42,3.42,0,0,1,1.16-.84,3.52,3.52,0,0,1,1.44-.29,3.67,3.67,0,0,1,1.53.29,2.88,2.88,0,0,1,1.08.82,3.55,3.55,0,0,1,.63,1.26,5.84,5.84,0,0,1,.21,1.6v.78h-5.28a2.9,2.9,0,0,0,.2.87,2.11,2.11,0,0,0,.44.68,2,2,0,0,0,.65.45,2.11,2.11,0,0,0,.85.16,2.42,2.42,0,0,0,1.17-.27,2.73,2.73,0,0,0,.86-.74l1,.93a3.33,3.33,0,0,1-.48.56,3.29,3.29,0,0,1-.67.49A3.87,3.87,0,0,1,124,88,4.2,4.2,0,0,1,122.9,88.1Zm-.22-6.92a1.53,1.53,0,0,0-1.21.52,2.71,2.71,0,0,0-.59,1.46h3.46V83a3.27,3.27,0,0,0-.12-.69,1.75,1.75,0,0,0-.29-.59,1.39,1.39,0,0,0-.5-.41A1.7,1.7,0,0,0,122.69,81.18Z" fill="#00aeef"/><path d="M129.24,79.87l.05.93a3,3,0,0,1,1-.8,3.06,3.06,0,0,1,1.33-.28,3.28,3.28,0,0,1,1.06.16,2,2,0,0,1,.81.52,2.41,2.41,0,0,1,.52.93,4.64,4.64,0,0,1,.18,1.4V88h-1.81V82.72a2.31,2.31,0,0,0-.09-.71,1.16,1.16,0,0,0-.27-.47,1,1,0,0,0-.44-.26,2.15,2.15,0,0,0-.61-.08,1.75,1.75,0,0,0-1,.27,2,2,0,0,0-.66.72V88h-1.81V79.87Z" fill="#00aeef"/><path d="M138.33,77.91v2h1.43v1.34h-1.43v4.51a1.38,1.38,0,0,0,.06.45.58.58,0,0,0,.17.27.62.62,0,0,0,.27.13,1.58,1.58,0,0,0,.34,0l.36,0,.27,0v1.4l-.5.12a3.64,3.64,0,0,1-.69.06,2.79,2.79,0,0,1-.83-.12,1.65,1.65,0,0,1-.66-.39,1.81,1.81,0,0,1-.44-.7,3.13,3.13,0,0,1-.16-1.06V81.22h-1.33V79.87h1.33v-2Z" fill="#00aeef"/></g><g id="_Group_3" data-name="&lt;Group&gt;"><path d="M34.28,173.57a1.66,1.66,0,0,0-.1-.59,1.16,1.16,0,0,0-.35-.47,3,3,0,0,0-.71-.41,11,11,0,0,0-1.16-.41,11.16,11.16,0,0,1-1.43-.53,4.93,4.93,0,0,1-1.13-.69,3,3,0,0,1-.74-.91,2.51,2.51,0,0,1-.27-1.18,2.64,2.64,0,0,1,.28-1.21,2.87,2.87,0,0,1,.79-1,3.76,3.76,0,0,1,1.22-.63,5.18,5.18,0,0,1,1.57-.22,4.82,4.82,0,0,1,1.65.27,3.71,3.71,0,0,1,1.24.72,3.14,3.14,0,0,1,.77,1.06,3.1,3.1,0,0,1,.27,1.28H34.28a2.08,2.08,0,0,0-.12-.73,1.51,1.51,0,0,0-.38-.57,1.74,1.74,0,0,0-.64-.38,2.82,2.82,0,0,0-.92-.13,3,3,0,0,0-.87.11,1.73,1.73,0,0,0-.61.31,1.24,1.24,0,0,0-.36.48,1.53,1.53,0,0,0-.12.6,1.2,1.2,0,0,0,.57,1,6.08,6.08,0,0,0,1.74.75,10.13,10.13,0,0,1,1.59.6,4.55,4.55,0,0,1,1.12.74,2.68,2.68,0,0,1,.66.93,3,3,0,0,1,.22,1.17,2.74,2.74,0,0,1-.27,1.24,2.64,2.64,0,0,1-.78.93,3.64,3.64,0,0,1-1.22.59,5.78,5.78,0,0,1-1.6.21,5.7,5.7,0,0,1-1.55-.21,4.36,4.36,0,0,1-1.37-.64,3.34,3.34,0,0,1-1-1.07,3,3,0,0,1-.37-1.51h1.89a2,2,0,0,0,.18.88,1.65,1.65,0,0,0,.5.6,2.1,2.1,0,0,0,.75.34,3.84,3.84,0,0,0,.93.11,2.33,2.33,0,0,0,1.48-.4A1.29,1.29,0,0,0,34.28,173.57Z" fill="#00aeef"/><path d="M39.93,166.33v2h1.43v1.34H39.93v4.51a1.38,1.38,0,0,0,.06.45.58.58,0,0,0,.17.27.62.62,0,0,0,.27.13,1.58,1.58,0,0,0,.34,0l.36,0,.27,0v1.4l-.5.12a3.64,3.64,0,0,1-.69.06,2.79,2.79,0,0,1-.83-.12,1.65,1.65,0,0,1-.66-.39,1.81,1.81,0,0,1-.44-.7,3.13,3.13,0,0,1-.16-1.06v-4.61H36.78V168.3h1.33v-2Z" fill="#00aeef"/><path d="M47.56,176.37a1.5,1.5,0,0,1-.12-.34q0-.19-.09-.42a3.17,3.17,0,0,1-.4.35,2.7,2.7,0,0,1-.49.29,2.89,2.89,0,0,1-.57.19,3,3,0,0,1-.66.07,3.26,3.26,0,0,1-1.11-.18,2.6,2.6,0,0,1-.87-.51,2.34,2.34,0,0,1-.57-.77,2.23,2.23,0,0,1-.21-1,2.56,2.56,0,0,1,.25-1.15,2.22,2.22,0,0,1,.72-.84,3.43,3.43,0,0,1,1.15-.51,6.26,6.26,0,0,1,1.56-.18H47.3v-.53a1.42,1.42,0,0,0-.35-1,1.39,1.39,0,0,0-1.07-.38,1.86,1.86,0,0,0-.58.09,1.4,1.4,0,0,0-.44.23,1,1,0,0,0-.28.35,1,1,0,0,0-.1.43H42.65a2,2,0,0,1,.23-.92,2.53,2.53,0,0,1,.67-.79,3.41,3.41,0,0,1,1-.56,4.61,4.61,0,0,1,2.63,0,2.83,2.83,0,0,1,1,.52,2.35,2.35,0,0,1,.65.87,3,3,0,0,1,.23,1.21v3.58a4.13,4.13,0,0,0,.31,1.74v.13Zm-2-1.31a2,2,0,0,0,.59-.08,2.11,2.11,0,0,0,.49-.22,1.82,1.82,0,0,0,.38-.31,1.73,1.73,0,0,0,.26-.35v-1.52h-1a2.67,2.67,0,0,0-1.52.35,1.14,1.14,0,0,0-.51,1,1.23,1.23,0,0,0,.08.46,1,1,0,0,0,.25.36,1.16,1.16,0,0,0,.4.24A1.59,1.59,0,0,0,45.57,175.07Z" fill="#00aeef"/><path d="M53.28,166.33v2h1.43v1.34H53.28v4.51a1.38,1.38,0,0,0,.06.45.58.58,0,0,0,.17.27.62.62,0,0,0,.27.13,1.58,1.58,0,0,0,.34,0l.36,0,.27,0v1.4l-.5.12a3.64,3.64,0,0,1-.69.06,2.79,2.79,0,0,1-.83-.12,1.65,1.65,0,0,1-.66-.39,1.81,1.81,0,0,1-.44-.7,3.13,3.13,0,0,1-.16-1.06v-4.61H50.14V168.3h1.33v-2Z" fill="#00aeef"/><path d="M56.1,166.2a1,1,0,0,1,.27-.69,1,1,0,0,1,.76-.28,1,1,0,0,1,.76.28,1,1,0,0,1,.27.69.93.93,0,0,1-.27.68,1,1,0,0,1-.76.27,1,1,0,0,1-.76-.27A.94.94,0,0,1,56.1,166.2ZM58,176.37H56.21V168.3H58Z" fill="#00aeef"/><path d="M63.32,175.08a1.84,1.84,0,0,0,.62-.1,1.53,1.53,0,0,0,.5-.28,1.44,1.44,0,0,0,.34-.44,1.34,1.34,0,0,0,.15-.55h1.71a2.59,2.59,0,0,1-.29,1.1,3,3,0,0,1-.71.9,3.36,3.36,0,0,1-1,.6,3.59,3.59,0,0,1-1.26.22,3.82,3.82,0,0,1-1.62-.32,3.24,3.24,0,0,1-1.15-.87,3.64,3.64,0,0,1-.68-1.29,5.37,5.37,0,0,1-.22-1.57v-.26a5.38,5.38,0,0,1,.22-1.57,3.68,3.68,0,0,1,.68-1.29,3.23,3.23,0,0,1,1.15-.88,4.17,4.17,0,0,1,3-.1,3,3,0,0,1,1,.63,2.88,2.88,0,0,1,.67,1,3.36,3.36,0,0,1,.27,1.23H64.92a1.88,1.88,0,0,0-.13-.61,1.59,1.59,0,0,0-.32-.51,1.51,1.51,0,0,0-.5-.34,1.63,1.63,0,0,0-.66-.13,1.58,1.58,0,0,0-1.48.82,2.49,2.49,0,0,0-.29.84,5.77,5.77,0,0,0-.08.95v.26a5.78,5.78,0,0,0,.08,1,2.49,2.49,0,0,0,.29.83,1.66,1.66,0,0,0,.56.59A1.69,1.69,0,0,0,63.32,175.08Z" fill="#00aeef"/><path d="M78.25,171.77H73.87v4.61H72V165.5h6.91V167h-5v3.23h4.38Z" fill="#00aeef"/><path d="M79.71,172.26a5,5,0,0,1,.26-1.63,3.88,3.88,0,0,1,.74-1.3,3.39,3.39,0,0,1,1.18-.87,3.79,3.79,0,0,1,1.58-.31,3.86,3.86,0,0,1,1.59.31,3.37,3.37,0,0,1,1.18.87,3.83,3.83,0,0,1,.74,1.3,5.07,5.07,0,0,1,.25,1.63v.16a5.1,5.1,0,0,1-.25,1.64,3.78,3.78,0,0,1-.74,1.3,3.36,3.36,0,0,1-1.18.86,4.19,4.19,0,0,1-3.17,0,3.36,3.36,0,0,1-1.18-.86,3.83,3.83,0,0,1-.74-1.3,5,5,0,0,1-.26-1.64Zm1.81.16a4.56,4.56,0,0,0,.11,1,2.58,2.58,0,0,0,.35.85,1.69,1.69,0,0,0,1.49.78,1.68,1.68,0,0,0,1.47-.78,2.69,2.69,0,0,0,.35-.85,4.43,4.43,0,0,0,.12-1v-.16a4.35,4.35,0,0,0-.12-1,2.64,2.64,0,0,0-.35-.84,1.82,1.82,0,0,0-.61-.58,1.7,1.7,0,0,0-.88-.22,1.66,1.66,0,0,0-.87.22,1.85,1.85,0,0,0-.6.58,2.58,2.58,0,0,0-.35.84,4.49,4.49,0,0,0-.11,1Z" fill="#00aeef"/><path d="M93,170l-.36,0-.38,0a2,2,0,0,0-1.07.25,1.56,1.56,0,0,0-.61.7v5.52H88.75V168.3h1.73l0,.9a2.35,2.35,0,0,1,.76-.77,2,2,0,0,1,1.06-.28l.35,0a1.45,1.45,0,0,1,.29.07Z" fill="#00aeef"/><path d="M95.84,168.3l.05.84a2.79,2.79,0,0,1,1-.73,3.25,3.25,0,0,1,1.35-.26,2.88,2.88,0,0,1,1.32.29,2,2,0,0,1,.9.94,2.9,2.9,0,0,1,2.48-1.24,3.46,3.46,0,0,1,1.12.17,2,2,0,0,1,.83.53,2.42,2.42,0,0,1,.52.93,4.49,4.49,0,0,1,.18,1.37v5.23h-1.81v-5.24a2.25,2.25,0,0,0-.1-.74,1.09,1.09,0,0,0-.29-.46,1.06,1.06,0,0,0-.46-.24,2.44,2.44,0,0,0-.6-.07,1.51,1.51,0,0,0-1,.33,1.75,1.75,0,0,0-.55.87.74.74,0,0,0,0,.08s0,.05,0,.08v5.38H98.94v-5.22a2.2,2.2,0,0,0-.1-.72,1.14,1.14,0,0,0-.29-.47,1.12,1.12,0,0,0-.46-.26,2.16,2.16,0,0,0-.6-.08,1.76,1.76,0,0,0-1,.24,1.63,1.63,0,0,0-.59.65v5.85H94.13V168.3Z" fill="#00aeef"/><path d="M111.27,172a11.55,11.55,0,0,1,.17-2,10.62,10.62,0,0,1,.46-1.74,9.2,9.2,0,0,1,.66-1.45,8.15,8.15,0,0,1,.79-1.15,6.34,6.34,0,0,1,.84-.85,4.21,4.21,0,0,1,.81-.54l.36,1.06a4.6,4.6,0,0,0-.85.88,6.37,6.37,0,0,0-.78,1.38,9.83,9.83,0,0,0-.57,1.92,12.78,12.78,0,0,0-.22,2.5v.15a12.78,12.78,0,0,0,.22,2.5,10,10,0,0,0,.57,1.93,6.52,6.52,0,0,0,.78,1.4,5.19,5.19,0,0,0,.85.91l-.36,1a4.21,4.21,0,0,1-.81-.54,6.24,6.24,0,0,1-.84-.85,8.41,8.41,0,0,1-.79-1.15,9,9,0,0,1-.66-1.45,10.63,10.63,0,0,1-.46-1.74,11.54,11.54,0,0,1-.17-2Z" fill="#00aeef"/><path d="M122.43,173.57a1.66,1.66,0,0,0-.1-.59,1.16,1.16,0,0,0-.35-.47,3,3,0,0,0-.71-.41,11,11,0,0,0-1.16-.41,11.16,11.16,0,0,1-1.43-.53,4.93,4.93,0,0,1-1.13-.69,3,3,0,0,1-.74-.91,2.51,2.51,0,0,1-.27-1.18,2.64,2.64,0,0,1,.28-1.21,2.87,2.87,0,0,1,.79-1,3.76,3.76,0,0,1,1.22-.63,5.18,5.18,0,0,1,1.57-.22,4.82,4.82,0,0,1,1.65.27,3.71,3.71,0,0,1,1.24.72,3.14,3.14,0,0,1,.77,1.06,3.1,3.1,0,0,1,.27,1.28h-1.88a2.08,2.08,0,0,0-.12-.73,1.51,1.51,0,0,0-.38-.57,1.74,1.74,0,0,0-.64-.38,2.82,2.82,0,0,0-.92-.13,3,3,0,0,0-.87.11,1.73,1.73,0,0,0-.61.31,1.24,1.24,0,0,0-.36.48,1.53,1.53,0,0,0-.12.6,1.2,1.2,0,0,0,.57,1,6.08,6.08,0,0,0,1.74.75,10.13,10.13,0,0,1,1.59.6,4.55,4.55,0,0,1,1.12.74,2.68,2.68,0,0,1,.66.93,3,3,0,0,1,.22,1.17,2.74,2.74,0,0,1-.27,1.24,2.64,2.64,0,0,1-.78.93,3.64,3.64,0,0,1-1.22.59,5.78,5.78,0,0,1-1.6.21,5.7,5.7,0,0,1-1.55-.21,4.36,4.36,0,0,1-1.37-.64,3.34,3.34,0,0,1-1-1.07,3,3,0,0,1-.37-1.51h1.89a2,2,0,0,0,.18.88,1.65,1.65,0,0,0,.5.6,2.1,2.1,0,0,0,.75.34,3.84,3.84,0,0,0,.93.11,2.33,2.33,0,0,0,1.48-.4A1.29,1.29,0,0,0,122.43,173.57Z" fill="#00aeef"/><path d="M130,172.19h-2.11v4.19H126V165.5h3.82a6,6,0,0,1,1.67.21,3.42,3.42,0,0,1,1.24.63,2.67,2.67,0,0,1,.77,1,3.6,3.6,0,0,1,.26,1.42,3.06,3.06,0,0,1-.53,1.83,3.35,3.35,0,0,1-1.47,1.13l2.44,4.53v.1h-2Zm-2.11-1.52h1.94a2.66,2.66,0,0,0,.89-.13,1.77,1.77,0,0,0,.63-.37,1.52,1.52,0,0,0,.38-.57,2,2,0,0,0,.13-.72,2.27,2.27,0,0,0-.12-.76,1.51,1.51,0,0,0-.37-.58,1.63,1.63,0,0,0-.63-.37,2.89,2.89,0,0,0-.92-.13h-1.93Z" fill="#00aeef"/><path d="M141.78,171.77h-4.37v4.61h-1.89V165.5h6.91V167h-5v3.23h4.38Z" fill="#00aeef"/><path d="M145.91,176.37H144V165.5h1.88Z" fill="#00aeef"/><path d="M151.55,172.07a11,11,0,0,1-.63,3.73,8.73,8.73,0,0,1-.67,1.46,8.93,8.93,0,0,1-.8,1.17,6.38,6.38,0,0,1-.85.86,4.12,4.12,0,0,1-.82.54l-.36-1a4.76,4.76,0,0,0,.85-.89,6.41,6.41,0,0,0,.78-1.4,10.09,10.09,0,0,0,.57-1.94,12.93,12.93,0,0,0,.22-2.51v-.15a12.36,12.36,0,0,0-.23-2.51,10.11,10.11,0,0,0-.59-1.94,6.76,6.76,0,0,0-.79-1.4,5.05,5.05,0,0,0-.82-.88l.36-1a4.13,4.13,0,0,1,.82.54,6.35,6.35,0,0,1,.85.86,8.78,8.78,0,0,1,.8,1.17,8.87,8.87,0,0,1,.67,1.46,11,11,0,0,1,.63,3.73Z" fill="#00aeef"/></g><g id="_Group_4" data-name="&lt;Group&gt;"><path d="M256,83.1h-4.46v3.34h5.22V88h-7.11V77.08h7.06V78.6h-5.17v3H256Z" fill="#00aeef"/><path d="M260.76,85.65l1.71-5.78h1.87L261.54,88H260l-2.82-8.08H259Z" fill="#00aeef"/><path d="M268.93,88.1a4.15,4.15,0,0,1-1.61-.3A3.54,3.54,0,0,1,266.1,87a3.59,3.59,0,0,1-.77-1.24,4.37,4.37,0,0,1-.27-1.55v-.3a5,5,0,0,1,.28-1.73,3.94,3.94,0,0,1,.78-1.31,3.42,3.42,0,0,1,1.16-.84,3.52,3.52,0,0,1,1.44-.29,3.67,3.67,0,0,1,1.53.29,2.88,2.88,0,0,1,1.08.82,3.55,3.55,0,0,1,.63,1.26,5.84,5.84,0,0,1,.21,1.6v.78h-5.28a2.9,2.9,0,0,0,.2.87,2.11,2.11,0,0,0,.44.68,2,2,0,0,0,.65.45,2.11,2.11,0,0,0,.85.16,2.42,2.42,0,0,0,1.17-.27,2.73,2.73,0,0,0,.86-.74l1,.93a3.33,3.33,0,0,1-.48.56,3.29,3.29,0,0,1-.67.49A3.87,3.87,0,0,1,270,88,4.2,4.2,0,0,1,268.93,88.1Zm-.22-6.92a1.53,1.53,0,0,0-1.21.52,2.71,2.71,0,0,0-.59,1.46h3.46V83a3.27,3.27,0,0,0-.12-.69,1.75,1.75,0,0,0-.29-.59,1.39,1.39,0,0,0-.5-.41A1.7,1.7,0,0,0,268.72,81.18Z" fill="#00aeef"/><path d="M275.26,79.87l.05.93a3,3,0,0,1,1-.8,3.06,3.06,0,0,1,1.33-.28,3.28,3.28,0,0,1,1.06.16,2,2,0,0,1,.81.52,2.41,2.41,0,0,1,.52.93,4.64,4.64,0,0,1,.18,1.4V88h-1.81V82.72a2.31,2.31,0,0,0-.09-.71,1.16,1.16,0,0,0-.27-.47,1,1,0,0,0-.44-.26,2.15,2.15,0,0,0-.61-.08,1.75,1.75,0,0,0-1,.27,2,2,0,0,0-.66.72V88h-1.81V79.87Z" fill="#00aeef"/><path d="M284.36,77.91v2h1.43v1.34h-1.43v4.51a1.38,1.38,0,0,0,.06.45.58.58,0,0,0,.17.27.62.62,0,0,0,.27.13,1.58,1.58,0,0,0,.34,0l.36,0,.27,0v1.4l-.5.12a3.64,3.64,0,0,1-.69.06,2.79,2.79,0,0,1-.83-.12,1.65,1.65,0,0,1-.66-.39,1.81,1.81,0,0,1-.44-.7,3.13,3.13,0,0,1-.16-1.06V81.22h-1.33V79.87h1.33v-2Z" fill="#00aeef"/></g><g id="_Group_5" data-name="&lt;Group&gt;"><path d="M233.34,171.15v4h-1.89V164.32h4.16a5.08,5.08,0,0,1,1.68.26,3.56,3.56,0,0,1,1.24.72,3.07,3.07,0,0,1,.77,1.1,3.55,3.55,0,0,1,.27,1.38,3.61,3.61,0,0,1-.27,1.42,2.81,2.81,0,0,1-.77,1.06,3.51,3.51,0,0,1-1.24.66,5.61,5.61,0,0,1-1.68.23Zm0-1.52h2.27a2.89,2.89,0,0,0,.94-.13,1.7,1.7,0,0,0,.65-.38,1.47,1.47,0,0,0,.37-.59,2.29,2.29,0,0,0,.12-.74,2.32,2.32,0,0,0-.12-.73,1.68,1.68,0,0,0-.37-.62,1.8,1.8,0,0,0-.65-.43,2.47,2.47,0,0,0-.94-.16h-2.27Z" fill="#00aeef"/><path d="M245.94,174.4a2.58,2.58,0,0,1-.94.69,3.28,3.28,0,0,1-1.33.25,3.33,3.33,0,0,1-1.09-.17,2.11,2.11,0,0,1-.84-.53,2.45,2.45,0,0,1-.54-.93,4.28,4.28,0,0,1-.19-1.37v-5.23h1.81v5.24a2.16,2.16,0,0,0,.1.73,1.25,1.25,0,0,0,.28.46,1,1,0,0,0,.41.25,1.64,1.64,0,0,0,.48.07,2.23,2.23,0,0,0,1.14-.25,1.62,1.62,0,0,0,.65-.69v-5.8h1.81v8.08H246Z" fill="#00aeef"/><path d="M254.07,173a1,1,0,0,0-.06-.36.75.75,0,0,0-.25-.31,2,2,0,0,0-.53-.27,6.15,6.15,0,0,0-.88-.24,7.91,7.91,0,0,1-1.18-.34,3.66,3.66,0,0,1-.91-.49,2.12,2.12,0,0,1-.59-.68,1.83,1.83,0,0,1-.21-.9,2.11,2.11,0,0,1,.22-.94,2.33,2.33,0,0,1,.62-.78,3.11,3.11,0,0,1,1-.53,4,4,0,0,1,1.29-.2,4.32,4.32,0,0,1,1.35.2,3.08,3.08,0,0,1,1,.54,2.33,2.33,0,0,1,.86,1.83H254a1.19,1.19,0,0,0-.09-.45,1.12,1.12,0,0,0-.27-.39,1.3,1.3,0,0,0-.44-.27,1.73,1.73,0,0,0-.62-.1,1.87,1.87,0,0,0-.6.09,1.33,1.33,0,0,0-.42.22.89.89,0,0,0-.25.32.93.93,0,0,0-.08.38.82.82,0,0,0,.07.36.73.73,0,0,0,.27.28,2.18,2.18,0,0,0,.51.23,7.56,7.56,0,0,0,.81.21,9.57,9.57,0,0,1,1.26.35,3.55,3.55,0,0,1,.94.49,2,2,0,0,1,.59.69,2,2,0,0,1,.2.94,2.11,2.11,0,0,1-.23,1,2.27,2.27,0,0,1-.66.77,3.21,3.21,0,0,1-1,.5,4.73,4.73,0,0,1-1.34.18,4.23,4.23,0,0,1-1.47-.24,3.36,3.36,0,0,1-1.07-.62,2.56,2.56,0,0,1-.65-.86,2.34,2.34,0,0,1-.22-1h1.76a1.39,1.39,0,0,0,.17.63,1.26,1.26,0,0,0,.38.41,1.58,1.58,0,0,0,.52.23,2.51,2.51,0,0,0,.6.07,1.83,1.83,0,0,0,1.09-.27A.84.84,0,0,0,254.07,173Z" fill="#00aeef"/><path d="M259.22,168a3,3,0,0,1,1-.76,2.88,2.88,0,0,1,1.26-.27,3.34,3.34,0,0,1,1.07.16,2,2,0,0,1,.83.53,2.43,2.43,0,0,1,.53.94,4.6,4.6,0,0,1,.19,1.4v5.2h-1.81V170a1.59,1.59,0,0,0-.36-1.18,1.48,1.48,0,0,0-1.06-.35,1.77,1.77,0,0,0-1,.26,1.94,1.94,0,0,0-.65.71v5.77h-1.81V163.72h1.81Z" fill="#00aeef"/><path d="M276.17,170.58h-4.37v4.61H269.9V164.32h6.91v1.52h-5v3.23h4.38Z" fill="#00aeef"/><path d="M277.63,171.08a5,5,0,0,1,.26-1.63,3.88,3.88,0,0,1,.74-1.3,3.39,3.39,0,0,1,1.18-.87,3.79,3.79,0,0,1,1.58-.31,3.86,3.86,0,0,1,1.59.31,3.37,3.37,0,0,1,1.18.87,3.83,3.83,0,0,1,.74,1.3,5.07,5.07,0,0,1,.25,1.63v.16a5.1,5.1,0,0,1-.25,1.64,3.78,3.78,0,0,1-.74,1.3A3.36,3.36,0,0,1,283,175a4.19,4.19,0,0,1-3.17,0,3.36,3.36,0,0,1-1.18-.86,3.83,3.83,0,0,1-.74-1.3,5,5,0,0,1-.26-1.64Zm1.81.16a4.56,4.56,0,0,0,.11,1,2.58,2.58,0,0,0,.35.85,1.69,1.69,0,0,0,1.49.78,1.68,1.68,0,0,0,1.47-.78,2.69,2.69,0,0,0,.35-.85,4.43,4.43,0,0,0,.12-1v-.16a4.35,4.35,0,0,0-.12-1,2.64,2.64,0,0,0-.35-.84,1.82,1.82,0,0,0-.61-.58,1.7,1.7,0,0,0-.88-.22,1.66,1.66,0,0,0-.87.22,1.85,1.85,0,0,0-.6.58,2.58,2.58,0,0,0-.35.84,4.49,4.49,0,0,0-.11,1Z" fill="#00aeef"/><path d="M290.9,168.77l-.36,0-.38,0a2,2,0,0,0-1.07.25,1.56,1.56,0,0,0-.61.7v5.52h-1.81v-8.08h1.73l0,.9a2.35,2.35,0,0,1,.76-.77,2,2,0,0,1,1.06-.28l.35,0a1.45,1.45,0,0,1,.29.07Z" fill="#00aeef"/><path d="M293.76,167.11l.05.84a2.79,2.79,0,0,1,1-.73,3.25,3.25,0,0,1,1.35-.26,2.88,2.88,0,0,1,1.32.29,2,2,0,0,1,.9.94,2.9,2.9,0,0,1,2.48-1.24,3.46,3.46,0,0,1,1.12.17,2,2,0,0,1,.83.53,2.42,2.42,0,0,1,.52.93,4.49,4.49,0,0,1,.18,1.37v5.23h-1.81v-5.24a2.25,2.25,0,0,0-.1-.74,1.09,1.09,0,0,0-.29-.46,1.06,1.06,0,0,0-.46-.24,2.44,2.44,0,0,0-.6-.07,1.51,1.51,0,0,0-1,.33,1.75,1.75,0,0,0-.55.87.74.74,0,0,0,0,.08s0,.05,0,.08v5.38h-1.81V170a2.2,2.2,0,0,0-.1-.72,1.14,1.14,0,0,0-.29-.47,1.12,1.12,0,0,0-.46-.26,2.16,2.16,0,0,0-.6-.08,1.76,1.76,0,0,0-1,.24,1.63,1.63,0,0,0-.59.65v5.85H292v-8.08Z" fill="#00aeef"/></g><g id="_Group_6" data-name="&lt;Group&gt;"><path d="M410.55,172.39a1.66,1.66,0,0,0-.1-.59,1.16,1.16,0,0,0-.35-.47,3,3,0,0,0-.71-.41,11,11,0,0,0-1.16-.41,11.16,11.16,0,0,1-1.43-.53,4.93,4.93,0,0,1-1.13-.69,3,3,0,0,1-.74-.91,2.51,2.51,0,0,1-.27-1.18,2.64,2.64,0,0,1,.28-1.21,2.87,2.87,0,0,1,.79-1,3.76,3.76,0,0,1,1.22-.63,5.18,5.18,0,0,1,1.57-.22,4.82,4.82,0,0,1,1.65.27,3.71,3.71,0,0,1,1.24.72,3.14,3.14,0,0,1,.77,1.06,3.1,3.1,0,0,1,.27,1.28h-1.88a2.08,2.08,0,0,0-.12-.73,1.51,1.51,0,0,0-.38-.57,1.74,1.74,0,0,0-.64-.38,2.82,2.82,0,0,0-.92-.13,3,3,0,0,0-.87.11,1.73,1.73,0,0,0-.61.31,1.24,1.24,0,0,0-.36.48,1.53,1.53,0,0,0-.12.6,1.2,1.2,0,0,0,.57,1,6.08,6.08,0,0,0,1.74.75,10.13,10.13,0,0,1,1.59.6,4.55,4.55,0,0,1,1.12.74,2.68,2.68,0,0,1,.66.93,3,3,0,0,1,.22,1.17,2.74,2.74,0,0,1-.27,1.24,2.64,2.64,0,0,1-.78.93,3.64,3.64,0,0,1-1.22.59,5.78,5.78,0,0,1-1.6.21,5.7,5.7,0,0,1-1.55-.21,4.36,4.36,0,0,1-1.37-.64,3.34,3.34,0,0,1-1-1.07,3,3,0,0,1-.37-1.51h1.89a2,2,0,0,0,.18.88,1.65,1.65,0,0,0,.5.6,2.1,2.1,0,0,0,.75.34,3.84,3.84,0,0,0,.93.11,2.33,2.33,0,0,0,1.48-.4A1.29,1.29,0,0,0,410.55,172.39Z" fill="#00aeef"/><path d="M416.75,172.59l1.64-5.48h1.93l-3.21,9.3a5.86,5.86,0,0,1-.29.66,2.81,2.81,0,0,1-.48.66,2.48,2.48,0,0,1-.72.51,2.32,2.32,0,0,1-1,.21,2.64,2.64,0,0,1-.46,0l-.41-.09v-1.4l.18,0h.17a2.69,2.69,0,0,0,.59-.06,1.17,1.17,0,0,0,.76-.52,2.27,2.27,0,0,0,.24-.51l.26-.69-2.84-8h2Z" fill="#00aeef"/><path d="M423.05,167.11l.05.93a3,3,0,0,1,1-.8,3.06,3.06,0,0,1,1.33-.28,3.28,3.28,0,0,1,1.06.16,2,2,0,0,1,.81.52,2.41,2.41,0,0,1,.52.93A4.64,4.64,0,0,1,428,170v5.22h-1.81V170a2.31,2.31,0,0,0-.09-.71,1.16,1.16,0,0,0-.27-.47,1,1,0,0,0-.44-.26,2.15,2.15,0,0,0-.61-.08,1.75,1.75,0,0,0-1,.27,2,2,0,0,0-.66.72v5.75h-1.81v-8.08Z" fill="#00aeef"/><path d="M433.19,173.89a1.84,1.84,0,0,0,.62-.1,1.53,1.53,0,0,0,.5-.28,1.44,1.44,0,0,0,.34-.44,1.34,1.34,0,0,0,.15-.55h1.71a2.59,2.59,0,0,1-.29,1.1,3,3,0,0,1-.71.9,3.36,3.36,0,0,1-1,.6,3.59,3.59,0,0,1-1.26.22,3.82,3.82,0,0,1-1.62-.32,3.24,3.24,0,0,1-1.15-.87,3.64,3.64,0,0,1-.68-1.29,5.37,5.37,0,0,1-.22-1.57V171a5.38,5.38,0,0,1,.22-1.57,3.68,3.68,0,0,1,.68-1.29,3.23,3.23,0,0,1,1.15-.88,4.17,4.17,0,0,1,3-.1,3,3,0,0,1,1,.63,2.88,2.88,0,0,1,.67,1,3.36,3.36,0,0,1,.27,1.23H434.8a1.88,1.88,0,0,0-.13-.61,1.59,1.59,0,0,0-.32-.51,1.51,1.51,0,0,0-.5-.34,1.63,1.63,0,0,0-.66-.13,1.58,1.58,0,0,0-1.48.82,2.49,2.49,0,0,0-.29.84,5.77,5.77,0,0,0-.08.95v.26a5.78,5.78,0,0,0,.08,1,2.49,2.49,0,0,0,.29.83,1.66,1.66,0,0,0,.56.59A1.69,1.69,0,0,0,433.19,173.89Z" fill="#00aeef"/><path d="M448.12,170.58h-4.37v4.61h-1.89V164.32h6.91v1.52h-5v3.23h4.38Z" fill="#00aeef"/><path d="M449.59,171.08a5,5,0,0,1,.26-1.63,3.88,3.88,0,0,1,.74-1.3,3.39,3.39,0,0,1,1.18-.87,3.79,3.79,0,0,1,1.58-.31,3.86,3.86,0,0,1,1.59.31,3.37,3.37,0,0,1,1.18.87,3.83,3.83,0,0,1,.74,1.3,5.07,5.07,0,0,1,.25,1.63v.16a5.1,5.1,0,0,1-.25,1.64,3.78,3.78,0,0,1-.74,1.3,3.36,3.36,0,0,1-1.18.86,4.19,4.19,0,0,1-3.17,0,3.36,3.36,0,0,1-1.18-.86,3.83,3.83,0,0,1-.74-1.3,5,5,0,0,1-.26-1.64Zm1.81.16a4.56,4.56,0,0,0,.11,1,2.58,2.58,0,0,0,.35.85,1.69,1.69,0,0,0,1.49.78,1.68,1.68,0,0,0,1.47-.78,2.69,2.69,0,0,0,.35-.85,4.43,4.43,0,0,0,.12-1v-.16a4.35,4.35,0,0,0-.12-1,2.64,2.64,0,0,0-.35-.84,1.82,1.82,0,0,0-.61-.58,1.7,1.7,0,0,0-.88-.22,1.66,1.66,0,0,0-.87.22,1.85,1.85,0,0,0-.6.58,2.58,2.58,0,0,0-.35.84,4.49,4.49,0,0,0-.11,1Z" fill="#00aeef"/><path d="M462.86,168.77l-.36,0-.38,0a2,2,0,0,0-1.07.25,1.56,1.56,0,0,0-.61.7v5.52h-1.81v-8.08h1.73l0,.9a2.35,2.35,0,0,1,.76-.77,2,2,0,0,1,1.06-.28l.35,0a1.45,1.45,0,0,1,.29.07Z" fill="#00aeef"/><path d="M465.71,167.11l.05.84a2.79,2.79,0,0,1,1-.73,3.25,3.25,0,0,1,1.35-.26,2.88,2.88,0,0,1,1.32.29,2,2,0,0,1,.9.94,2.9,2.9,0,0,1,2.48-1.24,3.46,3.46,0,0,1,1.12.17,2,2,0,0,1,.83.53,2.42,2.42,0,0,1,.52.93,4.49,4.49,0,0,1,.18,1.37v5.23h-1.81v-5.24a2.25,2.25,0,0,0-.1-.74,1.09,1.09,0,0,0-.29-.46,1.06,1.06,0,0,0-.46-.24,2.44,2.44,0,0,0-.6-.07,1.51,1.51,0,0,0-1,.33,1.75,1.75,0,0,0-.55.87.74.74,0,0,0,0,.08s0,.05,0,.08v5.38h-1.81V170a2.2,2.2,0,0,0-.1-.72,1.14,1.14,0,0,0-.29-.47,1.12,1.12,0,0,0-.46-.26,2.16,2.16,0,0,0-.6-.08,1.76,1.76,0,0,0-1,.24,1.63,1.63,0,0,0-.59.65v5.85H464v-8.08Z" fill="#00aeef"/></g><g id="_Group_7" data-name="&lt;Group&gt;"><path d="M402.12,83.76H400V88h-1.89V77.08h3.82a6,6,0,0,1,1.67.21,3.42,3.42,0,0,1,1.24.63,2.67,2.67,0,0,1,.77,1,3.6,3.6,0,0,1,.26,1.42,3.06,3.06,0,0,1-.53,1.83,3.35,3.35,0,0,1-1.47,1.13l2.44,4.53V88h-2ZM400,82.25H402a2.66,2.66,0,0,0,.89-.13,1.77,1.77,0,0,0,.63-.37,1.53,1.53,0,0,0,.38-.57,2,2,0,0,0,.13-.72,2.29,2.29,0,0,0-.12-.76,1.52,1.52,0,0,0-.37-.58,1.63,1.63,0,0,0-.63-.37,2.88,2.88,0,0,0-.92-.13H400Z" fill="#00aeef"/><path d="M411,88.1a4.15,4.15,0,0,1-1.61-.3,3.54,3.54,0,0,1-1.22-.82,3.59,3.59,0,0,1-.77-1.24,4.37,4.37,0,0,1-.27-1.55v-.3a5,5,0,0,1,.28-1.73,4,4,0,0,1,.78-1.31A3.43,3.43,0,0,1,409.4,80a3.52,3.52,0,0,1,1.44-.29,3.67,3.67,0,0,1,1.53.29,2.89,2.89,0,0,1,1.08.82,3.56,3.56,0,0,1,.63,1.26,5.85,5.85,0,0,1,.21,1.6v.78H409a2.9,2.9,0,0,0,.2.87,2.12,2.12,0,0,0,.44.68,2,2,0,0,0,.65.45,2.11,2.11,0,0,0,.85.16,2.42,2.42,0,0,0,1.17-.27,2.73,2.73,0,0,0,.86-.74l1,.93a3.35,3.35,0,0,1-.48.56,3.32,3.32,0,0,1-.67.49,3.89,3.89,0,0,1-.87.34A4.2,4.2,0,0,1,411,88.1Zm-.22-6.92a1.53,1.53,0,0,0-1.21.52,2.72,2.72,0,0,0-.59,1.46h3.46V83a3.27,3.27,0,0,0-.12-.69,1.74,1.74,0,0,0-.29-.59,1.38,1.38,0,0,0-.5-.41A1.7,1.7,0,0,0,410.83,81.18Z" fill="#00aeef"/><path d="M415.38,83.85a6,6,0,0,1,.22-1.68,3.92,3.92,0,0,1,.65-1.31,2.94,2.94,0,0,1,1-.84,3,3,0,0,1,1.34-.3,2.93,2.93,0,0,1,1.26.25,2.61,2.61,0,0,1,.91.71l.08-.81h1.63v7.85a3.68,3.68,0,0,1-.27,1.45,3,3,0,0,1-.75,1.07,3.27,3.27,0,0,1-1.16.66,4.61,4.61,0,0,1-1.48.23,4.54,4.54,0,0,1-1.58-.3,4.08,4.08,0,0,1-.8-.41,2.58,2.58,0,0,1-.65-.62l.86-1.09a2.73,2.73,0,0,0,1,.76,2.67,2.67,0,0,0,1.09.23,2,2,0,0,0,1.43-.49,1.88,1.88,0,0,0,.52-1.44v-.54a2.56,2.56,0,0,1-.9.65,3,3,0,0,1-1.19.22,2.84,2.84,0,0,1-1.33-.31,3.07,3.07,0,0,1-1-.85,3.93,3.93,0,0,1-.65-1.3,5.71,5.71,0,0,1-.22-1.63Zm1.81.16a4.53,4.53,0,0,0,.11,1,2.59,2.59,0,0,0,.34.83,1.73,1.73,0,0,0,.58.56,1.65,1.65,0,0,0,.84.21,1.77,1.77,0,0,0,1-.26,2,2,0,0,0,.63-.68V82.13a1.85,1.85,0,0,0-.63-.67,1.81,1.81,0,0,0-1-.25,1.66,1.66,0,0,0-.85.21,1.7,1.7,0,0,0-.59.57,2.67,2.67,0,0,0-.34.84,4.49,4.49,0,0,0-.11,1Z" fill="#00aeef"/><path d="M424.37,77.78a1,1,0,0,1,.27-.69,1,1,0,0,1,.76-.28,1,1,0,0,1,.76.28,1,1,0,0,1,.27.69.93.93,0,0,1-.27.68,1,1,0,0,1-.76.27,1,1,0,0,1-.76-.27A.94.94,0,0,1,424.37,77.78ZM426.29,88h-1.81V79.87h1.81Z" fill="#00aeef"/><path d="M432.8,85.76a1,1,0,0,0-.06-.36.75.75,0,0,0-.25-.31,2,2,0,0,0-.53-.27,6.15,6.15,0,0,0-.88-.24,7.88,7.88,0,0,1-1.18-.34,3.66,3.66,0,0,1-.92-.49,2.12,2.12,0,0,1-.59-.68,1.82,1.82,0,0,1-.21-.9,2.11,2.11,0,0,1,.22-.94,2.32,2.32,0,0,1,.62-.78,3.11,3.11,0,0,1,1-.53,4,4,0,0,1,1.29-.2,4.32,4.32,0,0,1,1.36.2,3.08,3.08,0,0,1,1,.54,2.34,2.34,0,0,1,.64.82,2.37,2.37,0,0,1,.22,1h-1.81a1.19,1.19,0,0,0-.09-.45,1.13,1.13,0,0,0-.27-.39,1.3,1.3,0,0,0-.44-.27,1.72,1.72,0,0,0-.62-.1,1.87,1.87,0,0,0-.6.09,1.33,1.33,0,0,0-.42.22.88.88,0,0,0-.25.32.93.93,0,0,0-.08.38.82.82,0,0,0,.07.36.73.73,0,0,0,.27.28,2.17,2.17,0,0,0,.51.23,7.54,7.54,0,0,0,.81.21,9.56,9.56,0,0,1,1.26.35,3.53,3.53,0,0,1,.94.49,2,2,0,0,1,.59.69,2,2,0,0,1,.2.94,2.11,2.11,0,0,1-.23,1,2.27,2.27,0,0,1-.66.77,3.21,3.21,0,0,1-1,.5,4.73,4.73,0,0,1-1.34.18,4.23,4.23,0,0,1-1.47-.24,3.36,3.36,0,0,1-1.07-.62,2.56,2.56,0,0,1-.65-.86,2.34,2.34,0,0,1-.22-1h1.76a1.38,1.38,0,0,0,.17.63,1.26,1.26,0,0,0,.38.41,1.58,1.58,0,0,0,.52.23,2.5,2.5,0,0,0,.6.07,1.83,1.83,0,0,0,1.09-.27A.84.84,0,0,0,432.8,85.76Z" fill="#00aeef"/><path d="M438.43,77.91v2h1.43v1.34h-1.43v4.51a1.38,1.38,0,0,0,.06.45.58.58,0,0,0,.17.27.62.62,0,0,0,.27.13,1.58,1.58,0,0,0,.34,0l.36,0,.27,0v1.4l-.5.12a3.64,3.64,0,0,1-.69.06,2.79,2.79,0,0,1-.83-.12,1.66,1.66,0,0,1-.67-.39,1.81,1.81,0,0,1-.44-.7,3.13,3.13,0,0,1-.16-1.06V81.22h-1.33V79.87h1.33v-2Z" fill="#00aeef"/><path d="M445.47,81.53l-.36,0-.38,0a2,2,0,0,0-1.07.25,1.56,1.56,0,0,0-.61.7V88h-1.81V79.87H443l0,.9a2.34,2.34,0,0,1,.76-.77,2,2,0,0,1,1.06-.28l.35,0a1.46,1.46,0,0,1,.29.07Z" fill="#00aeef"/><path d="M451.22,88a1.5,1.5,0,0,1-.12-.34c0-.13-.06-.27-.09-.42a3.14,3.14,0,0,1-.4.35,2.7,2.7,0,0,1-.49.29,2.89,2.89,0,0,1-.57.19,3,3,0,0,1-.66.07,3.26,3.26,0,0,1-1.11-.18,2.6,2.6,0,0,1-.87-.51,2.33,2.33,0,0,1-.57-.77,2.22,2.22,0,0,1-.21-1,2.56,2.56,0,0,1,.25-1.15,2.22,2.22,0,0,1,.72-.84,3.44,3.44,0,0,1,1.15-.51,6.26,6.26,0,0,1,1.56-.18H451v-.53a1.42,1.42,0,0,0-.35-1,1.39,1.39,0,0,0-1.07-.38,1.87,1.87,0,0,0-.58.09,1.4,1.4,0,0,0-.44.23,1,1,0,0,0-.28.35,1,1,0,0,0-.1.43h-1.81a1.94,1.94,0,0,1,.24-.92,2.53,2.53,0,0,1,.67-.79,3.42,3.42,0,0,1,1-.56,4.61,4.61,0,0,1,2.63,0,2.84,2.84,0,0,1,1,.52,2.36,2.36,0,0,1,.65.87,3,3,0,0,1,.23,1.21v3.58a4.13,4.13,0,0,0,.31,1.74V88Zm-2-1.31a2,2,0,0,0,.59-.08,2.11,2.11,0,0,0,.49-.22,1.83,1.83,0,0,0,.38-.31,1.71,1.71,0,0,0,.26-.35V84.16h-1a2.67,2.67,0,0,0-1.52.35,1.14,1.14,0,0,0-.51,1A1.24,1.24,0,0,0,448,86a1,1,0,0,0,.25.36,1.16,1.16,0,0,0,.4.24A1.59,1.59,0,0,0,449.23,86.65Z" fill="#00aeef"/><path d="M456.94,77.91v2h1.43v1.34h-1.43v4.51a1.38,1.38,0,0,0,.06.45.58.58,0,0,0,.17.27.62.62,0,0,0,.27.13,1.58,1.58,0,0,0,.34,0l.36,0,.27,0v1.4l-.5.12a3.64,3.64,0,0,1-.69.06,2.79,2.79,0,0,1-.83-.12,1.66,1.66,0,0,1-.67-.39,1.81,1.81,0,0,1-.44-.7,3.13,3.13,0,0,1-.16-1.06V81.22H453.8V79.87h1.33v-2Z" fill="#00aeef"/><path d="M459.75,77.78a1,1,0,0,1,.27-.69,1,1,0,0,1,.76-.28,1,1,0,0,1,.76.28,1,1,0,0,1,.27.69.93.93,0,0,1-.27.68,1,1,0,0,1-.76.27,1,1,0,0,1-.76-.27A.94.94,0,0,1,459.75,77.78ZM461.68,88h-1.81V79.87h1.81Z" fill="#00aeef"/><path d="M463.32,83.84a5,5,0,0,1,.26-1.63,3.87,3.87,0,0,1,.74-1.3,3.39,3.39,0,0,1,1.18-.87,3.79,3.79,0,0,1,1.58-.31,3.86,3.86,0,0,1,1.59.31,3.37,3.37,0,0,1,1.18.87,3.82,3.82,0,0,1,.74,1.3,5.07,5.07,0,0,1,.25,1.63V84a5.1,5.1,0,0,1-.25,1.64,3.76,3.76,0,0,1-.74,1.3,3.36,3.36,0,0,1-1.18.86,4.19,4.19,0,0,1-3.17,0,3.36,3.36,0,0,1-1.18-.86,3.82,3.82,0,0,1-.74-1.3,5,5,0,0,1-.26-1.64Zm1.81.16a4.54,4.54,0,0,0,.11,1,2.57,2.57,0,0,0,.35.85,1.69,1.69,0,0,0,1.49.78,1.68,1.68,0,0,0,1.47-.78,2.68,2.68,0,0,0,.35-.85,4.43,4.43,0,0,0,.12-1v-.16a4.35,4.35,0,0,0-.12-1,2.64,2.64,0,0,0-.35-.84,1.82,1.82,0,0,0-.61-.58,1.7,1.7,0,0,0-.88-.22,1.66,1.66,0,0,0-.87.22,1.85,1.85,0,0,0-.6.58,2.57,2.57,0,0,0-.35.84,4.46,4.46,0,0,0-.11,1Z" fill="#00aeef"/><path d="M474,79.87l.05.93a3,3,0,0,1,1-.8,3.06,3.06,0,0,1,1.33-.28,3.28,3.28,0,0,1,1.06.16,2,2,0,0,1,.81.52,2.4,2.4,0,0,1,.52.93,4.64,4.64,0,0,1,.18,1.4V88H477.2V82.72a2.33,2.33,0,0,0-.09-.71,1.16,1.16,0,0,0-.27-.47,1,1,0,0,0-.44-.26,2.15,2.15,0,0,0-.61-.08,1.75,1.75,0,0,0-1,.27,2,2,0,0,0-.66.72V88h-1.81V79.87Z" fill="#00aeef"/></g><g id="_Group_8" data-name="&lt;Group&gt;"><g id="_Group_9" data-name="&lt;Group&gt;"><g id="_Group_10" data-name="&lt;Group&gt;"><g id="_Group_11" data-name="&lt;Group&gt;"><path id="_Compound_Path_" data-name="&lt;Compound Path&gt;" d="M90,149.06a12,12,0,1,1,12-12A12,12,0,0,1,90,149.06Zm0-22.89a10.9,10.9,0,1,0,10.9,10.9A10.91,10.91,0,0,0,90,126.17Z" fill="#00aeef"/></g></g><g id="_Group_12" data-name="&lt;Group&gt;"><g id="_Group_13" data-name="&lt;Group&gt;"><path id="_Path_8" data-name="&lt;Path&gt;" d="M102.28,143.26a.55.55,0,0,1-.5-.78,12.75,12.75,0,0,0,.68-1.83A13,13,0,0,0,103,137a.55.55,0,0,1,1.09,0,14,14,0,0,1-1.3,5.9A.55.55,0,0,1,102.28,143.26Z" fill="#00aeef"/></g></g><g id="_Group_14" data-name="&lt;Group&gt;"><g id="_Group_15" data-name="&lt;Group&gt;"><path id="_Path_9" data-name="&lt;Path&gt;" d="M77.55,132.3a.54.54,0,0,1-.21,0,.55.55,0,0,1-.29-.72c.18-.42.38-.83.59-1.22a14.16,14.16,0,0,1,.92-1.46.55.55,0,0,1,.89.64,12.93,12.93,0,0,0-.85,1.35c-.2.36-.38.74-.55,1.13A.55.55,0,0,1,77.55,132.3Z" fill="#00aeef"/></g></g><g id="_Group_16" data-name="&lt;Group&gt;"><g id="_Group_17" data-name="&lt;Group&gt;"><path id="_Path_10" data-name="&lt;Path&gt;" d="M90,151.16" fill="#00aeef"/></g></g><g id="_Group_18" data-name="&lt;Group&gt;"><g id="_Group_19" data-name="&lt;Group&gt;"><path id="_Path_11" data-name="&lt;Path&gt;" d="M102.55,132.5a.55.55,0,0,1-.51-.34c-.08-.19-.16-.38-.25-.57s-.18-.38-.28-.57a.55.55,0,1,1,1-.51q.16.3.3.61t.27.62a.55.55,0,0,1-.51.75Z" fill="#00aeef"/></g></g><g id="_Group_20" data-name="&lt;Group&gt;"><g id="_Group_21" data-name="&lt;Group&gt;"><path id="_Path_12" data-name="&lt;Path&gt;" d="M76.88,128.76a.55.55,0,0,1-.45-.85A16.41,16.41,0,0,1,83.63,122a16.19,16.19,0,0,1,3.08-1,16.6,16.6,0,0,1,6.6,0,16.29,16.29,0,0,1,5.86,2.47.55.55,0,1,1-.61.91,15.21,15.21,0,0,0-5.47-2.3,15.52,15.52,0,0,0-6.16,0,15.23,15.23,0,0,0-5.47,2.3,15.37,15.37,0,0,0-4.13,4.13A.55.55,0,0,1,76.88,128.76Z" fill="#00aeef"/></g></g><g id="_Group_22" data-name="&lt;Group&gt;"><g id="_Group_23" data-name="&lt;Group&gt;"><path id="_Path_13" data-name="&lt;Path&gt;" d="M78.81,148.81a.54.54,0,0,1-.39-.16,16.38,16.38,0,0,1-3.51-5.21,16.25,16.25,0,0,1-1-3.08,16.53,16.53,0,0,1,0-6.6A.55.55,0,1,1,75,134a15.28,15.28,0,0,0,4.17,13.89.55.55,0,0,1-.39.93Z" fill="#00aeef"/></g></g><g id="_Group_24" data-name="&lt;Group&gt;"><g id="_Group_25" data-name="&lt;Group&gt;"><path id="_Path_14" data-name="&lt;Path&gt;" d="M90,153.45a16.47,16.47,0,0,1-3.3-.33,16.3,16.3,0,0,1-3.08-1,.55.55,0,1,1,.43-1,15.26,15.26,0,0,0,2.87.89,15.52,15.52,0,0,0,6.16,0,15.26,15.26,0,0,0,2.87-.89.55.55,0,1,1,.43,1,16.3,16.3,0,0,1-3.08,1A16.47,16.47,0,0,1,90,153.45Z" fill="#00aeef"/></g></g><g id="_Group_26" data-name="&lt;Group&gt;"><g id="_Group_27" data-name="&lt;Group&gt;"><path id="_Path_15" data-name="&lt;Path&gt;" d="M101.2,148.81a.55.55,0,0,1-.39-.93,15.31,15.31,0,0,0,3.28-4.86,15.25,15.25,0,0,0,.89-2.87,15.43,15.43,0,0,0,.31-3.08.55.55,0,0,1,1.09,0,16.35,16.35,0,0,1-4.8,11.58A.55.55,0,0,1,101.2,148.81Z" fill="#00aeef"/></g></g><g id="_Group_28" data-name="&lt;Group&gt;"><g id="_Group_29" data-name="&lt;Group&gt;"><path id="_Path_16" data-name="&lt;Path&gt;" d="M104.6,131.45a.55.55,0,0,1-.5-.33,15.28,15.28,0,0,0-1.41-2.6.55.55,0,1,1,.91-.61,16.4,16.4,0,0,1,1.51,2.78.55.55,0,0,1-.29.72A.54.54,0,0,1,104.6,131.45Z" fill="#00aeef"/></g></g><g id="_Group_30" data-name="&lt;Group&gt;"><g id="_Group_31" data-name="&lt;Group&gt;"><path id="_Path_17" data-name="&lt;Path&gt;" d="M99.56,128a.55.55,0,0,1-.39-.16,13,13,0,0,0-4.12-2.78,13.08,13.08,0,0,0-10.1,0,13,13,0,0,0-4.12,2.78.55.55,0,1,1-.77-.77,14,14,0,0,1,4.47-3,14.17,14.17,0,0,1,10.95,0,14,14,0,0,1,4.47,3,.55.55,0,0,1-.39.93Z" fill="#00aeef"/></g></g><g id="_Group_32" data-name="&lt;Group&gt;"><g id="_Group_33" data-name="&lt;Group&gt;"><path id="_Path_18" data-name="&lt;Path&gt;" d="M84.75,150a.54.54,0,0,1-.21,0,14.05,14.05,0,0,1-8.59-13A.55.55,0,0,1,77,137,13,13,0,0,0,85,149a.55.55,0,0,1-.21,1.05Z" fill="#00aeef"/></g></g><g id="_Group_34" data-name="&lt;Group&gt;"><g id="_Group_35" data-name="&lt;Group&gt;"><path id="_Path_19" data-name="&lt;Path&gt;" d="M95.27,150a.55.55,0,0,1-.21-1.05,12.94,12.94,0,0,0,4.12-2.78.55.55,0,0,1,.77.77,14,14,0,0,1-4.47,3A.54.54,0,0,1,95.27,150Z" fill="#00aeef"/></g></g><g id="_Group_36" data-name="&lt;Group&gt;"><path id="_Compound_Path_2" data-name="&lt;Compound Path&gt;" d="M90,127.89a9.18,9.18,0,1,0,9.18,9.18A9.18,9.18,0,0,0,90,127.89Z" fill="#eff9fe"/><path id="_Compound_Path_3" data-name="&lt;Compound Path&gt;" d="M90,146.79a9.72,9.72,0,1,1,9.72-9.72A9.73,9.73,0,0,1,90,146.79Zm0-18.35a8.63,8.63,0,1,0,8.63,8.63A8.64,8.64,0,0,0,90,128.43Z" fill="#00aeef"/></g></g><path id="_Path_20" data-name="&lt;Path&gt;" d="M90.09,130.22a1.39,1.39,0,1,1-1.48,1.39A1.4,1.4,0,0,1,90.09,130.22Z" fill="#00aeef"/><path id="_Path_21" data-name="&lt;Path&gt;" d="M92.39,142.94H87.78v-.82l.94-.21c0-.83,0-1.89,0-2.62v-.87c0-1,0-1.5-.05-2.19l-1.06-.16v-.68l3.63-1.17.3.19-.05,2.52v2.35c0,.73,0,1.81,0,2.66l.87.17Z" fill="#00aeef"/></g><path id="_Compound_Path_4" data-name="&lt;Compound Path&gt;" d="M292.57,139.88a12.23,12.23,0,0,0-13.89-11.31,15.36,15.36,0,0,0-27.5,5.91,9.26,9.26,0,0,0-9,8.54,9,9,0,0,0,2.42,6.88,9.61,9.61,0,0,0,7,3h11.42v1.19a.85.85,0,0,0,.85.85h6.95a.85.85,0,0,0,.85-.85v-1.19h8.37a12.69,12.69,0,0,0,9.24-4A12,12,0,0,0,292.57,139.88ZM271,144.93v9.19a.16.16,0,0,1-.15.16h-6.95a.16.16,0,0,1-.16-.16v-9.19a.69.69,0,0,0-.69-.69h-4.84a.15.15,0,0,1-.11-.26l9.16-9.16a.16.16,0,0,1,.11,0,.15.15,0,0,1,.11,0l9.16,9.16a.15.15,0,0,1-.11.26H271.7A.69.69,0,0,0,271,144.93Zm17.52,3.29a11.61,11.61,0,0,1-8.46,3.63H271.7v-6.93h4.84a.85.85,0,0,0,.6-1.45L268,134.32a.85.85,0,0,0-1.2,0l-9.16,9.16a.85.85,0,0,0,.6,1.45h4.84v6.93H251.64a8.53,8.53,0,0,1-6.24-2.69,8,8,0,0,1-2.13-6.07,8.18,8.18,0,0,1,8.13-7.55h.67l.08-.45A14.29,14.29,0,0,1,278,129.44l.23.29.33-.06a11.16,11.16,0,0,1,13,10.27A10.94,10.94,0,0,1,288.53,148.22Z" fill="#00aeef"/><g id="_Group_37" data-name="&lt;Group&gt;"><path id="_Path_22" data-name="&lt;Path&gt;" d="M104.49,34.79a.39.39,0,0,0-.39-.39.39.39,0,0,0-.19.05,62.37,62.37,0,0,1-28.66,7.93,3,3,0,0,0-2.86,3v5a3,3,0,0,0,2.84,3c1.14,0,2.26.11,3.36.2s2.26.21,3.37.36a59.93,59.93,0,0,1,21.93,7.38.4.4,0,0,0,.19.05.39.39,0,0,0,.39-.39V34.79Z" fill="#c7eafb"/><path id="_Path_23" data-name="&lt;Path&gt;" d="M103.67,61.67A60.06,60.06,0,0,0,75.23,53.8a3.45,3.45,0,0,1-3.3-3.46v-5a3.46,3.46,0,0,1,3.31-3.46A61.79,61.79,0,0,0,103.68,34a.87.87,0,0,1,1.29.75V60.92A.87.87,0,0,1,103.67,61.67Z" fill="#eff9fe"/><path id="_Compound_Path_5" data-name="&lt;Compound Path&gt;" d="M108.61,47.86a3.63,3.63,0,0,0-3.12-3.59V34.79a1.39,1.39,0,0,0-2.06-1.21A60.61,60.61,0,0,1,83,40.64v-.22a.87.87,0,1,0-1.73,0v.46c-2,.25-4,.42-6,.5a4,4,0,0,0-3.81,4v5a4,4,0,0,0,3.81,4c1.13,0,2.24.11,3.33.2a1.68,1.68,0,0,0,.05.2L82.35,65a1.73,1.73,0,0,0,3.25-1.18l-2.92-8A.86.86,0,0,0,83,55.2V55a59,59,0,0,1,20.45,7.1,1.38,1.38,0,0,0,1.39,0,1.37,1.37,0,0,0,.68-1.19V51.45A3.63,3.63,0,0,0,108.61,47.86ZM72.44,50.34v-5a2.93,2.93,0,0,1,2.81-2.94c2-.08,4-.25,6-.49v2.55H76.62a.43.43,0,0,0,0,.87h4.62v1.82H76.62a.43.43,0,1,0,0,.87h4.62v1.82H76.62a.43.43,0,0,0,0,.87h4.62v3c-1.95-.24-3.94-.39-6-.46A2.91,2.91,0,0,1,72.44,50.34Zm32,10.58a.33.33,0,0,1-.17.29.35.35,0,0,1-.35,0h0A60,60,0,0,0,83,54V41.7a61.61,61.61,0,0,0,21-7.2.35.35,0,0,1,.35,0,.34.34,0,0,1,.17.29Z" fill="#00aeef"/></g><g id="_Group_38" data-name="&lt;Group&gt;"><rect id="_Rectangle_2" data-name="&lt;Rectangle&gt;" x="249.94" y="37.23" width="34.88" height="27.52" rx="1" ry="1" fill="#eff9fe"/><g id="_Group_39" data-name="&lt;Group&gt;"><path id="_Path_24" data-name="&lt;Path&gt;" d="M267.58,49.29l1.67,3.38,3.73.54a.22.22,0,0,1,.12.37l-2.7,2.63.64,3.71a.22.22,0,0,1-.32.23l-3.34-1.75L264,60.16a.22.22,0,0,1-.32-.23l.64-3.71-2.7-2.63a.22.22,0,0,1,.12-.37l3.73-.54,1.67-3.38A.22.22,0,0,1,267.58,49.29Z" fill="#00aeef"/></g><path id="_Compound_Path_6" data-name="&lt;Compound Path&gt;" d="M283.73,36.68h-4.38v-1.3a1.09,1.09,0,0,0-2.18,0v1.3H257.6v-1.3a1.09,1.09,0,1,0-2.18,0v1.3h-6v27A1.64,1.64,0,0,0,251,65.29h32.7a1.64,1.64,0,0,0,1.64-1.64v-27Zm.55,27a.55.55,0,0,1-.55.55H251a.55.55,0,0,1-.55-.55V46.77h33.79Z" fill="#00aeef"/></g><g id="_Group_40" data-name="&lt;Group&gt;"><g id="_Group_41" data-name="&lt;Group&gt;"><path id="_Path_25" data-name="&lt;Path&gt;" d="M452.57,62.63a77,77,0,0,1-23.64,0,1.75,1.75,0,0,1-1.47-1.44,77,77,0,0,1,0-23.63A1.76,1.76,0,0,1,429,36.07a77,77,0,0,1,23.63,0A1.75,1.75,0,0,1,454,37.52a77,77,0,0,1,0,23.64A1.76,1.76,0,0,1,452.57,62.63Z" fill="#eff9fe"/><path id="_Compound_Path_7" data-name="&lt;Compound Path&gt;" d="M441,64a81.84,81.84,0,0,1-12.13-.92A2.21,2.21,0,0,1,427,61.24a77.75,77.75,0,0,1,0-23.76,2.21,2.21,0,0,1,1.83-1.85,77.83,77.83,0,0,1,23.77,0,2.18,2.18,0,0,1,1.83,1.81,77.83,77.83,0,0,1,0,23.78,2.21,2.21,0,0,1-1.82,1.84h0A74,74,0,0,1,441,64Zm-.25-28.37a76.92,76.92,0,0,0-11.74.9,1.32,1.32,0,0,0-1.09,1.1,76.88,76.88,0,0,0,0,23.49,1.32,1.32,0,0,0,1.1,1.08,77,77,0,0,0,23.5,0h0a1.32,1.32,0,0,0,1.08-1.1,76.94,76.94,0,0,0,0-23.51,1.32,1.32,0,0,0-1.09-1.08A76.93,76.93,0,0,0,440.76,35.6Z" fill="#00aeef"/></g><g id="_Group_42" data-name="&lt;Group&gt;"><rect id="_Path_26" data-name="&lt;Path&gt;" x="431.67" y="39.48" width="14.5" height="3.31" fill="#00aeef"/></g><g id="_Group_43" data-name="&lt;Group&gt;"><rect id="_Path_27" data-name="&lt;Path&gt;" x="431.67" y="45.29" width="14.5" height="3.31" fill="#00aeef"/></g><g id="_Group_44" data-name="&lt;Group&gt;"><rect id="_Path_28" data-name="&lt;Path&gt;" x="431.67" y="50.9" width="14.5" height="3.31" fill="#00aeef"/></g><g id="_Group_45" data-name="&lt;Group&gt;"><path id="_Path_29" data-name="&lt;Path&gt;" d="M455.53,33.9l-3.43-2a1.45,1.45,0,0,0-1.93.65l-10.57,18.3a1.22,1.22,0,0,0-.16.56l-.26,6.4a.25.25,0,0,0,.37.21L445,54.63a1.22,1.22,0,0,0,.4-.42l10.57-18.3A1.45,1.45,0,0,0,455.53,33.9Z" fill="#fff"/><path id="_Compound_Path_8" data-name="&lt;Compound Path&gt;" d="M439.41,58.63a.76.76,0,0,1-.38-.1.81.81,0,0,1-.4-.66l.26-6.45a1.78,1.78,0,0,1,.24-.81l10.57-18.3a2.19,2.19,0,0,1,1.18-1,1.8,1.8,0,0,1,1.5.13l3.43,2a1.81,1.81,0,0,1,.87,1.23,2.19,2.19,0,0,1-.26,1.52l-10.57,18.3a1.78,1.78,0,0,1-.58.61l-5.41,3.42A.94.94,0,0,1,439.41,58.63Zm12.08-26.31a.81.81,0,0,0-.26,0,1.08,1.08,0,0,0-.58.49l-10.57,18.3a.67.67,0,0,0-.09.31l-.23,5.81,4.91-3.11a.67.67,0,0,0,.22-.23l10.57-18.3a1.08,1.08,0,0,0,.14-.75.72.72,0,0,0-.33-.49h0l-3.43-2A.66.66,0,0,0,451.49,32.32Z" fill="#00aeef"/></g><g id="_Group_46" data-name="&lt;Group&gt;"><path id="_Rectangle_3" data-name="&lt;Rectangle&gt;" d="M443.7,35.3h6.65a0,0,0,0,1,0,0V53.06a1,1,0,0,1-1,1H444.7a1,1,0,0,1-1-1V35.3A0,0,0,0,1,443.7,35.3Z" transform="translate(82.23 -217.53) rotate(30)" fill="#fff"/><path id="_Compound_Path_9" data-name="&lt;Compound Path&gt;" d="M444.81,54.62a1.65,1.65,0,0,1-.83-.22l-3.85-2.22a1.66,1.66,0,0,1-.61-2.26l9.11-15.77L455.35,38l-9.11,15.77a1.64,1.64,0,0,1-1,.77A1.66,1.66,0,0,1,444.81,54.62Zm4.23-19-8.55,14.82a.55.55,0,0,0,.2.75l3.85,2.22a.56.56,0,0,0,.42.06.55.55,0,0,0,.34-.26l8.55-14.82Z" fill="#00aeef"/></g></g><g id="_Group_47" data-name="&lt;Group&gt;"><g id="_Group_48" data-name="&lt;Group&gt;"><path id="_Path_30" data-name="&lt;Path&gt;" d="M451.3,144a11.94,11.94,0,0,1-20,4l4.43-3.72a.78.78,0,0,0-.37-1.36l-11.8-2a.78.78,0,0,0-.91.76l-.07,12a.78.78,0,0,0,1.28.6l4.47-3.75A15.82,15.82,0,0,0,455,145.35,1.94,1.94,0,0,0,451.3,144Z" fill="#eff9fe"/><path id="_Compound_Path_10" data-name="&lt;Compound Path&gt;" d="M440.08,156.32a16.3,16.3,0,0,1-11.84-5.1l-4.08,3.42a1.31,1.31,0,0,1-2.14-1l.07-12a1.31,1.31,0,0,1,1.52-1.28l11.8,2a1.31,1.31,0,0,1,.62,2.29L432,148a11.41,11.41,0,0,0,18.76-4.19h0a2.47,2.47,0,1,1,4.65,1.69,16.42,16.42,0,0,1-15.37,10.79Zm-11.74-6.56.34.38a15.3,15.3,0,0,0,25.77-5,1.42,1.42,0,1,0-2.66-1,12.46,12.46,0,0,1-20.92,4.14l-.37-.41,4.85-4.07a.25.25,0,0,0-.12-.44l-11.8-2a.25.25,0,0,0-.2.06.25.25,0,0,0-.09.19l-.07,12a.25.25,0,0,0,.41.19Z" fill="#00aeef"/></g><g id="_Group_49" data-name="&lt;Group&gt;"><path id="_Path_31" data-name="&lt;Path&gt;" d="M456.32,125.64l-4.47,3.75a15.82,15.82,0,0,0-26.66,5.14,1.94,1.94,0,0,0,3.66,1.33,11.94,11.94,0,0,1,20-4l-4.43,3.72a.78.78,0,0,0,.37,1.36l11.8,2a.78.78,0,0,0,.91-.76l.07-12A.78.78,0,0,0,456.32,125.64Z" fill="#eff9fe"/><path id="_Compound_Path_11" data-name="&lt;Compound Path&gt;" d="M456.76,139.51l-.22,0-11.8-2a1.31,1.31,0,0,1-.62-2.29l4-3.35A11.41,11.41,0,0,0,429.34,136a2.47,2.47,0,1,1-4.65-1.69,16.35,16.35,0,0,1,27.21-5.68l4.08-3.43a1.31,1.31,0,0,1,2.14,1l-.07,12a1.31,1.31,0,0,1-1.3,1.3Zm-16.69-12.05a12.44,12.44,0,0,1,9.21,4.07l.37.41L444.79,136a.25.25,0,0,0,.12.44l11.8,2a.24.24,0,0,0,.2-.05.25.25,0,0,0,.09-.19l.07-12a.25.25,0,0,0-.41-.19l-4.86,4.08-.34-.38a15.3,15.3,0,0,0-25.77,5,1.42,1.42,0,0,0,2.66,1,12.49,12.49,0,0,1,11.71-8.21Z" fill="#00aeef"/></g></g></g></g></g></svg>