<svg xmlns="http://www.w3.org/2000/svg" viewBox="0 0 90 90"><title>intro-cando-update</title><g id="Layer_2" data-name="Layer 2"><g id="Layer_1-2" data-name="Layer 1"><g id="_Group_" data-name="&lt;Group&gt;"><circle id="_Path_" data-name="&lt;Path&gt;" cx="45" cy="45" r="45" fill="#00aeef"/><g id="_Group_2" data-name="&lt;Group&gt;"><circle cx="45" cy="45" r="39.07" fill="none" stroke="#fff" stroke-dasharray="2 1"/></g></g><g id="_Group_3" data-name="&lt;Group&gt;"><g id="_Group_4" data-name="&lt;Group&gt;"><path id="_Compound_Path_" data-name="&lt;Compound Path&gt;" d="M47.65,63.35a.89.89,0,0,1-.89-.89V42.86a.89.89,0,0,1,1.51-.63L53,46.93a1.8,1.8,0,0,0,2.5,0,1.77,1.77,0,0,0,0-2.5l-9.22-9.22a1.77,1.77,0,0,0-2.5,0l-9.22,9.22a1.77,1.77,0,0,0,0,2.5,1.8,1.8,0,0,0,2.49,0l4.69-4.69a.89.89,0,0,1,1.51.63v19.6a.89.89,0,0,1-1,.88,18.33,18.33,0,1,1,5.57,0ZM48.54,45V61.4a16.56,16.56,0,1,0-7.08,0V45l-3.18,3.18a3.62,3.62,0,0,1-5,0,3.54,3.54,0,0,1,0-5L42.5,34a3.55,3.55,0,0,1,5,0l9.22,9.22a3.54,3.54,0,0,1,0,5,3.62,3.62,0,0,1-5,0Z" fill="#fff"/></g><path id="_Path_2" data-name="&lt;Path&gt;" d="M45,23a1.59,1.59,0,0,1-1.59-1.59V14.64a1.59,1.59,0,0,1,3.18,0v6.72A1.59,1.59,0,0,1,45,23" fill="#fff"/><path id="_Path_3" data-name="&lt;Path&gt;" d="M34.62,21.66A1.6,1.6,0,0,1,33,20.07a1.64,1.64,0,0,1,.46-1.13,1.66,1.66,0,0,1,2.26,0,1.61,1.61,0,0,1,.47,1.13,1.57,1.57,0,0,1-.47,1.11,1.61,1.61,0,0,1-1.12.48" fill="#fff"/><path id="_Path_4" data-name="&lt;Path&gt;" d="M19.93,36.34a1.59,1.59,0,0,1-1.13-2.71,1.64,1.64,0,0,1,2.25,0,1.59,1.59,0,0,1-1.12,2.71" fill="#fff"/><path id="_Path_5" data-name="&lt;Path&gt;" d="M19.93,57.11a1.59,1.59,0,0,1-1.13-2.71,1.64,1.64,0,0,1,2.25,0,1.59,1.59,0,0,1-1.12,2.71" fill="#fff"/><path id="_Path_6" data-name="&lt;Path&gt;" d="M34.62,71.79a1.59,1.59,0,0,1-1.12-2.71,1.66,1.66,0,0,1,2.25,0,1.6,1.6,0,0,1,0,2.26,1.65,1.65,0,0,1-1.12.46" fill="#fff"/><path id="_Path_7" data-name="&lt;Path&gt;" d="M55.39,71.79a1.6,1.6,0,0,1-1.13-2.71,1.68,1.68,0,0,1,2.26,0,1.6,1.6,0,0,1,0,2.26,1.65,1.65,0,0,1-1.13.46" fill="#fff"/><path id="_Path_8" data-name="&lt;Path&gt;" d="M70.07,57.11a1.59,1.59,0,0,1-1.12-2.71,1.64,1.64,0,0,1,2.25,0,1.59,1.59,0,0,1-1.12,2.71" fill="#fff"/><path id="_Path_9" data-name="&lt;Path&gt;" d="M70.07,36.34a1.59,1.59,0,0,1-1.12-2.71,1.64,1.64,0,0,1,2.25,0,1.59,1.59,0,0,1-1.12,2.71" fill="#fff"/><path id="_Path_10" data-name="&lt;Path&gt;" d="M55.39,21.66a1.62,1.62,0,0,1-1.13-.48,1.58,1.58,0,0,1-.47-1.11,1.61,1.61,0,0,1,.47-1.13,1.66,1.66,0,0,1,2.26,0A1.61,1.61,0,0,1,57,20.07a1.58,1.58,0,0,1-.47,1.11,1.62,1.62,0,0,1-1.13.48" fill="#fff"/><path id="_Path_11" data-name="&lt;Path&gt;" d="M28.28,29.88a1.59,1.59,0,0,1-1.12-.47l-4.75-4.75a1.59,1.59,0,0,1,2.25-2.25l4.75,4.75a1.59,1.59,0,0,1-1.13,2.71" fill="#fff"/><path id="_Path_12" data-name="&lt;Path&gt;" d="M21.36,46.59H14.64a1.59,1.59,0,1,1,0-3.18h6.72a1.59,1.59,0,0,1,0,3.18" fill="#fff"/><path id="_Path_13" data-name="&lt;Path&gt;" d="M23.53,68.06a1.59,1.59,0,0,1-1.13-2.71l4.75-4.75a1.59,1.59,0,1,1,2.25,2.25l-4.75,4.75a1.59,1.59,0,0,1-1.12.47" fill="#fff"/><path id="_Path_14" data-name="&lt;Path&gt;" d="M45,76.95a1.59,1.59,0,0,1-1.59-1.59V68.64a1.59,1.59,0,0,1,3.18,0v6.72A1.59,1.59,0,0,1,45,76.95" fill="#fff"/><path id="_Path_15" data-name="&lt;Path&gt;" d="M66.47,68.06a1.59,1.59,0,0,1-1.12-.47l-4.75-4.75a1.59,1.59,0,1,1,2.25-2.25l4.75,4.75a1.59,1.59,0,0,1-1.13,2.71" fill="#fff"/><path id="_Path_16" data-name="&lt;Path&gt;" d="M75.36,46.59H68.64a1.59,1.59,0,1,1,0-3.18h6.72a1.59,1.59,0,0,1,0,3.18" fill="#fff"/><path id="_Path_17" data-name="&lt;Path&gt;" d="M61.72,29.88a1.59,1.59,0,0,1-1.13-2.71l4.75-4.75a1.59,1.59,0,0,1,2.25,2.25l-4.75,4.75a1.59,1.59,0,0,1-1.12.47" fill="#fff"/></g></g></g></svg>