<svg xmlns="http://www.w3.org/2000/svg" xmlns:xlink="http://www.w3.org/1999/xlink" viewBox="0 0 135.41 163.75"><defs><clipPath id="clip-path"><path id="_Clipping_Path_" data-name="&lt;Clipping Path&gt;" d="M94.74,86.91,25.6,149.17a.36.36,0,0,1-.59-.34l19.35-91Z" fill="none"/></clipPath></defs><title>intro-welcome</title><g id="Layer_2" data-name="Layer 2"><g id="Layer_1-2" data-name="Layer 1"><g id="_Group_" data-name="&lt;Group&gt;"><g id="_Clip_Group_" data-name="&lt;Clip Group&gt;"><g clip-path="url(#clip-path)"><polygon id="_Path_" data-name="&lt;Path&gt;" points="44.36 57.83 94.74 86.91 74.85 121.35 42.07 61.81 44.36 57.83" fill="#fdb913"/><polygon id="_Path_2" data-name="&lt;Path&gt;" points="42.07 61.81 74.85 121.35 63.76 140.56 30.98 81.02 42.07 61.81" fill="#007dc5"/><polygon id="_Path_3" data-name="&lt;Path&gt;" points="30.98 81.02 63.76 140.56 52.67 159.77 19.88 100.23 30.98 81.02" fill="#fdb913"/><polygon id="_Path_4" data-name="&lt;Path&gt;" points="19.88 100.23 52.67 159.77 50.37 163.75 0 134.67 19.88 100.23" fill="#007dc5"/></g></g><rect id="_Rectangle_" data-name="&lt;Rectangle&gt;" x="36.04" y="70.27" width="68.15" height="2.26" transform="translate(45.09 -25.49) rotate(30)" fill="#007dc5"/><g id="_Group_2" data-name="&lt;Group&gt;"><path id="_Path_5" data-name="&lt;Path&gt;" d="M89.32,73.89l-.18-.13A1.19,1.19,0,0,1,89,72.07a30.85,30.85,0,0,1,33-8.51,1.19,1.19,0,1,1-.83,2.24,28.39,28.39,0,0,0-30.38,7.83A1.19,1.19,0,0,1,89.32,73.89Z" fill="#007dc5"/></g><g id="_Group_3" data-name="&lt;Group&gt;"><path id="_Path_6" data-name="&lt;Path&gt;" d="M57.13,55.76a1.19,1.19,0,0,1-.6-1c-.06-3.39-.43-8.35-3-12.18-2-3.11-6.18-5.67-10.11-4.54a1.19,1.19,0,0,1-.66-2.29c5-1.45,10.23,1.68,12.76,5.52C58.43,45.6,58.85,51,58.92,54.7a1.19,1.19,0,0,1-1.79,1.06Z" fill="#007dc5"/></g><g id="_Group_4" data-name="&lt;Group&gt;"><path id="_Path_7" data-name="&lt;Path&gt;" d="M70.81,50.53a1.19,1.19,0,0,1-.56-1.32C72.33,41,73.86,34.28,73.1,29.6c-.49-3.06-2.28-10.51-8.22-13.72A1.19,1.19,0,1,1,66,13.78c6.88,3.72,8.89,12,9.44,15.44.83,5.13-.75,12.05-2.9,20.57a1.19,1.19,0,0,1-1.75.74Z" fill="#007dc5"/></g><g id="_Group_5" data-name="&lt;Group&gt;"><path id="_Path_8" data-name="&lt;Path&gt;" d="M82.38,61.32h0A1.19,1.19,0,0,1,82,59.68c5.24-8.81,10-15.92,16.14-21.94,5.13-5,13.49-11.3,24.17-12.69a1.19,1.19,0,0,1,.31,2.37c-10,1.3-17.93,7.26-22.8,12C93.8,45.29,89.15,52.25,84,60.9A1.19,1.19,0,0,1,82.38,61.32Z" fill="#007dc5"/></g><g id="_Group_6" data-name="&lt;Group&gt;"><rect id="_Rectangle_2" data-name="&lt;Rectangle&gt;" x="130.87" y="34.62" width="4.54" height="1.85" fill="#ec008c"/><rect id="_Rectangle_3" data-name="&lt;Rectangle&gt;" x="126.26" y="29.89" width="4.54" height="1.85" transform="translate(159.35 -97.71) rotate(90)" fill="#ec008c"/><rect id="_Rectangle_4" data-name="&lt;Rectangle&gt;" x="126.26" y="39.35" width="4.54" height="1.85" transform="translate(168.81 -88.25) rotate(90)" fill="#ec008c"/><rect id="_Rectangle_5" data-name="&lt;Rectangle&gt;" x="121.53" y="34.62" width="4.54" height="1.85" fill="#ec008c"/></g><g id="_Group_7" data-name="&lt;Group&gt;"><rect id="_Rectangle_6" data-name="&lt;Rectangle&gt;" x="88.33" y="32.52" width="4.08" height="1.67" fill="#ec008c"/><rect id="_Rectangle_7" data-name="&lt;Rectangle&gt;" x="84.19" y="28.27" width="4.08" height="1.67" transform="translate(115.33 -57.13) rotate(90)" fill="#ec008c"/><rect id="_Rectangle_8" data-name="&lt;Rectangle&gt;" x="84.19" y="36.76" width="4.08" height="1.67" transform="translate(123.82 -48.64) rotate(90)" fill="#ec008c"/><rect id="_Rectangle_9" data-name="&lt;Rectangle&gt;" x="79.95" y="32.52" width="4.08" height="1.67" fill="#ec008c"/></g><g id="_Group_8" data-name="&lt;Group&gt;"><rect id="_Rectangle_10" data-name="&lt;Rectangle&gt;" x="58" y="15.07" width="4.61" height="1.88" fill="#ec008c"/><rect id="_Rectangle_11" data-name="&lt;Rectangle&gt;" x="53.33" y="10.27" width="4.61" height="1.88" transform="translate(66.84 -44.42) rotate(90)" fill="#ec008c"/><rect id="_Rectangle_12" data-name="&lt;Rectangle&gt;" x="53.33" y="19.87" width="4.61" height="1.88" transform="translate(76.44 -34.82) rotate(90)" fill="#ec008c"/><rect id="_Rectangle_13" data-name="&lt;Rectangle&gt;" x="48.53" y="15.07" width="4.61" height="1.88" fill="#ec008c"/></g><g id="_Group_9" data-name="&lt;Group&gt;"><path id="_Compound_Path_" data-name="&lt;Compound Path&gt;" d="M99.82,26.89A5.23,5.23,0,1,1,107,25,5.24,5.24,0,0,1,99.82,26.89Zm4.26-7.37a3.28,3.28,0,1,0,1.2,4.48A3.29,3.29,0,0,0,104.07,19.52Z" fill="#fbb040"/></g><g id="_Group_10" data-name="&lt;Group&gt;"><path id="_Compound_Path_2" data-name="&lt;Compound Path&gt;" d="M110.91,79.81a5.53,5.53,0,1,1,7.56-2A5.54,5.54,0,0,1,110.91,79.81Zm4.29-7.43a3,3,0,1,0,1.11,4.16A3,3,0,0,0,115.2,72.39Z" fill="#fbb040"/></g><g id="_Group_11" data-name="&lt;Group&gt;"><path id="_Compound_Path_3" data-name="&lt;Compound Path&gt;" d="M33.79,31.51a6.2,6.2,0,1,1,8.47-2.27A6.21,6.21,0,0,1,33.79,31.51Zm4.58-7.94a3,3,0,1,0,1.08,4A3,3,0,0,0,38.37,23.57Z" fill="#fbb040"/></g><circle id="_Path_9" data-name="&lt;Path&gt;" cx="66.26" cy="49.33" r="1.9" transform="translate(-9.59 82.05) rotate(-60)" fill="#fbb040"/><circle id="_Path_10" data-name="&lt;Path&gt;" cx="125.35" cy="60.16" r="1.58" transform="translate(10.58 138.63) rotate(-60)" fill="#ec008c"/><circle id="_Path_11" data-name="&lt;Path&gt;" cx="106.38" cy="40.61" r="1.86" transform="translate(18.02 112.43) rotate(-60)" fill="#fbb040"/><circle id="_Path_12" data-name="&lt;Path&gt;" cx="94.74" cy="1.87" r="1.86" transform="translate(45.75 82.98) rotate(-60)" fill="#fbb040"/><circle id="_Path_13" data-name="&lt;Path&gt;" cx="98.21" cy="78.32" r="2.13" transform="translate(-18.72 124.21) rotate(-60)" fill="#ec008c"/><circle id="_Path_14" data-name="&lt;Path&gt;" cx="39.42" cy="46.34" r="2.29" transform="translate(-20.42 57.31) rotate(-60)" fill="#ec008c"/><circle id="_Path_15" data-name="&lt;Path&gt;" cx="79.02" cy="13.81" r="4.15" transform="translate(27.55 75.34) rotate(-60)" fill="#ec008c"/></g></g></g></svg>