<svg xmlns="http://www.w3.org/2000/svg" viewBox="0 0 90 90"><title>intro-cando-delegate</title><g id="Layer_2" data-name="Layer 2"><g id="Layer_1-2" data-name="Layer 1"><g id="_Group_" data-name="&lt;Group&gt;"><circle id="_Path_" data-name="&lt;Path&gt;" cx="45" cy="45" r="45" fill="#00aeef"/><g id="_Group_2" data-name="&lt;Group&gt;"><circle id="_Path_2" data-name="&lt;Path&gt;" cx="45" cy="45" r="39.07" fill="none" stroke="#fff" stroke-dasharray="2 1"/></g><g id="_Group_3" data-name="&lt;Group&gt;"><path id="_Path_3" data-name="&lt;Path&gt;" d="M43.63,47.5a1.77,1.77,0,0,0-1.32.5l-8.16,7.72-.55-.58,1.89-1.79a1.88,1.88,0,0,0,.26-.31l7.33-6.94a1.73,1.73,0,1,0-2.38-2.51L33.6,50.31a1.93,1.93,0,0,0-.61.4L31.1,52.5l-.55-.58,1.1-1a1.8,1.8,0,0,0,.46-.69l7.35-7a1.73,1.73,0,1,0-2.38-2.51l-9,8.55-.55-.58L28,48.2a1.81,1.81,0,0,0,.41-.57l5.37-5.08a1.68,1.68,0,1,0-2.31-2.44l-5.34,5.05a1.79,1.79,0,0,0-.63.39L18,52.69a5.36,5.36,0,0,0-1.27,6l-2.06,2,9.51,10,1.9-1.8a5.41,5.41,0,0,0,3.36.69,5.32,5.32,0,0,0,3.17-1.46l8-7.6A1.79,1.79,0,0,0,40.69,58a1.76,1.76,0,0,0-1.29-.57,1.73,1.73,0,0,0-1.29.47l-4.81,4.55L32.85,62l12-11.33a1.78,1.78,0,0,0,.57-1.29,1.72,1.72,0,0,0-.47-1.29A1.76,1.76,0,0,0,43.63,47.5Z" fill="#fff"/><path id="_Path_4" data-name="&lt;Path&gt;" d="M75.35,29.34l-9.51-10-1.9,1.8a5.4,5.4,0,0,0-3.36-.69,5.32,5.32,0,0,0-3.17,1.46l-8,7.6A1.78,1.78,0,0,0,49.31,32a1.76,1.76,0,0,0,1.29.57,1.73,1.73,0,0,0,1.29-.47l4.81-4.55.45.48-12,11.33a1.78,1.78,0,0,0-.57,1.29,1.72,1.72,0,0,0,.47,1.29,1.76,1.76,0,0,0,1.29.57,1.78,1.78,0,0,0,1.32-.5l8.16-7.72.55.58-1.89,1.79a1.88,1.88,0,0,0-.26.31l-7.33,6.94a1.73,1.73,0,1,0,2.38,2.51l7.11-6.73a1.93,1.93,0,0,0,.61-.4l1.89-1.79.55.58-1.1,1a1.79,1.79,0,0,0-.46.69l-7.35,7a1.73,1.73,0,1,0,2.38,2.51l9-8.55.55.58L62,41.8a1.8,1.8,0,0,0-.41.57L56.2,47.45a1.68,1.68,0,1,0,2.31,2.44l5.34-5.05a1.79,1.79,0,0,0,.63-.39L72,37.31a5.31,5.31,0,0,0,1.59-2.82,5.24,5.24,0,0,0-.31-3.19Z" fill="#fff"/></g></g></g></g></svg>