<svg xmlns="http://www.w3.org/2000/svg" viewBox="0 0 131.65 180.25"><title>intro-ready</title><g id="Layer_2" data-name="Layer 2"><g id="Layer_1-2" data-name="Layer 1"><g id="_Group_" data-name="&lt;Group&gt;"><path id="_Rectangle_" data-name="&lt;Rectangle&gt;" d="M16.12,106.53H118.28a0,0,0,0,1,0,0v58.71a13.51,13.51,0,0,1-13.51,13.51H29.63a13.51,13.51,0,0,1-13.51-13.51V106.53A0,0,0,0,1,16.12,106.53Z" fill="#00b9f2" stroke="#004d6d" stroke-miterlimit="10" stroke-width="3"/><line id="_Path_" data-name="&lt;Path&gt;" x1="87.65" y1="106.53" x2="87.65" y2="178.75" fill="none" stroke="#004d6d" stroke-miterlimit="10" stroke-width="3"/><polygon id="_Path_2" data-name="&lt;Path&gt;" points="76.63 130.17 5.09 130.17 16.11 106.53 87.65 106.53 76.63 130.17" fill="#00b9f2" stroke="#004d6d" stroke-miterlimit="10" stroke-width="3"/><polygon id="_Path_3" data-name="&lt;Path&gt;" points="129.3 130.17 98.67 130.17 87.65 106.53 118.28 106.53 129.3 130.17" fill="#00b9f2" stroke="#004d6d" stroke-miterlimit="10" stroke-width="3"/><g id="_Group_2" data-name="&lt;Group&gt;"><polygon id="_Path_4" data-name="&lt;Path&gt;" points="56.78 178.75 49.19 178.75 41.59 178.75 41.59 168.69 41.59 158.62 45.39 164.18 49.19 158.62 52.98 164.18 56.78 158.62 56.78 168.69 56.78 178.75" fill="#f7941d"/><path id="_Compound_Path_" data-name="&lt;Compound Path&gt;" d="M56.78,180H41.59a1.25,1.25,0,0,1-1.25-1.25V158.62a1.25,1.25,0,0,1,2.28-.71L45.39,162l2.77-4.05a1.25,1.25,0,0,1,1-.54h0a1.25,1.25,0,0,1,1,.55L53,162l2.77-4a1.25,1.25,0,0,1,2.28.71v20.13A1.25,1.25,0,0,1,56.78,180Zm-13.94-2.5H55.53V162.67L54,164.89a1.25,1.25,0,0,1-1,.54h0a1.25,1.25,0,0,1-1-.55l-2.77-4-2.77,4a1.3,1.3,0,0,1-2.06,0l-1.52-2.22Z" fill="#004d6d"/></g><g id="_Group_3" data-name="&lt;Group&gt;"><g id="_Group_4" data-name="&lt;Group&gt;"><path id="_Path_5" data-name="&lt;Path&gt;" d="M100.23,98.73a1.56,1.56,0,0,1-1.56-1.56V70.7a23.5,23.5,0,0,1,23.48-23.47,1.56,1.56,0,1,1,0,3.11A20.39,20.39,0,0,0,101.79,70.7V97.18A1.56,1.56,0,0,1,100.23,98.73Z" fill="#00a79d"/></g><g id="_Group_5" data-name="&lt;Group&gt;"><path id="_Path_6" data-name="&lt;Path&gt;" d="M84.74,48a1.56,1.56,0,0,1-1.56-1.56v-6A23.5,23.5,0,0,1,106.65,17a1.56,1.56,0,0,1,0,3.11A20.39,20.39,0,0,0,86.29,40.43v6A1.56,1.56,0,0,1,84.74,48Z" fill="#ef4136"/></g><g id="_Group_6" data-name="&lt;Group&gt;"><path id="_Path_7" data-name="&lt;Path&gt;" d="M44.25,51.35A1.56,1.56,0,0,1,42.7,49.8,20.39,20.39,0,0,0,22.33,29.43a1.56,1.56,0,0,1,0-3.11A23.5,23.5,0,0,1,45.81,49.8,1.56,1.56,0,0,1,44.25,51.35Z" fill="#fbb040"/></g><g id="_Group_7" data-name="&lt;Group&gt;"><path id="_Compound_Path_2" data-name="&lt;Compound Path&gt;" d="M44.25,80.16A1.56,1.56,0,0,1,42.7,78.6v-.54a1.56,1.56,0,1,1,3.11,0v.54A1.56,1.56,0,0,1,44.25,80.16Zm0-5.21a1.56,1.56,0,0,1-1.56-1.56v-.54a1.56,1.56,0,1,1,3.11,0v.54A1.56,1.56,0,0,1,44.25,74.95Zm0-5.21a1.56,1.56,0,0,1-1.56-1.56v-.54a1.56,1.56,0,0,1,3.11,0v.54A1.56,1.56,0,0,1,44.25,69.74Zm0-5.21A1.56,1.56,0,0,1,42.7,63v-.54a1.56,1.56,0,1,1,3.11,0V63A1.56,1.56,0,0,1,44.25,64.53Zm0-5.21a1.56,1.56,0,0,1-1.56-1.56v-.54a1.56,1.56,0,1,1,3.11,0v.54A1.56,1.56,0,0,1,44.25,59.32Z" fill="#fbb040"/></g><g id="_Group_8" data-name="&lt;Group&gt;"><path id="_Path_8" data-name="&lt;Path&gt;" d="M26.13,74.53A1.55,1.55,0,0,1,25,74a20.42,20.42,0,0,0-15-6.59,1.56,1.56,0,0,1,0-3.11,23.54,23.54,0,0,1,17.26,7.6,1.56,1.56,0,0,1-1.14,2.61Z" fill="#ef4136"/></g><g id="_Group_9" data-name="&lt;Group&gt;"><path id="_Compound_Path_3" data-name="&lt;Compound Path&gt;" d="M32.72,99.51A1.56,1.56,0,0,1,31.16,98v-.54a1.56,1.56,0,1,1,3.11,0V98A1.56,1.56,0,0,1,32.72,99.51Zm0-5.21a1.56,1.56,0,0,1-1.56-1.56V92.2a1.56,1.56,0,0,1,3.11,0v.54A1.56,1.56,0,0,1,32.72,94.3Zm0-5.21a1.56,1.56,0,0,1-1.55-1.48q0-.25,0-.5a1.56,1.56,0,0,1,3.1-.23c0,.2,0,.39,0,.59a1.56,1.56,0,0,1-1.48,1.63ZM31.83,84a1.56,1.56,0,0,1-1.49-1.11l-.15-.49a1.56,1.56,0,0,1,3-.94l.17.55a1.56,1.56,0,0,1-1.49,2Zm-2.06-4.77a1.55,1.55,0,0,1-1.35-.78L28.16,78a1.56,1.56,0,1,1,2.66-1.62l.3.5a1.56,1.56,0,0,1-1.34,2.34Z" fill="#ef4136"/></g><g id="_Group_10" data-name="&lt;Group&gt;"><g id="_Group_11" data-name="&lt;Group&gt;"><path id="_Path_9" data-name="&lt;Path&gt;" d="M84.74,53.68a1.56,1.56,0,0,1-1.56-1.56v-.27a1.56,1.56,0,0,1,3.11,0v.27A1.56,1.56,0,0,1,84.74,53.68Z" fill="#ef4136"/></g><g id="_Group_12" data-name="&lt;Group&gt;"><path id="_Compound_Path_4" data-name="&lt;Compound Path&gt;" d="M84.74,63.5a1.56,1.56,0,0,1-1.56-1.56v-.51a1.56,1.56,0,0,1,3.11,0v.51A1.56,1.56,0,0,1,84.74,63.5Zm0-4.91A1.56,1.56,0,0,1,83.18,57v-.51a1.56,1.56,0,1,1,3.11,0V57A1.56,1.56,0,0,1,84.74,58.59Z" fill="#ef4136"/></g><g id="_Group_13" data-name="&lt;Group&gt;"><path id="_Path_10" data-name="&lt;Path&gt;" d="M84.74,68.17a1.56,1.56,0,0,1-1.56-1.56v-.27a1.56,1.56,0,0,1,3.11,0v.27A1.56,1.56,0,0,1,84.74,68.17Z" fill="#ef4136"/></g></g><g id="_Group_14" data-name="&lt;Group&gt;"><path id="_Compound_Path_5" data-name="&lt;Compound Path&gt;" d="M91,80.81a1.56,1.56,0,0,1-1.56-1.56v-.54a1.56,1.56,0,0,1,3.11,0v.54A1.56,1.56,0,0,1,91,80.81Zm0-5.21A1.56,1.56,0,0,1,89.49,74V73.5a1.56,1.56,0,1,1,3.11,0V74A1.56,1.56,0,0,1,91,75.6Zm0-5.21a1.56,1.56,0,0,1-1.56-1.56v-.54a1.56,1.56,0,1,1,3.11,0v.54A1.56,1.56,0,0,1,91,70.38Zm0-5.21a1.56,1.56,0,0,1-1.56-1.56v-.54a1.56,1.56,0,0,1,3.11,0v.54A1.56,1.56,0,0,1,91,65.17Z" fill="#f7941d"/></g><g id="_Group_15" data-name="&lt;Group&gt;"><path id="_Compound_Path_6" data-name="&lt;Compound Path&gt;" d="M63.84,80.81a1.56,1.56,0,0,1-1.56-1.56v-.54a1.56,1.56,0,0,1,3.11,0v.54A1.56,1.56,0,0,1,63.84,80.81Zm0-5.21A1.56,1.56,0,0,1,62.28,74V73.5a1.56,1.56,0,1,1,3.11,0V74A1.56,1.56,0,0,1,63.84,75.6Zm0-5.21a1.56,1.56,0,0,1-1.56-1.56v-.54a1.56,1.56,0,1,1,3.11,0v.54A1.56,1.56,0,0,1,63.84,70.38Zm0-5.21a1.56,1.56,0,0,1-1.56-1.56v-.54a1.56,1.56,0,0,1,3.11,0v.54A1.56,1.56,0,0,1,63.84,65.17Z" fill="#00a79d"/></g><g id="_Group_16" data-name="&lt;Group&gt;"><path id="_Path_11" data-name="&lt;Path&gt;" d="M63.84,59.07a1.56,1.56,0,0,1-1.56-1.56V36.45a1.56,1.56,0,1,1,3.11,0V57.51A1.56,1.56,0,0,1,63.84,59.07Z" fill="#00a79d"/></g><polygon id="_Path_12" data-name="&lt;Path&gt;" points="7.54 51.85 4.85 51.66 3.17 53.76 2.52 51.14 0 50.19 2.29 48.77 2.42 46.08 4.48 47.81 7.08 47.1 6.06 49.6 7.54 51.85" fill="#fbb040"/><polygon id="_Path_13" data-name="&lt;Path&gt;" points="81.37 91.7 77.85 91.36 75.58 94.07 74.81 90.62 71.53 89.3 74.58 87.5 74.82 83.97 77.47 86.32 80.9 85.46 79.49 88.7 81.37 91.7" fill="#00a79d"/><polygon id="_Path_14" data-name="&lt;Path&gt;" points="124.44 16.1 121.95 14.48 119.2 15.62 119.97 12.74 118.04 10.48 121.01 10.32 122.56 7.79 123.63 10.57 126.52 11.26 124.21 13.13 124.44 16.1" fill="#f7941d"/><polygon id="_Path_15" data-name="&lt;Path&gt;" points="122.28 66.61 121.66 65.54 120.42 65.45 121.25 64.52 120.96 63.32 122.09 63.82 123.14 63.17 123.02 64.4 123.96 65.2 122.75 65.47 122.28 66.61" fill="#ef4136"/><polygon id="_Path_16" data-name="&lt;Path&gt;" points="44.25 16.1 42.26 16.05 41.08 17.66 40.51 15.75 38.61 15.13 40.26 14 40.26 12 41.84 13.22 43.74 12.6 43.08 14.48 44.25 16.1" fill="#00a79d"/><polygon id="_Path_17" data-name="&lt;Path&gt;" points="19.79 85.4 18.35 85.06 17.25 86.04 17.14 84.57 15.86 83.83 17.22 83.26 17.53 81.82 18.49 82.94 19.96 82.79 19.19 84.05 19.79 85.4" fill="#ef4136"/><circle id="_Path_18" data-name="&lt;Path&gt;" cx="62.81" cy="16.35" r="2.97" fill="#00a79d"/><circle id="_Path_19" data-name="&lt;Path&gt;" cx="119.99" cy="27.5" r="1.51" fill="#00a79d"/><circle id="_Path_20" data-name="&lt;Path&gt;" cx="24.23" cy="50.68" r="1.9" fill="#ef4136"/><circle id="_Path_21" data-name="&lt;Path&gt;" cx="12.07" cy="14.05" r="2.05" fill="#ef4136"/><circle id="_Path_22" data-name="&lt;Path&gt;" cx="84.89" cy="2.1" r="2.1" fill="#f7941d"/><circle id="_Path_23" data-name="&lt;Path&gt;" cx="113.79" cy="93.25" r="2.6" fill="#f7941d"/><circle id="_Path_24" data-name="&lt;Path&gt;" cx="3.77" cy="92.47" r="2.8" fill="#00a79d"/></g></g></g></g></svg>